<?xml version="1.0" encoding="utf-8"?>
<svg xmlns="http://www.w3.org/2000/svg" xmlns:xlink="http://www.w3.org/1999/xlink" width="600" height="400" viewBox="0 0 2400 1600">
<defs>
  <clipPath id="clip550">
    <rect x="0" y="0" width="2400" height="1600"/>
  </clipPath>
</defs>
<path clip-path="url(#clip550)" d="M0 1600 L2400 1600 L2400 0 L0 0  Z" fill="#ffffff" fill-rule="evenodd" fill-opacity="1"/>
<defs>
  <clipPath id="clip551">
    <rect x="480" y="0" width="1681" height="1600"/>
  </clipPath>
</defs>
<path clip-path="url(#clip550)" d="M278.107 1423.18 L2352.76 1423.18 L2352.76 47.2441 L278.107 47.2441  Z" fill="#ffffff" fill-rule="evenodd" fill-opacity="1"/>
<defs>
  <clipPath id="clip552">
    <rect x="278" y="47" width="2076" height="1377"/>
  </clipPath>
</defs>
<polyline clip-path="url(#clip552)" style="stroke:#000000; stroke-linecap:round; stroke-linejoin:round; stroke-width:2; stroke-opacity:0.1; fill:none" points="336.823,1423.18 336.823,47.2441 "/>
<polyline clip-path="url(#clip552)" style="stroke:#000000; stroke-linecap:round; stroke-linejoin:round; stroke-width:2; stroke-opacity:0.1; fill:none" points="989.229,1423.18 989.229,47.2441 "/>
<polyline clip-path="url(#clip552)" style="stroke:#000000; stroke-linecap:round; stroke-linejoin:round; stroke-width:2; stroke-opacity:0.1; fill:none" points="1641.63,1423.18 1641.63,47.2441 "/>
<polyline clip-path="url(#clip552)" style="stroke:#000000; stroke-linecap:round; stroke-linejoin:round; stroke-width:2; stroke-opacity:0.1; fill:none" points="2294.04,1423.18 2294.04,47.2441 "/>
<polyline clip-path="url(#clip550)" style="stroke:#000000; stroke-linecap:round; stroke-linejoin:round; stroke-width:4; stroke-opacity:1; fill:none" points="278.107,1423.18 2352.76,1423.18 "/>
<polyline clip-path="url(#clip550)" style="stroke:#000000; stroke-linecap:round; stroke-linejoin:round; stroke-width:4; stroke-opacity:1; fill:none" points="336.823,1423.18 336.823,1404.28 "/>
<polyline clip-path="url(#clip550)" style="stroke:#000000; stroke-linecap:round; stroke-linejoin:round; stroke-width:4; stroke-opacity:1; fill:none" points="989.229,1423.18 989.229,1404.28 "/>
<polyline clip-path="url(#clip550)" style="stroke:#000000; stroke-linecap:round; stroke-linejoin:round; stroke-width:4; stroke-opacity:1; fill:none" points="1641.63,1423.18 1641.63,1404.28 "/>
<polyline clip-path="url(#clip550)" style="stroke:#000000; stroke-linecap:round; stroke-linejoin:round; stroke-width:4; stroke-opacity:1; fill:none" points="2294.04,1423.18 2294.04,1404.28 "/>
<path clip-path="url(#clip550)" d="M336.823 1454.1 Q333.212 1454.1 331.383 1457.66 Q329.578 1461.2 329.578 1468.33 Q329.578 1475.44 331.383 1479.01 Q333.212 1482.55 336.823 1482.55 Q340.457 1482.55 342.263 1479.01 Q344.092 1475.44 344.092 1468.33 Q344.092 1461.2 342.263 1457.66 Q340.457 1454.1 336.823 1454.1 M336.823 1450.39 Q342.633 1450.39 345.689 1455 Q348.768 1459.58 348.768 1468.33 Q348.768 1477.06 345.689 1481.67 Q342.633 1486.25 336.823 1486.25 Q331.013 1486.25 327.934 1481.67 Q324.879 1477.06 324.879 1468.33 Q324.879 1459.58 327.934 1455 Q331.013 1450.39 336.823 1450.39 Z" fill="#000000" fill-rule="nonzero" fill-opacity="1" /><path clip-path="url(#clip550)" d="M963.916 1481.64 L971.555 1481.64 L971.555 1455.28 L963.245 1456.95 L963.245 1452.69 L971.509 1451.02 L976.185 1451.02 L976.185 1481.64 L983.824 1481.64 L983.824 1485.58 L963.916 1485.58 L963.916 1481.64 Z" fill="#000000" fill-rule="nonzero" fill-opacity="1" /><path clip-path="url(#clip550)" d="M1003.27 1454.1 Q999.657 1454.1 997.828 1457.66 Q996.023 1461.2 996.023 1468.33 Q996.023 1475.44 997.828 1479.01 Q999.657 1482.55 1003.27 1482.55 Q1006.9 1482.55 1008.71 1479.01 Q1010.54 1475.44 1010.54 1468.33 Q1010.54 1461.2 1008.71 1457.66 Q1006.9 1454.1 1003.27 1454.1 M1003.27 1450.39 Q1009.08 1450.39 1012.13 1455 Q1015.21 1459.58 1015.21 1468.33 Q1015.21 1477.06 1012.13 1481.67 Q1009.08 1486.25 1003.27 1486.25 Q997.458 1486.25 994.379 1481.67 Q991.323 1477.06 991.323 1468.33 Q991.323 1459.58 994.379 1455 Q997.458 1450.39 1003.27 1450.39 Z" fill="#000000" fill-rule="nonzero" fill-opacity="1" /><path clip-path="url(#clip550)" d="M1620.41 1481.64 L1636.73 1481.64 L1636.73 1485.58 L1614.78 1485.58 L1614.78 1481.64 Q1617.44 1478.89 1622.03 1474.26 Q1626.63 1469.61 1627.81 1468.27 Q1630.06 1465.74 1630.94 1464.01 Q1631.84 1462.25 1631.84 1460.56 Q1631.84 1457.8 1629.9 1456.07 Q1627.98 1454.33 1624.87 1454.33 Q1622.68 1454.33 1620.22 1455.09 Q1617.79 1455.86 1615.01 1457.41 L1615.01 1452.69 Q1617.84 1451.55 1620.29 1450.97 Q1622.75 1450.39 1624.78 1450.39 Q1630.15 1450.39 1633.35 1453.08 Q1636.54 1455.77 1636.54 1460.26 Q1636.54 1462.39 1635.73 1464.31 Q1634.94 1466.2 1632.84 1468.8 Q1632.26 1469.47 1629.16 1472.69 Q1626.06 1475.88 1620.41 1481.64 Z" fill="#000000" fill-rule="nonzero" fill-opacity="1" /><path clip-path="url(#clip550)" d="M1656.54 1454.1 Q1652.93 1454.1 1651.1 1457.66 Q1649.3 1461.2 1649.3 1468.33 Q1649.3 1475.44 1651.1 1479.01 Q1652.93 1482.55 1656.54 1482.55 Q1660.18 1482.55 1661.98 1479.01 Q1663.81 1475.44 1663.81 1468.33 Q1663.81 1461.2 1661.98 1457.66 Q1660.18 1454.1 1656.54 1454.1 M1656.54 1450.39 Q1662.35 1450.39 1665.41 1455 Q1668.49 1459.58 1668.49 1468.33 Q1668.49 1477.06 1665.41 1481.67 Q1662.35 1486.25 1656.54 1486.25 Q1650.73 1486.25 1647.65 1481.67 Q1644.6 1477.06 1644.6 1468.33 Q1644.6 1459.58 1647.65 1455 Q1650.73 1450.39 1656.54 1450.39 Z" fill="#000000" fill-rule="nonzero" fill-opacity="1" /><path clip-path="url(#clip550)" d="M2282.88 1466.95 Q2286.24 1467.66 2288.11 1469.93 Q2290.01 1472.2 2290.01 1475.53 Q2290.01 1480.65 2286.49 1483.45 Q2282.97 1486.25 2276.49 1486.25 Q2274.32 1486.25 2272 1485.81 Q2269.71 1485.39 2267.26 1484.54 L2267.26 1480.02 Q2269.2 1481.16 2271.52 1481.74 Q2273.83 1482.32 2276.35 1482.32 Q2280.75 1482.32 2283.04 1480.58 Q2285.36 1478.84 2285.36 1475.53 Q2285.36 1472.48 2283.21 1470.77 Q2281.08 1469.03 2277.26 1469.03 L2273.23 1469.03 L2273.23 1465.19 L2277.44 1465.19 Q2280.89 1465.19 2282.72 1463.82 Q2284.55 1462.43 2284.55 1459.84 Q2284.55 1457.18 2282.65 1455.77 Q2280.78 1454.33 2277.26 1454.33 Q2275.34 1454.33 2273.14 1454.75 Q2270.94 1455.16 2268.3 1456.04 L2268.3 1451.88 Q2270.96 1451.14 2273.28 1450.77 Q2275.61 1450.39 2277.67 1450.39 Q2283 1450.39 2286.1 1452.83 Q2289.2 1455.23 2289.2 1459.35 Q2289.2 1462.22 2287.56 1464.21 Q2285.91 1466.18 2282.88 1466.95 Z" fill="#000000" fill-rule="nonzero" fill-opacity="1" /><path clip-path="url(#clip550)" d="M2308.88 1454.1 Q2305.27 1454.1 2303.44 1457.66 Q2301.63 1461.2 2301.63 1468.33 Q2301.63 1475.44 2303.44 1479.01 Q2305.27 1482.55 2308.88 1482.55 Q2312.51 1482.55 2314.32 1479.01 Q2316.15 1475.44 2316.15 1468.33 Q2316.15 1461.2 2314.32 1457.66 Q2312.51 1454.1 2308.88 1454.1 M2308.88 1450.39 Q2314.69 1450.39 2317.74 1455 Q2320.82 1459.58 2320.82 1468.33 Q2320.82 1477.06 2317.74 1481.67 Q2314.69 1486.25 2308.88 1486.25 Q2303.07 1486.25 2299.99 1481.67 Q2296.93 1477.06 2296.93 1468.33 Q2296.93 1459.58 2299.99 1455 Q2303.07 1450.39 2308.88 1450.39 Z" fill="#000000" fill-rule="nonzero" fill-opacity="1" /><path clip-path="url(#clip550)" d="M1185.6 1520.52 L1225.8 1520.52 L1225.8 1525.93 L1208.93 1525.93 L1208.93 1568.04 L1202.47 1568.04 L1202.47 1525.93 L1185.6 1525.93 L1185.6 1520.52 Z" fill="#000000" fill-rule="nonzero" fill-opacity="1" /><path clip-path="url(#clip550)" d="M1229.75 1532.4 L1235.61 1532.4 L1235.61 1568.04 L1229.75 1568.04 L1229.75 1532.4 M1229.75 1518.52 L1235.61 1518.52 L1235.61 1525.93 L1229.75 1525.93 L1229.75 1518.52 Z" fill="#000000" fill-rule="nonzero" fill-opacity="1" /><path clip-path="url(#clip550)" d="M1275.61 1539.24 Q1277.81 1535.29 1280.87 1533.41 Q1283.92 1531.54 1288.06 1531.54 Q1293.63 1531.54 1296.65 1535.45 Q1299.68 1539.33 1299.68 1546.53 L1299.68 1568.04 L1293.79 1568.04 L1293.79 1546.72 Q1293.79 1541.59 1291.97 1539.11 Q1290.16 1536.63 1286.44 1536.63 Q1281.88 1536.63 1279.24 1539.65 Q1276.6 1542.68 1276.6 1547.9 L1276.6 1568.04 L1270.71 1568.04 L1270.71 1546.72 Q1270.71 1541.56 1268.9 1539.11 Q1267.08 1536.63 1263.3 1536.63 Q1258.81 1536.63 1256.17 1539.68 Q1253.52 1542.71 1253.52 1547.9 L1253.52 1568.04 L1247.64 1568.04 L1247.64 1532.4 L1253.52 1532.4 L1253.52 1537.93 Q1255.53 1534.66 1258.33 1533.1 Q1261.13 1531.54 1264.98 1531.54 Q1268.87 1531.54 1271.57 1533.51 Q1274.31 1535.48 1275.61 1539.24 Z" fill="#000000" fill-rule="nonzero" fill-opacity="1" /><path clip-path="url(#clip550)" d="M1341.85 1548.76 L1341.85 1551.62 L1314.92 1551.62 Q1315.3 1557.67 1318.55 1560.85 Q1321.83 1564 1327.65 1564 Q1331.03 1564 1334.18 1563.17 Q1337.36 1562.35 1340.48 1560.69 L1340.48 1566.23 Q1337.33 1567.57 1334.02 1568.27 Q1330.71 1568.97 1327.3 1568.97 Q1318.77 1568.97 1313.78 1564 Q1308.81 1559.04 1308.81 1550.57 Q1308.81 1541.82 1313.52 1536.69 Q1318.26 1531.54 1326.28 1531.54 Q1333.48 1531.54 1337.65 1536.18 Q1341.85 1540.8 1341.85 1548.76 M1335.99 1547.04 Q1335.93 1542.23 1333.29 1539.37 Q1330.68 1536.5 1326.35 1536.5 Q1321.45 1536.5 1318.49 1539.27 Q1315.56 1542.04 1315.11 1547.07 L1335.99 1547.04 Z" fill="#000000" fill-rule="nonzero" fill-opacity="1" /><path clip-path="url(#clip550)" d="M1371.64 1518.52 L1385.14 1518.52 L1385.14 1523.07 L1377.5 1523.07 L1377.5 1572.09 L1385.14 1572.09 L1385.14 1576.64 L1371.64 1576.64 L1371.64 1518.52 Z" fill="#000000" fill-rule="nonzero" fill-opacity="1" /><path clip-path="url(#clip550)" d="M1420.34 1533.45 L1420.34 1538.98 Q1417.86 1537.71 1415.18 1537.07 Q1412.51 1536.44 1409.64 1536.44 Q1405.28 1536.44 1403.09 1537.77 Q1400.92 1539.11 1400.92 1541.79 Q1400.92 1543.82 1402.48 1545 Q1404.04 1546.15 1408.75 1547.2 L1410.76 1547.64 Q1417 1548.98 1419.61 1551.43 Q1422.25 1553.85 1422.25 1558.21 Q1422.25 1563.17 1418.3 1566.07 Q1414.39 1568.97 1407.51 1568.97 Q1404.65 1568.97 1401.53 1568.39 Q1398.44 1567.85 1395 1566.74 L1395 1560.69 Q1398.25 1562.38 1401.4 1563.24 Q1404.55 1564.07 1407.64 1564.07 Q1411.78 1564.07 1414 1562.66 Q1416.23 1561.23 1416.23 1558.65 Q1416.23 1556.27 1414.61 1554.99 Q1413.02 1553.72 1407.57 1552.54 L1405.54 1552.07 Q1400.1 1550.92 1397.68 1548.56 Q1395.26 1546.18 1395.26 1542.04 Q1395.26 1537.01 1398.82 1534.27 Q1402.39 1531.54 1408.94 1531.54 Q1412.19 1531.54 1415.05 1532.01 Q1417.92 1532.49 1420.34 1533.45 Z" fill="#000000" fill-rule="nonzero" fill-opacity="1" /><path clip-path="url(#clip550)" d="M1445.26 1518.52 L1445.26 1576.64 L1431.76 1576.64 L1431.76 1572.09 L1439.37 1572.09 L1439.37 1523.07 L1431.76 1523.07 L1431.76 1518.52 L1445.26 1518.52 Z" fill="#000000" fill-rule="nonzero" fill-opacity="1" /><polyline clip-path="url(#clip552)" style="stroke:#000000; stroke-linecap:round; stroke-linejoin:round; stroke-width:2; stroke-opacity:0.1; fill:none" points="278.107,1251.41 2352.76,1251.41 "/>
<polyline clip-path="url(#clip552)" style="stroke:#000000; stroke-linecap:round; stroke-linejoin:round; stroke-width:2; stroke-opacity:0.1; fill:none" points="278.107,1048.94 2352.76,1048.94 "/>
<polyline clip-path="url(#clip552)" style="stroke:#000000; stroke-linecap:round; stroke-linejoin:round; stroke-width:2; stroke-opacity:0.1; fill:none" points="278.107,846.475 2352.76,846.475 "/>
<polyline clip-path="url(#clip552)" style="stroke:#000000; stroke-linecap:round; stroke-linejoin:round; stroke-width:2; stroke-opacity:0.1; fill:none" points="278.107,644.006 2352.76,644.006 "/>
<polyline clip-path="url(#clip552)" style="stroke:#000000; stroke-linecap:round; stroke-linejoin:round; stroke-width:2; stroke-opacity:0.1; fill:none" points="278.107,441.537 2352.76,441.537 "/>
<polyline clip-path="url(#clip552)" style="stroke:#000000; stroke-linecap:round; stroke-linejoin:round; stroke-width:2; stroke-opacity:0.1; fill:none" points="278.107,239.067 2352.76,239.067 "/>
<polyline clip-path="url(#clip550)" style="stroke:#000000; stroke-linecap:round; stroke-linejoin:round; stroke-width:4; stroke-opacity:1; fill:none" points="278.107,1423.18 278.107,47.2441 "/>
<polyline clip-path="url(#clip550)" style="stroke:#000000; stroke-linecap:round; stroke-linejoin:round; stroke-width:4; stroke-opacity:1; fill:none" points="278.107,1251.41 297.004,1251.41 "/>
<polyline clip-path="url(#clip550)" style="stroke:#000000; stroke-linecap:round; stroke-linejoin:round; stroke-width:4; stroke-opacity:1; fill:none" points="278.107,1048.94 297.004,1048.94 "/>
<polyline clip-path="url(#clip550)" style="stroke:#000000; stroke-linecap:round; stroke-linejoin:round; stroke-width:4; stroke-opacity:1; fill:none" points="278.107,846.475 297.004,846.475 "/>
<polyline clip-path="url(#clip550)" style="stroke:#000000; stroke-linecap:round; stroke-linejoin:round; stroke-width:4; stroke-opacity:1; fill:none" points="278.107,644.006 297.004,644.006 "/>
<polyline clip-path="url(#clip550)" style="stroke:#000000; stroke-linecap:round; stroke-linejoin:round; stroke-width:4; stroke-opacity:1; fill:none" points="278.107,441.537 297.004,441.537 "/>
<polyline clip-path="url(#clip550)" style="stroke:#000000; stroke-linecap:round; stroke-linejoin:round; stroke-width:4; stroke-opacity:1; fill:none" points="278.107,239.067 297.004,239.067 "/>
<path clip-path="url(#clip550)" d="M115.418 1264.76 L123.056 1264.76 L123.056 1238.39 L114.746 1240.06 L114.746 1235.8 L123.01 1234.13 L127.686 1234.13 L127.686 1264.76 L135.325 1264.76 L135.325 1268.69 L115.418 1268.69 L115.418 1264.76 Z" fill="#000000" fill-rule="nonzero" fill-opacity="1" /><path clip-path="url(#clip550)" d="M144.769 1262.81 L149.653 1262.81 L149.653 1268.69 L144.769 1268.69 L144.769 1262.81 Z" fill="#000000" fill-rule="nonzero" fill-opacity="1" /><path clip-path="url(#clip550)" d="M169.839 1237.21 Q166.227 1237.21 164.399 1240.78 Q162.593 1244.32 162.593 1251.45 Q162.593 1258.55 164.399 1262.12 Q166.227 1265.66 169.839 1265.66 Q173.473 1265.66 175.278 1262.12 Q177.107 1258.55 177.107 1251.45 Q177.107 1244.32 175.278 1240.78 Q173.473 1237.21 169.839 1237.21 M169.839 1233.51 Q175.649 1233.51 178.704 1238.11 Q181.783 1242.7 181.783 1251.45 Q181.783 1260.17 178.704 1264.78 Q175.649 1269.36 169.839 1269.36 Q164.028 1269.36 160.95 1264.78 Q157.894 1260.17 157.894 1251.45 Q157.894 1242.7 160.95 1238.11 Q164.028 1233.51 169.839 1233.51 Z" fill="#000000" fill-rule="nonzero" fill-opacity="1" /><path clip-path="url(#clip550)" d="M190.811 1264.76 L198.45 1264.76 L198.45 1238.39 L190.139 1240.06 L190.139 1235.8 L198.403 1234.13 L203.079 1234.13 L203.079 1264.76 L210.718 1264.76 L210.718 1268.69 L190.811 1268.69 L190.811 1264.76 Z" fill="#000000" fill-rule="nonzero" fill-opacity="1" /><path clip-path="url(#clip550)" d="M230.162 1237.21 Q226.551 1237.21 224.723 1240.78 Q222.917 1244.32 222.917 1251.45 Q222.917 1258.55 224.723 1262.12 Q226.551 1265.66 230.162 1265.66 Q233.797 1265.66 235.602 1262.12 Q237.431 1258.55 237.431 1251.45 Q237.431 1244.32 235.602 1240.78 Q233.797 1237.21 230.162 1237.21 M230.162 1233.51 Q235.972 1233.51 239.028 1238.11 Q242.107 1242.7 242.107 1251.45 Q242.107 1260.17 239.028 1264.78 Q235.972 1269.36 230.162 1269.36 Q224.352 1269.36 221.273 1264.78 Q218.218 1260.17 218.218 1251.45 Q218.218 1242.7 221.273 1238.11 Q224.352 1233.51 230.162 1233.51 Z" fill="#000000" fill-rule="nonzero" fill-opacity="1" /><path clip-path="url(#clip550)" d="M116.644 1062.29 L124.283 1062.29 L124.283 1035.92 L115.973 1037.59 L115.973 1033.33 L124.237 1031.66 L128.913 1031.66 L128.913 1062.29 L136.552 1062.29 L136.552 1066.22 L116.644 1066.22 L116.644 1062.29 Z" fill="#000000" fill-rule="nonzero" fill-opacity="1" /><path clip-path="url(#clip550)" d="M145.996 1060.34 L150.88 1060.34 L150.88 1066.22 L145.996 1066.22 L145.996 1060.34 Z" fill="#000000" fill-rule="nonzero" fill-opacity="1" /><path clip-path="url(#clip550)" d="M171.065 1034.74 Q167.454 1034.74 165.626 1038.31 Q163.82 1041.85 163.82 1048.98 Q163.82 1056.09 165.626 1059.65 Q167.454 1063.19 171.065 1063.19 Q174.7 1063.19 176.505 1059.65 Q178.334 1056.09 178.334 1048.98 Q178.334 1041.85 176.505 1038.31 Q174.7 1034.74 171.065 1034.74 M171.065 1031.04 Q176.876 1031.04 179.931 1035.65 Q183.01 1040.23 183.01 1048.98 Q183.01 1057.71 179.931 1062.31 Q176.876 1066.9 171.065 1066.9 Q165.255 1066.9 162.177 1062.31 Q159.121 1057.71 159.121 1048.98 Q159.121 1040.23 162.177 1035.65 Q165.255 1031.04 171.065 1031.04 Z" fill="#000000" fill-rule="nonzero" fill-opacity="1" /><path clip-path="url(#clip550)" d="M192.038 1062.29 L199.676 1062.29 L199.676 1035.92 L191.366 1037.59 L191.366 1033.33 L199.63 1031.66 L204.306 1031.66 L204.306 1062.29 L211.945 1062.29 L211.945 1066.22 L192.038 1066.22 L192.038 1062.29 Z" fill="#000000" fill-rule="nonzero" fill-opacity="1" /><path clip-path="url(#clip550)" d="M222.199 1062.29 L229.838 1062.29 L229.838 1035.92 L221.528 1037.59 L221.528 1033.33 L229.792 1031.66 L234.468 1031.66 L234.468 1062.29 L242.107 1062.29 L242.107 1066.22 L222.199 1066.22 L222.199 1062.29 Z" fill="#000000" fill-rule="nonzero" fill-opacity="1" /><path clip-path="url(#clip550)" d="M117.015 859.82 L124.654 859.82 L124.654 833.454 L116.343 835.121 L116.343 830.862 L124.607 829.195 L129.283 829.195 L129.283 859.82 L136.922 859.82 L136.922 863.755 L117.015 863.755 L117.015 859.82 Z" fill="#000000" fill-rule="nonzero" fill-opacity="1" /><path clip-path="url(#clip550)" d="M146.366 857.875 L151.251 857.875 L151.251 863.755 L146.366 863.755 L146.366 857.875 Z" fill="#000000" fill-rule="nonzero" fill-opacity="1" /><path clip-path="url(#clip550)" d="M171.436 832.274 Q167.825 832.274 165.996 835.838 Q164.19 839.38 164.19 846.51 Q164.19 853.616 165.996 857.181 Q167.825 860.723 171.436 860.723 Q175.07 860.723 176.876 857.181 Q178.704 853.616 178.704 846.51 Q178.704 839.38 176.876 835.838 Q175.07 832.274 171.436 832.274 M171.436 828.57 Q177.246 828.57 180.301 833.176 Q183.38 837.76 183.38 846.51 Q183.38 855.236 180.301 859.843 Q177.246 864.426 171.436 864.426 Q165.626 864.426 162.547 859.843 Q159.491 855.236 159.491 846.51 Q159.491 837.76 162.547 833.176 Q165.626 828.57 171.436 828.57 Z" fill="#000000" fill-rule="nonzero" fill-opacity="1" /><path clip-path="url(#clip550)" d="M192.408 859.82 L200.047 859.82 L200.047 833.454 L191.737 835.121 L191.737 830.862 L200 829.195 L204.676 829.195 L204.676 859.82 L212.315 859.82 L212.315 863.755 L192.408 863.755 L192.408 859.82 Z" fill="#000000" fill-rule="nonzero" fill-opacity="1" /><path clip-path="url(#clip550)" d="M225.787 859.82 L242.107 859.82 L242.107 863.755 L220.162 863.755 L220.162 859.82 Q222.824 857.065 227.408 852.436 Q232.014 847.783 233.195 846.44 Q235.44 843.917 236.32 842.181 Q237.222 840.422 237.222 838.732 Q237.222 835.977 235.278 834.241 Q233.357 832.505 230.255 832.505 Q228.056 832.505 225.602 833.269 Q223.172 834.033 220.394 835.584 L220.394 830.862 Q223.218 829.727 225.672 829.149 Q228.125 828.57 230.162 828.57 Q235.533 828.57 238.727 831.255 Q241.922 833.94 241.922 838.431 Q241.922 840.561 241.111 842.482 Q240.324 844.38 238.218 846.973 Q237.639 847.644 234.537 850.861 Q231.435 854.056 225.787 859.82 Z" fill="#000000" fill-rule="nonzero" fill-opacity="1" /><path clip-path="url(#clip550)" d="M116.066 657.351 L123.705 657.351 L123.705 630.985 L115.394 632.652 L115.394 628.392 L123.658 626.726 L128.334 626.726 L128.334 657.351 L135.973 657.351 L135.973 661.286 L116.066 661.286 L116.066 657.351 Z" fill="#000000" fill-rule="nonzero" fill-opacity="1" /><path clip-path="url(#clip550)" d="M145.417 655.406 L150.302 655.406 L150.302 661.286 L145.417 661.286 L145.417 655.406 Z" fill="#000000" fill-rule="nonzero" fill-opacity="1" /><path clip-path="url(#clip550)" d="M170.487 629.804 Q166.876 629.804 165.047 633.369 Q163.241 636.911 163.241 644.041 Q163.241 651.147 165.047 654.712 Q166.876 658.253 170.487 658.253 Q174.121 658.253 175.926 654.712 Q177.755 651.147 177.755 644.041 Q177.755 636.911 175.926 633.369 Q174.121 629.804 170.487 629.804 M170.487 626.101 Q176.297 626.101 179.352 630.707 Q182.431 635.291 182.431 644.041 Q182.431 652.767 179.352 657.374 Q176.297 661.957 170.487 661.957 Q164.677 661.957 161.598 657.374 Q158.542 652.767 158.542 644.041 Q158.542 635.291 161.598 630.707 Q164.677 626.101 170.487 626.101 Z" fill="#000000" fill-rule="nonzero" fill-opacity="1" /><path clip-path="url(#clip550)" d="M191.459 657.351 L199.098 657.351 L199.098 630.985 L190.788 632.652 L190.788 628.392 L199.051 626.726 L203.727 626.726 L203.727 657.351 L211.366 657.351 L211.366 661.286 L191.459 661.286 L191.459 657.351 Z" fill="#000000" fill-rule="nonzero" fill-opacity="1" /><path clip-path="url(#clip550)" d="M234.977 642.652 Q238.334 643.369 240.209 645.638 Q242.107 647.906 242.107 651.24 Q242.107 656.355 238.588 659.156 Q235.07 661.957 228.588 661.957 Q226.412 661.957 224.098 661.517 Q221.806 661.101 219.352 660.244 L219.352 655.73 Q221.297 656.865 223.611 657.443 Q225.926 658.022 228.449 658.022 Q232.847 658.022 235.139 656.286 Q237.454 654.55 237.454 651.24 Q237.454 648.184 235.301 646.471 Q233.172 644.735 229.352 644.735 L225.324 644.735 L225.324 640.892 L229.537 640.892 Q232.986 640.892 234.815 639.527 Q236.644 638.138 236.644 635.545 Q236.644 632.883 234.746 631.471 Q232.871 630.036 229.352 630.036 Q227.431 630.036 225.232 630.453 Q223.033 630.869 220.394 631.749 L220.394 627.582 Q223.056 626.842 225.371 626.471 Q227.709 626.101 229.769 626.101 Q235.093 626.101 238.195 628.531 Q241.297 630.939 241.297 635.059 Q241.297 637.929 239.653 639.92 Q238.009 641.888 234.977 642.652 Z" fill="#000000" fill-rule="nonzero" fill-opacity="1" /><path clip-path="url(#clip550)" d="M114.931 454.881 L122.57 454.881 L122.57 428.516 L114.26 430.183 L114.26 425.923 L122.524 424.257 L127.2 424.257 L127.2 454.881 L134.839 454.881 L134.839 458.817 L114.931 458.817 L114.931 454.881 Z" fill="#000000" fill-rule="nonzero" fill-opacity="1" /><path clip-path="url(#clip550)" d="M144.283 452.937 L149.167 452.937 L149.167 458.817 L144.283 458.817 L144.283 452.937 Z" fill="#000000" fill-rule="nonzero" fill-opacity="1" /><path clip-path="url(#clip550)" d="M169.352 427.335 Q165.741 427.335 163.913 430.9 Q162.107 434.442 162.107 441.571 Q162.107 448.678 163.913 452.243 Q165.741 455.784 169.352 455.784 Q172.987 455.784 174.792 452.243 Q176.621 448.678 176.621 441.571 Q176.621 434.442 174.792 430.9 Q172.987 427.335 169.352 427.335 M169.352 423.632 Q175.163 423.632 178.218 428.238 Q181.297 432.821 181.297 441.571 Q181.297 450.298 178.218 454.905 Q175.163 459.488 169.352 459.488 Q163.542 459.488 160.464 454.905 Q157.408 450.298 157.408 441.571 Q157.408 432.821 160.464 428.238 Q163.542 423.632 169.352 423.632 Z" fill="#000000" fill-rule="nonzero" fill-opacity="1" /><path clip-path="url(#clip550)" d="M190.325 454.881 L197.963 454.881 L197.963 428.516 L189.653 430.183 L189.653 425.923 L197.917 424.257 L202.593 424.257 L202.593 454.881 L210.232 454.881 L210.232 458.817 L190.325 458.817 L190.325 454.881 Z" fill="#000000" fill-rule="nonzero" fill-opacity="1" /><path clip-path="url(#clip550)" d="M232.523 428.331 L220.718 446.78 L232.523 446.78 L232.523 428.331 M231.297 424.257 L237.176 424.257 L237.176 446.78 L242.107 446.78 L242.107 450.669 L237.176 450.669 L237.176 458.817 L232.523 458.817 L232.523 450.669 L216.922 450.669 L216.922 446.155 L231.297 424.257 Z" fill="#000000" fill-rule="nonzero" fill-opacity="1" /><path clip-path="url(#clip550)" d="M116.413 252.412 L124.052 252.412 L124.052 226.047 L115.742 227.713 L115.742 223.454 L124.005 221.787 L128.681 221.787 L128.681 252.412 L136.32 252.412 L136.32 256.347 L116.413 256.347 L116.413 252.412 Z" fill="#000000" fill-rule="nonzero" fill-opacity="1" /><path clip-path="url(#clip550)" d="M145.765 250.468 L150.649 250.468 L150.649 256.347 L145.765 256.347 L145.765 250.468 Z" fill="#000000" fill-rule="nonzero" fill-opacity="1" /><path clip-path="url(#clip550)" d="M170.834 224.866 Q167.223 224.866 165.394 228.431 Q163.589 231.973 163.589 239.102 Q163.589 246.209 165.394 249.773 Q167.223 253.315 170.834 253.315 Q174.468 253.315 176.274 249.773 Q178.102 246.209 178.102 239.102 Q178.102 231.973 176.274 228.431 Q174.468 224.866 170.834 224.866 M170.834 221.162 Q176.644 221.162 179.7 225.769 Q182.778 230.352 182.778 239.102 Q182.778 247.829 179.7 252.435 Q176.644 257.019 170.834 257.019 Q165.024 257.019 161.945 252.435 Q158.89 247.829 158.89 239.102 Q158.89 230.352 161.945 225.769 Q165.024 221.162 170.834 221.162 Z" fill="#000000" fill-rule="nonzero" fill-opacity="1" /><path clip-path="url(#clip550)" d="M191.806 252.412 L199.445 252.412 L199.445 226.047 L191.135 227.713 L191.135 223.454 L199.399 221.787 L204.074 221.787 L204.074 252.412 L211.713 252.412 L211.713 256.347 L191.806 256.347 L191.806 252.412 Z" fill="#000000" fill-rule="nonzero" fill-opacity="1" /><path clip-path="url(#clip550)" d="M221.204 221.787 L239.56 221.787 L239.56 225.723 L225.486 225.723 L225.486 234.195 Q226.505 233.848 227.523 233.686 Q228.542 233.5 229.56 233.5 Q235.347 233.5 238.727 236.672 Q242.107 239.843 242.107 245.26 Q242.107 250.838 238.634 253.94 Q235.162 257.019 228.843 257.019 Q226.667 257.019 224.398 256.648 Q222.153 256.278 219.746 255.537 L219.746 250.838 Q221.829 251.972 224.051 252.528 Q226.273 253.084 228.75 253.084 Q232.755 253.084 235.093 250.977 Q237.431 248.871 237.431 245.26 Q237.431 241.648 235.093 239.542 Q232.755 237.436 228.75 237.436 Q226.875 237.436 225 237.852 Q223.148 238.269 221.204 239.148 L221.204 221.787 Z" fill="#000000" fill-rule="nonzero" fill-opacity="1" /><path clip-path="url(#clip550)" d="M64.0042 913.404 L16.4842 931.546 L16.4842 924.83 L56.4926 909.776 L16.4842 894.689 L16.4842 888.005 L64.0042 906.115 L64.0042 913.404 Z" fill="#000000" fill-rule="nonzero" fill-opacity="1" /><path clip-path="url(#clip550)" d="M32.4621 872.568 Q32.4621 877.279 36.1542 880.016 Q39.8145 882.753 46.212 882.753 Q52.6095 882.753 56.3017 880.048 Q59.9619 877.31 59.9619 872.568 Q59.9619 867.889 56.2698 865.152 Q52.5777 862.415 46.212 862.415 Q39.8781 862.415 36.186 865.152 Q32.4621 867.889 32.4621 872.568 M27.4968 872.568 Q27.4968 864.929 32.4621 860.569 Q37.4273 856.208 46.212 856.208 Q54.9649 856.208 59.9619 860.569 Q64.9272 864.929 64.9272 872.568 Q64.9272 880.239 59.9619 884.599 Q54.9649 888.928 46.212 888.928 Q37.4273 888.928 32.4621 884.599 Q27.4968 880.239 27.4968 872.568 Z" fill="#000000" fill-rule="nonzero" fill-opacity="1" /><path clip-path="url(#clip550)" d="M14.479 846.5 L14.479 840.644 L64.0042 840.644 L64.0042 846.5 L14.479 846.5 Z" fill="#000000" fill-rule="nonzero" fill-opacity="1" /><path clip-path="url(#clip550)" d="M18.2347 822.597 L28.3562 822.597 L28.3562 810.534 L32.9077 810.534 L32.9077 822.597 L52.2594 822.597 Q56.6199 822.597 57.8613 821.42 Q59.1026 820.21 59.1026 816.55 L59.1026 810.534 L64.0042 810.534 L64.0042 816.55 Q64.0042 823.329 61.4897 825.907 Q58.9434 828.485 52.2594 828.485 L32.9077 828.485 L32.9077 832.782 L28.3562 832.782 L28.3562 828.485 L18.2347 828.485 L18.2347 822.597 Z" fill="#000000" fill-rule="nonzero" fill-opacity="1" /><path clip-path="url(#clip550)" d="M46.0847 786.631 Q46.0847 793.729 47.7079 796.466 Q49.3312 799.203 53.2461 799.203 Q56.3653 799.203 58.2114 797.166 Q60.0256 795.097 60.0256 791.564 Q60.0256 786.695 56.5881 783.766 Q53.1188 780.806 47.3897 780.806 L46.0847 780.806 L46.0847 786.631 M43.6657 774.95 L64.0042 774.95 L64.0042 780.806 L58.5933 780.806 Q61.8398 782.812 63.3994 785.803 Q64.9272 788.795 64.9272 793.124 Q64.9272 798.598 61.8716 801.845 Q58.7843 805.06 53.6281 805.06 Q47.6125 805.06 44.5569 801.049 Q41.5014 797.007 41.5014 789.018 L41.5014 780.806 L40.9285 780.806 Q36.8862 780.806 34.6901 783.48 Q32.4621 786.122 32.4621 790.928 Q32.4621 793.983 33.1941 796.88 Q33.9262 799.776 35.3903 802.45 L29.9795 802.45 Q28.7381 799.235 28.1334 796.211 Q27.4968 793.188 27.4968 790.323 Q27.4968 782.589 31.5072 778.769 Q35.5176 774.95 43.6657 774.95 Z" fill="#000000" fill-rule="nonzero" fill-opacity="1" /><path clip-path="url(#clip550)" d="M45.7664 739.429 Q39.4007 739.429 35.8996 742.071 Q32.3984 744.681 32.3984 749.423 Q32.3984 754.134 35.8996 756.776 Q39.4007 759.386 45.7664 759.386 Q52.1003 759.386 55.6014 756.776 Q59.1026 754.134 59.1026 749.423 Q59.1026 744.681 55.6014 742.071 Q52.1003 739.429 45.7664 739.429 M59.58 733.573 Q68.683 733.573 73.1071 737.615 Q77.5631 741.657 77.5631 749.996 Q77.5631 753.084 77.0857 755.821 Q76.6401 758.558 75.6852 761.136 L69.9879 761.136 Q71.3884 758.558 72.0568 756.044 Q72.7252 753.529 72.7252 750.919 Q72.7252 745.158 69.7015 742.294 Q66.7096 739.429 60.6303 739.429 L57.7339 739.429 Q60.885 741.243 62.4446 744.076 Q64.0042 746.909 64.0042 750.856 Q64.0042 757.412 59.0071 761.423 Q54.01 765.433 45.7664 765.433 Q37.491 765.433 32.4939 761.423 Q27.4968 757.412 27.4968 750.856 Q27.4968 746.909 29.0564 744.076 Q30.616 741.243 33.7671 739.429 L28.3562 739.429 L28.3562 733.573 L59.58 733.573 Z" fill="#000000" fill-rule="nonzero" fill-opacity="1" /><path clip-path="url(#clip550)" d="M44.7161 691.018 L47.5806 691.018 L47.5806 717.945 Q53.6281 717.563 56.8109 714.317 Q59.9619 711.038 59.9619 705.214 Q59.9619 701.84 59.1344 698.689 Q58.3069 695.506 56.6518 692.387 L62.1899 692.387 Q63.5267 695.538 64.227 698.848 Q64.9272 702.158 64.9272 705.564 Q64.9272 714.094 59.9619 719.091 Q54.9967 724.056 46.5303 724.056 Q37.7774 724.056 32.6531 719.345 Q27.4968 714.603 27.4968 706.582 Q27.4968 699.389 32.1438 695.219 Q36.7589 691.018 44.7161 691.018 M42.9973 696.875 Q38.1912 696.938 35.3266 699.58 Q32.4621 702.19 32.4621 706.519 Q32.4621 711.42 35.2312 714.38 Q38.0002 717.308 43.0292 717.754 L42.9973 696.875 Z" fill="#000000" fill-rule="nonzero" fill-opacity="1" /><path clip-path="url(#clip550)" d="M14.479 661.227 L14.479 647.731 L19.0304 647.731 L19.0304 655.37 L68.0464 655.37 L68.0464 647.731 L72.5979 647.731 L72.5979 661.227 L14.479 661.227 Z" fill="#000000" fill-rule="nonzero" fill-opacity="1" /><path clip-path="url(#clip550)" d="M58.657 629.589 L77.5631 629.589 L77.5631 635.477 L28.3562 635.477 L28.3562 629.589 L33.7671 629.589 Q30.5842 627.743 29.0564 624.942 Q27.4968 622.109 27.4968 618.194 Q27.4968 611.701 32.6531 607.659 Q37.8093 603.585 46.212 603.585 Q54.6147 603.585 59.771 607.659 Q64.9272 611.701 64.9272 618.194 Q64.9272 622.109 63.3994 624.942 Q61.8398 627.743 58.657 629.589 M46.212 609.664 Q39.7508 609.664 36.0905 612.338 Q32.3984 614.98 32.3984 619.627 Q32.3984 624.274 36.0905 626.947 Q39.7508 629.589 46.212 629.589 Q52.6732 629.589 56.3653 626.947 Q60.0256 624.274 60.0256 619.627 Q60.0256 614.98 56.3653 612.338 Q52.6732 609.664 46.212 609.664 Z" fill="#000000" fill-rule="nonzero" fill-opacity="1" /><path clip-path="url(#clip550)" d="M49.9359 594.482 L28.3562 594.482 L28.3562 588.626 L49.7131 588.626 Q54.7739 588.626 57.3202 586.652 Q59.8346 584.679 59.8346 580.732 Q59.8346 575.99 56.8109 573.252 Q53.7872 570.483 48.5673 570.483 L28.3562 570.483 L28.3562 564.627 L64.0042 564.627 L64.0042 570.483 L58.5296 570.483 Q61.7762 572.616 63.3676 575.449 Q64.9272 578.25 64.9272 581.973 Q64.9272 588.116 61.1078 591.299 Q57.2883 594.482 49.9359 594.482 M27.4968 579.745 L27.4968 579.745 Z" fill="#000000" fill-rule="nonzero" fill-opacity="1" /><path clip-path="url(#clip550)" d="M14.479 538.878 L72.5979 538.878 L72.5979 552.373 L68.0464 552.373 L68.0464 544.766 L19.0304 544.766 L19.0304 552.373 L14.479 552.373 L14.479 538.878 Z" fill="#000000" fill-rule="nonzero" fill-opacity="1" /><polyline clip-path="url(#clip552)" style="stroke:#009af9; stroke-linecap:round; stroke-linejoin:round; stroke-width:4; stroke-opacity:1; fill:none" points="336.823,401.043 336.888,401.043 336.954,401.043 337.084,401.043 337.345,401.043 337.867,401.043 338.911,401.043 340.216,401.043 341.521,401.043 342.825,401.043 344.13,401.043 345.435,401.043 346.74,401.043 348.045,401.043 349.349,401.043 350.654,401.043 351.959,401.043 353.264,401.043 354.569,401.043 355.873,401.043 357.178,401.043 358.483,401.043 359.788,401.043 361.093,401.043 362.397,401.043 363.702,401.043 365.007,401.043 366.312,401.043 367.617,401.043 368.922,401.043 370.226,401.043 371.531,401.043 372.836,401.043 374.141,401.043 375.446,401.043 376.75,401.043 378.055,401.043 379.36,401.043 380.665,401.043 381.97,401.043 383.274,401.043 384.579,401.043 385.884,401.043 387.189,401.043 388.494,401.043 389.799,401.043 391.103,401.043 392.408,401.043 393.713,401.043 395.018,401.043 396.323,401.043 397.627,401.043 398.932,401.043 400.237,401.043 401.542,401.043 402.064,401.043 402.064,401.045 402.064,401.047 402.064,401.05 402.064,401.056 402.065,401.057 402.066,400.988 402.069,400.428 402.071,399.249 402.073,397.533 402.076,395.568 402.08,392.791 402.085,395.319 402.09,408.128 402.095,434.706 402.1,474.67 402.104,523.353 402.109,574.441 402.114,624.043 402.119,673.24 402.124,725.68 402.128,782.77 402.138,905.105 402.148,1023.15 402.157,1124.96 402.167,1209.03 402.176,1278.97 402.186,1334.71 402.195,1371.25 402.205,1384.24 402.215,1377.05 402.224,1360.34 402.234,1342.68 402.243,1322.93 402.253,1294.44 402.263,1256.16 402.272,1219.43 402.282,1197.47 402.291,1186.37 402.301,1163.92 402.31,1123 402.32,1079.29 402.33,1050.31 402.339,1031.07 402.349,1000.37 402.358,949.372 402.368,889.988 402.377,836.141 402.387,788.916 402.397,738.761 402.406,679.726 402.416,616.263 402.425,558.638 402.435,511.359 402.445,469.797 402.454,426.13 402.464,379.753 402.478,325.151 402.491,289.823 402.505,267.61 402.519,246.585 402.533,223.106 402.547,206.207 402.561,206.108 402.575,221.314 402.589,234.921 402.602,235.728 402.616,240.592 402.63,279.988 402.644,338.038 402.658,388.7 402.672,422.194 402.686,455.282 402.7,509.579 402.713,585.204 402.727,655.614 402.741,696.262 402.755,738.826 402.769,797.905 402.783,861.175 402.797,916.646 402.824,1012.64 402.849,1089.31 402.873,1158.66 402.897,1217.32 402.921,1263.22 402.946,1296.6 402.97,1318.46 402.994,1329.58 403.043,1322.06 403.087,1287.88 403.13,1236.44 403.174,1174.37 403.218,1108.03 403.261,1043.73 403.305,983.335 403.349,930.293 403.393,884.483 403.436,845.523 403.48,816.157 403.524,793.355 403.567,779.389 403.611,772.822 403.655,772.572 403.698,782.266 403.742,797.099 403.786,819.668 403.83,848.276 403.873,879.365 403.917,914.795 403.961,950.95 404.004,985.452 404.048,1020.09 404.092,1046.95 404.136,1071.94 404.179,1090.27 404.223,1101.66 404.267,1108.32 404.31,1106.71 404.354,1101 404.441,1075.57 404.52,1044.45 404.599,1012.71 404.678,986.024 404.756,968.789 404.835,963.395 404.914,970.351 404.992,987.79 405.071,1012.42 405.15,1040.18 405.228,1066.99 405.307,1089.47 405.386,1105.64 405.464,1114.7 405.543,1116.43 405.622,1111.97 405.7,1104.43 405.771,1096.69 405.842,1089.47 405.913,1084.18 405.983,1081.95 406.054,1083.3 406.125,1088.21 406.196,1096.08 406.267,1106.01 406.337,1116.96 406.408,1127.94 406.479,1138.01 406.55,1146.2 406.621,1151.85 406.692,1155.61 406.762,1157.8 406.833,1158.21 406.904,1157.07 406.975,1155.44 407.046,1154.39 407.116,1153.94 407.258,1155.74 407.4,1161.17 407.541,1169.18 407.683,1177.87 407.824,1185.63 407.966,1190.96 408.108,1193.33 408.249,1193.3 408.391,1192.19 408.532,1191.48 408.674,1192.18 408.816,1194.61 409.099,1201.15 409.347,1202.81 409.596,1198.8 409.844,1191.96 410.093,1187.94 410.342,1186.88 410.59,1184.13 410.839,1178.13 411.087,1169.88 411.336,1161.25 411.584,1153.32 411.833,1146.26 412.081,1139.32 412.33,1131.44 412.578,1122.28 412.827,1112.41 413.075,1103.08 413.324,1095.25 413.572,1088.46 413.821,1081.08 414.07,1072.2 414.283,1064.28 414.475,1058.02 414.667,1053.01 414.859,1048.91 415.051,1045.07 415.243,1040.95 415.435,1036.15 415.626,1031.37 415.818,1027.04 416.01,1023.46 416.394,1018.19 416.778,1014.32 417.162,1010.95 417.546,1008.72 417.93,1008.46 418.314,1009.5 418.698,1011.01 419.082,1013.34 419.466,1017.31 419.849,1022.33 420.233,1027.41 420.617,1033.12 421.001,1039.86 421.385,1047.17 421.769,1054.68 422.153,1062.26 422.537,1070.14 422.921,1078.27 423.305,1086.31 423.688,1094.11 424.072,1101.9 424.84,1116.99 425.531,1129.67 426.222,1141.4 426.913,1152.14 427.604,1161.88 428.295,1170.61 428.986,1178.37 429.677,1185.21 430.368,1191.18 431.059,1196.34 431.751,1200.7 432.442,1204.23 433.133,1206.95 433.824,1208.8 434.515,1209.71 435.206,1209.59 435.897,1208.42 436.588,1206.19 437.893,1198.98 439.197,1187.95 440.36,1175.43 441.522,1161.07 442.685,1145.69 443.847,1130.29 445.009,1115.96 446.172,1103.64 447.334,1094 448.496,1087.62 449.659,1084.79 450.821,1085.49 451.984,1089.47 453.146,1096.25 454.308,1105.14 455.471,1115.32 456.633,1125.94 457.796,1136.15 458.958,1145.17 460.263,1153.07 461.568,1157.94 462.872,1159.34 464.177,1157.08 465.482,1151.26 466.787,1142.22 468.092,1130.5 469.396,1116.81 470.701,1101.96 472.006,1086.82 473.311,1072.22 474.616,1058.97 475.921,1047.71 477.225,1038.95 478.53,1033 479.835,1029.94 481.14,1029.61 482.445,1031.67 483.749,1035.56 485.054,1040.6 486.359,1046.01 487.664,1051.02 488.969,1054.89 490.273,1056.99 491.578,1056.88 492.883,1054.27 494.188,1049.11 495.493,1041.51 496.798,1031.79 498.102,1020.4 499.407,1007.89 500.712,994.876 502.017,981.973 503.322,969.773 504.626,958.791 505.931,949.43 507.236,941.971 508.541,936.541 509.846,933.097 511.15,931.456 512.455,931.302 513.76,932.195 515.065,933.626 516.37,935.058 517.674,935.966 518.979,935.88 520.284,934.426 521.589,931.34 522.894,926.498 524.199,919.897 525.503,911.684 526.808,902.124 528.113,891.571 529.418,880.438 530.723,869.163 532.027,858.183 533.332,847.89 534.637,838.615 535.942,830.599 537.247,823.981 538.551,818.792 539.856,814.953 541.161,812.28 542.466,810.503 543.771,809.294 545.076,808.284 546.38,807.098 547.685,805.388 548.99,802.862 550.295,799.291 551.6,794.538 552.904,788.57 554.209,781.439 555.514,773.277 556.819,764.305 558.124,754.786 559.428,745.018 560.733,735.309 562.038,725.948 563.343,717.187 564.648,709.23 565.952,702.215 567.257,696.209 568.562,691.197 569.867,687.083 571.172,683.709 572.477,680.862 573.781,678.297 575.086,675.754 576.391,672.979 577.696,669.744 579.001,665.867 580.305,661.224 581.61,655.753 582.915,649.458 584.22,642.406 585.525,634.722 586.829,626.573 588.134,618.157 589.439,609.688 590.744,601.373 592.049,593.402 593.354,585.94 594.658,579.106 595.963,572.968 597.268,567.541 598.573,562.785 599.878,558.612 601.182,554.892 602.487,551.466 603.792,548.159 605.097,544.792 606.402,541.202 607.706,537.246 609.011,532.815 610.316,527.847 611.621,522.321 612.926,516.257 614.23,509.724 615.535,502.822 616.84,495.679 618.145,488.439 619.45,481.248 620.755,474.242 622.059,467.548 623.364,461.261 624.669,455.452 625.974,450.148 627.279,445.343 628.583,440.99 629.888,437.014 631.193,433.315 632.498,429.775 633.803,426.272 635.107,422.685 636.412,418.908 637.717,414.854 639.022,410.464 640.327,405.708 641.632,400.587 642.936,395.133 644.241,389.403 645.546,383.477 646.851,377.45 648.156,371.421 649.46,365.489 650.765,359.748 652.07,354.274 653.375,349.123 654.68,344.329 655.984,339.897 657.289,335.809 658.594,332.023 659.899,328.478 661.204,325.099 662.508,321.803 663.813,318.509 665.118,315.137 666.423,311.62 667.728,307.909 669.033,303.974 670.337,299.802 671.642,295.407 672.947,290.817 674.252,286.079 675.557,281.255 676.861,276.412 678.166,271.618 679.471,266.939 680.776,262.434 682.081,258.146 683.385,254.109 684.69,250.335 685.995,246.821 687.3,243.548 688.605,240.479 689.91,237.567 691.214,234.758 692.519,231.994 693.824,229.219 695.129,226.382 696.434,223.445 697.738,220.378 699.043,217.167 700.348,213.813 701.653,210.331 702.958,206.747 704.262,203.099 705.567,199.429 706.872,195.785 708.177,192.214 709.482,188.757 710.786,185.45 712.091,182.32 713.396,179.382 714.701,176.64 716.006,174.083 717.311,171.694 718.615,169.443 719.92,167.295 721.225,165.213 722.53,163.158 723.835,161.092 725.139,158.987 726.444,156.817 727.749,154.569 729.054,152.238 730.359,149.828 731.663,147.354 732.968,144.836 734.273,142.303 735.578,139.786 736.883,137.316 738.188,134.924 739.492,132.635 740.797,130.472 742.102,128.449 743.407,126.572 744.712,124.839 746.016,123.242 747.321,121.762 748.626,120.379 749.931,119.068 751.236,117.801 752.54,116.552 753.845,115.299 755.15,114.023 756.455,112.711 757.76,111.356 759.064,109.957 760.369,108.522 761.674,107.063 762.979,105.595 764.284,104.139 765.589,102.717 766.893,101.349 768.198,100.055 769.503,98.8522 770.808,97.7514 772.113,96.7598 773.417,95.8787 774.722,95.1039 776.027,94.4265 777.332,93.8333 778.637,93.308 779.941,92.833 781.246,92.3904 782.551,91.9635 783.856,91.5378 785.161,91.1025 786.466,90.6506 787.77,90.1795 789.075,89.6914 790.38,89.1925 791.685,88.6923 792.99,88.2029 794.294,87.7387 795.599,87.3137 796.904,86.9419 798.209,86.6353 799.514,86.4035 800.818,86.2528 802.123,86.1857 803.428,86.2012 804.733,86.2945 806.038,86.4581 807.342,86.6821 808.647,86.9549 809.952,87.2642 811.257,87.598 812.562,87.9457 813.867,88.2984 815.171,88.6499 816.476,88.9968 817.781,89.3389 819.086,89.6786 820.391,90.0216 821.695,90.3749 823,90.7476 824.305,91.1492 825.61,91.5891 826.915,92.0757 828.219,92.6166 829.524,93.2167 830.829,93.8789 832.134,94.6039 833.439,95.3895 834.744,96.2316 836.048,97.1239 837.353,98.0591 838.658,99.0289 839.963,100.025 841.268,101.039 842.572,102.066 843.877,103.098 845.182,104.134 846.487,105.171 847.792,106.211 849.096,107.256 850.401,108.31 851.706,109.378 853.011,110.467 854.316,111.583 855.62,112.732 856.925,113.919 858.23,115.149 859.535,116.423 860.84,117.743 862.145,119.109 863.449,120.518 864.754,121.967 866.059,123.451 867.364,124.963 868.669,126.5 869.973,128.054 871.278,129.622 872.583,131.199 873.888,132.781 875.193,134.368 876.497,135.957 877.802,137.552 879.107,139.153 880.412,140.764 881.717,142.388 883.022,144.031 884.326,145.695 885.631,147.385 886.936,149.104 888.241,150.854 889.546,152.636 890.85,154.451 892.155,156.296 893.46,158.171 894.765,160.071 896.07,161.995 897.374,163.937 898.679,165.893 899.984,167.861 901.289,169.836 902.594,171.817 903.898,173.801 905.203,175.787 906.508,177.776 907.813,179.769 909.118,181.767 910.423,183.773 911.727,185.788 913.032,187.817 914.337,189.861 915.642,191.923 916.947,194.005 918.251,196.107 919.556,198.229 920.861,200.373 922.166,202.535 923.471,204.715 924.775,206.911 926.08,209.119 927.385,211.336 928.69,213.561 929.995,215.791 931.3,218.023 932.604,220.256 933.909,222.489 935.214,224.722 936.519,226.955 937.824,229.189 939.128,231.425 940.433,233.664 941.738,235.909 943.043,238.161 944.348,240.422 945.652,242.693 946.957,244.974 948.262,247.267 949.567,249.571 950.872,251.886 952.176,254.21 953.481,256.542 954.786,258.881 956.091,261.224 957.396,263.569 958.701,265.916 960.005,268.261 961.31,270.604 962.615,272.944 963.92,275.28 965.225,277.613 966.529,279.941 967.834,282.268 969.139,284.592 970.444,286.915 971.749,289.239 973.053,291.564 974.358,293.891 975.663,296.221 976.968,298.555 978.273,300.892 979.578,303.232 980.882,305.574 982.187,307.919 983.492,310.263 984.797,312.607 986.102,314.949 987.406,317.287 988.711,319.62 990.016,321.948 991.321,324.269 992.626,326.583 993.93,328.889 995.235,331.189 996.54,333.481 997.845,335.766 999.15,338.046 1000.45,340.32 1001.76,342.589 1003.06,344.855 1004.37,347.117 1005.67,349.377 1006.98,351.633 1008.28,353.886 1009.59,356.136 1010.89,358.382 1012.2,360.624 1013.5,362.859 1014.81,365.089 1016.11,367.311 1017.42,369.524 1018.72,371.729 1020.03,373.924 1021.33,376.108 1022.64,378.282 1023.94,380.445 1025.25,382.598 1026.55,384.74 1027.86,386.872 1029.16,388.995 1030.47,391.108 1031.77,393.213 1033.07,395.309 1034.38,397.398 1035.68,399.478 1036.99,401.551 1038.29,403.615 1039.6,405.671 1040.9,407.718 1042.21,409.756 1043.51,411.784 1044.82,413.801 1046.12,415.807 1047.43,417.8 1048.73,419.782 1050.04,421.75 1051.34,423.705 1052.65,425.647 1053.95,427.576 1055.26,429.491 1056.56,431.393 1057.87,433.283 1059.17,435.159 1060.48,437.024 1061.78,438.877 1063.09,440.718 1064.39,442.547 1065.7,444.365 1067,446.172 1068.3,447.966 1069.61,449.749 1070.91,451.519 1072.22,453.276 1073.52,455.021 1074.83,456.751 1076.13,458.468 1077.44,460.169 1078.74,461.857 1080.05,463.529 1081.35,465.186 1082.66,466.827 1083.96,468.453 1085.27,470.065 1086.57,471.661 1087.88,473.243 1089.18,474.81 1090.49,476.362 1091.79,477.901 1093.1,479.425 1094.4,480.935 1095.71,482.432 1097.01,483.914 1098.32,485.382 1099.62,486.836 1100.92,488.276 1102.23,489.7 1103.53,491.109 1104.84,492.503 1106.14,493.881 1107.45,495.243 1108.75,496.588 1110.06,497.918 1111.36,499.231 1112.67,500.528 1113.97,501.809 1115.28,503.073 1116.58,504.321 1117.89,505.554 1119.19,506.771 1120.5,507.972 1121.8,509.158 1123.11,510.329 1124.41,511.484 1125.72,512.624 1127.02,513.748 1128.33,514.858 1129.63,515.951 1130.94,517.029 1132.24,518.091 1133.55,519.137 1134.85,520.167 1136.15,521.18 1137.46,522.177 1138.76,523.157 1140.07,524.121 1141.37,525.068 1142.68,525.998 1143.98,526.912 1145.29,527.81 1146.59,528.691 1147.9,529.556 1149.2,530.406 1150.51,531.239 1151.81,532.057 1153.12,532.859 1154.42,533.645 1155.73,534.416 1157.03,535.171 1158.34,535.911 1159.64,536.635 1160.95,537.343 1162.25,538.035 1163.56,538.711 1164.86,539.371 1166.17,540.015 1167.47,540.642 1168.78,541.254 1170.08,541.849 1171.38,542.429 1172.69,542.992 1173.99,543.539 1175.3,544.071 1176.6,544.587 1177.91,545.087 1179.21,545.572 1180.52,546.041 1181.82,546.496 1183.13,546.935 1184.43,547.359 1185.74,547.768 1187.04,548.162 1188.35,548.541 1189.65,548.905 1190.96,549.254 1192.26,549.587 1193.57,549.906 1194.87,550.21 1196.18,550.498 1197.48,550.771 1198.79,551.029 1200.09,551.273 1201.4,551.501 1202.7,551.715 1204,551.913 1205.31,552.098 1206.61,552.267 1207.92,552.423 1209.22,552.564 1210.53,552.691 1211.83,552.805 1213.14,552.904 1214.44,552.989 1215.75,553.061 1217.05,553.119 1218.36,553.163 1219.66,553.194 1220.97,553.211 1222.27,553.214 1223.58,553.204 1224.88,553.181 1226.19,553.143 1227.49,553.093 1228.8,553.029 1230.1,552.951 1231.41,552.861 1232.71,552.757 1234.02,552.641 1235.32,552.512 1236.63,552.37 1237.93,552.215 1239.23,552.049 1240.54,551.869 1241.84,551.678 1243.15,551.475 1244.45,551.259 1245.76,551.032 1247.06,550.793 1248.37,550.542 1249.67,550.279 1250.98,550.004 1252.28,549.718 1253.59,549.421 1254.89,549.111 1256.2,548.791 1257.5,548.459 1258.81,548.116 1260.11,547.762 1261.42,547.397 1262.72,547.021 1264.03,546.634 1265.33,546.236 1266.64,545.829 1267.94,545.41 1269.25,544.982 1270.55,544.544 1271.86,544.095 1273.16,543.637 1274.46,543.168 1275.77,542.69 1277.07,542.203 1278.38,541.706 1279.68,541.199 1280.99,540.683 1282.29,540.158 1283.6,539.624 1284.9,539.08 1286.21,538.528 1287.51,537.967 1288.82,537.396 1290.12,536.818 1291.43,536.23 1292.73,535.634 1294.04,535.03 1295.34,534.418 1296.65,533.798 1297.95,533.17 1299.26,532.534 1300.56,531.89 1301.87,531.239 1303.17,530.58 1304.48,529.914 1305.78,529.241 1307.09,528.561 1308.39,527.874 1309.69,527.179 1311,526.478 1312.3,525.77 1313.61,525.056 1314.91,524.334 1316.22,523.607 1317.52,522.873 1318.83,522.133 1320.13,521.386 1321.44,520.634 1322.74,519.876 1324.05,519.112 1325.35,518.343 1326.66,517.568 1327.96,516.788 1329.27,516.002 1330.57,515.212 1331.88,514.416 1333.18,513.616 1334.49,512.811 1335.79,512.001 1337.1,511.186 1338.4,510.367 1339.71,509.543 1341.01,508.716 1342.31,507.884 1343.62,507.048 1344.92,506.208 1346.23,505.364 1347.53,504.516 1348.84,503.665 1350.14,502.81 1351.45,501.952 1352.75,501.09 1354.06,500.226 1355.36,499.358 1356.67,498.487 1357.97,497.613 1359.28,496.737 1360.58,495.858 1361.89,494.977 1363.19,494.093 1364.5,493.207 1365.8,492.318 1367.11,491.428 1368.41,490.535 1369.72,489.641 1371.02,488.745 1372.33,487.847 1373.63,486.947 1374.94,486.046 1376.24,485.144 1377.54,484.24 1378.85,483.335 1380.15,482.429 1381.46,481.522 1382.76,480.614 1384.07,479.705 1385.37,478.795 1386.68,477.885 1387.98,476.975 1389.29,476.064 1390.59,475.153 1391.9,474.241 1393.2,473.33 1394.51,472.418 1395.81,471.507 1397.12,470.596 1398.42,469.685 1399.73,468.774 1401.03,467.864 1402.34,466.955 1403.64,466.046 1404.95,465.138 1406.25,464.23 1407.56,463.324 1408.86,462.418 1410.17,461.514 1411.47,460.611 1412.77,459.709 1414.08,458.808 1415.38,457.909 1416.69,457.011 1417.99,456.115 1419.3,455.221 1420.6,454.329 1421.91,453.438 1423.21,452.55 1424.52,451.663 1425.82,450.779 1427.13,449.896 1428.43,449.016 1429.74,448.139 1431.04,447.263 1432.35,446.391 1433.65,445.52 1434.96,444.653 1436.26,443.788 1437.57,442.926 1438.87,442.067 1440.18,441.211 1441.48,440.358 1442.79,439.508 1444.09,438.661 1445.39,437.817 1446.7,436.977 1448,436.14 1449.31,435.307 1450.61,434.477 1451.92,433.651 1453.22,432.828 1454.53,432.009 1455.83,431.194 1457.14,430.383 1458.44,429.575 1459.75,428.772 1461.05,427.973 1462.36,427.177 1463.66,426.386 1464.97,425.599 1466.27,424.816 1467.58,424.038 1468.88,423.264 1470.19,422.495 1471.49,421.729 1472.8,420.969 1474.1,420.213 1475.41,419.462 1476.71,418.715 1478.02,417.974 1479.32,417.237 1480.62,416.505 1481.93,415.777 1483.23,415.055 1484.54,414.338 1485.84,413.626 1487.15,412.919 1488.45,412.217 1489.76,411.52 1491.06,410.829 1492.37,410.143 1493.67,409.462 1494.98,408.786 1496.28,408.116 1497.59,407.451 1498.89,406.792 1500.2,406.138 1501.5,405.49 1502.81,404.847 1504.11,404.21 1505.42,403.579 1506.72,402.953 1508.03,402.333 1509.33,401.719 1510.64,401.111 1511.94,400.508 1513.25,399.911 1514.55,399.32 1515.85,398.735 1517.16,398.156 1518.46,397.583 1519.77,397.016 1521.07,396.455 1522.38,395.9 1523.68,395.351 1524.99,394.808 1526.29,394.271 1527.6,393.74 1528.9,393.216 1530.21,392.697 1531.51,392.185 1532.82,391.679 1534.12,391.179 1535.43,390.685 1536.73,390.198 1538.04,389.717 1539.34,389.242 1540.65,388.773 1541.95,388.311 1543.26,387.855 1544.56,387.405 1545.87,386.962 1547.17,386.525 1548.48,386.094 1549.78,385.67 1551.08,385.252 1552.39,384.841 1553.69,384.436 1555,384.037 1556.3,383.645 1557.61,383.259 1558.91,382.879 1560.22,382.506 1561.52,382.139 1562.83,381.779 1564.13,381.425 1565.44,381.077 1566.74,380.736 1568.05,380.402 1569.35,380.073 1570.66,379.751 1571.96,379.436 1573.27,379.127 1574.57,378.824 1575.88,378.528 1577.18,378.238 1578.49,377.954 1579.79,377.677 1581.1,377.406 1582.4,377.142 1583.7,376.883 1585.01,376.632 1586.31,376.386 1587.62,376.147 1588.92,375.914 1590.23,375.687 1591.53,375.467 1592.84,375.253 1594.14,375.045 1595.45,374.843 1596.75,374.648 1598.06,374.458 1599.36,374.275 1600.67,374.099 1601.97,373.928 1603.28,373.763 1604.58,373.605 1605.89,373.452 1607.19,373.306 1608.5,373.166 1609.8,373.031 1611.11,372.903 1612.41,372.781 1613.72,372.664 1615.02,372.554 1616.33,372.45 1617.63,372.351 1618.93,372.258 1620.24,372.172 1621.54,372.091 1622.85,372.015 1624.15,371.946 1625.46,371.882 1626.76,371.824 1628.07,371.772 1629.37,371.725 1630.68,371.684 1631.98,371.649 1633.29,371.619 1634.59,371.595 1635.9,371.576 1637.2,371.563 1638.51,371.555 1639.81,371.553 1641.12,371.556 1642.42,371.564 1643.73,371.578 1645.03,371.597 1646.34,371.621 1647.64,371.651 1648.95,371.686 1650.25,371.725 1651.56,371.77 1652.86,371.821 1654.16,371.876 1655.47,371.936 1656.77,372.001 1658.08,372.071 1659.38,372.146 1660.69,372.226 1661.99,372.311 1663.3,372.4 1664.6,372.495 1665.91,372.594 1667.21,372.698 1668.52,372.806 1669.82,372.919 1671.13,373.037 1672.43,373.159 1673.74,373.285 1675.04,373.416 1676.35,373.552 1677.65,373.692 1678.96,373.836 1680.26,373.984 1681.57,374.137 1682.87,374.294 1684.18,374.455 1685.48,374.621 1686.78,374.79 1688.09,374.963 1689.39,375.141 1690.7,375.322 1692,375.507 1693.31,375.697 1694.61,375.89 1695.92,376.086 1697.22,376.287 1698.53,376.491 1699.83,376.699 1701.14,376.911 1702.44,377.126 1703.75,377.344 1705.05,377.567 1706.36,377.792 1707.66,378.021 1708.97,378.253 1710.27,378.489 1711.58,378.728 1712.88,378.97 1714.19,379.216 1715.49,379.464 1716.8,379.716 1718.1,379.97 1719.41,380.228 1720.71,380.488 1722.01,380.752 1723.32,381.018 1724.62,381.287 1725.93,381.559 1727.23,381.834 1728.54,382.111 1729.84,382.391 1731.15,382.674 1732.45,382.959 1733.76,383.247 1735.06,383.537 1736.37,383.83 1737.67,384.125 1738.98,384.422 1740.28,384.722 1741.59,385.023 1742.89,385.327 1744.2,385.634 1745.5,385.942 1746.81,386.252 1748.11,386.564 1749.42,386.879 1750.72,387.195 1752.03,387.513 1753.33,387.833 1754.64,388.155 1755.94,388.478 1757.24,388.804 1758.55,389.131 1759.85,389.459 1761.16,389.789 1762.46,390.121 1763.77,390.454 1765.07,390.788 1766.38,391.124 1767.68,391.462 1768.99,391.8 1770.29,392.14 1771.6,392.481 1772.9,392.824 1774.21,393.167 1775.51,393.512 1776.82,393.857 1778.12,394.204 1779.43,394.552 1780.73,394.9 1782.04,395.249 1783.34,395.6 1784.65,395.951 1785.95,396.303 1787.26,396.655 1788.56,397.008 1789.87,397.362 1791.17,397.717 1792.47,398.072 1793.78,398.427 1795.08,398.783 1796.39,399.14 1797.69,399.497 1799,399.854 1800.3,400.211 1801.61,400.569 1802.91,400.927 1804.22,401.286 1805.52,401.644 1806.83,402.003 1808.13,402.361 1809.44,402.72 1810.74,403.079 1812.05,403.437 1813.35,403.796 1814.66,404.154 1815.96,404.513 1817.27,404.871 1818.57,405.229 1819.88,405.587 1821.18,405.944 1822.49,406.301 1823.79,406.658 1825.09,407.015 1826.4,407.371 1827.7,407.726 1829.01,408.081 1830.31,408.436 1831.62,408.79 1832.92,409.143 1834.23,409.496 1835.53,409.848 1836.84,410.199 1838.14,410.55 1839.45,410.9 1840.75,411.249 1842.06,411.597 1843.36,411.944 1844.67,412.291 1845.97,412.637 1847.28,412.981 1848.58,413.325 1849.89,413.668 1851.19,414.009 1852.5,414.35 1853.8,414.689 1855.11,415.028 1856.41,415.365 1857.72,415.701 1859.02,416.036 1860.32,416.369 1861.63,416.702 1862.93,417.033 1864.24,417.362 1865.54,417.691 1866.85,418.018 1868.15,418.343 1869.46,418.667 1870.76,418.99 1872.07,419.311 1873.37,419.631 1874.68,419.949 1875.98,420.266 1877.29,420.581 1878.59,420.895 1879.9,421.206 1881.2,421.517 1882.51,421.825 1883.81,422.132 1885.12,422.437 1886.42,422.741 1887.73,423.042 1889.03,423.342 1890.34,423.64 1891.64,423.937 1892.95,424.231 1894.25,424.524 1895.55,424.815 1896.86,425.103 1898.16,425.39 1899.47,425.675 1900.77,425.958 1902.08,426.239 1903.38,426.518 1904.69,426.796 1905.99,427.071 1907.3,427.344 1908.6,427.615 1909.91,427.883 1911.21,428.15 1912.52,428.415 1913.82,428.678 1915.13,428.938 1916.43,429.196 1917.74,429.453 1919.04,429.706 1920.35,429.958 1921.65,430.208 1922.96,430.455 1924.26,430.7 1925.57,430.943 1926.87,431.184 1928.17,431.422 1929.48,431.658 1930.78,431.892 1932.09,432.124 1933.39,432.353 1934.7,432.58 1936,432.804 1937.31,433.027 1938.61,433.246 1939.92,433.464 1941.22,433.679 1942.53,433.892 1943.83,434.102 1945.14,434.31 1946.44,434.516 1947.75,434.719 1949.05,434.92 1950.36,435.118 1951.66,435.314 1952.97,435.507 1954.27,435.698 1955.58,435.887 1956.88,436.073 1958.19,436.257 1959.49,436.438 1960.8,436.617 1962.1,436.793 1963.4,436.967 1964.71,437.138 1966.01,437.307 1967.32,437.474 1968.62,437.637 1969.93,437.799 1971.23,437.958 1972.54,438.114 1973.84,438.268 1975.15,438.42 1976.45,438.568 1977.76,438.715 1979.06,438.859 1980.37,439 1981.67,439.139 1982.98,439.276 1984.28,439.41 1985.59,439.541 1986.89,439.67 1988.2,439.796 1989.5,439.92 1990.81,440.042 1992.11,440.161 1993.42,440.277 1994.72,440.391 1996.03,440.503 1997.33,440.612 1998.63,440.718 1999.94,440.822 2001.24,440.924 2002.55,441.023 2003.85,441.119 2005.16,441.214 2006.46,441.305 2007.77,441.395 2009.07,441.482 2010.38,441.566 2011.68,441.648 2012.99,441.727 2014.29,441.805 2015.6,441.879 2016.9,441.952 2018.21,442.021 2019.51,442.089 2020.82,442.154 2022.12,442.217 2023.43,442.277 2024.73,442.335 2026.04,442.391 2027.34,442.444 2028.65,442.495 2029.95,442.543 2031.26,442.589 2032.56,442.633 2033.86,442.675 2035.17,442.714 2036.47,442.751 2037.78,442.786 2039.08,442.818 2040.39,442.849 2041.69,442.877 2043,442.902 2044.3,442.926 2045.61,442.947 2046.91,442.966 2048.22,442.983 2049.52,442.997 2050.83,443.01 2052.13,443.02 2053.44,443.028 2054.74,443.034 2056.05,443.038 2057.35,443.04 2058.66,443.04 2059.96,443.037 2061.27,443.033 2062.57,443.026 2063.88,443.017 2065.18,443.007 2066.48,442.994 2067.79,442.979 2069.09,442.962 2070.4,442.944 2071.7,442.923 2073.01,442.9 2074.31,442.875 2075.62,442.849 2076.92,442.82 2078.23,442.79 2079.53,442.758 2080.84,442.723 2082.14,442.687 2083.45,442.649 2084.75,442.61 2086.06,442.568 2087.36,442.525 2088.67,442.479 2089.97,442.433 2091.28,442.384 2092.58,442.333 2093.89,442.281 2095.19,442.227 2096.5,442.172 2097.8,442.114 2099.11,442.055 2100.41,441.995 2101.71,441.932 2103.02,441.869 2104.32,441.803 2105.63,441.736 2106.93,441.667 2108.24,441.597 2109.54,441.525 2110.85,441.452 2112.15,441.377 2113.46,441.301 2114.76,441.223 2116.07,441.144 2117.37,441.064 2118.68,440.982 2119.98,440.898 2121.29,440.813 2122.59,440.727 2123.9,440.64 2125.2,440.551 2126.51,440.46 2127.81,440.369 2129.12,440.276 2130.42,440.182 2131.73,440.087 2133.03,439.99 2134.34,439.892 2135.64,439.793 2136.94,439.693 2138.25,439.592 2139.55,439.489 2140.86,439.385 2142.16,439.281 2143.47,439.175 2144.77,439.068 2146.08,438.96 2147.38,438.851 2148.69,438.741 2149.99,438.63 2151.3,438.518 2152.6,438.405 2153.91,438.291 2155.21,438.176 2156.52,438.06 2157.82,437.943 2159.13,437.825 2160.43,437.707 2161.74,437.587 2163.04,437.467 2164.35,437.346 2165.65,437.224 2166.96,437.102 2168.26,436.978 2169.56,436.854 2170.87,436.729 2172.17,436.604 2173.48,436.477 2174.78,436.35 2176.09,436.223 2177.39,436.094 2178.7,435.965 2180,435.836 2181.31,435.706 2182.61,435.575 2183.92,435.444 2185.22,435.312 2186.53,435.18 2187.83,435.047 2189.14,434.914 2190.44,434.78 2191.75,434.645 2193.05,434.511 2194.36,434.376 2195.66,434.24 2196.97,434.104 2198.27,433.968 2199.58,433.831 2200.88,433.694 2202.19,433.557 2203.49,433.419 2204.79,433.281 2206.1,433.143 2207.4,433.004 2208.71,432.866 2210.01,432.727 2211.32,432.587 2212.62,432.448 2213.93,432.308 2215.23,432.169 2216.54,432.029 2217.84,431.889 2219.15,431.749 2220.45,431.608 2221.76,431.468 2223.06,431.328 2224.37,431.187 2225.67,431.047 2226.98,430.906 2228.28,430.765 2229.59,430.625 2230.89,430.484 2232.2,430.344 2233.5,430.203 2234.81,430.063 2236.11,429.922 2237.42,429.782 2238.72,429.642 2240.02,429.502 2241.33,429.362 2242.63,429.222 2243.94,429.082 2245.24,428.943 2246.55,428.804 2247.85,428.664 2249.16,428.526 2250.46,428.387 2251.77,428.248 2253.07,428.11 2254.38,427.972 2255.68,427.835 2256.99,427.697 2258.29,427.56 2259.6,427.424 2260.9,427.287 2262.21,427.151 2263.51,427.015 2264.82,426.88 2266.12,426.745 2267.43,426.61 2268.73,426.476 2270.04,426.342 2271.34,426.209 2272.65,426.076 2273.95,425.943 2275.25,425.811 2276.56,425.68 2277.86,425.549 2279.17,425.418 2280.47,425.288 2281.78,425.158 2283.08,425.029 2284.39,424.901 2285.69,424.772 2287,424.645 2288.3,424.518 2289.61,424.392 2290.91,424.266 2292.22,424.141 2293.52,424.016 2294.04,423.967 "/>
<polyline clip-path="url(#clip552)" style="stroke:#e26f46; stroke-linecap:round; stroke-linejoin:round; stroke-width:4; stroke-opacity:1; fill:none" points="336.823,401.043 336.888,401.043 336.954,401.043 337.084,401.043 337.345,401.043 337.867,401.043 338.911,401.043 340.216,401.043 341.521,401.043 342.825,401.043 344.13,401.043 345.435,401.043 346.74,401.043 348.045,401.043 349.349,401.043 350.654,401.043 351.959,401.043 353.264,401.043 354.569,401.043 355.873,401.043 357.178,401.043 358.483,401.043 359.788,401.043 361.093,401.043 362.397,401.043 363.702,401.043 365.007,401.043 366.312,401.043 367.617,401.043 368.922,401.043 370.226,401.043 371.531,401.043 372.836,401.043 374.141,401.043 375.446,401.043 376.75,401.043 378.055,401.043 379.36,401.043 380.665,401.043 381.97,401.043 383.274,401.043 384.579,401.043 385.884,401.043 387.189,401.043 388.494,401.043 389.799,401.043 391.103,401.043 392.408,401.043 393.713,401.043 395.018,401.043 396.323,401.043 397.627,401.043 398.932,401.043 400.237,401.043 401.542,401.043 402.064,401.043 402.064,978.973 402.065,969.485 402.067,950.581 402.069,926.741 402.07,903.323 402.072,880.512 402.074,858.462 402.076,837.311 402.079,809.383 402.081,783.563 402.084,759.906 402.087,738.362 402.089,718.797 402.095,684.807 402.1,655.926 402.105,630.012 402.111,605.609 402.116,582.202 402.121,560.024 402.126,539.031 402.132,519.478 402.137,501.448 402.142,485.389 402.148,471.508 402.153,459.78 402.158,450 402.169,434.969 402.179,423.779 402.19,415.183 402.201,409.298 402.211,406.647 402.222,407.257 402.232,410.51 402.243,415.527 402.264,430.012 402.283,447.878 402.302,469.705 402.321,494.785 402.341,522.341 402.379,582.625 402.417,646.097 402.455,709.066 402.493,768.65 402.527,817.604 402.562,860.913 402.596,897.836 402.63,928.055 402.665,951.597 402.699,968.689 402.768,985.439 402.829,984.579 402.89,973.636 402.951,957.167 403.012,939.114 403.073,922.53 403.134,909.415 403.196,900.743 403.318,897.086 403.428,905.814 403.538,919.861 403.648,934.732 403.758,947.97 403.868,958.484 403.978,966.274 404.088,972.213 404.198,977.754 404.308,984.025 404.418,990.683 404.528,997.69 404.638,1005.19 404.748,1012.82 404.968,1028.07 405.155,1040.78 405.342,1053.07 405.717,1076.5 406.045,1095.92 406.373,1114.18 406.701,1131.02 407.029,1146.19 407.357,1159.52 407.685,1170.89 408.342,1187.5 408.998,1195.67 409.654,1195.66 410.311,1188.31 410.967,1174.95 411.623,1157.06 412.28,1136.2 412.936,1113.95 413.592,1091.51 414.248,1070.45 414.905,1051.4 415.561,1035.26 416.141,1023.87 416.721,1015.38 417.301,1009.91 417.881,1007.36 418.462,1007.69 419.269,1012.46 420.076,1021.51 420.884,1034.11 421.691,1049.27 422.499,1065.8 423.306,1082.87 424.114,1100.05 424.697,1111.97 425.281,1123.37 425.865,1134.13 426.449,1144.15 427.033,1153.42 427.617,1161.92 428.784,1176.7 429.952,1188.65 431.12,1197.98 432.148,1204.14 433.073,1208.06 433.906,1210.21 434.739,1210.96 435.571,1210.23 436.404,1207.95 437.237,1204.08 438.07,1198.63 439.049,1190.26 440.029,1180.04 440.91,1169.51 441.792,1158.11 442.674,1146.23 443.555,1134.31 444.437,1122.81 445.318,1112.16 446.2,1102.8 447.082,1095.05 447.963,1089.18 449.268,1084.31 450.442,1083.9 451.617,1087.06 452.791,1093.32 453.965,1102.01 455.14,1112.3 456.314,1123.3 457.488,1134.1 458.663,1143.85 459.837,1151.86 461.011,1157.53 462.186,1160.44 463.36,1160.37 464.665,1156.78 465.97,1149.64 467.274,1139.41 468.579,1126.72 469.884,1112.29 471.189,1097.01 472.494,1081.77 473.798,1067.36 475.103,1054.57 476.408,1044.09 477.713,1036.24 479.018,1031.32 480.322,1029.33 481.627,1029.99 482.932,1032.91 484.237,1037.48 485.542,1042.96 486.847,1048.56 488.151,1053.48 489.456,1057 490.761,1058.52 492.066,1057.64 493.371,1054.15 494.675,1048.06 495.98,1039.57 497.285,1029.05 498.59,1017.01 499.895,1004.05 501.199,990.79 502.504,977.869 503.809,965.87 505.114,955.283 506.419,946.483 507.723,939.703 509.028,935.009 510.333,932.308 511.638,931.359 512.943,931.781 514.248,933.093 515.552,934.769 516.857,936.251 518.162,937.013 519.467,936.601 520.772,934.666 522.076,930.989 523.381,925.495 524.686,918.249 525.991,909.447 527.296,899.394 528.6,888.476 529.905,877.127 531.21,865.793 532.515,854.906 533.82,844.847 535.125,835.926 536.429,828.355 537.734,822.238 539.039,817.566 540.344,814.218 541.649,811.974 542.953,810.534 544.258,809.543 545.563,808.62 546.868,807.392 548.173,805.516 549.477,802.709 550.782,798.772 552.087,793.602 553.392,787.189 554.697,779.625 556.001,771.081 557.306,761.8 558.611,752.069 559.916,742.199 561.221,732.502 562.526,723.261 563.83,714.721 565.135,707.066 566.44,700.404 567.745,694.77 569.05,690.119 570.354,686.327 571.659,683.212 572.964,680.549 574.269,678.077 575.574,675.537 576.878,672.675 578.183,669.276 579.488,665.17 580.793,660.252 582.098,654.482 583.403,647.888 584.707,640.561 586.012,632.646 587.317,624.328 588.622,615.816 589.927,607.326 591.231,599.067 592.536,591.225 593.841,583.949 595.146,577.343 596.451,571.456 597.755,566.283 599.06,561.765 600.365,557.797 601.67,554.236 602.975,550.912 604.279,547.646 605.584,544.259 606.889,540.588 608.194,536.5 609.499,531.899 610.804,526.734 612.108,521.001 613.413,514.74 614.718,508.035 616.023,500.998 617.328,493.767 618.632,486.491 619.937,479.316 621.242,472.382 622.547,465.804 623.852,459.671 625.156,454.035 626.461,448.912 627.766,444.279 629.071,440.08 630.376,436.229 631.681,432.617 632.985,429.123 634.29,425.623 635.595,421.998 636.9,418.146 638.205,413.987 639.509,409.472 640.814,404.58 642.119,399.325 643.424,393.749 644.729,387.919 646.033,381.924 647.338,375.862 648.643,369.834 649.948,363.941 651.253,358.271 652.557,352.893 653.862,347.858 655.167,343.189 656.472,338.882 657.777,334.911 659.082,331.225 660.386,327.759 661.691,324.432 662.996,321.16 664.301,317.859 665.606,314.452 666.91,310.878 668.215,307.091 669.52,303.067 670.825,298.806 672.13,294.325 673.434,289.664 674.739,284.872 676.044,280.017 677.349,275.167 678.654,270.39 679.959,265.753 681.263,261.31 682.568,257.101 683.873,253.151 685.178,249.469 686.483,246.043 687.787,242.848 689.092,239.842 690.397,236.976 691.702,234.192 693.007,231.433 694.311,228.643 695.616,225.776 696.921,222.794 698.226,219.674 699.531,216.408 700.835,213 702.14,209.47 703.445,205.849 704.75,202.177 706.055,198.499 707.36,194.863 708.664,191.316 709.969,187.899 711.274,184.645 712.579,181.576 713.884,178.703 715.188,176.026 716.493,173.53 717.798,171.192 719.103,168.982 720.408,166.863 721.712,164.795 723.017,162.741 724.322,160.664 725.627,158.537 726.932,156.338 728.237,154.056 729.541,151.691 730.846,149.249 732.151,146.749 733.456,144.214 734.761,141.673 736.065,139.159 737.37,136.704 738.675,134.337 739.98,132.084 741.285,129.964 742.589,127.989 743.894,126.16 745.199,124.473 746.504,122.917 747.809,121.471 749.113,120.113 750.418,118.818 751.723,117.558 753.028,116.308 754.333,115.046 755.638,113.755 756.942,112.424 758.247,111.048 759.552,109.63 760.857,108.178 762.162,106.707 763.466,105.234 764.771,103.781 766.076,102.369 767.381,101.02 768.686,99.7505 769.99,98.5769 771.295,97.5092 772.6,96.5523 773.905,95.7051 775.21,94.9621 776.515,94.3126 777.819,93.7418 779.124,93.2335 780.429,92.7694 781.734,92.3316 783.039,91.9039 784.343,91.4729 785.648,91.0287 786.953,90.566 788.258,90.0837 789.563,89.5856 790.867,89.0792 792.172,88.5755 793.477,88.0875 794.782,87.6298 796.087,87.2167 797.391,86.8613 798.696,86.5752 800.001,86.3668 801.306,86.241 802.611,86.1992 803.916,86.2391 805.22,86.3548 806.525,86.5379 807.83,86.7775 809.135,87.0618 810.44,87.3783 811.744,87.7154 813.049,88.0628 814.354,88.4125 815.659,88.759 816.964,89.1003 818.268,89.437 819.573,89.773 820.878,90.1142 822.183,90.4688 823.488,90.8459 824.793,91.2551 826.097,91.7059 827.402,92.2064 828.707,92.7632 830.012,93.3809 831.317,94.0615 832.621,94.8047 833.926,95.6077 835.231,96.4653 836.536,97.371 837.841,98.3167 839.145,99.2942 840.45,100.295 841.755,101.312 843.06,102.338 844.365,103.369 845.669,104.403 846.974,105.437 848.279,106.475 849.584,107.519 850.889,108.574 852.194,109.645 853.498,110.739 854.803,111.862 856.108,113.02 857.413,114.218 858.718,115.46 860.022,116.747 861.327,118.081 862.632,119.46 863.937,120.881 865.242,122.34 866.546,123.832 867.851,125.352 869.156,126.893 870.461,128.451 871.766,130.02 873.071,131.596 874.375,133.178 875.68,134.763 876.985,136.352 878.29,137.945 879.595,139.547 880.899,141.16 882.204,142.788 883.509,144.435 884.814,146.105 886.119,147.803 887.423,149.53 888.728,151.289 890.033,153.08 891.338,154.903 892.643,156.757 893.947,158.639 895.252,160.546 896.557,162.475 897.862,164.421 899.167,166.38 900.472,168.349 901.776,170.325 903.081,172.305 904.386,174.288 905.691,176.274 906.996,178.262 908.3,180.255 909.605,182.253 910.91,184.261 912.215,186.279 913.52,188.311 914.824,190.359 916.129,192.426 917.434,194.513 918.739,196.621 920.044,198.75 921.349,200.898 922.653,203.066 923.958,205.25 925.263,207.449 926.568,209.66 927.873,211.879 929.177,214.105 930.482,216.335 931.787,218.567 933.092,220.799 934.397,223.031 935.701,225.263 937.006,227.495 938.311,229.728 939.616,231.964 940.921,234.204 942.225,236.451 943.53,238.705 944.835,240.968 946.14,243.241 947.445,245.526 948.75,247.822 950.054,250.129 951.359,252.447 952.664,254.773 953.969,257.107 955.274,259.447 956.578,261.791 957.883,264.137 959.188,266.482 960.493,268.827 961.798,271.168 963.102,273.507 964.407,275.841 965.712,278.172 967.017,280.5 968.322,282.825 969.627,285.148 970.931,287.471 972.236,289.795 973.541,292.12 974.846,294.448 976.151,296.779 977.455,299.114 978.76,301.452 980.065,303.793 981.37,306.136 982.675,308.481 983.979,310.825 985.284,313.168 986.589,315.509 987.894,317.846 989.199,320.178 990.503,322.503 991.808,324.822 993.113,327.134 994.418,329.438 995.723,331.735 997.028,334.025 998.332,336.309 999.637,338.586 1000.94,340.859 1002.25,343.128 1003.55,345.393 1004.86,347.654 1006.16,349.913 1007.47,352.169 1008.77,354.421 1010.08,356.67 1011.38,358.915 1012.69,361.155 1013.99,363.39 1015.29,365.617 1016.6,367.837 1017.9,370.048 1019.21,372.25 1020.51,374.442 1021.82,376.624 1023.12,378.795 1024.43,380.955 1025.73,383.104 1027.04,385.244 1028.34,387.373 1029.65,389.494 1030.95,391.605 1032.26,393.707 1033.56,395.802 1034.87,397.888 1036.17,399.967 1037.48,402.037 1038.78,404.1 1040.09,406.154 1041.39,408.199 1042.7,410.234 1044,412.259 1045.31,414.273 1046.61,416.276 1047.92,418.267 1049.22,420.245 1050.52,422.21 1051.83,424.161 1053.13,426.1 1054.44,428.025 1055.74,429.937 1057.05,431.835 1058.35,433.722 1059.66,435.595 1060.96,437.457 1062.27,439.307 1063.57,441.145 1064.88,442.972 1066.18,444.787 1067.49,446.591 1068.79,448.382 1070.1,450.162 1071.4,451.929 1072.71,453.683 1074.01,455.424 1075.32,457.151 1076.62,458.864 1077.93,460.562 1079.23,462.245 1080.54,463.913 1081.84,465.566 1083.15,467.204 1084.45,468.827 1085.75,470.434 1087.06,472.027 1088.36,473.605 1089.67,475.168 1090.97,476.717 1092.28,478.252 1093.58,479.773 1094.89,481.28 1096.19,482.773 1097.5,484.252 1098.8,485.717 1100.11,487.167 1101.41,488.603 1102.72,490.024 1104.02,491.429 1105.33,492.819 1106.63,494.193 1107.94,495.551 1109.24,496.892 1110.55,498.218 1111.85,499.527 1113.16,500.82 1114.46,502.096 1115.77,503.357 1117.07,504.601 1118.37,505.83 1119.68,507.043 1120.98,508.241 1122.29,509.423 1123.59,510.59 1124.9,511.741 1126.2,512.877 1127.51,513.998 1128.81,515.104 1130.12,516.194 1131.42,517.268 1132.73,518.326 1134.03,519.368 1135.34,520.394 1136.64,521.403 1137.95,522.396 1139.25,523.372 1140.56,524.331 1141.86,525.274 1143.17,526.201 1144.47,527.111 1145.78,528.004 1147.08,528.882 1148.39,529.743 1149.69,530.589 1151,531.418 1152.3,532.232 1153.6,533.031 1154.91,533.813 1156.21,534.58 1157.52,535.332 1158.82,536.068 1160.13,536.788 1161.43,537.492 1162.74,538.18 1164.04,538.852 1165.35,539.508 1166.65,540.148 1167.96,540.772 1169.26,541.38 1170.57,541.971 1171.87,542.546 1173.18,543.106 1174.48,543.649 1175.79,544.177 1177.09,544.689 1178.4,545.186 1179.7,545.667 1181.01,546.133 1182.31,546.584 1183.62,547.019 1184.92,547.44 1186.23,547.845 1187.53,548.236 1188.83,548.611 1190.14,548.971 1191.44,549.317 1192.75,549.647 1194.05,549.962 1195.36,550.262 1196.66,550.547 1197.97,550.816 1199.27,551.071 1200.58,551.311 1201.88,551.535 1203.19,551.745 1204.49,551.941 1205.8,552.122 1207.1,552.288 1208.41,552.44 1209.71,552.578 1211.02,552.702 1212.32,552.812 1213.63,552.908 1214.93,552.99 1216.24,553.059 1217.54,553.113 1218.85,553.154 1220.15,553.182 1221.46,553.196 1222.76,553.196 1224.06,553.182 1225.37,553.156 1226.67,553.115 1227.98,553.061 1229.28,552.994 1230.59,552.914 1231.89,552.82 1233.2,552.714 1234.5,552.594 1235.81,552.462 1237.11,552.317 1238.42,552.16 1239.72,551.99 1241.03,551.808 1242.33,551.614 1243.64,551.408 1244.94,551.19 1246.25,550.959 1247.55,550.718 1248.86,550.464 1250.16,550.198 1251.47,549.921 1252.77,549.632 1254.08,549.332 1255.38,549.02 1256.68,548.697 1257.99,548.363 1259.29,548.017 1260.6,547.66 1261.9,547.293 1263.21,546.914 1264.51,546.525 1265.82,546.125 1267.12,545.715 1268.43,545.294 1269.73,544.864 1271.04,544.423 1272.34,543.972 1273.65,543.511 1274.95,543.041 1276.26,542.561 1277.56,542.071 1278.87,541.572 1280.17,541.063 1281.48,540.545 1282.78,540.018 1284.09,539.481 1285.39,538.936 1286.7,538.381 1288,537.818 1289.31,537.246 1290.61,536.665 1291.91,536.076 1293.22,535.478 1294.52,534.872 1295.83,534.258 1297.13,533.636 1298.44,533.006 1299.74,532.369 1301.05,531.723 1302.35,531.071 1303.66,530.41 1304.96,529.743 1306.27,529.068 1307.57,528.386 1308.88,527.697 1310.18,527.001 1311.49,526.299 1312.79,525.589 1314.1,524.873 1315.4,524.151 1316.71,523.422 1318.01,522.686 1319.32,521.945 1320.62,521.197 1321.93,520.444 1323.23,519.685 1324.54,518.92 1325.84,518.149 1327.14,517.373 1328.45,516.592 1329.75,515.805 1331.06,515.013 1332.36,514.217 1333.67,513.415 1334.97,512.609 1336.28,511.798 1337.58,510.983 1338.89,510.163 1340.19,509.338 1341.5,508.51 1342.8,507.677 1344.11,506.84 1345.41,505.999 1346.72,505.155 1348.02,504.306 1349.33,503.454 1350.63,502.599 1351.94,501.74 1353.24,500.878 1354.55,500.012 1355.85,499.144 1357.16,498.273 1358.46,497.399 1359.76,496.522 1361.07,495.642 1362.37,494.761 1363.68,493.876 1364.98,492.99 1366.29,492.101 1367.59,491.21 1368.9,490.317 1370.2,489.423 1371.51,488.526 1372.81,487.628 1374.12,486.728 1375.42,485.827 1376.73,484.924 1378.03,484.02 1379.34,483.115 1380.64,482.209 1381.95,481.302 1383.25,480.394 1384.56,479.485 1385.86,478.575 1387.17,477.665 1388.47,476.755 1389.78,475.844 1391.08,474.933 1392.39,474.022 1393.69,473.11 1394.99,472.199 1396.3,471.288 1397.6,470.377 1398.91,469.466 1400.21,468.556 1401.52,467.646 1402.82,466.737 1404.13,465.828 1405.43,464.921 1406.74,464.014 1408.04,463.107 1409.35,462.202 1410.65,461.298 1411.96,460.396 1413.26,459.494 1414.57,458.594 1415.87,457.695 1417.18,456.798 1418.48,455.903 1419.79,455.009 1421.09,454.117 1422.4,453.227 1423.7,452.339 1425.01,451.453 1426.31,450.57 1427.62,449.688 1428.92,448.809 1430.22,447.932 1431.53,447.057 1432.83,446.185 1434.14,445.316 1435.44,444.449 1436.75,443.585 1438.05,442.724 1439.36,441.866 1440.66,441.01 1441.97,440.158 1443.27,439.309 1444.58,438.463 1445.88,437.62 1447.19,436.781 1448.49,435.945 1449.8,435.113 1451.1,434.284 1452.41,433.458 1453.71,432.637 1455.02,431.819 1456.32,431.005 1457.63,430.195 1458.93,429.388 1460.24,428.586 1461.54,427.788 1462.85,426.993 1464.15,426.203 1465.45,425.418 1466.76,424.636 1468.06,423.859 1469.37,423.086 1470.67,422.318 1471.98,421.554 1473.28,420.794 1474.59,420.04 1475.89,419.29 1477.2,418.544 1478.5,417.804 1479.81,417.068 1481.11,416.338 1482.42,415.612 1483.72,414.891 1485.03,414.175 1486.33,413.464 1487.64,412.758 1488.94,412.058 1490.25,411.362 1491.55,410.672 1492.86,409.987 1494.16,409.308 1495.47,408.634 1496.77,407.965 1498.07,407.302 1499.38,406.644 1500.68,405.991 1501.99,405.344 1503.29,404.703 1504.6,404.068 1505.9,403.438 1507.21,402.814 1508.51,402.195 1509.82,401.582 1511.12,400.975 1512.43,400.374 1513.73,399.779 1515.04,399.19 1516.34,398.606 1517.65,398.028 1518.95,397.457 1520.26,396.891 1521.56,396.332 1522.87,395.778 1524.17,395.231 1525.48,394.689 1526.78,394.154 1528.09,393.624 1529.39,393.101 1530.7,392.584 1532,392.074 1533.3,391.569 1534.61,391.071 1535.91,390.579 1537.22,390.093 1538.52,389.613 1539.83,389.14 1541.13,388.673 1542.44,388.212 1543.74,387.758 1545.05,387.31 1546.35,386.868 1547.66,386.433 1548.96,386.003 1550.27,385.581 1551.57,385.164 1552.88,384.755 1554.18,384.351 1555.49,383.954 1556.79,383.563 1558.1,383.179 1559.4,382.801 1560.71,382.429 1562.01,382.064 1563.32,381.705 1564.62,381.353 1565.93,381.007 1567.23,380.667 1568.53,380.334 1569.84,380.007 1571.14,379.687 1572.45,379.373 1573.75,379.065 1575.06,378.764 1576.36,378.469 1577.67,378.181 1578.97,377.899 1580.28,377.623 1581.58,377.354 1582.89,377.091 1584.19,376.834 1585.5,376.584 1586.8,376.34 1588.11,376.102 1589.41,375.871 1590.72,375.646 1592.02,375.427 1593.33,375.214 1594.63,375.008 1595.94,374.808 1597.24,374.614 1598.55,374.426 1599.85,374.244 1601.15,374.069 1602.46,373.899 1603.76,373.736 1605.07,373.579 1606.37,373.428 1607.68,373.283 1608.98,373.144 1610.29,373.012 1611.59,372.885 1612.9,372.764 1614.2,372.649 1615.51,372.54 1616.81,372.437 1618.12,372.34 1619.42,372.249 1620.73,372.163 1622.03,372.083 1623.34,372.01 1624.64,371.941 1625.95,371.879 1627.25,371.823 1628.56,371.772 1629.86,371.726 1631.17,371.687 1632.47,371.653 1633.78,371.624 1635.08,371.601 1636.38,371.584 1637.69,371.572 1638.99,371.565 1640.3,371.564 1641.6,371.568 1642.91,371.578 1644.21,371.593 1645.52,371.613 1646.82,371.639 1648.13,371.669 1649.43,371.705 1650.74,371.746 1652.04,371.793 1653.35,371.844 1654.65,371.9 1655.96,371.961 1657.26,372.028 1658.57,372.099 1659.87,372.175 1661.18,372.256 1662.48,372.342 1663.79,372.433 1665.09,372.528 1666.4,372.628 1667.7,372.733 1669.01,372.842 1670.31,372.956 1671.61,373.075 1672.92,373.198 1674.22,373.326 1675.53,373.458 1676.83,373.594 1678.14,373.735 1679.44,373.88 1680.75,374.03 1682.05,374.184 1683.36,374.341 1684.66,374.503 1685.97,374.67 1687.27,374.84 1688.58,375.014 1689.88,375.193 1691.19,375.375 1692.49,375.561 1693.8,375.751 1695.1,375.945 1696.41,376.142 1697.71,376.344 1699.02,376.549 1700.32,376.758 1701.63,376.97 1702.93,377.186 1704.24,377.405 1705.54,377.628 1706.84,377.854 1708.15,378.084 1709.45,378.317 1710.76,378.554 1712.06,378.793 1713.37,379.036 1714.67,379.282 1715.98,379.531 1717.28,379.783 1718.59,380.039 1719.89,380.297 1721.2,380.558 1722.5,380.822 1723.81,381.089 1725.11,381.359 1726.42,381.631 1727.72,381.907 1729.03,382.185 1730.33,382.465 1731.64,382.748 1732.94,383.034 1734.25,383.322 1735.55,383.613 1736.86,383.906 1738.16,384.201 1739.46,384.499 1740.77,384.799 1742.07,385.101 1743.38,385.406 1744.68,385.712 1745.99,386.021 1747.29,386.332 1748.6,386.645 1749.9,386.959 1751.21,387.276 1752.51,387.594 1753.82,387.915 1755.12,388.237 1756.43,388.561 1757.73,388.886 1759.04,389.213 1760.34,389.542 1761.65,389.873 1762.95,390.205 1764.26,390.538 1765.56,390.873 1766.87,391.209 1768.17,391.546 1769.48,391.885 1770.78,392.225 1772.09,392.567 1773.39,392.909 1774.69,393.253 1776,393.597 1777.3,393.943 1778.61,394.29 1779.91,394.638 1781.22,394.986 1782.52,395.336 1783.83,395.686 1785.13,396.037 1786.44,396.389 1787.74,396.742 1789.05,397.095 1790.35,397.449 1791.66,397.804 1792.96,398.159 1794.27,398.514 1795.57,398.87 1796.88,399.227 1798.18,399.584 1799.49,399.941 1800.79,400.299 1802.1,400.656 1803.4,401.014 1804.71,401.373 1806.01,401.731 1807.32,402.089 1808.62,402.448 1809.92,402.807 1811.23,403.165 1812.53,403.524 1813.84,403.882 1815.14,404.241 1816.45,404.599 1817.75,404.957 1819.06,405.315 1820.36,405.673 1821.67,406.03 1822.97,406.387 1824.28,406.743 1825.58,407.1 1826.89,407.455 1828.19,407.811 1829.5,408.166 1830.8,408.52 1832.11,408.874 1833.41,409.227 1834.72,409.579 1836.02,409.931 1837.33,410.282 1838.63,410.633 1839.94,410.982 1841.24,411.331 1842.54,411.679 1843.85,412.026 1845.15,412.372 1846.46,412.718 1847.76,413.062 1849.07,413.405 1850.37,413.748 1851.68,414.089 1852.98,414.429 1854.29,414.769 1855.59,415.107 1856.9,415.443 1858.2,415.779 1859.51,416.113 1860.81,416.447 1862.12,416.779 1863.42,417.109 1864.73,417.439 1866.03,417.767 1867.34,418.093 1868.64,418.418 1869.95,418.742 1871.25,419.064 1872.56,419.385 1873.86,419.704 1875.17,420.022 1876.47,420.338 1877.77,420.653 1879.08,420.966 1880.38,421.278 1881.69,421.587 1882.99,421.895 1884.3,422.202 1885.6,422.507 1886.91,422.809 1888.21,423.111 1889.52,423.41 1890.82,423.708 1892.13,424.004 1893.43,424.297 1894.74,424.59 1896.04,424.88 1897.35,425.168 1898.65,425.455 1899.96,425.739 1901.26,426.022 1902.57,426.302 1903.87,426.581 1905.18,426.857 1906.48,427.132 1907.79,427.404 1909.09,427.675 1910.4,427.943 1911.7,428.209 1913,428.473 1914.31,428.735 1915.61,428.995 1916.92,429.253 1918.22,429.509 1919.53,429.762 1920.83,430.013 1922.14,430.262 1923.44,430.509 1924.75,430.754 1926.05,430.996 1927.36,431.236 1928.66,431.474 1929.97,431.709 1931.27,431.943 1932.58,432.173 1933.88,432.402 1935.19,432.628 1936.49,432.852 1937.8,433.074 1939.1,433.293 1940.41,433.51 1941.71,433.725 1943.02,433.937 1944.32,434.147 1945.63,434.354 1946.93,434.559 1948.23,434.762 1949.54,434.962 1950.84,435.159 1952.15,435.355 1953.45,435.548 1954.76,435.738 1956.06,435.926 1957.37,436.112 1958.67,436.295 1959.98,436.475 1961.28,436.653 1962.59,436.829 1963.89,437.002 1965.2,437.173 1966.5,437.341 1967.81,437.507 1969.11,437.67 1970.42,437.831 1971.72,437.989 1973.03,438.145 1974.33,438.298 1975.64,438.449 1976.94,438.598 1978.25,438.743 1979.55,438.887 1980.85,439.027 1982.16,439.166 1983.46,439.302 1984.77,439.435 1986.07,439.566 1987.38,439.694 1988.68,439.82 1989.99,439.943 1991.29,440.064 1992.6,440.182 1993.9,440.298 1995.21,440.412 1996.51,440.523 1997.82,440.631 1999.12,440.737 2000.43,440.84 2001.73,440.941 2003.04,441.04 2004.34,441.136 2005.65,441.23 2006.95,441.321 2008.26,441.409 2009.56,441.496 2010.87,441.579 2012.17,441.661 2013.48,441.74 2014.78,441.816 2016.08,441.89 2017.39,441.962 2018.69,442.031 2020,442.098 2021.3,442.163 2022.61,442.225 2023.91,442.285 2025.22,442.342 2026.52,442.397 2027.83,442.45 2029.13,442.5 2030.44,442.548 2031.74,442.594 2033.05,442.637 2034.35,442.678 2035.66,442.717 2036.96,442.754 2038.27,442.788 2039.57,442.82 2040.88,442.849 2042.18,442.877 2043.49,442.902 2044.79,442.925 2046.1,442.946 2047.4,442.964 2048.71,442.981 2050.01,442.995 2051.31,443.007 2052.62,443.016 2053.92,443.024 2055.23,443.03 2056.53,443.033 2057.84,443.034 2059.14,443.033 2060.45,443.03 2061.75,443.025 2063.06,443.018 2064.36,443.009 2065.67,442.998 2066.97,442.985 2068.28,442.97 2069.58,442.952 2070.89,442.933 2072.19,442.912 2073.5,442.889 2074.8,442.864 2076.11,442.837 2077.41,442.808 2078.72,442.777 2080.02,442.744 2081.33,442.71 2082.63,442.673 2083.93,442.635 2085.24,442.595 2086.54,442.553 2087.85,442.509 2089.15,442.463 2090.46,442.416 2091.76,442.367 2093.07,442.316 2094.37,442.263 2095.68,442.209 2096.98,442.153 2098.29,442.095 2099.59,442.036 2100.9,441.975 2102.2,441.913 2103.51,441.848 2104.81,441.782 2106.12,441.715 2107.42,441.646 2108.73,441.576 2110.03,441.504 2111.34,441.43 2112.64,441.355 2113.95,441.278 2115.25,441.2 2116.56,441.121 2117.86,441.04 2119.16,440.957 2120.47,440.874 2121.77,440.789 2123.08,440.702 2124.38,440.614 2125.69,440.525 2126.99,440.435 2128.3,440.343 2129.6,440.25 2130.91,440.155 2132.21,440.06 2133.52,439.963 2134.82,439.865 2136.13,439.766 2137.43,439.665 2138.74,439.564 2140.04,439.461 2141.35,439.357 2142.65,439.252 2143.96,439.146 2145.26,439.039 2146.57,438.931 2147.87,438.821 2149.18,438.711 2150.48,438.6 2151.79,438.487 2153.09,438.374 2154.39,438.26 2155.7,438.145 2157,438.029 2158.31,437.912 2159.61,437.794 2160.92,437.675 2162.22,437.556 2163.53,437.435 2164.83,437.314 2166.14,437.192 2167.44,437.069 2168.75,436.946 2170.05,436.822 2171.36,436.697 2172.66,436.571 2173.97,436.445 2175.27,436.317 2176.58,436.19 2177.88,436.061 2179.19,435.932 2180.49,435.803 2181.8,435.672 2183.1,435.542 2184.41,435.41 2185.71,435.278 2187.02,435.146 2188.32,435.013 2189.62,434.88 2190.93,434.746 2192.23,434.612 2193.54,434.477 2194.84,434.342 2196.15,434.206 2197.45,434.07 2198.76,433.934 2200.06,433.797 2201.37,433.66 2202.67,433.522 2203.98,433.385 2205.28,433.247 2206.59,433.109 2207.89,432.97 2209.2,432.831 2210.5,432.692 2211.81,432.553 2213.11,432.414 2214.42,432.274 2215.72,432.134 2217.03,431.994 2218.33,431.854 2219.64,431.714 2220.94,431.574 2222.24,431.434 2223.55,431.293 2224.85,431.153 2226.16,431.012 2227.46,430.872 2228.77,430.731 2230.07,430.591 2231.38,430.45 2232.68,430.31 2233.99,430.169 2235.29,430.029 2236.6,429.889 2237.9,429.748 2239.21,429.608 2240.51,429.468 2241.82,429.328 2243.12,429.189 2244.43,429.049 2245.73,428.91 2247.04,428.77 2248.34,428.631 2249.65,428.493 2250.95,428.354 2252.26,428.216 2253.56,428.078 2254.87,427.94 2256.17,427.802 2257.47,427.665 2258.78,427.528 2260.08,427.391 2261.39,427.255 2262.69,427.119 2264,426.984 2265.3,426.848 2266.61,426.713 2267.91,426.579 2269.22,426.445 2270.52,426.311 2271.83,426.178 2273.13,426.045 2274.44,425.913 2275.74,425.781 2277.05,425.649 2278.35,425.518 2279.66,425.388 2280.96,425.258 2282.27,425.128 2283.57,425 2284.88,424.871 2286.18,424.743 2287.49,424.616 2288.79,424.489 2290.1,424.363 2291.4,424.237 2292.7,424.112 2294.01,423.988 2294.04,423.985 "/>
<path clip-path="url(#clip550)" d="M1823.2 248.629 L2283.6 248.629 L2283.6 93.1086 L1823.2 93.1086  Z" fill="#ffffff" fill-rule="evenodd" fill-opacity="1"/>
<polyline clip-path="url(#clip550)" style="stroke:#000000; stroke-linecap:round; stroke-linejoin:round; stroke-width:4; stroke-opacity:1; fill:none" points="1823.2,248.629 2283.6,248.629 2283.6,93.1086 1823.2,93.1086 1823.2,248.629 "/>
<polyline clip-path="url(#clip550)" style="stroke:#009af9; stroke-linecap:round; stroke-linejoin:round; stroke-width:4; stroke-opacity:1; fill:none" points="1846.25,144.949 1984.56,144.949 "/>
<path clip-path="url(#clip550)" d="M2020.81 162.229 L2007.61 127.669 L2012.5 127.669 L2023.44 156.766 L2034.42 127.669 L2039.28 127.669 L2026.11 162.229 L2020.81 162.229 Z" fill="#000000" fill-rule="nonzero" fill-opacity="1" /><path clip-path="url(#clip550)" d="M2063.84 170.099 L2063.84 173.409 L2039.21 173.409 L2039.21 170.099 L2063.84 170.099 Z" fill="#000000" fill-rule="nonzero" fill-opacity="1" /><path clip-path="url(#clip550)" d="M2084.9 148.965 Q2084.9 144.335 2082.98 141.789 Q2081.08 139.243 2077.63 139.243 Q2074.21 139.243 2072.29 141.789 Q2070.39 144.335 2070.39 148.965 Q2070.39 153.571 2072.29 156.118 Q2074.21 158.664 2077.63 158.664 Q2081.08 158.664 2082.98 156.118 Q2084.9 153.571 2084.9 148.965 M2089.16 159.011 Q2089.16 165.631 2086.22 168.849 Q2083.28 172.09 2077.22 172.09 Q2074.97 172.09 2072.98 171.742 Q2070.99 171.418 2069.12 170.724 L2069.12 166.58 Q2070.99 167.599 2072.82 168.085 Q2074.65 168.571 2076.55 168.571 Q2080.74 168.571 2082.82 166.372 Q2084.9 164.196 2084.9 159.775 L2084.9 157.668 Q2083.58 159.96 2081.52 161.094 Q2079.46 162.229 2076.59 162.229 Q2071.82 162.229 2068.91 158.594 Q2065.99 154.96 2065.99 148.965 Q2065.99 142.946 2068.91 139.312 Q2071.82 135.678 2076.59 135.678 Q2079.46 135.678 2081.52 136.812 Q2083.58 137.946 2084.9 140.238 L2084.9 136.303 L2089.16 136.303 L2089.16 159.011 Z" fill="#000000" fill-rule="nonzero" fill-opacity="1" /><path clip-path="url(#clip550)" d="M2120.11 148.201 L2120.11 150.284 L2100.53 150.284 Q2100.8 154.682 2103.17 156.997 Q2105.55 159.289 2109.79 159.289 Q2112.24 159.289 2114.53 158.687 Q2116.85 158.085 2119.11 156.881 L2119.11 160.909 Q2116.82 161.881 2114.42 162.391 Q2112.01 162.9 2109.53 162.9 Q2103.33 162.9 2099.69 159.289 Q2096.08 155.678 2096.08 149.52 Q2096.08 143.155 2099.51 139.428 Q2102.96 135.678 2108.79 135.678 Q2114.02 135.678 2117.05 139.057 Q2120.11 142.414 2120.11 148.201 M2115.85 146.951 Q2115.8 143.456 2113.88 141.372 Q2111.99 139.289 2108.84 139.289 Q2105.27 139.289 2103.12 141.303 Q2100.99 143.317 2100.67 146.974 L2115.85 146.951 Z" fill="#000000" fill-rule="nonzero" fill-opacity="1" /><path clip-path="url(#clip550)" d="M2148.65 146.581 L2148.65 162.229 L2144.39 162.229 L2144.39 146.719 Q2144.39 143.039 2142.96 141.21 Q2141.52 139.382 2138.65 139.382 Q2135.2 139.382 2133.21 141.581 Q2131.22 143.78 2131.22 147.576 L2131.22 162.229 L2126.94 162.229 L2126.94 136.303 L2131.22 136.303 L2131.22 140.331 Q2132.75 137.993 2134.81 136.835 Q2136.89 135.678 2139.6 135.678 Q2144.07 135.678 2146.36 138.456 Q2148.65 141.21 2148.65 146.581 Z" fill="#000000" fill-rule="nonzero" fill-opacity="1" /><path clip-path="url(#clip550)" d="M2176.85 170.099 L2176.85 173.409 L2152.22 173.409 L2152.22 170.099 L2176.85 170.099 Z" fill="#000000" fill-rule="nonzero" fill-opacity="1" /><path clip-path="url(#clip550)" d="M2197.91 140.238 L2197.91 126.21 L2202.17 126.21 L2202.17 162.229 L2197.91 162.229 L2197.91 158.34 Q2196.57 160.655 2194.51 161.789 Q2192.47 162.9 2189.6 162.9 Q2184.9 162.9 2181.94 159.15 Q2179 155.4 2179 149.289 Q2179 143.178 2181.94 139.428 Q2184.9 135.678 2189.6 135.678 Q2192.47 135.678 2194.51 136.812 Q2196.57 137.923 2197.91 140.238 M2183.4 149.289 Q2183.4 153.988 2185.32 156.673 Q2187.26 159.335 2190.64 159.335 Q2194.02 159.335 2195.97 156.673 Q2197.91 153.988 2197.91 149.289 Q2197.91 144.59 2195.97 141.928 Q2194.02 139.243 2190.64 139.243 Q2187.26 139.243 2185.32 141.928 Q2183.4 144.59 2183.4 149.289 Z" fill="#000000" fill-rule="nonzero" fill-opacity="1" /><path clip-path="url(#clip550)" d="M2221.73 164.636 Q2219.92 169.266 2218.21 170.678 Q2216.5 172.09 2213.63 172.09 L2210.23 172.09 L2210.23 168.525 L2212.73 168.525 Q2214.48 168.525 2215.46 167.692 Q2216.43 166.858 2217.61 163.756 L2218.37 161.812 L2207.89 136.303 L2212.4 136.303 L2220.5 156.581 L2228.61 136.303 L2233.12 136.303 L2221.73 164.636 Z" fill="#000000" fill-rule="nonzero" fill-opacity="1" /><path clip-path="url(#clip550)" d="M2260.55 146.581 L2260.55 162.229 L2256.29 162.229 L2256.29 146.719 Q2256.29 143.039 2254.85 141.21 Q2253.42 139.382 2250.55 139.382 Q2247.1 139.382 2245.11 141.581 Q2243.12 143.78 2243.12 147.576 L2243.12 162.229 L2238.84 162.229 L2238.84 136.303 L2243.12 136.303 L2243.12 140.331 Q2244.65 137.993 2246.71 136.835 Q2248.79 135.678 2251.5 135.678 Q2255.97 135.678 2258.26 138.456 Q2260.55 141.21 2260.55 146.581 Z" fill="#000000" fill-rule="nonzero" fill-opacity="1" /><polyline clip-path="url(#clip550)" style="stroke:#e26f46; stroke-linecap:round; stroke-linejoin:round; stroke-width:4; stroke-opacity:1; fill:none" points="1846.25,196.789 1984.56,196.789 "/>
<path clip-path="url(#clip550)" d="M2020.81 214.069 L2007.61 179.509 L2012.5 179.509 L2023.44 208.606 L2034.42 179.509 L2039.28 179.509 L2026.11 214.069 L2020.81 214.069 Z" fill="#000000" fill-rule="nonzero" fill-opacity="1" /><path clip-path="url(#clip550)" d="M2063.84 221.939 L2063.84 225.249 L2039.21 225.249 L2039.21 221.939 L2063.84 221.939 Z" fill="#000000" fill-rule="nonzero" fill-opacity="1" /><path clip-path="url(#clip550)" d="M2084.9 200.805 Q2084.9 196.175 2082.98 193.629 Q2081.08 191.083 2077.63 191.083 Q2074.21 191.083 2072.29 193.629 Q2070.39 196.175 2070.39 200.805 Q2070.39 205.411 2072.29 207.958 Q2074.21 210.504 2077.63 210.504 Q2081.08 210.504 2082.98 207.958 Q2084.9 205.411 2084.9 200.805 M2089.16 210.851 Q2089.16 217.471 2086.22 220.689 Q2083.28 223.93 2077.22 223.93 Q2074.97 223.93 2072.98 223.582 Q2070.99 223.258 2069.12 222.564 L2069.12 218.42 Q2070.99 219.439 2072.82 219.925 Q2074.65 220.411 2076.55 220.411 Q2080.74 220.411 2082.82 218.212 Q2084.9 216.036 2084.9 211.615 L2084.9 209.508 Q2083.58 211.8 2081.52 212.934 Q2079.46 214.069 2076.59 214.069 Q2071.82 214.069 2068.91 210.434 Q2065.99 206.8 2065.99 200.805 Q2065.99 194.786 2068.91 191.152 Q2071.82 187.518 2076.59 187.518 Q2079.46 187.518 2081.52 188.652 Q2083.58 189.786 2084.9 192.078 L2084.9 188.143 L2089.16 188.143 L2089.16 210.851 Z" fill="#000000" fill-rule="nonzero" fill-opacity="1" /><path clip-path="url(#clip550)" d="M2120.11 200.041 L2120.11 202.124 L2100.53 202.124 Q2100.8 206.522 2103.17 208.837 Q2105.55 211.129 2109.79 211.129 Q2112.24 211.129 2114.53 210.527 Q2116.85 209.925 2119.11 208.721 L2119.11 212.749 Q2116.82 213.721 2114.42 214.231 Q2112.01 214.74 2109.53 214.74 Q2103.33 214.74 2099.69 211.129 Q2096.08 207.518 2096.08 201.36 Q2096.08 194.995 2099.51 191.268 Q2102.96 187.518 2108.79 187.518 Q2114.02 187.518 2117.05 190.897 Q2120.11 194.254 2120.11 200.041 M2115.85 198.791 Q2115.8 195.296 2113.88 193.212 Q2111.99 191.129 2108.84 191.129 Q2105.27 191.129 2103.12 193.143 Q2100.99 195.157 2100.67 198.814 L2115.85 198.791 Z" fill="#000000" fill-rule="nonzero" fill-opacity="1" /><path clip-path="url(#clip550)" d="M2148.65 198.421 L2148.65 214.069 L2144.39 214.069 L2144.39 198.559 Q2144.39 194.879 2142.96 193.05 Q2141.52 191.222 2138.65 191.222 Q2135.2 191.222 2133.21 193.421 Q2131.22 195.62 2131.22 199.416 L2131.22 214.069 L2126.94 214.069 L2126.94 188.143 L2131.22 188.143 L2131.22 192.171 Q2132.75 189.833 2134.81 188.675 Q2136.89 187.518 2139.6 187.518 Q2144.07 187.518 2146.36 190.296 Q2148.65 193.05 2148.65 198.421 Z" fill="#000000" fill-rule="nonzero" fill-opacity="1" /><path clip-path="url(#clip550)" d="M2176.85 221.939 L2176.85 225.249 L2152.22 225.249 L2152.22 221.939 L2176.85 221.939 Z" fill="#000000" fill-rule="nonzero" fill-opacity="1" /><path clip-path="url(#clip550)" d="M2197.38 188.907 L2197.38 192.934 Q2195.57 192.009 2193.63 191.546 Q2191.68 191.083 2189.6 191.083 Q2186.43 191.083 2184.83 192.055 Q2183.26 193.027 2183.26 194.971 Q2183.26 196.453 2184.39 197.309 Q2185.53 198.143 2188.95 198.907 L2190.41 199.231 Q2194.95 200.203 2196.85 201.985 Q2198.77 203.745 2198.77 206.916 Q2198.77 210.527 2195.9 212.633 Q2193.05 214.74 2188.05 214.74 Q2185.97 214.74 2183.7 214.323 Q2181.45 213.93 2178.95 213.12 L2178.95 208.721 Q2181.31 209.948 2183.61 210.573 Q2185.9 211.175 2188.14 211.175 Q2191.15 211.175 2192.77 210.157 Q2194.39 209.115 2194.39 207.24 Q2194.39 205.504 2193.21 204.578 Q2192.05 203.652 2188.1 202.796 L2186.61 202.448 Q2182.66 201.615 2180.9 199.902 Q2179.14 198.166 2179.14 195.157 Q2179.14 191.499 2181.73 189.509 Q2184.32 187.518 2189.09 187.518 Q2191.45 187.518 2193.54 187.865 Q2195.62 188.212 2197.38 188.907 Z" fill="#000000" fill-rule="nonzero" fill-opacity="1" /><path clip-path="url(#clip550)" d="M2209.76 180.782 L2209.76 188.143 L2218.54 188.143 L2218.54 191.453 L2209.76 191.453 L2209.76 205.527 Q2209.76 208.698 2210.62 209.601 Q2211.5 210.504 2214.16 210.504 L2218.54 210.504 L2218.54 214.069 L2214.16 214.069 Q2209.23 214.069 2207.36 212.24 Q2205.48 210.388 2205.48 205.527 L2205.48 191.453 L2202.36 191.453 L2202.36 188.143 L2205.48 188.143 L2205.48 180.782 L2209.76 180.782 Z" fill="#000000" fill-rule="nonzero" fill-opacity="1" /></svg>
