<?xml version="1.0" encoding="utf-8"?>
<svg xmlns="http://www.w3.org/2000/svg" xmlns:xlink="http://www.w3.org/1999/xlink" width="600" height="400" viewBox="0 0 2400 1600">
<defs>
  <clipPath id="clip470">
    <rect x="0" y="0" width="2400" height="1600"/>
  </clipPath>
</defs>
<path clip-path="url(#clip470)" d="M0 1600 L2400 1600 L2400 0 L0 0  Z" fill="#ffffff" fill-rule="evenodd" fill-opacity="1"/>
<defs>
  <clipPath id="clip471">
    <rect x="480" y="0" width="1681" height="1600"/>
  </clipPath>
</defs>
<path clip-path="url(#clip470)" d="M278.107 1423.18 L2352.76 1423.18 L2352.76 47.2441 L278.107 47.2441  Z" fill="#ffffff" fill-rule="evenodd" fill-opacity="1"/>
<defs>
  <clipPath id="clip472">
    <rect x="278" y="47" width="2076" height="1377"/>
  </clipPath>
</defs>
<polyline clip-path="url(#clip472)" style="stroke:#000000; stroke-linecap:round; stroke-linejoin:round; stroke-width:2; stroke-opacity:0.1; fill:none" points="336.823,1423.18 336.823,47.2441 "/>
<polyline clip-path="url(#clip472)" style="stroke:#000000; stroke-linecap:round; stroke-linejoin:round; stroke-width:2; stroke-opacity:0.1; fill:none" points="989.229,1423.18 989.229,47.2441 "/>
<polyline clip-path="url(#clip472)" style="stroke:#000000; stroke-linecap:round; stroke-linejoin:round; stroke-width:2; stroke-opacity:0.1; fill:none" points="1641.63,1423.18 1641.63,47.2441 "/>
<polyline clip-path="url(#clip472)" style="stroke:#000000; stroke-linecap:round; stroke-linejoin:round; stroke-width:2; stroke-opacity:0.1; fill:none" points="2294.04,1423.18 2294.04,47.2441 "/>
<polyline clip-path="url(#clip470)" style="stroke:#000000; stroke-linecap:round; stroke-linejoin:round; stroke-width:4; stroke-opacity:1; fill:none" points="278.107,1423.18 2352.76,1423.18 "/>
<polyline clip-path="url(#clip470)" style="stroke:#000000; stroke-linecap:round; stroke-linejoin:round; stroke-width:4; stroke-opacity:1; fill:none" points="336.823,1423.18 336.823,1404.28 "/>
<polyline clip-path="url(#clip470)" style="stroke:#000000; stroke-linecap:round; stroke-linejoin:round; stroke-width:4; stroke-opacity:1; fill:none" points="989.229,1423.18 989.229,1404.28 "/>
<polyline clip-path="url(#clip470)" style="stroke:#000000; stroke-linecap:round; stroke-linejoin:round; stroke-width:4; stroke-opacity:1; fill:none" points="1641.63,1423.18 1641.63,1404.28 "/>
<polyline clip-path="url(#clip470)" style="stroke:#000000; stroke-linecap:round; stroke-linejoin:round; stroke-width:4; stroke-opacity:1; fill:none" points="2294.04,1423.18 2294.04,1404.28 "/>
<path clip-path="url(#clip470)" d="M336.823 1454.1 Q333.212 1454.1 331.383 1457.66 Q329.578 1461.2 329.578 1468.33 Q329.578 1475.44 331.383 1479.01 Q333.212 1482.55 336.823 1482.55 Q340.457 1482.55 342.263 1479.01 Q344.092 1475.44 344.092 1468.33 Q344.092 1461.2 342.263 1457.66 Q340.457 1454.1 336.823 1454.1 M336.823 1450.39 Q342.633 1450.39 345.689 1455 Q348.768 1459.58 348.768 1468.33 Q348.768 1477.06 345.689 1481.67 Q342.633 1486.25 336.823 1486.25 Q331.013 1486.25 327.934 1481.67 Q324.879 1477.06 324.879 1468.33 Q324.879 1459.58 327.934 1455 Q331.013 1450.39 336.823 1450.39 Z" fill="#000000" fill-rule="nonzero" fill-opacity="1" /><path clip-path="url(#clip470)" d="M963.916 1481.64 L971.555 1481.64 L971.555 1455.28 L963.245 1456.95 L963.245 1452.69 L971.509 1451.02 L976.185 1451.02 L976.185 1481.64 L983.824 1481.64 L983.824 1485.58 L963.916 1485.58 L963.916 1481.64 Z" fill="#000000" fill-rule="nonzero" fill-opacity="1" /><path clip-path="url(#clip470)" d="M1003.27 1454.1 Q999.657 1454.1 997.828 1457.66 Q996.023 1461.2 996.023 1468.33 Q996.023 1475.44 997.828 1479.01 Q999.657 1482.55 1003.27 1482.55 Q1006.9 1482.55 1008.71 1479.01 Q1010.54 1475.44 1010.54 1468.33 Q1010.54 1461.2 1008.71 1457.66 Q1006.9 1454.1 1003.27 1454.1 M1003.27 1450.39 Q1009.08 1450.39 1012.13 1455 Q1015.21 1459.58 1015.21 1468.33 Q1015.21 1477.06 1012.13 1481.67 Q1009.08 1486.25 1003.27 1486.25 Q997.458 1486.25 994.379 1481.67 Q991.323 1477.06 991.323 1468.33 Q991.323 1459.58 994.379 1455 Q997.458 1450.39 1003.27 1450.39 Z" fill="#000000" fill-rule="nonzero" fill-opacity="1" /><path clip-path="url(#clip470)" d="M1620.41 1481.64 L1636.73 1481.64 L1636.73 1485.58 L1614.78 1485.58 L1614.78 1481.64 Q1617.44 1478.89 1622.03 1474.26 Q1626.63 1469.61 1627.81 1468.27 Q1630.06 1465.74 1630.94 1464.01 Q1631.84 1462.25 1631.84 1460.56 Q1631.84 1457.8 1629.9 1456.07 Q1627.98 1454.33 1624.87 1454.33 Q1622.68 1454.33 1620.22 1455.09 Q1617.79 1455.86 1615.01 1457.41 L1615.01 1452.69 Q1617.84 1451.55 1620.29 1450.97 Q1622.75 1450.39 1624.78 1450.39 Q1630.15 1450.39 1633.35 1453.08 Q1636.54 1455.77 1636.54 1460.26 Q1636.54 1462.39 1635.73 1464.31 Q1634.94 1466.2 1632.84 1468.8 Q1632.26 1469.47 1629.16 1472.69 Q1626.06 1475.88 1620.41 1481.64 Z" fill="#000000" fill-rule="nonzero" fill-opacity="1" /><path clip-path="url(#clip470)" d="M1656.54 1454.1 Q1652.93 1454.1 1651.1 1457.66 Q1649.3 1461.2 1649.3 1468.33 Q1649.3 1475.44 1651.1 1479.01 Q1652.93 1482.55 1656.54 1482.55 Q1660.18 1482.55 1661.98 1479.01 Q1663.81 1475.44 1663.81 1468.33 Q1663.81 1461.2 1661.98 1457.66 Q1660.18 1454.1 1656.54 1454.1 M1656.54 1450.39 Q1662.35 1450.39 1665.41 1455 Q1668.49 1459.58 1668.49 1468.33 Q1668.49 1477.06 1665.41 1481.67 Q1662.35 1486.25 1656.54 1486.25 Q1650.73 1486.25 1647.65 1481.67 Q1644.6 1477.06 1644.6 1468.33 Q1644.6 1459.58 1647.65 1455 Q1650.73 1450.39 1656.54 1450.39 Z" fill="#000000" fill-rule="nonzero" fill-opacity="1" /><path clip-path="url(#clip470)" d="M2282.88 1466.95 Q2286.24 1467.66 2288.11 1469.93 Q2290.01 1472.2 2290.01 1475.53 Q2290.01 1480.65 2286.49 1483.45 Q2282.97 1486.25 2276.49 1486.25 Q2274.32 1486.25 2272 1485.81 Q2269.71 1485.39 2267.26 1484.54 L2267.26 1480.02 Q2269.2 1481.16 2271.52 1481.74 Q2273.83 1482.32 2276.35 1482.32 Q2280.75 1482.32 2283.04 1480.58 Q2285.36 1478.84 2285.36 1475.53 Q2285.36 1472.48 2283.21 1470.77 Q2281.08 1469.03 2277.26 1469.03 L2273.23 1469.03 L2273.23 1465.19 L2277.44 1465.19 Q2280.89 1465.19 2282.72 1463.82 Q2284.55 1462.43 2284.55 1459.84 Q2284.55 1457.18 2282.65 1455.77 Q2280.78 1454.33 2277.26 1454.33 Q2275.34 1454.33 2273.14 1454.75 Q2270.94 1455.16 2268.3 1456.04 L2268.3 1451.88 Q2270.96 1451.14 2273.28 1450.77 Q2275.61 1450.39 2277.67 1450.39 Q2283 1450.39 2286.1 1452.83 Q2289.2 1455.23 2289.2 1459.35 Q2289.2 1462.22 2287.56 1464.21 Q2285.91 1466.18 2282.88 1466.95 Z" fill="#000000" fill-rule="nonzero" fill-opacity="1" /><path clip-path="url(#clip470)" d="M2308.88 1454.1 Q2305.27 1454.1 2303.44 1457.66 Q2301.63 1461.2 2301.63 1468.33 Q2301.63 1475.44 2303.44 1479.01 Q2305.27 1482.55 2308.88 1482.55 Q2312.51 1482.55 2314.32 1479.01 Q2316.15 1475.44 2316.15 1468.33 Q2316.15 1461.2 2314.32 1457.66 Q2312.51 1454.1 2308.88 1454.1 M2308.88 1450.39 Q2314.69 1450.39 2317.74 1455 Q2320.82 1459.58 2320.82 1468.33 Q2320.82 1477.06 2317.74 1481.67 Q2314.69 1486.25 2308.88 1486.25 Q2303.07 1486.25 2299.99 1481.67 Q2296.93 1477.06 2296.93 1468.33 Q2296.93 1459.58 2299.99 1455 Q2303.07 1450.39 2308.88 1450.39 Z" fill="#000000" fill-rule="nonzero" fill-opacity="1" /><path clip-path="url(#clip470)" d="M1254.59 1522.27 L1254.59 1532.4 L1266.65 1532.4 L1266.65 1536.95 L1254.59 1536.95 L1254.59 1556.3 Q1254.59 1560.66 1255.77 1561.9 Q1256.98 1563.14 1260.64 1563.14 L1266.65 1563.14 L1266.65 1568.04 L1260.64 1568.04 Q1253.86 1568.04 1251.28 1565.53 Q1248.7 1562.98 1248.7 1556.3 L1248.7 1536.95 L1244.41 1536.95 L1244.41 1532.4 L1248.7 1532.4 L1248.7 1522.27 L1254.59 1522.27 Z" fill="#000000" fill-rule="nonzero" fill-opacity="1" /><path clip-path="url(#clip470)" d="M1274.36 1532.4 L1280.21 1532.4 L1280.21 1568.04 L1274.36 1568.04 L1274.36 1532.4 M1274.36 1518.52 L1280.21 1518.52 L1280.21 1525.93 L1274.36 1525.93 L1274.36 1518.52 Z" fill="#000000" fill-rule="nonzero" fill-opacity="1" /><path clip-path="url(#clip470)" d="M1320.22 1539.24 Q1322.42 1535.29 1325.47 1533.41 Q1328.53 1531.54 1332.67 1531.54 Q1338.24 1531.54 1341.26 1535.45 Q1344.28 1539.33 1344.28 1546.53 L1344.28 1568.04 L1338.4 1568.04 L1338.4 1546.72 Q1338.4 1541.59 1336.58 1539.11 Q1334.77 1536.63 1331.04 1536.63 Q1326.49 1536.63 1323.85 1539.65 Q1321.21 1542.68 1321.21 1547.9 L1321.21 1568.04 L1315.32 1568.04 L1315.32 1546.72 Q1315.32 1541.56 1313.51 1539.11 Q1311.69 1536.63 1307.9 1536.63 Q1303.42 1536.63 1300.77 1539.68 Q1298.13 1542.71 1298.13 1547.9 L1298.13 1568.04 L1292.24 1568.04 L1292.24 1532.4 L1298.13 1532.4 L1298.13 1537.93 Q1300.14 1534.66 1302.94 1533.1 Q1305.74 1531.54 1309.59 1531.54 Q1313.47 1531.54 1316.18 1533.51 Q1318.92 1535.48 1320.22 1539.24 Z" fill="#000000" fill-rule="nonzero" fill-opacity="1" /><path clip-path="url(#clip470)" d="M1386.46 1548.76 L1386.46 1551.62 L1359.53 1551.62 Q1359.91 1557.67 1363.16 1560.85 Q1366.44 1564 1372.26 1564 Q1375.63 1564 1378.79 1563.17 Q1381.97 1562.35 1385.09 1560.69 L1385.09 1566.23 Q1381.94 1567.57 1378.63 1568.27 Q1375.32 1568.97 1371.91 1568.97 Q1363.38 1568.97 1358.38 1564 Q1353.42 1559.04 1353.42 1550.57 Q1353.42 1541.82 1358.13 1536.69 Q1362.87 1531.54 1370.89 1531.54 Q1378.09 1531.54 1382.26 1536.18 Q1386.46 1540.8 1386.46 1548.76 M1380.6 1547.04 Q1380.54 1542.23 1377.89 1539.37 Q1375.28 1536.5 1370.96 1536.5 Q1366.05 1536.5 1363.09 1539.27 Q1360.17 1542.04 1359.72 1547.07 L1380.6 1547.04 Z" fill="#000000" fill-rule="nonzero" fill-opacity="1" /><polyline clip-path="url(#clip472)" style="stroke:#000000; stroke-linecap:round; stroke-linejoin:round; stroke-width:2; stroke-opacity:0.1; fill:none" points="278.107,1274.72 2352.76,1274.72 "/>
<polyline clip-path="url(#clip472)" style="stroke:#000000; stroke-linecap:round; stroke-linejoin:round; stroke-width:2; stroke-opacity:0.1; fill:none" points="278.107,977.585 2352.76,977.585 "/>
<polyline clip-path="url(#clip472)" style="stroke:#000000; stroke-linecap:round; stroke-linejoin:round; stroke-width:2; stroke-opacity:0.1; fill:none" points="278.107,680.452 2352.76,680.452 "/>
<polyline clip-path="url(#clip472)" style="stroke:#000000; stroke-linecap:round; stroke-linejoin:round; stroke-width:2; stroke-opacity:0.1; fill:none" points="278.107,383.319 2352.76,383.319 "/>
<polyline clip-path="url(#clip472)" style="stroke:#000000; stroke-linecap:round; stroke-linejoin:round; stroke-width:2; stroke-opacity:0.1; fill:none" points="278.107,86.1857 2352.76,86.1857 "/>
<polyline clip-path="url(#clip470)" style="stroke:#000000; stroke-linecap:round; stroke-linejoin:round; stroke-width:4; stroke-opacity:1; fill:none" points="278.107,1423.18 278.107,47.2441 "/>
<polyline clip-path="url(#clip470)" style="stroke:#000000; stroke-linecap:round; stroke-linejoin:round; stroke-width:4; stroke-opacity:1; fill:none" points="278.107,1274.72 297.004,1274.72 "/>
<polyline clip-path="url(#clip470)" style="stroke:#000000; stroke-linecap:round; stroke-linejoin:round; stroke-width:4; stroke-opacity:1; fill:none" points="278.107,977.585 297.004,977.585 "/>
<polyline clip-path="url(#clip470)" style="stroke:#000000; stroke-linecap:round; stroke-linejoin:round; stroke-width:4; stroke-opacity:1; fill:none" points="278.107,680.452 297.004,680.452 "/>
<polyline clip-path="url(#clip470)" style="stroke:#000000; stroke-linecap:round; stroke-linejoin:round; stroke-width:4; stroke-opacity:1; fill:none" points="278.107,383.319 297.004,383.319 "/>
<polyline clip-path="url(#clip470)" style="stroke:#000000; stroke-linecap:round; stroke-linejoin:round; stroke-width:4; stroke-opacity:1; fill:none" points="278.107,86.1857 297.004,86.1857 "/>
<path clip-path="url(#clip470)" d="M117.015 1288.06 L124.654 1288.06 L124.654 1261.7 L116.343 1263.36 L116.343 1259.1 L124.607 1257.44 L129.283 1257.44 L129.283 1288.06 L136.922 1288.06 L136.922 1292 L117.015 1292 L117.015 1288.06 Z" fill="#000000" fill-rule="nonzero" fill-opacity="1" /><path clip-path="url(#clip470)" d="M146.366 1286.12 L151.251 1286.12 L151.251 1292 L146.366 1292 L146.366 1286.12 Z" fill="#000000" fill-rule="nonzero" fill-opacity="1" /><path clip-path="url(#clip470)" d="M171.436 1260.52 Q167.825 1260.52 165.996 1264.08 Q164.19 1267.62 164.19 1274.75 Q164.19 1281.86 165.996 1285.42 Q167.825 1288.97 171.436 1288.97 Q175.07 1288.97 176.876 1285.42 Q178.704 1281.86 178.704 1274.75 Q178.704 1267.62 176.876 1264.08 Q175.07 1260.52 171.436 1260.52 M171.436 1256.81 Q177.246 1256.81 180.301 1261.42 Q183.38 1266 183.38 1274.75 Q183.38 1283.48 180.301 1288.09 Q177.246 1292.67 171.436 1292.67 Q165.626 1292.67 162.547 1288.09 Q159.491 1283.48 159.491 1274.75 Q159.491 1266 162.547 1261.42 Q165.626 1256.81 171.436 1256.81 Z" fill="#000000" fill-rule="nonzero" fill-opacity="1" /><path clip-path="url(#clip470)" d="M205.764 1273.36 Q209.121 1274.08 210.996 1276.35 Q212.894 1278.62 212.894 1281.95 Q212.894 1287.07 209.375 1289.87 Q205.857 1292.67 199.375 1292.67 Q197.2 1292.67 194.885 1292.23 Q192.593 1291.81 190.139 1290.96 L190.139 1286.44 Q192.084 1287.58 194.399 1288.16 Q196.713 1288.73 199.237 1288.73 Q203.635 1288.73 205.926 1287 Q208.241 1285.26 208.241 1281.95 Q208.241 1278.9 206.088 1277.18 Q203.959 1275.45 200.139 1275.45 L196.112 1275.45 L196.112 1271.6 L200.325 1271.6 Q203.774 1271.6 205.602 1270.24 Q207.431 1268.85 207.431 1266.26 Q207.431 1263.6 205.533 1262.18 Q203.658 1260.75 200.139 1260.75 Q198.218 1260.75 196.019 1261.17 Q193.82 1261.58 191.181 1262.46 L191.181 1258.29 Q193.843 1257.55 196.158 1257.18 Q198.496 1256.81 200.556 1256.81 Q205.88 1256.81 208.982 1259.24 Q212.084 1261.65 212.084 1265.77 Q212.084 1268.64 210.44 1270.63 Q208.797 1272.6 205.764 1273.36 Z" fill="#000000" fill-rule="nonzero" fill-opacity="1" /><path clip-path="url(#clip470)" d="M225.787 1288.06 L242.107 1288.06 L242.107 1292 L220.162 1292 L220.162 1288.06 Q222.824 1285.31 227.408 1280.68 Q232.014 1276.03 233.195 1274.68 Q235.44 1272.16 236.32 1270.42 Q237.222 1268.67 237.222 1266.98 Q237.222 1264.22 235.278 1262.48 Q233.357 1260.75 230.255 1260.75 Q228.056 1260.75 225.602 1261.51 Q223.172 1262.28 220.394 1263.83 L220.394 1259.1 Q223.218 1257.97 225.672 1257.39 Q228.125 1256.81 230.162 1256.81 Q235.533 1256.81 238.727 1259.5 Q241.922 1262.18 241.922 1266.67 Q241.922 1268.8 241.111 1270.73 Q240.324 1272.62 238.218 1275.22 Q237.639 1275.89 234.537 1279.1 Q231.435 1282.3 225.787 1288.06 Z" fill="#000000" fill-rule="nonzero" fill-opacity="1" /><path clip-path="url(#clip470)" d="M114.931 990.93 L122.57 990.93 L122.57 964.564 L114.26 966.231 L114.26 961.972 L122.524 960.305 L127.2 960.305 L127.2 990.93 L134.839 990.93 L134.839 994.865 L114.931 994.865 L114.931 990.93 Z" fill="#000000" fill-rule="nonzero" fill-opacity="1" /><path clip-path="url(#clip470)" d="M144.283 988.986 L149.167 988.986 L149.167 994.865 L144.283 994.865 L144.283 988.986 Z" fill="#000000" fill-rule="nonzero" fill-opacity="1" /><path clip-path="url(#clip470)" d="M169.352 963.384 Q165.741 963.384 163.913 966.949 Q162.107 970.49 162.107 977.62 Q162.107 984.726 163.913 988.291 Q165.741 991.833 169.352 991.833 Q172.987 991.833 174.792 988.291 Q176.621 984.726 176.621 977.62 Q176.621 970.49 174.792 966.949 Q172.987 963.384 169.352 963.384 M169.352 959.68 Q175.163 959.68 178.218 964.287 Q181.297 968.87 181.297 977.62 Q181.297 986.347 178.218 990.953 Q175.163 995.536 169.352 995.536 Q163.542 995.536 160.464 990.953 Q157.408 986.347 157.408 977.62 Q157.408 968.87 160.464 964.287 Q163.542 959.68 169.352 959.68 Z" fill="#000000" fill-rule="nonzero" fill-opacity="1" /><path clip-path="url(#clip470)" d="M203.681 976.231 Q207.037 976.949 208.912 979.217 Q210.811 981.486 210.811 984.819 Q210.811 989.935 207.292 992.736 Q203.774 995.536 197.292 995.536 Q195.116 995.536 192.801 995.097 Q190.51 994.68 188.056 993.823 L188.056 989.31 Q190 990.444 192.315 991.023 Q194.63 991.601 197.153 991.601 Q201.551 991.601 203.843 989.865 Q206.158 988.129 206.158 984.819 Q206.158 981.763 204.005 980.05 Q201.875 978.314 198.056 978.314 L194.028 978.314 L194.028 974.472 L198.241 974.472 Q201.69 974.472 203.519 973.106 Q205.348 971.717 205.348 969.125 Q205.348 966.463 203.449 965.05 Q201.575 963.615 198.056 963.615 Q196.135 963.615 193.936 964.032 Q191.737 964.449 189.098 965.328 L189.098 961.162 Q191.76 960.421 194.075 960.051 Q196.412 959.68 198.473 959.68 Q203.797 959.68 206.899 962.111 Q210 964.518 210 968.638 Q210 971.509 208.357 973.5 Q206.713 975.467 203.681 976.231 Z" fill="#000000" fill-rule="nonzero" fill-opacity="1" /><path clip-path="url(#clip470)" d="M232.523 964.379 L220.718 982.828 L232.523 982.828 L232.523 964.379 M231.297 960.305 L237.176 960.305 L237.176 982.828 L242.107 982.828 L242.107 986.717 L237.176 986.717 L237.176 994.865 L232.523 994.865 L232.523 986.717 L216.922 986.717 L216.922 982.203 L231.297 960.305 Z" fill="#000000" fill-rule="nonzero" fill-opacity="1" /><path clip-path="url(#clip470)" d="M115.256 693.797 L122.894 693.797 L122.894 667.431 L114.584 669.098 L114.584 664.839 L122.848 663.172 L127.524 663.172 L127.524 693.797 L135.163 693.797 L135.163 697.732 L115.256 697.732 L115.256 693.797 Z" fill="#000000" fill-rule="nonzero" fill-opacity="1" /><path clip-path="url(#clip470)" d="M144.607 691.852 L149.491 691.852 L149.491 697.732 L144.607 697.732 L144.607 691.852 Z" fill="#000000" fill-rule="nonzero" fill-opacity="1" /><path clip-path="url(#clip470)" d="M169.677 666.251 Q166.065 666.251 164.237 669.815 Q162.431 673.357 162.431 680.487 Q162.431 687.593 164.237 691.158 Q166.065 694.7 169.677 694.7 Q173.311 694.7 175.116 691.158 Q176.945 687.593 176.945 680.487 Q176.945 673.357 175.116 669.815 Q173.311 666.251 169.677 666.251 M169.677 662.547 Q175.487 662.547 178.542 667.153 Q181.621 671.737 181.621 680.487 Q181.621 689.214 178.542 693.82 Q175.487 698.403 169.677 698.403 Q163.866 698.403 160.788 693.82 Q157.732 689.214 157.732 680.487 Q157.732 671.737 160.788 667.153 Q163.866 662.547 169.677 662.547 Z" fill="#000000" fill-rule="nonzero" fill-opacity="1" /><path clip-path="url(#clip470)" d="M204.005 679.098 Q207.362 679.815 209.237 682.084 Q211.135 684.352 211.135 687.686 Q211.135 692.801 207.616 695.602 Q204.098 698.403 197.616 698.403 Q195.44 698.403 193.125 697.963 Q190.834 697.547 188.38 696.69 L188.38 692.176 Q190.325 693.311 192.639 693.889 Q194.954 694.468 197.477 694.468 Q201.875 694.468 204.167 692.732 Q206.482 690.996 206.482 687.686 Q206.482 684.63 204.329 682.917 Q202.2 681.181 198.38 681.181 L194.352 681.181 L194.352 677.339 L198.565 677.339 Q202.014 677.339 203.843 675.973 Q205.672 674.584 205.672 671.991 Q205.672 669.329 203.774 667.917 Q201.899 666.482 198.38 666.482 Q196.459 666.482 194.26 666.899 Q192.061 667.315 189.422 668.195 L189.422 664.028 Q192.084 663.288 194.399 662.917 Q196.737 662.547 198.797 662.547 Q204.121 662.547 207.223 664.978 Q210.324 667.385 210.324 671.505 Q210.324 674.376 208.681 676.366 Q207.037 678.334 204.005 679.098 Z" fill="#000000" fill-rule="nonzero" fill-opacity="1" /><path clip-path="url(#clip470)" d="M230.579 678.589 Q227.431 678.589 225.579 680.741 Q223.75 682.894 223.75 686.644 Q223.75 690.371 225.579 692.547 Q227.431 694.7 230.579 694.7 Q233.727 694.7 235.556 692.547 Q237.408 690.371 237.408 686.644 Q237.408 682.894 235.556 680.741 Q233.727 678.589 230.579 678.589 M239.861 663.936 L239.861 668.195 Q238.102 667.362 236.297 666.922 Q234.514 666.482 232.755 666.482 Q228.125 666.482 225.672 669.607 Q223.241 672.732 222.894 679.052 Q224.26 677.038 226.32 675.973 Q228.38 674.885 230.857 674.885 Q236.065 674.885 239.074 678.056 Q242.107 681.204 242.107 686.644 Q242.107 691.968 238.959 695.186 Q235.81 698.403 230.579 698.403 Q224.584 698.403 221.412 693.82 Q218.241 689.214 218.241 680.487 Q218.241 672.292 222.13 667.431 Q226.019 662.547 232.57 662.547 Q234.329 662.547 236.111 662.894 Q237.917 663.241 239.861 663.936 Z" fill="#000000" fill-rule="nonzero" fill-opacity="1" /><path clip-path="url(#clip470)" d="M115.51 396.664 L123.149 396.664 L123.149 370.298 L114.839 371.965 L114.839 367.705 L123.103 366.039 L127.779 366.039 L127.779 396.664 L135.417 396.664 L135.417 400.599 L115.51 400.599 L115.51 396.664 Z" fill="#000000" fill-rule="nonzero" fill-opacity="1" /><path clip-path="url(#clip470)" d="M144.862 394.719 L149.746 394.719 L149.746 400.599 L144.862 400.599 L144.862 394.719 Z" fill="#000000" fill-rule="nonzero" fill-opacity="1" /><path clip-path="url(#clip470)" d="M169.931 369.118 Q166.32 369.118 164.491 372.682 Q162.686 376.224 162.686 383.354 Q162.686 390.46 164.491 394.025 Q166.32 397.566 169.931 397.566 Q173.565 397.566 175.371 394.025 Q177.2 390.46 177.2 383.354 Q177.2 376.224 175.371 372.682 Q173.565 369.118 169.931 369.118 M169.931 365.414 Q175.741 365.414 178.797 370.02 Q181.876 374.604 181.876 383.354 Q181.876 392.08 178.797 396.687 Q175.741 401.27 169.931 401.27 Q164.121 401.27 161.042 396.687 Q157.987 392.08 157.987 383.354 Q157.987 374.604 161.042 370.02 Q164.121 365.414 169.931 365.414 Z" fill="#000000" fill-rule="nonzero" fill-opacity="1" /><path clip-path="url(#clip470)" d="M204.26 381.965 Q207.616 382.682 209.491 384.951 Q211.389 387.219 211.389 390.553 Q211.389 395.668 207.871 398.469 Q204.352 401.27 197.871 401.27 Q195.695 401.27 193.38 400.83 Q191.088 400.414 188.635 399.557 L188.635 395.043 Q190.579 396.178 192.894 396.756 Q195.209 397.335 197.732 397.335 Q202.13 397.335 204.422 395.599 Q206.737 393.863 206.737 390.553 Q206.737 387.497 204.584 385.784 Q202.454 384.048 198.635 384.048 L194.607 384.048 L194.607 380.205 L198.82 380.205 Q202.269 380.205 204.098 378.84 Q205.926 377.451 205.926 374.858 Q205.926 372.196 204.028 370.784 Q202.153 369.349 198.635 369.349 Q196.713 369.349 194.514 369.766 Q192.315 370.182 189.676 371.062 L189.676 366.895 Q192.338 366.155 194.653 365.784 Q196.991 365.414 199.051 365.414 Q204.375 365.414 207.477 367.844 Q210.579 370.252 210.579 374.372 Q210.579 377.242 208.936 379.233 Q207.292 381.201 204.26 381.965 Z" fill="#000000" fill-rule="nonzero" fill-opacity="1" /><path clip-path="url(#clip470)" d="M230.255 384.187 Q226.922 384.187 225 385.969 Q223.102 387.752 223.102 390.877 Q223.102 394.002 225 395.784 Q226.922 397.566 230.255 397.566 Q233.588 397.566 235.51 395.784 Q237.431 393.978 237.431 390.877 Q237.431 387.752 235.51 385.969 Q233.611 384.187 230.255 384.187 M225.579 382.196 Q222.57 381.455 220.88 379.395 Q219.213 377.335 219.213 374.372 Q219.213 370.229 222.153 367.821 Q225.116 365.414 230.255 365.414 Q235.417 365.414 238.357 367.821 Q241.297 370.229 241.297 374.372 Q241.297 377.335 239.607 379.395 Q237.94 381.455 234.954 382.196 Q238.334 382.983 240.209 385.275 Q242.107 387.566 242.107 390.877 Q242.107 395.9 239.028 398.585 Q235.972 401.27 230.255 401.27 Q224.537 401.27 221.459 398.585 Q218.403 395.9 218.403 390.877 Q218.403 387.566 220.301 385.275 Q222.199 382.983 225.579 382.196 M223.866 374.812 Q223.866 377.497 225.533 379.002 Q227.223 380.506 230.255 380.506 Q233.264 380.506 234.954 379.002 Q236.667 377.497 236.667 374.812 Q236.667 372.127 234.954 370.622 Q233.264 369.118 230.255 369.118 Q227.223 369.118 225.533 370.622 Q223.866 372.127 223.866 374.812 Z" fill="#000000" fill-rule="nonzero" fill-opacity="1" /><path clip-path="url(#clip470)" d="M115.418 99.5305 L123.056 99.5305 L123.056 73.1649 L114.746 74.8316 L114.746 70.5723 L123.01 68.9057 L127.686 68.9057 L127.686 99.5305 L135.325 99.5305 L135.325 103.466 L115.418 103.466 L115.418 99.5305 Z" fill="#000000" fill-rule="nonzero" fill-opacity="1" /><path clip-path="url(#clip470)" d="M144.769 97.5861 L149.653 97.5861 L149.653 103.466 L144.769 103.466 L144.769 97.5861 Z" fill="#000000" fill-rule="nonzero" fill-opacity="1" /><path clip-path="url(#clip470)" d="M169.839 71.9844 Q166.227 71.9844 164.399 75.5492 Q162.593 79.0908 162.593 86.2204 Q162.593 93.3268 164.399 96.8916 Q166.227 100.433 169.839 100.433 Q173.473 100.433 175.278 96.8916 Q177.107 93.3268 177.107 86.2204 Q177.107 79.0908 175.278 75.5492 Q173.473 71.9844 169.839 71.9844 M169.839 68.2807 Q175.649 68.2807 178.704 72.8871 Q181.783 77.4704 181.783 86.2204 Q181.783 94.9472 178.704 99.5537 Q175.649 104.137 169.839 104.137 Q164.028 104.137 160.95 99.5537 Q157.894 94.9472 157.894 86.2204 Q157.894 77.4704 160.95 72.8871 Q164.028 68.2807 169.839 68.2807 Z" fill="#000000" fill-rule="nonzero" fill-opacity="1" /><path clip-path="url(#clip470)" d="M202.848 72.9797 L191.042 91.4287 L202.848 91.4287 L202.848 72.9797 M201.621 68.9057 L207.5 68.9057 L207.5 91.4287 L212.431 91.4287 L212.431 95.3176 L207.5 95.3176 L207.5 103.466 L202.848 103.466 L202.848 95.3176 L187.246 95.3176 L187.246 90.8037 L201.621 68.9057 Z" fill="#000000" fill-rule="nonzero" fill-opacity="1" /><path clip-path="url(#clip470)" d="M230.162 71.9844 Q226.551 71.9844 224.723 75.5492 Q222.917 79.0908 222.917 86.2204 Q222.917 93.3268 224.723 96.8916 Q226.551 100.433 230.162 100.433 Q233.797 100.433 235.602 96.8916 Q237.431 93.3268 237.431 86.2204 Q237.431 79.0908 235.602 75.5492 Q233.797 71.9844 230.162 71.9844 M230.162 68.2807 Q235.972 68.2807 239.028 72.8871 Q242.107 77.4704 242.107 86.2204 Q242.107 94.9472 239.028 99.5537 Q235.972 104.137 230.162 104.137 Q224.352 104.137 221.273 99.5537 Q218.218 94.9472 218.218 86.2204 Q218.218 77.4704 221.273 72.8871 Q224.352 68.2807 230.162 68.2807 Z" fill="#000000" fill-rule="nonzero" fill-opacity="1" /><path clip-path="url(#clip470)" d="M64.0042 913.404 L16.4842 931.546 L16.4842 924.83 L56.4926 909.776 L16.4842 894.689 L16.4842 888.005 L64.0042 906.115 L64.0042 913.404 Z" fill="#000000" fill-rule="nonzero" fill-opacity="1" /><path clip-path="url(#clip470)" d="M32.4621 872.568 Q32.4621 877.279 36.1542 880.016 Q39.8145 882.753 46.212 882.753 Q52.6095 882.753 56.3017 880.048 Q59.9619 877.31 59.9619 872.568 Q59.9619 867.889 56.2698 865.152 Q52.5777 862.415 46.212 862.415 Q39.8781 862.415 36.186 865.152 Q32.4621 867.889 32.4621 872.568 M27.4968 872.568 Q27.4968 864.929 32.4621 860.569 Q37.4273 856.208 46.212 856.208 Q54.9649 856.208 59.9619 860.569 Q64.9272 864.929 64.9272 872.568 Q64.9272 880.239 59.9619 884.599 Q54.9649 888.928 46.212 888.928 Q37.4273 888.928 32.4621 884.599 Q27.4968 880.239 27.4968 872.568 Z" fill="#000000" fill-rule="nonzero" fill-opacity="1" /><path clip-path="url(#clip470)" d="M14.479 846.5 L14.479 840.644 L64.0042 840.644 L64.0042 846.5 L14.479 846.5 Z" fill="#000000" fill-rule="nonzero" fill-opacity="1" /><path clip-path="url(#clip470)" d="M18.2347 822.597 L28.3562 822.597 L28.3562 810.534 L32.9077 810.534 L32.9077 822.597 L52.2594 822.597 Q56.6199 822.597 57.8613 821.42 Q59.1026 820.21 59.1026 816.55 L59.1026 810.534 L64.0042 810.534 L64.0042 816.55 Q64.0042 823.329 61.4897 825.907 Q58.9434 828.485 52.2594 828.485 L32.9077 828.485 L32.9077 832.782 L28.3562 832.782 L28.3562 828.485 L18.2347 828.485 L18.2347 822.597 Z" fill="#000000" fill-rule="nonzero" fill-opacity="1" /><path clip-path="url(#clip470)" d="M46.0847 786.631 Q46.0847 793.729 47.7079 796.466 Q49.3312 799.203 53.2461 799.203 Q56.3653 799.203 58.2114 797.166 Q60.0256 795.097 60.0256 791.564 Q60.0256 786.695 56.5881 783.766 Q53.1188 780.806 47.3897 780.806 L46.0847 780.806 L46.0847 786.631 M43.6657 774.95 L64.0042 774.95 L64.0042 780.806 L58.5933 780.806 Q61.8398 782.812 63.3994 785.803 Q64.9272 788.795 64.9272 793.124 Q64.9272 798.598 61.8716 801.845 Q58.7843 805.06 53.6281 805.06 Q47.6125 805.06 44.5569 801.049 Q41.5014 797.007 41.5014 789.018 L41.5014 780.806 L40.9285 780.806 Q36.8862 780.806 34.6901 783.48 Q32.4621 786.122 32.4621 790.928 Q32.4621 793.983 33.1941 796.88 Q33.9262 799.776 35.3903 802.45 L29.9795 802.45 Q28.7381 799.235 28.1334 796.211 Q27.4968 793.188 27.4968 790.323 Q27.4968 782.589 31.5072 778.769 Q35.5176 774.95 43.6657 774.95 Z" fill="#000000" fill-rule="nonzero" fill-opacity="1" /><path clip-path="url(#clip470)" d="M45.7664 739.429 Q39.4007 739.429 35.8996 742.071 Q32.3984 744.681 32.3984 749.423 Q32.3984 754.134 35.8996 756.776 Q39.4007 759.386 45.7664 759.386 Q52.1003 759.386 55.6014 756.776 Q59.1026 754.134 59.1026 749.423 Q59.1026 744.681 55.6014 742.071 Q52.1003 739.429 45.7664 739.429 M59.58 733.573 Q68.683 733.573 73.1071 737.615 Q77.5631 741.657 77.5631 749.996 Q77.5631 753.084 77.0857 755.821 Q76.6401 758.558 75.6852 761.136 L69.9879 761.136 Q71.3884 758.558 72.0568 756.044 Q72.7252 753.529 72.7252 750.919 Q72.7252 745.158 69.7015 742.294 Q66.7096 739.429 60.6303 739.429 L57.7339 739.429 Q60.885 741.243 62.4446 744.076 Q64.0042 746.909 64.0042 750.856 Q64.0042 757.412 59.0071 761.423 Q54.01 765.433 45.7664 765.433 Q37.491 765.433 32.4939 761.423 Q27.4968 757.412 27.4968 750.856 Q27.4968 746.909 29.0564 744.076 Q30.616 741.243 33.7671 739.429 L28.3562 739.429 L28.3562 733.573 L59.58 733.573 Z" fill="#000000" fill-rule="nonzero" fill-opacity="1" /><path clip-path="url(#clip470)" d="M44.7161 691.018 L47.5806 691.018 L47.5806 717.945 Q53.6281 717.563 56.8109 714.317 Q59.9619 711.038 59.9619 705.214 Q59.9619 701.84 59.1344 698.689 Q58.3069 695.506 56.6518 692.387 L62.1899 692.387 Q63.5267 695.538 64.227 698.848 Q64.9272 702.158 64.9272 705.564 Q64.9272 714.094 59.9619 719.091 Q54.9967 724.056 46.5303 724.056 Q37.7774 724.056 32.6531 719.345 Q27.4968 714.603 27.4968 706.582 Q27.4968 699.389 32.1438 695.219 Q36.7589 691.018 44.7161 691.018 M42.9973 696.875 Q38.1912 696.938 35.3266 699.58 Q32.4621 702.19 32.4621 706.519 Q32.4621 711.42 35.2312 714.38 Q38.0002 717.308 43.0292 717.754 L42.9973 696.875 Z" fill="#000000" fill-rule="nonzero" fill-opacity="1" /><path clip-path="url(#clip470)" d="M14.479 661.227 L14.479 647.731 L19.0304 647.731 L19.0304 655.37 L68.0464 655.37 L68.0464 647.731 L72.5979 647.731 L72.5979 661.227 L14.479 661.227 Z" fill="#000000" fill-rule="nonzero" fill-opacity="1" /><path clip-path="url(#clip470)" d="M58.657 629.589 L77.5631 629.589 L77.5631 635.477 L28.3562 635.477 L28.3562 629.589 L33.7671 629.589 Q30.5842 627.743 29.0564 624.942 Q27.4968 622.109 27.4968 618.194 Q27.4968 611.701 32.6531 607.659 Q37.8093 603.585 46.212 603.585 Q54.6147 603.585 59.771 607.659 Q64.9272 611.701 64.9272 618.194 Q64.9272 622.109 63.3994 624.942 Q61.8398 627.743 58.657 629.589 M46.212 609.664 Q39.7508 609.664 36.0905 612.338 Q32.3984 614.98 32.3984 619.627 Q32.3984 624.274 36.0905 626.947 Q39.7508 629.589 46.212 629.589 Q52.6732 629.589 56.3653 626.947 Q60.0256 624.274 60.0256 619.627 Q60.0256 614.98 56.3653 612.338 Q52.6732 609.664 46.212 609.664 Z" fill="#000000" fill-rule="nonzero" fill-opacity="1" /><path clip-path="url(#clip470)" d="M49.9359 594.482 L28.3562 594.482 L28.3562 588.626 L49.7131 588.626 Q54.7739 588.626 57.3202 586.652 Q59.8346 584.679 59.8346 580.732 Q59.8346 575.99 56.8109 573.252 Q53.7872 570.483 48.5673 570.483 L28.3562 570.483 L28.3562 564.627 L64.0042 564.627 L64.0042 570.483 L58.5296 570.483 Q61.7762 572.616 63.3676 575.449 Q64.9272 578.25 64.9272 581.973 Q64.9272 588.116 61.1078 591.299 Q57.2883 594.482 49.9359 594.482 M27.4968 579.745 L27.4968 579.745 Z" fill="#000000" fill-rule="nonzero" fill-opacity="1" /><path clip-path="url(#clip470)" d="M14.479 538.878 L72.5979 538.878 L72.5979 552.373 L68.0464 552.373 L68.0464 544.766 L19.0304 544.766 L19.0304 552.373 L14.479 552.373 L14.479 538.878 Z" fill="#000000" fill-rule="nonzero" fill-opacity="1" /><polyline clip-path="url(#clip472)" style="stroke:#009af9; stroke-linecap:round; stroke-linejoin:round; stroke-width:4; stroke-opacity:1; fill:none" points="336.823,86.1857 336.888,86.1857 336.954,86.1857 337.084,86.1857 337.345,86.1857 337.867,86.1857 338.911,86.1857 340.216,86.1857 341.521,86.1857 342.825,86.1857 344.13,86.1857 345.435,86.1857 346.74,86.1857 348.045,86.1857 349.349,86.1857 350.654,86.1857 351.959,86.1857 353.264,86.1857 354.569,86.1857 355.873,86.1857 357.178,86.1857 358.483,86.1857 359.788,86.1857 361.093,86.1857 362.397,86.1857 363.702,86.1857 365.007,86.1857 366.312,86.1857 367.617,86.1857 368.922,86.1857 370.226,86.1857 371.531,86.1857 372.836,86.1857 374.141,86.1857 375.446,86.1857 376.75,86.1857 378.055,86.1857 379.36,86.1857 380.665,86.1857 381.97,86.1857 383.274,86.1857 384.579,86.1857 385.884,86.1857 387.189,86.1857 388.494,86.1857 389.799,86.1857 391.103,86.1857 392.408,86.1857 393.713,86.1857 395.018,86.1857 396.323,86.1857 397.627,86.1857 398.932,86.1857 400.237,86.1857 401.542,86.1857 402.064,86.1857 402.604,1147.15 403.145,1149.52 403.686,1153.03 404.768,1162.67 405.849,1176.2 406.931,1193.63 408.235,1218.74 409.54,1248 410.845,1278.46 412.15,1307.76 413.324,1331.53 414.266,1348.34 415.114,1361.2 415.877,1370.54 416.563,1377.05 417.25,1381.5 417.937,1383.9 419.241,1384.24 420.546,1378 421.851,1365.24 423.156,1346.96 424.461,1324.48 425.765,1299.26 427.07,1273.05 428.375,1247.02 429.68,1223.19 430.985,1202.62 432.29,1186.37 433.594,1175.27 434.899,1169.88 436.204,1170.23 437.509,1176.3 438.814,1187.96 440.118,1204.51 441.423,1225.02 442.728,1248.65 444.033,1274.1 445.338,1299.33 446.642,1323.08 447.947,1344.54 449.252,1360.97 450.557,1370.37 451.862,1375.22 453.166,1374.7 454.471,1362.7 455.776,1345.48 457.081,1329.34 458.386,1307.82 459.691,1279.98 460.995,1256.75 462.3,1236.94 463.605,1213.29 464.91,1197.31 466.215,1185.69 467.519,1177.98 468.824,1176.25 470.129,1180.08 471.434,1188.98 472.739,1202.68 474.043,1220.7 475.348,1241.78 476.653,1264.72 477.958,1288.55 479.263,1311.48 480.568,1331.72 481.872,1348.72 483.177,1361.22 484.482,1366.55 485.787,1365.7 487.092,1361.56 488.396,1349.77 489.701,1328.71 491.006,1311.66 492.311,1293.18 493.616,1264.91 494.92,1241.66 496.225,1228.1 497.53,1208.67 498.835,1190.05 500.14,1186.35 501.444,1183.85 502.749,1183.89 504.054,1190.85 505.359,1202.37 506.664,1217.42 507.969,1236.12 509.273,1257.33 510.578,1279 511.883,1300.49 513.188,1320.92 514.493,1337.74 515.797,1350.51 517.102,1358.37 518.407,1360.51 519.712,1356.9 521.017,1347.81 522.321,1333.91 523.626,1316.21 524.931,1296.03 526.236,1274.74 527.541,1253.62 528.846,1234.02 530.15,1217.04 531.455,1203.48 532.76,1194.02 534.065,1189.21 535.37,1189.04 536.674,1193.36 537.979,1202.44 539.284,1215.77 540.589,1231.63 541.894,1250.01 543.198,1271.37 544.503,1291.68 545.808,1308.39 547.113,1327.03 548.418,1342.49 549.722,1348.36 551.027,1351.63 552.332,1353.84 553.637,1345.2 554.942,1333.36 556.247,1319.2 557.551,1301.23 558.856,1281.63 560.161,1262.06 561.466,1243.2 562.771,1226.17 564.075,1212.39 565.38,1202.19 566.685,1195.72 567.99,1193.88 569.295,1196.64 570.599,1203.17 571.904,1213.93 573.209,1229.05 574.514,1245.37 575.819,1262.12 577.124,1283.09 578.428,1303.46 579.733,1317.37 581.038,1329.84 582.343,1342.55 583.648,1347.08 584.952,1344.68 586.257,1342.46 587.562,1334.12 588.867,1320.66 590.172,1305.17 591.476,1287.77 592.781,1269.25 594.086,1251.3 595.391,1234.98 596.696,1220.74 598,1209.66 599.305,1202.65 600.61,1199.42 601.915,1200.18 603.22,1205.51 604.525,1214.32 605.829,1225.51 607.134,1240.7 608.439,1258.93 609.744,1275.11 611.049,1291.27 612.353,1309.37 613.658,1323.25 614.963,1331.47 616.268,1339.2 617.573,1343.15 618.877,1338.33 620.182,1330.88 621.487,1321.7 622.792,1308.21 624.097,1292.17 625.402,1275.46 626.706,1258.61 628.011,1242.62 629.316,1228.64 630.621,1217.35 631.926,1209.16 633.23,1204.74 634.535,1204.28 635.84,1207.5 637.145,1214.36 638.45,1224.69 639.754,1237.69 641.059,1252.42 642.364,1268.7 643.669,1285.44 644.974,1300.3 646.278,1313.44 647.583,1325.06 648.888,1332.77 650.193,1335.53 651.498,1335.09 652.803,1330.95 654.107,1321.67 655.412,1309.57 656.717,1296.26 658.022,1280.29 659.327,1263.49 660.631,1249.77 661.936,1236.96 663.241,1223.83 664.546,1215.41 665.851,1211.84 667.155,1208.78 668.46,1209.28 669.765,1216.26 671.07,1224.36 672.375,1233.95 673.68,1248.98 674.984,1264.74 676.289,1277.48 677.594,1292.34 678.899,1307 680.204,1317.46 681.508,1324.84 682.813,1330.61 684.118,1331.38 685.423,1326.81 686.728,1320.79 688.032,1312.09 689.337,1298.33 690.642,1284.02 691.947,1270.72 693.252,1256.03 694.556,1241.86 695.861,1231.64 697.166,1223.14 698.471,1215.51 699.776,1213.02 701.081,1214.22 702.385,1217.63 703.69,1224.25 704.995,1234.41 706.3,1245.97 707.605,1258.53 708.909,1272.98 710.214,1287.21 711.519,1299.55 712.824,1310.51 714.129,1319.15 715.433,1324.53 716.738,1326.5 718.043,1324.91 719.348,1319.83 720.653,1311.65 721.958,1301.02 723.262,1288.59 724.567,1275.16 725.872,1261.7 727.177,1248.93 728.482,1237.5 729.786,1228.36 731.091,1221.91 732.396,1217.82 733.701,1216.92 735.006,1220.13 736.31,1225.37 737.615,1231.79 738.92,1243.33 740.225,1257.53 741.53,1267.78 742.834,1279.05 744.139,1294.51 745.444,1305.1 746.749,1310.45 748.054,1318.8 749.359,1324.26 750.663,1321.47 751.968,1317.54 753.273,1311.78 754.578,1302.54 755.883,1291.46 757.187,1279.47 758.492,1266.86 759.797,1254.52 761.102,1243.58 762.407,1234.28 763.711,1226.91 765.016,1222.49 766.321,1221.16 767.626,1221.77 768.931,1225.33 770.236,1233.42 771.54,1242.1 772.845,1249.59 774.15,1263.43 775.455,1278.01 776.76,1286.02 778.064,1296.03 779.369,1309.37 780.674,1314.11 781.979,1314.11 783.284,1318.12 784.588,1316.64 785.893,1310.58 787.198,1303.33 788.503,1294.03 789.808,1282.87 791.112,1271.3 792.417,1259.98 793.722,1248.97 795.027,1239.42 796.332,1232.28 797.637,1227.12 798.941,1224.35 800.246,1224.97 801.551,1227.76 802.856,1231.76 804.161,1239.92 805.465,1251.31 806.77,1259.89 808.075,1269.4 809.38,1283.19 810.685,1293.58 811.989,1299.43 813.294,1308.08 814.599,1315.03 815.904,1314.63 817.209,1313.23 818.514,1310.2 819.818,1303.81 821.123,1295.43 822.428,1285.8 823.733,1275.14 825.038,1264.18 826.342,1253.98 827.647,1244.81 828.952,1236.95 830.257,1231.44 831.562,1228.51 832.866,1227.17 834.171,1228.42 835.476,1233.92 836.781,1240.15 838.086,1245.34 839.39,1256.8 840.695,1269.42 842,1276.29 843.305,1285.52 844.61,1298.55 845.915,1304.01 847.219,1305.38 848.524,1311.02 849.829,1311.72 851.134,1308.2 852.439,1303.55 853.743,1296.8 855.048,1287.99 856.353,1278.38 857.658,1268.53 858.963,1258.46 860.267,1249.26 861.572,1241.86 862.877,1235.88 864.182,1231.81 865.487,1230.67 866.792,1231.41 868.096,1233.2 869.401,1238.96 870.706,1247.92 872.011,1254.45 873.316,1262.18 874.62,1274.41 875.925,1283.91 877.23,1289.59 878.535,1298.46 879.84,1306.23 881.144,1307.39 882.449,1307.93 883.754,1307.1 885.059,1303.12 886.364,1297.15 887.668,1289.79 888.973,1281.09 890.278,1271.69 891.583,1262.55 892.888,1253.9 894.193,1246.02 895.497,1239.94 896.802,1235.94 898.107,1233.14 899.412,1232.59 900.717,1235.97 902.021,1240.03 903.326,1243.15 904.631,1252.45 905.936,1263.14 907.241,1269.77 908.545,1278.24 909.85,1287.25 911.155,1294.32 912.46,1299.93 913.765,1303.92 915.07,1305.58 916.374,1305.02 917.679,1302.35 918.984,1297.49 920.289,1290.93 921.594,1283.33 922.898,1274.91 924.203,1266.13 925.508,1257.9 926.813,1250.47 928.118,1243.96 929.422,1239.15 930.727,1236.49 932.032,1235.56 933.337,1236.51 934.642,1239.82 935.946,1244.84 937.251,1251 938.556,1258.62 939.861,1267.1 941.166,1274.76 942.471,1282.33 943.775,1290.14 945.08,1296.18 946.385,1299.79 947.69,1302.38 948.995,1303.17 950.299,1300.67 951.604,1296.65 952.909,1291.8 954.214,1284.89 955.519,1276.81 956.823,1269.39 958.128,1261.76 959.433,1253.7 960.738,1247.56 962.043,1243 963.348,1239.55 964.652,1237.95 965.957,1238.68 967.262,1240.89 968.567,1244.51 969.872,1250.21 971.176,1257.05 972.481,1264.09 973.786,1271.84 975.091,1279.69 976.396,1286.29 977.7,1291.95 979.005,1296.87 980.31,1299.58 981.615,1300.2 982.92,1299.27 984.224,1296.52 985.529,1291.76 986.834,1285.89 988.139,1279.36 989.444,1271.9 990.749,1264.28 992.053,1257.48 993.358,1251.28 994.663,1246.19 995.968,1242.58 997.273,1240.57 998.577,1240.28 999.882,1241.8 1001.19,1244.97 1002.49,1249.54 1003.8,1255.34 1005.1,1262.03 1006.41,1269.06 1007.71,1276.19 1009.02,1283.03 1010.32,1288.71 1011.63,1293.07 1012.93,1296.71 1014.24,1298.38 1015.54,1296.9 1016.84,1295.19 1018.15,1293.72 1019.45,1286.95 1020.76,1279.17 1022.06,1274.24 1023.37,1267.67 1024.67,1260.49 1025.98,1254.57 1027.28,1249.53 1028.59,1245.51 1029.89,1243.06 1031.2,1242.23 1032.5,1242.96 1033.81,1245.33 1035.11,1249.22 1036.42,1254.2 1037.72,1260.07 1039.03,1266.63 1040.33,1273.29 1041.64,1279.64 1042.94,1285.51 1044.25,1290.3 1045.55,1293.45 1046.86,1295.5 1048.16,1296.39 1049.47,1294.48 1050.77,1290.88 1052.07,1287.56 1053.38,1282.76 1054.68,1275.73 1055.99,1269.57 1057.29,1264.3 1058.6,1257.57 1059.9,1251.74 1061.21,1248.45 1062.51,1245.78 1063.82,1244.22 1065.12,1244.45 1066.43,1246.13 1067.73,1249.12 1069.04,1253.29 1070.34,1258.4 1071.65,1264.15 1072.95,1270.29 1074.26,1276.34 1075.56,1281.99 1076.87,1286.87 1078.17,1290.67 1079.48,1293.13 1080.78,1294.12 1082.09,1293.58 1083.39,1291.53 1084.69,1288.13 1086,1283.63 1087.3,1278.28 1088.61,1272.46 1089.91,1266.55 1091.22,1260.82 1092.52,1255.62 1093.83,1251.47 1095.13,1248.41 1096.44,1246.32 1097.74,1245.9 1099.05,1247.35 1100.35,1249.24 1101.66,1251.98 1102.96,1257.83 1104.27,1263.66 1105.57,1266.02 1106.88,1273.63 1108.18,1281.95 1109.49,1283.98 1110.79,1287.35 1112.1,1290.95 1113.4,1292.14 1114.71,1291.99 1116.01,1290.8 1117.32,1288.13 1118.62,1284.42 1119.92,1279.8 1121.23,1274.65 1122.53,1269.15 1123.84,1263.74 1125.14,1258.71 1126.45,1254.34 1127.75,1250.92 1129.06,1248.65 1130.36,1247.63 1131.67,1247.92 1132.97,1249.52 1134.28,1252.31 1135.58,1256.1 1136.89,1260.7 1138.19,1265.81 1139.5,1271.08 1140.8,1276.29 1142.11,1281.12 1143.41,1285.06 1144.72,1288.02 1146.02,1290.12 1147.33,1290.72 1148.63,1289.52 1149.94,1287.86 1151.24,1285.55 1152.55,1280.34 1153.85,1274.85 1155.15,1271.13 1156.46,1266.45 1157.76,1260.37 1159.07,1256.66 1160.37,1254.33 1161.68,1250.55 1162.98,1249.48 1164.29,1249.5 1165.59,1250.26 1166.9,1252.43 1168.2,1255.67 1169.51,1259.64 1170.81,1264.21 1172.12,1269.18 1173.42,1274.06 1174.73,1278.59 1176.03,1282.66 1177.34,1285.85 1178.64,1287.84 1179.95,1288.97 1181.25,1289.05 1182.56,1287.19 1183.86,1284.38 1185.17,1281.44 1186.47,1277.44 1187.77,1272.4 1189.08,1267.87 1190.38,1263.68 1191.69,1259.01 1192.99,1255.57 1194.3,1252.95 1195.6,1251.17 1196.91,1250.58 1198.21,1251.14 1199.52,1252.77 1200.82,1255.4 1202.13,1258.9 1203.43,1263 1204.74,1267.46 1206.04,1272.06 1207.35,1276.48 1208.65,1280.4 1209.96,1283.64 1211.26,1286.07 1212.57,1287.37 1213.87,1287.46 1215.18,1286.7 1216.48,1284.88 1217.79,1281.59 1219.09,1277.93 1220.4,1274.66 1221.7,1269.7 1223,1264.61 1224.31,1261.58 1225.61,1258.26 1226.92,1254.19 1228.22,1252.76 1229.53,1252.97 1230.83,1252.2 1232.14,1253.15 1233.44,1255.55 1234.75,1258.41 1236.05,1261.94 1237.36,1266.05 1238.66,1270.29 1239.97,1274.4 1241.27,1278.32 1242.58,1281.66 1243.88,1284.08 1245.19,1285.68 1246.49,1286.32 1247.8,1285.72 1249.1,1284.24 1250.41,1282.22 1251.71,1278.91 1253.02,1274.6 1254.32,1271.14 1255.63,1267.54 1256.93,1262.84 1258.23,1259.3 1259.54,1257.33 1260.84,1254.75 1262.15,1252.82 1263.45,1253.24 1264.76,1254.09 1266.06,1255.53 1267.37,1258.06 1268.67,1261.25 1269.98,1264.85 1271.28,1268.77 1272.59,1272.74 1273.89,1276.41 1275.2,1279.65 1276.5,1282.33 1277.81,1284.1 1279.11,1284.98 1280.42,1285.06 1281.72,1283.93 1283.03,1281.7 1284.33,1279.4 1285.64,1276.51 1286.94,1271.84 1288.25,1268.56 1289.55,1265.81 1290.86,1261.21 1292.16,1257.81 1293.46,1257.1 1294.77,1255.31 1296.07,1254.06 1297.38,1254.78 1298.68,1255.96 1299.99,1257.91 1301.29,1260.69 1302.6,1263.92 1303.9,1267.44 1305.21,1271.12 1306.51,1274.67 1307.82,1277.86 1309.12,1280.53 1310.43,1282.53 1311.73,1283.66 1313.04,1283.92 1314.34,1283.35 1315.65,1281.82 1316.95,1279.46 1318.26,1276.76 1319.56,1273.63 1320.87,1269.73 1322.17,1266.22 1323.48,1263.79 1324.78,1260.3 1326.08,1257.25 1327.39,1256.68 1328.69,1256.07 1330,1254.84 1331.3,1256.39 1332.61,1258.21 1333.91,1260.21 1335.22,1263.1 1336.52,1266.39 1337.83,1269.72 1339.13,1273.08 1340.44,1276.25 1341.74,1278.88 1343.05,1280.92 1344.35,1282.37 1345.66,1282.92 1346.96,1282.59 1348.27,1281.61 1349.57,1279.79 1350.88,1277.01 1352.18,1274.24 1353.49,1271.6 1354.79,1267.86 1356.1,1264.27 1357.4,1262.12 1358.71,1259.79 1360.01,1257.23 1361.31,1256.6 1362.62,1256.98 1363.92,1256.91 1365.23,1258.04 1366.53,1260.14 1367.84,1262.55 1369.14,1265.39 1370.45,1268.54 1371.75,1271.69 1373.06,1274.65 1374.36,1277.35 1375.67,1279.54 1376.97,1281 1378.28,1281.8 1379.58,1281.85 1380.89,1281.02 1382.19,1279.56 1383.5,1277.71 1384.8,1275.01 1386.11,1271.75 1387.41,1269.06 1388.72,1266.35 1390.02,1263.1 1391.33,1260.71 1392.63,1259.4 1393.94,1257.87 1395.24,1256.93 1396.54,1257.53 1397.85,1258.51 1399.15,1259.96 1400.46,1262.12 1401.76,1264.7 1403.07,1267.51 1404.37,1270.46 1405.68,1273.34 1406.98,1275.92 1408.29,1278.09 1409.59,1279.76 1410.9,1280.73 1412.2,1281.01 1413.51,1280.67 1414.81,1279.48 1416.12,1277.56 1417.42,1275.56 1418.73,1273.19 1420.03,1269.77 1421.34,1267.28 1422.64,1265.2 1423.95,1262.1 1425.25,1259.89 1426.56,1259.47 1427.86,1258.51 1429.16,1257.55 1430.47,1258.83 1431.77,1260.23 1433.08,1261.79 1434.38,1264.09 1435.69,1266.69 1436.99,1269.36 1438.3,1272.06 1439.6,1274.63 1440.91,1276.78 1442.21,1278.47 1443.52,1279.69 1444.82,1280.2 1446.13,1280 1447.43,1279.29 1448.74,1277.87 1450.04,1275.69 1451.35,1273.53 1452.65,1271.42 1453.96,1268.4 1455.26,1265.52 1456.57,1263.76 1457.87,1261.82 1459.18,1259.72 1460.48,1259.17 1461.79,1259.4 1463.09,1259.28 1464.39,1260.13 1465.7,1261.76 1467,1263.67 1468.31,1265.92 1469.61,1268.43 1470.92,1270.96 1472.22,1273.36 1473.53,1275.55 1474.83,1277.35 1476.14,1278.58 1477.44,1279.28 1478.75,1279.38 1480.05,1278.77 1481.36,1277.66 1482.66,1276.22 1483.97,1274.1 1485.27,1271.51 1486.58,1269.35 1487.88,1267.16 1489.19,1264.54 1490.49,1262.58 1491.8,1261.47 1493.1,1260.2 1494.41,1259.39 1495.71,1259.8 1497.02,1260.54 1498.32,1261.65 1499.62,1263.34 1500.93,1265.39 1502.23,1267.63 1503.54,1269.99 1504.84,1272.31 1506.15,1274.4 1507.45,1276.18 1508.76,1277.57 1510.06,1278.4 1511.37,1278.64 1512.67,1278.43 1513.98,1277.56 1515.28,1276.03 1516.59,1274.47 1517.89,1272.73 1519.2,1270.18 1520.5,1267.71 1521.81,1265.95 1523.11,1263.98 1524.42,1261.96 1525.72,1261.12 1527.03,1260.8 1528.33,1260.38 1529.64,1260.76 1530.94,1261.8 1532.25,1263.17 1533.55,1264.91 1534.85,1266.97 1536.16,1269.13 1537.46,1271.29 1538.77,1273.35 1540.07,1275.15 1541.38,1276.54 1542.68,1277.51 1543.99,1278.03 1545.29,1277.9 1546.6,1277.29 1547.9,1276.37 1549.21,1274.75 1550.51,1272.63 1551.82,1270.88 1553.12,1269 1554.43,1266.56 1555.73,1264.69 1557.04,1263.52 1558.34,1262.05 1559.65,1260.95 1560.95,1260.98 1562.26,1261.26 1563.56,1261.88 1564.87,1263.07 1566.17,1264.62 1567.47,1266.41 1568.78,1268.4 1570.08,1270.45 1571.39,1272.39 1572.69,1274.14 1574,1275.62 1575.3,1276.65 1576.61,1277.21 1577.91,1277.4 1579.22,1277 1580.52,1275.96 1581.83,1274.9 1583.13,1273.61 1584.44,1271.47 1585.74,1269.32 1587.05,1267.78 1588.35,1265.92 1589.66,1263.89 1590.96,1262.92 1592.27,1262.36 1593.57,1261.62 1594.88,1261.59 1596.18,1262.18 1597.49,1263.08 1598.79,1264.36 1600.1,1265.99 1601.4,1267.78 1602.7,1269.65 1604.01,1271.53 1605.31,1273.25 1606.62,1274.68 1607.92,1275.81 1609.23,1276.58 1610.53,1276.8 1611.84,1276.61 1613.14,1276.14 1614.45,1274.97 1615.75,1273.3 1617.06,1271.95 1618.36,1270.2 1619.67,1268.11 1620.97,1266.61 1622.28,1265.3 1623.58,1263.63 1624.89,1262.8 1626.19,1262.31 1627.5,1262.1 1628.8,1262.41 1630.11,1263.16 1631.41,1264.21 1632.72,1265.64 1634.02,1267.31 1635.33,1268.99 1636.63,1270.71 1637.93,1272.43 1639.24,1273.85 1640.54,1275.01 1641.85,1275.84 1643.15,1276.26 1644.46,1276.25 1645.76,1275.82 1647.07,1274.98 1648.37,1273.79 1649.68,1272.36 1650.98,1270.75 1652.29,1269.04 1653.59,1267.39 1654.9,1265.88 1656.2,1264.52 1657.51,1263.52 1658.81,1262.97 1660.12,1262.59 1661.42,1262.59 1662.73,1263.45 1664.03,1264.43 1665.34,1264.93 1666.64,1266.82 1667.95,1269.02 1669.25,1270.05 1670.55,1271.51 1671.86,1273.12 1673.16,1274.25 1674.47,1275.1 1675.77,1275.67 1677.08,1275.81 1678.38,1275.54 1679.69,1274.92 1680.99,1273.94 1682.3,1272.66 1683.6,1271.22 1684.91,1269.68 1686.21,1268.08 1687.52,1266.61 1688.82,1265.3 1690.13,1264.24 1691.43,1263.49 1692.74,1263.09 1694.04,1263.08 1695.35,1263.45 1696.65,1264.17 1697.96,1265.2 1699.26,1266.47 1700.57,1267.91 1701.87,1269.43 1703.18,1270.93 1704.48,1272.32 1705.78,1273.52 1707.09,1274.47 1708.39,1275.08 1709.7,1275.34 1711,1275.25 1712.31,1274.77 1713.61,1273.92 1714.92,1272.89 1716.22,1271.68 1717.53,1270.1 1718.83,1268.59 1720.14,1267.56 1721.44,1266.04 1722.75,1264.63 1724.05,1264.28 1725.36,1263.92 1726.66,1263.22 1727.97,1263.73 1729.27,1264.37 1730.58,1265.09 1731.88,1266.21 1733.19,1267.52 1734.49,1268.88 1735.8,1270.29 1737.1,1271.66 1738.41,1272.83 1739.71,1273.78 1741.01,1274.5 1742.32,1274.88 1743.62,1274.88 1744.93,1274.61 1746.23,1273.99 1747.54,1272.94 1748.84,1271.85 1750.15,1270.81 1751.45,1269.27 1752.76,1267.72 1754.06,1266.79 1755.37,1265.74 1756.67,1264.54 1757.98,1264.14 1759.28,1264.2 1760.59,1264.01 1761.89,1264.35 1763.2,1265.12 1764.5,1266.04 1765.81,1267.16 1767.11,1268.44 1768.42,1269.75 1769.72,1271.01 1771.03,1272.2 1772.33,1273.19 1773.64,1273.91 1774.94,1274.37 1776.24,1274.56 1777.55,1274.34 1778.85,1273.84 1780.16,1273.22 1781.46,1272.14 1782.77,1270.73 1784.07,1269.71 1785.38,1268.49 1786.68,1267.06 1787.99,1266.18 1789.29,1265.53 1790.6,1264.6 1791.9,1264.36 1793.21,1264.37 1794.51,1264.56 1795.82,1265.11 1797.12,1265.92 1798.43,1266.89 1799.73,1268.06 1801.04,1269.31 1802.34,1270.47 1803.65,1271.58 1804.95,1272.62 1806.26,1273.37 1807.56,1273.89 1808.86,1274.15 1810.17,1274.09 1811.47,1273.75 1812.78,1273.14 1814.08,1272.29 1815.39,1271.26 1816.69,1270.13 1818,1268.96 1819.3,1267.8 1820.61,1266.76 1821.91,1265.89 1823.22,1265.18 1824.52,1264.75 1825.83,1264.65 1827.13,1264.77 1828.44,1265.14 1829.74,1265.91 1831.05,1266.82 1832.35,1267.58 1833.66,1268.85 1834.96,1270.2 1836.27,1270.98 1837.57,1271.86 1838.88,1273.03 1840.18,1273.49 1841.49,1273.47 1842.79,1273.78 1844.09,1273.62 1845.4,1273.05 1846.7,1272.37 1848.01,1271.5 1849.31,1270.46 1850.62,1269.38 1851.92,1268.32 1853.23,1267.28 1854.53,1266.38 1855.84,1265.7 1857.14,1265.23 1858.45,1264.94 1859.75,1265.03 1861.06,1265.33 1862.36,1265.85 1863.67,1266.61 1864.97,1267.52 1866.28,1268.5 1867.58,1269.55 1868.89,1270.61 1870.19,1271.54 1871.5,1272.34 1872.8,1272.96 1874.11,1273.35 1875.41,1273.5 1876.72,1273.38 1878.02,1273.02 1879.32,1272.43 1880.63,1271.65 1881.93,1270.74 1883.24,1269.74 1884.54,1268.73 1885.85,1267.76 1887.15,1266.88 1888.46,1266.16 1889.76,1265.65 1891.07,1265.35 1892.37,1265.28 1893.68,1265.48 1894.98,1265.91 1896.29,1266.51 1897.59,1267.29 1898.9,1268.25 1900.2,1269.2 1901.51,1270.13 1902.81,1271.06 1904.12,1271.87 1905.42,1272.48 1906.73,1272.92 1908.03,1273.17 1909.34,1273.13 1910.64,1272.85 1911.94,1272.42 1913.25,1271.77 1914.55,1270.94 1915.86,1270.08 1917.16,1269.17 1918.47,1268.12 1919.77,1267.34 1921.08,1266.74 1922.38,1266.04 1923.69,1265.63 1924.99,1265.69 1926.3,1265.73 1927.6,1265.86 1928.91,1266.5 1930.21,1267.21 1931.52,1267.97 1932.82,1268.86 1934.13,1269.77 1935.43,1270.63 1936.74,1271.42 1938.04,1272.08 1939.35,1272.56 1940.65,1272.84 1941.96,1272.91 1943.26,1272.75 1944.57,1272.37 1945.87,1271.83 1947.17,1271.12 1948.48,1270.3 1949.78,1269.44 1951.09,1268.6 1952.39,1267.76 1953.7,1267.02 1955,1266.48 1956.31,1266.08 1957.61,1265.86 1958.92,1265.88 1960.22,1266.1 1961.53,1266.49 1962.83,1267.07 1964.14,1267.82 1965.44,1268.59 1966.75,1269.42 1968.05,1270.26 1969.36,1271.01 1970.66,1271.66 1971.97,1272.18 1973.27,1272.51 1974.58,1272.62 1975.88,1272.56 1977.19,1272.3 1978.49,1271.8 1979.8,1271.21 1981.1,1270.52 1982.4,1269.66 1983.71,1268.91 1985.01,1268.22 1986.32,1267.41 1987.62,1266.79 1988.93,1266.49 1990.23,1266.19 1991.54,1266.01 1992.84,1266.24 1994.15,1266.57 1995.45,1267.02 1996.76,1267.65 1998.06,1268.37 1999.37,1269.12 2000.67,1269.9 2001.98,1270.65 2003.28,1271.29 2004.59,1271.81 2005.89,1272.2 2007.2,1272.36 2008.5,1272.35 2009.81,1272.23 2011.11,1271.85 2012.42,1271.29 2013.72,1270.7 2015.03,1269.99 2016.33,1269.21 2017.63,1268.48 2018.94,1267.81 2020.24,1267.2 2021.55,1266.75 2022.85,1266.45 2024.16,1266.32 2025.46,1266.38 2026.77,1266.61 2028.07,1267 2029.38,1267.54 2030.68,1268.18 2031.99,1268.88 2033.29,1269.61 2034.6,1270.31 2035.9,1270.95 2037.21,1271.48 2038.51,1271.88 2039.82,1272.12 2041.12,1272.19 2042.43,1272.08 2043.73,1271.8 2045.04,1271.37 2046.34,1270.82 2047.65,1270.17 2048.95,1269.48 2050.25,1268.78 2051.56,1268.12 2052.86,1267.54 2054.17,1267.07 2055.47,1266.72 2056.78,1266.55 2058.08,1266.56 2059.39,1266.69 2060.69,1266.98 2062,1267.51 2063.3,1268.04 2064.61,1268.5 2065.91,1269.31 2067.22,1270.01 2068.52,1270.49 2069.83,1271.13 2071.13,1271.7 2072.44,1271.79 2073.74,1271.86 2075.05,1271.97 2076.35,1271.73 2077.66,1271.36 2078.96,1270.9 2080.27,1270.33 2081.57,1269.7 2082.88,1269.06 2084.18,1268.43 2085.48,1267.85 2086.79,1267.37 2088.09,1267.01 2089.4,1266.78 2090.7,1266.72 2092.01,1266.81 2093.31,1267.05 2094.62,1267.43 2095.92,1267.92 2097.23,1268.49 2098.53,1269.1 2099.84,1269.72 2101.14,1270.33 2102.45,1270.85 2103.75,1271.27 2105.06,1271.59 2106.36,1271.78 2107.67,1271.75 2108.97,1271.6 2110.28,1271.37 2111.58,1270.94 2112.89,1270.39 2114.19,1269.9 2115.5,1269.3 2116.8,1268.64 2118.11,1268.15 2119.41,1267.73 2120.71,1267.25 2122.02,1267.03 2123.32,1266.93 2124.63,1266.94 2125.93,1267.11 2127.24,1267.42 2128.54,1267.83 2129.85,1268.33 2131.15,1268.91 2132.46,1269.48 2133.76,1270.04 2135.07,1270.57 2136.37,1271.01 2137.68,1271.34 2138.98,1271.55 2140.29,1271.62 2141.59,1271.55 2142.9,1271.34 2144.2,1271 2145.51,1270.57 2146.81,1270.06 2148.12,1269.51 2149.42,1268.94 2150.73,1268.41 2152.03,1267.93 2153.33,1267.54 2154.64,1267.26 2155.94,1267.09 2157.25,1267.09 2158.55,1267.21 2159.86,1267.41 2161.16,1267.78 2162.47,1268.24 2163.77,1268.72 2165.08,1269.26 2166.38,1269.81 2167.69,1270.3 2168.99,1270.73 2170.3,1271.1 2171.6,1271.33 2172.91,1271.41 2174.21,1271.43 2175.52,1271.31 2176.82,1270.99 2178.13,1270.62 2179.43,1270.22 2180.74,1269.67 2182.04,1269.12 2183.35,1268.68 2184.65,1268.21 2185.96,1267.78 2187.26,1267.51 2188.56,1267.34 2189.87,1267.24 2191.17,1267.3 2192.48,1267.5 2193.78,1267.78 2195.09,1268.14 2196.39,1268.62 2197.7,1269.11 2199,1269.59 2200.31,1270.07 2201.61,1270.52 2202.92,1270.84 2204.22,1271.09 2205.53,1271.27 2206.83,1271.28 2208.14,1271.16 2209.44,1270.97 2210.75,1270.67 2212.05,1270.25 2213.36,1269.81 2214.66,1269.36 2215.97,1268.86 2217.27,1268.39 2218.58,1268.04 2219.88,1267.73 2221.19,1267.5 2222.49,1267.41 2223.79,1267.43 2225.1,1267.54 2226.4,1267.78 2227.71,1268.13 2229.01,1268.51 2230.32,1268.93 2231.62,1269.42 2232.93,1269.87 2234.23,1270.28 2235.54,1270.63 2236.84,1270.91 2238.15,1271.08 2239.45,1271.14 2240.76,1271.09 2242.06,1270.93 2243.37,1270.67 2244.67,1270.33 2245.98,1269.93 2247.28,1269.49 2248.59,1269.05 2249.89,1268.62 2251.2,1268.22 2252.5,1267.92 2253.81,1267.72 2255.11,1267.54 2256.42,1267.5 2257.72,1267.63 2259.02,1267.81 2260.33,1268.05 2261.63,1268.42 2262.94,1268.82 2264.24,1269.21 2265.55,1269.67 2266.85,1270.11 2268.16,1270.43 2269.46,1270.7 2270.77,1270.91 2272.07,1271 2273.38,1270.99 2274.68,1270.89 2275.99,1270.68 2277.29,1270.38 2278.6,1270.03 2279.9,1269.64 2281.21,1269.21 2282.51,1268.81 2283.82,1268.45 2285.12,1268.12 2286.43,1267.86 2287.73,1267.72 2289.04,1267.66 2290.34,1267.68 2291.64,1267.83 2292.95,1268.08 2294.04,1268.3 "/>
<path clip-path="url(#clip470)" d="M1994.96 196.789 L2283.6 196.789 L2283.6 93.1086 L1994.96 93.1086  Z" fill="#ffffff" fill-rule="evenodd" fill-opacity="1"/>
<polyline clip-path="url(#clip470)" style="stroke:#000000; stroke-linecap:round; stroke-linejoin:round; stroke-width:4; stroke-opacity:1; fill:none" points="1994.96,196.789 2283.6,196.789 2283.6,93.1086 1994.96,93.1086 1994.96,196.789 "/>
<polyline clip-path="url(#clip470)" style="stroke:#009af9; stroke-linecap:round; stroke-linejoin:round; stroke-width:4; stroke-opacity:1; fill:none" points="2018.01,144.949 2156.32,144.949 "/>
<path clip-path="url(#clip470)" d="M2192.56 162.229 L2179.37 127.669 L2184.25 127.669 L2195.2 156.766 L2206.17 127.669 L2211.04 127.669 L2197.86 162.229 L2192.56 162.229 Z" fill="#000000" fill-rule="nonzero" fill-opacity="1" /><path clip-path="url(#clip470)" d="M2235.6 170.099 L2235.6 173.409 L2210.97 173.409 L2210.97 170.099 L2235.6 170.099 Z" fill="#000000" fill-rule="nonzero" fill-opacity="1" /><path clip-path="url(#clip470)" d="M2244.23 158.293 L2260.55 158.293 L2260.55 162.229 L2238.6 162.229 L2238.6 158.293 Q2241.27 155.539 2245.85 150.909 Q2250.46 146.256 2251.64 144.914 Q2253.88 142.391 2254.76 140.655 Q2255.67 138.895 2255.67 137.206 Q2255.67 134.451 2253.72 132.715 Q2251.8 130.979 2248.7 130.979 Q2246.5 130.979 2244.04 131.743 Q2241.61 132.507 2238.84 134.057 L2238.84 129.335 Q2241.66 128.201 2244.11 127.622 Q2246.57 127.044 2248.6 127.044 Q2253.98 127.044 2257.17 129.729 Q2260.36 132.414 2260.36 136.905 Q2260.36 139.034 2259.55 140.956 Q2258.77 142.854 2256.66 145.446 Q2256.08 146.118 2252.98 149.335 Q2249.88 152.53 2244.23 158.293 Z" fill="#000000" fill-rule="nonzero" fill-opacity="1" /></svg>
