<?xml version="1.0" encoding="utf-8"?>
<svg xmlns="http://www.w3.org/2000/svg" xmlns:xlink="http://www.w3.org/1999/xlink" width="600" height="400" viewBox="0 0 2400 1600">
<defs>
  <clipPath id="clip630">
    <rect x="0" y="0" width="2400" height="1600"/>
  </clipPath>
</defs>
<path clip-path="url(#clip630)" d="M0 1600 L2400 1600 L2400 0 L0 0  Z" fill="#ffffff" fill-rule="evenodd" fill-opacity="1"/>
<defs>
  <clipPath id="clip631">
    <rect x="480" y="0" width="1681" height="1600"/>
  </clipPath>
</defs>
<path clip-path="url(#clip630)" d="M278.107 1423.18 L2352.76 1423.18 L2352.76 47.2441 L278.107 47.2441  Z" fill="#ffffff" fill-rule="evenodd" fill-opacity="1"/>
<defs>
  <clipPath id="clip632">
    <rect x="278" y="47" width="2076" height="1377"/>
  </clipPath>
</defs>
<polyline clip-path="url(#clip632)" style="stroke:#000000; stroke-linecap:round; stroke-linejoin:round; stroke-width:2; stroke-opacity:0.1; fill:none" points="588.836,1423.18 588.836,47.2441 "/>
<polyline clip-path="url(#clip632)" style="stroke:#000000; stroke-linecap:round; stroke-linejoin:round; stroke-width:2; stroke-opacity:0.1; fill:none" points="1161.59,1423.18 1161.59,47.2441 "/>
<polyline clip-path="url(#clip632)" style="stroke:#000000; stroke-linecap:round; stroke-linejoin:round; stroke-width:2; stroke-opacity:0.1; fill:none" points="1734.35,1423.18 1734.35,47.2441 "/>
<polyline clip-path="url(#clip632)" style="stroke:#000000; stroke-linecap:round; stroke-linejoin:round; stroke-width:2; stroke-opacity:0.1; fill:none" points="2307.1,1423.18 2307.1,47.2441 "/>
<polyline clip-path="url(#clip630)" style="stroke:#000000; stroke-linecap:round; stroke-linejoin:round; stroke-width:4; stroke-opacity:1; fill:none" points="278.107,1423.18 2352.76,1423.18 "/>
<polyline clip-path="url(#clip630)" style="stroke:#000000; stroke-linecap:round; stroke-linejoin:round; stroke-width:4; stroke-opacity:1; fill:none" points="588.836,1423.18 588.836,1404.28 "/>
<polyline clip-path="url(#clip630)" style="stroke:#000000; stroke-linecap:round; stroke-linejoin:round; stroke-width:4; stroke-opacity:1; fill:none" points="1161.59,1423.18 1161.59,1404.28 "/>
<polyline clip-path="url(#clip630)" style="stroke:#000000; stroke-linecap:round; stroke-linejoin:round; stroke-width:4; stroke-opacity:1; fill:none" points="1734.35,1423.18 1734.35,1404.28 "/>
<polyline clip-path="url(#clip630)" style="stroke:#000000; stroke-linecap:round; stroke-linejoin:round; stroke-width:4; stroke-opacity:1; fill:none" points="2307.1,1423.18 2307.1,1404.28 "/>
<path clip-path="url(#clip630)" d="M555.989 1481.64 L563.627 1481.64 L563.627 1455.28 L555.317 1456.95 L555.317 1452.69 L563.581 1451.02 L568.257 1451.02 L568.257 1481.64 L575.896 1481.64 L575.896 1485.58 L555.989 1485.58 L555.989 1481.64 Z" fill="#000000" fill-rule="nonzero" fill-opacity="1" /><path clip-path="url(#clip630)" d="M585.34 1479.7 L590.224 1479.7 L590.224 1485.58 L585.34 1485.58 L585.34 1479.7 Z" fill="#000000" fill-rule="nonzero" fill-opacity="1" /><path clip-path="url(#clip630)" d="M610.41 1454.1 Q606.798 1454.1 604.97 1457.66 Q603.164 1461.2 603.164 1468.33 Q603.164 1475.44 604.97 1479.01 Q606.798 1482.55 610.41 1482.55 Q614.044 1482.55 615.849 1479.01 Q617.678 1475.44 617.678 1468.33 Q617.678 1461.2 615.849 1457.66 Q614.044 1454.1 610.41 1454.1 M610.41 1450.39 Q616.22 1450.39 619.275 1455 Q622.354 1459.58 622.354 1468.33 Q622.354 1477.06 619.275 1481.67 Q616.22 1486.25 610.41 1486.25 Q604.599 1486.25 601.521 1481.67 Q598.465 1477.06 598.465 1468.33 Q598.465 1459.58 601.521 1455 Q604.599 1450.39 610.41 1450.39 Z" fill="#000000" fill-rule="nonzero" fill-opacity="1" /><path clip-path="url(#clip630)" d="M1129.54 1481.64 L1137.18 1481.64 L1137.18 1455.28 L1128.87 1456.95 L1128.87 1452.69 L1137.14 1451.02 L1141.81 1451.02 L1141.81 1481.64 L1149.45 1481.64 L1149.45 1485.58 L1129.54 1485.58 L1129.54 1481.64 Z" fill="#000000" fill-rule="nonzero" fill-opacity="1" /><path clip-path="url(#clip630)" d="M1158.89 1479.7 L1163.78 1479.7 L1163.78 1485.58 L1158.89 1485.58 L1158.89 1479.7 Z" fill="#000000" fill-rule="nonzero" fill-opacity="1" /><path clip-path="url(#clip630)" d="M1177.99 1481.64 L1194.31 1481.64 L1194.31 1485.58 L1172.37 1485.58 L1172.37 1481.64 Q1175.03 1478.89 1179.61 1474.26 Q1184.22 1469.61 1185.4 1468.27 Q1187.64 1465.74 1188.52 1464.01 Q1189.43 1462.25 1189.43 1460.56 Q1189.43 1457.8 1187.48 1456.07 Q1185.56 1454.33 1182.46 1454.33 Q1180.26 1454.33 1177.81 1455.09 Q1175.38 1455.86 1172.6 1457.41 L1172.6 1452.69 Q1175.42 1451.55 1177.88 1450.97 Q1180.33 1450.39 1182.37 1450.39 Q1187.74 1450.39 1190.93 1453.08 Q1194.13 1455.77 1194.13 1460.26 Q1194.13 1462.39 1193.32 1464.31 Q1192.53 1466.2 1190.42 1468.8 Q1189.84 1469.47 1186.74 1472.69 Q1183.64 1475.88 1177.99 1481.64 Z" fill="#000000" fill-rule="nonzero" fill-opacity="1" /><path clip-path="url(#clip630)" d="M1701.26 1481.64 L1708.9 1481.64 L1708.9 1455.28 L1700.58 1456.95 L1700.58 1452.69 L1708.85 1451.02 L1713.52 1451.02 L1713.52 1481.64 L1721.16 1481.64 L1721.16 1485.58 L1701.26 1485.58 L1701.26 1481.64 Z" fill="#000000" fill-rule="nonzero" fill-opacity="1" /><path clip-path="url(#clip630)" d="M1730.61 1479.7 L1735.49 1479.7 L1735.49 1485.58 L1730.61 1485.58 L1730.61 1479.7 Z" fill="#000000" fill-rule="nonzero" fill-opacity="1" /><path clip-path="url(#clip630)" d="M1758.52 1455.09 L1746.72 1473.54 L1758.52 1473.54 L1758.52 1455.09 M1757.3 1451.02 L1763.18 1451.02 L1763.18 1473.54 L1768.11 1473.54 L1768.11 1477.43 L1763.18 1477.43 L1763.18 1485.58 L1758.52 1485.58 L1758.52 1477.43 L1742.92 1477.43 L1742.92 1472.92 L1757.3 1451.02 Z" fill="#000000" fill-rule="nonzero" fill-opacity="1" /><path clip-path="url(#clip630)" d="M2274.17 1481.64 L2281.81 1481.64 L2281.81 1455.28 L2273.5 1456.95 L2273.5 1452.69 L2281.77 1451.02 L2286.44 1451.02 L2286.44 1481.64 L2294.08 1481.64 L2294.08 1485.58 L2274.17 1485.58 L2274.17 1481.64 Z" fill="#000000" fill-rule="nonzero" fill-opacity="1" /><path clip-path="url(#clip630)" d="M2303.53 1479.7 L2308.41 1479.7 L2308.41 1485.58 L2303.53 1485.58 L2303.53 1479.7 Z" fill="#000000" fill-rule="nonzero" fill-opacity="1" /><path clip-path="url(#clip630)" d="M2329.17 1466.44 Q2326.03 1466.44 2324.17 1468.59 Q2322.34 1470.74 2322.34 1474.49 Q2322.34 1478.22 2324.17 1480.39 Q2326.03 1482.55 2329.17 1482.55 Q2332.32 1482.55 2334.15 1480.39 Q2336 1478.22 2336 1474.49 Q2336 1470.74 2334.15 1468.59 Q2332.32 1466.44 2329.17 1466.44 M2338.46 1451.78 L2338.46 1456.04 Q2336.7 1455.21 2334.89 1454.77 Q2333.11 1454.33 2331.35 1454.33 Q2326.72 1454.33 2324.27 1457.45 Q2321.84 1460.58 2321.49 1466.9 Q2322.85 1464.89 2324.91 1463.82 Q2326.97 1462.73 2329.45 1462.73 Q2334.66 1462.73 2337.67 1465.9 Q2340.7 1469.05 2340.7 1474.49 Q2340.7 1479.82 2337.55 1483.03 Q2334.4 1486.25 2329.17 1486.25 Q2323.18 1486.25 2320.01 1481.67 Q2316.84 1477.06 2316.84 1468.33 Q2316.84 1460.14 2320.72 1455.28 Q2324.61 1450.39 2331.16 1450.39 Q2332.92 1450.39 2334.71 1450.74 Q2336.51 1451.09 2338.46 1451.78 Z" fill="#000000" fill-rule="nonzero" fill-opacity="1" /><path clip-path="url(#clip630)" d="M1185.6 1520.52 L1225.8 1520.52 L1225.8 1525.93 L1208.93 1525.93 L1208.93 1568.04 L1202.47 1568.04 L1202.47 1525.93 L1185.6 1525.93 L1185.6 1520.52 Z" fill="#000000" fill-rule="nonzero" fill-opacity="1" /><path clip-path="url(#clip630)" d="M1229.75 1532.4 L1235.61 1532.4 L1235.61 1568.04 L1229.75 1568.04 L1229.75 1532.4 M1229.75 1518.52 L1235.61 1518.52 L1235.61 1525.93 L1229.75 1525.93 L1229.75 1518.52 Z" fill="#000000" fill-rule="nonzero" fill-opacity="1" /><path clip-path="url(#clip630)" d="M1275.61 1539.24 Q1277.81 1535.29 1280.87 1533.41 Q1283.92 1531.54 1288.06 1531.54 Q1293.63 1531.54 1296.65 1535.45 Q1299.68 1539.33 1299.68 1546.53 L1299.68 1568.04 L1293.79 1568.04 L1293.79 1546.72 Q1293.79 1541.59 1291.97 1539.11 Q1290.16 1536.63 1286.44 1536.63 Q1281.88 1536.63 1279.24 1539.65 Q1276.6 1542.68 1276.6 1547.9 L1276.6 1568.04 L1270.71 1568.04 L1270.71 1546.72 Q1270.71 1541.56 1268.9 1539.11 Q1267.08 1536.63 1263.3 1536.63 Q1258.81 1536.63 1256.17 1539.68 Q1253.52 1542.71 1253.52 1547.9 L1253.52 1568.04 L1247.64 1568.04 L1247.64 1532.4 L1253.52 1532.4 L1253.52 1537.93 Q1255.53 1534.66 1258.33 1533.1 Q1261.13 1531.54 1264.98 1531.54 Q1268.87 1531.54 1271.57 1533.51 Q1274.31 1535.48 1275.61 1539.24 Z" fill="#000000" fill-rule="nonzero" fill-opacity="1" /><path clip-path="url(#clip630)" d="M1341.85 1548.76 L1341.85 1551.62 L1314.92 1551.62 Q1315.3 1557.67 1318.55 1560.85 Q1321.83 1564 1327.65 1564 Q1331.03 1564 1334.18 1563.17 Q1337.36 1562.35 1340.48 1560.69 L1340.48 1566.23 Q1337.33 1567.57 1334.02 1568.27 Q1330.71 1568.97 1327.3 1568.97 Q1318.77 1568.97 1313.78 1564 Q1308.81 1559.04 1308.81 1550.57 Q1308.81 1541.82 1313.52 1536.69 Q1318.26 1531.54 1326.28 1531.54 Q1333.48 1531.54 1337.65 1536.18 Q1341.85 1540.8 1341.85 1548.76 M1335.99 1547.04 Q1335.93 1542.23 1333.29 1539.37 Q1330.68 1536.5 1326.35 1536.5 Q1321.45 1536.5 1318.49 1539.27 Q1315.56 1542.04 1315.11 1547.07 L1335.99 1547.04 Z" fill="#000000" fill-rule="nonzero" fill-opacity="1" /><path clip-path="url(#clip630)" d="M1371.64 1518.52 L1385.14 1518.52 L1385.14 1523.07 L1377.5 1523.07 L1377.5 1572.09 L1385.14 1572.09 L1385.14 1576.64 L1371.64 1576.64 L1371.64 1518.52 Z" fill="#000000" fill-rule="nonzero" fill-opacity="1" /><path clip-path="url(#clip630)" d="M1420.34 1533.45 L1420.34 1538.98 Q1417.86 1537.71 1415.18 1537.07 Q1412.51 1536.44 1409.64 1536.44 Q1405.28 1536.44 1403.09 1537.77 Q1400.92 1539.11 1400.92 1541.79 Q1400.92 1543.82 1402.48 1545 Q1404.04 1546.15 1408.75 1547.2 L1410.76 1547.64 Q1417 1548.98 1419.61 1551.43 Q1422.25 1553.85 1422.25 1558.21 Q1422.25 1563.17 1418.3 1566.07 Q1414.39 1568.97 1407.51 1568.97 Q1404.65 1568.97 1401.53 1568.39 Q1398.44 1567.85 1395 1566.74 L1395 1560.69 Q1398.25 1562.38 1401.4 1563.24 Q1404.55 1564.07 1407.64 1564.07 Q1411.78 1564.07 1414 1562.66 Q1416.23 1561.23 1416.23 1558.65 Q1416.23 1556.27 1414.61 1554.99 Q1413.02 1553.72 1407.57 1552.54 L1405.54 1552.07 Q1400.1 1550.92 1397.68 1548.56 Q1395.26 1546.18 1395.26 1542.04 Q1395.26 1537.01 1398.82 1534.27 Q1402.39 1531.54 1408.94 1531.54 Q1412.19 1531.54 1415.05 1532.01 Q1417.92 1532.49 1420.34 1533.45 Z" fill="#000000" fill-rule="nonzero" fill-opacity="1" /><path clip-path="url(#clip630)" d="M1445.26 1518.52 L1445.26 1576.64 L1431.76 1576.64 L1431.76 1572.09 L1439.37 1572.09 L1439.37 1523.07 L1431.76 1523.07 L1431.76 1518.52 L1445.26 1518.52 Z" fill="#000000" fill-rule="nonzero" fill-opacity="1" /><polyline clip-path="url(#clip632)" style="stroke:#000000; stroke-linecap:round; stroke-linejoin:round; stroke-width:2; stroke-opacity:0.1; fill:none" points="278.107,1237.89 2352.76,1237.89 "/>
<polyline clip-path="url(#clip632)" style="stroke:#000000; stroke-linecap:round; stroke-linejoin:round; stroke-width:2; stroke-opacity:0.1; fill:none" points="278.107,1014.81 2352.76,1014.81 "/>
<polyline clip-path="url(#clip632)" style="stroke:#000000; stroke-linecap:round; stroke-linejoin:round; stroke-width:2; stroke-opacity:0.1; fill:none" points="278.107,791.736 2352.76,791.736 "/>
<polyline clip-path="url(#clip632)" style="stroke:#000000; stroke-linecap:round; stroke-linejoin:round; stroke-width:2; stroke-opacity:0.1; fill:none" points="278.107,568.657 2352.76,568.657 "/>
<polyline clip-path="url(#clip632)" style="stroke:#000000; stroke-linecap:round; stroke-linejoin:round; stroke-width:2; stroke-opacity:0.1; fill:none" points="278.107,345.578 2352.76,345.578 "/>
<polyline clip-path="url(#clip632)" style="stroke:#000000; stroke-linecap:round; stroke-linejoin:round; stroke-width:2; stroke-opacity:0.1; fill:none" points="278.107,122.5 2352.76,122.5 "/>
<polyline clip-path="url(#clip630)" style="stroke:#000000; stroke-linecap:round; stroke-linejoin:round; stroke-width:4; stroke-opacity:1; fill:none" points="278.107,1423.18 278.107,47.2441 "/>
<polyline clip-path="url(#clip630)" style="stroke:#000000; stroke-linecap:round; stroke-linejoin:round; stroke-width:4; stroke-opacity:1; fill:none" points="278.107,1237.89 297.004,1237.89 "/>
<polyline clip-path="url(#clip630)" style="stroke:#000000; stroke-linecap:round; stroke-linejoin:round; stroke-width:4; stroke-opacity:1; fill:none" points="278.107,1014.81 297.004,1014.81 "/>
<polyline clip-path="url(#clip630)" style="stroke:#000000; stroke-linecap:round; stroke-linejoin:round; stroke-width:4; stroke-opacity:1; fill:none" points="278.107,791.736 297.004,791.736 "/>
<polyline clip-path="url(#clip630)" style="stroke:#000000; stroke-linecap:round; stroke-linejoin:round; stroke-width:4; stroke-opacity:1; fill:none" points="278.107,568.657 297.004,568.657 "/>
<polyline clip-path="url(#clip630)" style="stroke:#000000; stroke-linecap:round; stroke-linejoin:round; stroke-width:4; stroke-opacity:1; fill:none" points="278.107,345.578 297.004,345.578 "/>
<polyline clip-path="url(#clip630)" style="stroke:#000000; stroke-linecap:round; stroke-linejoin:round; stroke-width:4; stroke-opacity:1; fill:none" points="278.107,122.5 297.004,122.5 "/>
<path clip-path="url(#clip630)" d="M115.418 1251.24 L123.056 1251.24 L123.056 1224.87 L114.746 1226.54 L114.746 1222.28 L123.01 1220.61 L127.686 1220.61 L127.686 1251.24 L135.325 1251.24 L135.325 1255.17 L115.418 1255.17 L115.418 1251.24 Z" fill="#000000" fill-rule="nonzero" fill-opacity="1" /><path clip-path="url(#clip630)" d="M144.769 1249.29 L149.653 1249.29 L149.653 1255.17 L144.769 1255.17 L144.769 1249.29 Z" fill="#000000" fill-rule="nonzero" fill-opacity="1" /><path clip-path="url(#clip630)" d="M169.839 1223.69 Q166.227 1223.69 164.399 1227.26 Q162.593 1230.8 162.593 1237.93 Q162.593 1245.03 164.399 1248.6 Q166.227 1252.14 169.839 1252.14 Q173.473 1252.14 175.278 1248.6 Q177.107 1245.03 177.107 1237.93 Q177.107 1230.8 175.278 1227.26 Q173.473 1223.69 169.839 1223.69 M169.839 1219.99 Q175.649 1219.99 178.704 1224.59 Q181.783 1229.18 181.783 1237.93 Q181.783 1246.65 178.704 1251.26 Q175.649 1255.84 169.839 1255.84 Q164.028 1255.84 160.95 1251.26 Q157.894 1246.65 157.894 1237.93 Q157.894 1229.18 160.95 1224.59 Q164.028 1219.99 169.839 1219.99 Z" fill="#000000" fill-rule="nonzero" fill-opacity="1" /><path clip-path="url(#clip630)" d="M190.811 1251.24 L198.45 1251.24 L198.45 1224.87 L190.139 1226.54 L190.139 1222.28 L198.403 1220.61 L203.079 1220.61 L203.079 1251.24 L210.718 1251.24 L210.718 1255.17 L190.811 1255.17 L190.811 1251.24 Z" fill="#000000" fill-rule="nonzero" fill-opacity="1" /><path clip-path="url(#clip630)" d="M230.162 1223.69 Q226.551 1223.69 224.723 1227.26 Q222.917 1230.8 222.917 1237.93 Q222.917 1245.03 224.723 1248.6 Q226.551 1252.14 230.162 1252.14 Q233.797 1252.14 235.602 1248.6 Q237.431 1245.03 237.431 1237.93 Q237.431 1230.8 235.602 1227.26 Q233.797 1223.69 230.162 1223.69 M230.162 1219.99 Q235.972 1219.99 239.028 1224.59 Q242.107 1229.18 242.107 1237.93 Q242.107 1246.65 239.028 1251.26 Q235.972 1255.84 230.162 1255.84 Q224.352 1255.84 221.273 1251.26 Q218.218 1246.65 218.218 1237.93 Q218.218 1229.18 221.273 1224.59 Q224.352 1219.99 230.162 1219.99 Z" fill="#000000" fill-rule="nonzero" fill-opacity="1" /><path clip-path="url(#clip630)" d="M116.644 1028.16 L124.283 1028.16 L124.283 1001.79 L115.973 1003.46 L115.973 999.201 L124.237 997.534 L128.913 997.534 L128.913 1028.16 L136.552 1028.16 L136.552 1032.09 L116.644 1032.09 L116.644 1028.16 Z" fill="#000000" fill-rule="nonzero" fill-opacity="1" /><path clip-path="url(#clip630)" d="M145.996 1026.21 L150.88 1026.21 L150.88 1032.09 L145.996 1032.09 L145.996 1026.21 Z" fill="#000000" fill-rule="nonzero" fill-opacity="1" /><path clip-path="url(#clip630)" d="M171.065 1000.61 Q167.454 1000.61 165.626 1004.18 Q163.82 1007.72 163.82 1014.85 Q163.82 1021.96 165.626 1025.52 Q167.454 1029.06 171.065 1029.06 Q174.7 1029.06 176.505 1025.52 Q178.334 1021.96 178.334 1014.85 Q178.334 1007.72 176.505 1004.18 Q174.7 1000.61 171.065 1000.61 M171.065 996.909 Q176.876 996.909 179.931 1001.52 Q183.01 1006.1 183.01 1014.85 Q183.01 1023.58 179.931 1028.18 Q176.876 1032.77 171.065 1032.77 Q165.255 1032.77 162.177 1028.18 Q159.121 1023.58 159.121 1014.85 Q159.121 1006.1 162.177 1001.52 Q165.255 996.909 171.065 996.909 Z" fill="#000000" fill-rule="nonzero" fill-opacity="1" /><path clip-path="url(#clip630)" d="M192.038 1028.16 L199.676 1028.16 L199.676 1001.79 L191.366 1003.46 L191.366 999.201 L199.63 997.534 L204.306 997.534 L204.306 1028.16 L211.945 1028.16 L211.945 1032.09 L192.038 1032.09 L192.038 1028.16 Z" fill="#000000" fill-rule="nonzero" fill-opacity="1" /><path clip-path="url(#clip630)" d="M222.199 1028.16 L229.838 1028.16 L229.838 1001.79 L221.528 1003.46 L221.528 999.201 L229.792 997.534 L234.468 997.534 L234.468 1028.16 L242.107 1028.16 L242.107 1032.09 L222.199 1032.09 L222.199 1028.16 Z" fill="#000000" fill-rule="nonzero" fill-opacity="1" /><path clip-path="url(#clip630)" d="M117.015 805.08 L124.654 805.08 L124.654 778.715 L116.343 780.382 L116.343 776.122 L124.607 774.456 L129.283 774.456 L129.283 805.08 L136.922 805.08 L136.922 809.016 L117.015 809.016 L117.015 805.08 Z" fill="#000000" fill-rule="nonzero" fill-opacity="1" /><path clip-path="url(#clip630)" d="M146.366 803.136 L151.251 803.136 L151.251 809.016 L146.366 809.016 L146.366 803.136 Z" fill="#000000" fill-rule="nonzero" fill-opacity="1" /><path clip-path="url(#clip630)" d="M171.436 777.534 Q167.825 777.534 165.996 781.099 Q164.19 784.641 164.19 791.77 Q164.19 798.877 165.996 802.442 Q167.825 805.983 171.436 805.983 Q175.07 805.983 176.876 802.442 Q178.704 798.877 178.704 791.77 Q178.704 784.641 176.876 781.099 Q175.07 777.534 171.436 777.534 M171.436 773.831 Q177.246 773.831 180.301 778.437 Q183.38 783.02 183.38 791.77 Q183.38 800.497 180.301 805.104 Q177.246 809.687 171.436 809.687 Q165.626 809.687 162.547 805.104 Q159.491 800.497 159.491 791.77 Q159.491 783.02 162.547 778.437 Q165.626 773.831 171.436 773.831 Z" fill="#000000" fill-rule="nonzero" fill-opacity="1" /><path clip-path="url(#clip630)" d="M192.408 805.08 L200.047 805.08 L200.047 778.715 L191.737 780.382 L191.737 776.122 L200 774.456 L204.676 774.456 L204.676 805.08 L212.315 805.08 L212.315 809.016 L192.408 809.016 L192.408 805.08 Z" fill="#000000" fill-rule="nonzero" fill-opacity="1" /><path clip-path="url(#clip630)" d="M225.787 805.08 L242.107 805.08 L242.107 809.016 L220.162 809.016 L220.162 805.08 Q222.824 802.326 227.408 797.696 Q232.014 793.043 233.195 791.701 Q235.44 789.178 236.32 787.442 Q237.222 785.682 237.222 783.993 Q237.222 781.238 235.278 779.502 Q233.357 777.766 230.255 777.766 Q228.056 777.766 225.602 778.53 Q223.172 779.294 220.394 780.844 L220.394 776.122 Q223.218 774.988 225.672 774.409 Q228.125 773.831 230.162 773.831 Q235.533 773.831 238.727 776.516 Q241.922 779.201 241.922 783.692 Q241.922 785.821 241.111 787.743 Q240.324 789.641 238.218 792.233 Q237.639 792.905 234.537 796.122 Q231.435 799.317 225.787 805.08 Z" fill="#000000" fill-rule="nonzero" fill-opacity="1" /><path clip-path="url(#clip630)" d="M116.066 582.002 L123.705 582.002 L123.705 555.636 L115.394 557.303 L115.394 553.044 L123.658 551.377 L128.334 551.377 L128.334 582.002 L135.973 582.002 L135.973 585.937 L116.066 585.937 L116.066 582.002 Z" fill="#000000" fill-rule="nonzero" fill-opacity="1" /><path clip-path="url(#clip630)" d="M145.417 580.057 L150.302 580.057 L150.302 585.937 L145.417 585.937 L145.417 580.057 Z" fill="#000000" fill-rule="nonzero" fill-opacity="1" /><path clip-path="url(#clip630)" d="M170.487 554.456 Q166.876 554.456 165.047 558.02 Q163.241 561.562 163.241 568.692 Q163.241 575.798 165.047 579.363 Q166.876 582.905 170.487 582.905 Q174.121 582.905 175.926 579.363 Q177.755 575.798 177.755 568.692 Q177.755 561.562 175.926 558.02 Q174.121 554.456 170.487 554.456 M170.487 550.752 Q176.297 550.752 179.352 555.358 Q182.431 559.942 182.431 568.692 Q182.431 577.418 179.352 582.025 Q176.297 586.608 170.487 586.608 Q164.677 586.608 161.598 582.025 Q158.542 577.418 158.542 568.692 Q158.542 559.942 161.598 555.358 Q164.677 550.752 170.487 550.752 Z" fill="#000000" fill-rule="nonzero" fill-opacity="1" /><path clip-path="url(#clip630)" d="M191.459 582.002 L199.098 582.002 L199.098 555.636 L190.788 557.303 L190.788 553.044 L199.051 551.377 L203.727 551.377 L203.727 582.002 L211.366 582.002 L211.366 585.937 L191.459 585.937 L191.459 582.002 Z" fill="#000000" fill-rule="nonzero" fill-opacity="1" /><path clip-path="url(#clip630)" d="M234.977 567.303 Q238.334 568.02 240.209 570.289 Q242.107 572.557 242.107 575.891 Q242.107 581.006 238.588 583.807 Q235.07 586.608 228.588 586.608 Q226.412 586.608 224.098 586.168 Q221.806 585.752 219.352 584.895 L219.352 580.381 Q221.297 581.516 223.611 582.094 Q225.926 582.673 228.449 582.673 Q232.847 582.673 235.139 580.937 Q237.454 579.201 237.454 575.891 Q237.454 572.835 235.301 571.122 Q233.172 569.386 229.352 569.386 L225.324 569.386 L225.324 565.544 L229.537 565.544 Q232.986 565.544 234.815 564.178 Q236.644 562.789 236.644 560.196 Q236.644 557.534 234.746 556.122 Q232.871 554.687 229.352 554.687 Q227.431 554.687 225.232 555.104 Q223.033 555.52 220.394 556.4 L220.394 552.233 Q223.056 551.493 225.371 551.122 Q227.709 550.752 229.769 550.752 Q235.093 550.752 238.195 553.183 Q241.297 555.59 241.297 559.71 Q241.297 562.581 239.653 564.571 Q238.009 566.539 234.977 567.303 Z" fill="#000000" fill-rule="nonzero" fill-opacity="1" /><path clip-path="url(#clip630)" d="M114.931 358.923 L122.57 358.923 L122.57 332.558 L114.26 334.224 L114.26 329.965 L122.524 328.298 L127.2 328.298 L127.2 358.923 L134.839 358.923 L134.839 362.858 L114.931 362.858 L114.931 358.923 Z" fill="#000000" fill-rule="nonzero" fill-opacity="1" /><path clip-path="url(#clip630)" d="M144.283 356.979 L149.167 356.979 L149.167 362.858 L144.283 362.858 L144.283 356.979 Z" fill="#000000" fill-rule="nonzero" fill-opacity="1" /><path clip-path="url(#clip630)" d="M169.352 331.377 Q165.741 331.377 163.913 334.942 Q162.107 338.483 162.107 345.613 Q162.107 352.719 163.913 356.284 Q165.741 359.826 169.352 359.826 Q172.987 359.826 174.792 356.284 Q176.621 352.719 176.621 345.613 Q176.621 338.483 174.792 334.942 Q172.987 331.377 169.352 331.377 M169.352 327.673 Q175.163 327.673 178.218 332.28 Q181.297 336.863 181.297 345.613 Q181.297 354.34 178.218 358.946 Q175.163 363.53 169.352 363.53 Q163.542 363.53 160.464 358.946 Q157.408 354.34 157.408 345.613 Q157.408 336.863 160.464 332.28 Q163.542 327.673 169.352 327.673 Z" fill="#000000" fill-rule="nonzero" fill-opacity="1" /><path clip-path="url(#clip630)" d="M190.325 358.923 L197.963 358.923 L197.963 332.558 L189.653 334.224 L189.653 329.965 L197.917 328.298 L202.593 328.298 L202.593 358.923 L210.232 358.923 L210.232 362.858 L190.325 362.858 L190.325 358.923 Z" fill="#000000" fill-rule="nonzero" fill-opacity="1" /><path clip-path="url(#clip630)" d="M232.523 332.372 L220.718 350.821 L232.523 350.821 L232.523 332.372 M231.297 328.298 L237.176 328.298 L237.176 350.821 L242.107 350.821 L242.107 354.71 L237.176 354.71 L237.176 362.858 L232.523 362.858 L232.523 354.71 L216.922 354.71 L216.922 350.196 L231.297 328.298 Z" fill="#000000" fill-rule="nonzero" fill-opacity="1" /><path clip-path="url(#clip630)" d="M116.413 135.844 L124.052 135.844 L124.052 109.479 L115.742 111.146 L115.742 106.886 L124.005 105.22 L128.681 105.22 L128.681 135.844 L136.32 135.844 L136.32 139.78 L116.413 139.78 L116.413 135.844 Z" fill="#000000" fill-rule="nonzero" fill-opacity="1" /><path clip-path="url(#clip630)" d="M145.765 133.9 L150.649 133.9 L150.649 139.78 L145.765 139.78 L145.765 133.9 Z" fill="#000000" fill-rule="nonzero" fill-opacity="1" /><path clip-path="url(#clip630)" d="M170.834 108.298 Q167.223 108.298 165.394 111.863 Q163.589 115.405 163.589 122.534 Q163.589 129.641 165.394 133.206 Q167.223 136.747 170.834 136.747 Q174.468 136.747 176.274 133.206 Q178.102 129.641 178.102 122.534 Q178.102 115.405 176.274 111.863 Q174.468 108.298 170.834 108.298 M170.834 104.595 Q176.644 104.595 179.7 109.201 Q182.778 113.784 182.778 122.534 Q182.778 131.261 179.7 135.868 Q176.644 140.451 170.834 140.451 Q165.024 140.451 161.945 135.868 Q158.89 131.261 158.89 122.534 Q158.89 113.784 161.945 109.201 Q165.024 104.595 170.834 104.595 Z" fill="#000000" fill-rule="nonzero" fill-opacity="1" /><path clip-path="url(#clip630)" d="M191.806 135.844 L199.445 135.844 L199.445 109.479 L191.135 111.146 L191.135 106.886 L199.399 105.22 L204.074 105.22 L204.074 135.844 L211.713 135.844 L211.713 139.78 L191.806 139.78 L191.806 135.844 Z" fill="#000000" fill-rule="nonzero" fill-opacity="1" /><path clip-path="url(#clip630)" d="M221.204 105.22 L239.56 105.22 L239.56 109.155 L225.486 109.155 L225.486 117.627 Q226.505 117.28 227.523 117.118 Q228.542 116.933 229.56 116.933 Q235.347 116.933 238.727 120.104 Q242.107 123.275 242.107 128.692 Q242.107 134.27 238.634 137.372 Q235.162 140.451 228.843 140.451 Q226.667 140.451 224.398 140.081 Q222.153 139.71 219.746 138.969 L219.746 134.27 Q221.829 135.405 224.051 135.96 Q226.273 136.516 228.75 136.516 Q232.755 136.516 235.093 134.409 Q237.431 132.303 237.431 128.692 Q237.431 125.081 235.093 122.974 Q232.755 120.868 228.75 120.868 Q226.875 120.868 225 121.284 Q223.148 121.701 221.204 122.581 L221.204 105.22 Z" fill="#000000" fill-rule="nonzero" fill-opacity="1" /><path clip-path="url(#clip630)" d="M64.0042 913.404 L16.4842 931.546 L16.4842 924.83 L56.4926 909.776 L16.4842 894.689 L16.4842 888.005 L64.0042 906.115 L64.0042 913.404 Z" fill="#000000" fill-rule="nonzero" fill-opacity="1" /><path clip-path="url(#clip630)" d="M32.4621 872.568 Q32.4621 877.279 36.1542 880.016 Q39.8145 882.753 46.212 882.753 Q52.6095 882.753 56.3017 880.048 Q59.9619 877.31 59.9619 872.568 Q59.9619 867.889 56.2698 865.152 Q52.5777 862.415 46.212 862.415 Q39.8781 862.415 36.186 865.152 Q32.4621 867.889 32.4621 872.568 M27.4968 872.568 Q27.4968 864.929 32.4621 860.569 Q37.4273 856.208 46.212 856.208 Q54.9649 856.208 59.9619 860.569 Q64.9272 864.929 64.9272 872.568 Q64.9272 880.239 59.9619 884.599 Q54.9649 888.928 46.212 888.928 Q37.4273 888.928 32.4621 884.599 Q27.4968 880.239 27.4968 872.568 Z" fill="#000000" fill-rule="nonzero" fill-opacity="1" /><path clip-path="url(#clip630)" d="M14.479 846.5 L14.479 840.644 L64.0042 840.644 L64.0042 846.5 L14.479 846.5 Z" fill="#000000" fill-rule="nonzero" fill-opacity="1" /><path clip-path="url(#clip630)" d="M18.2347 822.597 L28.3562 822.597 L28.3562 810.534 L32.9077 810.534 L32.9077 822.597 L52.2594 822.597 Q56.6199 822.597 57.8613 821.42 Q59.1026 820.21 59.1026 816.55 L59.1026 810.534 L64.0042 810.534 L64.0042 816.55 Q64.0042 823.329 61.4897 825.907 Q58.9434 828.485 52.2594 828.485 L32.9077 828.485 L32.9077 832.782 L28.3562 832.782 L28.3562 828.485 L18.2347 828.485 L18.2347 822.597 Z" fill="#000000" fill-rule="nonzero" fill-opacity="1" /><path clip-path="url(#clip630)" d="M46.0847 786.631 Q46.0847 793.729 47.7079 796.466 Q49.3312 799.203 53.2461 799.203 Q56.3653 799.203 58.2114 797.166 Q60.0256 795.097 60.0256 791.564 Q60.0256 786.695 56.5881 783.766 Q53.1188 780.806 47.3897 780.806 L46.0847 780.806 L46.0847 786.631 M43.6657 774.95 L64.0042 774.95 L64.0042 780.806 L58.5933 780.806 Q61.8398 782.812 63.3994 785.803 Q64.9272 788.795 64.9272 793.124 Q64.9272 798.598 61.8716 801.845 Q58.7843 805.06 53.6281 805.06 Q47.6125 805.06 44.5569 801.049 Q41.5014 797.007 41.5014 789.018 L41.5014 780.806 L40.9285 780.806 Q36.8862 780.806 34.6901 783.48 Q32.4621 786.122 32.4621 790.928 Q32.4621 793.983 33.1941 796.88 Q33.9262 799.776 35.3903 802.45 L29.9795 802.45 Q28.7381 799.235 28.1334 796.211 Q27.4968 793.188 27.4968 790.323 Q27.4968 782.589 31.5072 778.769 Q35.5176 774.95 43.6657 774.95 Z" fill="#000000" fill-rule="nonzero" fill-opacity="1" /><path clip-path="url(#clip630)" d="M45.7664 739.429 Q39.4007 739.429 35.8996 742.071 Q32.3984 744.681 32.3984 749.423 Q32.3984 754.134 35.8996 756.776 Q39.4007 759.386 45.7664 759.386 Q52.1003 759.386 55.6014 756.776 Q59.1026 754.134 59.1026 749.423 Q59.1026 744.681 55.6014 742.071 Q52.1003 739.429 45.7664 739.429 M59.58 733.573 Q68.683 733.573 73.1071 737.615 Q77.5631 741.657 77.5631 749.996 Q77.5631 753.084 77.0857 755.821 Q76.6401 758.558 75.6852 761.136 L69.9879 761.136 Q71.3884 758.558 72.0568 756.044 Q72.7252 753.529 72.7252 750.919 Q72.7252 745.158 69.7015 742.294 Q66.7096 739.429 60.6303 739.429 L57.7339 739.429 Q60.885 741.243 62.4446 744.076 Q64.0042 746.909 64.0042 750.856 Q64.0042 757.412 59.0071 761.423 Q54.01 765.433 45.7664 765.433 Q37.491 765.433 32.4939 761.423 Q27.4968 757.412 27.4968 750.856 Q27.4968 746.909 29.0564 744.076 Q30.616 741.243 33.7671 739.429 L28.3562 739.429 L28.3562 733.573 L59.58 733.573 Z" fill="#000000" fill-rule="nonzero" fill-opacity="1" /><path clip-path="url(#clip630)" d="M44.7161 691.018 L47.5806 691.018 L47.5806 717.945 Q53.6281 717.563 56.8109 714.317 Q59.9619 711.038 59.9619 705.214 Q59.9619 701.84 59.1344 698.689 Q58.3069 695.506 56.6518 692.387 L62.1899 692.387 Q63.5267 695.538 64.227 698.848 Q64.9272 702.158 64.9272 705.564 Q64.9272 714.094 59.9619 719.091 Q54.9967 724.056 46.5303 724.056 Q37.7774 724.056 32.6531 719.345 Q27.4968 714.603 27.4968 706.582 Q27.4968 699.389 32.1438 695.219 Q36.7589 691.018 44.7161 691.018 M42.9973 696.875 Q38.1912 696.938 35.3266 699.58 Q32.4621 702.19 32.4621 706.519 Q32.4621 711.42 35.2312 714.38 Q38.0002 717.308 43.0292 717.754 L42.9973 696.875 Z" fill="#000000" fill-rule="nonzero" fill-opacity="1" /><path clip-path="url(#clip630)" d="M14.479 661.227 L14.479 647.731 L19.0304 647.731 L19.0304 655.37 L68.0464 655.37 L68.0464 647.731 L72.5979 647.731 L72.5979 661.227 L14.479 661.227 Z" fill="#000000" fill-rule="nonzero" fill-opacity="1" /><path clip-path="url(#clip630)" d="M58.657 629.589 L77.5631 629.589 L77.5631 635.477 L28.3562 635.477 L28.3562 629.589 L33.7671 629.589 Q30.5842 627.743 29.0564 624.942 Q27.4968 622.109 27.4968 618.194 Q27.4968 611.701 32.6531 607.659 Q37.8093 603.585 46.212 603.585 Q54.6147 603.585 59.771 607.659 Q64.9272 611.701 64.9272 618.194 Q64.9272 622.109 63.3994 624.942 Q61.8398 627.743 58.657 629.589 M46.212 609.664 Q39.7508 609.664 36.0905 612.338 Q32.3984 614.98 32.3984 619.627 Q32.3984 624.274 36.0905 626.947 Q39.7508 629.589 46.212 629.589 Q52.6732 629.589 56.3653 626.947 Q60.0256 624.274 60.0256 619.627 Q60.0256 614.98 56.3653 612.338 Q52.6732 609.664 46.212 609.664 Z" fill="#000000" fill-rule="nonzero" fill-opacity="1" /><path clip-path="url(#clip630)" d="M49.9359 594.482 L28.3562 594.482 L28.3562 588.626 L49.7131 588.626 Q54.7739 588.626 57.3202 586.652 Q59.8346 584.679 59.8346 580.732 Q59.8346 575.99 56.8109 573.252 Q53.7872 570.483 48.5673 570.483 L28.3562 570.483 L28.3562 564.627 L64.0042 564.627 L64.0042 570.483 L58.5296 570.483 Q61.7762 572.616 63.3676 575.449 Q64.9272 578.25 64.9272 581.973 Q64.9272 588.116 61.1078 591.299 Q57.2883 594.482 49.9359 594.482 M27.4968 579.745 L27.4968 579.745 Z" fill="#000000" fill-rule="nonzero" fill-opacity="1" /><path clip-path="url(#clip630)" d="M14.479 538.878 L72.5979 538.878 L72.5979 552.373 L68.0464 552.373 L68.0464 544.766 L19.0304 544.766 L19.0304 552.373 L14.479 552.373 L14.479 538.878 Z" fill="#000000" fill-rule="nonzero" fill-opacity="1" /><polyline clip-path="url(#clip632)" style="stroke:#009af9; stroke-linecap:round; stroke-linejoin:round; stroke-width:4; stroke-opacity:1; fill:none" points="336.823,300.963 394.099,300.963 451.374,300.963 508.65,300.963 565.925,300.963 588.836,300.963 588.839,300.965 588.842,300.967 588.849,300.971 588.862,300.977 588.888,300.978 588.941,300.902 589.046,300.285 589.151,298.986 589.256,297.095 589.361,294.931 589.572,291.871 589.782,294.656 589.992,308.769 590.202,338.052 590.413,382.084 590.623,435.723 590.833,492.011 591.043,546.662 591.254,600.867 591.464,658.645 591.674,721.546 592.095,856.334 592.515,986.39 592.936,1098.57 593.356,1191.19 593.777,1268.25 594.198,1329.66 594.618,1369.93 595.039,1384.24 595.459,1376.32 595.88,1357.91 596.3,1338.45 596.721,1316.69 597.141,1285.3 597.562,1243.13 597.983,1202.65 598.403,1178.46 598.824,1166.23 599.244,1141.49 599.665,1096.41 600.085,1048.24 600.506,1016.32 600.926,995.117 601.347,961.292 601.767,905.107 602.188,839.678 602.609,780.35 603.029,728.317 603.45,673.057 603.87,608.014 604.291,538.09 604.711,474.6 605.132,422.508 605.552,376.715 605.973,328.604 606.394,277.506 607.002,217.345 607.611,178.421 608.22,153.947 608.829,130.783 609.438,104.914 610.047,86.2939 610.655,86.1857 611.264,102.939 611.873,117.931 612.482,118.82 613.091,124.179 613.7,167.586 614.308,231.545 614.917,287.363 615.526,324.267 616.135,360.723 616.744,420.547 617.353,503.87 617.961,581.447 618.57,626.233 619.179,673.129 619.788,738.222 620.397,807.932 621.006,869.05 622.223,974.816 623.289,1059.29 624.355,1135.7 625.421,1200.33 626.487,1250.9 627.552,1287.68 628.618,1311.76 629.684,1324.02 631.816,1315.73 633.734,1278.07 635.653,1221.39 637.571,1153.01 639.49,1079.91 641.409,1009.07 643.327,942.527 645.246,884.085 647.164,833.612 649.083,790.686 651.001,758.331 652.92,733.208 654.838,717.82 656.757,710.586 658.675,710.31 660.594,720.99 662.513,737.333 664.431,762.2 666.35,793.72 668.268,827.973 670.187,867.011 672.105,906.846 674.024,944.859 675.942,983.024 677.861,1012.62 679.779,1040.15 681.698,1060.35 683.616,1072.9 685.535,1080.24 687.454,1078.46 689.372,1072.17 693.209,1044.15 696.663,1009.86 700.116,974.89 703.569,945.49 707.023,926.5 710.476,920.557 713.929,928.221 717.383,947.435 720.836,974.574 724.289,1005.16 727.743,1034.7 731.196,1059.47 734.65,1077.28 738.103,1087.27 741.556,1089.17 745.01,1084.26 748.463,1075.95 751.571,1067.42 754.679,1059.46 757.787,1053.64 760.895,1051.18 764.003,1052.67 767.111,1058.08 770.219,1066.75 773.327,1077.68 776.435,1089.75 779.543,1101.85 782.651,1112.95 785.76,1121.97 788.868,1128.2 791.976,1132.33 795.084,1134.75 798.192,1135.2 801.3,1133.94 804.408,1132.15 807.516,1130.99 810.624,1130.49 816.84,1132.48 823.056,1138.46 829.272,1147.29 835.488,1156.87 841.704,1165.41 847.92,1171.28 854.136,1173.9 860.352,1173.87 866.568,1172.64 872.784,1171.85 879.001,1172.63 885.217,1175.31 897.649,1182.52 908.558,1184.34 919.468,1179.92 930.377,1172.39 941.287,1167.96 952.196,1166.79 963.106,1163.77 974.015,1157.15 984.925,1148.06 995.834,1138.56 1006.74,1129.82 1017.65,1122.04 1028.56,1114.39 1039.47,1105.7 1050.38,1095.61 1061.29,1084.74 1072.2,1074.46 1083.11,1065.83 1094.02,1058.35 1104.93,1050.22 1115.84,1040.44 1125.2,1031.71 1133.63,1024.82 1142.05,1019.3 1150.48,1014.78 1158.9,1010.55 1167.33,1006 1175.76,1000.71 1184.18,995.45 1192.61,990.684 1201.03,986.738 1217.89,980.924 1234.74,976.662 1251.59,972.956 1268.44,970.49 1285.29,970.206 1302.14,971.359 1319,973.015 1335.85,975.59 1352.7,979.964 1369.55,985.489 1386.4,991.093 1403.26,997.375 1420.11,1004.8 1436.96,1012.86 1453.81,1021.13 1470.66,1029.49 1487.51,1038.17 1504.37,1047.13 1521.22,1055.98 1538.07,1064.58 1554.92,1073.16 1588.62,1089.78 1618.96,1103.76 1649.29,1116.68 1679.62,1128.51 1709.96,1139.25 1740.29,1148.87 1770.62,1157.42 1800.96,1164.95 1831.29,1171.53 1861.62,1177.22 1891.96,1182.01 1922.29,1185.91 1952.62,1188.9 1982.96,1190.94 2013.29,1191.94 2043.62,1191.81 2073.96,1190.52 2104.29,1188.07 2161.56,1180.12 2218.84,1167.97 2269.86,1154.17 "/>
<polyline clip-path="url(#clip632)" style="stroke:#e26f46; stroke-linecap:round; stroke-linejoin:round; stroke-width:4; stroke-opacity:1; fill:none" points="336.823,300.963 394.099,300.963 451.374,300.963 508.65,300.963 565.925,300.963 588.836,300.963 588.868,937.721 588.901,927.266 588.966,906.438 589.049,880.172 589.132,854.371 589.215,829.237 589.298,804.943 589.381,781.639 589.497,750.868 589.614,722.42 589.73,696.355 589.846,672.618 589.963,651.061 590.195,613.611 590.428,581.791 590.66,553.239 590.893,526.352 591.125,500.562 591.358,476.127 591.59,452.996 591.823,431.453 592.056,411.588 592.288,393.894 592.521,378.6 592.753,365.679 592.986,354.903 593.451,338.342 593.916,326.013 594.381,316.542 594.846,310.058 595.311,307.137 595.777,307.81 596.242,311.393 596.707,316.921 597.637,332.881 598.474,352.565 599.311,376.614 600.149,404.247 600.986,434.608 602.66,501.028 604.335,570.961 606.009,640.34 607.684,705.989 609.191,759.925 610.698,807.644 612.205,848.325 613.712,881.62 615.219,907.558 616.726,926.389 619.739,944.845 622.422,943.897 625.105,931.84 627.787,913.696 630.47,893.805 633.153,875.532 635.835,861.082 638.518,851.527 643.883,847.499 648.712,857.115 653.541,872.591 658.369,888.977 663.198,903.562 668.027,915.147 672.856,923.729 677.684,930.272 682.513,936.377 687.342,943.287 692.17,950.623 696.999,958.343 701.828,966.603 706.657,975.018 716.314,991.817 724.53,1005.82 732.746,1019.36 749.179,1045.18 763.583,1066.57 777.987,1086.69 792.392,1105.25 806.796,1121.96 821.2,1136.65 835.605,1149.17 864.413,1167.48 893.222,1176.48 922.031,1176.46 950.839,1168.37 979.648,1153.65 1008.46,1133.94 1037.27,1110.95 1066.07,1086.44 1094.88,1061.72 1123.69,1038.51 1152.5,1017.52 1181.31,999.733 1206.77,987.187 1232.24,977.829 1257.7,971.802 1283.16,968.998 1308.63,969.359 1344.07,974.614 1379.51,984.586 1414.96,998.467 1450.4,1015.18 1485.84,1033.39 1521.28,1052.2 1556.73,1071.12 1582.36,1084.26 1607.98,1096.82 1633.61,1108.67 1659.24,1119.71 1684.87,1129.92 1710.5,1139.29 1761.75,1155.57 1813.01,1168.74 1864.27,1179.02 1909.4,1185.81 1950.01,1190.13 1986.57,1192.49 2023.13,1193.32 2059.68,1192.52 2096.24,1190.01 2132.79,1185.75 2169.35,1179.73 2212.34,1170.52 2255.34,1159.25 2294.04,1147.66 "/>
<path clip-path="url(#clip630)" d="M1823.2 248.629 L2283.6 248.629 L2283.6 93.1086 L1823.2 93.1086  Z" fill="#ffffff" fill-rule="evenodd" fill-opacity="1"/>
<polyline clip-path="url(#clip630)" style="stroke:#000000; stroke-linecap:round; stroke-linejoin:round; stroke-width:4; stroke-opacity:1; fill:none" points="1823.2,248.629 2283.6,248.629 2283.6,93.1086 1823.2,93.1086 1823.2,248.629 "/>
<polyline clip-path="url(#clip630)" style="stroke:#009af9; stroke-linecap:round; stroke-linejoin:round; stroke-width:4; stroke-opacity:1; fill:none" points="1846.25,144.949 1984.56,144.949 "/>
<path clip-path="url(#clip630)" d="M2020.81 162.229 L2007.61 127.669 L2012.5 127.669 L2023.44 156.766 L2034.42 127.669 L2039.28 127.669 L2026.11 162.229 L2020.81 162.229 Z" fill="#000000" fill-rule="nonzero" fill-opacity="1" /><path clip-path="url(#clip630)" d="M2063.84 170.099 L2063.84 173.409 L2039.21 173.409 L2039.21 170.099 L2063.84 170.099 Z" fill="#000000" fill-rule="nonzero" fill-opacity="1" /><path clip-path="url(#clip630)" d="M2084.9 148.965 Q2084.9 144.335 2082.98 141.789 Q2081.08 139.243 2077.63 139.243 Q2074.21 139.243 2072.29 141.789 Q2070.39 144.335 2070.39 148.965 Q2070.39 153.571 2072.29 156.118 Q2074.21 158.664 2077.63 158.664 Q2081.08 158.664 2082.98 156.118 Q2084.9 153.571 2084.9 148.965 M2089.16 159.011 Q2089.16 165.631 2086.22 168.849 Q2083.28 172.09 2077.22 172.09 Q2074.97 172.09 2072.98 171.742 Q2070.99 171.418 2069.12 170.724 L2069.12 166.58 Q2070.99 167.599 2072.82 168.085 Q2074.65 168.571 2076.55 168.571 Q2080.74 168.571 2082.82 166.372 Q2084.9 164.196 2084.9 159.775 L2084.9 157.668 Q2083.58 159.96 2081.52 161.094 Q2079.46 162.229 2076.59 162.229 Q2071.82 162.229 2068.91 158.594 Q2065.99 154.96 2065.99 148.965 Q2065.99 142.946 2068.91 139.312 Q2071.82 135.678 2076.59 135.678 Q2079.46 135.678 2081.52 136.812 Q2083.58 137.946 2084.9 140.238 L2084.9 136.303 L2089.16 136.303 L2089.16 159.011 Z" fill="#000000" fill-rule="nonzero" fill-opacity="1" /><path clip-path="url(#clip630)" d="M2120.11 148.201 L2120.11 150.284 L2100.53 150.284 Q2100.8 154.682 2103.17 156.997 Q2105.55 159.289 2109.79 159.289 Q2112.24 159.289 2114.53 158.687 Q2116.85 158.085 2119.11 156.881 L2119.11 160.909 Q2116.82 161.881 2114.42 162.391 Q2112.01 162.9 2109.53 162.9 Q2103.33 162.9 2099.69 159.289 Q2096.08 155.678 2096.08 149.52 Q2096.08 143.155 2099.51 139.428 Q2102.96 135.678 2108.79 135.678 Q2114.02 135.678 2117.05 139.057 Q2120.11 142.414 2120.11 148.201 M2115.85 146.951 Q2115.8 143.456 2113.88 141.372 Q2111.99 139.289 2108.84 139.289 Q2105.27 139.289 2103.12 141.303 Q2100.99 143.317 2100.67 146.974 L2115.85 146.951 Z" fill="#000000" fill-rule="nonzero" fill-opacity="1" /><path clip-path="url(#clip630)" d="M2148.65 146.581 L2148.65 162.229 L2144.39 162.229 L2144.39 146.719 Q2144.39 143.039 2142.96 141.21 Q2141.52 139.382 2138.65 139.382 Q2135.2 139.382 2133.21 141.581 Q2131.22 143.78 2131.22 147.576 L2131.22 162.229 L2126.94 162.229 L2126.94 136.303 L2131.22 136.303 L2131.22 140.331 Q2132.75 137.993 2134.81 136.835 Q2136.89 135.678 2139.6 135.678 Q2144.07 135.678 2146.36 138.456 Q2148.65 141.21 2148.65 146.581 Z" fill="#000000" fill-rule="nonzero" fill-opacity="1" /><path clip-path="url(#clip630)" d="M2176.85 170.099 L2176.85 173.409 L2152.22 173.409 L2152.22 170.099 L2176.85 170.099 Z" fill="#000000" fill-rule="nonzero" fill-opacity="1" /><path clip-path="url(#clip630)" d="M2197.91 140.238 L2197.91 126.21 L2202.17 126.21 L2202.17 162.229 L2197.91 162.229 L2197.91 158.34 Q2196.57 160.655 2194.51 161.789 Q2192.47 162.9 2189.6 162.9 Q2184.9 162.9 2181.94 159.15 Q2179 155.4 2179 149.289 Q2179 143.178 2181.94 139.428 Q2184.9 135.678 2189.6 135.678 Q2192.47 135.678 2194.51 136.812 Q2196.57 137.923 2197.91 140.238 M2183.4 149.289 Q2183.4 153.988 2185.32 156.673 Q2187.26 159.335 2190.64 159.335 Q2194.02 159.335 2195.97 156.673 Q2197.91 153.988 2197.91 149.289 Q2197.91 144.59 2195.97 141.928 Q2194.02 139.243 2190.64 139.243 Q2187.26 139.243 2185.32 141.928 Q2183.4 144.59 2183.4 149.289 Z" fill="#000000" fill-rule="nonzero" fill-opacity="1" /><path clip-path="url(#clip630)" d="M2221.73 164.636 Q2219.92 169.266 2218.21 170.678 Q2216.5 172.09 2213.63 172.09 L2210.23 172.09 L2210.23 168.525 L2212.73 168.525 Q2214.48 168.525 2215.46 167.692 Q2216.43 166.858 2217.61 163.756 L2218.37 161.812 L2207.89 136.303 L2212.4 136.303 L2220.5 156.581 L2228.61 136.303 L2233.12 136.303 L2221.73 164.636 Z" fill="#000000" fill-rule="nonzero" fill-opacity="1" /><path clip-path="url(#clip630)" d="M2260.55 146.581 L2260.55 162.229 L2256.29 162.229 L2256.29 146.719 Q2256.29 143.039 2254.85 141.21 Q2253.42 139.382 2250.55 139.382 Q2247.1 139.382 2245.11 141.581 Q2243.12 143.78 2243.12 147.576 L2243.12 162.229 L2238.84 162.229 L2238.84 136.303 L2243.12 136.303 L2243.12 140.331 Q2244.65 137.993 2246.71 136.835 Q2248.79 135.678 2251.5 135.678 Q2255.97 135.678 2258.26 138.456 Q2260.55 141.21 2260.55 146.581 Z" fill="#000000" fill-rule="nonzero" fill-opacity="1" /><polyline clip-path="url(#clip630)" style="stroke:#e26f46; stroke-linecap:round; stroke-linejoin:round; stroke-width:4; stroke-opacity:1; fill:none" points="1846.25,196.789 1984.56,196.789 "/>
<path clip-path="url(#clip630)" d="M2020.81 214.069 L2007.61 179.509 L2012.5 179.509 L2023.44 208.606 L2034.42 179.509 L2039.28 179.509 L2026.11 214.069 L2020.81 214.069 Z" fill="#000000" fill-rule="nonzero" fill-opacity="1" /><path clip-path="url(#clip630)" d="M2063.84 221.939 L2063.84 225.249 L2039.21 225.249 L2039.21 221.939 L2063.84 221.939 Z" fill="#000000" fill-rule="nonzero" fill-opacity="1" /><path clip-path="url(#clip630)" d="M2084.9 200.805 Q2084.9 196.175 2082.98 193.629 Q2081.08 191.083 2077.63 191.083 Q2074.21 191.083 2072.29 193.629 Q2070.39 196.175 2070.39 200.805 Q2070.39 205.411 2072.29 207.958 Q2074.21 210.504 2077.63 210.504 Q2081.08 210.504 2082.98 207.958 Q2084.9 205.411 2084.9 200.805 M2089.16 210.851 Q2089.16 217.471 2086.22 220.689 Q2083.28 223.93 2077.22 223.93 Q2074.97 223.93 2072.98 223.582 Q2070.99 223.258 2069.12 222.564 L2069.12 218.42 Q2070.99 219.439 2072.82 219.925 Q2074.65 220.411 2076.55 220.411 Q2080.74 220.411 2082.82 218.212 Q2084.9 216.036 2084.9 211.615 L2084.9 209.508 Q2083.58 211.8 2081.52 212.934 Q2079.46 214.069 2076.59 214.069 Q2071.82 214.069 2068.91 210.434 Q2065.99 206.8 2065.99 200.805 Q2065.99 194.786 2068.91 191.152 Q2071.82 187.518 2076.59 187.518 Q2079.46 187.518 2081.52 188.652 Q2083.58 189.786 2084.9 192.078 L2084.9 188.143 L2089.16 188.143 L2089.16 210.851 Z" fill="#000000" fill-rule="nonzero" fill-opacity="1" /><path clip-path="url(#clip630)" d="M2120.11 200.041 L2120.11 202.124 L2100.53 202.124 Q2100.8 206.522 2103.17 208.837 Q2105.55 211.129 2109.79 211.129 Q2112.24 211.129 2114.53 210.527 Q2116.85 209.925 2119.11 208.721 L2119.11 212.749 Q2116.82 213.721 2114.42 214.231 Q2112.01 214.74 2109.53 214.74 Q2103.33 214.74 2099.69 211.129 Q2096.08 207.518 2096.08 201.36 Q2096.08 194.995 2099.51 191.268 Q2102.96 187.518 2108.79 187.518 Q2114.02 187.518 2117.05 190.897 Q2120.11 194.254 2120.11 200.041 M2115.85 198.791 Q2115.8 195.296 2113.88 193.212 Q2111.99 191.129 2108.84 191.129 Q2105.27 191.129 2103.12 193.143 Q2100.99 195.157 2100.67 198.814 L2115.85 198.791 Z" fill="#000000" fill-rule="nonzero" fill-opacity="1" /><path clip-path="url(#clip630)" d="M2148.65 198.421 L2148.65 214.069 L2144.39 214.069 L2144.39 198.559 Q2144.39 194.879 2142.96 193.05 Q2141.52 191.222 2138.65 191.222 Q2135.2 191.222 2133.21 193.421 Q2131.22 195.62 2131.22 199.416 L2131.22 214.069 L2126.94 214.069 L2126.94 188.143 L2131.22 188.143 L2131.22 192.171 Q2132.75 189.833 2134.81 188.675 Q2136.89 187.518 2139.6 187.518 Q2144.07 187.518 2146.36 190.296 Q2148.65 193.05 2148.65 198.421 Z" fill="#000000" fill-rule="nonzero" fill-opacity="1" /><path clip-path="url(#clip630)" d="M2176.85 221.939 L2176.85 225.249 L2152.22 225.249 L2152.22 221.939 L2176.85 221.939 Z" fill="#000000" fill-rule="nonzero" fill-opacity="1" /><path clip-path="url(#clip630)" d="M2197.38 188.907 L2197.38 192.934 Q2195.57 192.009 2193.63 191.546 Q2191.68 191.083 2189.6 191.083 Q2186.43 191.083 2184.83 192.055 Q2183.26 193.027 2183.26 194.971 Q2183.26 196.453 2184.39 197.309 Q2185.53 198.143 2188.95 198.907 L2190.41 199.231 Q2194.95 200.203 2196.85 201.985 Q2198.77 203.745 2198.77 206.916 Q2198.77 210.527 2195.9 212.633 Q2193.05 214.74 2188.05 214.74 Q2185.97 214.74 2183.7 214.323 Q2181.45 213.93 2178.95 213.12 L2178.95 208.721 Q2181.31 209.948 2183.61 210.573 Q2185.9 211.175 2188.14 211.175 Q2191.15 211.175 2192.77 210.157 Q2194.39 209.115 2194.39 207.24 Q2194.39 205.504 2193.21 204.578 Q2192.05 203.652 2188.1 202.796 L2186.61 202.448 Q2182.66 201.615 2180.9 199.902 Q2179.14 198.166 2179.14 195.157 Q2179.14 191.499 2181.73 189.509 Q2184.32 187.518 2189.09 187.518 Q2191.45 187.518 2193.54 187.865 Q2195.62 188.212 2197.38 188.907 Z" fill="#000000" fill-rule="nonzero" fill-opacity="1" /><path clip-path="url(#clip630)" d="M2209.76 180.782 L2209.76 188.143 L2218.54 188.143 L2218.54 191.453 L2209.76 191.453 L2209.76 205.527 Q2209.76 208.698 2210.62 209.601 Q2211.5 210.504 2214.16 210.504 L2218.54 210.504 L2218.54 214.069 L2214.16 214.069 Q2209.23 214.069 2207.36 212.24 Q2205.48 210.388 2205.48 205.527 L2205.48 191.453 L2202.36 191.453 L2202.36 188.143 L2205.48 188.143 L2205.48 180.782 L2209.76 180.782 Z" fill="#000000" fill-rule="nonzero" fill-opacity="1" /></svg>
