<?xml version="1.0" encoding="utf-8"?>
<svg xmlns="http://www.w3.org/2000/svg" xmlns:xlink="http://www.w3.org/1999/xlink" width="600" height="400" viewBox="0 0 2400 1600">
<defs>
  <clipPath id="clip430">
    <rect x="0" y="0" width="2400" height="1600"/>
  </clipPath>
</defs>
<path clip-path="url(#clip430)" d="M0 1600 L2400 1600 L2400 0 L0 0  Z" fill="#ffffff" fill-rule="evenodd" fill-opacity="1"/>
<defs>
  <clipPath id="clip431">
    <rect x="480" y="0" width="1681" height="1600"/>
  </clipPath>
</defs>
<path clip-path="url(#clip430)" d="M249.542 1423.18 L2352.76 1423.18 L2352.76 47.2441 L249.542 47.2441  Z" fill="#ffffff" fill-rule="evenodd" fill-opacity="1"/>
<defs>
  <clipPath id="clip432">
    <rect x="249" y="47" width="2104" height="1377"/>
  </clipPath>
</defs>
<polyline clip-path="url(#clip432)" style="stroke:#000000; stroke-linecap:round; stroke-linejoin:round; stroke-width:2; stroke-opacity:0.1; fill:none" points="309.067,1423.18 309.067,47.2441 "/>
<polyline clip-path="url(#clip432)" style="stroke:#000000; stroke-linecap:round; stroke-linejoin:round; stroke-width:2; stroke-opacity:0.1; fill:none" points="970.455,1423.18 970.455,47.2441 "/>
<polyline clip-path="url(#clip432)" style="stroke:#000000; stroke-linecap:round; stroke-linejoin:round; stroke-width:2; stroke-opacity:0.1; fill:none" points="1631.84,1423.18 1631.84,47.2441 "/>
<polyline clip-path="url(#clip432)" style="stroke:#000000; stroke-linecap:round; stroke-linejoin:round; stroke-width:2; stroke-opacity:0.1; fill:none" points="2293.23,1423.18 2293.23,47.2441 "/>
<polyline clip-path="url(#clip430)" style="stroke:#000000; stroke-linecap:round; stroke-linejoin:round; stroke-width:4; stroke-opacity:1; fill:none" points="249.542,1423.18 2352.76,1423.18 "/>
<polyline clip-path="url(#clip430)" style="stroke:#000000; stroke-linecap:round; stroke-linejoin:round; stroke-width:4; stroke-opacity:1; fill:none" points="309.067,1423.18 309.067,1404.28 "/>
<polyline clip-path="url(#clip430)" style="stroke:#000000; stroke-linecap:round; stroke-linejoin:round; stroke-width:4; stroke-opacity:1; fill:none" points="970.455,1423.18 970.455,1404.28 "/>
<polyline clip-path="url(#clip430)" style="stroke:#000000; stroke-linecap:round; stroke-linejoin:round; stroke-width:4; stroke-opacity:1; fill:none" points="1631.84,1423.18 1631.84,1404.28 "/>
<polyline clip-path="url(#clip430)" style="stroke:#000000; stroke-linecap:round; stroke-linejoin:round; stroke-width:4; stroke-opacity:1; fill:none" points="2293.23,1423.18 2293.23,1404.28 "/>
<path clip-path="url(#clip430)" d="M309.067 1454.1 Q305.456 1454.1 303.627 1457.66 Q301.822 1461.2 301.822 1468.33 Q301.822 1475.44 303.627 1479.01 Q305.456 1482.55 309.067 1482.55 Q312.701 1482.55 314.507 1479.01 Q316.335 1475.44 316.335 1468.33 Q316.335 1461.2 314.507 1457.66 Q312.701 1454.1 309.067 1454.1 M309.067 1450.39 Q314.877 1450.39 317.933 1455 Q321.011 1459.58 321.011 1468.33 Q321.011 1477.06 317.933 1481.67 Q314.877 1486.25 309.067 1486.25 Q303.257 1486.25 300.178 1481.67 Q297.123 1477.06 297.123 1468.33 Q297.123 1459.58 300.178 1455 Q303.257 1450.39 309.067 1450.39 Z" fill="#000000" fill-rule="nonzero" fill-opacity="1" /><path clip-path="url(#clip430)" d="M945.143 1481.64 L952.781 1481.64 L952.781 1455.28 L944.471 1456.95 L944.471 1452.69 L952.735 1451.02 L957.411 1451.02 L957.411 1481.64 L965.05 1481.64 L965.05 1485.58 L945.143 1485.58 L945.143 1481.64 Z" fill="#000000" fill-rule="nonzero" fill-opacity="1" /><path clip-path="url(#clip430)" d="M984.494 1454.1 Q980.883 1454.1 979.054 1457.66 Q977.249 1461.2 977.249 1468.33 Q977.249 1475.44 979.054 1479.01 Q980.883 1482.55 984.494 1482.55 Q988.128 1482.55 989.934 1479.01 Q991.763 1475.44 991.763 1468.33 Q991.763 1461.2 989.934 1457.66 Q988.128 1454.1 984.494 1454.1 M984.494 1450.39 Q990.304 1450.39 993.36 1455 Q996.439 1459.58 996.439 1468.33 Q996.439 1477.06 993.36 1481.67 Q990.304 1486.25 984.494 1486.25 Q978.684 1486.25 975.605 1481.67 Q972.55 1477.06 972.55 1468.33 Q972.55 1459.58 975.605 1455 Q978.684 1450.39 984.494 1450.39 Z" fill="#000000" fill-rule="nonzero" fill-opacity="1" /><path clip-path="url(#clip430)" d="M1610.62 1481.64 L1626.94 1481.64 L1626.94 1485.58 L1604.99 1485.58 L1604.99 1481.64 Q1607.65 1478.89 1612.24 1474.26 Q1616.84 1469.61 1618.02 1468.27 Q1620.27 1465.74 1621.15 1464.01 Q1622.05 1462.25 1622.05 1460.56 Q1622.05 1457.8 1620.11 1456.07 Q1618.19 1454.33 1615.08 1454.33 Q1612.88 1454.33 1610.43 1455.09 Q1608 1455.86 1605.22 1457.41 L1605.22 1452.69 Q1608.05 1451.55 1610.5 1450.97 Q1612.95 1450.39 1614.99 1450.39 Q1620.36 1450.39 1623.56 1453.08 Q1626.75 1455.77 1626.75 1460.26 Q1626.75 1462.39 1625.94 1464.31 Q1625.15 1466.2 1623.05 1468.8 Q1622.47 1469.47 1619.37 1472.69 Q1616.26 1475.88 1610.62 1481.64 Z" fill="#000000" fill-rule="nonzero" fill-opacity="1" /><path clip-path="url(#clip430)" d="M1646.75 1454.1 Q1643.14 1454.1 1641.31 1457.66 Q1639.5 1461.2 1639.5 1468.33 Q1639.5 1475.44 1641.31 1479.01 Q1643.14 1482.55 1646.75 1482.55 Q1650.38 1482.55 1652.19 1479.01 Q1654.02 1475.44 1654.02 1468.33 Q1654.02 1461.2 1652.19 1457.66 Q1650.38 1454.1 1646.75 1454.1 M1646.75 1450.39 Q1652.56 1450.39 1655.62 1455 Q1658.69 1459.58 1658.69 1468.33 Q1658.69 1477.06 1655.62 1481.67 Q1652.56 1486.25 1646.75 1486.25 Q1640.94 1486.25 1637.86 1481.67 Q1634.81 1477.06 1634.81 1468.33 Q1634.81 1459.58 1637.86 1455 Q1640.94 1450.39 1646.75 1450.39 Z" fill="#000000" fill-rule="nonzero" fill-opacity="1" /><path clip-path="url(#clip430)" d="M2282.07 1466.95 Q2285.43 1467.66 2287.31 1469.93 Q2289.2 1472.2 2289.2 1475.53 Q2289.2 1480.65 2285.68 1483.45 Q2282.17 1486.25 2275.68 1486.25 Q2273.51 1486.25 2271.19 1485.81 Q2268.9 1485.39 2266.45 1484.54 L2266.45 1480.02 Q2268.39 1481.16 2270.71 1481.74 Q2273.02 1482.32 2275.55 1482.32 Q2279.94 1482.32 2282.24 1480.58 Q2284.55 1478.84 2284.55 1475.53 Q2284.55 1472.48 2282.4 1470.77 Q2280.27 1469.03 2276.45 1469.03 L2272.42 1469.03 L2272.42 1465.19 L2276.63 1465.19 Q2280.08 1465.19 2281.91 1463.82 Q2283.74 1462.43 2283.74 1459.84 Q2283.74 1457.18 2281.84 1455.77 Q2279.97 1454.33 2276.45 1454.33 Q2274.53 1454.33 2272.33 1454.75 Q2270.13 1455.16 2267.49 1456.04 L2267.49 1451.88 Q2270.15 1451.14 2272.47 1450.77 Q2274.81 1450.39 2276.87 1450.39 Q2282.19 1450.39 2285.29 1452.83 Q2288.39 1455.23 2288.39 1459.35 Q2288.39 1462.22 2286.75 1464.21 Q2285.11 1466.18 2282.07 1466.95 Z" fill="#000000" fill-rule="nonzero" fill-opacity="1" /><path clip-path="url(#clip430)" d="M2308.07 1454.1 Q2304.46 1454.1 2302.63 1457.66 Q2300.82 1461.2 2300.82 1468.33 Q2300.82 1475.44 2302.63 1479.01 Q2304.46 1482.55 2308.07 1482.55 Q2311.7 1482.55 2313.51 1479.01 Q2315.34 1475.44 2315.34 1468.33 Q2315.34 1461.2 2313.51 1457.66 Q2311.7 1454.1 2308.07 1454.1 M2308.07 1450.39 Q2313.88 1450.39 2316.93 1455 Q2320.01 1459.58 2320.01 1468.33 Q2320.01 1477.06 2316.93 1481.67 Q2313.88 1486.25 2308.07 1486.25 Q2302.26 1486.25 2299.18 1481.67 Q2296.12 1477.06 2296.12 1468.33 Q2296.12 1459.58 2299.18 1455 Q2302.26 1450.39 2308.07 1450.39 Z" fill="#000000" fill-rule="nonzero" fill-opacity="1" /><path clip-path="url(#clip430)" d="M1240.31 1522.27 L1240.31 1532.4 L1252.37 1532.4 L1252.37 1536.95 L1240.31 1536.95 L1240.31 1556.3 Q1240.31 1560.66 1241.49 1561.9 Q1242.7 1563.14 1246.36 1563.14 L1252.37 1563.14 L1252.37 1568.04 L1246.36 1568.04 Q1239.58 1568.04 1237 1565.53 Q1234.42 1562.98 1234.42 1556.3 L1234.42 1536.95 L1230.12 1536.95 L1230.12 1532.4 L1234.42 1532.4 L1234.42 1522.27 L1240.31 1522.27 Z" fill="#000000" fill-rule="nonzero" fill-opacity="1" /><path clip-path="url(#clip430)" d="M1260.07 1532.4 L1265.93 1532.4 L1265.93 1568.04 L1260.07 1568.04 L1260.07 1532.4 M1260.07 1518.52 L1265.93 1518.52 L1265.93 1525.93 L1260.07 1525.93 L1260.07 1518.52 Z" fill="#000000" fill-rule="nonzero" fill-opacity="1" /><path clip-path="url(#clip430)" d="M1305.94 1539.24 Q1308.14 1535.29 1311.19 1533.41 Q1314.25 1531.54 1318.38 1531.54 Q1323.95 1531.54 1326.98 1535.45 Q1330 1539.33 1330 1546.53 L1330 1568.04 L1324.11 1568.04 L1324.11 1546.72 Q1324.11 1541.59 1322.3 1539.11 Q1320.48 1536.63 1316.76 1536.63 Q1312.21 1536.63 1309.57 1539.65 Q1306.93 1542.68 1306.93 1547.9 L1306.93 1568.04 L1301.04 1568.04 L1301.04 1546.72 Q1301.04 1541.56 1299.22 1539.11 Q1297.41 1536.63 1293.62 1536.63 Q1289.13 1536.63 1286.49 1539.68 Q1283.85 1542.71 1283.85 1547.9 L1283.85 1568.04 L1277.96 1568.04 L1277.96 1532.4 L1283.85 1532.4 L1283.85 1537.93 Q1285.86 1534.66 1288.66 1533.1 Q1291.46 1531.54 1295.31 1531.54 Q1299.19 1531.54 1301.9 1533.51 Q1304.63 1535.48 1305.94 1539.24 Z" fill="#000000" fill-rule="nonzero" fill-opacity="1" /><path clip-path="url(#clip430)" d="M1372.17 1548.76 L1372.17 1551.62 L1345.25 1551.62 Q1345.63 1557.67 1348.88 1560.85 Q1352.15 1564 1357.98 1564 Q1361.35 1564 1364.5 1563.17 Q1367.69 1562.35 1370.81 1560.69 L1370.81 1566.23 Q1367.65 1567.57 1364.34 1568.27 Q1361.03 1568.97 1357.63 1568.97 Q1349.1 1568.97 1344.1 1564 Q1339.14 1559.04 1339.14 1550.57 Q1339.14 1541.82 1343.85 1536.69 Q1348.59 1531.54 1356.61 1531.54 Q1363.8 1531.54 1367.97 1536.18 Q1372.17 1540.8 1372.17 1548.76 M1366.32 1547.04 Q1366.25 1542.23 1363.61 1539.37 Q1361 1536.5 1356.67 1536.5 Q1351.77 1536.5 1348.81 1539.27 Q1345.88 1542.04 1345.44 1547.07 L1366.32 1547.04 Z" fill="#000000" fill-rule="nonzero" fill-opacity="1" /><polyline clip-path="url(#clip432)" style="stroke:#000000; stroke-linecap:round; stroke-linejoin:round; stroke-width:2; stroke-opacity:0.1; fill:none" points="249.542,1341.34 2352.76,1341.34 "/>
<polyline clip-path="url(#clip432)" style="stroke:#000000; stroke-linecap:round; stroke-linejoin:round; stroke-width:2; stroke-opacity:0.1; fill:none" points="249.542,1050.54 2352.76,1050.54 "/>
<polyline clip-path="url(#clip432)" style="stroke:#000000; stroke-linecap:round; stroke-linejoin:round; stroke-width:2; stroke-opacity:0.1; fill:none" points="249.542,759.744 2352.76,759.744 "/>
<polyline clip-path="url(#clip432)" style="stroke:#000000; stroke-linecap:round; stroke-linejoin:round; stroke-width:2; stroke-opacity:0.1; fill:none" points="249.542,468.946 2352.76,468.946 "/>
<polyline clip-path="url(#clip432)" style="stroke:#000000; stroke-linecap:round; stroke-linejoin:round; stroke-width:2; stroke-opacity:0.1; fill:none" points="249.542,178.149 2352.76,178.149 "/>
<polyline clip-path="url(#clip430)" style="stroke:#000000; stroke-linecap:round; stroke-linejoin:round; stroke-width:4; stroke-opacity:1; fill:none" points="249.542,1423.18 249.542,47.2441 "/>
<polyline clip-path="url(#clip430)" style="stroke:#000000; stroke-linecap:round; stroke-linejoin:round; stroke-width:4; stroke-opacity:1; fill:none" points="249.542,1341.34 268.44,1341.34 "/>
<polyline clip-path="url(#clip430)" style="stroke:#000000; stroke-linecap:round; stroke-linejoin:round; stroke-width:4; stroke-opacity:1; fill:none" points="249.542,1050.54 268.44,1050.54 "/>
<polyline clip-path="url(#clip430)" style="stroke:#000000; stroke-linecap:round; stroke-linejoin:round; stroke-width:4; stroke-opacity:1; fill:none" points="249.542,759.744 268.44,759.744 "/>
<polyline clip-path="url(#clip430)" style="stroke:#000000; stroke-linecap:round; stroke-linejoin:round; stroke-width:4; stroke-opacity:1; fill:none" points="249.542,468.946 268.44,468.946 "/>
<polyline clip-path="url(#clip430)" style="stroke:#000000; stroke-linecap:round; stroke-linejoin:round; stroke-width:4; stroke-opacity:1; fill:none" points="249.542,178.149 268.44,178.149 "/>
<path clip-path="url(#clip430)" d="M127.107 1327.14 Q123.496 1327.14 121.668 1330.7 Q119.862 1334.24 119.862 1341.37 Q119.862 1348.48 121.668 1352.04 Q123.496 1355.59 127.107 1355.59 Q130.742 1355.59 132.547 1352.04 Q134.376 1348.48 134.376 1341.37 Q134.376 1334.24 132.547 1330.7 Q130.742 1327.14 127.107 1327.14 M127.107 1323.43 Q132.917 1323.43 135.973 1328.04 Q139.052 1332.62 139.052 1341.37 Q139.052 1350.1 135.973 1354.71 Q132.917 1359.29 127.107 1359.29 Q121.297 1359.29 118.218 1354.71 Q115.163 1350.1 115.163 1341.37 Q115.163 1332.62 118.218 1328.04 Q121.297 1323.43 127.107 1323.43 Z" fill="#000000" fill-rule="nonzero" fill-opacity="1" /><path clip-path="url(#clip430)" d="M147.269 1352.74 L152.153 1352.74 L152.153 1358.62 L147.269 1358.62 L147.269 1352.74 Z" fill="#000000" fill-rule="nonzero" fill-opacity="1" /><path clip-path="url(#clip430)" d="M163.149 1354.68 L170.788 1354.68 L170.788 1328.32 L162.477 1329.98 L162.477 1325.73 L170.741 1324.06 L175.417 1324.06 L175.417 1354.68 L183.056 1354.68 L183.056 1358.62 L163.149 1358.62 L163.149 1354.68 Z" fill="#000000" fill-rule="nonzero" fill-opacity="1" /><path clip-path="url(#clip430)" d="M191.32 1324.06 L213.542 1324.06 L213.542 1326.05 L200.996 1358.62 L196.112 1358.62 L207.917 1327.99 L191.32 1327.99 L191.32 1324.06 Z" fill="#000000" fill-rule="nonzero" fill-opacity="1" /><path clip-path="url(#clip430)" d="M126.297 1036.34 Q122.686 1036.34 120.857 1039.9 Q119.052 1043.45 119.052 1050.58 Q119.052 1057.68 120.857 1061.25 Q122.686 1064.79 126.297 1064.79 Q129.931 1064.79 131.737 1061.25 Q133.566 1057.68 133.566 1050.58 Q133.566 1043.45 131.737 1039.9 Q129.931 1036.34 126.297 1036.34 M126.297 1032.64 Q132.107 1032.64 135.163 1037.24 Q138.242 1041.83 138.242 1050.58 Q138.242 1059.3 135.163 1063.91 Q132.107 1068.49 126.297 1068.49 Q120.487 1068.49 117.408 1063.91 Q114.353 1059.3 114.353 1050.58 Q114.353 1041.83 117.408 1037.24 Q120.487 1032.64 126.297 1032.64 Z" fill="#000000" fill-rule="nonzero" fill-opacity="1" /><path clip-path="url(#clip430)" d="M146.459 1061.94 L151.343 1061.94 L151.343 1067.82 L146.459 1067.82 L146.459 1061.94 Z" fill="#000000" fill-rule="nonzero" fill-opacity="1" /><path clip-path="url(#clip430)" d="M162.339 1063.89 L169.977 1063.89 L169.977 1037.52 L161.667 1039.19 L161.667 1034.93 L169.931 1033.26 L174.607 1033.26 L174.607 1063.89 L182.246 1063.89 L182.246 1067.82 L162.339 1067.82 L162.339 1063.89 Z" fill="#000000" fill-rule="nonzero" fill-opacity="1" /><path clip-path="url(#clip430)" d="M201.69 1051.41 Q198.357 1051.41 196.436 1053.19 Q194.538 1054.97 194.538 1058.1 Q194.538 1061.22 196.436 1063.01 Q198.357 1064.79 201.69 1064.79 Q205.024 1064.79 206.945 1063.01 Q208.866 1061.2 208.866 1058.1 Q208.866 1054.97 206.945 1053.19 Q205.047 1051.41 201.69 1051.41 M197.014 1049.42 Q194.005 1048.68 192.315 1046.62 Q190.649 1044.56 190.649 1041.59 Q190.649 1037.45 193.588 1035.04 Q196.551 1032.64 201.69 1032.64 Q206.852 1032.64 209.792 1035.04 Q212.732 1037.45 212.732 1041.59 Q212.732 1044.56 211.042 1046.62 Q209.375 1048.68 206.389 1049.42 Q209.769 1050.21 211.644 1052.5 Q213.542 1054.79 213.542 1058.1 Q213.542 1063.12 210.463 1065.81 Q207.408 1068.49 201.69 1068.49 Q195.973 1068.49 192.894 1065.81 Q189.838 1063.12 189.838 1058.1 Q189.838 1054.79 191.737 1052.5 Q193.635 1050.21 197.014 1049.42 M195.301 1042.03 Q195.301 1044.72 196.968 1046.22 Q198.658 1047.73 201.69 1047.73 Q204.699 1047.73 206.389 1046.22 Q208.102 1044.72 208.102 1042.03 Q208.102 1039.35 206.389 1037.84 Q204.699 1036.34 201.69 1036.34 Q198.658 1036.34 196.968 1037.84 Q195.301 1039.35 195.301 1042.03 Z" fill="#000000" fill-rule="nonzero" fill-opacity="1" /><path clip-path="url(#clip430)" d="M126.39 745.542 Q122.779 745.542 120.95 749.107 Q119.144 752.649 119.144 759.778 Q119.144 766.885 120.95 770.45 Q122.779 773.991 126.39 773.991 Q130.024 773.991 131.83 770.45 Q133.658 766.885 133.658 759.778 Q133.658 752.649 131.83 749.107 Q130.024 745.542 126.39 745.542 M126.39 741.839 Q132.2 741.839 135.255 746.445 Q138.334 751.029 138.334 759.778 Q138.334 768.505 135.255 773.112 Q132.2 777.695 126.39 777.695 Q120.58 777.695 117.501 773.112 Q114.445 768.505 114.445 759.778 Q114.445 751.029 117.501 746.445 Q120.58 741.839 126.39 741.839 Z" fill="#000000" fill-rule="nonzero" fill-opacity="1" /><path clip-path="url(#clip430)" d="M146.552 771.144 L151.436 771.144 L151.436 777.024 L146.552 777.024 L146.552 771.144 Z" fill="#000000" fill-rule="nonzero" fill-opacity="1" /><path clip-path="url(#clip430)" d="M162.431 773.089 L170.07 773.089 L170.07 746.723 L161.76 748.39 L161.76 744.13 L170.024 742.464 L174.7 742.464 L174.7 773.089 L182.338 773.089 L182.338 777.024 L162.431 777.024 L162.431 773.089 Z" fill="#000000" fill-rule="nonzero" fill-opacity="1" /><path clip-path="url(#clip430)" d="M191.922 776.306 L191.922 772.047 Q193.681 772.88 195.487 773.32 Q197.292 773.76 199.028 773.76 Q203.658 773.76 206.088 770.658 Q208.542 767.533 208.889 761.19 Q207.547 763.181 205.487 764.246 Q203.426 765.311 200.926 765.311 Q195.741 765.311 192.709 762.186 Q189.7 759.038 189.7 753.598 Q189.7 748.274 192.848 745.056 Q195.996 741.839 201.227 741.839 Q207.223 741.839 210.371 746.445 Q213.542 751.029 213.542 759.778 Q213.542 767.95 209.653 772.834 Q205.787 777.695 199.237 777.695 Q197.477 777.695 195.672 777.348 Q193.866 777.001 191.922 776.306 M201.227 761.653 Q204.375 761.653 206.204 759.501 Q208.056 757.348 208.056 753.598 Q208.056 749.871 206.204 747.718 Q204.375 745.542 201.227 745.542 Q198.079 745.542 196.227 747.718 Q194.399 749.871 194.399 753.598 Q194.399 757.348 196.227 759.501 Q198.079 761.653 201.227 761.653 Z" fill="#000000" fill-rule="nonzero" fill-opacity="1" /><path clip-path="url(#clip430)" d="M126.205 454.745 Q122.593 454.745 120.765 458.31 Q118.959 461.851 118.959 468.981 Q118.959 476.087 120.765 479.652 Q122.593 483.194 126.205 483.194 Q129.839 483.194 131.644 479.652 Q133.473 476.087 133.473 468.981 Q133.473 461.851 131.644 458.31 Q129.839 454.745 126.205 454.745 M126.205 451.041 Q132.015 451.041 135.07 455.648 Q138.149 460.231 138.149 468.981 Q138.149 477.708 135.07 482.314 Q132.015 486.898 126.205 486.898 Q120.394 486.898 117.316 482.314 Q114.26 477.708 114.26 468.981 Q114.26 460.231 117.316 455.648 Q120.394 451.041 126.205 451.041 Z" fill="#000000" fill-rule="nonzero" fill-opacity="1" /><path clip-path="url(#clip430)" d="M146.366 480.347 L151.251 480.347 L151.251 486.226 L146.366 486.226 L146.366 480.347 Z" fill="#000000" fill-rule="nonzero" fill-opacity="1" /><path clip-path="url(#clip430)" d="M165.464 482.291 L181.783 482.291 L181.783 486.226 L159.839 486.226 L159.839 482.291 Q162.501 479.536 167.084 474.907 Q171.69 470.254 172.871 468.912 Q175.116 466.388 175.996 464.652 Q176.899 462.893 176.899 461.203 Q176.899 458.449 174.954 456.712 Q173.033 454.976 169.931 454.976 Q167.732 454.976 165.278 455.74 Q162.848 456.504 160.07 458.055 L160.07 453.333 Q162.894 452.199 165.348 451.62 Q167.802 451.041 169.839 451.041 Q175.209 451.041 178.403 453.726 Q181.598 456.412 181.598 460.902 Q181.598 463.032 180.788 464.953 Q180.001 466.851 177.894 469.444 Q177.315 470.115 174.214 473.333 Q171.112 476.527 165.464 482.291 Z" fill="#000000" fill-rule="nonzero" fill-opacity="1" /><path clip-path="url(#clip430)" d="M201.598 454.745 Q197.987 454.745 196.158 458.31 Q194.352 461.851 194.352 468.981 Q194.352 476.087 196.158 479.652 Q197.987 483.194 201.598 483.194 Q205.232 483.194 207.037 479.652 Q208.866 476.087 208.866 468.981 Q208.866 461.851 207.037 458.31 Q205.232 454.745 201.598 454.745 M201.598 451.041 Q207.408 451.041 210.463 455.648 Q213.542 460.231 213.542 468.981 Q213.542 477.708 210.463 482.314 Q207.408 486.898 201.598 486.898 Q195.787 486.898 192.709 482.314 Q189.653 477.708 189.653 468.981 Q189.653 460.231 192.709 455.648 Q195.787 451.041 201.598 451.041 Z" fill="#000000" fill-rule="nonzero" fill-opacity="1" /><path clip-path="url(#clip430)" d="M127.431 163.947 Q123.82 163.947 121.992 167.512 Q120.186 171.054 120.186 178.183 Q120.186 185.29 121.992 188.855 Q123.82 192.396 127.431 192.396 Q131.066 192.396 132.871 188.855 Q134.7 185.29 134.7 178.183 Q134.7 171.054 132.871 167.512 Q131.066 163.947 127.431 163.947 M127.431 160.244 Q133.242 160.244 136.297 164.85 Q139.376 169.433 139.376 178.183 Q139.376 186.91 136.297 191.517 Q133.242 196.1 127.431 196.1 Q121.621 196.1 118.543 191.517 Q115.487 186.91 115.487 178.183 Q115.487 169.433 118.543 164.85 Q121.621 160.244 127.431 160.244 Z" fill="#000000" fill-rule="nonzero" fill-opacity="1" /><path clip-path="url(#clip430)" d="M147.593 189.549 L152.478 189.549 L152.478 195.429 L147.593 195.429 L147.593 189.549 Z" fill="#000000" fill-rule="nonzero" fill-opacity="1" /><path clip-path="url(#clip430)" d="M166.69 191.494 L183.01 191.494 L183.01 195.429 L161.065 195.429 L161.065 191.494 Q163.727 188.739 168.311 184.109 Q172.917 179.457 174.098 178.114 Q176.343 175.591 177.223 173.855 Q178.126 172.096 178.126 170.406 Q178.126 167.651 176.181 165.915 Q174.26 164.179 171.158 164.179 Q168.959 164.179 166.505 164.943 Q164.075 165.707 161.297 167.258 L161.297 162.535 Q164.121 161.401 166.575 160.822 Q169.028 160.244 171.065 160.244 Q176.436 160.244 179.63 162.929 Q182.825 165.614 182.825 170.105 Q182.825 172.234 182.014 174.156 Q181.227 176.054 179.121 178.646 Q178.542 179.318 175.44 182.535 Q172.339 185.73 166.69 191.494 Z" fill="#000000" fill-rule="nonzero" fill-opacity="1" /><path clip-path="url(#clip430)" d="M193.635 191.494 L201.274 191.494 L201.274 165.128 L192.963 166.795 L192.963 162.535 L201.227 160.869 L205.903 160.869 L205.903 191.494 L213.542 191.494 L213.542 195.429 L193.635 195.429 L193.635 191.494 Z" fill="#000000" fill-rule="nonzero" fill-opacity="1" /><path clip-path="url(#clip430)" d="M33.8307 977.952 Q33.2578 978.939 33.0032 980.117 Q32.7167 981.262 32.7167 982.663 Q32.7167 987.628 35.9632 990.302 Q39.1779 992.944 45.2253 992.944 L64.0042 992.944 L64.0042 998.832 L28.3562 998.832 L28.3562 992.944 L33.8944 992.944 Q30.6479 991.097 29.0883 988.137 Q27.4968 985.177 27.4968 980.944 Q27.4968 980.339 27.5923 979.607 Q27.656 978.875 27.8151 977.984 L33.8307 977.952 Z" fill="#000000" fill-rule="nonzero" fill-opacity="1" /><path clip-path="url(#clip430)" d="M32.4621 959.428 Q32.4621 964.139 36.1542 966.876 Q39.8145 969.613 46.212 969.613 Q52.6095 969.613 56.3017 966.908 Q59.9619 964.171 59.9619 959.428 Q59.9619 954.749 56.2698 952.012 Q52.5777 949.275 46.212 949.275 Q39.8781 949.275 36.186 952.012 Q32.4621 954.749 32.4621 959.428 M27.4968 959.428 Q27.4968 951.789 32.4621 947.429 Q37.4273 943.068 46.212 943.068 Q54.9649 943.068 59.9619 947.429 Q64.9272 951.789 64.9272 959.428 Q64.9272 967.099 59.9619 971.459 Q54.9649 975.788 46.212 975.788 Q37.4273 975.788 32.4621 971.459 Q27.4968 967.099 27.4968 959.428 Z" fill="#000000" fill-rule="nonzero" fill-opacity="1" /><path clip-path="url(#clip430)" d="M18.2347 927.568 L28.3562 927.568 L28.3562 915.505 L32.9077 915.505 L32.9077 927.568 L52.2594 927.568 Q56.6199 927.568 57.8613 926.39 Q59.1026 925.181 59.1026 921.52 L59.1026 915.505 L64.0042 915.505 L64.0042 921.52 Q64.0042 928.3 61.4897 930.878 Q58.9434 933.456 52.2594 933.456 L32.9077 933.456 L32.9077 937.753 L28.3562 937.753 L28.3562 933.456 L18.2347 933.456 L18.2347 927.568 Z" fill="#000000" fill-rule="nonzero" fill-opacity="1" /><path clip-path="url(#clip430)" d="M32.4621 893.989 Q32.4621 898.699 36.1542 901.436 Q39.8145 904.174 46.212 904.174 Q52.6095 904.174 56.3017 901.468 Q59.9619 898.731 59.9619 893.989 Q59.9619 889.31 56.2698 886.573 Q52.5777 883.835 46.212 883.835 Q39.8781 883.835 36.186 886.573 Q32.4621 889.31 32.4621 893.989 M27.4968 893.989 Q27.4968 886.35 32.4621 881.989 Q37.4273 877.629 46.212 877.629 Q54.9649 877.629 59.9619 881.989 Q64.9272 886.35 64.9272 893.989 Q64.9272 901.659 59.9619 906.02 Q54.9649 910.348 46.212 910.348 Q37.4273 910.348 32.4621 906.02 Q27.4968 901.659 27.4968 893.989 Z" fill="#000000" fill-rule="nonzero" fill-opacity="1" /><path clip-path="url(#clip430)" d="M33.8307 847.264 Q33.2578 848.251 33.0032 849.429 Q32.7167 850.574 32.7167 851.975 Q32.7167 856.94 35.9632 859.614 Q39.1779 862.256 45.2253 862.256 L64.0042 862.256 L64.0042 868.144 L28.3562 868.144 L28.3562 862.256 L33.8944 862.256 Q30.6479 860.41 29.0883 857.449 Q27.4968 854.489 27.4968 850.256 Q27.4968 849.651 27.5923 848.919 Q27.656 848.187 27.8151 847.296 L33.8307 847.264 Z" fill="#000000" fill-rule="nonzero" fill-opacity="1" /><path clip-path="url(#clip430)" d="M46.0847 804.2 Q46.0847 811.298 47.7079 814.035 Q49.3312 816.773 53.2461 816.773 Q56.3653 816.773 58.2114 814.736 Q60.0256 812.667 60.0256 809.134 Q60.0256 804.264 56.5881 801.336 Q53.1188 798.376 47.3897 798.376 L46.0847 798.376 L46.0847 804.2 M43.6657 792.519 L64.0042 792.519 L64.0042 798.376 L58.5933 798.376 Q61.8398 800.381 63.3994 803.373 Q64.9272 806.365 64.9272 810.693 Q64.9272 816.168 61.8716 819.414 Q58.7843 822.629 53.6281 822.629 Q47.6125 822.629 44.5569 818.619 Q41.5014 814.576 41.5014 806.587 L41.5014 798.376 L40.9285 798.376 Q36.8862 798.376 34.6901 801.049 Q32.4621 803.691 32.4621 808.497 Q32.4621 811.553 33.1941 814.449 Q33.9262 817.345 35.3903 820.019 L29.9795 820.019 Q28.7381 816.804 28.1334 813.781 Q27.4968 810.757 27.4968 807.892 Q27.4968 800.158 31.5072 796.339 Q35.5176 792.519 43.6657 792.519 Z" fill="#000000" fill-rule="nonzero" fill-opacity="1" /><path clip-path="url(#clip430)" d="M42.4881 750.824 L64.0042 750.824 L64.0042 756.68 L42.679 756.68 Q37.6183 756.68 35.1038 758.654 Q32.5894 760.627 32.5894 764.574 Q32.5894 769.316 35.6131 772.053 Q38.6368 774.791 43.8567 774.791 L64.0042 774.791 L64.0042 780.679 L28.3562 780.679 L28.3562 774.791 L33.8944 774.791 Q30.6797 772.69 29.0883 769.857 Q27.4968 766.993 27.4968 763.269 Q27.4968 757.126 31.3163 753.975 Q35.1038 750.824 42.4881 750.824 Z" fill="#000000" fill-rule="nonzero" fill-opacity="1" /><path clip-path="url(#clip430)" d="M45.7664 715.685 Q39.4007 715.685 35.8996 718.327 Q32.3984 720.937 32.3984 725.679 Q32.3984 730.39 35.8996 733.032 Q39.4007 735.642 45.7664 735.642 Q52.1003 735.642 55.6014 733.032 Q59.1026 730.39 59.1026 725.679 Q59.1026 720.937 55.6014 718.327 Q52.1003 715.685 45.7664 715.685 M59.58 709.829 Q68.683 709.829 73.1071 713.871 Q77.5631 717.913 77.5631 726.252 Q77.5631 729.34 77.0857 732.077 Q76.6401 734.814 75.6852 737.392 L69.9879 737.392 Q71.3884 734.814 72.0568 732.3 Q72.7252 729.785 72.7252 727.175 Q72.7252 721.414 69.7015 718.55 Q66.7096 715.685 60.6303 715.685 L57.7339 715.685 Q60.885 717.499 62.4446 720.332 Q64.0042 723.165 64.0042 727.112 Q64.0042 733.668 59.0071 737.679 Q54.01 741.689 45.7664 741.689 Q37.491 741.689 32.4939 737.679 Q27.4968 733.668 27.4968 727.112 Q27.4968 723.165 29.0564 720.332 Q30.616 717.499 33.7671 715.685 L28.3562 715.685 L28.3562 709.829 L59.58 709.829 Z" fill="#000000" fill-rule="nonzero" fill-opacity="1" /><path clip-path="url(#clip430)" d="M14.479 697.766 L14.479 691.909 L64.0042 691.909 L64.0042 697.766 L14.479 697.766 Z" fill="#000000" fill-rule="nonzero" fill-opacity="1" /><path clip-path="url(#clip430)" d="M44.7161 649.164 L47.5806 649.164 L47.5806 676.09 Q53.6281 675.709 56.8109 672.462 Q59.9619 669.184 59.9619 663.359 Q59.9619 659.985 59.1344 656.834 Q58.3069 653.651 56.6518 650.532 L62.1899 650.532 Q63.5267 653.683 64.227 656.993 Q64.9272 660.304 64.9272 663.709 Q64.9272 672.239 59.9619 677.236 Q54.9967 682.202 46.5303 682.202 Q37.7774 682.202 32.6531 677.491 Q27.4968 672.748 27.4968 664.728 Q27.4968 657.534 32.1438 653.365 Q36.7589 649.164 44.7161 649.164 M42.9973 655.02 Q38.1912 655.084 35.3266 657.725 Q32.4621 660.335 32.4621 664.664 Q32.4621 669.566 35.2312 672.526 Q38.0002 675.454 43.0292 675.899 L42.9973 655.02 Z" fill="#000000" fill-rule="nonzero" fill-opacity="1" /><path clip-path="url(#clip430)" d="M14.479 619.372 L14.479 605.877 L19.0304 605.877 L19.0304 613.516 L68.0464 613.516 L68.0464 605.877 L72.5979 605.877 L72.5979 619.372 L14.479 619.372 Z" fill="#000000" fill-rule="nonzero" fill-opacity="1" /><path clip-path="url(#clip430)" d="M33.8307 572.743 Q33.2578 573.73 33.0032 574.908 Q32.7167 576.053 32.7167 577.454 Q32.7167 582.419 35.9632 585.093 Q39.1779 587.734 45.2253 587.734 L64.0042 587.734 L64.0042 593.623 L28.3562 593.623 L28.3562 587.734 L33.8944 587.734 Q30.6479 585.888 29.0883 582.928 Q27.4968 579.968 27.4968 575.735 Q27.4968 575.13 27.5923 574.398 Q27.656 573.666 27.8151 572.775 L33.8307 572.743 Z" fill="#000000" fill-rule="nonzero" fill-opacity="1" /><path clip-path="url(#clip430)" d="M46.0847 550.4 Q46.0847 557.497 47.7079 560.235 Q49.3312 562.972 53.2461 562.972 Q56.3653 562.972 58.2114 560.935 Q60.0256 558.866 60.0256 555.333 Q60.0256 550.463 56.5881 547.535 Q53.1188 544.575 47.3897 544.575 L46.0847 544.575 L46.0847 550.4 M43.6657 538.719 L64.0042 538.719 L64.0042 544.575 L58.5933 544.575 Q61.8398 546.58 63.3994 549.572 Q64.9272 552.564 64.9272 556.893 Q64.9272 562.367 61.8716 565.614 Q58.7843 568.828 53.6281 568.828 Q47.6125 568.828 44.5569 564.818 Q41.5014 560.776 41.5014 552.787 L41.5014 544.575 L40.9285 544.575 Q36.8862 544.575 34.6901 547.249 Q32.4621 549.89 32.4621 554.696 Q32.4621 557.752 33.1941 560.648 Q33.9262 563.545 35.3903 566.218 L29.9795 566.218 Q28.7381 563.004 28.1334 559.98 Q27.4968 556.956 27.4968 554.092 Q27.4968 546.357 31.5072 542.538 Q35.5176 538.719 43.6657 538.719 Z" fill="#000000" fill-rule="nonzero" fill-opacity="1" /><path clip-path="url(#clip430)" d="M33.7671 503.198 L14.479 503.198 L14.479 497.341 L64.0042 497.341 L64.0042 503.198 L58.657 503.198 Q61.8398 505.044 63.3994 507.877 Q64.9272 510.678 64.9272 514.624 Q64.9272 521.086 59.771 525.16 Q54.6147 529.202 46.212 529.202 Q37.8093 529.202 32.6531 525.16 Q27.4968 521.086 27.4968 514.624 Q27.4968 510.678 29.0564 507.877 Q30.5842 505.044 33.7671 503.198 M46.212 523.154 Q52.6732 523.154 56.3653 520.513 Q60.0256 517.839 60.0256 513.192 Q60.0256 508.545 56.3653 505.871 Q52.6732 503.198 46.212 503.198 Q39.7508 503.198 36.0905 505.871 Q32.3984 508.545 32.3984 513.192 Q32.3984 517.839 36.0905 520.513 Q39.7508 523.154 46.212 523.154 Z" fill="#000000" fill-rule="nonzero" fill-opacity="1" /><path clip-path="url(#clip430)" d="M14.479 471.592 L72.5979 471.592 L72.5979 485.087 L68.0464 485.087 L68.0464 477.48 L19.0304 477.48 L19.0304 485.087 L14.479 485.087 L14.479 471.592 Z" fill="#000000" fill-rule="nonzero" fill-opacity="1" /><polyline clip-path="url(#clip432)" style="stroke:#009af9; stroke-linecap:round; stroke-linejoin:round; stroke-width:4; stroke-opacity:1; fill:none" points="309.067,1384.24 309.133,1384.24 309.199,1384.24 309.332,1384.24 309.596,1384.24 310.125,1384.24 311.183,1384.24 312.506,1384.24 313.829,1384.24 315.152,1384.24 316.474,1384.24 317.797,1384.24 319.12,1384.24 320.443,1384.24 321.766,1384.24 323.088,1384.24 324.411,1384.24 325.734,1384.24 327.057,1384.24 328.379,1384.24 329.702,1384.24 331.025,1384.24 332.348,1384.24 333.671,1384.24 334.993,1384.24 336.316,1384.24 337.639,1384.24 338.962,1384.24 340.284,1384.24 341.607,1384.24 342.93,1384.24 344.253,1384.24 345.576,1384.24 346.898,1384.24 348.221,1384.24 349.544,1384.24 350.867,1384.24 352.189,1384.24 353.512,1384.24 354.835,1384.24 356.158,1384.24 357.481,1384.24 358.803,1384.24 360.126,1384.24 361.449,1384.24 362.772,1384.24 364.094,1384.24 365.417,1384.24 366.74,1384.24 368.063,1384.24 369.386,1384.24 370.708,1384.24 372.031,1384.24 373.354,1384.24 374.677,1384.24 375.206,1384.24 375.754,1376.85 376.302,1362.25 376.85,1340.67 377.947,1282.21 379.043,1201.13 380.14,1098.91 381.462,954.226 382.785,792.573 384.108,625.928 385.431,471.317 386.621,348.941 387.576,263.827 388.436,199.528 389.209,153.4 389.905,121.342 390.601,99.6778 391.297,87.9638 392.62,86.1857 393.943,116.772 395.266,179.597 396.588,270.823 397.911,385.381 399.234,516.308 400.557,655.698 401.879,796.261 403.202,929.282 404.525,1046.5 405.848,1140.73 407.17,1206.25 408.493,1238.89 409.816,1236.74 411.139,1200.21 412.462,1131.82 413.784,1035.96 415.107,918.671 416.43,787.297 417.753,649.934 419.075,515.019 420.398,390.694 421.721,284.462 423.044,202.607 424.367,149.973 425.689,129.528 427.012,142.341 428.335,187.386 429.658,261.75 430.98,360.724 432.303,478.199 433.626,606.934 434.949,739.041 436.272,866.444 437.594,981.394 438.917,1077.04 440.24,1147.79 441.563,1189.49 442.885,1199.74 444.208,1178.05 445.531,1125.58 446.854,1045.73 448.177,943.591 449.499,825.641 450.822,699.218 452.145,572.102 453.468,452.11 454.79,346.484 456.113,261.546 457.436,202.256 458.759,172.046 460.082,172.538 461.404,203.533 462.727,262.944 464.05,346.996 465.373,450.428 466.695,566.894 468.018,689.237 469.341,809.979 470.664,921.757 471.987,1017.8 473.309,1092.33 474.632,1141.08 475.955,1161.33 477.278,1151.95 478.6,1113.63 479.923,1048.81 481.246,961.309 482.569,856.647 483.891,741.396 485.214,622.763 486.537,508.045 487.86,404.214 489.183,317.422 490.505,252.718 491.828,213.878 493.151,203.132 494.474,221.015 495.796,266.577 497.119,336.878 498.442,427.457 499.765,532.586 501.088,645.741 502.41,759.965 503.733,868.219 505.056,963.931 506.379,1041.38 507.701,1096.02 509.024,1124.68 510.347,1125.79 511.67,1099.42 512.993,1047.36 514.315,972.943 515.638,880.878 516.961,776.865 518.284,667.347 519.606,558.985 520.929,458.391 522.252,371.573 523.575,303.683 524.898,258.749 526.22,239.397 527.543,246.672 528.866,279.756 530.189,336.513 531.511,413.474 532.834,505.943 534.157,608.273 535.48,714.225 536.803,817.347 538.125,911.322 539.448,990.363 540.771,1049.67 542.094,1085.72 543.416,1096.46 544.739,1081.39 546.062,1041.61 547.385,979.736 548.708,899.7 550.03,806.519 551.353,705.93 552.676,604.118 553.999,507.252 555.321,421.163 556.644,350.994 557.967,300.939 559.29,273.94 560.613,271.518 561.935,293.469 563.258,338.329 564.581,403.342 565.904,484.528 567.226,576.921 568.549,674.946 569.872,772.558 571.195,863.708 572.517,942.797 573.84,1005.04 575.163,1046.73 576.486,1065.46 577.809,1060.23 579.131,1031.52 580.454,981.253 581.777,912.659 583.1,830.058 584.422,738.551 585.745,643.737 587.068,551.363 588.391,467.049 589.714,395.889 591.036,342.153 592.359,309.01 593.682,298.352 595.005,310.687 596.327,345.124 597.65,399.246 598.973,469.707 600.296,552.246 601.619,641.86 602.941,733.105 604.264,820.425 605.587,898.479 606.91,962.465 608.232,1008.52 609.555,1033.9 610.878,1037.21 612.201,1018.38 613.524,978.696 614.846,920.744 616.169,848.176 617.492,765.537 618.815,677.917 620.137,590.699 621.46,509.155 622.783,438.227 624.106,382.113 625.429,344.11 626.751,326.436 628.074,330.071 629.397,354.682 630.72,398.651 632.042,459.183 633.365,532.451 634.688,613.912 636.011,698.53 637.334,781.175 638.656,856.87 639.979,921.042 641.302,969.828 642.625,1000.32 643.947,1010.77 645.27,1000.65 646.593,970.705 647.916,922.915 649.239,860.29 650.561,786.742 651.884,706.814 653.207,625.423 654.53,547.537 655.852,477.93 657.175,420.767 658.498,379.402 659.821,356.253 661.143,352.63 662.466,368.65 663.789,403.227 665.112,454.145 666.435,518.204 667.757,591.421 669.08,669.234 670.403,746.887 671.726,819.695 673.048,883.251 674.371,933.729 675.694,968.112 677.017,984.392 678.34,981.67 679.662,960.255 680.985,921.572 682.308,868.09 683.631,803.151 684.953,730.781 686.276,655.438 687.599,581.735 688.922,514.148 690.245,456.664 691.567,412.678 692.89,384.777 694.213,374.582 695.536,382.797 696.858,408.82 698.181,450.957 699.504,506.498 700.827,571.962 702.15,643.291 703.472,716.062 704.795,785.817 706.118,848.343 707.441,899.912 708.763,937.461 710.086,958.8 711.409,962.713 712.732,949.08 714.055,918.832 715.377,873.94 716.7,817.22 718.023,752.222 719.346,682.932 720.668,613.556 721.991,548.317 723.314,491.169 724.637,445.557 725.96,414.195 727.282,398.906 728.605,400.389 729.928,418.446 731.251,451.942 732.573,498.807 733.896,556.155 735.219,620.545 736.542,687.987 737.864,754.289 739.187,815.356 740.51,867.47 741.833,907.506 743.156,933.081 744.478,942.735 745.801,935.999 747.124,913.41 748.447,876.459 749.769,827.485 751.092,769.548 752.415,706.213 753.738,641.342 755.061,578.893 756.383,522.662 757.706,476.044 759.029,441.825 760.352,422.015 761.674,417.609 762.997,428.773 764.32,454.784 765.643,494.024 766.966,544.07 768.288,601.926 769.611,664 770.934,726.428 772.257,785.345 773.579,837.154 774.902,878.739 776.225,907.629 777.548,922.127 778.871,921.446 780.193,905.742 781.516,876.086 782.839,834.389 784.162,783.261 785.484,725.86 786.807,665.688 788.13,606.43 789.453,551.692 790.776,504.791 792.098,468.54 793.421,445.083 794.744,435.665 796.067,440.755 797.389,459.997 798.712,492.182 800.035,535.315 801.358,586.819 802.681,643.491 804.003,701.796 805.326,758.117 806.649,809.009 807.972,851.4 809.294,882.738 810.617,901.191 811.94,905.727 813.263,896.184 814.586,873.24 815.908,838.38 817.231,793.799 818.554,742.263 819.877,686.929 821.199,631.187 822.522,578.439 823.845,531.885 825.168,494.328 826.49,468.003 827.813,454.35 829.136,454.1 830.459,467.222 831.782,492.876 833.104,529.463 834.427,574.806 835.75,626.077 837.073,680.073 838.395,733.435 839.718,782.894 841.041,825.455 842.364,858.568 843.687,880.256 845.009,889.273 846.332,885.164 847.655,868.281 848.978,839.747 850.3,801.371 851.623,755.543 852.946,705.071 854.269,653.058 855.592,602.681 856.914,557.008 858.237,518.796 859.56,490.33 860.883,473.203 862.205,468.362 863.528,476.052 864.851,495.763 866.174,526.256 867.497,565.726 868.819,611.702 870.142,661.306 871.465,711.449 872.788,759.049 874.11,801.218 875.433,835.397 876.756,859.561 878.079,872.309 879.402,872.96 880.724,861.556 882.047,838.873 883.37,806.359 884.693,766.051 886.015,720.432 887.338,672.357 888.661,624.709 889.984,580.334 891.307,541.886 892.629,511.665 893.952,491.469 895.275,482.583 896.598,485.516 897.92,499.994 899.243,525.042 900.566,559.063 901.889,599.927 903.211,645.109 904.534,691.806 905.857,737.165 907.18,778.423 908.503,813.124 909.825,839.214 911.148,855.148 912.471,860 913.794,853.531 915.116,836.199 916.439,809.129 917.762,774.052 919.085,733.16 920.408,688.996 921.73,644.261 923.053,601.687 924.376,563.826 925.699,532.934 927.021,510.856 928.344,498.896 929.667,497.732 930.99,507.372 932.313,527.163 933.635,555.825 934.958,591.55 936.281,632.137 937.604,675.084 938.926,717.765 940.249,757.574 941.572,792.1 942.895,819.247 944.218,837.418 945.54,845.579 946.863,843.295 948.186,830.761 949.509,808.797 950.831,778.795 952.154,742.636 953.477,702.587 954.8,661.11 956.123,620.718 957.445,583.862 958.768,552.768 960.091,529.303 961.414,514.851 962.736,510.25 964.059,515.703 965.382,530.813 966.705,554.599 968.028,585.567 969.35,621.791 970.673,661.034 971.996,700.885 973.319,738.908 974.641,772.831 975.964,800.655 977.287,820.725 978.61,831.859 979.933,833.326 981.255,825.072 982.578,807.682 983.901,782.296 985.224,750.52 986.546,714.333 987.869,675.985 989.192,637.834 990.515,602.194 991.837,571.205 993.16,546.714 994.483,530.167 995.806,522.527 997.129,524.197 998.451,535.022 999.774,554.276 1001.1,580.735 1002.42,612.764 1003.74,648.337 1005.07,685.313 1006.39,721.476 1007.71,754.656 1009.03,782.856 1010.36,804.386 1011.68,817.964 1013,822.721 1014.32,818.414 1015.65,805.353 1016.97,784.405 1018.29,756.903 1019.62,724.57 1020.94,689.406 1022.26,653.595 1023.58,619.332 1024.91,588.681 1026.23,563.467 1027.55,545.182 1028.88,534.893 1030.2,533.182 1031.52,540.097 1032.84,555.168 1034.17,577.418 1035.49,605.464 1036.81,637.566 1038.13,671.751 1039.46,705.922 1040.78,737.995 1042.1,766.025 1043.43,788.358 1044.75,803.698 1046.07,811.154 1047.39,810.306 1048.72,801.241 1050.04,784.709 1051.36,761.733 1052.69,733.754 1054.01,702.484 1055.33,669.566 1056.65,637.033 1057.98,606.892 1059.3,580.988 1060.62,560.886 1061.94,547.847 1063.27,542.652 1064.59,545.559 1065.91,556.332 1067.24,574.261 1068.56,598.209 1069.88,626.67 1071.2,657.872 1072.53,689.901 1073.85,720.809 1075.17,748.725 1076.5,771.972 1077.82,789.162 1079.14,799.287 1080.46,801.775 1081.79,796.528 1083.11,783.911 1084.43,764.748 1085.75,740.24 1087.08,711.92 1088.4,681.527 1089.72,650.918 1091.05,621.946 1092.37,596.358 1093.69,575.661 1095.01,561.077 1096.34,553.458 1097.66,553.237 1098.98,560.397 1100.31,574.335 1101.63,594.179 1102.95,618.678 1104.27,646.334 1105.6,675.692 1106.92,704.942 1108.24,732.281 1109.56,756.034 1110.89,774.766 1112.21,787.301 1113.53,792.886 1114.86,791.229 1116.18,782.485 1117.5,767.235 1118.82,746.449 1120.15,721.439 1121.47,693.764 1122.79,665.125 1124.12,637.266 1125.44,611.874 1126.76,590.475 1128.08,574.347 1129.41,564.436 1130.73,561.307 1132.05,565.102 1133.37,575.549 1134.7,591.965 1136.02,613.317 1137.34,638.271 1138.67,665.292 1139.99,692.74 1141.31,718.939 1142.63,742.3 1143.96,761.41 1145.28,775.127 1146.6,782.691 1147.93,783.692 1149.25,778.091 1150.57,766.253 1151.89,748.917 1153.22,727.115 1154.54,702.21 1155.86,675.76 1157.18,649.413 1158.51,624.783 1159.83,603.362 1161.15,586.445 1162.48,575.03 1163.8,569.77 1165.12,570.935 1166.44,578.41 1167.77,591.699 1169.09,609.96 1170.41,632.064 1171.74,656.646 1173.06,682.193 1174.38,707.142 1175.7,729.974 1177.03,749.324 1178.35,764.061 1179.67,773.319 1180.99,776.565 1182.32,773.624 1183.64,764.646 1184.96,750.217 1186.29,731.255 1187.61,708.965 1188.93,684.733 1190.25,660.053 1191.58,636.445 1192.9,615.345 1194.22,598.012 1195.54,585.462 1196.87,578.427 1198.19,577.295 1199.51,582.107 1200.84,592.527 1202.16,607.893 1203.48,627.229 1204.8,649.339 1206.13,672.865 1207.45,696.376 1208.77,718.439 1210.1,737.717 1211.42,753.047 1212.74,763.518 1214.06,768.519 1215.39,767.825 1216.71,761.514 1218.03,749.982 1219.35,733.944 1220.68,714.388 1222,692.489 1223.32,669.606 1224.65,647.16 1225.97,626.537 1227.29,608.991 1228.61,595.574 1229.94,587.074 1231.26,583.982 1232.58,586.45 1233.91,594.286 1235.23,606.973 1236.55,623.703 1237.87,643.435 1239.2,664.957 1240.52,686.959 1241.84,708.097 1243.16,727.086 1244.49,742.778 1245.81,754.235 1247.13,760.782 1248.46,762.09 1249.78,758.117 1251.1,749.118 1252.42,735.654 1253.75,718.557 1255.07,698.853 1256.39,677.766 1257.72,656.609 1259.04,636.692 1260.36,619.228 1261.68,605.267 1263.01,595.648 1264.33,590.923 1265.65,591.342 1266.97,596.831 1268.3,607.028 1269.62,621.279 1270.94,638.701 1272.27,658.21 1273.59,678.611 1274.91,698.668 1276.23,717.16 1277.56,732.967 1278.88,745.137 1280.2,752.949 1281.53,755.949 1282.85,753.988 1284.17,747.263 1285.49,736.203 1286.82,721.483 1288.14,704 1289.46,684.822 1290.78,665.111 1292.11,646.079 1293.43,628.904 1294.75,614.635 1296.08,604.13 1297.4,598.005 1298.72,596.606 1300.04,599.987 1301.37,607.905 1302.69,619.845 1304.01,635.052 1305.34,652.582 1306.66,671.353 1307.98,690.22 1309.3,708.029 1310.63,723.713 1311.95,736.334 1313.27,745.141 1314.59,749.615 1315.92,749.505 1317.24,744.882 1318.56,736.053 1319.89,723.559 1321.21,708.166 1322.53,690.818 1323.85,672.573 1325.18,654.542 1326.5,637.831 1327.82,623.469 1329.15,612.327 1330.47,605.07 1331.79,602.116 1333.11,603.616 1334.44,609.45 1335.76,619.228 1337.08,632.328 1338.4,647.928 1339.73,665.067 1341.05,682.698 1342.37,699.751 1343.7,715.191 1345.02,728.083 1346.34,737.653 1347.66,743.338 1348.99,744.813 1350.31,742.049 1351.63,735.24 1352.96,724.806 1354.28,711.389 1355.6,695.812 1356.92,679.015 1358.25,662.035 1359.57,645.926 1360.89,631.679 1362.21,620.155 1363.54,612.041 1364.86,607.809 1366.18,607.693 1367.51,611.672 1368.83,619.474 1370.15,630.595 1371.47,644.334 1372.8,659.842 1374.12,676.169 1375.44,692.323 1376.77,707.321 1378.09,720.254 1379.41,730.342 1380.73,736.988 1382.06,739.805 1383.38,738.678 1384.7,733.699 1386.02,725.18 1387.35,713.646 1388.67,699.808 1389.99,684.499 1391.32,668.665 1392.64,653.291 1393.96,639.326 1395.28,627.616 1396.61,618.862 1397.93,613.585 1399.25,612.08 1400.58,614.408 1401.9,620.395 1403.22,629.654 1404.54,641.599 1405.87,655.494 1407.19,670.478 1408.51,685.637 1409.83,700.054 1411.16,712.855 1412.48,723.267 1413.8,730.666 1415.13,734.619 1416.45,734.904 1417.77,731.557 1419.09,724.803 1420.42,715.057 1421.74,702.916 1423.06,689.124 1424.39,674.524 1425.71,660.004 1427.03,646.456 1428.35,634.713 1429.68,625.489 1431,619.336 1432.32,616.609 1433.64,617.452 1434.97,621.789 1436.29,629.33 1437.61,639.594 1438.94,651.934 1440.26,665.591 1441.58,679.728 1442.9,693.49 1444.23,706.038 1445.55,716.614 1446.87,724.582 1448.2,729.47 1449.52,731 1450.84,729.127 1452.16,723.984 1453.49,715.891 1454.81,705.345 1456.13,692.995 1457.45,679.584 1458.78,665.942 1460.1,652.915 1461.42,641.305 1462.75,631.816 1464.07,625.012 1465.39,621.291 1466.71,620.862 1468.04,623.728 1469.36,629.69 1470.68,638.362 1472.01,649.196 1473.33,661.522 1474.65,674.584 1475.97,687.59 1477.3,699.746 1478.62,710.315 1479.94,718.66 1481.26,724.285 1482.59,726.863 1483.91,726.281 1485.23,722.594 1486.56,716.034 1487.88,707.006 1489.2,696.066 1490.52,683.872 1491.85,671.18 1493.17,658.778 1494.49,647.431 1495.82,637.83 1497.14,630.549 1498.46,626.022 1499.78,624.503 1501.11,626.061 1502.43,630.578 1503.75,637.758 1505.07,647.146 1506.4,658.16 1507.72,670.124 1509.04,682.307 1510.37,693.967 1511.69,704.396 1513.01,712.962 1514.33,719.154 1515.66,722.609 1516.98,723.156 1518.3,720.781 1519.63,715.636 1520.95,708.041 1522.27,698.465 1523.59,687.483 1524.92,675.776 1526.24,664.074 1527.56,653.101 1528.88,643.524 1530.21,635.92 1531.53,630.739 1532.85,628.284 1534.18,628.686 1535.5,631.895 1536.82,637.698 1538.14,645.725 1539.47,655.475 1540.79,666.345 1542.11,677.671 1543.44,688.761 1544.76,698.939 1546.08,707.589 1547.4,714.193 1548.73,718.36 1550.05,719.871 1551.37,718.652 1552.69,714.787 1554.02,708.518 1555.34,700.233 1556.66,690.429 1557.99,679.716 1559.31,668.762 1560.63,658.245 1561.95,648.809 1563.28,641.023 1564.6,635.355 1565.92,632.134 1567.25,631.538 1568.57,633.581 1569.89,638.122 1571.21,644.866 1572.54,653.392 1573.86,663.172 1575.18,673.608 1576.5,684.06 1577.83,693.891 1579.15,702.504 1580.47,709.382 1581.8,714.113 1583.12,716.442 1584.44,716.245 1585.76,713.542 1587.09,708.505 1588.41,701.449 1589.73,692.794 1591.06,683.08 1592.38,672.915 1593.7,662.929 1595.02,653.734 1596.35,645.888 1597.67,639.857 1598.99,636.004 1600.31,634.545 1601.64,635.549 1602.96,638.94 1604.28,644.495 1605.61,651.863 1606.93,660.589 1608.25,670.13 1609.57,679.905 1610.9,689.316 1612.22,697.791 1613.54,704.818 1614.86,709.989 1616.19,713.008 1617.51,713.702 1618.83,712.037 1620.16,708.125 1621.48,702.189 1622.8,694.606 1624.12,685.859 1625.45,676.496 1626.77,667.095 1628.09,658.228 1629.42,650.427 1630.74,644.15 1632.06,639.766 1633.38,637.531 1634.71,637.572 1636.03,639.9 1637.35,644.362 1638.67,650.665 1640,658.406 1641.32,667.103 1642.64,676.219 1643.97,685.192 1645.29,693.478 1646.61,700.576 1647.93,706.064 1649.26,709.621 1650.58,711.044 1651.9,710.259 1653.23,707.329 1654.55,702.443 1655.87,695.913 1657.19,688.146 1658.52,679.618 1659.84,670.86 1661.16,662.394 1662.48,654.726 1663.81,648.315 1665.13,643.543 1666.45,640.693 1667.78,639.929 1669.1,641.31 1670.42,644.737 1671.74,649.99 1673.07,656.731 1674.39,664.538 1675.71,672.926 1677.04,681.383 1678.36,689.393 1679.68,696.48 1681,702.221 1682.33,706.28 1683.65,708.416 1684.97,708.491 1686.29,706.505 1687.62,702.599 1688.94,697.025 1690.26,690.138 1691.59,682.364 1692.91,674.187 1694.23,666.106 1695.55,658.615 1696.88,652.162 1698.2,647.134 1699.52,643.824 1700.85,642.423 1702.17,643.005 1703.49,645.523 1704.81,649.813 1706.14,655.6 1707.46,662.522 1708.78,670.15 1710.1,678.017 1711.43,685.642 1712.75,692.566 1714.07,698.374 1715.4,702.719 1716.72,705.342 1718.04,706.092 1719.36,704.95 1720.69,701.997 1722.01,697.415 1723.33,691.487 1724.66,684.575 1725.98,677.104 1727.3,669.524 1728.62,662.305 1729.95,655.895 1731.27,650.681 1732.59,646.975 1733.91,644.993 1735.24,644.845 1736.56,646.53 1737.88,649.93 1739.21,654.827 1740.53,660.911 1741.85,667.805 1743.17,675.087 1744.5,682.315 1745.82,689.048 1747.14,694.879 1748.47,699.456 1749.79,702.506 1751.11,703.854 1752.43,703.441 1753.76,701.305 1755.08,697.577 1756.4,692.49 1757.72,686.355 1759.05,679.542 1760.37,672.473 1761.69,665.587 1763.02,659.308 1764.34,654.019 1765.66,650.036 1766.98,647.593 1768.31,646.83 1769.63,647.782 1770.95,650.377 1772.28,654.446 1773.6,659.731 1774.92,665.905 1776.24,672.59 1777.57,679.372 1778.89,685.842 1780.21,691.606 1781.53,696.315 1782.86,699.69 1784.18,701.543 1785.5,701.773 1786.83,700.373 1788.15,697.432 1789.47,693.136 1790.79,687.736 1792.12,681.573 1793.44,675.034 1794.76,668.526 1796.09,662.448 1797.41,657.166 1798.73,652.991 1800.05,650.163 1801.38,648.848 1802.7,649.117 1804.02,650.949 1805.34,654.242 1806.67,658.785 1807.99,664.288 1809.31,670.404 1810.64,676.753 1811.96,682.949 1813.28,688.612 1814.6,693.4 1815.93,697.029 1817.25,699.287 1818.57,700.049 1819.9,699.276 1821.22,697.024 1822.54,693.438 1823.86,688.747 1825.19,683.244 1826.51,677.267 1827.83,671.181 1829.15,665.356 1830.48,660.146 1831.8,655.867 1833.12,652.773 1834.45,651.046 1835.77,650.772 1837.09,651.957 1838.41,654.526 1839.74,658.319 1841.06,663.102 1842.38,668.588 1843.71,674.435 1845.03,680.282 1846.35,685.764 1847.67,690.549 1849,694.349 1850.32,696.939 1851.64,698.167 1852.96,697.967 1854.29,696.365 1855.61,693.467 1856.93,689.455 1858.26,684.58 1859.58,679.143 1860.9,673.479 1862.22,667.935 1863.55,662.847 1864.87,658.515 1866.19,655.2 1867.52,653.092 1868.84,652.316 1870.16,652.925 1871.48,654.877 1872.81,658.041 1874.13,662.214 1875.45,667.132 1876.77,672.492 1878.1,677.962 1879.42,683.209 1880.74,687.913 1882.07,691.794 1883.39,694.622 1884.71,696.232 1886.03,696.533 1887.36,695.516 1888.68,693.25 1890,689.882 1891.33,685.624 1892.65,680.742 1893.97,675.534 1895.29,670.322 1896.62,665.42 1897.94,661.122 1899.26,657.688 1900.58,655.321 1901.91,654.162 1903.23,654.274 1904.55,655.641 1905.88,658.174 1907.2,661.711 1908.52,666.027 1909.84,670.855 1911.17,675.895 1912.49,680.842 1913.81,685.396 1915.14,689.285 1916.46,692.274 1917.78,694.186 1919.1,694.91 1920.43,694.408 1921.75,692.719 1923.07,689.963 1924.39,686.311 1925.72,681.985 1927.04,677.247 1928.36,672.385 1929.69,667.695 1931.01,663.461 1932.33,659.938 1933.65,657.344 1934.98,655.834 1936.3,655.497 1937.62,656.345 1938.95,658.319 1940.27,661.291 1941.59,665.073 1942.91,669.428 1944.24,674.087 1945.56,678.763 1946.88,683.177 1948.2,687.059 1949.53,690.178 1950.85,692.346 1952.17,693.435 1953.5,693.387 1954.82,692.212 1956.14,689.988 1957.46,686.857 1958.79,683.017 1960.11,678.707 1961.43,674.193 1962.76,669.749 1964.08,665.644 1965.4,662.125 1966.72,659.405 1968.05,657.644 1969.37,656.946 1970.69,657.347 1972.01,658.814 1973.34,661.252 1974.66,664.504 1975.98,668.367 1977.31,672.602 1978.63,676.949 1979.95,681.145 1981.27,684.936 1982.6,688.093 1983.92,690.425 1985.24,691.795 1986.57,692.126 1987.89,691.413 1989.21,689.704 1990.53,687.106 1991.86,683.778 1993.18,679.924 1994.5,675.775 1995.82,671.59 1997.15,667.63 1998.47,664.136 1999.79,661.319 2001.12,659.345 2002.44,658.334 2003.76,658.337 2005.08,659.349 2006.41,661.298 2007.73,664.059 2009.05,667.464 2010.38,671.3 2011.7,675.332 2013.02,679.312 2014.34,683 2015.67,686.17 2016.99,688.638 2018.31,690.26 2019.63,690.943 2020.96,690.648 2022.28,689.398 2023.6,687.263 2024.93,684.38 2026.25,680.932 2027.57,677.136 2028.89,673.226 2030.22,669.442 2031.54,666.011 2032.86,663.137 2034.18,660.99 2035.51,659.695 2036.83,659.328 2038.15,659.915 2039.48,661.415 2040.8,663.73 2042.12,666.713 2043.44,670.176 2044.77,673.905 2046.09,677.668 2047.41,681.237 2048.74,684.394 2050.06,686.954 2051.38,688.762 2052.7,689.716 2054.03,689.761 2055.35,688.902 2056.67,687.195 2057.99,684.751 2059.32,681.725 2060.64,678.302 2061.96,674.691 2063.29,671.113 2064.61,667.785 2065.93,664.91 2067.25,662.66 2068.58,661.169 2069.9,660.524 2071.22,660.759 2072.55,661.853 2073.87,663.734 2075.19,666.277 2076.51,669.326 2077.84,672.696 2079.16,676.186 2080.48,679.581 2081.8,682.678 2083.13,685.29 2084.45,687.254 2085.77,688.454 2087.1,688.817 2088.42,688.329 2089.74,687.023 2091.06,684.986 2092.39,682.345 2093.71,679.268 2095.03,675.944 2096.36,672.578 2097.68,669.374 2099,666.527 2100.32,664.206 2101.65,662.551 2102.97,661.655 2104.29,661.572 2105.61,662.297 2106.94,663.782 2108.26,665.933 2109.58,668.615 2110.91,671.664 2112.23,674.891 2113.55,678.099 2114.87,681.092 2116.2,683.688 2117.52,685.732 2118.84,687.107 2120.17,687.735 2121.49,687.582 2122.81,686.659 2124.13,685.025 2125.46,682.776 2126.78,680.054 2128.1,677.031 2129.42,673.894 2130.75,670.838 2132.07,668.048 2133.39,665.688 2134.72,663.899 2136.04,662.786 2137.36,662.411 2138.68,662.795 2140.01,663.918 2141.33,665.707 2142.65,668.048 2143.98,670.792 2145.3,673.77 2146.62,676.797 2147.94,679.686 2149.27,682.264 2150.59,684.375 2151.91,685.896 2153.23,686.737 2154.56,686.853 2155.88,686.24 2157.2,684.941 2158.53,683.038 2159.85,680.651 2161.17,677.928 2162.49,675.037 2163.82,672.155 2165.14,669.457 2166.46,667.105 2167.79,665.242 2169.11,663.979 2170.43,663.389 2171.75,663.504 2173.08,664.312 2174.4,665.757 2175.72,667.747 2177.04,670.16 2178.37,672.847 2179.69,675.642 2181.01,678.374 2182.34,680.878 2183.66,682.999 2184.98,684.614 2186.3,685.626 2187.63,685.978 2188.95,685.652 2190.27,684.672 2191.6,683.101 2192.92,681.039 2194.24,678.615 2195.56,675.978 2196.89,673.292 2198.21,670.719 2199.53,668.416 2200.85,666.521 2202.18,665.147 2203.5,664.375 2204.82,664.249 2206.15,664.772 2207.47,665.909 2208.79,667.586 2210.11,669.698 2211.44,672.113 2212.76,674.682 2214.08,677.249 2215.41,679.656 2216.73,681.758 2218.05,683.428 2219.37,684.566 2220.7,685.108 2222.02,685.024 2223.34,684.323 2224.66,683.051 2225.99,681.289 2227.31,679.147 2228.63,676.759 2229.96,674.27 2231.28,671.836 2232.6,669.599 2233.92,667.694 2235.25,666.234 2236.57,665.305 2237.89,664.966 2239.22,665.236 2240.54,666.094 2241.86,667.483 2243.18,669.316 2244.51,671.477 2245.83,673.832 2247.15,676.235 2248.47,678.539 2249.8,680.607 2251.12,682.313 2252.44,683.557 2253.77,684.265 2255.09,684.399 2256.41,683.954 2257.73,682.96 2259.06,681.481 2260.38,679.608 2261.7,677.46 2263.03,675.167 2264.35,672.871 2265.67,670.712 2266.99,668.819 2268.32,667.303 2269.64,666.255 2270.96,665.735 2272.28,665.773 2273.61,666.369 2274.93,667.483 2276.25,669.045 2277.58,670.953 2278.9,673.09 2280.22,675.323 2281.54,677.514 2282.87,679.531 2284.19,681.253 2285.51,682.577 2286.84,683.425 2288.16,683.748 2289.48,683.528 2290.8,682.783 2292.13,681.561 2293.23,680.23 "/>
<path clip-path="url(#clip430)" d="M1818.02 196.789 L2282.65 196.789 L2282.65 93.1086 L1818.02 93.1086  Z" fill="#ffffff" fill-rule="evenodd" fill-opacity="1"/>
<polyline clip-path="url(#clip430)" style="stroke:#000000; stroke-linecap:round; stroke-linejoin:round; stroke-width:4; stroke-opacity:1; fill:none" points="1818.02,196.789 2282.65,196.789 2282.65,93.1086 1818.02,93.1086 1818.02,196.789 "/>
<polyline clip-path="url(#clip430)" style="stroke:#009af9; stroke-linecap:round; stroke-linejoin:round; stroke-width:4; stroke-opacity:1; fill:none" points="1841.39,144.949 1981.61,144.949 "/>
<path clip-path="url(#clip430)" d="M2020.16 140.284 Q2019.44 139.868 2018.59 139.682 Q2017.75 139.474 2016.73 139.474 Q2013.12 139.474 2011.18 141.835 Q2009.26 144.173 2009.26 148.571 L2009.26 162.229 L2004.98 162.229 L2004.98 136.303 L2009.26 136.303 L2009.26 140.331 Q2010.6 137.969 2012.75 136.835 Q2014.91 135.678 2017.98 135.678 Q2018.42 135.678 2018.96 135.747 Q2019.49 135.794 2020.14 135.909 L2020.16 140.284 Z" fill="#000000" fill-rule="nonzero" fill-opacity="1" /><path clip-path="url(#clip430)" d="M2033.63 139.289 Q2030.21 139.289 2028.22 141.974 Q2026.23 144.636 2026.23 149.289 Q2026.23 153.942 2028.19 156.627 Q2030.18 159.289 2033.63 159.289 Q2037.04 159.289 2039.03 156.604 Q2041.02 153.918 2041.02 149.289 Q2041.02 144.682 2039.03 141.997 Q2037.04 139.289 2033.63 139.289 M2033.63 135.678 Q2039.19 135.678 2042.36 139.289 Q2045.53 142.9 2045.53 149.289 Q2045.53 155.655 2042.36 159.289 Q2039.19 162.9 2033.63 162.9 Q2028.05 162.9 2024.88 159.289 Q2021.73 155.655 2021.73 149.289 Q2021.73 142.9 2024.88 139.289 Q2028.05 135.678 2033.63 135.678 Z" fill="#000000" fill-rule="nonzero" fill-opacity="1" /><path clip-path="url(#clip430)" d="M2056.8 128.942 L2056.8 136.303 L2065.58 136.303 L2065.58 139.613 L2056.8 139.613 L2056.8 153.687 Q2056.8 156.858 2057.66 157.761 Q2058.54 158.664 2061.2 158.664 L2065.58 158.664 L2065.58 162.229 L2061.2 162.229 Q2056.27 162.229 2054.4 160.4 Q2052.52 158.548 2052.52 153.687 L2052.52 139.613 L2049.4 139.613 L2049.4 136.303 L2052.52 136.303 L2052.52 128.942 L2056.8 128.942 Z" fill="#000000" fill-rule="nonzero" fill-opacity="1" /><path clip-path="url(#clip430)" d="M2081.23 139.289 Q2077.8 139.289 2075.81 141.974 Q2073.82 144.636 2073.82 149.289 Q2073.82 153.942 2075.79 156.627 Q2077.78 159.289 2081.23 159.289 Q2084.63 159.289 2086.62 156.604 Q2088.61 153.918 2088.61 149.289 Q2088.61 144.682 2086.62 141.997 Q2084.63 139.289 2081.23 139.289 M2081.23 135.678 Q2086.78 135.678 2089.95 139.289 Q2093.12 142.9 2093.12 149.289 Q2093.12 155.655 2089.95 159.289 Q2086.78 162.9 2081.23 162.9 Q2075.65 162.9 2072.48 159.289 Q2069.33 155.655 2069.33 149.289 Q2069.33 142.9 2072.48 139.289 Q2075.65 135.678 2081.23 135.678 Z" fill="#000000" fill-rule="nonzero" fill-opacity="1" /><path clip-path="url(#clip430)" d="M2115.21 140.284 Q2114.49 139.868 2113.63 139.682 Q2112.8 139.474 2111.78 139.474 Q2108.17 139.474 2106.22 141.835 Q2104.3 144.173 2104.3 148.571 L2104.3 162.229 L2100.02 162.229 L2100.02 136.303 L2104.3 136.303 L2104.3 140.331 Q2105.65 137.969 2107.8 136.835 Q2109.95 135.678 2113.03 135.678 Q2113.47 135.678 2114 135.747 Q2114.54 135.794 2115.18 135.909 L2115.21 140.284 Z" fill="#000000" fill-rule="nonzero" fill-opacity="1" /><path clip-path="url(#clip430)" d="M2146.53 149.196 Q2141.36 149.196 2139.37 150.377 Q2137.38 151.557 2137.38 154.405 Q2137.38 156.673 2138.86 158.016 Q2140.37 159.335 2142.94 159.335 Q2146.48 159.335 2148.61 156.835 Q2150.76 154.312 2150.76 150.145 L2150.76 149.196 L2146.53 149.196 M2155.02 147.437 L2155.02 162.229 L2150.76 162.229 L2150.76 158.293 Q2149.3 160.655 2147.13 161.789 Q2144.95 162.9 2141.8 162.9 Q2137.82 162.9 2135.46 160.678 Q2133.12 158.432 2133.12 154.682 Q2133.12 150.307 2136.04 148.085 Q2138.98 145.863 2144.79 145.863 L2150.76 145.863 L2150.76 145.446 Q2150.76 142.507 2148.82 140.909 Q2146.9 139.289 2143.4 139.289 Q2141.18 139.289 2139.07 139.821 Q2136.97 140.354 2135.02 141.419 L2135.02 137.483 Q2137.36 136.581 2139.56 136.141 Q2141.76 135.678 2143.84 135.678 Q2149.47 135.678 2152.24 138.594 Q2155.02 141.511 2155.02 147.437 Z" fill="#000000" fill-rule="nonzero" fill-opacity="1" /><path clip-path="url(#clip430)" d="M2185.34 146.581 L2185.34 162.229 L2181.09 162.229 L2181.09 146.719 Q2181.09 143.039 2179.65 141.21 Q2178.22 139.382 2175.34 139.382 Q2171.9 139.382 2169.91 141.581 Q2167.91 143.78 2167.91 147.576 L2167.91 162.229 L2163.63 162.229 L2163.63 136.303 L2167.91 136.303 L2167.91 140.331 Q2169.44 137.993 2171.5 136.835 Q2173.59 135.678 2176.29 135.678 Q2180.76 135.678 2183.05 138.456 Q2185.34 141.21 2185.34 146.581 Z" fill="#000000" fill-rule="nonzero" fill-opacity="1" /><path clip-path="url(#clip430)" d="M2210.9 148.965 Q2210.9 144.335 2208.98 141.789 Q2207.08 139.243 2203.63 139.243 Q2200.21 139.243 2198.28 141.789 Q2196.39 144.335 2196.39 148.965 Q2196.39 153.571 2198.28 156.118 Q2200.21 158.664 2203.63 158.664 Q2207.08 158.664 2208.98 156.118 Q2210.9 153.571 2210.9 148.965 M2215.16 159.011 Q2215.16 165.631 2212.22 168.849 Q2209.28 172.09 2203.22 172.09 Q2200.97 172.09 2198.98 171.742 Q2196.99 171.418 2195.11 170.724 L2195.11 166.58 Q2196.99 167.599 2198.82 168.085 Q2200.65 168.571 2202.54 168.571 Q2206.73 168.571 2208.82 166.372 Q2210.9 164.196 2210.9 159.775 L2210.9 157.668 Q2209.58 159.96 2207.52 161.094 Q2205.46 162.229 2202.59 162.229 Q2197.82 162.229 2194.91 158.594 Q2191.99 154.96 2191.99 148.965 Q2191.99 142.946 2194.91 139.312 Q2197.82 135.678 2202.59 135.678 Q2205.46 135.678 2207.52 136.812 Q2209.58 137.946 2210.9 140.238 L2210.9 136.303 L2215.16 136.303 L2215.16 159.011 Z" fill="#000000" fill-rule="nonzero" fill-opacity="1" /><path clip-path="url(#clip430)" d="M2223.93 126.21 L2228.19 126.21 L2228.19 162.229 L2223.93 162.229 L2223.93 126.21 Z" fill="#000000" fill-rule="nonzero" fill-opacity="1" /><path clip-path="url(#clip430)" d="M2259.28 148.201 L2259.28 150.284 L2239.7 150.284 Q2239.97 154.682 2242.34 156.997 Q2244.72 159.289 2248.96 159.289 Q2251.41 159.289 2253.7 158.687 Q2256.02 158.085 2258.28 156.881 L2258.28 160.909 Q2255.99 161.881 2253.59 162.391 Q2251.18 162.9 2248.7 162.9 Q2242.5 162.9 2238.86 159.289 Q2235.25 155.678 2235.25 149.52 Q2235.25 143.155 2238.68 139.428 Q2242.13 135.678 2247.96 135.678 Q2253.19 135.678 2256.22 139.057 Q2259.28 142.414 2259.28 148.201 M2255.02 146.951 Q2254.97 143.456 2253.05 141.372 Q2251.15 139.289 2248.01 139.289 Q2244.44 139.289 2242.29 141.303 Q2240.16 143.317 2239.84 146.974 L2255.02 146.951 Z" fill="#000000" fill-rule="nonzero" fill-opacity="1" /></svg>
