<?xml version="1.0" encoding="utf-8"?>
<svg xmlns="http://www.w3.org/2000/svg" xmlns:xlink="http://www.w3.org/1999/xlink" width="600" height="400" viewBox="0 0 2400 1600">
<defs>
  <clipPath id="clip330">
    <rect x="0" y="0" width="2400" height="1600"/>
  </clipPath>
</defs>
<path clip-path="url(#clip330)" d="M0 1600 L2400 1600 L2400 0 L0 0  Z" fill="#ffffff" fill-rule="evenodd" fill-opacity="1"/>
<defs>
  <clipPath id="clip331">
    <rect x="480" y="0" width="1681" height="1600"/>
  </clipPath>
</defs>
<path clip-path="url(#clip330)" d="M219.288 1423.18 L2352.76 1423.18 L2352.76 47.2441 L219.288 47.2441  Z" fill="#ffffff" fill-rule="evenodd" fill-opacity="1"/>
<defs>
  <clipPath id="clip332">
    <rect x="219" y="47" width="2134" height="1377"/>
  </clipPath>
</defs>
<polyline clip-path="url(#clip332)" style="stroke:#000000; stroke-linecap:round; stroke-linejoin:round; stroke-width:2; stroke-opacity:0.1; fill:none" points="275.206,1423.18 275.206,47.2441 "/>
<polyline clip-path="url(#clip332)" style="stroke:#000000; stroke-linecap:round; stroke-linejoin:round; stroke-width:2; stroke-opacity:0.1; fill:none" points="721.482,1423.18 721.482,47.2441 "/>
<polyline clip-path="url(#clip332)" style="stroke:#000000; stroke-linecap:round; stroke-linejoin:round; stroke-width:2; stroke-opacity:0.1; fill:none" points="1167.76,1423.18 1167.76,47.2441 "/>
<polyline clip-path="url(#clip332)" style="stroke:#000000; stroke-linecap:round; stroke-linejoin:round; stroke-width:2; stroke-opacity:0.1; fill:none" points="1614.03,1423.18 1614.03,47.2441 "/>
<polyline clip-path="url(#clip332)" style="stroke:#000000; stroke-linecap:round; stroke-linejoin:round; stroke-width:2; stroke-opacity:0.1; fill:none" points="2060.31,1423.18 2060.31,47.2441 "/>
<polyline clip-path="url(#clip330)" style="stroke:#000000; stroke-linecap:round; stroke-linejoin:round; stroke-width:4; stroke-opacity:1; fill:none" points="219.288,1423.18 2352.76,1423.18 "/>
<polyline clip-path="url(#clip330)" style="stroke:#000000; stroke-linecap:round; stroke-linejoin:round; stroke-width:4; stroke-opacity:1; fill:none" points="275.206,1423.18 275.206,1404.28 "/>
<polyline clip-path="url(#clip330)" style="stroke:#000000; stroke-linecap:round; stroke-linejoin:round; stroke-width:4; stroke-opacity:1; fill:none" points="721.482,1423.18 721.482,1404.28 "/>
<polyline clip-path="url(#clip330)" style="stroke:#000000; stroke-linecap:round; stroke-linejoin:round; stroke-width:4; stroke-opacity:1; fill:none" points="1167.76,1423.18 1167.76,1404.28 "/>
<polyline clip-path="url(#clip330)" style="stroke:#000000; stroke-linecap:round; stroke-linejoin:round; stroke-width:4; stroke-opacity:1; fill:none" points="1614.03,1423.18 1614.03,1404.28 "/>
<polyline clip-path="url(#clip330)" style="stroke:#000000; stroke-linecap:round; stroke-linejoin:round; stroke-width:4; stroke-opacity:1; fill:none" points="2060.31,1423.18 2060.31,1404.28 "/>
<path clip-path="url(#clip330)" d="M275.206 1454.1 Q271.595 1454.1 269.766 1457.66 Q267.961 1461.2 267.961 1468.33 Q267.961 1475.44 269.766 1479.01 Q271.595 1482.55 275.206 1482.55 Q278.84 1482.55 280.646 1479.01 Q282.474 1475.44 282.474 1468.33 Q282.474 1461.2 280.646 1457.66 Q278.84 1454.1 275.206 1454.1 M275.206 1450.39 Q281.016 1450.39 284.072 1455 Q287.15 1459.58 287.15 1468.33 Q287.15 1477.06 284.072 1481.67 Q281.016 1486.25 275.206 1486.25 Q269.396 1486.25 266.317 1481.67 Q263.262 1477.06 263.262 1468.33 Q263.262 1459.58 266.317 1455 Q269.396 1450.39 275.206 1450.39 Z" fill="#000000" fill-rule="nonzero" fill-opacity="1" /><path clip-path="url(#clip330)" d="M711.864 1481.64 L719.503 1481.64 L719.503 1455.28 L711.193 1456.95 L711.193 1452.69 L719.457 1451.02 L724.133 1451.02 L724.133 1481.64 L731.772 1481.64 L731.772 1485.58 L711.864 1485.58 L711.864 1481.64 Z" fill="#000000" fill-rule="nonzero" fill-opacity="1" /><path clip-path="url(#clip330)" d="M1162.41 1481.64 L1178.73 1481.64 L1178.73 1485.58 L1156.79 1485.58 L1156.79 1481.64 Q1159.45 1478.89 1164.03 1474.26 Q1168.64 1469.61 1169.82 1468.27 Q1172.06 1465.74 1172.94 1464.01 Q1173.85 1462.25 1173.85 1460.56 Q1173.85 1457.8 1171.9 1456.07 Q1169.98 1454.33 1166.88 1454.33 Q1164.68 1454.33 1162.23 1455.09 Q1159.8 1455.86 1157.02 1457.41 L1157.02 1452.69 Q1159.84 1451.55 1162.3 1450.97 Q1164.75 1450.39 1166.79 1450.39 Q1172.16 1450.39 1175.35 1453.08 Q1178.55 1455.77 1178.55 1460.26 Q1178.55 1462.39 1177.74 1464.31 Q1176.95 1466.2 1174.84 1468.8 Q1174.26 1469.47 1171.16 1472.69 Q1168.06 1475.88 1162.41 1481.64 Z" fill="#000000" fill-rule="nonzero" fill-opacity="1" /><path clip-path="url(#clip330)" d="M1618.28 1466.95 Q1621.64 1467.66 1623.51 1469.93 Q1625.41 1472.2 1625.41 1475.53 Q1625.41 1480.65 1621.89 1483.45 Q1618.38 1486.25 1611.89 1486.25 Q1609.72 1486.25 1607.4 1485.81 Q1605.11 1485.39 1602.66 1484.54 L1602.66 1480.02 Q1604.6 1481.16 1606.92 1481.74 Q1609.23 1482.32 1611.75 1482.32 Q1616.15 1482.32 1618.44 1480.58 Q1620.76 1478.84 1620.76 1475.53 Q1620.76 1472.48 1618.61 1470.77 Q1616.48 1469.03 1612.66 1469.03 L1608.63 1469.03 L1608.63 1465.19 L1612.84 1465.19 Q1616.29 1465.19 1618.12 1463.82 Q1619.95 1462.43 1619.95 1459.84 Q1619.95 1457.18 1618.05 1455.77 Q1616.18 1454.33 1612.66 1454.33 Q1610.74 1454.33 1608.54 1454.75 Q1606.34 1455.16 1603.7 1456.04 L1603.7 1451.88 Q1606.36 1451.14 1608.68 1450.77 Q1611.01 1450.39 1613.07 1450.39 Q1618.4 1450.39 1621.5 1452.83 Q1624.6 1455.23 1624.6 1459.35 Q1624.6 1462.22 1622.96 1464.21 Q1621.31 1466.18 1618.28 1466.95 Z" fill="#000000" fill-rule="nonzero" fill-opacity="1" /><path clip-path="url(#clip330)" d="M2063.32 1455.09 L2051.51 1473.54 L2063.32 1473.54 L2063.32 1455.09 M2062.09 1451.02 L2067.97 1451.02 L2067.97 1473.54 L2072.9 1473.54 L2072.9 1477.43 L2067.97 1477.43 L2067.97 1485.58 L2063.32 1485.58 L2063.32 1477.43 L2047.72 1477.43 L2047.72 1472.92 L2062.09 1451.02 Z" fill="#000000" fill-rule="nonzero" fill-opacity="1" /><path clip-path="url(#clip330)" d="M1027.8 1520.52 L1034.23 1520.52 L1034.23 1562.63 L1057.37 1562.63 L1057.37 1568.04 L1027.8 1568.04 L1027.8 1520.52 Z" fill="#000000" fill-rule="nonzero" fill-opacity="1" /><path clip-path="url(#clip330)" d="M1076.53 1536.5 Q1071.82 1536.5 1069.08 1540.19 Q1066.34 1543.85 1066.34 1550.25 Q1066.34 1556.65 1069.05 1560.34 Q1071.78 1564 1076.53 1564 Q1081.21 1564 1083.94 1560.31 Q1086.68 1556.62 1086.68 1550.25 Q1086.68 1543.92 1083.94 1540.23 Q1081.21 1536.5 1076.53 1536.5 M1076.53 1531.54 Q1084.17 1531.54 1088.53 1536.5 Q1092.89 1541.47 1092.89 1550.25 Q1092.89 1559 1088.53 1564 Q1084.17 1568.97 1076.53 1568.97 Q1068.86 1568.97 1064.5 1564 Q1060.17 1559 1060.17 1550.25 Q1060.17 1541.47 1064.5 1536.5 Q1068.86 1531.54 1076.53 1531.54 Z" fill="#000000" fill-rule="nonzero" fill-opacity="1" /><path clip-path="url(#clip330)" d="M1118.79 1550.12 Q1111.7 1550.12 1108.96 1551.75 Q1106.22 1553.37 1106.22 1557.29 Q1106.22 1560.4 1108.26 1562.25 Q1110.33 1564.07 1113.86 1564.07 Q1118.73 1564.07 1121.66 1560.63 Q1124.62 1557.16 1124.62 1551.43 L1124.62 1550.12 L1118.79 1550.12 M1130.48 1547.71 L1130.48 1568.04 L1124.62 1568.04 L1124.62 1562.63 Q1122.61 1565.88 1119.62 1567.44 Q1116.63 1568.97 1112.3 1568.97 Q1106.83 1568.97 1103.58 1565.91 Q1100.37 1562.82 1100.37 1557.67 Q1100.37 1551.65 1104.38 1548.6 Q1108.42 1545.54 1116.41 1545.54 L1124.62 1545.54 L1124.62 1544.97 Q1124.62 1540.93 1121.95 1538.73 Q1119.3 1536.5 1114.5 1536.5 Q1111.44 1536.5 1108.55 1537.23 Q1105.65 1537.97 1102.98 1539.43 L1102.98 1534.02 Q1106.19 1532.78 1109.21 1532.17 Q1112.24 1531.54 1115.1 1531.54 Q1122.84 1531.54 1126.66 1535.55 Q1130.48 1539.56 1130.48 1547.71 Z" fill="#000000" fill-rule="nonzero" fill-opacity="1" /><path clip-path="url(#clip330)" d="M1166 1537.81 L1166 1518.52 L1171.85 1518.52 L1171.85 1568.04 L1166 1568.04 L1166 1562.7 Q1164.15 1565.88 1161.32 1567.44 Q1158.52 1568.97 1154.57 1568.97 Q1148.11 1568.97 1144.03 1563.81 Q1139.99 1558.65 1139.99 1550.25 Q1139.99 1541.85 1144.03 1536.69 Q1148.11 1531.54 1154.57 1531.54 Q1158.52 1531.54 1161.32 1533.1 Q1164.15 1534.62 1166 1537.81 M1146.04 1550.25 Q1146.04 1556.71 1148.68 1560.4 Q1151.36 1564.07 1156 1564.07 Q1160.65 1564.07 1163.32 1560.4 Q1166 1556.71 1166 1550.25 Q1166 1543.79 1163.32 1540.13 Q1160.65 1536.44 1156 1536.44 Q1151.36 1536.44 1148.68 1540.13 Q1146.04 1543.79 1146.04 1550.25 Z" fill="#000000" fill-rule="nonzero" fill-opacity="1" /><path clip-path="url(#clip330)" d="M1211.32 1525.81 L1211.32 1543.66 L1219.4 1543.66 Q1223.89 1543.66 1226.34 1541.34 Q1228.79 1539.02 1228.79 1534.72 Q1228.79 1530.45 1226.34 1528.13 Q1223.89 1525.81 1219.4 1525.81 L1211.32 1525.81 M1204.89 1520.52 L1219.4 1520.52 Q1227.39 1520.52 1231.47 1524.15 Q1235.57 1527.75 1235.57 1534.72 Q1235.57 1541.75 1231.47 1545.35 Q1227.39 1548.95 1219.4 1548.95 L1211.32 1548.95 L1211.32 1568.04 L1204.89 1568.04 L1204.89 1520.52 Z" fill="#000000" fill-rule="nonzero" fill-opacity="1" /><path clip-path="url(#clip330)" d="M1255.43 1536.5 Q1250.72 1536.5 1247.99 1540.19 Q1245.25 1543.85 1245.25 1550.25 Q1245.25 1556.65 1247.95 1560.34 Q1250.69 1564 1255.43 1564 Q1260.11 1564 1262.85 1560.31 Q1265.59 1556.62 1265.59 1550.25 Q1265.59 1543.92 1262.85 1540.23 Q1260.11 1536.5 1255.43 1536.5 M1255.43 1531.54 Q1263.07 1531.54 1267.43 1536.5 Q1271.79 1541.47 1271.79 1550.25 Q1271.79 1559 1267.43 1564 Q1263.07 1568.97 1255.43 1568.97 Q1247.76 1568.97 1243.4 1564 Q1239.07 1559 1239.07 1550.25 Q1239.07 1541.47 1243.4 1536.5 Q1247.76 1531.54 1255.43 1531.54 Z" fill="#000000" fill-rule="nonzero" fill-opacity="1" /><path clip-path="url(#clip330)" d="M1278.1 1532.4 L1283.95 1532.4 L1291.27 1560.21 L1298.56 1532.4 L1305.47 1532.4 L1312.79 1560.21 L1320.08 1532.4 L1325.93 1532.4 L1316.61 1568.04 L1309.7 1568.04 L1302.03 1538.83 L1294.33 1568.04 L1287.42 1568.04 L1278.1 1532.4 Z" fill="#000000" fill-rule="nonzero" fill-opacity="1" /><path clip-path="url(#clip330)" d="M1365.31 1548.76 L1365.31 1551.62 L1338.38 1551.62 Q1338.76 1557.67 1342.01 1560.85 Q1345.29 1564 1351.11 1564 Q1354.48 1564 1357.64 1563.17 Q1360.82 1562.35 1363.94 1560.69 L1363.94 1566.23 Q1360.79 1567.57 1357.48 1568.27 Q1354.17 1568.97 1350.76 1568.97 Q1342.23 1568.97 1337.23 1564 Q1332.27 1559.04 1332.27 1550.57 Q1332.27 1541.82 1336.98 1536.69 Q1341.72 1531.54 1349.74 1531.54 Q1356.94 1531.54 1361.11 1536.18 Q1365.31 1540.8 1365.31 1548.76 M1359.45 1547.04 Q1359.39 1542.23 1356.74 1539.37 Q1354.13 1536.5 1349.81 1536.5 Q1344.9 1536.5 1341.94 1539.27 Q1339.02 1542.04 1338.57 1547.07 L1359.45 1547.04 Z" fill="#000000" fill-rule="nonzero" fill-opacity="1" /><path clip-path="url(#clip330)" d="M1395.58 1537.87 Q1394.59 1537.3 1393.41 1537.04 Q1392.27 1536.76 1390.86 1536.76 Q1385.9 1536.76 1383.23 1540 Q1380.58 1543.22 1380.58 1549.27 L1380.58 1568.04 L1374.7 1568.04 L1374.7 1532.4 L1380.58 1532.4 L1380.58 1537.93 Q1382.43 1534.69 1385.39 1533.13 Q1388.35 1531.54 1392.58 1531.54 Q1393.19 1531.54 1393.92 1531.63 Q1394.65 1531.7 1395.54 1531.85 L1395.58 1537.87 Z" fill="#000000" fill-rule="nonzero" fill-opacity="1" /><path clip-path="url(#clip330)" d="M1421.9 1518.52 L1435.39 1518.52 L1435.39 1523.07 L1427.75 1523.07 L1427.75 1572.09 L1435.39 1572.09 L1435.39 1576.64 L1421.9 1576.64 L1421.9 1518.52 Z" fill="#000000" fill-rule="nonzero" fill-opacity="1" /><path clip-path="url(#clip330)" d="M1453.54 1562.7 L1453.54 1581.6 L1447.65 1581.6 L1447.65 1532.4 L1453.54 1532.4 L1453.54 1537.81 Q1455.38 1534.62 1458.18 1533.1 Q1461.02 1531.54 1464.93 1531.54 Q1471.42 1531.54 1475.47 1536.69 Q1479.54 1541.85 1479.54 1550.25 Q1479.54 1558.65 1475.47 1563.81 Q1471.42 1568.97 1464.93 1568.97 Q1461.02 1568.97 1458.18 1567.44 Q1455.38 1565.88 1453.54 1562.7 M1473.46 1550.25 Q1473.46 1543.79 1470.79 1540.13 Q1468.14 1536.44 1463.5 1536.44 Q1458.85 1536.44 1456.18 1540.13 Q1453.54 1543.79 1453.54 1550.25 Q1453.54 1556.71 1456.18 1560.4 Q1458.85 1564.07 1463.5 1564.07 Q1468.14 1564.07 1470.79 1560.4 Q1473.46 1556.71 1473.46 1550.25 Z" fill="#000000" fill-rule="nonzero" fill-opacity="1" /><path clip-path="url(#clip330)" d="M1488.64 1553.98 L1488.64 1532.4 L1494.5 1532.4 L1494.5 1553.75 Q1494.5 1558.81 1496.47 1561.36 Q1498.45 1563.87 1502.39 1563.87 Q1507.13 1563.87 1509.87 1560.85 Q1512.64 1557.83 1512.64 1552.61 L1512.64 1532.4 L1518.5 1532.4 L1518.5 1568.04 L1512.64 1568.04 L1512.64 1562.57 Q1510.51 1565.82 1507.68 1567.41 Q1504.87 1568.97 1501.15 1568.97 Q1495.01 1568.97 1491.83 1565.15 Q1488.64 1561.33 1488.64 1553.98 M1503.38 1531.54 L1503.38 1531.54 Z" fill="#000000" fill-rule="nonzero" fill-opacity="1" /><path clip-path="url(#clip330)" d="M1544.25 1518.52 L1544.25 1576.64 L1530.75 1576.64 L1530.75 1572.09 L1538.36 1572.09 L1538.36 1523.07 L1530.75 1523.07 L1530.75 1518.52 L1544.25 1518.52 Z" fill="#000000" fill-rule="nonzero" fill-opacity="1" /><polyline clip-path="url(#clip332)" style="stroke:#000000; stroke-linecap:round; stroke-linejoin:round; stroke-width:2; stroke-opacity:0.1; fill:none" points="219.288,1359.26 2352.76,1359.26 "/>
<polyline clip-path="url(#clip332)" style="stroke:#000000; stroke-linecap:round; stroke-linejoin:round; stroke-width:2; stroke-opacity:0.1; fill:none" points="219.288,935.465 2352.76,935.465 "/>
<polyline clip-path="url(#clip332)" style="stroke:#000000; stroke-linecap:round; stroke-linejoin:round; stroke-width:2; stroke-opacity:0.1; fill:none" points="219.288,511.672 2352.76,511.672 "/>
<polyline clip-path="url(#clip332)" style="stroke:#000000; stroke-linecap:round; stroke-linejoin:round; stroke-width:2; stroke-opacity:0.1; fill:none" points="219.288,87.8795 2352.76,87.8795 "/>
<polyline clip-path="url(#clip330)" style="stroke:#000000; stroke-linecap:round; stroke-linejoin:round; stroke-width:4; stroke-opacity:1; fill:none" points="219.288,1423.18 219.288,47.2441 "/>
<polyline clip-path="url(#clip330)" style="stroke:#000000; stroke-linecap:round; stroke-linejoin:round; stroke-width:4; stroke-opacity:1; fill:none" points="219.288,1359.26 238.185,1359.26 "/>
<polyline clip-path="url(#clip330)" style="stroke:#000000; stroke-linecap:round; stroke-linejoin:round; stroke-width:4; stroke-opacity:1; fill:none" points="219.288,935.465 238.185,935.465 "/>
<polyline clip-path="url(#clip330)" style="stroke:#000000; stroke-linecap:round; stroke-linejoin:round; stroke-width:4; stroke-opacity:1; fill:none" points="219.288,511.672 238.185,511.672 "/>
<polyline clip-path="url(#clip330)" style="stroke:#000000; stroke-linecap:round; stroke-linejoin:round; stroke-width:4; stroke-opacity:1; fill:none" points="219.288,87.8795 238.185,87.8795 "/>
<path clip-path="url(#clip330)" d="M127.015 1345.06 Q123.404 1345.06 121.575 1348.62 Q119.769 1352.16 119.769 1359.29 Q119.769 1366.4 121.575 1369.96 Q123.404 1373.51 127.015 1373.51 Q130.649 1373.51 132.455 1369.96 Q134.283 1366.4 134.283 1359.29 Q134.283 1352.16 132.455 1348.62 Q130.649 1345.06 127.015 1345.06 M127.015 1341.35 Q132.825 1341.35 135.88 1345.96 Q138.959 1350.54 138.959 1359.29 Q138.959 1368.02 135.88 1372.63 Q132.825 1377.21 127.015 1377.21 Q121.205 1377.21 118.126 1372.63 Q115.07 1368.02 115.07 1359.29 Q115.07 1350.54 118.126 1345.96 Q121.205 1341.35 127.015 1341.35 Z" fill="#000000" fill-rule="nonzero" fill-opacity="1" /><path clip-path="url(#clip330)" d="M147.177 1370.66 L152.061 1370.66 L152.061 1376.54 L147.177 1376.54 L147.177 1370.66 Z" fill="#000000" fill-rule="nonzero" fill-opacity="1" /><path clip-path="url(#clip330)" d="M161.065 1341.98 L183.288 1341.98 L183.288 1343.97 L170.741 1376.54 L165.857 1376.54 L177.663 1345.91 L161.065 1345.91 L161.065 1341.98 Z" fill="#000000" fill-rule="nonzero" fill-opacity="1" /><path clip-path="url(#clip330)" d="M126.205 921.264 Q122.593 921.264 120.765 924.829 Q118.959 928.37 118.959 935.5 Q118.959 942.606 120.765 946.171 Q122.593 949.713 126.205 949.713 Q129.839 949.713 131.644 946.171 Q133.473 942.606 133.473 935.5 Q133.473 928.37 131.644 924.829 Q129.839 921.264 126.205 921.264 M126.205 917.56 Q132.015 917.56 135.07 922.167 Q138.149 926.75 138.149 935.5 Q138.149 944.227 135.07 948.833 Q132.015 953.416 126.205 953.416 Q120.394 953.416 117.316 948.833 Q114.26 944.227 114.26 935.5 Q114.26 926.75 117.316 922.167 Q120.394 917.56 126.205 917.56 Z" fill="#000000" fill-rule="nonzero" fill-opacity="1" /><path clip-path="url(#clip330)" d="M146.366 946.866 L151.251 946.866 L151.251 952.745 L146.366 952.745 L146.366 946.866 Z" fill="#000000" fill-rule="nonzero" fill-opacity="1" /><path clip-path="url(#clip330)" d="M171.436 936.333 Q168.102 936.333 166.181 938.116 Q164.283 939.898 164.283 943.023 Q164.283 946.148 166.181 947.93 Q168.102 949.713 171.436 949.713 Q174.769 949.713 176.69 947.93 Q178.612 946.125 178.612 943.023 Q178.612 939.898 176.69 938.116 Q174.792 936.333 171.436 936.333 M166.76 934.342 Q163.751 933.602 162.061 931.542 Q160.394 929.481 160.394 926.518 Q160.394 922.375 163.334 919.968 Q166.297 917.56 171.436 917.56 Q176.598 917.56 179.538 919.968 Q182.477 922.375 182.477 926.518 Q182.477 929.481 180.788 931.542 Q179.121 933.602 176.135 934.342 Q179.514 935.13 181.389 937.421 Q183.288 939.713 183.288 943.023 Q183.288 948.046 180.209 950.731 Q177.153 953.416 171.436 953.416 Q165.718 953.416 162.64 950.731 Q159.584 948.046 159.584 943.023 Q159.584 939.713 161.482 937.421 Q163.38 935.13 166.76 934.342 M165.047 926.958 Q165.047 929.643 166.714 931.148 Q168.403 932.653 171.436 932.653 Q174.445 932.653 176.135 931.148 Q177.848 929.643 177.848 926.958 Q177.848 924.273 176.135 922.768 Q174.445 921.264 171.436 921.264 Q168.403 921.264 166.714 922.768 Q165.047 924.273 165.047 926.958 Z" fill="#000000" fill-rule="nonzero" fill-opacity="1" /><path clip-path="url(#clip330)" d="M126.297 497.471 Q122.686 497.471 120.857 501.036 Q119.052 504.577 119.052 511.707 Q119.052 518.814 120.857 522.378 Q122.686 525.92 126.297 525.92 Q129.931 525.92 131.737 522.378 Q133.566 518.814 133.566 511.707 Q133.566 504.577 131.737 501.036 Q129.931 497.471 126.297 497.471 M126.297 493.767 Q132.107 493.767 135.163 498.374 Q138.242 502.957 138.242 511.707 Q138.242 520.434 135.163 525.04 Q132.107 529.624 126.297 529.624 Q120.487 529.624 117.408 525.04 Q114.353 520.434 114.353 511.707 Q114.353 502.957 117.408 498.374 Q120.487 493.767 126.297 493.767 Z" fill="#000000" fill-rule="nonzero" fill-opacity="1" /><path clip-path="url(#clip330)" d="M146.459 523.073 L151.343 523.073 L151.343 528.952 L146.459 528.952 L146.459 523.073 Z" fill="#000000" fill-rule="nonzero" fill-opacity="1" /><path clip-path="url(#clip330)" d="M161.667 528.235 L161.667 523.976 Q163.427 524.809 165.232 525.249 Q167.038 525.688 168.774 525.688 Q173.403 525.688 175.834 522.587 Q178.288 519.462 178.635 513.119 Q177.292 515.11 175.232 516.175 Q173.172 517.239 170.672 517.239 Q165.487 517.239 162.454 514.114 Q159.445 510.966 159.445 505.527 Q159.445 500.203 162.593 496.985 Q165.741 493.767 170.973 493.767 Q176.968 493.767 180.116 498.374 Q183.288 502.957 183.288 511.707 Q183.288 519.878 179.399 524.763 Q175.533 529.624 168.982 529.624 Q167.223 529.624 165.417 529.276 Q163.612 528.929 161.667 528.235 M170.973 513.582 Q174.121 513.582 175.95 511.429 Q177.801 509.277 177.801 505.527 Q177.801 501.8 175.95 499.647 Q174.121 497.471 170.973 497.471 Q167.825 497.471 165.973 499.647 Q164.144 501.8 164.144 505.527 Q164.144 509.277 165.973 511.429 Q167.825 513.582 170.973 513.582 Z" fill="#000000" fill-rule="nonzero" fill-opacity="1" /><path clip-path="url(#clip330)" d="M116.922 101.224 L124.561 101.224 L124.561 74.8588 L116.251 76.5254 L116.251 72.2662 L124.515 70.5995 L129.191 70.5995 L129.191 101.224 L136.829 101.224 L136.829 105.16 L116.922 105.16 L116.922 101.224 Z" fill="#000000" fill-rule="nonzero" fill-opacity="1" /><path clip-path="url(#clip330)" d="M146.274 99.2799 L151.158 99.2799 L151.158 105.16 L146.274 105.16 L146.274 99.2799 Z" fill="#000000" fill-rule="nonzero" fill-opacity="1" /><path clip-path="url(#clip330)" d="M171.343 73.6782 Q167.732 73.6782 165.903 77.243 Q164.098 80.7847 164.098 87.9142 Q164.098 95.0207 165.903 98.5855 Q167.732 102.127 171.343 102.127 Q174.977 102.127 176.783 98.5855 Q178.612 95.0207 178.612 87.9142 Q178.612 80.7847 176.783 77.243 Q174.977 73.6782 171.343 73.6782 M171.343 69.9745 Q177.153 69.9745 180.209 74.581 Q183.288 79.1643 183.288 87.9142 Q183.288 96.6411 180.209 101.248 Q177.153 105.831 171.343 105.831 Q165.533 105.831 162.454 101.248 Q159.399 96.6411 159.399 87.9142 Q159.399 79.1643 162.454 74.581 Q165.533 69.9745 171.343 69.9745 Z" fill="#000000" fill-rule="nonzero" fill-opacity="1" /><path clip-path="url(#clip330)" d="M16.4842 1087.51 L16.4842 1081.08 L58.5933 1081.08 L58.5933 1057.94 L64.0042 1057.94 L64.0042 1087.51 L16.4842 1087.51 Z" fill="#000000" fill-rule="nonzero" fill-opacity="1" /><path clip-path="url(#clip330)" d="M32.4621 1038.78 Q32.4621 1043.49 36.1542 1046.22 Q39.8145 1048.96 46.212 1048.96 Q52.6095 1048.96 56.3017 1046.26 Q59.9619 1043.52 59.9619 1038.78 Q59.9619 1034.1 56.2698 1031.36 Q52.5777 1028.62 46.212 1028.62 Q39.8781 1028.62 36.186 1031.36 Q32.4621 1034.1 32.4621 1038.78 M27.4968 1038.78 Q27.4968 1031.14 32.4621 1026.78 Q37.4273 1022.42 46.212 1022.42 Q54.9649 1022.42 59.9619 1026.78 Q64.9272 1031.14 64.9272 1038.78 Q64.9272 1046.45 59.9619 1050.81 Q54.9649 1055.14 46.212 1055.14 Q37.4273 1055.14 32.4621 1050.81 Q27.4968 1046.45 27.4968 1038.78 Z" fill="#000000" fill-rule="nonzero" fill-opacity="1" /><path clip-path="url(#clip330)" d="M46.0847 996.508 Q46.0847 1003.61 47.7079 1006.34 Q49.3312 1009.08 53.2461 1009.08 Q56.3653 1009.08 58.2114 1007.04 Q60.0256 1004.97 60.0256 1001.44 Q60.0256 996.572 56.5881 993.644 Q53.1188 990.684 47.3897 990.684 L46.0847 990.684 L46.0847 996.508 M43.6657 984.827 L64.0042 984.827 L64.0042 990.684 L58.5933 990.684 Q61.8398 992.689 63.3994 995.681 Q64.9272 998.673 64.9272 1003 Q64.9272 1008.48 61.8716 1011.72 Q58.7843 1014.94 53.6281 1014.94 Q47.6125 1014.94 44.5569 1010.93 Q41.5014 1006.88 41.5014 998.895 L41.5014 990.684 L40.9285 990.684 Q36.8862 990.684 34.6901 993.357 Q32.4621 995.999 32.4621 1000.81 Q32.4621 1003.86 33.1941 1006.76 Q33.9262 1009.65 35.3903 1012.33 L29.9795 1012.33 Q28.7381 1009.11 28.1334 1006.09 Q27.4968 1003.06 27.4968 1000.2 Q27.4968 992.466 31.5072 988.647 Q35.5176 984.827 43.6657 984.827 Z" fill="#000000" fill-rule="nonzero" fill-opacity="1" /><path clip-path="url(#clip330)" d="M33.7671 949.307 L14.479 949.307 L14.479 943.45 L64.0042 943.45 L64.0042 949.307 L58.657 949.307 Q61.8398 951.153 63.3994 953.985 Q64.9272 956.786 64.9272 960.733 Q64.9272 967.194 59.771 971.268 Q54.6147 975.311 46.212 975.311 Q37.8093 975.311 32.6531 971.268 Q27.4968 967.194 27.4968 960.733 Q27.4968 956.786 29.0564 953.985 Q30.5842 951.153 33.7671 949.307 M46.212 969.263 Q52.6732 969.263 56.3653 966.621 Q60.0256 963.948 60.0256 959.301 Q60.0256 954.654 56.3653 951.98 Q52.6732 949.307 46.212 949.307 Q39.7508 949.307 36.0905 951.98 Q32.3984 954.654 32.3984 959.301 Q32.3984 963.948 36.0905 966.621 Q39.7508 969.263 46.212 969.263 Z" fill="#000000" fill-rule="nonzero" fill-opacity="1" /><path clip-path="url(#clip330)" d="M41.3104 903.983 L58.7206 903.983 L58.7206 893.67 Q58.7206 888.482 56.5881 886 Q54.4238 883.485 49.9996 883.485 Q45.5436 883.485 43.4429 886 Q41.3104 888.482 41.3104 893.67 L41.3104 903.983 M21.7677 903.983 L36.0905 903.983 L36.0905 894.466 Q36.0905 889.755 34.34 887.464 Q32.5576 885.14 28.9291 885.14 Q25.3325 885.14 23.5501 887.464 Q21.7677 889.755 21.7677 894.466 L21.7677 903.983 M16.4842 910.412 L16.4842 893.989 Q16.4842 886.636 19.5397 882.658 Q22.5952 878.679 28.2289 878.679 Q32.5894 878.679 35.1675 880.716 Q37.7456 882.753 38.3822 886.7 Q39.4007 881.957 42.6472 879.347 Q45.8619 876.706 50.6998 876.706 Q57.0655 876.706 60.5348 881.034 Q64.0042 885.363 64.0042 893.352 L64.0042 910.412 L16.4842 910.412 Z" fill="#000000" fill-rule="nonzero" fill-opacity="1" /><path clip-path="url(#clip330)" d="M49.9359 866.552 L28.3562 866.552 L28.3562 860.696 L49.7131 860.696 Q54.7739 860.696 57.3202 858.723 Q59.8346 856.749 59.8346 852.802 Q59.8346 848.06 56.8109 845.323 Q53.7872 842.554 48.5673 842.554 L28.3562 842.554 L28.3562 836.697 L64.0042 836.697 L64.0042 842.554 L58.5296 842.554 Q61.7762 844.686 63.3676 847.519 Q64.9272 850.32 64.9272 854.044 Q64.9272 860.187 61.1078 863.37 Q57.2883 866.552 49.9359 866.552 M27.4968 851.816 L27.4968 851.816 Z" fill="#000000" fill-rule="nonzero" fill-opacity="1" /><path clip-path="url(#clip330)" d="M29.4065 801.909 L34.9447 801.909 Q33.6716 804.391 33.035 807.065 Q32.3984 809.738 32.3984 812.603 Q32.3984 816.964 33.7352 819.16 Q35.072 821.324 37.7456 821.324 Q39.7826 821.324 40.9603 819.764 Q42.1061 818.205 43.1565 813.494 L43.6021 811.489 Q44.9389 805.251 47.3897 802.641 Q49.8086 799.999 54.1691 799.999 Q59.1344 799.999 62.0308 803.946 Q64.9272 807.861 64.9272 814.736 Q64.9272 817.6 64.3543 820.719 Q63.8132 823.807 62.6992 827.244 L56.6518 827.244 Q58.3387 823.998 59.198 820.847 Q60.0256 817.696 60.0256 814.608 Q60.0256 810.471 58.6251 808.243 Q57.1929 806.015 54.6147 806.015 Q52.2276 806.015 50.9545 807.638 Q49.6813 809.229 48.5037 814.672 L48.0262 816.709 Q46.8804 822.152 44.5251 824.571 Q42.138 826.99 38.0002 826.99 Q32.9713 826.99 30.2341 823.425 Q27.4968 819.86 27.4968 813.303 Q27.4968 810.057 27.9743 807.192 Q28.4517 804.328 29.4065 801.909 Z" fill="#000000" fill-rule="nonzero" fill-opacity="1" /><path clip-path="url(#clip330)" d="M64.0042 757.444 L16.4842 775.586 L16.4842 768.871 L56.4926 753.816 L16.4842 738.729 L16.4842 732.045 L64.0042 750.155 L64.0042 757.444 Z" fill="#000000" fill-rule="nonzero" fill-opacity="1" /><path clip-path="url(#clip330)" d="M32.4621 716.608 Q32.4621 721.319 36.1542 724.056 Q39.8145 726.793 46.212 726.793 Q52.6095 726.793 56.3017 724.088 Q59.9619 721.351 59.9619 716.608 Q59.9619 711.929 56.2698 709.192 Q52.5777 706.455 46.212 706.455 Q39.8781 706.455 36.186 709.192 Q32.4621 711.929 32.4621 716.608 M27.4968 716.608 Q27.4968 708.969 32.4621 704.609 Q37.4273 700.248 46.212 700.248 Q54.9649 700.248 59.9619 704.609 Q64.9272 708.969 64.9272 716.608 Q64.9272 724.279 59.9619 728.639 Q54.9649 732.968 46.212 732.968 Q37.4273 732.968 32.4621 728.639 Q27.4968 724.279 27.4968 716.608 Z" fill="#000000" fill-rule="nonzero" fill-opacity="1" /><path clip-path="url(#clip330)" d="M14.479 690.541 L14.479 684.684 L64.0042 684.684 L64.0042 690.541 L14.479 690.541 Z" fill="#000000" fill-rule="nonzero" fill-opacity="1" /><path clip-path="url(#clip330)" d="M18.2347 666.637 L28.3562 666.637 L28.3562 654.574 L32.9077 654.574 L32.9077 666.637 L52.2594 666.637 Q56.6199 666.637 57.8613 665.46 Q59.1026 664.25 59.1026 660.59 L59.1026 654.574 L64.0042 654.574 L64.0042 660.59 Q64.0042 667.369 61.4897 669.948 Q58.9434 672.526 52.2594 672.526 L32.9077 672.526 L32.9077 676.823 L28.3562 676.823 L28.3562 672.526 L18.2347 672.526 L18.2347 666.637 Z" fill="#000000" fill-rule="nonzero" fill-opacity="1" /><path clip-path="url(#clip330)" d="M46.0847 630.671 Q46.0847 637.769 47.7079 640.506 Q49.3312 643.243 53.2461 643.243 Q56.3653 643.243 58.2114 641.206 Q60.0256 639.138 60.0256 635.605 Q60.0256 630.735 56.5881 627.807 Q53.1188 624.847 47.3897 624.847 L46.0847 624.847 L46.0847 630.671 M43.6657 618.99 L64.0042 618.99 L64.0042 624.847 L58.5933 624.847 Q61.8398 626.852 63.3994 629.844 Q64.9272 632.835 64.9272 637.164 Q64.9272 642.639 61.8716 645.885 Q58.7843 649.1 53.6281 649.1 Q47.6125 649.1 44.5569 645.089 Q41.5014 641.047 41.5014 633.058 L41.5014 624.847 L40.9285 624.847 Q36.8862 624.847 34.6901 627.52 Q32.4621 630.162 32.4621 634.968 Q32.4621 638.024 33.1941 640.92 Q33.9262 643.816 35.3903 646.49 L29.9795 646.49 Q28.7381 643.275 28.1334 640.252 Q27.4968 637.228 27.4968 634.363 Q27.4968 626.629 31.5072 622.81 Q35.5176 618.99 43.6657 618.99 Z" fill="#000000" fill-rule="nonzero" fill-opacity="1" /><path clip-path="url(#clip330)" d="M45.7664 583.469 Q39.4007 583.469 35.8996 586.111 Q32.3984 588.721 32.3984 593.464 Q32.3984 598.174 35.8996 600.816 Q39.4007 603.426 45.7664 603.426 Q52.1003 603.426 55.6014 600.816 Q59.1026 598.174 59.1026 593.464 Q59.1026 588.721 55.6014 586.111 Q52.1003 583.469 45.7664 583.469 M59.58 577.613 Q68.683 577.613 73.1071 581.655 Q77.5631 585.697 77.5631 594.037 Q77.5631 597.124 77.0857 599.861 Q76.6401 602.598 75.6852 605.176 L69.9879 605.176 Q71.3884 602.598 72.0568 600.084 Q72.7252 597.569 72.7252 594.96 Q72.7252 589.199 69.7015 586.334 Q66.7096 583.469 60.6303 583.469 L57.7339 583.469 Q60.885 585.284 62.4446 588.116 Q64.0042 590.949 64.0042 594.896 Q64.0042 601.453 59.0071 605.463 Q54.01 609.473 45.7664 609.473 Q37.491 609.473 32.4939 605.463 Q27.4968 601.453 27.4968 594.896 Q27.4968 590.949 29.0564 588.116 Q30.616 585.284 33.7671 583.469 L28.3562 583.469 L28.3562 577.613 L59.58 577.613 Z" fill="#000000" fill-rule="nonzero" fill-opacity="1" /><path clip-path="url(#clip330)" d="M44.7161 535.058 L47.5806 535.058 L47.5806 561.985 Q53.6281 561.603 56.8109 558.357 Q59.9619 555.078 59.9619 549.254 Q59.9619 545.88 59.1344 542.729 Q58.3069 539.546 56.6518 536.427 L62.1899 536.427 Q63.5267 539.578 64.227 542.888 Q64.9272 546.198 64.9272 549.604 Q64.9272 558.134 59.9619 563.131 Q54.9967 568.096 46.5303 568.096 Q37.7774 568.096 32.6531 563.386 Q27.4968 558.643 27.4968 550.622 Q27.4968 543.429 32.1438 539.26 Q36.7589 535.058 44.7161 535.058 M42.9973 540.915 Q38.1912 540.978 35.3266 543.62 Q32.4621 546.23 32.4621 550.559 Q32.4621 555.46 35.2312 558.42 Q38.0002 561.349 43.0292 561.794 L42.9973 540.915 Z" fill="#000000" fill-rule="nonzero" fill-opacity="1" /><path clip-path="url(#clip330)" d="M14.479 505.267 L14.479 491.771 L19.0304 491.771 L19.0304 499.41 L68.0464 499.41 L68.0464 491.771 L72.5979 491.771 L72.5979 505.267 L14.479 505.267 Z" fill="#000000" fill-rule="nonzero" fill-opacity="1" /><path clip-path="url(#clip330)" d="M58.657 473.629 L77.5631 473.629 L77.5631 479.517 L28.3562 479.517 L28.3562 473.629 L33.7671 473.629 Q30.5842 471.783 29.0564 468.982 Q27.4968 466.149 27.4968 462.235 Q27.4968 455.742 32.6531 451.699 Q37.8093 447.625 46.212 447.625 Q54.6147 447.625 59.771 451.699 Q64.9272 455.742 64.9272 462.235 Q64.9272 466.149 63.3994 468.982 Q61.8398 471.783 58.657 473.629 M46.212 453.705 Q39.7508 453.705 36.0905 456.378 Q32.3984 459.02 32.3984 463.667 Q32.3984 468.314 36.0905 470.987 Q39.7508 473.629 46.212 473.629 Q52.6732 473.629 56.3653 470.987 Q60.0256 468.314 60.0256 463.667 Q60.0256 459.02 56.3653 456.378 Q52.6732 453.705 46.212 453.705 Z" fill="#000000" fill-rule="nonzero" fill-opacity="1" /><path clip-path="url(#clip330)" d="M49.9359 438.522 L28.3562 438.522 L28.3562 432.666 L49.7131 432.666 Q54.7739 432.666 57.3202 430.692 Q59.8346 428.719 59.8346 424.772 Q59.8346 420.03 56.8109 417.293 Q53.7872 414.524 48.5673 414.524 L28.3562 414.524 L28.3562 408.667 L64.0042 408.667 L64.0042 414.524 L58.5296 414.524 Q61.7762 416.656 63.3676 419.489 Q64.9272 422.29 64.9272 426.014 Q64.9272 432.157 61.1078 435.339 Q57.2883 438.522 49.9359 438.522 M27.4968 423.786 L27.4968 423.786 Z" fill="#000000" fill-rule="nonzero" fill-opacity="1" /><path clip-path="url(#clip330)" d="M14.479 382.918 L72.5979 382.918 L72.5979 396.413 L68.0464 396.413 L68.0464 388.806 L19.0304 388.806 L19.0304 396.413 L14.479 396.413 L14.479 382.918 Z" fill="#000000" fill-rule="nonzero" fill-opacity="1" /><polyline clip-path="url(#clip332)" style="stroke:#0000ff; stroke-linecap:round; stroke-linejoin:round; stroke-width:4; stroke-opacity:1; fill:none" points="279.669,86.1857 284.132,86.6162 288.594,87.051 293.057,87.4901 297.52,87.9336 301.983,88.3814 306.445,88.8336 310.908,89.2901 315.371,89.751 319.834,90.2163 324.296,90.6859 328.759,91.1598 333.222,91.6382 337.685,92.1209 342.147,92.608 346.61,93.0994 351.073,93.5953 355.536,94.0956 359.998,94.6003 364.461,95.1093 368.924,95.6228 373.387,96.1407 377.85,96.6631 382.312,97.1898 386.775,97.721 391.238,98.2566 395.701,98.7967 400.163,99.3412 404.626,99.8902 409.089,100.444 413.552,101.002 418.014,101.564 422.477,102.131 426.94,102.702 431.403,103.278 435.865,103.858 440.328,104.443 444.791,105.033 449.254,105.626 453.716,106.225 458.179,106.828 462.642,107.435 467.105,108.047 471.568,108.664 476.03,109.285 480.493,109.911 484.956,110.541 489.419,111.176 493.881,111.815 498.344,112.46 502.807,113.108 507.27,113.761 511.732,114.419 516.195,115.082 520.658,115.749 525.121,116.421 529.583,117.097 534.046,117.778 538.509,118.464 542.972,119.155 547.435,119.85 551.897,120.55 556.36,121.254 560.823,121.964 565.286,122.678 569.748,123.396 574.211,124.12 578.674,124.848 583.137,125.581 587.599,126.319 592.062,127.061 596.525,127.809 600.988,128.561 605.45,129.318 609.913,130.079 614.376,130.846 618.839,131.617 623.301,132.394 627.764,133.175 632.227,133.961 636.69,134.752 641.153,135.547 645.615,136.348 650.078,137.153 654.541,137.964 659.004,138.779 663.466,139.6 667.929,140.425 672.392,141.255 676.855,142.09 681.317,142.931 685.78,143.776 690.243,144.626 694.706,145.481 699.168,146.342 703.631,147.207 708.094,148.077 712.557,148.953 717.019,149.834 721.482,150.719 725.945,151.61 730.408,152.506 734.871,153.407 739.333,154.313 743.796,155.225 748.259,156.141 752.722,157.063 757.184,157.99 761.647,158.922 766.11,159.859 770.573,160.802 775.035,161.75 779.498,162.703 783.961,163.662 788.424,164.625 792.886,165.594 797.349,166.569 801.812,167.549 806.275,168.534 810.738,169.524 815.2,170.52 819.663,171.522 824.126,172.528 828.589,173.541 833.051,174.558 837.514,175.581 841.977,176.61 846.44,177.644 850.902,178.684 855.365,179.729 859.828,180.78 864.291,181.836 868.753,182.898 873.216,183.966 877.679,185.039 882.142,186.118 886.604,187.202 891.067,188.293 895.53,189.389 899.993,190.49 904.456,191.598 908.918,192.711 913.381,193.83 917.844,194.954 922.307,196.085 926.769,197.221 931.232,198.363 935.695,199.512 940.158,200.666 944.62,201.825 949.083,202.991 953.546,204.163 958.009,205.341 962.471,206.525 966.934,207.715 971.397,208.91 975.86,210.112 980.322,211.32 984.785,212.535 989.248,213.755 993.711,214.981 998.174,216.214 1002.64,217.453 1007.1,218.698 1011.56,219.949 1016.02,221.207 1020.49,222.471 1024.95,223.741 1029.41,225.017 1033.88,226.3 1038.34,227.59 1042.8,228.885 1047.26,230.188 1051.73,231.496 1056.19,232.812 1060.65,234.133 1065.11,235.462 1069.58,236.796 1074.04,238.138 1078.5,239.486 1082.97,240.841 1087.43,242.202 1091.89,243.571 1096.35,244.946 1100.82,246.327 1105.28,247.716 1109.74,249.111 1114.21,250.514 1118.67,251.923 1123.13,253.339 1127.59,254.762 1132.06,256.192 1136.52,257.629 1140.98,259.073 1145.44,260.525 1149.91,261.983 1154.37,263.448 1158.83,264.921 1163.3,266.401 1167.76,267.888 1172.22,269.383 1176.68,270.885 1181.15,272.394 1185.61,273.91 1190.07,275.434 1194.54,276.966 1199,278.505 1203.46,280.052 1207.92,281.606 1212.39,283.167 1216.85,284.737 1221.31,286.314 1225.77,287.899 1230.24,289.491 1234.7,291.092 1239.16,292.7 1243.63,294.316 1248.09,295.94 1252.55,297.572 1257.01,299.213 1261.48,300.861 1265.94,302.517 1270.4,304.182 1274.86,305.854 1279.33,307.535 1283.79,309.224 1288.25,310.922 1292.72,312.628 1297.18,314.342 1301.64,316.065 1306.1,317.796 1310.57,319.536 1315.03,321.285 1319.49,323.042 1323.96,324.808 1328.42,326.583 1332.88,328.366 1337.34,330.158 1341.81,331.96 1346.27,333.77 1350.73,335.589 1355.19,337.418 1359.66,339.256 1364.12,341.102 1368.58,342.958 1373.05,344.824 1377.51,346.699 1381.97,348.583 1386.43,350.477 1390.9,352.38 1395.36,354.293 1399.82,356.215 1404.28,358.148 1408.75,360.09 1413.21,362.042 1417.67,364.004 1422.14,365.976 1426.6,367.958 1431.06,369.95 1435.52,371.953 1439.99,373.965 1444.45,375.988 1448.91,378.022 1453.38,380.066 1457.84,382.121 1462.3,384.186 1466.76,386.262 1471.23,388.348 1475.69,390.446 1480.15,392.555 1484.61,394.674 1489.08,396.805 1493.54,398.947 1498,401.1 1502.47,403.265 1506.93,405.441 1511.39,407.629 1515.85,409.828 1520.32,412.039 1524.78,414.262 1529.24,416.497 1533.71,418.743 1538.17,421.002 1542.63,423.273 1547.09,425.557 1551.56,427.853 1556.02,430.161 1560.48,432.482 1564.94,434.815 1569.41,437.162 1573.87,439.521 1578.33,441.893 1582.8,444.279 1587.26,446.678 1591.72,449.09 1596.18,451.515 1600.65,453.955 1605.11,456.408 1609.57,458.874 1614.03,461.355 1618.5,463.85 1622.96,466.359 1627.42,468.883 1631.89,471.421 1636.35,473.974 1640.81,476.541 1645.27,479.123 1649.74,481.721 1654.2,484.333 1658.66,486.961 1663.13,489.605 1667.59,492.264 1672.05,494.939 1676.51,497.63 1680.98,500.337 1685.44,503.06 1689.9,505.8 1694.36,508.556 1698.83,511.33 1703.29,514.12 1707.75,516.927 1712.22,519.752 1716.68,522.594 1721.14,525.454 1725.6,528.332 1730.07,531.228 1734.53,534.143 1738.99,537.076 1743.45,540.028 1747.92,542.998 1752.38,545.988 1756.84,548.998 1761.31,552.026 1765.77,555.075 1770.23,558.144 1774.69,561.233 1779.16,564.343 1783.62,567.474 1788.08,570.626 1792.55,573.799 1797.01,576.994 1801.47,580.211 1805.93,583.45 1810.4,586.712 1814.86,589.996 1819.32,593.304 1823.78,596.635 1828.25,599.99 1832.71,603.369 1837.17,606.772 1841.64,610.2 1846.1,613.653 1850.56,617.132 1855.02,620.636 1859.49,624.167 1863.95,627.725 1868.41,631.309 1872.88,634.921 1877.34,638.56 1881.8,642.228 1886.26,645.925 1890.73,649.651 1895.19,653.406 1899.65,657.192 1904.11,661.008 1908.58,664.856 1913.04,668.735 1917.5,672.646 1921.97,676.59 1926.43,680.568 1930.89,684.579 1935.35,688.625 1939.82,692.706 1944.28,696.823 1948.74,700.976 1953.2,705.167 1957.67,709.395 1962.13,713.662 1966.59,717.968 1971.06,722.315 1975.52,726.702 1979.98,731.132 1984.44,735.604 1988.91,740.119 1993.37,744.68 1997.83,749.285 2002.3,753.937 2006.76,758.637 2011.22,763.386 2015.68,768.184 2020.15,773.033 2024.61,777.934 2029.07,782.889 2033.53,787.899 2038,792.964 2042.46,798.088 2046.92,803.27 2051.39,808.513 2055.85,813.819 2060.31,819.188 2064.77,824.624 2069.24,830.127 2073.7,835.7 2078.16,841.345 2082.62,847.064 2087.09,852.86 2091.55,858.734 2096.01,864.689 2100.48,870.729 2104.94,876.856 2109.4,883.072 2113.86,889.383 2118.33,895.789 2122.79,902.296 2127.25,908.908 2131.72,915.627 2136.18,922.46 2140.64,929.41 2145.1,936.483 2149.57,943.684 2154.03,951.019 2158.49,958.494 2162.95,966.116 2167.42,973.893 2171.88,981.833 2176.34,989.945 2180.81,998.238 2185.27,1006.72 2189.73,1015.41 2194.19,1024.32 2198.66,1033.45 2203.12,1042.84 2207.58,1052.49 2212.04,1062.42 2216.51,1072.67 2220.97,1083.25 2225.43,1094.19 2229.9,1105.54 2234.36,1117.33 2238.82,1129.62 2243.28,1142.45 2247.75,1155.91 2252.21,1170.09 2256.67,1185.09 2261.14,1201.07 2265.6,1218.22 2270.06,1236.82 2274.52,1257.27 2278.99,1280.2 2283.45,1306.71 2287.91,1339.1 2292.37,1384.24 "/>
<circle clip-path="url(#clip332)" cx="279.669" cy="86.1857" r="14.4" fill="#e26f46" fill-rule="evenodd" fill-opacity="1" stroke="none"/>
<circle clip-path="url(#clip332)" cx="284.132" cy="86.6162" r="14.4" fill="#e26f46" fill-rule="evenodd" fill-opacity="1" stroke="none"/>
<circle clip-path="url(#clip332)" cx="288.594" cy="87.051" r="14.4" fill="#e26f46" fill-rule="evenodd" fill-opacity="1" stroke="none"/>
<circle clip-path="url(#clip332)" cx="293.057" cy="87.4901" r="14.4" fill="#e26f46" fill-rule="evenodd" fill-opacity="1" stroke="none"/>
<circle clip-path="url(#clip332)" cx="297.52" cy="87.9336" r="14.4" fill="#e26f46" fill-rule="evenodd" fill-opacity="1" stroke="none"/>
<circle clip-path="url(#clip332)" cx="301.983" cy="88.3814" r="14.4" fill="#e26f46" fill-rule="evenodd" fill-opacity="1" stroke="none"/>
<circle clip-path="url(#clip332)" cx="306.445" cy="88.8336" r="14.4" fill="#e26f46" fill-rule="evenodd" fill-opacity="1" stroke="none"/>
<circle clip-path="url(#clip332)" cx="310.908" cy="89.2901" r="14.4" fill="#e26f46" fill-rule="evenodd" fill-opacity="1" stroke="none"/>
<circle clip-path="url(#clip332)" cx="315.371" cy="89.751" r="14.4" fill="#e26f46" fill-rule="evenodd" fill-opacity="1" stroke="none"/>
<circle clip-path="url(#clip332)" cx="319.834" cy="90.2163" r="14.4" fill="#e26f46" fill-rule="evenodd" fill-opacity="1" stroke="none"/>
<circle clip-path="url(#clip332)" cx="324.296" cy="90.6859" r="14.4" fill="#e26f46" fill-rule="evenodd" fill-opacity="1" stroke="none"/>
<circle clip-path="url(#clip332)" cx="328.759" cy="91.1598" r="14.4" fill="#e26f46" fill-rule="evenodd" fill-opacity="1" stroke="none"/>
<circle clip-path="url(#clip332)" cx="333.222" cy="91.6382" r="14.4" fill="#e26f46" fill-rule="evenodd" fill-opacity="1" stroke="none"/>
<circle clip-path="url(#clip332)" cx="337.685" cy="92.1209" r="14.4" fill="#e26f46" fill-rule="evenodd" fill-opacity="1" stroke="none"/>
<circle clip-path="url(#clip332)" cx="342.147" cy="92.608" r="14.4" fill="#e26f46" fill-rule="evenodd" fill-opacity="1" stroke="none"/>
<circle clip-path="url(#clip332)" cx="346.61" cy="93.0994" r="14.4" fill="#e26f46" fill-rule="evenodd" fill-opacity="1" stroke="none"/>
<circle clip-path="url(#clip332)" cx="351.073" cy="93.5953" r="14.4" fill="#e26f46" fill-rule="evenodd" fill-opacity="1" stroke="none"/>
<circle clip-path="url(#clip332)" cx="355.536" cy="94.0956" r="14.4" fill="#e26f46" fill-rule="evenodd" fill-opacity="1" stroke="none"/>
<circle clip-path="url(#clip332)" cx="359.998" cy="94.6003" r="14.4" fill="#e26f46" fill-rule="evenodd" fill-opacity="1" stroke="none"/>
<circle clip-path="url(#clip332)" cx="364.461" cy="95.1093" r="14.4" fill="#e26f46" fill-rule="evenodd" fill-opacity="1" stroke="none"/>
<circle clip-path="url(#clip332)" cx="368.924" cy="95.6228" r="14.4" fill="#e26f46" fill-rule="evenodd" fill-opacity="1" stroke="none"/>
<circle clip-path="url(#clip332)" cx="373.387" cy="96.1407" r="14.4" fill="#e26f46" fill-rule="evenodd" fill-opacity="1" stroke="none"/>
<circle clip-path="url(#clip332)" cx="377.85" cy="96.6631" r="14.4" fill="#e26f46" fill-rule="evenodd" fill-opacity="1" stroke="none"/>
<circle clip-path="url(#clip332)" cx="382.312" cy="97.1898" r="14.4" fill="#e26f46" fill-rule="evenodd" fill-opacity="1" stroke="none"/>
<circle clip-path="url(#clip332)" cx="386.775" cy="97.721" r="14.4" fill="#e26f46" fill-rule="evenodd" fill-opacity="1" stroke="none"/>
<circle clip-path="url(#clip332)" cx="391.238" cy="98.2566" r="14.4" fill="#e26f46" fill-rule="evenodd" fill-opacity="1" stroke="none"/>
<circle clip-path="url(#clip332)" cx="395.701" cy="98.7967" r="14.4" fill="#e26f46" fill-rule="evenodd" fill-opacity="1" stroke="none"/>
<circle clip-path="url(#clip332)" cx="400.163" cy="99.3412" r="14.4" fill="#e26f46" fill-rule="evenodd" fill-opacity="1" stroke="none"/>
<circle clip-path="url(#clip332)" cx="404.626" cy="99.8902" r="14.4" fill="#e26f46" fill-rule="evenodd" fill-opacity="1" stroke="none"/>
<circle clip-path="url(#clip332)" cx="409.089" cy="100.444" r="14.4" fill="#e26f46" fill-rule="evenodd" fill-opacity="1" stroke="none"/>
<circle clip-path="url(#clip332)" cx="413.552" cy="101.002" r="14.4" fill="#e26f46" fill-rule="evenodd" fill-opacity="1" stroke="none"/>
<circle clip-path="url(#clip332)" cx="418.014" cy="101.564" r="14.4" fill="#e26f46" fill-rule="evenodd" fill-opacity="1" stroke="none"/>
<circle clip-path="url(#clip332)" cx="422.477" cy="102.131" r="14.4" fill="#e26f46" fill-rule="evenodd" fill-opacity="1" stroke="none"/>
<circle clip-path="url(#clip332)" cx="426.94" cy="102.702" r="14.4" fill="#e26f46" fill-rule="evenodd" fill-opacity="1" stroke="none"/>
<circle clip-path="url(#clip332)" cx="431.403" cy="103.278" r="14.4" fill="#e26f46" fill-rule="evenodd" fill-opacity="1" stroke="none"/>
<circle clip-path="url(#clip332)" cx="435.865" cy="103.858" r="14.4" fill="#e26f46" fill-rule="evenodd" fill-opacity="1" stroke="none"/>
<circle clip-path="url(#clip332)" cx="440.328" cy="104.443" r="14.4" fill="#e26f46" fill-rule="evenodd" fill-opacity="1" stroke="none"/>
<circle clip-path="url(#clip332)" cx="444.791" cy="105.033" r="14.4" fill="#e26f46" fill-rule="evenodd" fill-opacity="1" stroke="none"/>
<circle clip-path="url(#clip332)" cx="449.254" cy="105.626" r="14.4" fill="#e26f46" fill-rule="evenodd" fill-opacity="1" stroke="none"/>
<circle clip-path="url(#clip332)" cx="453.716" cy="106.225" r="14.4" fill="#e26f46" fill-rule="evenodd" fill-opacity="1" stroke="none"/>
<circle clip-path="url(#clip332)" cx="458.179" cy="106.828" r="14.4" fill="#e26f46" fill-rule="evenodd" fill-opacity="1" stroke="none"/>
<circle clip-path="url(#clip332)" cx="462.642" cy="107.435" r="14.4" fill="#e26f46" fill-rule="evenodd" fill-opacity="1" stroke="none"/>
<circle clip-path="url(#clip332)" cx="467.105" cy="108.047" r="14.4" fill="#e26f46" fill-rule="evenodd" fill-opacity="1" stroke="none"/>
<circle clip-path="url(#clip332)" cx="471.568" cy="108.664" r="14.4" fill="#e26f46" fill-rule="evenodd" fill-opacity="1" stroke="none"/>
<circle clip-path="url(#clip332)" cx="476.03" cy="109.285" r="14.4" fill="#e26f46" fill-rule="evenodd" fill-opacity="1" stroke="none"/>
<circle clip-path="url(#clip332)" cx="480.493" cy="109.911" r="14.4" fill="#e26f46" fill-rule="evenodd" fill-opacity="1" stroke="none"/>
<circle clip-path="url(#clip332)" cx="484.956" cy="110.541" r="14.4" fill="#e26f46" fill-rule="evenodd" fill-opacity="1" stroke="none"/>
<circle clip-path="url(#clip332)" cx="489.419" cy="111.176" r="14.4" fill="#e26f46" fill-rule="evenodd" fill-opacity="1" stroke="none"/>
<circle clip-path="url(#clip332)" cx="493.881" cy="111.815" r="14.4" fill="#e26f46" fill-rule="evenodd" fill-opacity="1" stroke="none"/>
<circle clip-path="url(#clip332)" cx="498.344" cy="112.46" r="14.4" fill="#e26f46" fill-rule="evenodd" fill-opacity="1" stroke="none"/>
<circle clip-path="url(#clip332)" cx="502.807" cy="113.108" r="14.4" fill="#e26f46" fill-rule="evenodd" fill-opacity="1" stroke="none"/>
<circle clip-path="url(#clip332)" cx="507.27" cy="113.761" r="14.4" fill="#e26f46" fill-rule="evenodd" fill-opacity="1" stroke="none"/>
<circle clip-path="url(#clip332)" cx="511.732" cy="114.419" r="14.4" fill="#e26f46" fill-rule="evenodd" fill-opacity="1" stroke="none"/>
<circle clip-path="url(#clip332)" cx="516.195" cy="115.082" r="14.4" fill="#e26f46" fill-rule="evenodd" fill-opacity="1" stroke="none"/>
<circle clip-path="url(#clip332)" cx="520.658" cy="115.749" r="14.4" fill="#e26f46" fill-rule="evenodd" fill-opacity="1" stroke="none"/>
<circle clip-path="url(#clip332)" cx="525.121" cy="116.421" r="14.4" fill="#e26f46" fill-rule="evenodd" fill-opacity="1" stroke="none"/>
<circle clip-path="url(#clip332)" cx="529.583" cy="117.097" r="14.4" fill="#e26f46" fill-rule="evenodd" fill-opacity="1" stroke="none"/>
<circle clip-path="url(#clip332)" cx="534.046" cy="117.778" r="14.4" fill="#e26f46" fill-rule="evenodd" fill-opacity="1" stroke="none"/>
<circle clip-path="url(#clip332)" cx="538.509" cy="118.464" r="14.4" fill="#e26f46" fill-rule="evenodd" fill-opacity="1" stroke="none"/>
<circle clip-path="url(#clip332)" cx="542.972" cy="119.155" r="14.4" fill="#e26f46" fill-rule="evenodd" fill-opacity="1" stroke="none"/>
<circle clip-path="url(#clip332)" cx="547.435" cy="119.85" r="14.4" fill="#e26f46" fill-rule="evenodd" fill-opacity="1" stroke="none"/>
<circle clip-path="url(#clip332)" cx="551.897" cy="120.55" r="14.4" fill="#e26f46" fill-rule="evenodd" fill-opacity="1" stroke="none"/>
<circle clip-path="url(#clip332)" cx="556.36" cy="121.254" r="14.4" fill="#e26f46" fill-rule="evenodd" fill-opacity="1" stroke="none"/>
<circle clip-path="url(#clip332)" cx="560.823" cy="121.964" r="14.4" fill="#e26f46" fill-rule="evenodd" fill-opacity="1" stroke="none"/>
<circle clip-path="url(#clip332)" cx="565.286" cy="122.678" r="14.4" fill="#e26f46" fill-rule="evenodd" fill-opacity="1" stroke="none"/>
<circle clip-path="url(#clip332)" cx="569.748" cy="123.396" r="14.4" fill="#e26f46" fill-rule="evenodd" fill-opacity="1" stroke="none"/>
<circle clip-path="url(#clip332)" cx="574.211" cy="124.12" r="14.4" fill="#e26f46" fill-rule="evenodd" fill-opacity="1" stroke="none"/>
<circle clip-path="url(#clip332)" cx="578.674" cy="124.848" r="14.4" fill="#e26f46" fill-rule="evenodd" fill-opacity="1" stroke="none"/>
<circle clip-path="url(#clip332)" cx="583.137" cy="125.581" r="14.4" fill="#e26f46" fill-rule="evenodd" fill-opacity="1" stroke="none"/>
<circle clip-path="url(#clip332)" cx="587.599" cy="126.319" r="14.4" fill="#e26f46" fill-rule="evenodd" fill-opacity="1" stroke="none"/>
<circle clip-path="url(#clip332)" cx="592.062" cy="127.061" r="14.4" fill="#e26f46" fill-rule="evenodd" fill-opacity="1" stroke="none"/>
<circle clip-path="url(#clip332)" cx="596.525" cy="127.809" r="14.4" fill="#e26f46" fill-rule="evenodd" fill-opacity="1" stroke="none"/>
<circle clip-path="url(#clip332)" cx="600.988" cy="128.561" r="14.4" fill="#e26f46" fill-rule="evenodd" fill-opacity="1" stroke="none"/>
<circle clip-path="url(#clip332)" cx="605.45" cy="129.318" r="14.4" fill="#e26f46" fill-rule="evenodd" fill-opacity="1" stroke="none"/>
<circle clip-path="url(#clip332)" cx="609.913" cy="130.079" r="14.4" fill="#e26f46" fill-rule="evenodd" fill-opacity="1" stroke="none"/>
<circle clip-path="url(#clip332)" cx="614.376" cy="130.846" r="14.4" fill="#e26f46" fill-rule="evenodd" fill-opacity="1" stroke="none"/>
<circle clip-path="url(#clip332)" cx="618.839" cy="131.617" r="14.4" fill="#e26f46" fill-rule="evenodd" fill-opacity="1" stroke="none"/>
<circle clip-path="url(#clip332)" cx="623.301" cy="132.394" r="14.4" fill="#e26f46" fill-rule="evenodd" fill-opacity="1" stroke="none"/>
<circle clip-path="url(#clip332)" cx="627.764" cy="133.175" r="14.4" fill="#e26f46" fill-rule="evenodd" fill-opacity="1" stroke="none"/>
<circle clip-path="url(#clip332)" cx="632.227" cy="133.961" r="14.4" fill="#e26f46" fill-rule="evenodd" fill-opacity="1" stroke="none"/>
<circle clip-path="url(#clip332)" cx="636.69" cy="134.752" r="14.4" fill="#e26f46" fill-rule="evenodd" fill-opacity="1" stroke="none"/>
<circle clip-path="url(#clip332)" cx="641.153" cy="135.547" r="14.4" fill="#e26f46" fill-rule="evenodd" fill-opacity="1" stroke="none"/>
<circle clip-path="url(#clip332)" cx="645.615" cy="136.348" r="14.4" fill="#e26f46" fill-rule="evenodd" fill-opacity="1" stroke="none"/>
<circle clip-path="url(#clip332)" cx="650.078" cy="137.153" r="14.4" fill="#e26f46" fill-rule="evenodd" fill-opacity="1" stroke="none"/>
<circle clip-path="url(#clip332)" cx="654.541" cy="137.964" r="14.4" fill="#e26f46" fill-rule="evenodd" fill-opacity="1" stroke="none"/>
<circle clip-path="url(#clip332)" cx="659.004" cy="138.779" r="14.4" fill="#e26f46" fill-rule="evenodd" fill-opacity="1" stroke="none"/>
<circle clip-path="url(#clip332)" cx="663.466" cy="139.6" r="14.4" fill="#e26f46" fill-rule="evenodd" fill-opacity="1" stroke="none"/>
<circle clip-path="url(#clip332)" cx="667.929" cy="140.425" r="14.4" fill="#e26f46" fill-rule="evenodd" fill-opacity="1" stroke="none"/>
<circle clip-path="url(#clip332)" cx="672.392" cy="141.255" r="14.4" fill="#e26f46" fill-rule="evenodd" fill-opacity="1" stroke="none"/>
<circle clip-path="url(#clip332)" cx="676.855" cy="142.09" r="14.4" fill="#e26f46" fill-rule="evenodd" fill-opacity="1" stroke="none"/>
<circle clip-path="url(#clip332)" cx="681.317" cy="142.931" r="14.4" fill="#e26f46" fill-rule="evenodd" fill-opacity="1" stroke="none"/>
<circle clip-path="url(#clip332)" cx="685.78" cy="143.776" r="14.4" fill="#e26f46" fill-rule="evenodd" fill-opacity="1" stroke="none"/>
<circle clip-path="url(#clip332)" cx="690.243" cy="144.626" r="14.4" fill="#e26f46" fill-rule="evenodd" fill-opacity="1" stroke="none"/>
<circle clip-path="url(#clip332)" cx="694.706" cy="145.481" r="14.4" fill="#e26f46" fill-rule="evenodd" fill-opacity="1" stroke="none"/>
<circle clip-path="url(#clip332)" cx="699.168" cy="146.342" r="14.4" fill="#e26f46" fill-rule="evenodd" fill-opacity="1" stroke="none"/>
<circle clip-path="url(#clip332)" cx="703.631" cy="147.207" r="14.4" fill="#e26f46" fill-rule="evenodd" fill-opacity="1" stroke="none"/>
<circle clip-path="url(#clip332)" cx="708.094" cy="148.077" r="14.4" fill="#e26f46" fill-rule="evenodd" fill-opacity="1" stroke="none"/>
<circle clip-path="url(#clip332)" cx="712.557" cy="148.953" r="14.4" fill="#e26f46" fill-rule="evenodd" fill-opacity="1" stroke="none"/>
<circle clip-path="url(#clip332)" cx="717.019" cy="149.834" r="14.4" fill="#e26f46" fill-rule="evenodd" fill-opacity="1" stroke="none"/>
<circle clip-path="url(#clip332)" cx="721.482" cy="150.719" r="14.4" fill="#e26f46" fill-rule="evenodd" fill-opacity="1" stroke="none"/>
<circle clip-path="url(#clip332)" cx="725.945" cy="151.61" r="14.4" fill="#e26f46" fill-rule="evenodd" fill-opacity="1" stroke="none"/>
<circle clip-path="url(#clip332)" cx="730.408" cy="152.506" r="14.4" fill="#e26f46" fill-rule="evenodd" fill-opacity="1" stroke="none"/>
<circle clip-path="url(#clip332)" cx="734.871" cy="153.407" r="14.4" fill="#e26f46" fill-rule="evenodd" fill-opacity="1" stroke="none"/>
<circle clip-path="url(#clip332)" cx="739.333" cy="154.313" r="14.4" fill="#e26f46" fill-rule="evenodd" fill-opacity="1" stroke="none"/>
<circle clip-path="url(#clip332)" cx="743.796" cy="155.225" r="14.4" fill="#e26f46" fill-rule="evenodd" fill-opacity="1" stroke="none"/>
<circle clip-path="url(#clip332)" cx="748.259" cy="156.141" r="14.4" fill="#e26f46" fill-rule="evenodd" fill-opacity="1" stroke="none"/>
<circle clip-path="url(#clip332)" cx="752.722" cy="157.063" r="14.4" fill="#e26f46" fill-rule="evenodd" fill-opacity="1" stroke="none"/>
<circle clip-path="url(#clip332)" cx="757.184" cy="157.99" r="14.4" fill="#e26f46" fill-rule="evenodd" fill-opacity="1" stroke="none"/>
<circle clip-path="url(#clip332)" cx="761.647" cy="158.922" r="14.4" fill="#e26f46" fill-rule="evenodd" fill-opacity="1" stroke="none"/>
<circle clip-path="url(#clip332)" cx="766.11" cy="159.859" r="14.4" fill="#e26f46" fill-rule="evenodd" fill-opacity="1" stroke="none"/>
<circle clip-path="url(#clip332)" cx="770.573" cy="160.802" r="14.4" fill="#e26f46" fill-rule="evenodd" fill-opacity="1" stroke="none"/>
<circle clip-path="url(#clip332)" cx="775.035" cy="161.75" r="14.4" fill="#e26f46" fill-rule="evenodd" fill-opacity="1" stroke="none"/>
<circle clip-path="url(#clip332)" cx="779.498" cy="162.703" r="14.4" fill="#e26f46" fill-rule="evenodd" fill-opacity="1" stroke="none"/>
<circle clip-path="url(#clip332)" cx="783.961" cy="163.662" r="14.4" fill="#e26f46" fill-rule="evenodd" fill-opacity="1" stroke="none"/>
<circle clip-path="url(#clip332)" cx="788.424" cy="164.625" r="14.4" fill="#e26f46" fill-rule="evenodd" fill-opacity="1" stroke="none"/>
<circle clip-path="url(#clip332)" cx="792.886" cy="165.594" r="14.4" fill="#e26f46" fill-rule="evenodd" fill-opacity="1" stroke="none"/>
<circle clip-path="url(#clip332)" cx="2060.31" cy="819.188" r="14.4" fill="#e26f46" fill-rule="evenodd" fill-opacity="1" stroke="none"/>
<circle clip-path="url(#clip332)" cx="2064.77" cy="824.624" r="14.4" fill="#e26f46" fill-rule="evenodd" fill-opacity="1" stroke="none"/>
<circle clip-path="url(#clip332)" cx="2069.24" cy="830.127" r="14.4" fill="#e26f46" fill-rule="evenodd" fill-opacity="1" stroke="none"/>
<circle clip-path="url(#clip332)" cx="2073.7" cy="835.7" r="14.4" fill="#e26f46" fill-rule="evenodd" fill-opacity="1" stroke="none"/>
<circle clip-path="url(#clip332)" cx="2078.16" cy="841.345" r="14.4" fill="#e26f46" fill-rule="evenodd" fill-opacity="1" stroke="none"/>
<circle clip-path="url(#clip332)" cx="2082.62" cy="847.064" r="14.4" fill="#e26f46" fill-rule="evenodd" fill-opacity="1" stroke="none"/>
<circle clip-path="url(#clip332)" cx="2087.09" cy="852.86" r="14.4" fill="#e26f46" fill-rule="evenodd" fill-opacity="1" stroke="none"/>
<circle clip-path="url(#clip332)" cx="2091.55" cy="858.734" r="14.4" fill="#e26f46" fill-rule="evenodd" fill-opacity="1" stroke="none"/>
<circle clip-path="url(#clip332)" cx="2096.01" cy="864.689" r="14.4" fill="#e26f46" fill-rule="evenodd" fill-opacity="1" stroke="none"/>
<circle clip-path="url(#clip332)" cx="2100.48" cy="870.729" r="14.4" fill="#e26f46" fill-rule="evenodd" fill-opacity="1" stroke="none"/>
<circle clip-path="url(#clip332)" cx="2104.94" cy="876.856" r="14.4" fill="#e26f46" fill-rule="evenodd" fill-opacity="1" stroke="none"/>
<circle clip-path="url(#clip332)" cx="2109.4" cy="883.072" r="14.4" fill="#e26f46" fill-rule="evenodd" fill-opacity="1" stroke="none"/>
<circle clip-path="url(#clip332)" cx="2113.86" cy="889.383" r="14.4" fill="#e26f46" fill-rule="evenodd" fill-opacity="1" stroke="none"/>
<circle clip-path="url(#clip332)" cx="2118.33" cy="895.789" r="14.4" fill="#e26f46" fill-rule="evenodd" fill-opacity="1" stroke="none"/>
<circle clip-path="url(#clip332)" cx="2122.79" cy="902.296" r="14.4" fill="#e26f46" fill-rule="evenodd" fill-opacity="1" stroke="none"/>
<circle clip-path="url(#clip332)" cx="2127.25" cy="908.908" r="14.4" fill="#e26f46" fill-rule="evenodd" fill-opacity="1" stroke="none"/>
<circle clip-path="url(#clip332)" cx="2131.72" cy="915.627" r="14.4" fill="#e26f46" fill-rule="evenodd" fill-opacity="1" stroke="none"/>
<circle clip-path="url(#clip332)" cx="2136.18" cy="922.46" r="14.4" fill="#e26f46" fill-rule="evenodd" fill-opacity="1" stroke="none"/>
<circle clip-path="url(#clip332)" cx="2140.64" cy="929.41" r="14.4" fill="#e26f46" fill-rule="evenodd" fill-opacity="1" stroke="none"/>
<circle clip-path="url(#clip332)" cx="2145.1" cy="936.483" r="14.4" fill="#e26f46" fill-rule="evenodd" fill-opacity="1" stroke="none"/>
<circle clip-path="url(#clip332)" cx="2149.57" cy="943.684" r="14.4" fill="#e26f46" fill-rule="evenodd" fill-opacity="1" stroke="none"/>
<circle clip-path="url(#clip332)" cx="2154.03" cy="951.019" r="14.4" fill="#e26f46" fill-rule="evenodd" fill-opacity="1" stroke="none"/>
<circle clip-path="url(#clip332)" cx="2158.49" cy="958.494" r="14.4" fill="#e26f46" fill-rule="evenodd" fill-opacity="1" stroke="none"/>
<circle clip-path="url(#clip332)" cx="2162.95" cy="966.116" r="14.4" fill="#e26f46" fill-rule="evenodd" fill-opacity="1" stroke="none"/>
<circle clip-path="url(#clip332)" cx="2167.42" cy="973.893" r="14.4" fill="#e26f46" fill-rule="evenodd" fill-opacity="1" stroke="none"/>
<circle clip-path="url(#clip332)" cx="2171.88" cy="981.833" r="14.4" fill="#e26f46" fill-rule="evenodd" fill-opacity="1" stroke="none"/>
<circle clip-path="url(#clip332)" cx="2176.34" cy="989.945" r="14.4" fill="#e26f46" fill-rule="evenodd" fill-opacity="1" stroke="none"/>
<circle clip-path="url(#clip332)" cx="2180.81" cy="998.238" r="14.4" fill="#e26f46" fill-rule="evenodd" fill-opacity="1" stroke="none"/>
<circle clip-path="url(#clip332)" cx="2185.27" cy="1006.72" r="14.4" fill="#e26f46" fill-rule="evenodd" fill-opacity="1" stroke="none"/>
<circle clip-path="url(#clip332)" cx="2189.73" cy="1015.41" r="14.4" fill="#e26f46" fill-rule="evenodd" fill-opacity="1" stroke="none"/>
<circle clip-path="url(#clip332)" cx="2194.19" cy="1024.32" r="14.4" fill="#e26f46" fill-rule="evenodd" fill-opacity="1" stroke="none"/>
<circle clip-path="url(#clip332)" cx="2198.66" cy="1033.45" r="14.4" fill="#e26f46" fill-rule="evenodd" fill-opacity="1" stroke="none"/>
<circle clip-path="url(#clip332)" cx="2203.12" cy="1042.84" r="14.4" fill="#e26f46" fill-rule="evenodd" fill-opacity="1" stroke="none"/>
<circle clip-path="url(#clip332)" cx="2207.58" cy="1052.49" r="14.4" fill="#e26f46" fill-rule="evenodd" fill-opacity="1" stroke="none"/>
<circle clip-path="url(#clip332)" cx="2212.04" cy="1062.42" r="14.4" fill="#e26f46" fill-rule="evenodd" fill-opacity="1" stroke="none"/>
<circle clip-path="url(#clip332)" cx="2216.51" cy="1072.67" r="14.4" fill="#e26f46" fill-rule="evenodd" fill-opacity="1" stroke="none"/>
<circle clip-path="url(#clip332)" cx="2220.97" cy="1083.25" r="14.4" fill="#e26f46" fill-rule="evenodd" fill-opacity="1" stroke="none"/>
<circle clip-path="url(#clip332)" cx="2225.43" cy="1094.19" r="14.4" fill="#e26f46" fill-rule="evenodd" fill-opacity="1" stroke="none"/>
<circle clip-path="url(#clip332)" cx="2229.9" cy="1105.54" r="14.4" fill="#e26f46" fill-rule="evenodd" fill-opacity="1" stroke="none"/>
<circle clip-path="url(#clip332)" cx="2234.36" cy="1117.33" r="14.4" fill="#e26f46" fill-rule="evenodd" fill-opacity="1" stroke="none"/>
<circle clip-path="url(#clip332)" cx="2238.82" cy="1129.62" r="14.4" fill="#e26f46" fill-rule="evenodd" fill-opacity="1" stroke="none"/>
<circle clip-path="url(#clip332)" cx="2243.28" cy="1142.45" r="14.4" fill="#e26f46" fill-rule="evenodd" fill-opacity="1" stroke="none"/>
<circle clip-path="url(#clip332)" cx="2247.75" cy="1155.91" r="14.4" fill="#e26f46" fill-rule="evenodd" fill-opacity="1" stroke="none"/>
<circle clip-path="url(#clip332)" cx="2252.21" cy="1170.09" r="14.4" fill="#e26f46" fill-rule="evenodd" fill-opacity="1" stroke="none"/>
<circle clip-path="url(#clip332)" cx="2256.67" cy="1185.09" r="14.4" fill="#e26f46" fill-rule="evenodd" fill-opacity="1" stroke="none"/>
<circle clip-path="url(#clip332)" cx="2261.14" cy="1201.07" r="14.4" fill="#e26f46" fill-rule="evenodd" fill-opacity="1" stroke="none"/>
<circle clip-path="url(#clip332)" cx="2265.6" cy="1218.22" r="14.4" fill="#e26f46" fill-rule="evenodd" fill-opacity="1" stroke="none"/>
<circle clip-path="url(#clip332)" cx="2270.06" cy="1236.82" r="14.4" fill="#e26f46" fill-rule="evenodd" fill-opacity="1" stroke="none"/>
<circle clip-path="url(#clip332)" cx="2274.52" cy="1257.27" r="14.4" fill="#e26f46" fill-rule="evenodd" fill-opacity="1" stroke="none"/>
<circle clip-path="url(#clip332)" cx="2278.99" cy="1280.2" r="14.4" fill="#e26f46" fill-rule="evenodd" fill-opacity="1" stroke="none"/>
<circle clip-path="url(#clip332)" cx="2283.45" cy="1306.71" r="14.4" fill="#e26f46" fill-rule="evenodd" fill-opacity="1" stroke="none"/>
<circle clip-path="url(#clip332)" cx="2287.91" cy="1339.1" r="14.4" fill="#e26f46" fill-rule="evenodd" fill-opacity="1" stroke="none"/>
<circle clip-path="url(#clip332)" cx="2292.37" cy="1384.24" r="14.4" fill="#e26f46" fill-rule="evenodd" fill-opacity="1" stroke="none"/>
<path clip-path="url(#clip330)" d="M1755.68 248.629 L2281.64 248.629 L2281.64 93.1086 L1755.68 93.1086  Z" fill="#ffffff" fill-rule="evenodd" fill-opacity="1"/>
<polyline clip-path="url(#clip330)" style="stroke:#000000; stroke-linecap:round; stroke-linejoin:round; stroke-width:4; stroke-opacity:1; fill:none" points="1755.68,248.629 2281.64,248.629 2281.64,93.1086 1755.68,93.1086 1755.68,248.629 "/>
<polyline clip-path="url(#clip330)" style="stroke:#0000ff; stroke-linecap:round; stroke-linejoin:round; stroke-width:4; stroke-opacity:1; fill:none" points="1779.38,144.949 1921.62,144.949 "/>
<path clip-path="url(#clip330)" d="M1950 131.511 L1950 144.497 L1955.88 144.497 Q1959.14 144.497 1960.92 142.807 Q1962.71 141.118 1962.71 137.993 Q1962.71 134.891 1960.92 133.201 Q1959.14 131.511 1955.88 131.511 L1950 131.511 M1945.32 127.669 L1955.88 127.669 Q1961.69 127.669 1964.65 130.307 Q1967.64 132.923 1967.64 137.993 Q1967.64 143.108 1964.65 145.724 Q1961.69 148.34 1955.88 148.34 L1950 148.34 L1950 162.229 L1945.32 162.229 L1945.32 127.669 Z" fill="#000000" fill-rule="nonzero" fill-opacity="1" /><path clip-path="url(#clip330)" d="M1982.82 162.229 L1969.63 127.669 L1974.51 127.669 L1985.46 156.766 L1996.43 127.669 L2001.29 127.669 L1988.12 162.229 L1982.82 162.229 Z" fill="#000000" fill-rule="nonzero" fill-opacity="1" /><path clip-path="url(#clip330)" d="M2047.29 130.331 L2047.29 135.261 Q2044.93 133.062 2042.24 131.974 Q2039.58 130.886 2036.57 130.886 Q2030.64 130.886 2027.5 134.52 Q2024.35 138.132 2024.35 144.983 Q2024.35 151.812 2027.5 155.446 Q2030.64 159.057 2036.57 159.057 Q2039.58 159.057 2042.24 157.969 Q2044.93 156.881 2047.29 154.682 L2047.29 159.567 Q2044.83 161.233 2042.08 162.067 Q2039.35 162.9 2036.29 162.9 Q2028.45 162.9 2023.93 158.108 Q2019.42 153.293 2019.42 144.983 Q2019.42 136.65 2023.93 131.858 Q2028.45 127.044 2036.29 127.044 Q2039.39 127.044 2042.13 127.877 Q2044.88 128.687 2047.29 130.331 Z" fill="#000000" fill-rule="nonzero" fill-opacity="1" /><path clip-path="url(#clip330)" d="M2053.89 151.997 L2053.89 136.303 L2058.14 136.303 L2058.14 151.835 Q2058.14 155.516 2059.58 157.368 Q2061.01 159.196 2063.89 159.196 Q2067.33 159.196 2069.32 156.997 Q2071.34 154.798 2071.34 151.002 L2071.34 136.303 L2075.6 136.303 L2075.6 162.229 L2071.34 162.229 L2071.34 158.247 Q2069.79 160.608 2067.73 161.766 Q2065.69 162.9 2062.98 162.9 Q2058.51 162.9 2056.2 160.122 Q2053.89 157.344 2053.89 151.997 M2064.6 135.678 L2064.6 135.678 Z" fill="#000000" fill-rule="nonzero" fill-opacity="1" /><path clip-path="url(#clip330)" d="M2099.39 140.284 Q2098.68 139.868 2097.82 139.682 Q2096.99 139.474 2095.97 139.474 Q2092.36 139.474 2090.41 141.835 Q2088.49 144.173 2088.49 148.571 L2088.49 162.229 L2084.21 162.229 L2084.21 136.303 L2088.49 136.303 L2088.49 140.331 Q2089.83 137.969 2091.99 136.835 Q2094.14 135.678 2097.22 135.678 Q2097.66 135.678 2098.19 135.747 Q2098.72 135.794 2099.37 135.909 L2099.39 140.284 Z" fill="#000000" fill-rule="nonzero" fill-opacity="1" /><path clip-path="url(#clip330)" d="M2100.81 136.303 L2105.32 136.303 L2113.42 158.062 L2121.52 136.303 L2126.04 136.303 L2116.32 162.229 L2110.53 162.229 L2100.81 136.303 Z" fill="#000000" fill-rule="nonzero" fill-opacity="1" /><path clip-path="url(#clip330)" d="M2154.09 148.201 L2154.09 150.284 L2134.51 150.284 Q2134.79 154.682 2137.15 156.997 Q2139.53 159.289 2143.77 159.289 Q2146.22 159.289 2148.51 158.687 Q2150.83 158.085 2153.1 156.881 L2153.1 160.909 Q2150.81 161.881 2148.4 162.391 Q2145.99 162.9 2143.51 162.9 Q2137.31 162.9 2133.68 159.289 Q2130.07 155.678 2130.07 149.52 Q2130.07 143.155 2133.49 139.428 Q2136.94 135.678 2142.77 135.678 Q2148.01 135.678 2151.04 139.057 Q2154.09 142.414 2154.09 148.201 M2149.83 146.951 Q2149.79 143.456 2147.87 141.372 Q2145.97 139.289 2142.82 139.289 Q2139.26 139.289 2137.1 141.303 Q2134.97 143.317 2134.65 146.974 L2149.83 146.951 Z" fill="#000000" fill-rule="nonzero" fill-opacity="1" /><circle clip-path="url(#clip330)" cx="1850.5" cy="196.789" r="23.04" fill="#e26f46" fill-rule="evenodd" fill-opacity="1" stroke="none"/>
<path clip-path="url(#clip330)" d="M1970.88 209.138 L1970.88 199.856 L1963.24 199.856 L1963.24 196.013 L1975.51 196.013 L1975.51 210.851 Q1972.8 212.772 1969.53 213.768 Q1966.27 214.74 1962.57 214.74 Q1954.46 214.74 1949.88 210.018 Q1945.32 205.272 1945.32 196.823 Q1945.32 188.351 1949.88 183.629 Q1954.46 178.884 1962.57 178.884 Q1965.95 178.884 1968.98 179.717 Q1972.03 180.55 1974.6 182.171 L1974.6 187.147 Q1972.01 184.948 1969.09 183.837 Q1966.18 182.726 1962.96 182.726 Q1956.62 182.726 1953.42 186.268 Q1950.25 189.809 1950.25 196.823 Q1950.25 203.814 1953.42 207.356 Q1956.62 210.897 1962.96 210.897 Q1965.44 210.897 1967.38 210.481 Q1969.33 210.041 1970.88 209.138 Z" fill="#000000" fill-rule="nonzero" fill-opacity="1" /><path clip-path="url(#clip330)" d="M1984.05 179.509 L2005.9 179.509 L2005.9 183.444 L1988.72 183.444 L1988.72 193.675 L2005.18 193.675 L2005.18 197.61 L1988.72 197.61 L1988.72 210.133 L2006.32 210.133 L2006.32 214.069 L1984.05 214.069 L1984.05 179.509 Z" fill="#000000" fill-rule="nonzero" fill-opacity="1" /><path clip-path="url(#clip330)" d="M2014 179.509 L2020.3 179.509 L2035.62 208.421 L2035.62 179.509 L2040.16 179.509 L2040.16 214.069 L2033.86 214.069 L2018.54 185.157 L2018.54 214.069 L2014 214.069 L2014 179.509 Z" fill="#000000" fill-rule="nonzero" fill-opacity="1" /><path clip-path="url(#clip330)" d="M2065.85 197.865 Q2067.36 198.374 2068.77 200.041 Q2070.2 201.708 2071.64 204.624 L2076.39 214.069 L2071.36 214.069 L2066.94 205.203 Q2065.23 201.731 2063.61 200.596 Q2062.01 199.462 2059.23 199.462 L2054.14 199.462 L2054.14 214.069 L2049.46 214.069 L2049.46 179.509 L2060.02 179.509 Q2065.95 179.509 2068.86 181.985 Q2071.78 184.462 2071.78 189.462 Q2071.78 192.726 2070.25 194.879 Q2068.75 197.032 2065.85 197.865 M2054.14 183.351 L2054.14 195.62 L2060.02 195.62 Q2063.4 195.62 2065.11 194.069 Q2066.85 192.495 2066.85 189.462 Q2066.85 186.43 2065.11 184.902 Q2063.4 183.351 2060.02 183.351 L2054.14 183.351 Z" fill="#000000" fill-rule="nonzero" fill-opacity="1" /><path clip-path="url(#clip330)" d="M2096.43 182.68 Q2091.34 182.68 2088.33 186.476 Q2085.34 190.272 2085.34 196.823 Q2085.34 203.351 2088.33 207.147 Q2091.34 210.944 2096.43 210.944 Q2101.52 210.944 2104.49 207.147 Q2107.47 203.351 2107.47 196.823 Q2107.47 190.272 2104.49 186.476 Q2101.52 182.68 2096.43 182.68 M2096.43 178.884 Q2103.7 178.884 2108.05 183.768 Q2112.4 188.629 2112.4 196.823 Q2112.4 204.995 2108.05 209.879 Q2103.7 214.74 2096.43 214.74 Q2089.14 214.74 2084.76 209.879 Q2080.41 205.018 2080.41 196.823 Q2080.41 188.629 2084.76 183.768 Q2089.14 178.884 2096.43 178.884 Z" fill="#000000" fill-rule="nonzero" fill-opacity="1" /><path clip-path="url(#clip330)" d="M2119.19 179.509 L2123.88 179.509 L2123.88 200.504 Q2123.88 206.059 2125.9 208.513 Q2127.91 210.944 2132.43 210.944 Q2136.92 210.944 2138.93 208.513 Q2140.94 206.059 2140.94 200.504 L2140.94 179.509 L2145.64 179.509 L2145.64 201.083 Q2145.64 207.842 2142.29 211.291 Q2138.95 214.74 2132.43 214.74 Q2125.88 214.74 2122.52 211.291 Q2119.19 207.842 2119.19 201.083 L2119.19 179.509 Z" fill="#000000" fill-rule="nonzero" fill-opacity="1" /><path clip-path="url(#clip330)" d="M2190.2 180.643 L2190.2 185.203 Q2187.54 183.93 2185.18 183.305 Q2182.82 182.68 2180.62 182.68 Q2176.8 182.68 2174.72 184.161 Q2172.66 185.643 2172.66 188.374 Q2172.66 190.666 2174.02 191.847 Q2175.41 193.004 2179.25 193.722 L2182.08 194.3 Q2187.31 195.296 2189.79 197.819 Q2192.29 200.319 2192.29 204.532 Q2192.29 209.555 2188.91 212.147 Q2185.55 214.74 2179.05 214.74 Q2176.59 214.74 2173.82 214.184 Q2171.06 213.629 2168.1 212.541 L2168.1 207.726 Q2170.94 209.323 2173.68 210.133 Q2176.41 210.944 2179.05 210.944 Q2183.05 210.944 2185.23 209.37 Q2187.4 207.796 2187.4 204.879 Q2187.4 202.333 2185.83 200.897 Q2184.28 199.462 2180.71 198.745 L2177.87 198.189 Q2172.63 197.147 2170.3 194.925 Q2167.96 192.703 2167.96 188.745 Q2167.96 184.161 2171.18 181.522 Q2174.42 178.884 2180.09 178.884 Q2182.52 178.884 2185.04 179.323 Q2187.57 179.763 2190.2 180.643 Z" fill="#000000" fill-rule="nonzero" fill-opacity="1" /><path clip-path="url(#clip330)" d="M2220.3 180.643 L2220.3 185.203 Q2217.63 183.93 2215.27 183.305 Q2212.91 182.68 2210.71 182.68 Q2206.89 182.68 2204.81 184.161 Q2202.75 185.643 2202.75 188.374 Q2202.75 190.666 2204.12 191.847 Q2205.5 193.004 2209.35 193.722 L2212.17 194.3 Q2217.4 195.296 2219.88 197.819 Q2222.38 200.319 2222.38 204.532 Q2222.38 209.555 2219 212.147 Q2215.64 214.74 2209.14 214.74 Q2206.69 214.74 2203.91 214.184 Q2201.15 213.629 2198.19 212.541 L2198.19 207.726 Q2201.04 209.323 2203.77 210.133 Q2206.5 210.944 2209.14 210.944 Q2213.14 210.944 2215.32 209.37 Q2217.5 207.796 2217.5 204.879 Q2217.5 202.333 2215.92 200.897 Q2214.37 199.462 2210.81 198.745 L2207.96 198.189 Q2202.73 197.147 2200.39 194.925 Q2198.05 192.703 2198.05 188.745 Q2198.05 184.161 2201.27 181.522 Q2204.51 178.884 2210.18 178.884 Q2212.61 178.884 2215.13 179.323 Q2217.66 179.763 2220.3 180.643 Z" fill="#000000" fill-rule="nonzero" fill-opacity="1" /><path clip-path="url(#clip330)" d="M2242.1 184.115 L2235.76 201.314 L2248.47 201.314 L2242.1 184.115 M2239.46 179.509 L2244.76 179.509 L2257.94 214.069 L2253.07 214.069 L2249.93 205.203 L2234.35 205.203 L2231.2 214.069 L2226.27 214.069 L2239.46 179.509 Z" fill="#000000" fill-rule="nonzero" fill-opacity="1" /></svg>
