<?xml version="1.0" encoding="utf-8"?>
<svg xmlns="http://www.w3.org/2000/svg" xmlns:xlink="http://www.w3.org/1999/xlink" width="600" height="400" viewBox="0 0 2400 1600">
<defs>
  <clipPath id="clip380">
    <rect x="0" y="0" width="2400" height="1600"/>
  </clipPath>
</defs>
<path clip-path="url(#clip380)" d="
M0 1600 L2400 1600 L2400 0 L0 0  Z
  " fill="#ffffff" fill-rule="evenodd" fill-opacity="1"/>
<defs>
  <clipPath id="clip381">
    <rect x="480" y="0" width="1681" height="1600"/>
  </clipPath>
</defs>
<path clip-path="url(#clip380)" d="
M250.028 1423.18 L2352.76 1423.18 L2352.76 47.2441 L250.028 47.2441  Z
  " fill="#ffffff" fill-rule="evenodd" fill-opacity="1"/>
<defs>
  <clipPath id="clip382">
    <rect x="250" y="47" width="2104" height="1377"/>
  </clipPath>
</defs>
<polyline clip-path="url(#clip382)" style="stroke:#000000; stroke-linecap:butt; stroke-linejoin:round; stroke-width:2; stroke-opacity:0.1; fill:none" points="
  309.539,1423.18 309.539,47.2441 
  "/>
<polyline clip-path="url(#clip382)" style="stroke:#000000; stroke-linecap:butt; stroke-linejoin:round; stroke-width:2; stroke-opacity:0.1; fill:none" points="
  970.774,1423.18 970.774,47.2441 
  "/>
<polyline clip-path="url(#clip382)" style="stroke:#000000; stroke-linecap:butt; stroke-linejoin:round; stroke-width:2; stroke-opacity:0.1; fill:none" points="
  1632.01,1423.18 1632.01,47.2441 
  "/>
<polyline clip-path="url(#clip382)" style="stroke:#000000; stroke-linecap:butt; stroke-linejoin:round; stroke-width:2; stroke-opacity:0.1; fill:none" points="
  2293.24,1423.18 2293.24,47.2441 
  "/>
<polyline clip-path="url(#clip380)" style="stroke:#000000; stroke-linecap:butt; stroke-linejoin:round; stroke-width:4; stroke-opacity:1; fill:none" points="
  250.028,1423.18 2352.76,1423.18 
  "/>
<polyline clip-path="url(#clip380)" style="stroke:#000000; stroke-linecap:butt; stroke-linejoin:round; stroke-width:4; stroke-opacity:1; fill:none" points="
  309.539,1423.18 309.539,1406.67 
  "/>
<polyline clip-path="url(#clip380)" style="stroke:#000000; stroke-linecap:butt; stroke-linejoin:round; stroke-width:4; stroke-opacity:1; fill:none" points="
  970.774,1423.18 970.774,1406.67 
  "/>
<polyline clip-path="url(#clip380)" style="stroke:#000000; stroke-linecap:butt; stroke-linejoin:round; stroke-width:4; stroke-opacity:1; fill:none" points="
  1632.01,1423.18 1632.01,1406.67 
  "/>
<polyline clip-path="url(#clip380)" style="stroke:#000000; stroke-linecap:butt; stroke-linejoin:round; stroke-width:4; stroke-opacity:1; fill:none" points="
  2293.24,1423.18 2293.24,1406.67 
  "/>
<path clip-path="url(#clip380)" d="M309.539 1452.37 Q305.928 1452.37 304.1 1455.94 Q302.294 1459.48 302.294 1466.61 Q302.294 1473.71 304.1 1477.28 Q305.928 1480.82 309.539 1480.82 Q313.174 1480.82 314.979 1477.28 Q316.808 1473.71 316.808 1466.61 Q316.808 1459.48 314.979 1455.94 Q313.174 1452.37 309.539 1452.37 M309.539 1448.67 Q315.349 1448.67 318.405 1453.27 Q321.484 1457.86 321.484 1466.61 Q321.484 1475.33 318.405 1479.94 Q315.349 1484.52 309.539 1484.52 Q303.729 1484.52 300.65 1479.94 Q297.595 1475.33 297.595 1466.61 Q297.595 1457.86 300.65 1453.27 Q303.729 1448.67 309.539 1448.67 Z" fill="#000000" fill-rule="evenodd" fill-opacity="1" /><path clip-path="url(#clip380)" d="M945.462 1479.92 L953.101 1479.92 L953.101 1453.55 L944.791 1455.22 L944.791 1450.96 L953.055 1449.29 L957.731 1449.29 L957.731 1479.92 L965.369 1479.92 L965.369 1483.85 L945.462 1483.85 L945.462 1479.92 Z" fill="#000000" fill-rule="evenodd" fill-opacity="1" /><path clip-path="url(#clip380)" d="M984.814 1452.37 Q981.203 1452.37 979.374 1455.94 Q977.568 1459.48 977.568 1466.61 Q977.568 1473.71 979.374 1477.28 Q981.203 1480.82 984.814 1480.82 Q988.448 1480.82 990.254 1477.28 Q992.082 1473.71 992.082 1466.61 Q992.082 1459.48 990.254 1455.94 Q988.448 1452.37 984.814 1452.37 M984.814 1448.67 Q990.624 1448.67 993.679 1453.27 Q996.758 1457.86 996.758 1466.61 Q996.758 1475.33 993.679 1479.94 Q990.624 1484.52 984.814 1484.52 Q979.004 1484.52 975.925 1479.94 Q972.869 1475.33 972.869 1466.61 Q972.869 1457.86 975.925 1453.27 Q979.004 1448.67 984.814 1448.67 Z" fill="#000000" fill-rule="evenodd" fill-opacity="1" /><path clip-path="url(#clip380)" d="M1610.78 1479.92 L1627.1 1479.92 L1627.1 1483.85 L1605.16 1483.85 L1605.16 1479.92 Q1607.82 1477.16 1612.4 1472.53 Q1617.01 1467.88 1618.19 1466.54 Q1620.44 1464.01 1621.32 1462.28 Q1622.22 1460.52 1622.22 1458.83 Q1622.22 1456.07 1620.27 1454.34 Q1618.35 1452.6 1615.25 1452.6 Q1613.05 1452.6 1610.6 1453.37 Q1608.17 1454.13 1605.39 1455.68 L1605.39 1450.96 Q1608.21 1449.82 1610.67 1449.25 Q1613.12 1448.67 1615.16 1448.67 Q1620.53 1448.67 1623.72 1451.35 Q1626.92 1454.04 1626.92 1458.53 Q1626.92 1460.66 1626.11 1462.58 Q1625.32 1464.48 1623.21 1467.07 Q1622.63 1467.74 1619.53 1470.96 Q1616.43 1474.15 1610.78 1479.92 Z" fill="#000000" fill-rule="evenodd" fill-opacity="1" /><path clip-path="url(#clip380)" d="M1646.92 1452.37 Q1643.31 1452.37 1641.48 1455.94 Q1639.67 1459.48 1639.67 1466.61 Q1639.67 1473.71 1641.48 1477.28 Q1643.31 1480.82 1646.92 1480.82 Q1650.55 1480.82 1652.36 1477.28 Q1654.19 1473.71 1654.19 1466.61 Q1654.19 1459.48 1652.36 1455.94 Q1650.55 1452.37 1646.92 1452.37 M1646.92 1448.67 Q1652.73 1448.67 1655.78 1453.27 Q1658.86 1457.86 1658.86 1466.61 Q1658.86 1475.33 1655.78 1479.94 Q1652.73 1484.52 1646.92 1484.52 Q1641.11 1484.52 1638.03 1479.94 Q1634.97 1475.33 1634.97 1466.61 Q1634.97 1457.86 1638.03 1453.27 Q1641.11 1448.67 1646.92 1448.67 Z" fill="#000000" fill-rule="evenodd" fill-opacity="1" /><path clip-path="url(#clip380)" d="M2282.09 1465.22 Q2285.44 1465.94 2287.32 1468.2 Q2289.22 1470.47 2289.22 1473.81 Q2289.22 1478.92 2285.7 1481.72 Q2282.18 1484.52 2275.7 1484.52 Q2273.52 1484.52 2271.21 1484.08 Q2268.92 1483.67 2266.46 1482.81 L2266.46 1478.3 Q2268.41 1479.43 2270.72 1480.01 Q2273.04 1480.59 2275.56 1480.59 Q2279.96 1480.59 2282.25 1478.85 Q2284.56 1477.12 2284.56 1473.81 Q2284.56 1470.75 2282.41 1469.04 Q2280.28 1467.3 2276.46 1467.3 L2272.43 1467.3 L2272.43 1463.46 L2276.65 1463.46 Q2280.1 1463.46 2281.93 1462.09 Q2283.75 1460.7 2283.75 1458.11 Q2283.75 1455.45 2281.86 1454.04 Q2279.98 1452.6 2276.46 1452.6 Q2274.54 1452.6 2272.34 1453.02 Q2270.14 1453.44 2267.5 1454.31 L2267.5 1450.15 Q2270.17 1449.41 2272.48 1449.04 Q2274.82 1448.67 2276.88 1448.67 Q2282.2 1448.67 2285.3 1451.1 Q2288.41 1453.5 2288.41 1457.63 Q2288.41 1460.5 2286.76 1462.49 Q2285.12 1464.45 2282.09 1465.22 Z" fill="#000000" fill-rule="evenodd" fill-opacity="1" /><path clip-path="url(#clip380)" d="M2308.08 1452.37 Q2304.47 1452.37 2302.64 1455.94 Q2300.84 1459.48 2300.84 1466.61 Q2300.84 1473.71 2302.64 1477.28 Q2304.47 1480.82 2308.08 1480.82 Q2311.72 1480.82 2313.52 1477.28 Q2315.35 1473.71 2315.35 1466.61 Q2315.35 1459.48 2313.52 1455.94 Q2311.72 1452.37 2308.08 1452.37 M2308.08 1448.67 Q2313.89 1448.67 2316.95 1453.27 Q2320.03 1457.86 2320.03 1466.61 Q2320.03 1475.33 2316.95 1479.94 Q2313.89 1484.52 2308.08 1484.52 Q2302.27 1484.52 2299.19 1479.94 Q2296.14 1475.33 2296.14 1466.61 Q2296.14 1457.86 2299.19 1453.27 Q2302.27 1448.67 2308.08 1448.67 Z" fill="#000000" fill-rule="evenodd" fill-opacity="1" /><path clip-path="url(#clip380)" d="M1240.55 1522.27 L1240.55 1532.4 L1252.61 1532.4 L1252.61 1536.95 L1240.55 1536.95 L1240.55 1556.3 Q1240.55 1560.66 1241.73 1561.9 Q1242.94 1563.14 1246.6 1563.14 L1252.61 1563.14 L1252.61 1568.04 L1246.6 1568.04 Q1239.82 1568.04 1237.24 1565.53 Q1234.66 1562.98 1234.66 1556.3 L1234.66 1536.95 L1230.37 1536.95 L1230.37 1532.4 L1234.66 1532.4 L1234.66 1522.27 L1240.55 1522.27 Z" fill="#000000" fill-rule="evenodd" fill-opacity="1" /><path clip-path="url(#clip380)" d="M1260.32 1532.4 L1266.17 1532.4 L1266.17 1568.04 L1260.32 1568.04 L1260.32 1532.4 M1260.32 1518.52 L1266.17 1518.52 L1266.17 1525.93 L1260.32 1525.93 L1260.32 1518.52 Z" fill="#000000" fill-rule="evenodd" fill-opacity="1" /><path clip-path="url(#clip380)" d="M1306.18 1539.24 Q1308.38 1535.29 1311.43 1533.41 Q1314.49 1531.54 1318.63 1531.54 Q1324.2 1531.54 1327.22 1535.45 Q1330.24 1539.33 1330.24 1546.53 L1330.24 1568.04 L1324.36 1568.04 L1324.36 1546.72 Q1324.36 1541.59 1322.54 1539.11 Q1320.73 1536.63 1317 1536.63 Q1312.45 1536.63 1309.81 1539.65 Q1307.17 1542.68 1307.17 1547.9 L1307.17 1568.04 L1301.28 1568.04 L1301.28 1546.72 Q1301.28 1541.56 1299.47 1539.11 Q1297.65 1536.63 1293.86 1536.63 Q1289.38 1536.63 1286.73 1539.68 Q1284.09 1542.71 1284.09 1547.9 L1284.09 1568.04 L1278.2 1568.04 L1278.2 1532.4 L1284.09 1532.4 L1284.09 1537.93 Q1286.1 1534.66 1288.9 1533.1 Q1291.7 1531.54 1295.55 1531.54 Q1299.43 1531.54 1302.14 1533.51 Q1304.88 1535.48 1306.18 1539.24 Z" fill="#000000" fill-rule="evenodd" fill-opacity="1" /><path clip-path="url(#clip380)" d="M1372.42 1548.76 L1372.42 1551.62 L1345.49 1551.62 Q1345.87 1557.67 1349.12 1560.85 Q1352.4 1564 1358.22 1564 Q1361.6 1564 1364.75 1563.17 Q1367.93 1562.35 1371.05 1560.69 L1371.05 1566.23 Q1367.9 1567.57 1364.59 1568.27 Q1361.28 1568.97 1357.87 1568.97 Q1349.34 1568.97 1344.34 1564 Q1339.38 1559.04 1339.38 1550.57 Q1339.38 1541.82 1344.09 1536.69 Q1348.83 1531.54 1356.85 1531.54 Q1364.05 1531.54 1368.22 1536.18 Q1372.42 1540.8 1372.42 1548.76 M1366.56 1547.04 Q1366.5 1542.23 1363.86 1539.37 Q1361.25 1536.5 1356.92 1536.5 Q1352.02 1536.5 1349.06 1539.27 Q1346.13 1542.04 1345.68 1547.07 L1366.56 1547.04 Z" fill="#000000" fill-rule="evenodd" fill-opacity="1" /><polyline clip-path="url(#clip382)" style="stroke:#000000; stroke-linecap:butt; stroke-linejoin:round; stroke-width:2; stroke-opacity:0.1; fill:none" points="
  250.028,1382.5 2352.76,1382.5 
  "/>
<polyline clip-path="url(#clip382)" style="stroke:#000000; stroke-linecap:butt; stroke-linejoin:round; stroke-width:2; stroke-opacity:0.1; fill:none" points="
  250.028,1162.06 2352.76,1162.06 
  "/>
<polyline clip-path="url(#clip382)" style="stroke:#000000; stroke-linecap:butt; stroke-linejoin:round; stroke-width:2; stroke-opacity:0.1; fill:none" points="
  250.028,941.632 2352.76,941.632 
  "/>
<polyline clip-path="url(#clip382)" style="stroke:#000000; stroke-linecap:butt; stroke-linejoin:round; stroke-width:2; stroke-opacity:0.1; fill:none" points="
  250.028,721.199 2352.76,721.199 
  "/>
<polyline clip-path="url(#clip382)" style="stroke:#000000; stroke-linecap:butt; stroke-linejoin:round; stroke-width:2; stroke-opacity:0.1; fill:none" points="
  250.028,500.767 2352.76,500.767 
  "/>
<polyline clip-path="url(#clip382)" style="stroke:#000000; stroke-linecap:butt; stroke-linejoin:round; stroke-width:2; stroke-opacity:0.1; fill:none" points="
  250.028,280.335 2352.76,280.335 
  "/>
<polyline clip-path="url(#clip382)" style="stroke:#000000; stroke-linecap:butt; stroke-linejoin:round; stroke-width:2; stroke-opacity:0.1; fill:none" points="
  250.028,59.9032 2352.76,59.9032 
  "/>
<polyline clip-path="url(#clip380)" style="stroke:#000000; stroke-linecap:butt; stroke-linejoin:round; stroke-width:4; stroke-opacity:1; fill:none" points="
  250.028,1423.18 250.028,47.2441 
  "/>
<polyline clip-path="url(#clip380)" style="stroke:#000000; stroke-linecap:butt; stroke-linejoin:round; stroke-width:4; stroke-opacity:1; fill:none" points="
  250.028,1382.5 275.261,1382.5 
  "/>
<polyline clip-path="url(#clip380)" style="stroke:#000000; stroke-linecap:butt; stroke-linejoin:round; stroke-width:4; stroke-opacity:1; fill:none" points="
  250.028,1162.06 275.261,1162.06 
  "/>
<polyline clip-path="url(#clip380)" style="stroke:#000000; stroke-linecap:butt; stroke-linejoin:round; stroke-width:4; stroke-opacity:1; fill:none" points="
  250.028,941.632 275.261,941.632 
  "/>
<polyline clip-path="url(#clip380)" style="stroke:#000000; stroke-linecap:butt; stroke-linejoin:round; stroke-width:4; stroke-opacity:1; fill:none" points="
  250.028,721.199 275.261,721.199 
  "/>
<polyline clip-path="url(#clip380)" style="stroke:#000000; stroke-linecap:butt; stroke-linejoin:round; stroke-width:4; stroke-opacity:1; fill:none" points="
  250.028,500.767 275.261,500.767 
  "/>
<polyline clip-path="url(#clip380)" style="stroke:#000000; stroke-linecap:butt; stroke-linejoin:round; stroke-width:4; stroke-opacity:1; fill:none" points="
  250.028,280.335 275.261,280.335 
  "/>
<polyline clip-path="url(#clip380)" style="stroke:#000000; stroke-linecap:butt; stroke-linejoin:round; stroke-width:4; stroke-opacity:1; fill:none" points="
  250.028,59.9032 275.261,59.9032 
  "/>
<path clip-path="url(#clip380)" d="M126.205 1368.29 Q122.593 1368.29 120.765 1371.86 Q118.959 1375.4 118.959 1382.53 Q118.959 1389.64 120.765 1393.2 Q122.593 1396.74 126.205 1396.74 Q129.839 1396.74 131.644 1393.2 Q133.473 1389.64 133.473 1382.53 Q133.473 1375.4 131.644 1371.86 Q129.839 1368.29 126.205 1368.29 M126.205 1364.59 Q132.015 1364.59 135.07 1369.2 Q138.149 1373.78 138.149 1382.53 Q138.149 1391.26 135.07 1395.86 Q132.015 1400.45 126.205 1400.45 Q120.394 1400.45 117.316 1395.86 Q114.26 1391.26 114.26 1382.53 Q114.26 1373.78 117.316 1369.2 Q120.394 1364.59 126.205 1364.59 Z" fill="#000000" fill-rule="evenodd" fill-opacity="1" /><path clip-path="url(#clip380)" d="M146.366 1393.9 L151.251 1393.9 L151.251 1399.78 L146.366 1399.78 L146.366 1393.9 Z" fill="#000000" fill-rule="evenodd" fill-opacity="1" /><path clip-path="url(#clip380)" d="M161.482 1365.22 L179.839 1365.22 L179.839 1369.15 L165.765 1369.15 L165.765 1377.62 Q166.783 1377.28 167.802 1377.11 Q168.82 1376.93 169.839 1376.93 Q175.626 1376.93 179.005 1380.1 Q182.385 1383.27 182.385 1388.69 Q182.385 1394.27 178.913 1397.37 Q175.44 1400.45 169.121 1400.45 Q166.945 1400.45 164.677 1400.08 Q162.431 1399.71 160.024 1398.97 L160.024 1394.27 Q162.107 1395.4 164.329 1395.96 Q166.552 1396.51 169.028 1396.51 Q173.033 1396.51 175.371 1394.41 Q177.709 1392.3 177.709 1388.69 Q177.709 1385.08 175.371 1382.97 Q173.033 1380.86 169.028 1380.86 Q167.153 1380.86 165.278 1381.28 Q163.427 1381.7 161.482 1382.58 L161.482 1365.22 Z" fill="#000000" fill-rule="evenodd" fill-opacity="1" /><path clip-path="url(#clip380)" d="M204.445 1369.29 L192.639 1387.74 L204.445 1387.74 L204.445 1369.29 M203.218 1365.22 L209.098 1365.22 L209.098 1387.74 L214.028 1387.74 L214.028 1391.63 L209.098 1391.63 L209.098 1399.78 L204.445 1399.78 L204.445 1391.63 L188.843 1391.63 L188.843 1387.11 L203.218 1365.22 Z" fill="#000000" fill-rule="evenodd" fill-opacity="1" /><path clip-path="url(#clip380)" d="M127.686 1147.86 Q124.075 1147.86 122.246 1151.43 Q120.441 1154.97 120.441 1162.1 Q120.441 1169.2 122.246 1172.77 Q124.075 1176.31 127.686 1176.31 Q131.32 1176.31 133.126 1172.77 Q134.954 1169.2 134.954 1162.1 Q134.954 1154.97 133.126 1151.43 Q131.32 1147.86 127.686 1147.86 M127.686 1144.16 Q133.496 1144.16 136.552 1148.77 Q139.63 1153.35 139.63 1162.1 Q139.63 1170.83 136.552 1175.43 Q133.496 1180.01 127.686 1180.01 Q121.876 1180.01 118.797 1175.43 Q115.742 1170.83 115.742 1162.1 Q115.742 1153.35 118.797 1148.77 Q121.876 1144.16 127.686 1144.16 Z" fill="#000000" fill-rule="evenodd" fill-opacity="1" /><path clip-path="url(#clip380)" d="M147.848 1173.46 L152.732 1173.46 L152.732 1179.34 L147.848 1179.34 L147.848 1173.46 Z" fill="#000000" fill-rule="evenodd" fill-opacity="1" /><path clip-path="url(#clip380)" d="M162.964 1144.78 L181.32 1144.78 L181.32 1148.72 L167.246 1148.72 L167.246 1157.19 Q168.264 1156.84 169.283 1156.68 Q170.302 1156.5 171.32 1156.5 Q177.107 1156.5 180.487 1159.67 Q183.866 1162.84 183.866 1168.26 Q183.866 1173.83 180.394 1176.94 Q176.922 1180.01 170.602 1180.01 Q168.427 1180.01 166.158 1179.64 Q163.913 1179.27 161.505 1178.53 L161.505 1173.83 Q163.589 1174.97 165.811 1175.52 Q168.033 1176.08 170.51 1176.08 Q174.514 1176.08 176.852 1173.97 Q179.19 1171.87 179.19 1168.26 Q179.19 1164.64 176.852 1162.54 Q174.514 1160.43 170.51 1160.43 Q168.635 1160.43 166.76 1160.85 Q164.908 1161.27 162.964 1162.14 L162.964 1144.78 Z" fill="#000000" fill-rule="evenodd" fill-opacity="1" /><path clip-path="url(#clip380)" d="M193.125 1144.78 L211.482 1144.78 L211.482 1148.72 L197.408 1148.72 L197.408 1157.19 Q198.426 1156.84 199.445 1156.68 Q200.463 1156.5 201.482 1156.5 Q207.269 1156.5 210.649 1159.67 Q214.028 1162.84 214.028 1168.26 Q214.028 1173.83 210.556 1176.94 Q207.084 1180.01 200.764 1180.01 Q198.588 1180.01 196.32 1179.64 Q194.075 1179.27 191.667 1178.53 L191.667 1173.83 Q193.75 1174.97 195.973 1175.52 Q198.195 1176.08 200.672 1176.08 Q204.676 1176.08 207.014 1173.97 Q209.352 1171.87 209.352 1168.26 Q209.352 1164.64 207.014 1162.54 Q204.676 1160.43 200.672 1160.43 Q198.797 1160.43 196.922 1160.85 Q195.07 1161.27 193.125 1162.14 L193.125 1144.78 Z" fill="#000000" fill-rule="evenodd" fill-opacity="1" /><path clip-path="url(#clip380)" d="M126.529 927.43 Q122.918 927.43 121.089 930.995 Q119.283 934.537 119.283 941.666 Q119.283 948.773 121.089 952.338 Q122.918 955.879 126.529 955.879 Q130.163 955.879 131.968 952.338 Q133.797 948.773 133.797 941.666 Q133.797 934.537 131.968 930.995 Q130.163 927.43 126.529 927.43 M126.529 923.727 Q132.339 923.727 135.394 928.333 Q138.473 932.916 138.473 941.666 Q138.473 950.393 135.394 955 Q132.339 959.583 126.529 959.583 Q120.718 959.583 117.64 955 Q114.584 950.393 114.584 941.666 Q114.584 932.916 117.64 928.333 Q120.718 923.727 126.529 923.727 Z" fill="#000000" fill-rule="evenodd" fill-opacity="1" /><path clip-path="url(#clip380)" d="M146.691 953.032 L151.575 953.032 L151.575 958.912 L146.691 958.912 L146.691 953.032 Z" fill="#000000" fill-rule="evenodd" fill-opacity="1" /><path clip-path="url(#clip380)" d="M161.806 924.352 L180.163 924.352 L180.163 928.287 L166.089 928.287 L166.089 936.759 Q167.107 936.412 168.126 936.25 Q169.144 936.064 170.163 936.064 Q175.95 936.064 179.329 939.236 Q182.709 942.407 182.709 947.824 Q182.709 953.402 179.237 956.504 Q175.764 959.583 169.445 959.583 Q167.269 959.583 165.001 959.212 Q162.755 958.842 160.348 958.101 L160.348 953.402 Q162.431 954.537 164.653 955.092 Q166.876 955.648 169.352 955.648 Q173.357 955.648 175.695 953.541 Q178.033 951.435 178.033 947.824 Q178.033 944.213 175.695 942.106 Q173.357 940 169.352 940 Q167.477 940 165.602 940.416 Q163.751 940.833 161.806 941.713 L161.806 924.352 Z" fill="#000000" fill-rule="evenodd" fill-opacity="1" /><path clip-path="url(#clip380)" d="M202.5 939.768 Q199.352 939.768 197.5 941.921 Q195.672 944.074 195.672 947.824 Q195.672 951.55 197.5 953.726 Q199.352 955.879 202.5 955.879 Q205.649 955.879 207.477 953.726 Q209.329 951.55 209.329 947.824 Q209.329 944.074 207.477 941.921 Q205.649 939.768 202.5 939.768 M211.783 925.115 L211.783 929.375 Q210.024 928.541 208.218 928.102 Q206.436 927.662 204.676 927.662 Q200.047 927.662 197.593 930.787 Q195.163 933.912 194.815 940.231 Q196.181 938.217 198.241 937.152 Q200.301 936.064 202.778 936.064 Q207.987 936.064 210.996 939.236 Q214.028 942.384 214.028 947.824 Q214.028 953.148 210.88 956.365 Q207.732 959.583 202.5 959.583 Q196.505 959.583 193.334 955 Q190.163 950.393 190.163 941.666 Q190.163 933.472 194.051 928.611 Q197.94 923.727 204.491 923.727 Q206.25 923.727 208.033 924.074 Q209.838 924.421 211.783 925.115 Z" fill="#000000" fill-rule="evenodd" fill-opacity="1" /><path clip-path="url(#clip380)" d="M127.593 706.998 Q123.982 706.998 122.154 710.563 Q120.348 714.105 120.348 721.234 Q120.348 728.341 122.154 731.905 Q123.982 735.447 127.593 735.447 Q131.228 735.447 133.033 731.905 Q134.862 728.341 134.862 721.234 Q134.862 714.105 133.033 710.563 Q131.228 706.998 127.593 706.998 M127.593 703.294 Q133.404 703.294 136.459 707.901 Q139.538 712.484 139.538 721.234 Q139.538 729.961 136.459 734.567 Q133.404 739.151 127.593 739.151 Q121.783 739.151 118.705 734.567 Q115.649 729.961 115.649 721.234 Q115.649 712.484 118.705 707.901 Q121.783 703.294 127.593 703.294 Z" fill="#000000" fill-rule="evenodd" fill-opacity="1" /><path clip-path="url(#clip380)" d="M147.755 732.6 L152.64 732.6 L152.64 738.479 L147.755 738.479 L147.755 732.6 Z" fill="#000000" fill-rule="evenodd" fill-opacity="1" /><path clip-path="url(#clip380)" d="M162.871 703.919 L181.227 703.919 L181.227 707.855 L167.153 707.855 L167.153 716.327 Q168.172 715.98 169.19 715.818 Q170.209 715.632 171.227 715.632 Q177.014 715.632 180.394 718.804 Q183.774 721.975 183.774 727.392 Q183.774 732.97 180.301 736.072 Q176.829 739.151 170.51 739.151 Q168.334 739.151 166.065 738.78 Q163.82 738.41 161.413 737.669 L161.413 732.97 Q163.496 734.104 165.718 734.66 Q167.94 735.216 170.417 735.216 Q174.422 735.216 176.76 733.109 Q179.098 731.003 179.098 727.392 Q179.098 723.78 176.76 721.674 Q174.422 719.568 170.417 719.568 Q168.542 719.568 166.667 719.984 Q164.815 720.401 162.871 721.28 L162.871 703.919 Z" fill="#000000" fill-rule="evenodd" fill-opacity="1" /><path clip-path="url(#clip380)" d="M191.806 703.919 L214.028 703.919 L214.028 705.91 L201.482 738.479 L196.598 738.479 L208.403 707.855 L191.806 707.855 L191.806 703.919 Z" fill="#000000" fill-rule="evenodd" fill-opacity="1" /><path clip-path="url(#clip380)" d="M126.783 486.566 Q123.172 486.566 121.343 490.131 Q119.538 493.673 119.538 500.802 Q119.538 507.909 121.343 511.473 Q123.172 515.015 126.783 515.015 Q130.417 515.015 132.223 511.473 Q134.052 507.909 134.052 500.802 Q134.052 493.673 132.223 490.131 Q130.417 486.566 126.783 486.566 M126.783 482.862 Q132.593 482.862 135.649 487.469 Q138.728 492.052 138.728 500.802 Q138.728 509.529 135.649 514.135 Q132.593 518.719 126.783 518.719 Q120.973 518.719 117.894 514.135 Q114.839 509.529 114.839 500.802 Q114.839 492.052 117.894 487.469 Q120.973 482.862 126.783 482.862 Z" fill="#000000" fill-rule="evenodd" fill-opacity="1" /><path clip-path="url(#clip380)" d="M146.945 512.168 L151.829 512.168 L151.829 518.047 L146.945 518.047 L146.945 512.168 Z" fill="#000000" fill-rule="evenodd" fill-opacity="1" /><path clip-path="url(#clip380)" d="M162.061 483.487 L180.417 483.487 L180.417 487.423 L166.343 487.423 L166.343 495.895 Q167.362 495.548 168.38 495.385 Q169.399 495.2 170.417 495.2 Q176.204 495.2 179.584 498.372 Q182.963 501.543 182.963 506.959 Q182.963 512.538 179.491 515.64 Q176.019 518.719 169.7 518.719 Q167.524 518.719 165.255 518.348 Q163.01 517.978 160.603 517.237 L160.603 512.538 Q162.686 513.672 164.908 514.228 Q167.13 514.784 169.607 514.784 Q173.612 514.784 175.95 512.677 Q178.288 510.571 178.288 506.959 Q178.288 503.348 175.95 501.242 Q173.612 499.135 169.607 499.135 Q167.732 499.135 165.857 499.552 Q164.005 499.969 162.061 500.848 L162.061 483.487 Z" fill="#000000" fill-rule="evenodd" fill-opacity="1" /><path clip-path="url(#clip380)" d="M202.176 501.635 Q198.843 501.635 196.922 503.418 Q195.024 505.2 195.024 508.325 Q195.024 511.45 196.922 513.233 Q198.843 515.015 202.176 515.015 Q205.51 515.015 207.431 513.233 Q209.352 511.427 209.352 508.325 Q209.352 505.2 207.431 503.418 Q205.533 501.635 202.176 501.635 M197.5 499.645 Q194.491 498.904 192.801 496.844 Q191.135 494.784 191.135 491.821 Q191.135 487.677 194.075 485.27 Q197.037 482.862 202.176 482.862 Q207.338 482.862 210.278 485.27 Q213.218 487.677 213.218 491.821 Q213.218 494.784 211.528 496.844 Q209.861 498.904 206.875 499.645 Q210.255 500.432 212.13 502.723 Q214.028 505.015 214.028 508.325 Q214.028 513.348 210.949 516.034 Q207.894 518.719 202.176 518.719 Q196.459 518.719 193.38 516.034 Q190.325 513.348 190.325 508.325 Q190.325 505.015 192.223 502.723 Q194.121 500.432 197.5 499.645 M195.787 492.26 Q195.787 494.946 197.454 496.45 Q199.144 497.955 202.176 497.955 Q205.186 497.955 206.875 496.45 Q208.588 494.946 208.588 492.26 Q208.588 489.575 206.875 488.071 Q205.186 486.566 202.176 486.566 Q199.144 486.566 197.454 488.071 Q195.787 489.575 195.787 492.26 Z" fill="#000000" fill-rule="evenodd" fill-opacity="1" /><path clip-path="url(#clip380)" d="M126.876 266.134 Q123.265 266.134 121.436 269.699 Q119.63 273.24 119.63 280.37 Q119.63 287.476 121.436 291.041 Q123.265 294.583 126.876 294.583 Q130.51 294.583 132.316 291.041 Q134.144 287.476 134.144 280.37 Q134.144 273.24 132.316 269.699 Q130.51 266.134 126.876 266.134 M126.876 262.43 Q132.686 262.43 135.742 267.037 Q138.82 271.62 138.82 280.37 Q138.82 289.097 135.742 293.703 Q132.686 298.287 126.876 298.287 Q121.066 298.287 117.987 293.703 Q114.931 289.097 114.931 280.37 Q114.931 271.62 117.987 267.037 Q121.066 262.43 126.876 262.43 Z" fill="#000000" fill-rule="evenodd" fill-opacity="1" /><path clip-path="url(#clip380)" d="M147.038 291.736 L151.922 291.736 L151.922 297.615 L147.038 297.615 L147.038 291.736 Z" fill="#000000" fill-rule="evenodd" fill-opacity="1" /><path clip-path="url(#clip380)" d="M162.153 263.055 L180.51 263.055 L180.51 266.99 L166.436 266.99 L166.436 275.463 Q167.454 275.115 168.473 274.953 Q169.491 274.768 170.51 274.768 Q176.297 274.768 179.676 277.939 Q183.056 281.111 183.056 286.527 Q183.056 292.106 179.584 295.208 Q176.112 298.287 169.792 298.287 Q167.616 298.287 165.348 297.916 Q163.102 297.546 160.695 296.805 L160.695 292.106 Q162.778 293.24 165.001 293.796 Q167.223 294.351 169.7 294.351 Q173.704 294.351 176.042 292.245 Q178.38 290.138 178.38 286.527 Q178.38 282.916 176.042 280.81 Q173.704 278.703 169.7 278.703 Q167.825 278.703 165.95 279.12 Q164.098 279.537 162.153 280.416 L162.153 263.055 Z" fill="#000000" fill-rule="evenodd" fill-opacity="1" /><path clip-path="url(#clip380)" d="M192.408 296.898 L192.408 292.638 Q194.167 293.472 195.973 293.912 Q197.778 294.351 199.514 294.351 Q204.144 294.351 206.574 291.25 Q209.028 288.125 209.375 281.782 Q208.033 283.773 205.973 284.838 Q203.912 285.902 201.412 285.902 Q196.227 285.902 193.195 282.777 Q190.186 279.629 190.186 274.189 Q190.186 268.865 193.334 265.648 Q196.482 262.43 201.713 262.43 Q207.709 262.43 210.857 267.037 Q214.028 271.62 214.028 280.37 Q214.028 288.541 210.139 293.426 Q206.274 298.287 199.723 298.287 Q197.963 298.287 196.158 297.939 Q194.352 297.592 192.408 296.898 M201.713 282.245 Q204.862 282.245 206.69 280.092 Q208.542 277.939 208.542 274.189 Q208.542 270.463 206.69 268.31 Q204.862 266.134 201.713 266.134 Q198.565 266.134 196.713 268.31 Q194.885 270.463 194.885 274.189 Q194.885 277.939 196.713 280.092 Q198.565 282.245 201.713 282.245 Z" fill="#000000" fill-rule="evenodd" fill-opacity="1" /><path clip-path="url(#clip380)" d="M126.691 45.7019 Q123.08 45.7019 121.251 49.2667 Q119.445 52.8083 119.445 59.9379 Q119.445 67.0444 121.251 70.6092 Q123.08 74.1508 126.691 74.1508 Q130.325 74.1508 132.13 70.6092 Q133.959 67.0444 133.959 59.9379 Q133.959 52.8083 132.13 49.2667 Q130.325 45.7019 126.691 45.7019 M126.691 41.9982 Q132.501 41.9982 135.556 46.6047 Q138.635 51.188 138.635 59.9379 Q138.635 68.6647 135.556 73.2712 Q132.501 77.8545 126.691 77.8545 Q120.88 77.8545 117.802 73.2712 Q114.746 68.6647 114.746 59.9379 Q114.746 51.188 117.802 46.6047 Q120.88 41.9982 126.691 41.9982 Z" fill="#000000" fill-rule="evenodd" fill-opacity="1" /><path clip-path="url(#clip380)" d="M146.853 71.3036 L151.737 71.3036 L151.737 77.1832 L146.853 77.1832 L146.853 71.3036 Z" fill="#000000" fill-rule="evenodd" fill-opacity="1" /><path clip-path="url(#clip380)" d="M172.501 58.0398 Q169.352 58.0398 167.501 60.1926 Q165.672 62.3453 165.672 66.0953 Q165.672 69.8221 167.501 71.9981 Q169.352 74.1508 172.501 74.1508 Q175.649 74.1508 177.477 71.9981 Q179.329 69.8221 179.329 66.0953 Q179.329 62.3453 177.477 60.1926 Q175.649 58.0398 172.501 58.0398 M181.783 43.3871 L181.783 47.6463 Q180.024 46.813 178.218 46.3732 Q176.436 45.9334 174.677 45.9334 Q170.047 45.9334 167.593 49.0584 Q165.163 52.1833 164.815 58.5028 Q166.181 56.4889 168.241 55.4241 Q170.302 54.3361 172.778 54.3361 Q177.987 54.3361 180.996 57.5074 Q184.028 60.6555 184.028 66.0953 Q184.028 71.4194 180.88 74.6369 Q177.732 77.8545 172.501 77.8545 Q166.505 77.8545 163.334 73.2712 Q160.163 68.6647 160.163 59.9379 Q160.163 51.7435 164.052 46.8824 Q167.94 41.9982 174.491 41.9982 Q176.251 41.9982 178.033 42.3454 Q179.839 42.6927 181.783 43.3871 Z" fill="#000000" fill-rule="evenodd" fill-opacity="1" /><path clip-path="url(#clip380)" d="M202.084 45.7019 Q198.473 45.7019 196.644 49.2667 Q194.838 52.8083 194.838 59.9379 Q194.838 67.0444 196.644 70.6092 Q198.473 74.1508 202.084 74.1508 Q205.718 74.1508 207.524 70.6092 Q209.352 67.0444 209.352 59.9379 Q209.352 52.8083 207.524 49.2667 Q205.718 45.7019 202.084 45.7019 M202.084 41.9982 Q207.894 41.9982 210.949 46.6047 Q214.028 51.188 214.028 59.9379 Q214.028 68.6647 210.949 73.2712 Q207.894 77.8545 202.084 77.8545 Q196.274 77.8545 193.195 73.2712 Q190.139 68.6647 190.139 59.9379 Q190.139 51.188 193.195 46.6047 Q196.274 41.9982 202.084 41.9982 Z" fill="#000000" fill-rule="evenodd" fill-opacity="1" /><path clip-path="url(#clip380)" d="M33.8307 977.952 Q33.2578 978.939 33.0032 980.117 Q32.7167 981.262 32.7167 982.663 Q32.7167 987.628 35.9632 990.302 Q39.1779 992.944 45.2253 992.944 L64.0042 992.944 L64.0042 998.832 L28.3562 998.832 L28.3562 992.944 L33.8944 992.944 Q30.6479 991.097 29.0883 988.137 Q27.4968 985.177 27.4968 980.944 Q27.4968 980.339 27.5923 979.607 Q27.656 978.875 27.8151 977.984 L33.8307 977.952 Z" fill="#000000" fill-rule="evenodd" fill-opacity="1" /><path clip-path="url(#clip380)" d="M32.4621 959.428 Q32.4621 964.139 36.1542 966.876 Q39.8145 969.613 46.212 969.613 Q52.6095 969.613 56.3017 966.908 Q59.9619 964.171 59.9619 959.428 Q59.9619 954.749 56.2698 952.012 Q52.5777 949.275 46.212 949.275 Q39.8781 949.275 36.186 952.012 Q32.4621 954.749 32.4621 959.428 M27.4968 959.428 Q27.4968 951.789 32.4621 947.429 Q37.4273 943.068 46.212 943.068 Q54.9649 943.068 59.9619 947.429 Q64.9272 951.789 64.9272 959.428 Q64.9272 967.099 59.9619 971.459 Q54.9649 975.788 46.212 975.788 Q37.4273 975.788 32.4621 971.459 Q27.4968 967.099 27.4968 959.428 Z" fill="#000000" fill-rule="evenodd" fill-opacity="1" /><path clip-path="url(#clip380)" d="M18.2347 927.568 L28.3562 927.568 L28.3562 915.505 L32.9077 915.505 L32.9077 927.568 L52.2594 927.568 Q56.6199 927.568 57.8613 926.39 Q59.1026 925.181 59.1026 921.52 L59.1026 915.505 L64.0042 915.505 L64.0042 921.52 Q64.0042 928.3 61.4897 930.878 Q58.9434 933.456 52.2594 933.456 L32.9077 933.456 L32.9077 937.753 L28.3562 937.753 L28.3562 933.456 L18.2347 933.456 L18.2347 927.568 Z" fill="#000000" fill-rule="evenodd" fill-opacity="1" /><path clip-path="url(#clip380)" d="M32.4621 893.989 Q32.4621 898.699 36.1542 901.436 Q39.8145 904.174 46.212 904.174 Q52.6095 904.174 56.3017 901.468 Q59.9619 898.731 59.9619 893.989 Q59.9619 889.31 56.2698 886.573 Q52.5777 883.835 46.212 883.835 Q39.8781 883.835 36.186 886.573 Q32.4621 889.31 32.4621 893.989 M27.4968 893.989 Q27.4968 886.35 32.4621 881.989 Q37.4273 877.629 46.212 877.629 Q54.9649 877.629 59.9619 881.989 Q64.9272 886.35 64.9272 893.989 Q64.9272 901.659 59.9619 906.02 Q54.9649 910.348 46.212 910.348 Q37.4273 910.348 32.4621 906.02 Q27.4968 901.659 27.4968 893.989 Z" fill="#000000" fill-rule="evenodd" fill-opacity="1" /><path clip-path="url(#clip380)" d="M33.8307 847.264 Q33.2578 848.251 33.0032 849.429 Q32.7167 850.574 32.7167 851.975 Q32.7167 856.94 35.9632 859.614 Q39.1779 862.256 45.2253 862.256 L64.0042 862.256 L64.0042 868.144 L28.3562 868.144 L28.3562 862.256 L33.8944 862.256 Q30.6479 860.41 29.0883 857.449 Q27.4968 854.489 27.4968 850.256 Q27.4968 849.651 27.5923 848.919 Q27.656 848.187 27.8151 847.296 L33.8307 847.264 Z" fill="#000000" fill-rule="evenodd" fill-opacity="1" /><path clip-path="url(#clip380)" d="M46.0847 804.2 Q46.0847 811.298 47.7079 814.035 Q49.3312 816.773 53.2461 816.773 Q56.3653 816.773 58.2114 814.736 Q60.0256 812.667 60.0256 809.134 Q60.0256 804.264 56.5881 801.336 Q53.1188 798.376 47.3897 798.376 L46.0847 798.376 L46.0847 804.2 M43.6657 792.519 L64.0042 792.519 L64.0042 798.376 L58.5933 798.376 Q61.8398 800.381 63.3994 803.373 Q64.9272 806.365 64.9272 810.693 Q64.9272 816.168 61.8716 819.414 Q58.7843 822.629 53.6281 822.629 Q47.6125 822.629 44.5569 818.619 Q41.5014 814.576 41.5014 806.587 L41.5014 798.376 L40.9285 798.376 Q36.8862 798.376 34.6901 801.049 Q32.4621 803.691 32.4621 808.497 Q32.4621 811.553 33.1941 814.449 Q33.9262 817.345 35.3903 820.019 L29.9795 820.019 Q28.7381 816.804 28.1334 813.781 Q27.4968 810.757 27.4968 807.892 Q27.4968 800.158 31.5072 796.339 Q35.5176 792.519 43.6657 792.519 Z" fill="#000000" fill-rule="evenodd" fill-opacity="1" /><path clip-path="url(#clip380)" d="M42.4881 750.824 L64.0042 750.824 L64.0042 756.68 L42.679 756.68 Q37.6183 756.68 35.1038 758.654 Q32.5894 760.627 32.5894 764.574 Q32.5894 769.316 35.6131 772.053 Q38.6368 774.791 43.8567 774.791 L64.0042 774.791 L64.0042 780.679 L28.3562 780.679 L28.3562 774.791 L33.8944 774.791 Q30.6797 772.69 29.0883 769.857 Q27.4968 766.993 27.4968 763.269 Q27.4968 757.126 31.3163 753.975 Q35.1038 750.824 42.4881 750.824 Z" fill="#000000" fill-rule="evenodd" fill-opacity="1" /><path clip-path="url(#clip380)" d="M45.7664 715.685 Q39.4007 715.685 35.8996 718.327 Q32.3984 720.937 32.3984 725.679 Q32.3984 730.39 35.8996 733.032 Q39.4007 735.642 45.7664 735.642 Q52.1003 735.642 55.6014 733.032 Q59.1026 730.39 59.1026 725.679 Q59.1026 720.937 55.6014 718.327 Q52.1003 715.685 45.7664 715.685 M59.58 709.829 Q68.683 709.829 73.1071 713.871 Q77.5631 717.913 77.5631 726.252 Q77.5631 729.34 77.0857 732.077 Q76.6401 734.814 75.6852 737.392 L69.9879 737.392 Q71.3884 734.814 72.0568 732.3 Q72.7252 729.785 72.7252 727.175 Q72.7252 721.414 69.7015 718.55 Q66.7096 715.685 60.6303 715.685 L57.7339 715.685 Q60.885 717.499 62.4446 720.332 Q64.0042 723.165 64.0042 727.112 Q64.0042 733.668 59.0071 737.679 Q54.01 741.689 45.7664 741.689 Q37.491 741.689 32.4939 737.679 Q27.4968 733.668 27.4968 727.112 Q27.4968 723.165 29.0564 720.332 Q30.616 717.499 33.7671 715.685 L28.3562 715.685 L28.3562 709.829 L59.58 709.829 Z" fill="#000000" fill-rule="evenodd" fill-opacity="1" /><path clip-path="url(#clip380)" d="M14.479 697.766 L14.479 691.909 L64.0042 691.909 L64.0042 697.766 L14.479 697.766 Z" fill="#000000" fill-rule="evenodd" fill-opacity="1" /><path clip-path="url(#clip380)" d="M44.7161 649.164 L47.5806 649.164 L47.5806 676.09 Q53.6281 675.709 56.8109 672.462 Q59.9619 669.184 59.9619 663.359 Q59.9619 659.985 59.1344 656.834 Q58.3069 653.651 56.6518 650.532 L62.1899 650.532 Q63.5267 653.683 64.227 656.993 Q64.9272 660.304 64.9272 663.709 Q64.9272 672.239 59.9619 677.236 Q54.9967 682.202 46.5303 682.202 Q37.7774 682.202 32.6531 677.491 Q27.4968 672.748 27.4968 664.728 Q27.4968 657.534 32.1438 653.365 Q36.7589 649.164 44.7161 649.164 M42.9973 655.02 Q38.1912 655.084 35.3266 657.725 Q32.4621 660.335 32.4621 664.664 Q32.4621 669.566 35.2312 672.526 Q38.0002 675.454 43.0292 675.899 L42.9973 655.02 Z" fill="#000000" fill-rule="evenodd" fill-opacity="1" /><path clip-path="url(#clip380)" d="M14.479 619.372 L14.479 605.877 L19.0304 605.877 L19.0304 613.516 L68.0464 613.516 L68.0464 605.877 L72.5979 605.877 L72.5979 619.372 L14.479 619.372 Z" fill="#000000" fill-rule="evenodd" fill-opacity="1" /><path clip-path="url(#clip380)" d="M33.8307 572.743 Q33.2578 573.73 33.0032 574.908 Q32.7167 576.053 32.7167 577.454 Q32.7167 582.419 35.9632 585.093 Q39.1779 587.734 45.2253 587.734 L64.0042 587.734 L64.0042 593.623 L28.3562 593.623 L28.3562 587.734 L33.8944 587.734 Q30.6479 585.888 29.0883 582.928 Q27.4968 579.968 27.4968 575.735 Q27.4968 575.13 27.5923 574.398 Q27.656 573.666 27.8151 572.775 L33.8307 572.743 Z" fill="#000000" fill-rule="evenodd" fill-opacity="1" /><path clip-path="url(#clip380)" d="M46.0847 550.4 Q46.0847 557.497 47.7079 560.235 Q49.3312 562.972 53.2461 562.972 Q56.3653 562.972 58.2114 560.935 Q60.0256 558.866 60.0256 555.333 Q60.0256 550.463 56.5881 547.535 Q53.1188 544.575 47.3897 544.575 L46.0847 544.575 L46.0847 550.4 M43.6657 538.719 L64.0042 538.719 L64.0042 544.575 L58.5933 544.575 Q61.8398 546.58 63.3994 549.572 Q64.9272 552.564 64.9272 556.893 Q64.9272 562.367 61.8716 565.614 Q58.7843 568.828 53.6281 568.828 Q47.6125 568.828 44.5569 564.818 Q41.5014 560.776 41.5014 552.787 L41.5014 544.575 L40.9285 544.575 Q36.8862 544.575 34.6901 547.249 Q32.4621 549.89 32.4621 554.696 Q32.4621 557.752 33.1941 560.648 Q33.9262 563.545 35.3903 566.218 L29.9795 566.218 Q28.7381 563.004 28.1334 559.98 Q27.4968 556.956 27.4968 554.092 Q27.4968 546.357 31.5072 542.538 Q35.5176 538.719 43.6657 538.719 Z" fill="#000000" fill-rule="evenodd" fill-opacity="1" /><path clip-path="url(#clip380)" d="M33.7671 503.198 L14.479 503.198 L14.479 497.341 L64.0042 497.341 L64.0042 503.198 L58.657 503.198 Q61.8398 505.044 63.3994 507.877 Q64.9272 510.678 64.9272 514.624 Q64.9272 521.086 59.771 525.16 Q54.6147 529.202 46.212 529.202 Q37.8093 529.202 32.6531 525.16 Q27.4968 521.086 27.4968 514.624 Q27.4968 510.678 29.0564 507.877 Q30.5842 505.044 33.7671 503.198 M46.212 523.154 Q52.6732 523.154 56.3653 520.513 Q60.0256 517.839 60.0256 513.192 Q60.0256 508.545 56.3653 505.871 Q52.6732 503.198 46.212 503.198 Q39.7508 503.198 36.0905 505.871 Q32.3984 508.545 32.3984 513.192 Q32.3984 517.839 36.0905 520.513 Q39.7508 523.154 46.212 523.154 Z" fill="#000000" fill-rule="evenodd" fill-opacity="1" /><path clip-path="url(#clip380)" d="M14.479 471.592 L72.5979 471.592 L72.5979 485.087 L68.0464 485.087 L68.0464 477.48 L19.0304 477.48 L19.0304 485.087 L14.479 485.087 L14.479 471.592 Z" fill="#000000" fill-rule="evenodd" fill-opacity="1" /><polyline clip-path="url(#clip382)" style="stroke:#009af9; stroke-linecap:butt; stroke-linejoin:round; stroke-width:4; stroke-opacity:1; fill:none" points="
  309.539,1384.24 309.605,1384.24 309.672,1384.24 309.804,1384.24 310.068,1384.24 310.597,1384.24 311.655,1384.24 313.771,1384.24 318.003,1384.24 326.467,1384.24 
  343.395,1384.24 375.663,1384.24 376.142,1382.93 376.622,1380.33 377.101,1376.44 378.06,1365.68 379.019,1350.3 379.977,1330.11 381.895,1276.15 383.813,1205.55 
  385.73,1120.59 387.456,1033.94 389.009,949.529 390.374,871.675 391.554,802.616 392.532,744.706 393.413,692.522 393.932,661.899 394.504,628.49 395.076,595.473 
  395.648,562.936 396.792,499.251 397.941,437.915 399.089,379.833 400.238,325.613 401.386,275.819 403.683,191.292 405.98,129.787 408.528,91.4305 411.076,86.1857 
  413.624,114.01 416.172,173.078 418.72,259.92 421.269,369.783 423.817,496.508 426.365,633.033 428.913,771.843 431.461,905.422 434.01,1026.63 436.558,1129.04 
  439.106,1207.33 441.654,1257.57 444.202,1277.41 449.299,1224.61 453.646,1092.44 457.993,903.556 461.177,746.707 464.361,588.775 467.545,442.801 470.729,320.856 
  475.27,207.384 479.811,180.337 484.352,242.147 488.893,380.647 492.979,549.88 497.066,736.325 501.153,914.485 505.24,1060.59 508.918,1148.57 512.596,1185.62 
  516.274,1168.36 519.952,1099.77 523.63,988.474 527.308,847.74 530.986,693.809 534.665,544.036 538.343,414.938 542.021,320.406 545.699,270.231 550.009,273.945 
  554.32,342.882 558.63,465.266 562.941,621.481 567.251,787.169 571.562,936.977 575.872,1048.42 580.267,1105.76 584.661,1098.51 589.055,1029.23 593.449,910.29 
  597.843,761.676 601.798,622.536 605.753,496.836 609.707,400.341 613.662,344.782 617.617,336.44 621.572,375.454 625.526,455.92 629.481,566.762 633.436,693.232 
  637.391,818.842 641.345,927.489 645.3,1005.52 649.255,1043.48 653.21,1037.25 657.164,988.504 661.119,904.388 665.074,796.447 669.028,679.041 672.588,577.914 
  676.147,491.905 679.706,429.642 683.265,397.155 686.825,397.276 690.384,429.434 693.943,489.727 697.503,571.421 701.062,665.657 704.621,762.427 708.18,851.712 
  708.309,854.666 708.567,860.479 708.825,866.197 709.082,871.816 709.598,882.811 710.113,893.418 710.629,903.59 711.659,922.485 712.69,939.364 713.721,954.097 
  714.752,966.568 716.814,984.398 718.876,992.264 720.937,989.876 722.999,977.381 725.061,955.369 727.964,910.13 730.867,851.329 733.77,783.259 736.673,710.765 
  739.576,638.854 742.479,572.561 745.382,516.406 748.285,474.147 751.188,448.34 754.091,440.61 756.994,451.281 759.898,479.448 762.801,523.216 765.704,579.309 
  768.607,643.645 771.51,711.509 774.413,778.077 777.316,838.694 780.219,889.234 782.832,923.291 785.445,944.673 788.057,952.335 790.67,946.003 793.283,926.19 
  798.508,851.578 802.838,765.267 806.152,693.445 809.466,623.945 812.78,562.893 816.094,515.721 819.409,486.478 822.723,477.576 826.037,489.517 830.32,533.381 
  834.603,602.297 838.887,685.304 843.17,769.592 847.454,842.487 851.737,893.306 856.021,914.883 860.304,904.579 864.588,864.618 868.871,801.66 873.154,725.687 
  877.438,648.405 881.721,581.436 886.005,534.583 891.068,513.921 896.131,533.778 901.194,589 906.257,667.168 911.32,751.384 916.383,823.914 921.447,869.911 
  926.51,880.446 931.573,854.236 936.13,804.491 940.231,746.196 944.332,683.558 948.433,625.28 952.534,579.299 956.635,551.733 960.736,546.004 964.837,562.436 
  968.939,598.288 973.04,648.205 977.141,705.029 982.79,779.985 986.66,820.013 990.529,845.221 994.398,852.752 998.267,842.109 1002.14,814.865 1005.23,783.598 
  1008.32,746.752 1011.42,707.307 1014.51,668.332 1017.6,632.872 1020.7,603.689 1023.79,583.005 1026.88,572.325 1029.98,572.333 1033.07,582.871 1037.61,615.154 
  1042.14,662.017 1046.68,715.263 1051.22,765.721 1055.75,804.875 1060.29,826.338 1064.37,827.899 1068.45,812.808 1071.69,790.514 1074.94,761.246 1078.18,727.621 
  1081.42,692.608 1084.66,659.268 1087.9,630.476 1092.39,602.563 1096.89,592.386 1101.38,601.146 1105.88,626.919 1110.37,665.111 1114.87,709.213 1118.91,747.906 
  1122.96,780.291 1126.55,800.253 1130.14,809.837 1133.73,808.209 1137.32,795.728 1140.91,773.899 1144.51,745.195 1148.1,712.818 1151.69,680.288 1155.28,651.069 
  1162.46,614.1 1169.64,616.511 1176.11,650.784 1181.93,696.941 1187.16,739.507 1192.4,773.291 1197.64,791.027 1202.87,789.076 1208.11,768.526 1213.34,734.666 
  1218.06,699.398 1222.77,666.309 1227.48,641.156 1232.19,628.576 1236.91,630.129 1241.62,645.924 1246.33,672.345 1250.57,700.692 1254.81,729.073 1259.06,753.589 
  1263.3,770.711 1267.54,777.94 1271.36,775.169 1275.17,764.104 1278.99,746.252 1282.81,723.883 1286.62,699.758 1290.44,676.798 1294.26,657.767 1301.89,639.649 
  1307.34,646.11 1312.78,667.155 1318.23,697.127 1323.68,728.228 1328.58,750.927 1333.48,764.054 1338.38,765.57 1343.28,755.546 1347.69,738.386 1352.1,716.429 
  1356.51,693.275 1360.92,672.655 1365.34,657.798 1371.01,650.618 1376.68,658.099 1382.36,678.08 1388.03,704.883 1393.71,731.059 1398.82,748.358 1403.92,756.169 
  1409.03,753.19 1414.14,740.324 1419.25,720.501 1424.35,698.09 1429.46,677.939 1434.57,664.289 1439.68,659.863 1444.78,665.342 1449.89,679.294 1455,698.539 
  1460.11,718.858 1465.21,735.912 1470.32,746.164 1475.98,747.199 1481.64,737.473 1487.3,719.831 1492.96,699.119 1498.62,680.835 1504.28,669.667 1509.94,668.296 
  1515.61,676.771 1521.27,692.588 1526.93,711.412 1532.59,728.254 1538.25,738.789 1543.91,740.465 1549.57,733.112 1555.23,718.923 1560.89,701.803 1566.55,686.298 
  1572.21,676.395 1577.87,674.496 1583.53,680.852 1589.19,693.556 1594.85,709.111 1600.52,723.38 1606.18,732.689 1611.84,734.764 1617.5,729.286 1623.16,717.911 
  1628.82,703.781 1634.48,690.661 1640.14,681.933 1645.8,679.735 1651.46,684.437 1657.12,694.605 1662.78,707.428 1668.44,719.488 1674.1,727.667 1679.76,729.956 
  1685.43,725.936 1691.09,716.848 1696.75,705.213 1702.41,694.137 1708.07,686.487 1713.73,684.148 1719.39,687.567 1725.05,695.677 1730.71,706.225 1736.37,716.392 
  1742.03,723.543 1747.69,725.909 1753.35,723.018 1759.01,715.784 1764.67,706.223 1770.34,696.896 1776,690.223 1781.66,687.859 1787.32,690.288 1792.98,696.731 
  1798.64,705.388 1804.3,713.941 1809.96,720.164 1815.62,722.51 1821.28,720.485 1826.94,714.75 1832.6,706.912 1838.26,699.076 1843.92,693.28 1849.58,690.972 
  1855.25,692.644 1860.91,697.741 1866.57,704.83 1872.23,712.008 1877.89,717.402 1883.55,719.662 1889.21,718.296 1894.87,713.77 1900.53,707.359 1906.19,700.79 
  1911.85,695.777 1917.51,693.577 1924.97,695.606 1931.68,701.442 1938.4,708.961 1945.11,715.358 1951.82,718.277 1958.53,716.663 1965.25,711.003 1971.96,703.11 
  1978.67,696.042 1985.39,692.664 1992.1,694.064 1997.98,698.841 2003.86,705.508 2009.74,712.41 2015.62,717.85 2021.82,720.24 2028.02,718.404 2033.6,713.527 
  2039.17,706.883 2044.75,699.954 2050.33,694.263 2056.97,691.148 2063.6,693.001 2069.58,698.508 2074.95,705.327 2080.33,712.279 2085.7,717.765 2091.05,720.526 
  2096.4,719.976 2101.75,716.252 2107.1,710.209 2112.45,703.231 2117.8,696.902 2123.15,692.714 2128.5,691.69 2133.85,694.081 2139.2,699.299 2144.55,706.067 
  2149.9,712.746 2155.25,717.679 2162.84,719.562 2170.42,715.026 2177.25,707.361 2184.08,699.462 2190.9,694.373 2197.73,693.905 2204.56,698.022 2211.38,704.97 
  2218.21,712.022 2225.04,716.524 2231.87,716.877 2238.69,713.102 2245.52,706.784 2252.35,700.415 2259.17,696.412 2266,696.195 2272.83,699.694 2279.65,705.437 
  2286.48,711.163 2293.24,714.691 
  "/>
<path clip-path="url(#clip380)" d="
M1811.85 196.789 L2282.66 196.789 L2282.66 93.1086 L1811.85 93.1086  Z
  " fill="#ffffff" fill-rule="evenodd" fill-opacity="1"/>
<polyline clip-path="url(#clip380)" style="stroke:#000000; stroke-linecap:butt; stroke-linejoin:round; stroke-width:4; stroke-opacity:1; fill:none" points="
  1811.85,196.789 2282.66,196.789 2282.66,93.1086 1811.85,93.1086 1811.85,196.789 
  "/>
<polyline clip-path="url(#clip380)" style="stroke:#009af9; stroke-linecap:butt; stroke-linejoin:round; stroke-width:4; stroke-opacity:1; fill:none" points="
  1835.22,144.949 1975.4,144.949 
  "/>
<path clip-path="url(#clip380)" d="M2017.67 148.965 Q2017.67 144.335 2015.75 141.789 Q2013.86 139.243 2010.41 139.243 Q2006.98 139.243 2005.06 141.789 Q2003.16 144.335 2003.16 148.965 Q2003.16 153.571 2005.06 156.118 Q2006.98 158.664 2010.41 158.664 Q2013.86 158.664 2015.75 156.118 Q2017.67 153.571 2017.67 148.965 M2021.93 159.011 Q2021.93 165.631 2018.99 168.849 Q2016.05 172.09 2009.99 172.09 Q2007.74 172.09 2005.75 171.742 Q2003.76 171.418 2001.89 170.724 L2001.89 166.58 Q2003.76 167.599 2005.59 168.085 Q2007.42 168.571 2009.32 168.571 Q2013.51 168.571 2015.59 166.372 Q2017.67 164.196 2017.67 159.775 L2017.67 157.668 Q2016.36 159.96 2014.3 161.094 Q2012.24 162.229 2009.36 162.229 Q2004.6 162.229 2001.68 158.594 Q1998.76 154.96 1998.76 148.965 Q1998.76 142.946 2001.68 139.312 Q2004.6 135.678 2009.36 135.678 Q2012.24 135.678 2014.3 136.812 Q2016.36 137.946 2017.67 140.238 L2017.67 136.303 L2021.93 136.303 L2021.93 159.011 Z" fill="#000000" fill-rule="evenodd" fill-opacity="1" /><path clip-path="url(#clip380)" d="M2052.88 148.201 L2052.88 150.284 L2033.3 150.284 Q2033.58 154.682 2035.94 156.997 Q2038.32 159.289 2042.56 159.289 Q2045.01 159.289 2047.3 158.687 Q2049.62 158.085 2051.89 156.881 L2051.89 160.909 Q2049.6 161.881 2047.19 162.391 Q2044.78 162.9 2042.3 162.9 Q2036.1 162.9 2032.47 159.289 Q2028.86 155.678 2028.86 149.52 Q2028.86 143.155 2032.28 139.428 Q2035.73 135.678 2041.56 135.678 Q2046.8 135.678 2049.83 139.057 Q2052.88 142.414 2052.88 148.201 M2048.62 146.951 Q2048.58 143.456 2046.66 141.372 Q2044.76 139.289 2041.61 139.289 Q2038.05 139.289 2035.89 141.303 Q2033.76 143.317 2033.44 146.974 L2048.62 146.951 Z" fill="#000000" fill-rule="evenodd" fill-opacity="1" /><path clip-path="url(#clip380)" d="M2081.42 146.581 L2081.42 162.229 L2077.17 162.229 L2077.17 146.719 Q2077.17 143.039 2075.73 141.21 Q2074.3 139.382 2071.42 139.382 Q2067.98 139.382 2065.98 141.581 Q2063.99 143.78 2063.99 147.576 L2063.99 162.229 L2059.71 162.229 L2059.71 136.303 L2063.99 136.303 L2063.99 140.331 Q2065.52 137.993 2067.58 136.835 Q2069.67 135.678 2072.37 135.678 Q2076.84 135.678 2079.13 138.456 Q2081.42 141.21 2081.42 146.581 Z" fill="#000000" fill-rule="evenodd" fill-opacity="1" /><path clip-path="url(#clip380)" d="M2087.77 147.344 L2100.24 147.344 L2100.24 151.141 L2087.77 151.141 L2087.77 147.344 Z" fill="#000000" fill-rule="evenodd" fill-opacity="1" /><path clip-path="url(#clip380)" d="M2108.44 158.293 L2116.08 158.293 L2116.08 131.928 L2107.77 133.595 L2107.77 129.335 L2116.03 127.669 L2120.71 127.669 L2120.71 158.293 L2128.35 158.293 L2128.35 162.229 L2108.44 162.229 L2108.44 158.293 Z" fill="#000000" fill-rule="evenodd" fill-opacity="1" /><path clip-path="url(#clip380)" d="M2147.79 130.747 Q2144.18 130.747 2142.35 134.312 Q2140.54 137.854 2140.54 144.983 Q2140.54 152.09 2142.35 155.655 Q2144.18 159.196 2147.79 159.196 Q2151.42 159.196 2153.23 155.655 Q2155.06 152.09 2155.06 144.983 Q2155.06 137.854 2153.23 134.312 Q2151.42 130.747 2147.79 130.747 M2147.79 127.044 Q2153.6 127.044 2156.66 131.65 Q2159.73 136.233 2159.73 144.983 Q2159.73 153.71 2156.66 158.317 Q2153.6 162.9 2147.79 162.9 Q2141.98 162.9 2138.9 158.317 Q2135.85 153.71 2135.85 144.983 Q2135.85 136.233 2138.9 131.65 Q2141.98 127.044 2147.79 127.044 Z" fill="#000000" fill-rule="evenodd" fill-opacity="1" /><path clip-path="url(#clip380)" d="M2171.98 158.293 L2188.3 158.293 L2188.3 162.229 L2166.35 162.229 L2166.35 158.293 Q2169.02 155.539 2173.6 150.909 Q2178.21 146.256 2179.39 144.914 Q2181.63 142.391 2182.51 140.655 Q2183.41 138.895 2183.41 137.206 Q2183.41 134.451 2181.47 132.715 Q2179.55 130.979 2176.45 130.979 Q2174.25 130.979 2171.79 131.743 Q2169.36 132.507 2166.59 134.057 L2166.59 129.335 Q2169.41 128.201 2171.86 127.622 Q2174.32 127.044 2176.35 127.044 Q2181.73 127.044 2184.92 129.729 Q2188.11 132.414 2188.11 136.905 Q2188.11 139.034 2187.3 140.956 Q2186.52 142.854 2184.41 145.446 Q2183.83 146.118 2180.73 149.335 Q2177.63 152.53 2171.98 158.293 Z" fill="#000000" fill-rule="evenodd" fill-opacity="1" /><path clip-path="url(#clip380)" d="M2195.36 147.344 L2207.84 147.344 L2207.84 151.141 L2195.36 151.141 L2195.36 147.344 Z" fill="#000000" fill-rule="evenodd" fill-opacity="1" /><path clip-path="url(#clip380)" d="M2216.03 158.293 L2223.67 158.293 L2223.67 131.928 L2215.36 133.595 L2215.36 129.335 L2223.62 127.669 L2228.3 127.669 L2228.3 158.293 L2235.94 158.293 L2235.94 162.229 L2216.03 162.229 L2216.03 158.293 Z" fill="#000000" fill-rule="evenodd" fill-opacity="1" /></svg>
