<?xml version="1.0" encoding="utf-8"?>
<svg xmlns="http://www.w3.org/2000/svg" xmlns:xlink="http://www.w3.org/1999/xlink" width="600" height="400" viewBox="0 0 2400 1600">
<defs>
  <clipPath id="clip670">
    <rect x="0" y="0" width="2400" height="1600"/>
  </clipPath>
</defs>
<path clip-path="url(#clip670)" d="
M0 1600 L2400 1600 L2400 0 L0 0  Z
  " fill="#ffffff" fill-rule="evenodd" fill-opacity="1"/>
<defs>
  <clipPath id="clip671">
    <rect x="480" y="0" width="1681" height="1600"/>
  </clipPath>
</defs>
<path clip-path="url(#clip670)" d="
M238.292 1423.18 L2352.76 1423.18 L2352.76 47.2441 L238.292 47.2441  Z
  " fill="#ffffff" fill-rule="evenodd" fill-opacity="1"/>
<defs>
  <clipPath id="clip672">
    <rect x="238" y="47" width="2115" height="1377"/>
  </clipPath>
</defs>
<polyline clip-path="url(#clip672)" style="stroke:#000000; stroke-width:2; stroke-opacity:0.1; fill:none" points="
  298.135,1423.18 298.135,47.2441 
  "/>
<polyline clip-path="url(#clip672)" style="stroke:#000000; stroke-width:2; stroke-opacity:0.1; fill:none" points="
  963.061,1423.18 963.061,47.2441 
  "/>
<polyline clip-path="url(#clip672)" style="stroke:#000000; stroke-width:2; stroke-opacity:0.1; fill:none" points="
  1627.99,1423.18 1627.99,47.2441 
  "/>
<polyline clip-path="url(#clip672)" style="stroke:#000000; stroke-width:2; stroke-opacity:0.1; fill:none" points="
  2292.91,1423.18 2292.91,47.2441 
  "/>
<polyline clip-path="url(#clip670)" style="stroke:#000000; stroke-width:4; stroke-opacity:1; fill:none" points="
  238.292,1423.18 2352.76,1423.18 
  "/>
<polyline clip-path="url(#clip670)" style="stroke:#000000; stroke-width:4; stroke-opacity:1; fill:none" points="
  298.135,1423.18 298.135,1406.67 
  "/>
<polyline clip-path="url(#clip670)" style="stroke:#000000; stroke-width:4; stroke-opacity:1; fill:none" points="
  963.061,1423.18 963.061,1406.67 
  "/>
<polyline clip-path="url(#clip670)" style="stroke:#000000; stroke-width:4; stroke-opacity:1; fill:none" points="
  1627.99,1423.18 1627.99,1406.67 
  "/>
<polyline clip-path="url(#clip670)" style="stroke:#000000; stroke-width:4; stroke-opacity:1; fill:none" points="
  2292.91,1423.18 2292.91,1406.67 
  "/>
<path clip-path="url(#clip670)" d="M 0 0 M298.135 1452.37 Q294.524 1452.37 292.696 1455.94 Q290.89 1459.48 290.89 1466.61 Q290.89 1473.71 292.696 1477.28 Q294.524 1480.82 298.135 1480.82 Q301.77 1480.82 303.575 1477.28 Q305.404 1473.71 305.404 1466.61 Q305.404 1459.48 303.575 1455.94 Q301.77 1452.37 298.135 1452.37 M298.135 1448.67 Q303.946 1448.67 307.001 1453.27 Q310.08 1457.86 310.08 1466.61 Q310.08 1475.33 307.001 1479.94 Q303.946 1484.52 298.135 1484.52 Q292.325 1484.52 289.247 1479.94 Q286.191 1475.33 286.191 1466.61 Q286.191 1457.86 289.247 1453.27 Q292.325 1448.67 298.135 1448.67 Z" fill="#000000" fill-rule="evenodd" fill-opacity="1" /><path clip-path="url(#clip670)" d="M 0 0 M939.936 1479.92 L947.575 1479.92 L947.575 1453.55 L939.265 1455.22 L939.265 1450.96 L947.529 1449.29 L952.205 1449.29 L952.205 1479.92 L959.844 1479.92 L959.844 1483.85 L939.936 1483.85 L939.936 1479.92 Z" fill="#000000" fill-rule="evenodd" fill-opacity="1" /><path clip-path="url(#clip670)" d="M 0 0 M974.913 1452.37 Q971.302 1452.37 969.473 1455.94 Q967.668 1459.48 967.668 1466.61 Q967.668 1473.71 969.473 1477.28 Q971.302 1480.82 974.913 1480.82 Q978.547 1480.82 980.353 1477.28 Q982.181 1473.71 982.181 1466.61 Q982.181 1459.48 980.353 1455.94 Q978.547 1452.37 974.913 1452.37 M974.913 1448.67 Q980.723 1448.67 983.779 1453.27 Q986.857 1457.86 986.857 1466.61 Q986.857 1475.33 983.779 1479.94 Q980.723 1484.52 974.913 1484.52 Q969.103 1484.52 966.024 1479.94 Q962.969 1475.33 962.969 1466.61 Q962.969 1457.86 966.024 1453.27 Q969.103 1448.67 974.913 1448.67 Z" fill="#000000" fill-rule="evenodd" fill-opacity="1" /><path clip-path="url(#clip670)" d="M 0 0 M1609.13 1479.92 L1625.45 1479.92 L1625.45 1483.85 L1603.51 1483.85 L1603.51 1479.92 Q1606.17 1477.16 1610.75 1472.53 Q1615.36 1467.88 1616.54 1466.54 Q1618.79 1464.01 1619.67 1462.28 Q1620.57 1460.52 1620.57 1458.83 Q1620.57 1456.07 1618.62 1454.34 Q1616.7 1452.6 1613.6 1452.6 Q1611.4 1452.6 1608.95 1453.37 Q1606.52 1454.13 1603.74 1455.68 L1603.74 1450.96 Q1606.56 1449.82 1609.02 1449.25 Q1611.47 1448.67 1613.51 1448.67 Q1618.88 1448.67 1622.07 1451.35 Q1625.27 1454.04 1625.27 1458.53 Q1625.27 1460.66 1624.46 1462.58 Q1623.67 1464.48 1621.56 1467.07 Q1620.98 1467.74 1617.88 1470.96 Q1614.78 1474.15 1609.13 1479.92 Z" fill="#000000" fill-rule="evenodd" fill-opacity="1" /><path clip-path="url(#clip670)" d="M 0 0 M1640.52 1452.37 Q1636.91 1452.37 1635.08 1455.94 Q1633.28 1459.48 1633.28 1466.61 Q1633.28 1473.71 1635.08 1477.28 Q1636.91 1480.82 1640.52 1480.82 Q1644.16 1480.82 1645.96 1477.28 Q1647.79 1473.71 1647.79 1466.61 Q1647.79 1459.48 1645.96 1455.94 Q1644.16 1452.37 1640.52 1452.37 M1640.52 1448.67 Q1646.33 1448.67 1649.39 1453.27 Q1652.47 1457.86 1652.47 1466.61 Q1652.47 1475.33 1649.39 1479.94 Q1646.33 1484.52 1640.52 1484.52 Q1634.71 1484.52 1631.63 1479.94 Q1628.58 1475.33 1628.58 1466.61 Q1628.58 1457.86 1631.63 1453.27 Q1634.71 1448.67 1640.52 1448.67 Z" fill="#000000" fill-rule="evenodd" fill-opacity="1" /><path clip-path="url(#clip670)" d="M 0 0 M2283.65 1465.22 Q2287.01 1465.94 2288.88 1468.2 Q2290.78 1470.47 2290.78 1473.81 Q2290.78 1478.92 2287.26 1481.72 Q2283.75 1484.52 2277.26 1484.52 Q2275.09 1484.52 2272.77 1484.08 Q2270.48 1483.67 2268.03 1482.81 L2268.03 1478.3 Q2269.97 1479.43 2272.29 1480.01 Q2274.6 1480.59 2277.13 1480.59 Q2281.52 1480.59 2283.82 1478.85 Q2286.13 1477.12 2286.13 1473.81 Q2286.13 1470.75 2283.98 1469.04 Q2281.85 1467.3 2278.03 1467.3 L2274 1467.3 L2274 1463.46 L2278.21 1463.46 Q2281.66 1463.46 2283.49 1462.09 Q2285.32 1460.7 2285.32 1458.11 Q2285.32 1455.45 2283.42 1454.04 Q2281.55 1452.6 2278.03 1452.6 Q2276.11 1452.6 2273.91 1453.02 Q2271.71 1453.44 2269.07 1454.31 L2269.07 1450.15 Q2271.73 1449.41 2274.05 1449.04 Q2276.38 1448.67 2278.45 1448.67 Q2283.77 1448.67 2286.87 1451.1 Q2289.97 1453.5 2289.97 1457.63 Q2289.97 1460.5 2288.33 1462.49 Q2286.69 1464.45 2283.65 1465.22 Z" fill="#000000" fill-rule="evenodd" fill-opacity="1" /><path clip-path="url(#clip670)" d="M 0 0 M2305.85 1452.37 Q2302.24 1452.37 2300.41 1455.94 Q2298.61 1459.48 2298.61 1466.61 Q2298.61 1473.71 2300.41 1477.28 Q2302.24 1480.82 2305.85 1480.82 Q2309.49 1480.82 2311.29 1477.28 Q2313.12 1473.71 2313.12 1466.61 Q2313.12 1459.48 2311.29 1455.94 Q2309.49 1452.37 2305.85 1452.37 M2305.85 1448.67 Q2311.66 1448.67 2314.72 1453.27 Q2317.8 1457.86 2317.8 1466.61 Q2317.8 1475.33 2314.72 1479.94 Q2311.66 1484.52 2305.85 1484.52 Q2300.04 1484.52 2296.96 1479.94 Q2293.91 1475.33 2293.91 1466.61 Q2293.91 1457.86 2296.96 1453.27 Q2300.04 1448.67 2305.85 1448.67 Z" fill="#000000" fill-rule="evenodd" fill-opacity="1" /><path clip-path="url(#clip670)" d="M 0 0 M1241.29 1510.27 L1241.29 1520.4 L1253.35 1520.4 L1253.35 1524.95 L1241.29 1524.95 L1241.29 1544.3 Q1241.29 1548.66 1242.47 1549.9 Q1243.68 1551.14 1247.34 1551.14 L1253.35 1551.14 L1253.35 1556.04 L1247.34 1556.04 Q1240.56 1556.04 1237.98 1553.53 Q1235.4 1550.98 1235.4 1544.3 L1235.4 1524.95 L1231.1 1524.95 L1231.1 1520.4 L1235.4 1520.4 L1235.4 1510.27 L1241.29 1510.27 Z" fill="#000000" fill-rule="evenodd" fill-opacity="1" /><path clip-path="url(#clip670)" d="M 0 0 M1259.49 1520.4 L1265.35 1520.4 L1265.35 1556.04 L1259.49 1556.04 L1259.49 1520.4 M1259.49 1506.52 L1265.35 1506.52 L1265.35 1513.93 L1259.49 1513.93 L1259.49 1506.52 Z" fill="#000000" fill-rule="evenodd" fill-opacity="1" /><path clip-path="url(#clip670)" d="M 0 0 M1299.25 1527.24 Q1301.44 1523.29 1304.5 1521.41 Q1307.56 1519.54 1311.69 1519.54 Q1317.26 1519.54 1320.29 1523.45 Q1323.31 1527.33 1323.31 1534.53 L1323.31 1556.04 L1317.42 1556.04 L1317.42 1534.72 Q1317.42 1529.59 1315.61 1527.11 Q1313.79 1524.63 1310.07 1524.63 Q1305.52 1524.63 1302.88 1527.65 Q1300.23 1530.68 1300.23 1535.9 L1300.23 1556.04 L1294.35 1556.04 L1294.35 1534.72 Q1294.35 1529.56 1292.53 1527.11 Q1290.72 1524.63 1286.93 1524.63 Q1282.44 1524.63 1279.8 1527.68 Q1277.16 1530.71 1277.16 1535.9 L1277.16 1556.04 L1271.27 1556.04 L1271.27 1520.4 L1277.16 1520.4 L1277.16 1525.93 Q1279.16 1522.66 1281.97 1521.1 Q1284.77 1519.54 1288.62 1519.54 Q1292.5 1519.54 1295.21 1521.51 Q1297.94 1523.48 1299.25 1527.24 Z" fill="#000000" fill-rule="evenodd" fill-opacity="1" /><path clip-path="url(#clip670)" d="M 0 0 M1359.94 1536.76 L1359.94 1539.62 L1333.02 1539.62 Q1333.4 1545.67 1336.65 1548.85 Q1339.92 1552 1345.75 1552 Q1349.12 1552 1352.27 1551.17 Q1355.46 1550.35 1358.58 1548.69 L1358.58 1554.23 Q1355.43 1555.57 1352.12 1556.27 Q1348.8 1556.97 1345.4 1556.97 Q1336.87 1556.97 1331.87 1552 Q1326.91 1547.04 1326.91 1538.57 Q1326.91 1529.82 1331.62 1524.69 Q1336.36 1519.54 1344.38 1519.54 Q1351.57 1519.54 1355.74 1524.18 Q1359.94 1528.8 1359.94 1536.76 M1354.09 1535.04 Q1354.02 1530.23 1351.38 1527.37 Q1348.77 1524.5 1344.44 1524.5 Q1339.54 1524.5 1336.58 1527.27 Q1333.65 1530.04 1333.21 1535.07 L1354.09 1535.04 Z" fill="#000000" fill-rule="evenodd" fill-opacity="1" /><polyline clip-path="url(#clip672)" style="stroke:#000000; stroke-width:2; stroke-opacity:0.1; fill:none" points="
  238.292,1382.5 2352.76,1382.5 
  "/>
<polyline clip-path="url(#clip672)" style="stroke:#000000; stroke-width:2; stroke-opacity:0.1; fill:none" points="
  238.292,1162.06 2352.76,1162.06 
  "/>
<polyline clip-path="url(#clip672)" style="stroke:#000000; stroke-width:2; stroke-opacity:0.1; fill:none" points="
  238.292,941.632 2352.76,941.632 
  "/>
<polyline clip-path="url(#clip672)" style="stroke:#000000; stroke-width:2; stroke-opacity:0.1; fill:none" points="
  238.292,721.199 2352.76,721.199 
  "/>
<polyline clip-path="url(#clip672)" style="stroke:#000000; stroke-width:2; stroke-opacity:0.1; fill:none" points="
  238.292,500.767 2352.76,500.767 
  "/>
<polyline clip-path="url(#clip672)" style="stroke:#000000; stroke-width:2; stroke-opacity:0.1; fill:none" points="
  238.292,280.335 2352.76,280.335 
  "/>
<polyline clip-path="url(#clip672)" style="stroke:#000000; stroke-width:2; stroke-opacity:0.1; fill:none" points="
  238.292,59.9032 2352.76,59.9032 
  "/>
<polyline clip-path="url(#clip670)" style="stroke:#000000; stroke-width:4; stroke-opacity:1; fill:none" points="
  238.292,1423.18 238.292,47.2441 
  "/>
<polyline clip-path="url(#clip670)" style="stroke:#000000; stroke-width:4; stroke-opacity:1; fill:none" points="
  238.292,1382.5 263.666,1382.5 
  "/>
<polyline clip-path="url(#clip670)" style="stroke:#000000; stroke-width:4; stroke-opacity:1; fill:none" points="
  238.292,1162.06 263.666,1162.06 
  "/>
<polyline clip-path="url(#clip670)" style="stroke:#000000; stroke-width:4; stroke-opacity:1; fill:none" points="
  238.292,941.632 263.666,941.632 
  "/>
<polyline clip-path="url(#clip670)" style="stroke:#000000; stroke-width:4; stroke-opacity:1; fill:none" points="
  238.292,721.199 263.666,721.199 
  "/>
<polyline clip-path="url(#clip670)" style="stroke:#000000; stroke-width:4; stroke-opacity:1; fill:none" points="
  238.292,500.767 263.666,500.767 
  "/>
<polyline clip-path="url(#clip670)" style="stroke:#000000; stroke-width:4; stroke-opacity:1; fill:none" points="
  238.292,280.335 263.666,280.335 
  "/>
<polyline clip-path="url(#clip670)" style="stroke:#000000; stroke-width:4; stroke-opacity:1; fill:none" points="
  238.292,59.9032 263.666,59.9032 
  "/>
<path clip-path="url(#clip670)" d="M 0 0 M126.876 1368.29 Q123.265 1368.29 121.436 1371.86 Q119.63 1375.4 119.63 1382.53 Q119.63 1389.64 121.436 1393.2 Q123.265 1396.74 126.876 1396.74 Q130.51 1396.74 132.316 1393.2 Q134.144 1389.64 134.144 1382.53 Q134.144 1375.4 132.316 1371.86 Q130.51 1368.29 126.876 1368.29 M126.876 1364.59 Q132.686 1364.59 135.742 1369.2 Q138.82 1373.78 138.82 1382.53 Q138.82 1391.26 135.742 1395.86 Q132.686 1400.45 126.876 1400.45 Q121.066 1400.45 117.987 1395.86 Q114.931 1391.26 114.931 1382.53 Q114.931 1373.78 117.987 1369.2 Q121.066 1364.59 126.876 1364.59 Z" fill="#000000" fill-rule="evenodd" fill-opacity="1" /><path clip-path="url(#clip670)" d="M 0 0 M143.89 1393.9 L148.774 1393.9 L148.774 1399.78 L143.89 1399.78 L143.89 1393.9 Z" fill="#000000" fill-rule="evenodd" fill-opacity="1" /><path clip-path="url(#clip670)" d="M 0 0 M153.89 1365.22 L172.246 1365.22 L172.246 1369.15 L158.172 1369.15 L158.172 1377.62 Q159.19 1377.28 160.209 1377.11 Q161.227 1376.93 162.246 1376.93 Q168.033 1376.93 171.413 1380.1 Q174.792 1383.27 174.792 1388.69 Q174.792 1394.27 171.32 1397.37 Q167.848 1400.45 161.528 1400.45 Q159.353 1400.45 157.084 1400.08 Q154.839 1399.71 152.431 1398.97 L152.431 1394.27 Q154.515 1395.4 156.737 1395.96 Q158.959 1396.51 161.436 1396.51 Q165.44 1396.51 167.778 1394.41 Q170.116 1392.3 170.116 1388.69 Q170.116 1385.08 167.778 1382.97 Q165.44 1380.86 161.436 1380.86 Q159.561 1380.86 157.686 1381.28 Q155.834 1381.7 153.89 1382.58 L153.89 1365.22 Z" fill="#000000" fill-rule="evenodd" fill-opacity="1" /><path clip-path="url(#clip670)" d="M 0 0 M192.709 1369.29 L180.903 1387.74 L192.709 1387.74 L192.709 1369.29 M191.482 1365.22 L197.362 1365.22 L197.362 1387.74 L202.292 1387.74 L202.292 1391.63 L197.362 1391.63 L197.362 1399.78 L192.709 1399.78 L192.709 1391.63 L177.107 1391.63 L177.107 1387.11 L191.482 1365.22 Z" fill="#000000" fill-rule="evenodd" fill-opacity="1" /><path clip-path="url(#clip670)" d="M 0 0 M128.357 1147.86 Q124.746 1147.86 122.918 1151.43 Q121.112 1154.97 121.112 1162.1 Q121.112 1169.2 122.918 1172.77 Q124.746 1176.31 128.357 1176.31 Q131.992 1176.31 133.797 1172.77 Q135.626 1169.2 135.626 1162.1 Q135.626 1154.97 133.797 1151.43 Q131.992 1147.86 128.357 1147.86 M128.357 1144.16 Q134.167 1144.16 137.223 1148.77 Q140.302 1153.35 140.302 1162.1 Q140.302 1170.83 137.223 1175.43 Q134.167 1180.01 128.357 1180.01 Q122.547 1180.01 119.468 1175.43 Q116.413 1170.83 116.413 1162.1 Q116.413 1153.35 119.468 1148.77 Q122.547 1144.16 128.357 1144.16 Z" fill="#000000" fill-rule="evenodd" fill-opacity="1" /><path clip-path="url(#clip670)" d="M 0 0 M145.371 1173.46 L150.255 1173.46 L150.255 1179.34 L145.371 1179.34 L145.371 1173.46 Z" fill="#000000" fill-rule="evenodd" fill-opacity="1" /><path clip-path="url(#clip670)" d="M 0 0 M155.371 1144.78 L173.727 1144.78 L173.727 1148.72 L159.653 1148.72 L159.653 1157.19 Q160.672 1156.84 161.69 1156.68 Q162.709 1156.5 163.727 1156.5 Q169.514 1156.5 172.894 1159.67 Q176.274 1162.84 176.274 1168.26 Q176.274 1173.83 172.802 1176.94 Q169.329 1180.01 163.01 1180.01 Q160.834 1180.01 158.565 1179.64 Q156.32 1179.27 153.913 1178.53 L153.913 1173.83 Q155.996 1174.97 158.218 1175.52 Q160.44 1176.08 162.917 1176.08 Q166.922 1176.08 169.26 1173.97 Q171.598 1171.87 171.598 1168.26 Q171.598 1164.64 169.26 1162.54 Q166.922 1160.43 162.917 1160.43 Q161.042 1160.43 159.167 1160.85 Q157.315 1161.27 155.371 1162.14 L155.371 1144.78 Z" fill="#000000" fill-rule="evenodd" fill-opacity="1" /><path clip-path="url(#clip670)" d="M 0 0 M181.389 1144.78 L199.746 1144.78 L199.746 1148.72 L185.672 1148.72 L185.672 1157.19 Q186.69 1156.84 187.709 1156.68 Q188.727 1156.5 189.746 1156.5 Q195.533 1156.5 198.912 1159.67 Q202.292 1162.84 202.292 1168.26 Q202.292 1173.83 198.82 1176.94 Q195.348 1180.01 189.028 1180.01 Q186.852 1180.01 184.584 1179.64 Q182.338 1179.27 179.931 1178.53 L179.931 1173.83 Q182.014 1174.97 184.237 1175.52 Q186.459 1176.08 188.936 1176.08 Q192.94 1176.08 195.278 1173.97 Q197.616 1171.87 197.616 1168.26 Q197.616 1164.64 195.278 1162.54 Q192.94 1160.43 188.936 1160.43 Q187.061 1160.43 185.186 1160.85 Q183.334 1161.27 181.389 1162.14 L181.389 1144.78 Z" fill="#000000" fill-rule="evenodd" fill-opacity="1" /><path clip-path="url(#clip670)" d="M 0 0 M127.2 927.43 Q123.589 927.43 121.76 930.995 Q119.955 934.537 119.955 941.666 Q119.955 948.773 121.76 952.338 Q123.589 955.879 127.2 955.879 Q130.834 955.879 132.64 952.338 Q134.468 948.773 134.468 941.666 Q134.468 934.537 132.64 930.995 Q130.834 927.43 127.2 927.43 M127.2 923.727 Q133.01 923.727 136.066 928.333 Q139.144 932.916 139.144 941.666 Q139.144 950.393 136.066 955 Q133.01 959.583 127.2 959.583 Q121.39 959.583 118.311 955 Q115.256 950.393 115.256 941.666 Q115.256 932.916 118.311 928.333 Q121.39 923.727 127.2 923.727 Z" fill="#000000" fill-rule="evenodd" fill-opacity="1" /><path clip-path="url(#clip670)" d="M 0 0 M144.214 953.032 L149.098 953.032 L149.098 958.912 L144.214 958.912 L144.214 953.032 Z" fill="#000000" fill-rule="evenodd" fill-opacity="1" /><path clip-path="url(#clip670)" d="M 0 0 M154.214 924.352 L172.57 924.352 L172.57 928.287 L158.496 928.287 L158.496 936.759 Q159.515 936.412 160.533 936.25 Q161.552 936.064 162.57 936.064 Q168.357 936.064 171.737 939.236 Q175.116 942.407 175.116 947.824 Q175.116 953.402 171.644 956.504 Q168.172 959.583 161.852 959.583 Q159.677 959.583 157.408 959.212 Q155.163 958.842 152.755 958.101 L152.755 953.402 Q154.839 954.537 157.061 955.092 Q159.283 955.648 161.76 955.648 Q165.765 955.648 168.102 953.541 Q170.44 951.435 170.44 947.824 Q170.44 944.213 168.102 942.106 Q165.765 940 161.76 940 Q159.885 940 158.01 940.416 Q156.158 940.833 154.214 941.713 L154.214 924.352 Z" fill="#000000" fill-rule="evenodd" fill-opacity="1" /><path clip-path="url(#clip670)" d="M 0 0 M190.764 939.768 Q187.616 939.768 185.764 941.921 Q183.936 944.074 183.936 947.824 Q183.936 951.55 185.764 953.726 Q187.616 955.879 190.764 955.879 Q193.913 955.879 195.741 953.726 Q197.593 951.55 197.593 947.824 Q197.593 944.074 195.741 941.921 Q193.913 939.768 190.764 939.768 M200.047 925.115 L200.047 929.375 Q198.287 928.541 196.482 928.102 Q194.7 927.662 192.94 927.662 Q188.311 927.662 185.857 930.787 Q183.426 933.912 183.079 940.231 Q184.445 938.217 186.505 937.152 Q188.565 936.064 191.042 936.064 Q196.25 936.064 199.26 939.236 Q202.292 942.384 202.292 947.824 Q202.292 953.148 199.144 956.365 Q195.996 959.583 190.764 959.583 Q184.769 959.583 181.598 955 Q178.426 950.393 178.426 941.666 Q178.426 933.472 182.315 928.611 Q186.204 923.727 192.755 923.727 Q194.514 923.727 196.297 924.074 Q198.102 924.421 200.047 925.115 Z" fill="#000000" fill-rule="evenodd" fill-opacity="1" /><path clip-path="url(#clip670)" d="M 0 0 M128.265 706.998 Q124.654 706.998 122.825 710.563 Q121.019 714.105 121.019 721.234 Q121.019 728.341 122.825 731.905 Q124.654 735.447 128.265 735.447 Q131.899 735.447 133.704 731.905 Q135.533 728.341 135.533 721.234 Q135.533 714.105 133.704 710.563 Q131.899 706.998 128.265 706.998 M128.265 703.294 Q134.075 703.294 137.13 707.901 Q140.209 712.484 140.209 721.234 Q140.209 729.961 137.13 734.567 Q134.075 739.151 128.265 739.151 Q122.455 739.151 119.376 734.567 Q116.32 729.961 116.32 721.234 Q116.32 712.484 119.376 707.901 Q122.455 703.294 128.265 703.294 Z" fill="#000000" fill-rule="evenodd" fill-opacity="1" /><path clip-path="url(#clip670)" d="M 0 0 M145.279 732.6 L150.163 732.6 L150.163 738.479 L145.279 738.479 L145.279 732.6 Z" fill="#000000" fill-rule="evenodd" fill-opacity="1" /><path clip-path="url(#clip670)" d="M 0 0 M155.278 703.919 L173.635 703.919 L173.635 707.855 L159.561 707.855 L159.561 716.327 Q160.579 715.98 161.598 715.818 Q162.616 715.632 163.635 715.632 Q169.422 715.632 172.802 718.804 Q176.181 721.975 176.181 727.392 Q176.181 732.97 172.709 736.072 Q169.237 739.151 162.917 739.151 Q160.741 739.151 158.473 738.78 Q156.228 738.41 153.82 737.669 L153.82 732.97 Q155.903 734.104 158.126 734.66 Q160.348 735.216 162.825 735.216 Q166.829 735.216 169.167 733.109 Q171.505 731.003 171.505 727.392 Q171.505 723.78 169.167 721.674 Q166.829 719.568 162.825 719.568 Q160.95 719.568 159.075 719.984 Q157.223 720.401 155.278 721.28 L155.278 703.919 Z" fill="#000000" fill-rule="evenodd" fill-opacity="1" /><path clip-path="url(#clip670)" d="M 0 0 M180.07 703.919 L202.292 703.919 L202.292 705.91 L189.746 738.479 L184.862 738.479 L196.667 707.855 L180.07 707.855 L180.07 703.919 Z" fill="#000000" fill-rule="evenodd" fill-opacity="1" /><path clip-path="url(#clip670)" d="M 0 0 M127.455 486.566 Q123.843 486.566 122.015 490.131 Q120.209 493.673 120.209 500.802 Q120.209 507.909 122.015 511.473 Q123.843 515.015 127.455 515.015 Q131.089 515.015 132.894 511.473 Q134.723 507.909 134.723 500.802 Q134.723 493.673 132.894 490.131 Q131.089 486.566 127.455 486.566 M127.455 482.862 Q133.265 482.862 136.32 487.469 Q139.399 492.052 139.399 500.802 Q139.399 509.529 136.32 514.135 Q133.265 518.719 127.455 518.719 Q121.644 518.719 118.566 514.135 Q115.51 509.529 115.51 500.802 Q115.51 492.052 118.566 487.469 Q121.644 482.862 127.455 482.862 Z" fill="#000000" fill-rule="evenodd" fill-opacity="1" /><path clip-path="url(#clip670)" d="M 0 0 M144.468 512.168 L149.353 512.168 L149.353 518.047 L144.468 518.047 L144.468 512.168 Z" fill="#000000" fill-rule="evenodd" fill-opacity="1" /><path clip-path="url(#clip670)" d="M 0 0 M154.468 483.487 L172.825 483.487 L172.825 487.423 L158.751 487.423 L158.751 495.895 Q159.769 495.548 160.788 495.385 Q161.806 495.2 162.825 495.2 Q168.612 495.2 171.991 498.372 Q175.371 501.543 175.371 506.959 Q175.371 512.538 171.899 515.64 Q168.427 518.719 162.107 518.719 Q159.931 518.719 157.663 518.348 Q155.417 517.978 153.01 517.237 L153.01 512.538 Q155.093 513.672 157.315 514.228 Q159.538 514.784 162.015 514.784 Q166.019 514.784 168.357 512.677 Q170.695 510.571 170.695 506.959 Q170.695 503.348 168.357 501.242 Q166.019 499.135 162.015 499.135 Q160.14 499.135 158.265 499.552 Q156.413 499.969 154.468 500.848 L154.468 483.487 Z" fill="#000000" fill-rule="evenodd" fill-opacity="1" /><path clip-path="url(#clip670)" d="M 0 0 M190.44 501.635 Q187.107 501.635 185.186 503.418 Q183.288 505.2 183.288 508.325 Q183.288 511.45 185.186 513.233 Q187.107 515.015 190.44 515.015 Q193.774 515.015 195.695 513.233 Q197.616 511.427 197.616 508.325 Q197.616 505.2 195.695 503.418 Q193.797 501.635 190.44 501.635 M185.764 499.645 Q182.755 498.904 181.065 496.844 Q179.399 494.784 179.399 491.821 Q179.399 487.677 182.338 485.27 Q185.301 482.862 190.44 482.862 Q195.602 482.862 198.542 485.27 Q201.482 487.677 201.482 491.821 Q201.482 494.784 199.792 496.844 Q198.125 498.904 195.139 499.645 Q198.519 500.432 200.394 502.723 Q202.292 505.015 202.292 508.325 Q202.292 513.348 199.213 516.034 Q196.158 518.719 190.44 518.719 Q184.723 518.719 181.644 516.034 Q178.589 513.348 178.589 508.325 Q178.589 505.015 180.487 502.723 Q182.385 500.432 185.764 499.645 M184.051 492.26 Q184.051 494.946 185.718 496.45 Q187.408 497.955 190.44 497.955 Q193.45 497.955 195.139 496.45 Q196.852 494.946 196.852 492.26 Q196.852 489.575 195.139 488.071 Q193.45 486.566 190.44 486.566 Q187.408 486.566 185.718 488.071 Q184.051 489.575 184.051 492.26 Z" fill="#000000" fill-rule="evenodd" fill-opacity="1" /><path clip-path="url(#clip670)" d="M 0 0 M127.547 266.134 Q123.936 266.134 122.107 269.699 Q120.302 273.24 120.302 280.37 Q120.302 287.476 122.107 291.041 Q123.936 294.583 127.547 294.583 Q131.181 294.583 132.987 291.041 Q134.816 287.476 134.816 280.37 Q134.816 273.24 132.987 269.699 Q131.181 266.134 127.547 266.134 M127.547 262.43 Q133.357 262.43 136.413 267.037 Q139.492 271.62 139.492 280.37 Q139.492 289.097 136.413 293.703 Q133.357 298.287 127.547 298.287 Q121.737 298.287 118.658 293.703 Q115.603 289.097 115.603 280.37 Q115.603 271.62 118.658 267.037 Q121.737 262.43 127.547 262.43 Z" fill="#000000" fill-rule="evenodd" fill-opacity="1" /><path clip-path="url(#clip670)" d="M 0 0 M144.561 291.736 L149.445 291.736 L149.445 297.615 L144.561 297.615 L144.561 291.736 Z" fill="#000000" fill-rule="evenodd" fill-opacity="1" /><path clip-path="url(#clip670)" d="M 0 0 M154.561 263.055 L172.917 263.055 L172.917 266.99 L158.843 266.99 L158.843 275.463 Q159.862 275.115 160.88 274.953 Q161.899 274.768 162.917 274.768 Q168.704 274.768 172.084 277.939 Q175.464 281.111 175.464 286.527 Q175.464 292.106 171.991 295.208 Q168.519 298.287 162.2 298.287 Q160.024 298.287 157.755 297.916 Q155.51 297.546 153.103 296.805 L153.103 292.106 Q155.186 293.24 157.408 293.796 Q159.63 294.351 162.107 294.351 Q166.112 294.351 168.45 292.245 Q170.788 290.138 170.788 286.527 Q170.788 282.916 168.45 280.81 Q166.112 278.703 162.107 278.703 Q160.232 278.703 158.357 279.12 Q156.505 279.537 154.561 280.416 L154.561 263.055 Z" fill="#000000" fill-rule="evenodd" fill-opacity="1" /><path clip-path="url(#clip670)" d="M 0 0 M180.672 296.898 L180.672 292.638 Q182.431 293.472 184.237 293.912 Q186.042 294.351 187.778 294.351 Q192.408 294.351 194.838 291.25 Q197.292 288.125 197.639 281.782 Q196.297 283.773 194.237 284.838 Q192.176 285.902 189.676 285.902 Q184.491 285.902 181.459 282.777 Q178.45 279.629 178.45 274.189 Q178.45 268.865 181.598 265.648 Q184.746 262.43 189.977 262.43 Q195.973 262.43 199.121 267.037 Q202.292 271.62 202.292 280.37 Q202.292 288.541 198.403 293.426 Q194.538 298.287 187.987 298.287 Q186.227 298.287 184.422 297.939 Q182.616 297.592 180.672 296.898 M189.977 282.245 Q193.125 282.245 194.954 280.092 Q196.806 277.939 196.806 274.189 Q196.806 270.463 194.954 268.31 Q193.125 266.134 189.977 266.134 Q186.829 266.134 184.977 268.31 Q183.149 270.463 183.149 274.189 Q183.149 277.939 184.977 280.092 Q186.829 282.245 189.977 282.245 Z" fill="#000000" fill-rule="evenodd" fill-opacity="1" /><path clip-path="url(#clip670)" d="M 0 0 M126.205 45.7019 Q122.593 45.7019 120.765 49.2667 Q118.959 52.8083 118.959 59.9379 Q118.959 67.0444 120.765 70.6092 Q122.593 74.1508 126.205 74.1508 Q129.839 74.1508 131.644 70.6092 Q133.473 67.0444 133.473 59.9379 Q133.473 52.8083 131.644 49.2667 Q129.839 45.7019 126.205 45.7019 M126.205 41.9982 Q132.015 41.9982 135.07 46.6047 Q138.149 51.188 138.149 59.9379 Q138.149 68.6647 135.07 73.2712 Q132.015 77.8545 126.205 77.8545 Q120.394 77.8545 117.316 73.2712 Q114.26 68.6647 114.26 59.9379 Q114.26 51.188 117.316 46.6047 Q120.394 41.9982 126.205 41.9982 Z" fill="#000000" fill-rule="evenodd" fill-opacity="1" /><path clip-path="url(#clip670)" d="M 0 0 M143.218 71.3036 L148.103 71.3036 L148.103 77.1832 L143.218 77.1832 L143.218 71.3036 Z" fill="#000000" fill-rule="evenodd" fill-opacity="1" /><path clip-path="url(#clip670)" d="M 0 0 M163.751 58.0398 Q160.603 58.0398 158.751 60.1926 Q156.922 62.3453 156.922 66.0953 Q156.922 69.8221 158.751 71.9981 Q160.603 74.1508 163.751 74.1508 Q166.899 74.1508 168.727 71.9981 Q170.579 69.8221 170.579 66.0953 Q170.579 62.3453 168.727 60.1926 Q166.899 58.0398 163.751 58.0398 M173.033 43.3871 L173.033 47.6463 Q171.274 46.813 169.468 46.3732 Q167.686 45.9334 165.927 45.9334 Q161.297 45.9334 158.843 49.0584 Q156.413 52.1833 156.065 58.5028 Q157.431 56.4889 159.491 55.4241 Q161.552 54.3361 164.028 54.3361 Q169.237 54.3361 172.246 57.5074 Q175.278 60.6555 175.278 66.0953 Q175.278 71.4194 172.13 74.6369 Q168.982 77.8545 163.751 77.8545 Q157.755 77.8545 154.584 73.2712 Q151.413 68.6647 151.413 59.9379 Q151.413 51.7435 155.302 46.8824 Q159.19 41.9982 165.741 41.9982 Q167.501 41.9982 169.283 42.3454 Q171.089 42.6927 173.033 43.3871 Z" fill="#000000" fill-rule="evenodd" fill-opacity="1" /><path clip-path="url(#clip670)" d="M 0 0 M190.348 45.7019 Q186.737 45.7019 184.908 49.2667 Q183.102 52.8083 183.102 59.9379 Q183.102 67.0444 184.908 70.6092 Q186.737 74.1508 190.348 74.1508 Q193.982 74.1508 195.787 70.6092 Q197.616 67.0444 197.616 59.9379 Q197.616 52.8083 195.787 49.2667 Q193.982 45.7019 190.348 45.7019 M190.348 41.9982 Q196.158 41.9982 199.213 46.6047 Q202.292 51.188 202.292 59.9379 Q202.292 68.6647 199.213 73.2712 Q196.158 77.8545 190.348 77.8545 Q184.538 77.8545 181.459 73.2712 Q178.403 68.6647 178.403 59.9379 Q178.403 51.188 181.459 46.6047 Q184.538 41.9982 190.348 41.9982 Z" fill="#000000" fill-rule="evenodd" fill-opacity="1" /><path clip-path="url(#clip670)" d="M 0 0 M57.8307 951.041 Q57.2578 952.028 57.0032 953.206 Q56.7167 954.351 56.7167 955.752 Q56.7167 960.717 59.9632 963.391 Q63.1779 966.032 69.2253 966.032 L88.0042 966.032 L88.0042 971.921 L52.3562 971.921 L52.3562 966.032 L57.8944 966.032 Q54.6479 964.186 53.0883 961.226 Q51.4968 958.266 51.4968 954.033 Q51.4968 953.428 51.5923 952.696 Q51.656 951.964 51.8151 951.073 L57.8307 951.041 Z" fill="#000000" fill-rule="evenodd" fill-opacity="1" /><path clip-path="url(#clip670)" d="M 0 0 M56.4621 932.517 Q56.4621 937.228 60.1542 939.965 Q63.8145 942.702 70.212 942.702 Q76.6095 942.702 80.3017 939.997 Q83.9619 937.259 83.9619 932.517 Q83.9619 927.838 80.2698 925.101 Q76.5777 922.364 70.212 922.364 Q63.8781 922.364 60.186 925.101 Q56.4621 927.838 56.4621 932.517 M51.4968 932.517 Q51.4968 924.878 56.4621 920.518 Q61.4273 916.157 70.212 916.157 Q78.9649 916.157 83.9619 920.518 Q88.9272 924.878 88.9272 932.517 Q88.9272 940.188 83.9619 944.548 Q78.9649 948.877 70.212 948.877 Q61.4273 948.877 56.4621 944.548 Q51.4968 940.188 51.4968 932.517 Z" fill="#000000" fill-rule="evenodd" fill-opacity="1" /><path clip-path="url(#clip670)" d="M 0 0 M42.2347 904.221 L52.3562 904.221 L52.3562 892.158 L56.9077 892.158 L56.9077 904.221 L76.2594 904.221 Q80.6199 904.221 81.8613 903.044 Q83.1026 901.834 83.1026 898.174 L83.1026 892.158 L88.0042 892.158 L88.0042 898.174 Q88.0042 904.954 85.4897 907.532 Q82.9434 910.11 76.2594 910.11 L56.9077 910.11 L56.9077 914.407 L52.3562 914.407 L52.3562 910.11 L42.2347 910.11 L42.2347 904.221 Z" fill="#000000" fill-rule="evenodd" fill-opacity="1" /><path clip-path="url(#clip670)" d="M 0 0 M56.4621 872.202 Q56.4621 876.913 60.1542 879.65 Q63.8145 882.387 70.212 882.387 Q76.6095 882.387 80.3017 879.682 Q83.9619 876.944 83.9619 872.202 Q83.9619 867.523 80.2698 864.786 Q76.5777 862.049 70.212 862.049 Q63.8781 862.049 60.186 864.786 Q56.4621 867.523 56.4621 872.202 M51.4968 872.202 Q51.4968 864.563 56.4621 860.203 Q61.4273 855.842 70.212 855.842 Q78.9649 855.842 83.9619 860.203 Q88.9272 864.563 88.9272 872.202 Q88.9272 879.873 83.9619 884.233 Q78.9649 888.562 70.212 888.562 Q61.4273 888.562 56.4621 884.233 Q51.4968 879.873 51.4968 872.202 Z" fill="#000000" fill-rule="evenodd" fill-opacity="1" /><path clip-path="url(#clip670)" d="M 0 0 M57.8307 829.042 Q57.2578 830.029 57.0032 831.207 Q56.7167 832.353 56.7167 833.753 Q56.7167 838.718 59.9632 841.392 Q63.1779 844.034 69.2253 844.034 L88.0042 844.034 L88.0042 849.922 L52.3562 849.922 L52.3562 844.034 L57.8944 844.034 Q54.6479 842.188 53.0883 839.228 Q51.4968 836.268 51.4968 832.034 Q51.4968 831.43 51.5923 830.698 Q51.656 829.966 51.8151 829.074 L57.8307 829.042 Z" fill="#000000" fill-rule="evenodd" fill-opacity="1" /><path clip-path="url(#clip670)" d="M 0 0 M70.0847 785.978 Q70.0847 793.076 71.7079 795.813 Q73.3312 798.551 77.2461 798.551 Q80.3653 798.551 82.2114 796.514 Q84.0256 794.445 84.0256 790.912 Q84.0256 786.042 80.5881 783.114 Q77.1188 780.154 71.3897 780.154 L70.0847 780.154 L70.0847 785.978 M67.6657 774.297 L88.0042 774.297 L88.0042 780.154 L82.5933 780.154 Q85.8398 782.159 87.3994 785.151 Q88.9272 788.143 88.9272 792.471 Q88.9272 797.946 85.8716 801.193 Q82.7843 804.407 77.6281 804.407 Q71.6125 804.407 68.5569 800.397 Q65.5014 796.355 65.5014 788.366 L65.5014 780.154 L64.9285 780.154 Q60.8862 780.154 58.6901 782.827 Q56.4621 785.469 56.4621 790.275 Q56.4621 793.331 57.1941 796.227 Q57.9262 799.124 59.3903 801.797 L53.9795 801.797 Q52.7381 798.583 52.1334 795.559 Q51.4968 792.535 51.4968 789.671 Q51.4968 781.936 55.5072 778.117 Q59.5176 774.297 67.6657 774.297 Z" fill="#000000" fill-rule="evenodd" fill-opacity="1" /><path clip-path="url(#clip670)" d="M 0 0 M66.4881 738.522 L88.0042 738.522 L88.0042 744.379 L66.679 744.379 Q61.6183 744.379 59.1038 746.352 Q56.5894 748.325 56.5894 752.272 Q56.5894 757.015 59.6131 759.752 Q62.6368 762.489 67.8567 762.489 L88.0042 762.489 L88.0042 768.377 L52.3562 768.377 L52.3562 762.489 L57.8944 762.489 Q54.6797 760.388 53.0883 757.556 Q51.4968 754.691 51.4968 750.967 Q51.4968 744.824 55.3163 741.673 Q59.1038 738.522 66.4881 738.522 Z" fill="#000000" fill-rule="evenodd" fill-opacity="1" /><path clip-path="url(#clip670)" d="M 0 0 M69.7664 708.922 Q63.4007 708.922 59.8996 711.563 Q56.3984 714.173 56.3984 718.916 Q56.3984 723.626 59.8996 726.268 Q63.4007 728.878 69.7664 728.878 Q76.1003 728.878 79.6014 726.268 Q83.1026 723.626 83.1026 718.916 Q83.1026 714.173 79.6014 711.563 Q76.1003 708.922 69.7664 708.922 M83.58 703.065 Q92.683 703.065 97.1071 707.107 Q101.563 711.15 101.563 719.489 Q101.563 722.576 101.086 725.313 Q100.64 728.051 99.6852 730.629 L93.9879 730.629 Q95.3884 728.051 96.0568 725.536 Q96.7252 723.022 96.7252 720.412 Q96.7252 714.651 93.7015 711.786 Q90.7096 708.922 84.6303 708.922 L81.7339 708.922 Q84.885 710.736 86.4446 713.569 Q88.0042 716.401 88.0042 720.348 Q88.0042 726.905 83.0071 730.915 Q78.01 734.926 69.7664 734.926 Q61.491 734.926 56.4939 730.915 Q51.4968 726.905 51.4968 720.348 Q51.4968 716.401 53.0564 713.569 Q54.616 710.736 57.7671 708.922 L52.3562 708.922 L52.3562 703.065 L83.58 703.065 Z" fill="#000000" fill-rule="evenodd" fill-opacity="1" /><path clip-path="url(#clip670)" d="M 0 0 M38.479 696.922 L38.479 691.066 L88.0042 691.066 L88.0042 696.922 L38.479 696.922 Z" fill="#000000" fill-rule="evenodd" fill-opacity="1" /><path clip-path="url(#clip670)" d="M 0 0 M68.7161 654.431 L71.5806 654.431 L71.5806 681.358 Q77.6281 680.976 80.8109 677.73 Q83.9619 674.451 83.9619 668.627 Q83.9619 665.253 83.1344 662.102 Q82.3069 658.919 80.6518 655.8 L86.1899 655.8 Q87.5267 658.951 88.227 662.261 Q88.9272 665.571 88.9272 668.977 Q88.9272 677.507 83.9619 682.504 Q78.9967 687.469 70.5303 687.469 Q61.7774 687.469 56.6531 682.759 Q51.4968 678.016 51.4968 669.995 Q51.4968 662.802 56.1438 658.633 Q60.7589 654.431 68.7161 654.431 M66.9973 660.288 Q62.1912 660.351 59.3266 662.993 Q56.4621 665.603 56.4621 669.932 Q56.4621 674.833 59.2312 677.793 Q62.0002 680.722 67.0292 681.167 L66.9973 660.288 Z" fill="#000000" fill-rule="evenodd" fill-opacity="1" /><path clip-path="url(#clip670)" d="M 0 0 M38.479 628.109 L38.479 614.614 L43.0304 614.614 L43.0304 622.253 L92.0464 622.253 L92.0464 614.614 L96.5979 614.614 L96.5979 628.109 L38.479 628.109 Z" fill="#000000" fill-rule="evenodd" fill-opacity="1" /><path clip-path="url(#clip670)" d="M 0 0 M57.8307 587.814 Q57.2578 588.801 57.0032 589.978 Q56.7167 591.124 56.7167 592.525 Q56.7167 597.49 59.9632 600.164 Q63.1779 602.805 69.2253 602.805 L88.0042 602.805 L88.0042 608.694 L52.3562 608.694 L52.3562 602.805 L57.8944 602.805 Q54.6479 600.959 53.0883 597.999 Q51.4968 595.039 51.4968 590.806 Q51.4968 590.201 51.5923 589.469 Q51.656 588.737 51.8151 587.846 L57.8307 587.814 Z" fill="#000000" fill-rule="evenodd" fill-opacity="1" /><path clip-path="url(#clip670)" d="M 0 0 M70.0847 565.47 Q70.0847 572.568 71.7079 575.305 Q73.3312 578.043 77.2461 578.043 Q80.3653 578.043 82.2114 576.006 Q84.0256 573.937 84.0256 570.404 Q84.0256 565.534 80.5881 562.606 Q77.1188 559.646 71.3897 559.646 L70.0847 559.646 L70.0847 565.47 M67.6657 553.789 L88.0042 553.789 L88.0042 559.646 L82.5933 559.646 Q85.8398 561.651 87.3994 564.643 Q88.9272 567.635 88.9272 571.963 Q88.9272 577.438 85.8716 580.684 Q82.7843 583.899 77.6281 583.899 Q71.6125 583.899 68.5569 579.889 Q65.5014 575.847 65.5014 567.858 L65.5014 559.646 L64.9285 559.646 Q60.8862 559.646 58.6901 562.319 Q56.4621 564.961 56.4621 569.767 Q56.4621 572.823 57.1941 575.719 Q57.9262 578.616 59.3903 581.289 L53.9795 581.289 Q52.7381 578.075 52.1334 575.051 Q51.4968 572.027 51.4968 569.163 Q51.4968 561.428 55.5072 557.609 Q59.5176 553.789 67.6657 553.789 Z" fill="#000000" fill-rule="evenodd" fill-opacity="1" /><path clip-path="url(#clip670)" d="M 0 0 M57.7671 524.189 L38.479 524.189 L38.479 518.332 L88.0042 518.332 L88.0042 524.189 L82.657 524.189 Q85.8398 526.035 87.3994 528.868 Q88.9272 531.668 88.9272 535.615 Q88.9272 542.076 83.771 546.15 Q78.6147 550.193 70.212 550.193 Q61.8093 550.193 56.6531 546.15 Q51.4968 542.076 51.4968 535.615 Q51.4968 531.668 53.0564 528.868 Q54.5842 526.035 57.7671 524.189 M70.212 544.145 Q76.6732 544.145 80.3653 541.504 Q84.0256 538.83 84.0256 534.183 Q84.0256 529.536 80.3653 526.862 Q76.6732 524.189 70.212 524.189 Q63.7508 524.189 60.0905 526.862 Q56.3984 529.536 56.3984 534.183 Q56.3984 538.83 60.0905 541.504 Q63.7508 544.145 70.212 544.145 Z" fill="#000000" fill-rule="evenodd" fill-opacity="1" /><path clip-path="url(#clip670)" d="M 0 0 M38.479 498.503 L96.5979 498.503 L96.5979 511.998 L92.0464 511.998 L92.0464 504.391 L43.0304 504.391 L43.0304 511.998 L38.479 511.998 L38.479 498.503 Z" fill="#000000" fill-rule="evenodd" fill-opacity="1" /><polyline clip-path="url(#clip672)" style="stroke:#009af9; stroke-width:4; stroke-opacity:1; fill:none" points="
  298.135,1384.24 298.202,1384.24 298.268,1384.24 298.401,1384.24 298.667,1384.24 299.199,1384.24 300.263,1384.24 302.391,1384.24 306.646,1384.24 315.158,1384.24 
  332.18,1384.24 364.628,1384.24 365.11,1382.93 365.592,1380.33 366.074,1376.44 367.038,1365.68 368.002,1350.3 368.967,1330.11 370.895,1276.15 
  372.823,1205.55 374.751,1120.59 376.487,1033.94 378.049,949.529 379.422,871.675 380.607,802.616 381.591,744.706 382.477,692.522 382.999,661.899 383.575,628.49 
  384.15,595.473 384.725,562.936 385.875,499.251 387.03,437.915 388.185,379.833 389.34,325.613 390.495,275.819 392.804,191.292 395.114,129.787 397.676,91.4305 
  400.239,86.1857 402.801,114.01 405.364,173.078 407.926,259.92 410.488,369.783 413.051,496.508 415.613,633.033 418.176,771.843 420.738,905.422 423.3,1026.63 
  425.863,1129.04 428.425,1207.33 430.988,1257.57 433.55,1277.41 438.675,1224.61 443.046,1092.44 447.417,903.556 450.619,746.707 453.821,588.775 457.023,442.801 
  460.225,320.856 464.791,207.384 469.357,180.337 473.923,242.147 478.49,380.647 482.599,549.88 486.709,736.325 490.818,914.485 494.928,1060.59 498.627,1148.57 
  502.325,1185.62 506.024,1168.36 509.723,1099.77 513.421,988.474 517.12,847.74 520.819,693.809 524.517,544.036 528.216,414.938 531.914,320.406 535.613,270.231 
  539.948,273.945 544.282,342.882 548.617,465.266 552.951,621.481 557.286,787.169 561.621,936.977 565.955,1048.42 570.374,1105.76 574.792,1098.51 579.211,1029.23 
  583.63,910.29 588.048,761.676 592.025,622.536 596.002,496.836 599.979,400.341 603.956,344.782 607.932,336.44 611.909,375.454 615.886,455.92 619.863,566.762 
  623.84,693.232 627.817,818.842 631.793,927.489 635.77,1005.52 639.747,1043.48 643.724,1037.25 647.701,988.504 651.677,904.388 655.654,796.447 659.631,679.041 
  663.21,577.914 666.789,491.905 670.368,429.642 673.947,397.155 677.527,397.276 681.106,429.434 684.685,489.727 688.264,571.421 691.843,665.657 695.422,762.427 
  699.001,851.712 699.131,854.666 699.39,860.479 699.649,866.197 699.908,871.816 700.427,882.811 700.945,893.418 701.463,903.59 702.5,922.485 703.537,939.364 
  704.573,954.097 705.61,966.568 707.683,984.398 709.756,992.264 711.83,989.876 713.903,977.381 715.976,955.369 718.895,910.13 721.815,851.329 724.734,783.259 
  727.653,710.765 730.572,638.854 733.492,572.561 736.411,516.406 739.33,474.147 742.249,448.34 745.169,440.61 748.088,451.281 751.007,479.448 753.927,523.216 
  756.846,579.309 759.765,643.645 762.684,711.509 765.604,778.077 768.523,838.694 771.442,889.234 774.07,923.291 776.697,944.673 779.324,952.335 781.952,946.003 
  784.579,926.19 789.834,851.578 794.188,765.267 797.52,693.445 800.853,623.945 804.185,562.893 807.518,515.721 810.85,486.478 814.183,477.576 817.515,489.517 
  821.823,533.381 826.13,602.297 830.437,685.304 834.745,769.592 839.052,842.487 843.36,893.306 847.667,914.883 851.974,904.579 856.282,864.618 860.589,801.66 
  864.896,725.687 869.204,648.405 873.511,581.436 877.818,534.583 882.91,513.921 888.001,533.778 893.092,589 898.184,667.168 903.275,751.384 908.367,823.914 
  913.458,869.911 918.549,880.446 923.641,854.236 928.223,804.491 932.347,746.196 936.471,683.558 940.595,625.28 944.719,579.299 948.843,551.733 952.967,546.004 
  957.091,562.436 961.215,598.288 965.339,648.205 969.463,705.029 975.144,779.985 979.035,820.013 982.926,845.221 986.817,852.752 990.707,842.109 994.598,814.865 
  997.709,783.598 1000.82,746.752 1003.93,707.307 1007.04,668.332 1010.15,632.872 1013.26,603.689 1016.37,583.005 1019.48,572.325 1022.59,572.333 1025.7,582.871 
  1030.27,615.154 1034.83,662.017 1039.39,715.263 1043.95,765.721 1048.51,804.875 1053.07,826.338 1057.18,827.899 1061.29,812.808 1064.54,790.514 1067.8,761.246 
  1071.06,727.621 1074.32,692.608 1077.58,659.268 1080.84,630.476 1085.36,602.563 1089.88,592.386 1094.4,601.146 1098.92,626.919 1103.44,665.111 1107.96,709.213 
  1112.03,747.906 1116.09,780.291 1119.7,800.253 1123.32,809.837 1126.93,808.209 1130.54,795.728 1134.15,773.899 1137.76,745.195 1141.37,712.818 1144.98,680.288 
  1148.6,651.069 1155.82,614.1 1163.04,616.511 1169.54,650.784 1175.39,696.941 1180.66,739.507 1185.92,773.291 1191.19,791.027 1196.45,789.076 1201.72,768.526 
  1206.98,734.666 1211.72,699.398 1216.46,666.309 1221.2,641.156 1225.94,628.576 1230.68,630.129 1235.42,645.924 1240.16,672.345 1244.42,700.692 1248.69,729.073 
  1252.95,753.589 1257.22,770.711 1261.48,777.94 1265.32,775.169 1269.16,764.104 1273,746.252 1276.83,723.883 1280.67,699.758 1284.51,676.798 1288.35,657.767 
  1296.03,639.649 1301.5,646.11 1306.98,667.155 1312.46,697.127 1317.93,728.228 1322.86,750.927 1327.79,764.054 1332.72,765.57 1337.65,755.546 1342.08,738.386 
  1346.52,716.429 1350.95,693.275 1355.39,672.655 1359.82,657.798 1365.53,650.618 1371.24,658.099 1376.94,678.08 1382.65,704.883 1388.36,731.059 1393.49,748.358 
  1398.63,756.169 1403.76,753.19 1408.9,740.324 1414.04,720.501 1419.17,698.09 1424.31,677.939 1429.44,664.289 1434.58,659.863 1439.72,665.342 1444.85,679.294 
  1449.99,698.539 1455.12,718.858 1460.26,735.912 1465.39,746.164 1471.09,747.199 1476.78,737.473 1482.47,719.831 1488.16,699.119 1493.86,680.835 1499.55,669.667 
  1505.24,668.296 1510.93,676.771 1516.63,692.588 1522.32,711.412 1528.01,728.254 1533.7,738.789 1539.39,740.465 1545.09,733.112 1550.78,718.923 1556.47,701.803 
  1562.16,686.298 1567.86,676.395 1573.55,674.496 1579.24,680.852 1584.93,693.556 1590.62,709.111 1596.32,723.38 1602.01,732.689 1607.7,734.764 1613.39,729.286 
  1619.09,717.911 1624.78,703.781 1630.47,690.661 1636.16,681.933 1641.85,679.735 1647.55,684.437 1653.24,694.605 1658.93,707.428 1664.62,719.488 1670.32,727.667 
  1676.01,729.956 1681.7,725.936 1687.39,716.848 1693.09,705.213 1698.78,694.137 1704.47,686.487 1710.16,684.148 1715.85,687.567 1721.55,695.677 1727.24,706.225 
  1732.93,716.392 1738.62,723.543 1744.32,725.909 1750.01,723.018 1755.7,715.784 1761.39,706.223 1767.08,696.896 1772.78,690.223 1778.47,687.859 1784.16,690.288 
  1789.85,696.731 1795.55,705.388 1801.24,713.941 1806.93,720.164 1812.62,722.51 1818.31,720.485 1824.01,714.75 1829.7,706.912 1835.39,699.076 1841.08,693.28 
  1846.78,690.972 1852.47,692.644 1858.16,697.741 1863.85,704.83 1869.55,712.008 1875.24,717.402 1880.93,719.662 1886.62,718.296 1892.31,713.77 1898.01,707.359 
  1903.7,700.79 1909.39,695.777 1915.08,693.577 1922.58,695.606 1929.33,701.442 1936.08,708.961 1942.83,715.358 1949.58,718.277 1956.33,716.663 1963.08,711.003 
  1969.83,703.11 1976.59,696.042 1983.34,692.664 1990.09,694.064 1996,698.841 2001.91,705.508 2007.83,712.41 2013.74,717.85 2019.97,720.24 2026.21,718.404 
  2031.81,713.527 2037.42,706.883 2043.03,699.954 2048.64,694.263 2055.32,691.148 2061.99,693.001 2068,698.508 2073.4,705.327 2078.81,712.279 2084.21,717.765 
  2089.59,720.526 2094.97,719.976 2100.35,716.252 2105.73,710.209 2111.11,703.231 2116.49,696.902 2121.87,692.714 2127.25,691.69 2132.63,694.081 2138.01,699.299 
  2143.39,706.067 2148.77,712.746 2154.15,717.679 2161.78,719.562 2169.41,715.026 2176.27,707.361 2183.14,699.462 2190,694.373 2196.87,693.905 2203.73,698.022 
  2210.6,704.97 2217.46,712.022 2224.33,716.524 2231.19,716.877 2238.06,713.102 2244.92,706.784 2251.79,700.415 2258.65,696.412 2265.51,696.195 2272.38,699.694 
  2279.24,705.437 2286.11,711.163 2292.91,714.691 
  "/>
<path clip-path="url(#clip670)" d="
M1837.91 214.069 L2282.27 214.069 L2282.27 93.1086 L1837.91 93.1086  Z
  " fill="#ffffff" fill-rule="evenodd" fill-opacity="1"/>
<polyline clip-path="url(#clip670)" style="stroke:#000000; stroke-width:4; stroke-opacity:1; fill:none" points="
  1837.91,214.069 2282.27,214.069 2282.27,93.1086 1837.91,93.1086 1837.91,214.069 
  "/>
<polyline clip-path="url(#clip670)" style="stroke:#009af9; stroke-width:4; stroke-opacity:1; fill:none" points="
  1861.41,153.589 2002.37,153.589 
  "/>
<path clip-path="url(#clip670)" d="M 0 0 M2044.78 157.605 Q2044.78 152.975 2042.86 150.429 Q2040.96 147.883 2037.51 147.883 Q2034.08 147.883 2032.16 150.429 Q2030.26 152.975 2030.26 157.605 Q2030.26 162.211 2032.16 164.758 Q2034.08 167.304 2037.51 167.304 Q2040.96 167.304 2042.86 164.758 Q2044.78 162.211 2044.78 157.605 M2049.04 167.651 Q2049.04 174.271 2046.1 177.489 Q2043.16 180.73 2037.09 180.73 Q2034.85 180.73 2032.86 180.382 Q2030.87 180.058 2028.99 179.364 L2028.99 175.22 Q2030.87 176.239 2032.69 176.725 Q2034.52 177.211 2036.42 177.211 Q2040.61 177.211 2042.69 175.012 Q2044.78 172.836 2044.78 168.415 L2044.78 166.308 Q2043.46 168.6 2041.4 169.734 Q2039.34 170.869 2036.47 170.869 Q2031.7 170.869 2028.78 167.234 Q2025.87 163.6 2025.87 157.605 Q2025.87 151.586 2028.78 147.952 Q2031.7 144.318 2036.47 144.318 Q2039.34 144.318 2041.4 145.452 Q2043.46 146.586 2044.78 148.878 L2044.78 144.943 L2049.04 144.943 L2049.04 167.651 Z" fill="#000000" fill-rule="evenodd" fill-opacity="1" /><path clip-path="url(#clip670)" d="M 0 0 M2075.68 156.841 L2075.68 158.924 L2056.1 158.924 Q2056.37 163.322 2058.74 165.637 Q2061.12 167.929 2065.36 167.929 Q2067.81 167.929 2070.1 167.327 Q2072.42 166.725 2074.68 165.521 L2074.68 169.549 Q2072.39 170.521 2069.99 171.031 Q2067.58 171.54 2065.1 171.54 Q2058.9 171.54 2055.26 167.929 Q2051.65 164.318 2051.65 158.16 Q2051.65 151.795 2055.08 148.068 Q2058.53 144.318 2064.36 144.318 Q2069.59 144.318 2072.62 147.697 Q2075.68 151.054 2075.68 156.841 M2071.42 155.591 Q2071.37 152.096 2069.45 150.012 Q2067.56 147.929 2064.41 147.929 Q2060.84 147.929 2058.69 149.943 Q2056.56 151.957 2056.24 155.614 L2071.42 155.591 Z" fill="#000000" fill-rule="evenodd" fill-opacity="1" /><path clip-path="url(#clip670)" d="M 0 0 M2101.7 155.221 L2101.7 170.869 L2097.44 170.869 L2097.44 155.359 Q2097.44 151.679 2096 149.85 Q2094.57 148.022 2091.7 148.022 Q2088.25 148.022 2086.26 150.221 Q2084.27 152.42 2084.27 156.216 L2084.27 170.869 L2079.99 170.869 L2079.99 144.943 L2084.27 144.943 L2084.27 148.971 Q2085.8 146.633 2087.86 145.475 Q2089.94 144.318 2092.65 144.318 Q2097.12 144.318 2099.41 147.096 Q2101.7 149.85 2101.7 155.221 Z" fill="#000000" fill-rule="evenodd" fill-opacity="1" /><path clip-path="url(#clip670)" d="M 0 0 M2104.01 155.984 L2116.49 155.984 L2116.49 159.781 L2104.01 159.781 L2104.01 155.984 Z" fill="#000000" fill-rule="evenodd" fill-opacity="1" /><path clip-path="url(#clip670)" d="M 0 0 M2122.37 166.933 L2130.01 166.933 L2130.01 140.568 L2121.7 142.235 L2121.7 137.975 L2129.96 136.309 L2134.64 136.309 L2134.64 166.933 L2142.28 166.933 L2142.28 170.869 L2122.37 170.869 L2122.37 166.933 Z" fill="#000000" fill-rule="evenodd" fill-opacity="1" /><path clip-path="url(#clip670)" d="M 0 0 M2157.35 139.387 Q2153.74 139.387 2151.91 142.952 Q2150.1 146.494 2150.1 153.623 Q2150.1 160.73 2151.91 164.295 Q2153.74 167.836 2157.35 167.836 Q2160.98 167.836 2162.79 164.295 Q2164.61 160.73 2164.61 153.623 Q2164.61 146.494 2162.79 142.952 Q2160.98 139.387 2157.35 139.387 M2157.35 135.684 Q2163.16 135.684 2166.21 140.29 Q2169.29 144.873 2169.29 153.623 Q2169.29 162.35 2166.21 166.957 Q2163.16 171.54 2157.35 171.54 Q2151.54 171.54 2148.46 166.957 Q2145.4 162.35 2145.4 153.623 Q2145.4 144.873 2148.46 140.29 Q2151.54 135.684 2157.35 135.684 Z" fill="#000000" fill-rule="evenodd" fill-opacity="1" /><path clip-path="url(#clip670)" d="M 0 0 M2178.39 166.933 L2194.71 166.933 L2194.71 170.869 L2172.76 170.869 L2172.76 166.933 Q2175.42 164.179 2180.01 159.549 Q2184.61 154.896 2185.8 153.554 Q2188.04 151.031 2188.92 149.295 Q2189.82 147.535 2189.82 145.846 Q2189.82 143.091 2187.88 141.355 Q2185.96 139.619 2182.86 139.619 Q2180.66 139.619 2178.2 140.383 Q2175.77 141.147 2172.99 142.697 L2172.99 137.975 Q2175.82 136.841 2178.27 136.262 Q2180.73 135.684 2182.76 135.684 Q2188.13 135.684 2191.33 138.369 Q2194.52 141.054 2194.52 145.545 Q2194.52 147.674 2193.71 149.596 Q2192.92 151.494 2190.82 154.086 Q2190.24 154.758 2187.14 157.975 Q2184.04 161.17 2178.39 166.933 Z" fill="#000000" fill-rule="evenodd" fill-opacity="1" /><path clip-path="url(#clip670)" d="M 0 0 M2197.02 155.984 L2209.5 155.984 L2209.5 159.781 L2197.02 159.781 L2197.02 155.984 Z" fill="#000000" fill-rule="evenodd" fill-opacity="1" /><path clip-path="url(#clip670)" d="M 0 0 M2215.38 166.933 L2223.02 166.933 L2223.02 140.568 L2214.71 142.235 L2214.71 137.975 L2222.97 136.309 L2227.65 136.309 L2227.65 166.933 L2235.29 166.933 L2235.29 170.869 L2215.38 170.869 L2215.38 166.933 Z" fill="#000000" fill-rule="evenodd" fill-opacity="1" /></svg>
