<?xml version="1.0" encoding="utf-8"?>
<svg xmlns="http://www.w3.org/2000/svg" xmlns:xlink="http://www.w3.org/1999/xlink" width="600" height="400" viewBox="0 0 2400 1600">
<defs>
  <clipPath id="clip540">
    <rect x="0" y="0" width="2400" height="1600"/>
  </clipPath>
</defs>
<path clip-path="url(#clip540)" d="M0 1600 L2400 1600 L2400 0 L0 0  Z" fill="#ffffff" fill-rule="evenodd" fill-opacity="1"/>
<defs>
  <clipPath id="clip541">
    <rect x="480" y="0" width="1681" height="1600"/>
  </clipPath>
</defs>
<path clip-path="url(#clip540)" d="M214.839 1486.45 L2352.76 1486.45 L2352.76 47.2441 L214.839 47.2441  Z" fill="#ffffff" fill-rule="evenodd" fill-opacity="1"/>
<defs>
  <clipPath id="clip542">
    <rect x="214" y="47" width="2139" height="1440"/>
  </clipPath>
</defs>
<polyline clip-path="url(#clip542)" style="stroke:#000000; stroke-linecap:round; stroke-linejoin:round; stroke-width:2; stroke-opacity:0.1; fill:none" points="275.346,1486.45 275.346,47.2441 "/>
<polyline clip-path="url(#clip542)" style="stroke:#000000; stroke-linecap:round; stroke-linejoin:round; stroke-width:2; stroke-opacity:0.1; fill:none" points="779.572,1486.45 779.572,47.2441 "/>
<polyline clip-path="url(#clip542)" style="stroke:#000000; stroke-linecap:round; stroke-linejoin:round; stroke-width:2; stroke-opacity:0.1; fill:none" points="1283.8,1486.45 1283.8,47.2441 "/>
<polyline clip-path="url(#clip542)" style="stroke:#000000; stroke-linecap:round; stroke-linejoin:round; stroke-width:2; stroke-opacity:0.1; fill:none" points="1788.02,1486.45 1788.02,47.2441 "/>
<polyline clip-path="url(#clip542)" style="stroke:#000000; stroke-linecap:round; stroke-linejoin:round; stroke-width:2; stroke-opacity:0.1; fill:none" points="2292.25,1486.45 2292.25,47.2441 "/>
<polyline clip-path="url(#clip540)" style="stroke:#000000; stroke-linecap:round; stroke-linejoin:round; stroke-width:4; stroke-opacity:1; fill:none" points="214.839,1486.45 2352.76,1486.45 "/>
<polyline clip-path="url(#clip540)" style="stroke:#000000; stroke-linecap:round; stroke-linejoin:round; stroke-width:4; stroke-opacity:1; fill:none" points="275.346,1486.45 275.346,1467.55 "/>
<polyline clip-path="url(#clip540)" style="stroke:#000000; stroke-linecap:round; stroke-linejoin:round; stroke-width:4; stroke-opacity:1; fill:none" points="779.572,1486.45 779.572,1467.55 "/>
<polyline clip-path="url(#clip540)" style="stroke:#000000; stroke-linecap:round; stroke-linejoin:round; stroke-width:4; stroke-opacity:1; fill:none" points="1283.8,1486.45 1283.8,1467.55 "/>
<polyline clip-path="url(#clip540)" style="stroke:#000000; stroke-linecap:round; stroke-linejoin:round; stroke-width:4; stroke-opacity:1; fill:none" points="1788.02,1486.45 1788.02,1467.55 "/>
<polyline clip-path="url(#clip540)" style="stroke:#000000; stroke-linecap:round; stroke-linejoin:round; stroke-width:4; stroke-opacity:1; fill:none" points="2292.25,1486.45 2292.25,1467.55 "/>
<path clip-path="url(#clip540)" d="M275.346 1517.37 Q271.735 1517.37 269.906 1520.93 Q268.1 1524.47 268.1 1531.6 Q268.1 1538.71 269.906 1542.27 Q271.735 1545.82 275.346 1545.82 Q278.98 1545.82 280.786 1542.27 Q282.614 1538.71 282.614 1531.6 Q282.614 1524.47 280.786 1520.93 Q278.98 1517.37 275.346 1517.37 M275.346 1513.66 Q281.156 1513.66 284.211 1518.27 Q287.29 1522.85 287.29 1531.6 Q287.29 1540.33 284.211 1544.94 Q281.156 1549.52 275.346 1549.52 Q269.536 1549.52 266.457 1544.94 Q263.401 1540.33 263.401 1531.6 Q263.401 1522.85 266.457 1518.27 Q269.536 1513.66 275.346 1513.66 Z" fill="#000000" fill-rule="nonzero" fill-opacity="1" /><path clip-path="url(#clip540)" d="M769.849 1514.29 L788.206 1514.29 L788.206 1518.22 L774.132 1518.22 L774.132 1526.7 Q775.15 1526.35 776.169 1526.19 Q777.187 1526 778.206 1526 Q783.993 1526 787.372 1529.17 Q790.752 1532.34 790.752 1537.76 Q790.752 1543.34 787.28 1546.44 Q783.808 1549.52 777.488 1549.52 Q775.312 1549.52 773.044 1549.15 Q770.798 1548.78 768.391 1548.04 L768.391 1543.34 Q770.474 1544.47 772.697 1545.03 Q774.919 1545.58 777.396 1545.58 Q781.4 1545.58 783.738 1543.48 Q786.076 1541.37 786.076 1537.76 Q786.076 1534.15 783.738 1532.04 Q781.4 1529.94 777.396 1529.94 Q775.521 1529.94 773.646 1530.35 Q771.794 1530.77 769.849 1531.65 L769.849 1514.29 Z" fill="#000000" fill-rule="nonzero" fill-opacity="1" /><path clip-path="url(#clip540)" d="M1258.48 1544.91 L1266.12 1544.91 L1266.12 1518.55 L1257.81 1520.21 L1257.81 1515.95 L1266.08 1514.29 L1270.75 1514.29 L1270.75 1544.91 L1278.39 1544.91 L1278.39 1548.85 L1258.48 1548.85 L1258.48 1544.91 Z" fill="#000000" fill-rule="nonzero" fill-opacity="1" /><path clip-path="url(#clip540)" d="M1297.84 1517.37 Q1294.23 1517.37 1292.4 1520.93 Q1290.59 1524.47 1290.59 1531.6 Q1290.59 1538.71 1292.4 1542.27 Q1294.23 1545.82 1297.84 1545.82 Q1301.47 1545.82 1303.28 1542.27 Q1305.11 1538.71 1305.11 1531.6 Q1305.11 1524.47 1303.28 1520.93 Q1301.47 1517.37 1297.84 1517.37 M1297.84 1513.66 Q1303.65 1513.66 1306.7 1518.27 Q1309.78 1522.85 1309.78 1531.6 Q1309.78 1540.33 1306.7 1544.94 Q1303.65 1549.52 1297.84 1549.52 Q1292.03 1549.52 1288.95 1544.94 Q1285.89 1540.33 1285.89 1531.6 Q1285.89 1522.85 1288.95 1518.27 Q1292.03 1513.66 1297.84 1513.66 Z" fill="#000000" fill-rule="nonzero" fill-opacity="1" /><path clip-path="url(#clip540)" d="M1763.21 1544.91 L1770.85 1544.91 L1770.85 1518.55 L1762.54 1520.21 L1762.54 1515.95 L1770.8 1514.29 L1775.48 1514.29 L1775.48 1544.91 L1783.12 1544.91 L1783.12 1548.85 L1763.21 1548.85 L1763.21 1544.91 Z" fill="#000000" fill-rule="nonzero" fill-opacity="1" /><path clip-path="url(#clip540)" d="M1792.61 1514.29 L1810.96 1514.29 L1810.96 1518.22 L1796.89 1518.22 L1796.89 1526.7 Q1797.91 1526.35 1798.93 1526.19 Q1799.94 1526 1800.96 1526 Q1806.75 1526 1810.13 1529.17 Q1813.51 1532.34 1813.51 1537.76 Q1813.51 1543.34 1810.04 1546.44 Q1806.56 1549.52 1800.25 1549.52 Q1798.07 1549.52 1795.8 1549.15 Q1793.56 1548.78 1791.15 1548.04 L1791.15 1543.34 Q1793.23 1544.47 1795.45 1545.03 Q1797.68 1545.58 1800.15 1545.58 Q1804.16 1545.58 1806.5 1543.48 Q1808.83 1541.37 1808.83 1537.76 Q1808.83 1534.15 1806.5 1532.04 Q1804.16 1529.94 1800.15 1529.94 Q1798.28 1529.94 1796.4 1530.35 Q1794.55 1530.77 1792.61 1531.65 L1792.61 1514.29 Z" fill="#000000" fill-rule="nonzero" fill-opacity="1" /><path clip-path="url(#clip540)" d="M2271.02 1544.91 L2287.34 1544.91 L2287.34 1548.85 L2265.4 1548.85 L2265.4 1544.91 Q2268.06 1542.16 2272.64 1537.53 Q2277.25 1532.88 2278.43 1531.53 Q2280.67 1529.01 2281.55 1527.27 Q2282.46 1525.51 2282.46 1523.82 Q2282.46 1521.07 2280.51 1519.33 Q2278.59 1517.6 2275.49 1517.6 Q2273.29 1517.6 2270.84 1518.36 Q2268.41 1519.13 2265.63 1520.68 L2265.63 1515.95 Q2268.45 1514.82 2270.91 1514.24 Q2273.36 1513.66 2275.4 1513.66 Q2280.77 1513.66 2283.96 1516.35 Q2287.16 1519.03 2287.16 1523.52 Q2287.16 1525.65 2286.35 1527.57 Q2285.56 1529.47 2283.45 1532.07 Q2282.87 1532.74 2279.77 1535.95 Q2276.67 1539.15 2271.02 1544.91 Z" fill="#000000" fill-rule="nonzero" fill-opacity="1" /><path clip-path="url(#clip540)" d="M2307.16 1517.37 Q2303.55 1517.37 2301.72 1520.93 Q2299.91 1524.47 2299.91 1531.6 Q2299.91 1538.71 2301.72 1542.27 Q2303.55 1545.82 2307.16 1545.82 Q2310.79 1545.82 2312.6 1542.27 Q2314.42 1538.71 2314.42 1531.6 Q2314.42 1524.47 2312.6 1520.93 Q2310.79 1517.37 2307.16 1517.37 M2307.16 1513.66 Q2312.97 1513.66 2316.02 1518.27 Q2319.1 1522.85 2319.1 1531.6 Q2319.1 1540.33 2316.02 1544.94 Q2312.97 1549.52 2307.16 1549.52 Q2301.35 1549.52 2298.27 1544.94 Q2295.21 1540.33 2295.21 1531.6 Q2295.21 1522.85 2298.27 1518.27 Q2301.35 1513.66 2307.16 1513.66 Z" fill="#000000" fill-rule="nonzero" fill-opacity="1" /><polyline clip-path="url(#clip542)" style="stroke:#000000; stroke-linecap:round; stroke-linejoin:round; stroke-width:2; stroke-opacity:0.1; fill:none" points="214.839,1353.05 2352.76,1353.05 "/>
<polyline clip-path="url(#clip542)" style="stroke:#000000; stroke-linecap:round; stroke-linejoin:round; stroke-width:2; stroke-opacity:0.1; fill:none" points="214.839,1036.74 2352.76,1036.74 "/>
<polyline clip-path="url(#clip542)" style="stroke:#000000; stroke-linecap:round; stroke-linejoin:round; stroke-width:2; stroke-opacity:0.1; fill:none" points="214.839,720.418 2352.76,720.418 "/>
<polyline clip-path="url(#clip542)" style="stroke:#000000; stroke-linecap:round; stroke-linejoin:round; stroke-width:2; stroke-opacity:0.1; fill:none" points="214.839,404.1 2352.76,404.1 "/>
<polyline clip-path="url(#clip542)" style="stroke:#000000; stroke-linecap:round; stroke-linejoin:round; stroke-width:2; stroke-opacity:0.1; fill:none" points="214.839,87.7817 2352.76,87.7817 "/>
<polyline clip-path="url(#clip540)" style="stroke:#000000; stroke-linecap:round; stroke-linejoin:round; stroke-width:4; stroke-opacity:1; fill:none" points="214.839,1486.45 214.839,47.2441 "/>
<polyline clip-path="url(#clip540)" style="stroke:#000000; stroke-linecap:round; stroke-linejoin:round; stroke-width:4; stroke-opacity:1; fill:none" points="214.839,1353.05 233.736,1353.05 "/>
<polyline clip-path="url(#clip540)" style="stroke:#000000; stroke-linecap:round; stroke-linejoin:round; stroke-width:4; stroke-opacity:1; fill:none" points="214.839,1036.74 233.736,1036.74 "/>
<polyline clip-path="url(#clip540)" style="stroke:#000000; stroke-linecap:round; stroke-linejoin:round; stroke-width:4; stroke-opacity:1; fill:none" points="214.839,720.418 233.736,720.418 "/>
<polyline clip-path="url(#clip540)" style="stroke:#000000; stroke-linecap:round; stroke-linejoin:round; stroke-width:4; stroke-opacity:1; fill:none" points="214.839,404.1 233.736,404.1 "/>
<polyline clip-path="url(#clip540)" style="stroke:#000000; stroke-linecap:round; stroke-linejoin:round; stroke-width:4; stroke-opacity:1; fill:none" points="214.839,87.7817 233.736,87.7817 "/>
<path clip-path="url(#clip540)" d="M53.7467 1366.4 L61.3856 1366.4 L61.3856 1340.03 L53.0754 1341.7 L53.0754 1337.44 L61.3393 1335.77 L66.0152 1335.77 L66.0152 1366.4 L73.654 1366.4 L73.654 1370.33 L53.7467 1370.33 L53.7467 1366.4 Z" fill="#000000" fill-rule="nonzero" fill-opacity="1" /><path clip-path="url(#clip540)" d="M83.0984 1364.45 L87.9827 1364.45 L87.9827 1370.33 L83.0984 1370.33 L83.0984 1364.45 Z" fill="#000000" fill-rule="nonzero" fill-opacity="1" /><path clip-path="url(#clip540)" d="M108.168 1338.85 Q104.557 1338.85 102.728 1342.42 Q100.922 1345.96 100.922 1353.09 Q100.922 1360.2 102.728 1363.76 Q104.557 1367.3 108.168 1367.3 Q111.802 1367.3 113.608 1363.76 Q115.436 1360.2 115.436 1353.09 Q115.436 1345.96 113.608 1342.42 Q111.802 1338.85 108.168 1338.85 M108.168 1335.15 Q113.978 1335.15 117.033 1339.76 Q120.112 1344.34 120.112 1353.09 Q120.112 1361.82 117.033 1366.42 Q113.978 1371.01 108.168 1371.01 Q102.358 1371.01 99.2789 1366.42 Q96.2234 1361.82 96.2234 1353.09 Q96.2234 1344.34 99.2789 1339.76 Q102.358 1335.15 108.168 1335.15 Z" fill="#000000" fill-rule="nonzero" fill-opacity="1" /><path clip-path="url(#clip540)" d="M138.33 1338.85 Q134.719 1338.85 132.89 1342.42 Q131.084 1345.96 131.084 1353.09 Q131.084 1360.2 132.89 1363.76 Q134.719 1367.3 138.33 1367.3 Q141.964 1367.3 143.769 1363.76 Q145.598 1360.2 145.598 1353.09 Q145.598 1345.96 143.769 1342.42 Q141.964 1338.85 138.33 1338.85 M138.33 1335.15 Q144.14 1335.15 147.195 1339.76 Q150.274 1344.34 150.274 1353.09 Q150.274 1361.82 147.195 1366.42 Q144.14 1371.01 138.33 1371.01 Q132.519 1371.01 129.441 1366.42 Q126.385 1361.82 126.385 1353.09 Q126.385 1344.34 129.441 1339.76 Q132.519 1335.15 138.33 1335.15 Z" fill="#000000" fill-rule="nonzero" fill-opacity="1" /><path clip-path="url(#clip540)" d="M162.519 1366.4 L178.839 1366.4 L178.839 1370.33 L156.894 1370.33 L156.894 1366.4 Q159.556 1363.64 164.14 1359.01 Q168.746 1354.36 169.927 1353.02 Q172.172 1350.5 173.052 1348.76 Q173.954 1347 173.954 1345.31 Q173.954 1342.56 172.01 1340.82 Q170.089 1339.08 166.987 1339.08 Q164.788 1339.08 162.334 1339.85 Q159.904 1340.61 157.126 1342.16 L157.126 1337.44 Q159.95 1336.31 162.404 1335.73 Q164.857 1335.15 166.894 1335.15 Q172.265 1335.15 175.459 1337.83 Q178.653 1340.52 178.653 1345.01 Q178.653 1347.14 177.843 1349.06 Q177.056 1350.96 174.95 1353.55 Q174.371 1354.22 171.269 1357.44 Q168.167 1360.64 162.519 1366.4 Z" fill="#000000" fill-rule="nonzero" fill-opacity="1" /><path clip-path="url(#clip540)" d="M51.6634 1050.08 L59.3023 1050.08 L59.3023 1023.72 L50.9921 1025.38 L50.9921 1021.12 L59.256 1019.46 L63.9319 1019.46 L63.9319 1050.08 L71.5707 1050.08 L71.5707 1054.02 L51.6634 1054.02 L51.6634 1050.08 Z" fill="#000000" fill-rule="nonzero" fill-opacity="1" /><path clip-path="url(#clip540)" d="M81.0151 1048.14 L85.8993 1048.14 L85.8993 1054.02 L81.0151 1054.02 L81.0151 1048.14 Z" fill="#000000" fill-rule="nonzero" fill-opacity="1" /><path clip-path="url(#clip540)" d="M106.084 1022.53 Q102.473 1022.53 100.645 1026.1 Q98.8391 1029.64 98.8391 1036.77 Q98.8391 1043.88 100.645 1047.44 Q102.473 1050.98 106.084 1050.98 Q109.719 1050.98 111.524 1047.44 Q113.353 1043.88 113.353 1036.77 Q113.353 1029.64 111.524 1026.1 Q109.719 1022.53 106.084 1022.53 M106.084 1018.83 Q111.895 1018.83 114.95 1023.44 Q118.029 1028.02 118.029 1036.77 Q118.029 1045.5 114.95 1050.1 Q111.895 1054.69 106.084 1054.69 Q100.274 1054.69 97.1956 1050.1 Q94.14 1045.5 94.14 1036.77 Q94.14 1028.02 97.1956 1023.44 Q100.274 1018.83 106.084 1018.83 Z" fill="#000000" fill-rule="nonzero" fill-opacity="1" /><path clip-path="url(#clip540)" d="M136.246 1022.53 Q132.635 1022.53 130.807 1026.1 Q129.001 1029.64 129.001 1036.77 Q129.001 1043.88 130.807 1047.44 Q132.635 1050.98 136.246 1050.98 Q139.881 1050.98 141.686 1047.44 Q143.515 1043.88 143.515 1036.77 Q143.515 1029.64 141.686 1026.1 Q139.881 1022.53 136.246 1022.53 M136.246 1018.83 Q142.056 1018.83 145.112 1023.44 Q148.191 1028.02 148.191 1036.77 Q148.191 1045.5 145.112 1050.1 Q142.056 1054.69 136.246 1054.69 Q130.436 1054.69 127.357 1050.1 Q124.302 1045.5 124.302 1036.77 Q124.302 1028.02 127.357 1023.44 Q130.436 1018.83 136.246 1018.83 Z" fill="#000000" fill-rule="nonzero" fill-opacity="1" /><path clip-path="url(#clip540)" d="M169.255 1023.53 L157.45 1041.98 L169.255 1041.98 L169.255 1023.53 M168.029 1019.46 L173.908 1019.46 L173.908 1041.98 L178.839 1041.98 L178.839 1045.87 L173.908 1045.87 L173.908 1054.02 L169.255 1054.02 L169.255 1045.87 L153.654 1045.87 L153.654 1041.35 L168.029 1019.46 Z" fill="#000000" fill-rule="nonzero" fill-opacity="1" /><path clip-path="url(#clip540)" d="M51.9875 733.763 L59.6263 733.763 L59.6263 707.397 L51.3162 709.064 L51.3162 704.805 L59.58 703.138 L64.2559 703.138 L64.2559 733.763 L71.8948 733.763 L71.8948 737.698 L51.9875 737.698 L51.9875 733.763 Z" fill="#000000" fill-rule="nonzero" fill-opacity="1" /><path clip-path="url(#clip540)" d="M81.3392 731.818 L86.2234 731.818 L86.2234 737.698 L81.3392 737.698 L81.3392 731.818 Z" fill="#000000" fill-rule="nonzero" fill-opacity="1" /><path clip-path="url(#clip540)" d="M106.408 706.217 Q102.797 706.217 100.969 709.781 Q99.1632 713.323 99.1632 720.453 Q99.1632 727.559 100.969 731.124 Q102.797 734.665 106.408 734.665 Q110.043 734.665 111.848 731.124 Q113.677 727.559 113.677 720.453 Q113.677 713.323 111.848 709.781 Q110.043 706.217 106.408 706.217 M106.408 702.513 Q112.219 702.513 115.274 707.119 Q118.353 711.703 118.353 720.453 Q118.353 729.179 115.274 733.786 Q112.219 738.369 106.408 738.369 Q100.598 738.369 97.5197 733.786 Q94.4641 729.179 94.4641 720.453 Q94.4641 711.703 97.5197 707.119 Q100.598 702.513 106.408 702.513 Z" fill="#000000" fill-rule="nonzero" fill-opacity="1" /><path clip-path="url(#clip540)" d="M136.57 706.217 Q132.959 706.217 131.131 709.781 Q129.325 713.323 129.325 720.453 Q129.325 727.559 131.131 731.124 Q132.959 734.665 136.57 734.665 Q140.205 734.665 142.01 731.124 Q143.839 727.559 143.839 720.453 Q143.839 713.323 142.01 709.781 Q140.205 706.217 136.57 706.217 M136.57 702.513 Q142.381 702.513 145.436 707.119 Q148.515 711.703 148.515 720.453 Q148.515 729.179 145.436 733.786 Q142.381 738.369 136.57 738.369 Q130.76 738.369 127.682 733.786 Q124.626 729.179 124.626 720.453 Q124.626 711.703 127.682 707.119 Q130.76 702.513 136.57 702.513 Z" fill="#000000" fill-rule="nonzero" fill-opacity="1" /><path clip-path="url(#clip540)" d="M167.311 718.554 Q164.163 718.554 162.311 720.707 Q160.482 722.86 160.482 726.61 Q160.482 730.337 162.311 732.513 Q164.163 734.665 167.311 734.665 Q170.459 734.665 172.288 732.513 Q174.14 730.337 174.14 726.61 Q174.14 722.86 172.288 720.707 Q170.459 718.554 167.311 718.554 M176.593 703.902 L176.593 708.161 Q174.834 707.328 173.029 706.888 Q171.246 706.448 169.487 706.448 Q164.857 706.448 162.404 709.573 Q159.973 712.698 159.626 719.017 Q160.992 717.004 163.052 715.939 Q165.112 714.851 167.589 714.851 Q172.797 714.851 175.806 718.022 Q178.839 721.17 178.839 726.61 Q178.839 731.934 175.691 735.152 Q172.542 738.369 167.311 738.369 Q161.316 738.369 158.144 733.786 Q154.973 729.179 154.973 720.453 Q154.973 712.258 158.862 707.397 Q162.751 702.513 169.302 702.513 Q171.061 702.513 172.843 702.86 Q174.649 703.207 176.593 703.902 Z" fill="#000000" fill-rule="nonzero" fill-opacity="1" /><path clip-path="url(#clip540)" d="M52.2421 417.445 L59.881 417.445 L59.881 391.079 L51.5708 392.746 L51.5708 388.486 L59.8347 386.82 L64.5106 386.82 L64.5106 417.445 L72.1494 417.445 L72.1494 421.38 L52.2421 421.38 L52.2421 417.445 Z" fill="#000000" fill-rule="nonzero" fill-opacity="1" /><path clip-path="url(#clip540)" d="M81.5938 415.5 L86.478 415.5 L86.478 421.38 L81.5938 421.38 L81.5938 415.5 Z" fill="#000000" fill-rule="nonzero" fill-opacity="1" /><path clip-path="url(#clip540)" d="M106.663 389.898 Q103.052 389.898 101.223 393.463 Q99.4178 397.005 99.4178 404.134 Q99.4178 411.241 101.223 414.806 Q103.052 418.347 106.663 418.347 Q110.297 418.347 112.103 414.806 Q113.932 411.241 113.932 404.134 Q113.932 397.005 112.103 393.463 Q110.297 389.898 106.663 389.898 M106.663 386.195 Q112.473 386.195 115.529 390.801 Q118.608 395.385 118.608 404.134 Q118.608 412.861 115.529 417.468 Q112.473 422.051 106.663 422.051 Q100.853 422.051 97.7743 417.468 Q94.7187 412.861 94.7187 404.134 Q94.7187 395.385 97.7743 390.801 Q100.853 386.195 106.663 386.195 Z" fill="#000000" fill-rule="nonzero" fill-opacity="1" /><path clip-path="url(#clip540)" d="M136.825 389.898 Q133.214 389.898 131.385 393.463 Q129.58 397.005 129.58 404.134 Q129.58 411.241 131.385 414.806 Q133.214 418.347 136.825 418.347 Q140.459 418.347 142.265 414.806 Q144.093 411.241 144.093 404.134 Q144.093 397.005 142.265 393.463 Q140.459 389.898 136.825 389.898 M136.825 386.195 Q142.635 386.195 145.691 390.801 Q148.769 395.385 148.769 404.134 Q148.769 412.861 145.691 417.468 Q142.635 422.051 136.825 422.051 Q131.015 422.051 127.936 417.468 Q124.881 412.861 124.881 404.134 Q124.881 395.385 127.936 390.801 Q131.015 386.195 136.825 386.195 Z" fill="#000000" fill-rule="nonzero" fill-opacity="1" /><path clip-path="url(#clip540)" d="M166.987 404.968 Q163.654 404.968 161.732 406.75 Q159.834 408.533 159.834 411.658 Q159.834 414.783 161.732 416.565 Q163.654 418.347 166.987 418.347 Q170.32 418.347 172.241 416.565 Q174.163 414.759 174.163 411.658 Q174.163 408.533 172.241 406.75 Q170.343 404.968 166.987 404.968 M162.311 402.977 Q159.302 402.236 157.612 400.176 Q155.945 398.116 155.945 395.153 Q155.945 391.01 158.885 388.602 Q161.848 386.195 166.987 386.195 Q172.149 386.195 175.089 388.602 Q178.028 391.01 178.028 395.153 Q178.028 398.116 176.339 400.176 Q174.672 402.236 171.686 402.977 Q175.066 403.764 176.941 406.056 Q178.839 408.347 178.839 411.658 Q178.839 416.681 175.76 419.366 Q172.704 422.051 166.987 422.051 Q161.269 422.051 158.191 419.366 Q155.135 416.681 155.135 411.658 Q155.135 408.347 157.033 406.056 Q158.931 403.764 162.311 402.977 M160.598 395.593 Q160.598 398.278 162.265 399.783 Q163.954 401.287 166.987 401.287 Q169.996 401.287 171.686 399.783 Q173.399 398.278 173.399 395.593 Q173.399 392.908 171.686 391.403 Q169.996 389.898 166.987 389.898 Q163.954 389.898 162.265 391.403 Q160.598 392.908 160.598 395.593 Z" fill="#000000" fill-rule="nonzero" fill-opacity="1" /><path clip-path="url(#clip540)" d="M52.1495 101.127 L59.7884 101.127 L59.7884 74.7609 L51.4782 76.4276 L51.4782 72.1683 L59.7421 70.5017 L64.418 70.5017 L64.418 101.127 L72.0568 101.127 L72.0568 105.062 L52.1495 105.062 L52.1495 101.127 Z" fill="#000000" fill-rule="nonzero" fill-opacity="1" /><path clip-path="url(#clip540)" d="M81.5012 99.1821 L86.3855 99.1821 L86.3855 105.062 L81.5012 105.062 L81.5012 99.1821 Z" fill="#000000" fill-rule="nonzero" fill-opacity="1" /><path clip-path="url(#clip540)" d="M106.571 73.5804 Q102.959 73.5804 101.131 77.1452 Q99.3252 80.6868 99.3252 87.8164 Q99.3252 94.9229 101.131 98.4877 Q102.959 102.029 106.571 102.029 Q110.205 102.029 112.01 98.4877 Q113.839 94.9229 113.839 87.8164 Q113.839 80.6868 112.01 77.1452 Q110.205 73.5804 106.571 73.5804 M106.571 69.8767 Q112.381 69.8767 115.436 74.4832 Q118.515 79.0665 118.515 87.8164 Q118.515 96.5432 115.436 101.15 Q112.381 105.733 106.571 105.733 Q100.76 105.733 97.6817 101.15 Q94.6262 96.5432 94.6262 87.8164 Q94.6262 79.0665 97.6817 74.4832 Q100.76 69.8767 106.571 69.8767 Z" fill="#000000" fill-rule="nonzero" fill-opacity="1" /><path clip-path="url(#clip540)" d="M127.543 101.127 L135.181 101.127 L135.181 74.7609 L126.871 76.4276 L126.871 72.1683 L135.135 70.5017 L139.811 70.5017 L139.811 101.127 L147.45 101.127 L147.45 105.062 L127.543 105.062 L127.543 101.127 Z" fill="#000000" fill-rule="nonzero" fill-opacity="1" /><path clip-path="url(#clip540)" d="M166.894 73.5804 Q163.283 73.5804 161.454 77.1452 Q159.649 80.6868 159.649 87.8164 Q159.649 94.9229 161.454 98.4877 Q163.283 102.029 166.894 102.029 Q170.529 102.029 172.334 98.4877 Q174.163 94.9229 174.163 87.8164 Q174.163 80.6868 172.334 77.1452 Q170.529 73.5804 166.894 73.5804 M166.894 69.8767 Q172.704 69.8767 175.76 74.4832 Q178.839 79.0665 178.839 87.8164 Q178.839 96.5432 175.76 101.15 Q172.704 105.733 166.894 105.733 Q161.084 105.733 158.005 101.15 Q154.95 96.5432 154.95 87.8164 Q154.95 79.0665 158.005 74.4832 Q161.084 69.8767 166.894 69.8767 Z" fill="#000000" fill-rule="nonzero" fill-opacity="1" /><polyline clip-path="url(#clip542)" style="stroke:#009af9; stroke-linecap:round; stroke-linejoin:round; stroke-width:4; stroke-opacity:1; fill:none" points="275.346,87.9763 276.354,87.9763 277.363,87.9763 278.371,87.9763 279.38,87.9763 280.388,87.9763 281.396,87.9763 282.405,87.9763 283.413,87.9763 284.422,87.9763 285.43,87.9763 286.439,87.9763 287.447,87.9763 288.456,87.9763 289.464,87.9763 290.473,87.9763 291.481,87.9763 292.489,87.9763 293.498,87.9763 294.506,87.9763 295.515,87.9763 296.523,87.9763 297.532,87.9763 298.54,87.9763 299.549,87.9763 300.557,87.9763 301.565,87.9763 302.574,87.9763 303.582,87.9763 304.591,87.9763 305.599,87.9763 306.608,87.9763 307.616,87.9763 308.625,87.9763 309.633,87.9763 310.642,87.9763 311.65,87.9763 312.658,87.9763 313.667,87.9763 314.675,87.9763 315.684,87.9763 316.692,87.9763 317.701,87.9763 318.709,87.9763 319.718,87.9763 320.726,87.9763 321.735,87.9763 322.743,87.9763 323.751,87.9763 324.76,87.9763 325.768,87.9763 326.777,87.9763 327.785,87.9763 328.794,87.9763 329.802,87.9763 330.811,87.9763 331.819,87.9763 332.827,87.9763 333.836,87.9763 334.844,87.9763 335.853,87.9763 336.861,87.9763 337.87,87.9763 338.878,87.9763 339.887,87.9763 340.895,87.9763 341.904,87.9763 342.912,87.9763 343.92,87.9763 344.929,87.9763 345.937,87.9763 346.946,87.9763 347.954,87.9763 348.963,87.9763 349.971,87.9763 350.98,87.9763 351.988,87.9763 352.997,87.9763 354.005,87.9763 355.013,87.9763 356.022,87.9763 357.03,87.9763 358.039,87.9763 359.047,87.9763 360.056,87.9763 361.064,87.9763 362.073,87.9763 363.081,87.9763 364.089,87.9763 365.098,87.9763 366.106,87.9763 367.115,87.9763 368.123,87.9763 369.132,87.9763 370.14,87.9763 371.149,87.9763 372.157,87.9763 373.166,87.9763 374.174,87.9763 375.182,87.9763 376.191,87.9763 377.199,1420.82 378.208,1445.72 379.216,867.112 380.225,385.927 381.233,704.882 382.242,1006.42 383.25,1016.91 384.259,1024.05 385.267,1028.52 386.275,1030.79 387.284,1031.33 388.292,1030.5 389.301,1028.49 390.309,1025.47 391.318,1021.61 392.326,1017.07 393.335,1011.97 394.343,1006.37 395.351,1000.34 396.36,993.939 397.368,987.228 398.377,980.267 399.385,973.117 400.394,965.788 401.402,958.34 402.411,950.8 403.419,943.194 404.428,935.545 405.436,927.881 406.444,920.227 407.453,912.611 408.461,905.039 409.47,897.548 410.478,890.167 411.487,882.901 412.495,875.758 413.504,868.744 414.512,861.865 415.521,855.129 416.529,848.544 417.537,842.113 418.546,835.868 419.554,829.817 420.563,823.958 421.571,818.288 422.58,812.806 423.588,807.509 424.597,802.394 425.605,797.459 426.613,792.701 427.622,788.121 428.63,783.752 429.639,779.564 430.647,775.556 431.656,771.726 432.664,768.074 433.673,764.596 434.681,761.293 435.69,758.161 436.698,755.198 437.706,752.402 438.715,749.775 439.723,747.319 440.732,745.013 441.74,742.852 442.749,740.834 443.757,738.958 444.766,737.221 445.774,735.62 446.783,734.153 447.791,732.818 448.799,731.612 449.808,730.535 450.816,729.584 451.825,728.741 452.833,727.98 453.842,727.324 454.85,726.759 455.859,726.275 456.867,725.858 457.875,725.496 458.884,725.177 459.892,724.891 460.901,724.625 461.909,724.369 462.918,724.111 463.926,723.84 464.935,723.547 465.943,723.22 466.952,722.855 467.96,722.436 468.968,721.949 469.977,721.38 470.985,720.714 471.994,719.935 473.002,719.031 474.011,717.986 475.019,716.785 476.028,715.414 477.036,713.858 478.045,712.103 479.053,710.133 480.061,708.003 481.07,705.667 482.078,703.106 483.087,700.317 484.095,697.297 485.104,694.042 486.112,690.549 487.121,686.815 488.129,682.835 489.137,678.606 490.146,674.124 491.154,669.386 492.163,664.388 493.171,659.126 494.18,653.64 495.188,647.921 496.197,641.962 497.205,635.775 498.214,629.37 499.222,622.757 500.23,615.947 501.239,608.951 502.247,601.779 503.256,594.442 504.264,586.95 505.273,579.314 506.281,571.544 507.29,563.652 508.298,555.649 509.307,547.557 510.315,539.404 511.323,531.195 512.332,522.948 513.34,514.683 514.349,506.42 515.357,498.178 516.366,489.978 517.374,481.837 518.383,473.776 519.391,465.814 520.399,457.97 521.408,450.264 522.416,442.715 523.425,435.342 524.433,428.159 525.442,421.15 526.45,414.361 527.459,407.803 528.467,401.488 529.476,395.425 530.484,389.626 531.492,384.102 532.501,378.864 533.509,373.921 534.518,369.286 535.526,364.969 536.535,360.981 537.543,357.333 538.552,354.035 539.56,351.1 540.569,348.451 541.577,346.11 542.585,344.106 543.594,342.425 544.602,341.053 545.611,339.976 546.619,339.179 547.628,338.65 548.636,338.373 549.645,338.335 550.653,338.523 551.661,338.924 552.67,339.523 553.678,340.307 554.687,341.263 555.695,342.378 556.704,343.618 557.712,344.968 558.721,346.407 559.729,347.911 560.738,349.459 561.746,351.027 562.754,352.594 563.763,354.135 564.771,355.63 565.78,357.054 566.788,358.386 567.797,359.602 568.805,360.68 569.814,361.596 570.822,362.329 571.831,362.884 572.839,363.326 573.847,363.539 574.856,363.52 575.864,363.266 576.873,362.773 577.881,362.037 578.89,361.053 579.898,359.818 580.907,358.329 581.915,356.58 582.923,354.569 583.932,352.291 584.94,349.742 585.949,346.918 586.957,343.816 587.966,340.43 588.974,336.759 589.983,332.904 590.991,328.804 592,324.472 593.008,319.924 594.016,315.177 595.025,310.249 596.033,305.154 597.042,299.911 598.05,294.536 599.059,289.047 600.067,283.459 601.076,277.791 602.084,272.059 603.093,266.28 604.101,260.472 605.109,254.652 606.118,248.837 607.126,243.027 608.135,237.261 609.143,231.565 610.152,225.953 611.16,220.444 612.169,215.053 613.177,209.798 614.185,204.694 615.194,199.758 616.202,195.006 617.211,190.454 618.219,186.119 619.228,182.017 620.236,178.164 621.245,174.576 622.253,171.268 623.262,168.257 624.27,165.534 625.278,163.036 626.287,160.841 627.295,158.944 628.304,157.34 629.312,156.026 630.321,154.994 631.329,154.242 632.338,153.764 633.346,153.555 634.354,153.611 635.363,153.927 636.371,154.499 637.38,155.321 638.388,156.39 639.397,157.7 640.405,159.249 641.414,161.031 642.422,162.978 643.431,165.095 644.439,167.383 645.447,169.822 646.456,172.393 647.464,175.076 648.473,177.852 649.481,180.702 650.49,183.606 651.498,186.545 652.507,189.5 653.515,192.451 654.524,195.381 655.532,198.27 656.54,201.099 657.549,203.849 658.557,206.502 659.566,209.064 660.574,211.578 661.583,213.955 662.591,216.186 663.6,218.265 664.608,220.184 665.616,221.936 666.625,223.513 667.633,224.908 668.642,226.112 669.65,227.118 670.659,227.918 671.667,228.505 672.676,228.87 673.684,229.005 674.693,228.902 675.701,228.553 676.709,227.949 677.718,227.182 678.726,226.206 679.735,225.001 680.743,223.578 681.752,221.948 682.76,220.119 683.769,218.103 684.777,215.91 685.786,213.549 686.794,211.032 687.802,208.368 688.811,205.568 689.819,202.641 690.828,199.599 691.836,196.452 692.845,193.211 693.853,189.885 694.862,186.484 695.87,183.007 696.878,179.492 697.887,175.95 698.895,172.395 699.904,168.838 700.912,165.293 701.921,161.771 702.929,158.284 703.938,154.847 704.946,151.47 705.955,148.168 706.963,144.952 707.971,141.836 708.98,138.831 709.988,135.952 710.997,133.211 712.005,130.621 713.014,128.168 714.022,125.835 715.031,123.673 716.039,121.684 717.048,119.867 718.056,118.226 719.064,116.761 720.073,115.474 721.081,114.366 722.09,113.44 723.098,112.696 724.107,112.135 725.115,111.76 726.124,111.571 727.132,111.569 728.14,111.757 729.149,112.135 730.157,112.705 731.166,113.434 732.174,114.323 733.183,115.378 734.191,116.589 735.2,117.948 736.208,119.446 737.217,121.074 738.225,122.824 739.233,124.687 740.242,126.653 741.25,128.714 742.259,130.862 743.267,133.086 744.276,135.38 745.284,137.733 746.293,140.137 747.301,142.583 748.31,145.062 749.318,147.582 750.326,150.114 751.335,152.648 752.343,155.178 753.352,157.695 754.36,160.19 755.369,162.657 756.377,165.086 757.386,167.471 758.394,169.802 759.402,172.073 760.411,174.274 761.419,176.399 762.428,178.438 763.436,180.385 764.445,182.231 765.453,183.969 766.462,185.601 767.47,187.162 768.479,188.607 769.487,189.937 770.495,191.152 771.504,192.252 772.512,193.239 773.521,194.111 774.529,194.871 775.538,195.517 776.546,196.051 777.555,196.473 778.563,196.784 779.572,196.983 780.58,197.071 781.588,197.048 782.597,196.916 783.605,196.673 784.614,196.325 785.622,195.9 786.631,195.382 787.639,194.779 788.648,194.095 789.656,193.337 790.664,192.512 791.673,191.624 792.681,190.681 793.69,189.688 794.698,188.653 795.707,187.58 796.715,186.475 797.724,185.347 798.732,184.199 799.741,183.039 800.749,181.872 801.757,180.705 802.766,179.544 803.774,178.377 804.783,177.229 805.791,176.105 806.8,175.009 807.808,173.946 808.817,172.92 809.825,171.936 810.834,170.998 811.842,170.112 812.85,169.281 813.859,168.51 814.867,167.803 815.876,167.165 816.884,166.601 817.893,166.115 818.901,165.712 819.91,165.396 820.918,165.171 821.926,165.028 822.935,164.95 823.943,164.964 824.952,165.068 825.96,165.26 826.969,165.539 827.977,165.902 828.986,166.349 829.994,166.877 831.003,167.486 832.011,168.173 833.019,168.936 834.028,169.775 835.036,170.686 836.045,171.67 837.053,172.724 838.062,173.847 839.07,175.037 840.079,176.292 841.087,177.598 842.096,178.953 843.104,180.356 844.112,181.802 845.121,183.285 846.129,184.801 847.138,186.344 848.146,187.909 849.155,189.491 850.163,191.085 851.172,192.685 852.18,194.286 853.188,195.883 854.197,197.472 855.205,199.045 856.214,200.599 857.222,202.129 858.231,203.628 859.239,205.092 860.248,206.544 861.256,207.954 862.265,209.318 863.273,210.634 864.281,211.899 865.29,213.112 866.298,214.27 867.307,215.37 868.315,216.411 869.324,217.391 870.332,218.306 871.341,219.154 872.349,219.934 873.358,220.643 874.366,221.279 875.374,221.839 876.383,222.322 877.391,222.724 878.4,223.05 879.408,223.324 880.417,223.522 881.425,223.649 882.434,223.706 883.442,223.697 884.45,223.625 885.459,223.493 886.467,223.303 887.476,223.059 888.484,222.764 889.493,222.421 890.501,222.032 891.51,221.602 892.518,221.132 893.527,220.626 894.535,220.087 895.543,219.518 896.552,218.922 897.56,218.302 898.569,217.664 899.577,217.014 900.586,216.356 901.594,215.695 902.603,215.034 903.611,214.377 904.62,213.73 905.628,213.094 906.636,212.475 907.645,211.877 908.653,211.303 909.662,210.758 910.67,210.245 911.679,209.769 912.687,209.334 913.696,208.943 914.704,208.601 915.712,208.312 916.721,208.06 917.729,207.852 918.738,207.701 919.746,207.606 920.755,207.567 921.763,207.584 922.772,207.656 923.78,207.784 924.789,207.967 925.797,208.204 926.805,208.495 927.814,208.841 928.822,209.24 929.831,209.692 930.839,210.198 931.848,210.756 932.856,211.366 933.865,212.029 934.873,212.743 935.882,213.507 936.89,214.301 937.898,215.137 938.907,216.009 939.915,216.915 940.924,217.85 941.932,218.811 942.941,219.795 943.949,220.796 944.958,221.813 945.966,222.84 946.974,223.874 947.983,224.911 948.991,225.948 950,226.981 951.008,228.006 952.017,229.019 953.025,230.017 954.034,230.995 955.042,231.951 956.051,232.896 957.059,233.819 958.067,234.709 959.076,235.566 960.084,236.388 961.093,237.174 962.101,237.921 963.11,238.63 964.118,239.298 965.127,239.924 966.135,240.506 967.144,241.044 968.152,241.535 969.16,241.98 970.169,242.375 971.177,242.72 972.186,243.013 973.194,243.253 974.203,243.439 975.211,243.569 976.22,243.657 977.228,243.706 978.236,243.707 979.245,243.661 980.253,243.573 981.262,243.443 982.27,243.276 983.279,243.073 984.287,242.837 985.296,242.571 986.304,242.278 987.313,241.961 988.321,241.621 989.329,241.262 990.338,240.886 991.346,240.496 992.355,240.095 993.363,239.686 994.372,239.27 995.38,238.851 996.389,238.426 997.397,238 998.406,237.582 999.414,237.173 1000.42,236.777 1001.43,236.395 1002.44,236.029 1003.45,235.683 1004.46,235.357 1005.46,235.054 1006.47,234.777 1007.48,234.528 1008.49,234.309 1009.5,234.122 1010.51,233.969 1011.52,233.853 1012.52,233.776 1013.53,233.74 1014.54,233.747 1015.55,233.799 1016.56,233.89 1017.57,234.008 1018.57,234.172 1019.58,234.378 1020.59,234.627 1021.6,234.916 1022.61,235.243 1023.62,235.609 1024.63,236.01 1025.63,236.446 1026.64,236.915 1027.65,237.416 1028.66,237.946 1029.67,238.506 1030.68,239.093 1031.68,239.706 1032.69,240.343 1033.7,241.003 1034.71,241.685 1035.72,242.386 1036.73,243.107 1037.74,243.844 1038.74,244.592 1039.75,245.348 1040.76,246.111 1041.77,246.876 1042.78,247.643 1043.79,248.409 1044.79,249.17 1045.8,249.926 1046.81,250.673 1047.82,251.409 1048.83,252.131 1049.84,252.838 1050.84,253.527 1051.85,254.195 1052.86,254.84 1053.87,255.459 1054.88,256.051 1055.89,256.613 1056.9,257.142 1057.9,257.636 1058.91,258.105 1059.92,258.55 1060.93,258.958 1061.94,259.329 1062.95,259.663 1063.95,259.962 1064.96,260.225 1065.97,260.452 1066.98,260.645 1067.99,260.803 1069,260.927 1070.01,261.018 1071.01,261.075 1072.02,261.099 1073.03,261.09 1074.04,261.05 1075.05,260.977 1076.06,260.874 1077.06,260.739 1078.07,260.573 1079.08,260.378 1080.09,260.153 1081.1,259.908 1082.11,259.641 1083.12,259.353 1084.12,259.046 1085.13,258.722 1086.14,258.383 1087.15,258.032 1088.16,257.67 1089.17,257.299 1090.17,256.921 1091.18,256.539 1092.19,256.155 1093.2,255.77 1094.21,255.387 1095.22,255.008 1096.23,254.634 1097.23,254.269 1098.24,253.913 1099.25,253.57 1100.26,253.24 1101.27,252.927 1102.28,252.625 1103.28,252.332 1104.29,252.059 1105.3,251.808 1106.31,251.577 1107.32,251.369 1108.33,251.183 1109.34,251.019 1110.34,250.878 1111.35,250.761 1112.36,250.667 1113.37,250.598 1114.38,250.553 1115.39,250.534 1116.39,250.54 1117.4,250.571 1118.41,250.629 1119.42,250.714 1120.43,250.825 1121.44,250.964 1122.45,251.131 1123.45,251.326 1124.46,251.541 1125.47,251.775 1126.48,252.032 1127.49,252.312 1128.5,252.611 1129.5,252.929 1130.51,253.265 1131.52,253.616 1132.53,253.982 1133.54,254.361 1134.55,254.751 1135.55,255.152 1136.56,255.561 1137.57,255.977 1138.58,256.399 1139.59,256.825 1140.6,257.254 1141.61,257.684 1142.61,258.115 1143.62,258.544 1144.63,258.969 1145.64,259.391 1146.65,259.813 1147.66,260.23 1148.66,260.639 1149.67,261.037 1150.68,261.424 1151.69,261.8 1152.7,262.164 1153.71,262.514 1154.72,262.851 1155.72,263.174 1156.73,263.481 1157.74,263.772 1158.75,264.046 1159.76,264.303 1160.77,264.542 1161.77,264.761 1162.78,264.961 1163.79,265.14 1164.8,265.297 1165.81,265.433 1166.82,265.545 1167.83,265.634 1168.83,265.702 1169.84,265.758 1170.85,265.792 1171.86,265.805 1172.87,265.797 1173.88,265.771 1174.88,265.726 1175.89,265.664 1176.9,265.585 1177.91,265.491 1178.92,265.381 1179.93,265.258 1180.94,265.122 1181.94,264.974 1182.95,264.815 1183.96,264.645 1184.97,264.466 1185.98,264.278 1186.99,264.083 1187.99,263.88 1189,263.672 1190.01,263.459 1191.02,263.242 1192.03,263.022 1193.04,262.796 1194.05,262.568 1195.05,262.342 1196.06,262.118 1197.07,261.896 1198.08,261.677 1199.09,261.463 1200.1,261.254 1201.1,261.049 1202.11,260.852 1203.12,260.661 1204.13,260.477 1205.14,260.302 1206.15,260.136 1207.15,259.98 1208.16,259.835 1209.17,259.7 1210.18,259.578 1211.19,259.468 1212.2,259.371 1213.21,259.289 1214.21,259.221 1215.22,259.169 1216.23,259.129 1217.24,259.096 1218.25,259.078 1219.26,259.074 1220.26,259.084 1221.27,259.107 1222.28,259.142 1223.29,259.189 1224.3,259.248 1225.31,259.317 1226.32,259.397 1227.32,259.487 1228.33,259.586 1229.34,259.693 1230.35,259.809 1231.36,259.932 1232.37,260.063 1233.37,260.2 1234.38,260.342 1235.39,260.491 1236.4,260.644 1237.41,260.801 1238.42,260.962 1239.43,261.127 1240.43,261.294 1241.44,261.466 1242.45,261.638 1243.46,261.81 1244.47,261.98 1245.48,262.149 1246.48,262.315 1247.49,262.479 1248.5,262.64 1249.51,262.797 1250.52,262.95 1251.53,263.098 1252.54,263.242 1253.54,263.38 1254.55,263.512 1255.56,263.637 1256.57,263.756 1257.58,263.867 1258.59,263.97 1259.59,264.065 1260.6,264.151 1261.61,264.228 1262.62,264.295 1263.63,264.351 1264.64,264.397 1265.65,264.436 1266.65,264.469 1267.66,264.493 1268.67,264.507 1269.68,264.512 1270.69,264.508 1271.7,264.497 1272.7,264.477 1273.71,264.45 1274.72,264.416 1275.73,264.376 1276.74,264.329 1277.75,264.277 1278.76,264.22 1279.76,264.158 1280.77,264.091 1281.78,264.021 1282.79,263.947 1283.8,263.87 1284.81,263.79 1285.81,263.708 1286.82,263.624 1287.83,263.539 1288.84,263.453 1289.85,263.366 1290.86,263.279 1291.86,263.19 1292.87,263.1 1293.88,263.013 1294.89,262.928 1295.9,262.846 1296.91,262.767 1297.92,262.69 1298.92,262.617 1299.93,262.548 1300.94,262.482 1301.95,262.42 1302.96,262.362 1303.97,262.309 1304.97,262.259 1305.98,262.215 1306.99,262.175 1308,262.14 1309.01,262.111 1310.02,262.087 1311.03,262.069 1312.03,262.056 1313.04,262.05 1314.05,262.049 1315.06,262.056 1316.07,262.068 1317.08,262.088 1318.08,262.11 1319.09,262.137 1320.1,262.169 1321.11,262.205 1322.12,262.246 1323.13,262.291 1324.14,262.34 1325.14,262.392 1326.15,262.447 1327.16,262.504 1328.17,262.564 1329.18,262.626 1330.19,262.689 1331.19,262.753 1332.2,262.818 1333.21,262.883 1334.22,262.949 1335.23,263.013 1336.24,263.077 1337.25,263.14 1338.25,263.202 1339.26,263.262 1340.27,263.319 1341.28,263.374 1342.29,263.425 1343.3,263.474 1344.3,263.523 1345.31,263.57 1346.32,263.611 1347.33,263.648 1348.34,263.68 1349.35,263.707 1350.36,263.73 1351.36,263.748 1352.37,263.762 1353.38,263.771 1354.39,263.775 1355.4,263.776 1356.41,263.771 1357.41,263.763 1358.42,263.749 1359.43,263.732 1360.44,263.71 1361.45,263.684 1362.46,263.653 1363.46,263.618 1364.47,263.579 1365.48,263.536 1366.49,263.488 1367.5,263.437 1368.51,263.381 1369.52,263.321 1370.52,263.257 1371.53,263.188 1372.54,263.116 1373.55,263.042 1374.56,262.966 1375.57,262.888 1376.57,262.808 1377.58,262.727 1378.59,262.645 1379.6,262.561 1380.61,262.478 1381.62,262.393 1382.63,262.309 1383.63,262.225 1384.64,262.141 1385.65,262.059 1386.66,261.977 1387.67,261.896 1388.68,261.817 1389.68,261.74 1390.69,261.665 1391.7,261.592 1392.71,261.521 1393.72,261.454 1394.73,261.39 1395.74,261.329 1396.74,261.272 1397.75,261.219 1398.76,261.17 1399.77,261.125 1400.78,261.085 1401.79,261.047 1402.79,261.011 1403.8,260.979 1404.81,260.952 1405.82,260.93 1406.83,260.912 1407.84,260.899 1408.85,260.889 1409.85,260.883 1410.86,260.881 1411.87,260.883 1412.88,260.888 1413.89,260.896 1414.9,260.907 1415.9,260.921 1416.91,260.937 1417.92,260.956 1418.93,260.978 1419.94,261.001 1420.95,261.027 1421.96,261.055 1422.96,261.084 1423.97,261.114 1424.98,261.146 1425.99,261.179 1427,261.213 1428.01,261.248 1429.01,261.283 1430.02,261.319 1431.03,261.355 1432.04,261.391 1433.05,261.428 1434.06,261.464 1435.07,261.503 1436.07,261.54 1437.08,261.576 1438.09,261.609 1439.1,261.641 1440.11,261.672 1441.12,261.7 1442.12,261.726 1443.13,261.75 1444.14,261.771 1445.15,261.791 1446.16,261.808 1447.17,261.823 1448.17,261.835 1449.18,261.845 1450.19,261.853 1451.2,261.857 1452.21,261.86 1453.22,261.859 1454.23,261.855 1455.23,261.849 1456.24,261.839 1457.25,261.827 1458.26,261.812 1459.27,261.793 1460.28,261.771 1461.28,261.746 1462.29,261.717 1463.3,261.685 1464.31,261.65 1465.32,261.611 1466.33,261.569 1467.34,261.524 1468.34,261.478 1469.35,261.43 1470.36,261.379 1471.37,261.326 1472.38,261.271 1473.39,261.214 1474.39,261.156 1475.4,261.096 1476.41,261.034 1477.42,260.971 1478.43,260.908 1479.44,260.843 1480.45,260.778 1481.45,260.712 1482.46,260.645 1483.47,260.579 1484.48,260.512 1485.49,260.446 1486.5,260.379 1487.5,260.313 1488.51,260.248 1489.52,260.184 1490.53,260.12 1491.54,260.057 1492.55,259.996 1493.56,259.936 1494.56,259.877 1495.57,259.82 1496.58,259.765 1497.59,259.712 1498.6,259.661 1499.61,259.613 1500.61,259.562 1501.62,259.515 1502.63,259.47 1503.64,259.427 1504.65,259.388 1505.66,259.35 1506.67,259.315 1507.67,259.283 1508.68,259.253 1509.69,259.225 1510.7,259.2 1511.71,259.177 1512.72,259.156 1513.72,259.137 1514.73,259.121 1515.74,259.107 1516.75,259.094 1517.76,259.084 1518.77,259.076 1519.77,259.07 1520.78,259.065 1521.79,259.063 1522.8,259.062 1523.81,259.063 1524.82,259.066 1525.83,259.071 1526.83,259.077 1527.84,259.085 1528.85,259.095 1529.86,259.106 1530.87,259.119 1531.88,259.133 1532.88,259.148 1533.89,259.165 1534.9,259.184 1535.91,259.203 1536.92,259.224 1537.93,259.246 1538.94,259.268 1539.94,259.29 1540.95,259.312 1541.96,259.335 1542.97,259.358 1543.98,259.381 1544.99,259.404 1545.99,259.427 1547,259.45 1548.01,259.472 1549.02,259.494 1550.03,259.516 1551.04,259.538 1552.05,259.558 1553.05,259.579 1554.06,259.599 1555.07,259.617 1556.08,259.636 1557.09,259.653 1558.1,259.669 1559.1,259.685 1560.11,259.699 1561.12,259.712 1562.13,259.724 1563.14,259.734 1564.15,259.744 1565.16,259.751 1566.16,259.758 1567.17,259.762 1568.18,259.765 1569.19,259.767 1570.2,259.766 1571.21,259.764 1572.21,259.76 1573.22,259.756 1574.23,259.751 1575.24,259.744 1576.25,259.735 1577.26,259.725 1578.27,259.713 1579.27,259.7 1580.28,259.686 1581.29,259.67 1582.3,259.653 1583.31,259.635 1584.32,259.615 1585.32,259.594 1586.33,259.573 1587.34,259.55 1588.35,259.526 1589.36,259.501 1590.37,259.475 1591.38,259.448 1592.38,259.421 1593.39,259.392 1594.4,259.363 1595.41,259.333 1596.42,259.303 1597.43,259.272 1598.43,259.24 1599.44,259.208 1600.45,259.176 1601.46,259.143 1602.47,259.109 1603.48,259.076 1604.48,259.042 1605.49,259.008 1606.5,258.974 1607.51,258.939 1608.52,258.905 1609.53,258.87 1610.54,258.834 1611.54,258.799 1612.55,258.765 1613.56,258.73 1614.57,258.696 1615.58,258.662 1616.59,258.629 1617.59,258.596 1618.6,258.564 1619.61,258.532 1620.62,258.5 1621.63,258.469 1622.64,258.439 1623.65,258.409 1624.65,258.379 1625.66,258.351 1626.67,258.323 1627.68,258.296 1628.69,258.269 1629.7,258.243 1630.7,258.218 1631.71,258.194 1632.72,258.171 1633.73,258.148 1634.74,258.127 1635.75,258.106 1636.76,258.086 1637.76,258.068 1638.77,258.05 1639.78,258.033 1640.79,258.018 1641.8,258.003 1642.81,257.99 1643.81,257.978 1644.82,257.967 1645.83,257.957 1646.84,257.948 1647.85,257.939 1648.86,257.932 1649.87,257.925 1650.87,257.919 1651.88,257.915 1652.89,257.911 1653.9,257.908 1654.91,257.907 1655.92,257.906 1656.92,257.906 1657.93,257.906 1658.94,257.908 1659.95,257.91 1660.96,257.913 1661.97,257.917 1662.98,257.921 1663.98,257.926 1664.99,257.931 1666,257.937 1667.01,257.944 1668.02,257.95 1669.03,257.958 1670.03,257.965 1671.04,257.973 1672.05,257.982 1673.06,257.99 1674.07,257.999 1675.08,258.008 1676.08,258.017 1677.09,258.027 1678.1,258.036 1679.11,258.046 1680.12,258.056 1681.13,258.065 1682.14,258.075 1683.14,258.084 1684.15,258.094 1685.16,258.103 1686.17,258.112 1687.18,258.121 1688.19,258.13 1689.19,258.14 1690.2,258.149 1691.21,258.158 1692.22,258.166 1693.23,258.174 1694.24,258.181 1695.25,258.187 1696.25,258.194 1697.26,258.199 1698.27,258.204 1699.28,258.209 1700.29,258.213 1701.3,258.216 1702.3,258.219 1703.31,258.222 1704.32,258.223 1705.33,258.225 1706.34,258.226 1707.35,258.226 1708.36,258.226 1709.36,258.225 1710.37,258.224 1711.38,258.222 1712.39,258.22 1713.4,258.217 1714.41,258.214 1715.41,258.21 1716.42,258.206 1717.43,258.201 1718.44,258.196 1719.45,258.19 1720.46,258.184 1721.47,258.177 1722.47,258.17 1723.48,258.163 1724.49,258.154 1725.5,258.146 1726.51,258.136 1727.52,258.127 1728.52,258.117 1729.53,258.106 1730.54,258.095 1731.55,258.083 1732.56,258.071 1733.57,258.059 1734.58,258.046 1735.58,258.033 1736.59,258.021 1737.6,258.008 1738.61,257.995 1739.62,257.983 1740.63,257.97 1741.63,257.958 1742.64,257.945 1743.65,257.933 1744.66,257.921 1745.67,257.909 1746.68,257.897 1747.68,257.885 1748.69,257.874 1749.7,257.862 1750.71,257.851 1751.72,257.84 1752.73,257.829 1753.74,257.819 1754.74,257.808 1755.75,257.798 1756.76,257.789 1757.77,257.779 1758.78,257.77 1759.79,257.761 1760.79,257.753 1761.8,257.745 1762.81,257.737 1763.82,257.73 1764.83,257.723 1765.84,257.716 1766.85,257.71 1767.85,257.705 1768.86,257.699 1769.87,257.695 1770.88,257.691 1771.89,257.687 1772.9,257.684 1773.9,257.681 1774.91,257.679 1775.92,257.678 1776.93,257.677 1777.94,257.676 1778.95,257.676 1779.96,257.676 1780.96,257.677 1781.97,257.677 1782.98,257.678 1783.99,257.679 1785,257.68 1786.01,257.682 1787.01,257.683 1788.02,257.685 1789.03,257.686 1790.04,257.688 1791.05,257.69 1792.06,257.693 1793.07,257.695 1794.07,257.697 1795.08,257.7 1796.09,257.702 1797.1,257.705 1798.11,257.708 1799.12,257.711 1800.12,257.714 1801.13,257.717 1802.14,257.72 1803.15,257.723 1804.16,257.726 1805.17,257.729 1806.18,257.732 1807.18,257.735 1808.19,257.738 1809.2,257.742 1810.21,257.745 1811.22,257.748 1812.23,257.751 1813.23,257.754 1814.24,257.757 1815.25,257.76 1816.26,257.763 1817.27,257.766 1818.28,257.768 1819.29,257.771 1820.29,257.774 1821.3,257.776 1822.31,257.778 1823.32,257.781 1824.33,257.783 1825.34,257.785 1826.34,257.787 1827.35,257.788 1828.36,257.79 1829.37,257.791 1830.38,257.792 1831.39,257.794 1832.39,257.796 1833.4,257.798 1834.41,257.8 1835.42,257.802 1836.43,257.805 1837.44,257.808 1838.45,257.811 1839.45,257.814 1840.46,257.817 1841.47,257.82 1842.48,257.824 1843.49,257.827 1844.5,257.831 1845.5,257.835 1846.51,257.839 1847.52,257.843 1848.53,257.847 1849.54,257.851 1850.55,257.855 1851.56,257.86 1852.56,257.864 1853.57,257.869 1854.58,257.873 1855.59,257.878 1856.6,257.882 1857.61,257.887 1858.61,257.892 1859.62,257.897 1860.63,257.901 1861.64,257.906 1862.65,257.911 1863.66,257.916 1864.67,257.921 1865.67,257.925 1866.68,257.93 1867.69,257.935 1868.7,257.939 1869.71,257.944 1870.72,257.949 1871.72,257.953 1872.73,257.958 1873.74,257.962 1874.75,257.967 1875.76,257.971 1876.77,257.975 1877.78,257.979 1878.78,257.983 1879.79,257.989 1880.8,257.993 1881.81,257.998 1882.82,258.001 1883.83,258.005 1884.83,258.007 1885.84,258.009 1886.85,258.011 1887.86,258.012 1888.87,258.013 1889.88,258.014 1890.89,258.014 1891.89,258.013 1892.9,258.012 1893.91,258.011 1894.92,258.01 1895.93,258.008 1896.94,258.005 1897.94,258.003 1898.95,258 1899.96,257.997 1900.97,257.993 1901.98,257.99 1902.99,257.986 1903.99,257.981 1905,257.977 1906.01,257.972 1907.02,257.967 1908.03,257.962 1909.04,257.957 1910.05,257.952 1911.05,257.946 1912.06,257.941 1913.07,257.935 1914.08,257.929 1915.09,257.923 1916.1,257.917 1917.1,257.911 1918.11,257.905 1919.12,257.899 1920.13,257.893 1921.14,257.887 1922.15,257.881 1923.16,257.875 1924.16,257.869 1925.17,257.863 1926.18,257.857 1927.19,257.851 1928.2,257.846 1929.21,257.84 1930.21,257.834 1931.22,257.828 1932.23,257.821 1933.24,257.815 1934.25,257.809 1935.26,257.805 1936.27,257.801 1937.27,257.797 1938.28,257.795 1939.29,257.793 1940.3,257.792 1941.31,257.791 1942.32,257.791 1943.32,257.791 1944.33,257.792 1945.34,257.794 1946.35,257.796 1947.36,257.799 1948.37,257.802 1949.38,257.806 1950.38,257.81 1951.39,257.814 1952.4,257.819 1953.41,257.825 1954.42,257.831 1955.43,257.837 1956.43,257.844 1957.44,257.851 1958.45,257.858 1959.46,257.866 1960.47,257.874 1961.48,257.882 1962.49,257.891 1963.49,257.899 1964.5,257.908 1965.51,257.918 1966.52,257.927 1967.53,257.937 1968.54,257.947 1969.54,257.957 1970.55,257.967 1971.56,257.978 1972.57,257.988 1973.58,257.999 1974.59,258.009 1975.6,258.02 1976.6,258.031 1977.61,258.042 1978.62,258.053 1979.63,258.063 1980.64,258.074 1981.65,258.085 1982.65,258.096 1983.66,258.107 1984.67,258.117 1985.68,258.13 1986.69,258.142 1987.7,258.154 1988.7,258.165 1989.71,258.175 1990.72,258.184 1991.73,258.193 1992.74,258.201 1993.75,258.208 1994.76,258.214 1995.76,258.22 1996.77,258.225 1997.78,258.23 1998.79,258.234 1999.8,258.237 2000.81,258.24 2001.81,258.242 2002.82,258.244 2003.83,258.245 2004.84,258.245 2005.85,258.246 2006.86,258.245 2007.87,258.244 2008.87,258.243 2009.88,258.241 2010.89,258.239 2011.9,258.237 2012.91,258.234 2013.92,258.231 2014.92,258.227 2015.93,258.223 2016.94,258.219 2017.95,258.214 2018.96,258.21 2019.97,258.205 2020.98,258.2 2021.98,258.194 2022.99,258.188 2024,258.183 2025.01,258.177 2026.02,258.17 2027.03,258.164 2028.03,258.158 2029.04,258.151 2030.05,258.145 2031.06,258.138 2032.07,258.132 2033.08,258.125 2034.09,258.118 2035.09,258.111 2036.1,258.105 2037.11,258.098 2038.12,258.092 2039.13,258.085 2040.14,258.079 2041.14,258.072 2042.15,258.066 2043.16,258.06 2044.17,258.055 2045.18,258.046 2046.19,258.039 2047.2,258.032 2048.2,258.026 2049.21,258.021 2050.22,258.017 2051.23,258.013 2052.24,258.01 2053.25,258.008 2054.25,258.006 2055.26,258.005 2056.27,258.004 2057.28,258.004 2058.29,258.005 2059.3,258.006 2060.3,258.008 2061.31,258.01 2062.32,258.013 2063.33,258.016 2064.34,258.02 2065.35,258.024 2066.36,258.028 2067.36,258.033 2068.37,258.038 2069.38,258.044 2070.39,258.05 2071.4,258.056 2072.41,258.063 2073.41,258.07 2074.42,258.077 2075.43,258.084 2076.44,258.092 2077.45,258.1 2078.46,258.108 2079.47,258.116 2080.47,258.125 2081.48,258.133 2082.49,258.142 2083.5,258.15 2084.51,258.159 2085.52,258.168 2086.52,258.177 2087.53,258.186 2088.54,258.195 2089.55,258.204 2090.56,258.212 2091.57,258.221 2092.58,258.23 2093.58,258.238 2094.59,258.247 2095.6,258.255 2096.61,258.263 2097.62,258.271 2098.63,258.279 2099.63,258.287 2100.64,258.294 2101.65,258.301 2102.66,258.308 2103.67,258.315 2104.68,258.321 2105.69,258.327 2106.69,258.333 2107.7,258.339 2108.71,258.346 2109.72,258.352 2110.73,258.358 2111.74,258.363 2112.74,258.367 2113.75,258.371 2114.76,258.374 2115.77,258.377 2116.78,258.379 2117.79,258.381 2118.8,258.382 2119.8,258.383 2120.81,258.383 2121.82,258.383 2122.83,258.383 2123.84,258.382 2124.85,258.38 2125.85,258.379 2126.86,258.377 2127.87,258.374 2128.88,258.372 2129.89,258.368 2130.9,258.365 2131.91,258.362 2132.91,258.358 2133.92,258.354 2134.93,258.35 2135.94,258.345 2136.95,258.34 2137.96,258.336 2138.96,258.331 2139.97,258.326 2140.98,258.32 2141.99,258.315 2143,258.31 2144.01,258.304 2145.01,258.299 2146.02,258.293 2147.03,258.287 2148.04,258.282 2149.05,258.276 2150.06,258.271 2151.07,258.265 2152.07,258.26 2153.08,258.255 2154.09,258.249 2155.1,258.244 2156.11,258.239 2157.12,258.234 2158.12,258.23 2159.13,258.225 2160.14,258.221 2161.15,258.217 2162.16,258.213 2163.17,258.209 2164.18,258.206 2165.18,258.203 2166.19,258.2 2167.2,258.198 2168.21,258.196 2169.22,258.194 2170.23,258.193 2171.23,258.192 2172.24,258.191 2173.25,258.191 2174.26,258.19 2175.27,258.19 2176.28,258.19 2177.29,258.19 2178.29,258.19 2179.3,258.191 2180.31,258.191 2181.32,258.193 2182.33,258.194 2183.34,258.195 2184.34,258.197 2185.35,258.199 2186.36,258.201 2187.37,258.203 2188.38,258.206 2189.39,258.208 2190.4,258.211 2191.4,258.214 2192.41,258.217 2193.42,258.22 2194.43,258.224 2195.44,258.227 2196.45,258.231 2197.45,258.234 2198.46,258.238 2199.47,258.242 2200.48,258.246 2201.49,258.25 2202.5,258.254 2203.51,258.258 2204.51,258.262 2205.52,258.266 2206.53,258.27 2207.54,258.274 2208.55,258.278 2209.56,258.282 2210.56,258.286 2211.57,258.291 2212.58,258.295 2213.59,258.299 2214.6,258.303 2215.61,258.307 2216.61,258.31 2217.62,258.314 2218.63,258.318 2219.64,258.322 2220.65,258.325 2221.66,258.328 2222.67,258.332 2223.67,258.335 2224.68,258.338 2225.69,258.341 2226.7,258.344 2227.71,258.346 2228.72,258.349 2229.72,258.351 2230.73,258.353 2231.74,258.355 2232.75,258.357 2233.76,258.358 2234.77,258.359 2235.78,258.36 2236.78,258.361 2237.79,258.362 2238.8,258.362 2239.81,258.362 2240.82,258.362 2241.83,258.361 2242.83,258.361 2243.84,258.36 2244.85,258.358 2245.86,258.357 2246.87,258.355 2247.88,258.354 2248.89,258.352 2249.89,258.351 2250.9,258.349 2251.91,258.348 2252.92,258.346 2253.93,258.344 2254.94,258.343 2255.94,258.341 2256.95,258.339 2257.96,258.338 2258.97,258.336 2259.98,258.334 2260.99,258.333 2262,258.331 2263,258.329 2264.01,258.328 2265.02,258.326 2266.03,258.325 2267.04,258.323 2268.05,258.322 2269.05,258.321 2270.06,258.319 2271.07,258.318 2272.08,258.317 2273.09,258.316 2274.1,258.315 2275.11,258.314 2276.11,258.313 2277.12,258.313 2278.13,258.312 2279.14,258.312 2280.15,258.311 2281.16,258.311 2282.16,258.311 2283.17,258.311 2284.18,258.311 2285.19,258.311 2286.2,258.312 2287.21,258.312 2288.22,258.313 2289.22,258.314 2290.23,258.315 2291.24,258.316 2292.25,258.318 "/>
<polyline clip-path="url(#clip542)" style="stroke:#e26f46; stroke-linecap:round; stroke-linejoin:round; stroke-width:4; stroke-opacity:1; fill:none" points="275.346,87.9763 275.447,87.9763 275.547,87.9763 275.749,87.9763 276.153,87.9763 276.959,87.9763 277.968,87.9763 278.976,87.9763 279.985,87.9763 280.993,87.9763 282.002,87.9763 283.01,87.9763 284.018,87.9763 285.027,87.9763 286.035,87.9763 287.044,87.9763 288.052,87.9763 289.061,87.9763 290.069,87.9763 291.078,87.9763 292.086,87.9763 293.095,87.9763 294.103,87.9763 295.111,87.9763 296.12,87.9763 297.128,87.9763 298.137,87.9763 299.145,87.9763 300.154,87.9763 301.162,87.9763 302.171,87.9763 303.179,87.9763 304.187,87.9763 305.196,87.9763 306.204,87.9763 307.213,87.9763 308.221,87.9763 309.23,87.9763 310.238,87.9763 311.247,87.9763 312.255,87.9763 313.264,87.9763 314.272,87.9763 315.28,87.9763 316.289,87.9763 317.297,87.9763 318.306,87.9763 319.314,87.9763 320.323,87.9763 321.331,87.9763 322.34,87.9763 323.348,87.9763 324.356,87.9763 325.365,87.9763 326.373,87.9763 327.382,87.9763 328.39,87.9763 329.399,87.9763 330.407,87.9763 331.416,87.9763 332.424,87.9763 333.433,87.9763 334.441,87.9763 335.449,87.9763 336.458,87.9763 337.466,87.9763 338.475,87.9763 339.483,87.9763 340.492,87.9763 341.5,87.9763 342.509,87.9763 343.517,87.9763 344.526,87.9763 345.534,87.9763 346.542,87.9763 347.551,87.9763 348.559,87.9763 349.568,87.9763 350.576,87.9763 351.585,87.9763 352.593,87.9763 353.602,87.9763 354.61,87.9763 355.618,87.9763 356.627,87.9763 357.635,87.9763 358.644,87.9763 359.652,87.9763 360.661,87.9763 361.669,87.9763 362.678,87.9763 363.686,87.9763 364.695,87.9763 365.703,87.9763 366.711,87.9763 367.72,87.9763 368.728,87.9763 369.737,87.9763 370.745,87.9763 371.754,87.9763 372.762,87.9763 373.771,87.9763 374.779,87.9763 375.788,87.9763 376.191,87.9763 376.254,800.774 376.308,804.61 376.417,812.055 376.526,819.279 376.743,832.899 376.961,845.736 377.178,857.834 377.614,880.422 378.049,900.627 378.919,934.573 379.702,958.712 380.485,977.932 381.268,993.086 382.051,1004.9 382.835,1013.86 383.843,1022.06 384.851,1027.34 385.86,1030.32 386.868,1031.47 387.877,1031.11 388.885,1029.5 389.894,1026.86 390.902,1023.35 391.911,1019.1 392.919,1014.22 393.928,1008.81 394.936,1002.94 395.944,996.683 396.953,990.104 397.961,983.253 398.97,976.178 399.978,968.917 400.987,961.512 401.995,954.004 403.004,946.41 404.012,938.762 405.02,931.112 406.029,923.463 407.037,915.805 408.046,908.226 409.054,900.764 410.063,893.287 411.071,885.88 412.08,878.811 413.088,871.769 414.097,864.49 415.105,857.8 416.113,851.474 417.122,844.735 418.13,838.273 419.139,832.517 420.147,826.506 421.156,820.38 422.164,815.02 423.173,809.693 424.181,804.421 425.19,799.418 426.198,794.602 427.206,789.92 428.215,785.481 429.223,781.254 430.232,777.128 431.24,773.199 432.249,769.522 433.257,765.961 434.266,762.533 435.274,759.364 436.282,756.356 437.291,753.37 438.299,750.699 439.308,748.38 440.316,745.845 441.325,743.428 442.333,741.574 443.342,739.68 444.35,737.625 445.359,736.097 446.367,734.801 447.375,733.253 448.384,731.972 449.392,730.89 450.401,729.868 451.409,728.963 452.418,728.198 453.426,727.487 454.435,726.852 455.443,726.354 456.452,725.913 457.46,725.485 458.468,725.156 459.477,724.893 460.485,724.598 461.494,724.336 462.502,724.18 463.511,723.904 464.519,723.491 465.528,723.374 466.536,723.228 467.544,722.555 468.553,722.024 469.561,721.785 470.57,721.027 471.578,720.036 472.587,719.448 473.595,718.546 474.604,717.215 475.612,715.912 476.621,714.472 477.629,712.8 478.637,710.954 479.646,708.936 480.654,706.665 481.663,704.174 482.671,701.51 483.68,698.59 484.688,695.397 485.697,692.011 486.705,688.391 487.714,684.467 488.722,680.316 489.73,675.995 490.739,671.307 491.747,666.293 492.756,661.262 493.764,655.964 494.773,650.198 495.781,644.346 496.79,638.407 497.798,631.999 498.806,625.374 499.815,618.743 500.823,611.828 501.832,604.691 502.84,597.411 503.849,589.962 504.857,582.345 505.866,574.616 506.874,566.771 507.883,558.788 508.891,550.724 509.899,542.612 510.908,534.413 511.916,526.151 512.925,517.936 513.933,509.706 514.942,501.35 515.95,493.145 516.959,485.185 517.967,476.971 518.976,468.908 519.984,461.134 520.992,453.265 522.001,445.494 523.009,438.171 524.018,430.855 525.026,423.716 526.035,416.845 527.043,410.186 528.052,403.759 529.06,397.605 530.068,391.709 531.077,386.081 532.085,380.763 533.094,375.75 534.102,371.023 535.111,366.622 536.119,362.57 537.128,358.8 538.136,355.328 539.145,352.296 540.153,349.569 541.161,346.96 542.17,344.87 543.178,343.231 544.187,341.619 545.195,340.327 546.204,339.607 547.212,338.977 548.221,338.518 549.229,338.494 550.238,338.665 551.246,338.901 552.254,339.502 553.263,340.376 554.271,341.209 555.28,342.23 556.288,343.545 557.297,344.866 558.305,346.183 559.314,347.729 560.322,349.314 561.33,350.751 562.339,352.298 563.347,353.893 564.356,355.34 565.364,356.743 566.373,358.165 567.381,359.399 568.39,360.452 569.398,361.492 570.407,362.365 571.415,362.975 572.423,363.443 573.432,363.725 574.44,363.779 575.449,363.609 576.457,363.212 577.466,362.558 578.474,361.649 579.483,360.495 580.491,359.071 581.5,357.368 582.508,355.408 583.516,353.187 584.525,350.664 585.533,347.88 586.542,344.895 587.55,341.592 588.559,337.951 589.567,334.216 590.576,330.267 591.584,325.92 592.592,321.43 593.601,316.868 594.609,311.961 595.618,306.833 596.626,301.707 597.635,296.379 598.643,290.892 599.652,285.318 600.66,279.65 601.669,273.893 602.677,268.099 603.685,262.276 604.694,256.412 605.702,250.558 606.711,244.748 607.719,238.96 608.728,233.213 609.736,227.602 610.745,222.088 611.753,216.614 612.762,211.316 613.77,206.229 614.778,201.238 615.787,196.417 616.795,191.882 617.804,187.527 618.812,183.275 619.821,179.422 620.829,175.809 621.838,172.356 622.846,169.264 623.854,166.486 624.863,163.854 625.871,161.538 626.88,159.608 627.888,157.904 628.897,156.443 629.905,155.373 630.914,154.582 631.922,153.978 632.931,153.727 633.939,153.872 634.947,154.09 635.956,154.614 636.964,155.502 637.973,156.494 638.981,157.695 639.99,159.292 640.998,161.025 642.007,162.849 643.015,164.947 644.024,167.236 645.032,169.554 646.04,172.048 647.049,174.756 648.057,177.451 649.066,180.222 650.074,183.129 651.083,186.016 652.091,188.887 653.1,191.863 654.108,194.817 655.116,197.65 656.125,200.506 657.133,203.33 658.142,206.016 659.15,208.629 660.159,211.186 661.167,213.566 662.176,215.786 663.184,217.932 664.193,219.902 665.201,221.657 666.209,223.26 667.218,224.68 668.226,225.897 669.235,226.913 670.243,227.724 671.252,228.316 672.26,228.689 673.269,228.85 674.277,228.787 675.286,228.496 676.294,227.991 677.302,227.267 678.311,226.318 679.319,225.159 680.328,223.802 681.336,222.225 682.345,220.437 683.353,218.494 684.362,216.366 685.37,214.029 686.378,211.549 687.387,208.938 688.395,206.146 689.404,203.22 690.412,200.213 691.421,197.075 692.429,193.788 693.438,190.494 694.446,187.15 695.455,183.655 696.463,180.147 697.471,176.685 698.48,173.127 699.488,169.53 700.497,166.035 701.505,162.532 702.514,159.046 703.522,155.622 704.531,152.256 705.539,148.955 706.548,145.748 707.556,142.64 708.564,139.624 709.573,136.727 710.581,133.967 711.59,131.331 712.598,128.825 713.607,126.5 714.615,124.331 715.624,122.264 716.632,120.416 717.64,118.785 718.649,117.255 719.657,115.903 720.666,114.816 721.674,113.868 722.683,113.07 723.691,112.509 724.7,112.132 725.708,111.891 726.717,111.869 727.725,112.063 728.733,112.378 729.742,112.866 730.75,113.585 731.759,114.434 732.767,115.365 733.776,116.565 734.784,117.895 735.793,119.297 736.801,120.906 737.81,122.661 738.818,124.431 739.826,126.342 740.835,128.417 741.843,130.53 742.852,132.699 743.86,135.01 744.869,137.365 745.877,139.709 746.886,142.155 747.894,144.701 748.902,147.141 749.911,149.638 750.919,152.211 751.928,154.679 752.936,157.13 753.945,159.682 754.953,162.121 755.962,164.52 756.97,166.9 757.979,169.218 758.987,171.474 759.995,173.666 761.004,175.786 762.012,177.822 763.021,179.776 764.029,181.642 765.038,183.409 766.046,185.076 767.055,186.645 768.063,188.104 769.071,189.45 770.08,190.692 771.088,191.826 772.097,192.822 773.105,193.71 774.114,194.521 775.122,195.173 776.131,195.686 777.139,196.142 778.148,196.476 779.156,196.644 780.164,196.745 781.173,196.8 782.181,196.642 783.19,196.412 784.198,196.144 785.207,195.704 786.215,195.166 787.224,194.642 788.232,193.975 789.241,193.23 790.249,192.437 791.257,191.573 792.266,190.649 793.274,189.679 794.283,188.659 795.291,187.595 796.3,186.504 797.308,185.386 798.317,184.24 799.325,183.081 800.333,181.924 801.342,180.748 802.35,179.565 803.359,178.423 804.367,177.291 805.376,176.15 806.384,175.057 807.393,174.014 808.401,172.974 809.41,171.978 810.418,171.055 811.426,170.172 812.435,169.341 813.443,168.574 814.452,167.871 815.46,167.234 816.469,166.671 817.477,166.184 818.486,165.769 819.494,165.435 820.503,165.185 821.511,165.016 822.519,164.929 823.528,164.933 824.536,165.022 825.545,165.19 826.553,165.454 827.562,165.812 828.57,166.231 829.579,166.737 830.587,167.36 831.595,168.046 832.604,168.788 833.612,169.639 834.621,170.571 835.629,171.538 836.638,172.591 837.646,173.762 838.655,174.926 839.663,176.124 840.672,177.466 841.68,178.835 842.688,180.174 843.697,181.626 844.705,183.125 845.714,184.603 846.722,186.142 847.731,187.74 848.739,189.292 849.748,190.854 850.756,192.49 851.765,194.079 852.773,195.666 853.781,197.261 854.79,198.838 855.798,200.396 856.807,201.937 857.815,203.449 858.824,204.927 859.832,206.376 860.841,207.786 861.849,209.147 862.857,210.465 863.866,211.741 864.874,212.949 865.883,214.095 866.891,215.206 867.9,216.25 868.908,217.207 869.917,218.115 870.925,218.968 871.934,219.726 872.942,220.415 873.95,221.052 874.959,221.608 875.967,222.089 876.976,222.501 877.984,222.84 878.993,223.106 880.001,223.305 881.01,223.435 882.018,223.495 883.027,223.489 884.035,223.423 885.043,223.292 886.052,223.101 887.06,222.857 888.069,222.559 889.077,222.205 890.086,221.811 891.094,221.379 892.103,220.889 893.111,220.364 894.119,219.843 895.128,219.263 896.136,218.634 897.145,218.031 898.153,217.413 899.162,216.735 900.17,216.08 901.179,215.482 902.187,214.792 903.196,214.124 904.204,213.52 905.212,212.868 906.221,212.219 907.229,211.673 908.238,211.106 909.246,210.561 910.255,210.065 911.263,209.6 912.272,209.171 913.28,208.786 914.289,208.445 915.297,208.149 916.305,207.903 917.314,207.71 918.322,207.566 919.331,207.477 920.339,207.445 921.348,207.469 922.356,207.545 923.365,207.684 924.373,207.886 925.381,208.129 926.39,208.431 927.398,208.82 928.407,209.236 929.415,209.688 930.424,210.232 931.432,210.825 932.441,211.429 933.449,212.106 934.458,212.876 935.466,213.612 936.474,214.403 937.483,215.276 938.491,216.13 939.5,217.005 940.508,217.977 941.517,218.932 942.525,219.904 943.534,220.907 944.542,221.921 945.551,222.943 946.559,223.976 947.567,225.011 948.576,226.042 949.584,227.074 950.593,228.099 951.601,229.108 952.61,230.106 953.618,231.093 954.627,232.049 955.635,232.974 956.643,233.893 957.652,234.78 958.66,235.614 959.669,236.428 960.677,237.216 961.686,237.943 962.694,238.629 963.703,239.29 964.711,239.899 965.72,240.458 966.728,240.973 967.736,241.44 968.745,241.857 969.753,242.227 970.762,242.549 971.77,242.818 972.779,243.04 973.787,243.216 974.796,243.341 975.804,243.419 976.813,243.454 977.821,243.444 978.829,243.386 979.838,243.293 980.846,243.166 981.855,242.985 982.863,242.769 983.872,242.543 984.88,242.275 985.889,241.962 986.897,241.644 987.905,241.309 988.914,240.929 989.922,240.542 990.931,240.177 991.939,239.754 992.948,239.307 993.956,238.914 994.965,238.505 995.973,238.045 996.982,237.637 997.99,237.243 998.998,236.823 1000.01,236.438 1001.02,236.093 1002.02,235.724 1003.03,235.372 1004.04,235.089 1005.05,234.798 1006.06,234.533 1007.07,234.309 1008.07,234.112 1009.08,233.947 1010.09,233.819 1011.1,233.725 1012.11,233.666 1013.12,233.648 1014.13,233.67 1015.13,233.727 1016.14,233.826 1017.15,233.97 1018.16,234.146 1019.17,234.357 1020.18,234.625 1021.18,234.929 1022.19,235.256 1023.2,235.632 1024.21,236.054 1025.22,236.494 1026.23,236.969 1027.24,237.491 1028.24,238.037 1029.25,238.611 1030.26,239.215 1031.27,239.843 1032.28,240.495 1033.29,241.17 1034.29,241.864 1035.3,242.573 1036.31,243.298 1037.32,244.036 1038.33,244.783 1039.34,245.536 1040.34,246.296 1041.35,247.058 1042.36,247.816 1043.37,248.575 1044.38,249.334 1045.39,250.072 1046.4,250.802 1047.4,251.536 1048.41,252.246 1049.42,252.927 1050.43,253.605 1051.44,254.266 1052.45,254.885 1053.45,255.487 1054.46,256.09 1055.47,256.63 1056.48,257.128 1057.49,257.641 1058.5,258.11 1059.51,258.509 1060.51,258.909 1061.52,259.281 1062.53,259.589 1063.54,259.881 1064.55,260.154 1065.56,260.359 1066.56,260.527 1067.57,260.693 1068.58,260.799 1069.59,260.869 1070.6,260.913 1071.61,260.919 1072.62,260.892 1073.62,260.835 1074.63,260.746 1075.64,260.624 1076.65,260.478 1077.66,260.303 1078.67,260.1 1079.67,259.875 1080.68,259.631 1081.69,259.359 1082.7,259.064 1083.71,258.765 1084.72,258.448 1085.73,258.105 1086.73,257.76 1087.74,257.411 1088.75,257.041 1089.76,256.667 1090.77,256.298 1091.78,255.923 1092.78,255.546 1093.79,255.173 1094.8,254.804 1095.81,254.439 1096.82,254.083 1097.83,253.736 1098.84,253.399 1099.84,253.075 1100.85,252.766 1101.86,252.471 1102.87,252.193 1103.88,251.935 1104.89,251.696 1105.89,251.475 1106.9,251.278 1107.91,251.107 1108.92,250.95 1109.93,250.818 1110.94,250.723 1111.95,250.646 1112.95,250.585 1113.96,250.562 1114.97,250.567 1115.98,250.583 1116.99,250.635 1118,250.712 1119,250.813 1120.01,250.939 1121.02,251.09 1122.03,251.264 1123.04,251.462 1124.05,251.684 1125.05,251.926 1126.06,252.188 1127.07,252.472 1128.08,252.774 1129.09,253.092 1130.1,253.429 1131.11,253.783 1132.11,254.144 1133.12,254.52 1134.13,254.918 1135.14,255.316 1136.15,255.714 1137.16,256.136 1138.16,256.561 1139.17,256.976 1140.18,257.404 1141.19,257.851 1142.2,258.268 1143.21,258.679 1144.22,259.122 1145.22,259.546 1146.23,259.938 1147.24,260.354 1148.25,260.771 1149.26,261.146 1150.27,261.522 1151.27,261.893 1152.28,262.246 1153.29,262.586 1154.3,262.912 1155.31,263.222 1156.32,263.515 1157.33,263.793 1158.33,264.052 1159.34,264.292 1160.35,264.514 1161.36,264.718 1162.37,264.9 1163.38,265.063 1164.38,265.209 1165.39,265.332 1166.4,265.432 1167.41,265.517 1168.42,265.584 1169.43,265.624 1170.44,265.648 1171.44,265.658 1172.45,265.643 1173.46,265.609 1174.47,265.563 1175.48,265.498 1176.49,265.415 1177.49,265.318 1178.5,265.206 1179.51,265.079 1180.52,264.94 1181.53,264.789 1182.54,264.626 1183.55,264.453 1184.55,264.271 1185.56,264.08 1186.57,263.882 1187.58,263.678 1188.59,263.468 1189.6,263.254 1190.6,263.037 1191.61,262.821 1192.62,262.598 1193.63,262.375 1194.64,262.163 1195.65,261.946 1196.65,261.717 1197.66,261.514 1198.67,261.321 1199.68,261.107 1200.69,260.909 1201.7,260.739 1202.71,260.555 1203.71,260.37 1204.72,260.219 1205.73,260.07 1206.74,259.927 1207.75,259.797 1208.76,259.679 1209.76,259.57 1210.77,259.476 1211.78,259.395 1212.79,259.323 1213.8,259.264 1214.81,259.221 1215.82,259.188 1216.82,259.164 1217.83,259.16 1218.84,259.168 1219.85,259.182 1220.86,259.212 1221.87,259.258 1222.87,259.309 1223.88,259.369 1224.89,259.447 1225.9,259.533 1226.91,259.628 1227.92,259.732 1228.93,259.845 1229.93,259.966 1230.94,260.095 1231.95,260.231 1232.96,260.372 1233.97,260.519 1234.98,260.671 1235.98,260.827 1236.99,260.987 1238,261.149 1239.01,261.314 1240.02,261.478 1241.03,261.646 1242.04,261.815 1243.04,261.978 1244.05,262.14 1245.06,262.305 1246.07,262.465 1247.08,262.618 1248.09,262.772 1249.09,262.922 1250.1,263.063 1251.11,263.2 1252.12,263.332 1253.13,263.457 1254.14,263.576 1255.15,263.688 1256.15,263.792 1257.16,263.888 1258.17,263.977 1259.18,264.057 1260.19,264.129 1261.2,264.193 1262.2,264.249 1263.21,264.295 1264.22,264.333 1265.23,264.364 1266.24,264.385 1267.25,264.396 1268.26,264.404 1269.26,264.403 1270.27,264.389 1271.28,264.37 1272.29,264.348 1273.3,264.315 1274.31,264.273 1275.31,264.232 1276.32,264.182 1277.33,264.118 1278.34,264.061 1279.35,264.003 1280.36,263.927 1281.36,263.85 1282.37,263.784 1283.38,263.702 1284.39,263.606 1285.4,263.534 1286.41,263.462 1287.42,263.367 1288.42,263.28 1289.43,263.198 1290.44,263.113 1291.45,263.029 1292.46,262.949 1293.47,262.868 1294.47,262.789 1295.48,262.716 1296.49,262.646 1297.5,262.575 1298.51,262.512 1299.52,262.452 1300.53,262.395 1301.53,262.344 1302.54,262.297 1303.55,262.255 1304.56,262.218 1305.57,262.186 1306.58,262.16 1307.58,262.139 1308.59,262.123 1309.6,262.113 1310.61,262.108 1311.62,262.109 1312.63,262.115 1313.64,262.125 1314.64,262.141 1315.65,262.165 1316.66,262.189 1317.67,262.217 1318.68,262.254 1319.69,262.294 1320.69,262.332 1321.7,262.379 1322.71,262.434 1323.72,262.482 1324.73,262.532 1325.74,262.596 1326.75,262.655 1327.75,262.709 1328.76,262.774 1329.77,262.843 1330.78,262.901 1331.79,262.964 1332.8,263.029 1333.8,263.092 1334.81,263.154 1335.82,263.215 1336.83,263.274 1337.84,263.331 1338.85,263.388 1339.86,263.441 1340.86,263.49 1341.87,263.538 1342.88,263.583 1343.89,263.623 1344.9,263.66 1345.91,263.693 1346.91,263.721 1347.92,263.746 1348.93,263.766 1349.94,263.782 1350.95,263.792 1351.96,263.799 1352.96,263.8 1353.97,263.797 1354.98,263.788 1355.99,263.776 1357,263.757 1358.01,263.734 1359.02,263.708 1360.02,263.676 1361.03,263.638 1362.04,263.598 1363.05,263.555 1364.06,263.504 1365.07,263.451 1366.07,263.396 1367.08,263.336 1368.09,263.271 1369.1,263.206 1370.11,263.137 1371.12,263.065 1372.13,262.991 1373.13,262.916 1374.14,262.838 1375.15,262.759 1376.16,262.679 1377.17,262.598 1378.18,262.516 1379.18,262.435 1380.19,262.353 1381.2,262.271 1382.21,262.19 1383.22,262.11 1384.23,262.03 1385.24,261.953 1386.24,261.878 1387.25,261.802 1388.26,261.728 1389.27,261.66 1390.28,261.593 1391.29,261.526 1392.29,261.464 1393.3,261.407 1394.31,261.349 1395.32,261.296 1396.33,261.247 1397.34,261.201 1398.35,261.159 1399.35,261.12 1400.36,261.085 1401.37,261.054 1402.38,261.027 1403.39,261.003 1404.4,260.983 1405.4,260.968 1406.41,260.955 1407.42,260.947 1408.43,260.942 1409.44,260.941 1410.45,260.942 1411.46,260.947 1412.46,260.956 1413.47,260.968 1414.48,260.982 1415.49,260.999 1416.5,261.02 1417.51,261.042 1418.51,261.066 1419.52,261.094 1420.53,261.123 1421.54,261.151 1422.55,261.184 1423.56,261.219 1424.56,261.251 1425.57,261.286 1426.58,261.324 1427.59,261.359 1428.6,261.393 1429.61,261.431 1430.62,261.468 1431.62,261.503 1432.63,261.538 1433.64,261.573 1434.65,261.606 1435.66,261.638 1436.67,261.67 1437.67,261.699 1438.68,261.726 1439.69,261.752 1440.7,261.776 1441.71,261.798 1442.72,261.817 1443.73,261.835 1444.73,261.848 1445.74,261.861 1446.75,261.871 1447.76,261.877 1448.77,261.88 1449.78,261.882 1450.78,261.88 1451.79,261.873 1452.8,261.866 1453.81,261.857 1454.82,261.841 1455.83,261.824 1456.84,261.806 1457.84,261.782 1458.85,261.755 1459.86,261.727 1460.87,261.696 1461.88,261.662 1462.89,261.625 1463.89,261.586 1464.9,261.544 1465.91,261.5 1466.92,261.454 1467.93,261.405 1468.94,261.355 1469.95,261.303 1470.95,261.249 1471.96,261.193 1472.97,261.136 1473.98,261.077 1474.99,261.017 1476,260.956 1477,260.896 1478.01,260.832 1479.02,260.768 1480.03,260.706 1481.04,260.642 1482.05,260.576 1483.06,260.513 1484.06,260.45 1485.07,260.386 1486.08,260.322 1487.09,260.26 1488.1,260.198 1489.11,260.137 1490.11,260.077 1491.12,260.017 1492.13,259.959 1493.14,259.903 1494.15,259.848 1495.16,259.794 1496.17,259.742 1497.17,259.692 1498.18,259.643 1499.19,259.596 1500.2,259.552 1501.21,259.509 1502.22,259.468 1503.22,259.429 1504.23,259.393 1505.24,259.358 1506.25,259.326 1507.26,259.297 1508.27,259.269 1509.27,259.243 1510.28,259.221 1511.29,259.2 1512.3,259.18 1513.31,259.164 1514.32,259.151 1515.33,259.138 1516.33,259.128 1517.34,259.121 1518.35,259.115 1519.36,259.111 1520.37,259.11 1521.38,259.11 1522.38,259.112 1523.39,259.116 1524.4,259.121 1525.41,259.128 1526.42,259.137 1527.43,259.147 1528.44,259.158 1529.44,259.171 1530.45,259.185 1531.46,259.2 1532.47,259.216 1533.48,259.233 1534.49,259.251 1535.49,259.269 1536.5,259.289 1537.51,259.309 1538.52,259.329 1539.53,259.349 1540.54,259.37 1541.55,259.391 1542.55,259.412 1543.56,259.434 1544.57,259.455 1545.58,259.475 1546.59,259.496 1547.6,259.516 1548.6,259.536 1549.61,259.556 1550.62,259.575 1551.63,259.593 1552.64,259.61 1553.65,259.627 1554.66,259.643 1555.66,259.658 1556.67,259.672 1557.68,259.685 1558.69,259.697 1559.7,259.707 1560.71,259.718 1561.71,259.726 1562.72,259.733 1563.73,259.74 1564.74,259.745 1565.75,259.748 1566.76,259.751 1567.77,259.752 1568.77,259.752 1569.78,259.75 1570.79,259.747 1571.8,259.743 1572.81,259.737 1573.82,259.73 1574.82,259.722 1575.83,259.713 1576.84,259.702 1577.85,259.69 1578.86,259.676 1579.87,259.661 1580.87,259.646 1581.88,259.628 1582.89,259.61 1583.9,259.591 1584.91,259.57 1585.92,259.548 1586.93,259.526 1587.93,259.502 1588.94,259.478 1589.95,259.452 1590.96,259.426 1591.97,259.398 1592.98,259.37 1593.98,259.341 1594.99,259.312 1596,259.282 1597.01,259.251 1598.02,259.22 1599.03,259.188 1600.04,259.156 1601.04,259.123 1602.05,259.09 1603.06,259.057 1604.07,259.023 1605.08,258.989 1606.09,258.955 1607.09,258.921 1608.1,258.887 1609.11,258.853 1610.12,258.819 1611.13,258.785 1612.14,258.751 1613.15,258.717 1614.15,258.684 1615.16,258.651 1616.17,258.618 1617.18,258.586 1618.19,258.554 1619.2,258.522 1620.2,258.491 1621.21,258.46 1622.22,258.43 1623.23,258.401 1624.24,258.372 1625.25,258.344 1626.26,258.317 1627.26,258.29 1628.27,258.264 1629.28,258.239 1630.29,258.215 1631.3,258.192 1632.31,258.169 1633.31,258.148 1634.32,258.127 1635.33,258.108 1636.34,258.089 1637.35,258.071 1638.36,258.054 1639.37,258.038 1640.37,258.024 1641.38,258.01 1642.39,257.997 1643.4,257.985 1644.41,257.974 1645.42,257.965 1646.42,257.956 1647.43,257.948 1648.44,257.941 1649.45,257.936 1650.46,257.931 1651.47,257.927 1652.48,257.924 1653.48,257.922 1654.49,257.921 1655.5,257.921 1656.51,257.921 1657.52,257.923 1658.53,257.925 1659.53,257.928 1660.54,257.932 1661.55,257.937 1662.56,257.942 1663.57,257.947 1664.58,257.954 1665.58,257.961 1666.59,257.968 1667.6,257.976 1668.61,257.985 1669.62,257.994 1670.63,258.003 1671.64,258.013 1672.64,258.022 1673.65,258.032 1674.66,258.042 1675.67,258.053 1676.68,258.063 1677.69,258.073 1678.69,258.084 1679.7,258.094 1680.71,258.105 1681.72,258.115 1682.73,258.125 1683.74,258.135 1684.75,258.144 1685.75,258.153 1686.76,258.162 1687.77,258.171 1688.78,258.179 1689.79,258.187 1690.8,258.194 1691.8,258.201 1692.81,258.207 1693.82,258.213 1694.83,258.218 1695.84,258.223 1696.85,258.227 1697.86,258.231 1698.86,258.233 1699.87,258.235 1700.88,258.237 1701.89,258.238 1702.9,258.238 1703.91,258.237 1704.91,258.236 1705.92,258.234 1706.93,258.232 1707.94,258.229 1708.95,258.225 1709.96,258.221 1710.97,258.216 1711.97,258.21 1712.98,258.204 1713.99,258.197 1715,258.19 1716.01,258.182 1717.02,258.173 1718.02,258.165 1719.03,258.156 1720.04,258.146 1721.05,258.136 1722.06,258.126 1723.07,258.115 1724.08,258.104 1725.08,258.093 1726.09,258.081 1727.1,258.07 1728.11,258.058 1729.12,258.046 1730.13,258.034 1731.13,258.022 1732.14,258.01 1733.15,257.998 1734.16,257.986 1735.17,257.974 1736.18,257.963 1737.18,257.951 1738.19,257.94 1739.2,257.928 1740.21,257.917 1741.22,257.907 1742.23,257.896 1743.24,257.886 1744.24,257.876 1745.25,257.867 1746.26,257.857 1747.27,257.848 1748.28,257.84 1749.29,257.832 1750.29,257.824 1751.3,257.817 1752.31,257.81 1753.32,257.803 1754.33,257.797 1755.34,257.791 1756.35,257.786 1757.35,257.781 1758.36,257.776 1759.37,257.772 1760.38,257.768 1761.39,257.764 1762.4,257.761 1763.4,257.758 1764.41,257.756 1765.42,257.753 1766.43,257.751 1767.44,257.749 1768.45,257.748 1769.46,257.746 1770.46,257.745 1771.47,257.744 1772.48,257.744 1773.49,257.743 1774.5,257.742 1775.51,257.742 1776.51,257.742 1777.52,257.741 1778.53,257.741 1779.54,257.741 1780.55,257.74 1781.56,257.74 1782.57,257.74 1783.57,257.74 1784.58,257.739 1785.59,257.739 1786.6,257.739 1787.61,257.738 1788.62,257.738 1789.62,257.737 1790.63,257.736 1791.64,257.735 1792.65,257.734 1793.66,257.733 1794.67,257.732 1795.68,257.731 1796.68,257.73 1797.69,257.728 1798.7,257.727 1799.71,257.725 1800.72,257.723 1801.73,257.722 1802.73,257.72 1803.74,257.719 1804.75,257.717 1805.76,257.715 1806.77,257.714 1807.78,257.712 1808.79,257.71 1809.79,257.709 1810.8,257.708 1811.81,257.707 1812.82,257.706 1813.83,257.705 1814.84,257.704 1815.84,257.704 1816.85,257.703 1817.86,257.703 1818.87,257.704 1819.88,257.704 1820.89,257.705 1821.89,257.706 1822.9,257.707 1823.91,257.709 1824.92,257.711 1825.93,257.714 1826.94,257.717 1827.95,257.72 1828.95,257.724 1829.96,257.728 1830.97,257.732 1831.98,257.737 1832.99,257.742 1834,257.748 1835,257.754 1836.01,257.76 1837.02,257.767 1838.03,257.773 1839.04,257.781 1840.05,257.789 1841.06,257.797 1842.06,257.805 1843.07,257.814 1844.08,257.822 1845.09,257.832 1846.1,257.841 1847.11,257.85 1848.11,257.86 1849.12,257.87 1850.13,257.879 1851.14,257.889 1852.15,257.899 1853.16,257.909 1854.17,257.919 1855.17,257.929 1856.18,257.939 1857.19,257.948 1858.2,257.958 1859.21,257.967 1860.22,257.976 1861.22,257.985 1862.23,257.994 1863.24,258.002 1864.25,258.01 1865.26,258.017 1866.27,258.024 1867.28,258.031 1868.28,258.037 1869.29,258.042 1870.3,258.047 1871.31,258.052 1872.32,258.056 1873.33,258.059 1874.33,258.062 1875.34,258.065 1876.35,258.066 1877.36,258.067 1878.37,258.068 1879.38,258.067 1880.39,258.067 1881.39,258.065 1882.4,258.063 1883.41,258.06 1884.42,258.057 1885.43,258.053 1886.44,258.048 1887.44,258.043 1888.45,258.037 1889.46,258.031 1890.47,258.024 1891.48,258.017 1892.49,258.009 1893.49,258.001 1894.5,257.993 1895.51,257.984 1896.52,257.975 1897.53,257.965 1898.54,257.955 1899.55,257.945 1900.55,257.935 1901.56,257.924 1902.57,257.914 1903.58,257.903 1904.59,257.893 1905.6,257.882 1906.6,257.872 1907.61,257.861 1908.62,257.851 1909.63,257.841 1910.64,257.831 1911.65,257.821 1912.66,257.812 1913.66,257.803 1914.67,257.794 1915.68,257.786 1916.69,257.778 1917.7,257.771 1918.71,257.764 1919.71,257.757 1920.72,257.752 1921.73,257.747 1922.74,257.742 1923.75,257.738 1924.76,257.735 1925.77,257.733 1926.77,257.731 1927.78,257.73 1928.79,257.729 1929.8,257.729 1930.81,257.73 1931.82,257.732 1932.82,257.735 1933.83,257.738 1934.84,257.742 1935.85,257.746 1936.86,257.751 1937.87,257.757 1938.88,257.764 1939.88,257.771 1940.89,257.779 1941.9,257.788 1942.91,257.797 1943.92,257.806 1944.93,257.816 1945.93,257.827 1946.94,257.838 1947.95,257.849 1948.96,257.861 1949.97,257.873 1950.98,257.885 1951.99,257.898 1952.99,257.911 1954,257.924 1955.01,257.937 1956.02,257.951 1957.03,257.964 1958.04,257.978 1959.04,257.991 1960.05,258.004 1961.06,258.018 1962.07,258.031 1963.08,258.044 1964.09,258.056 1965.1,258.069 1966.1,258.081 1967.11,258.093 1968.12,258.104 1969.13,258.115 1970.14,258.126 1971.15,258.136 1972.15,258.145 1973.16,258.155 1974.17,258.163 1975.18,258.171 1976.19,258.179 1977.2,258.186 1978.2,258.192 1979.21,258.198 1980.22,258.203 1981.23,258.207 1982.24,258.211 1983.25,258.214 1984.26,258.217 1985.26,258.218 1986.27,258.22 1987.28,258.22 1988.29,258.22 1989.3,258.22 1990.31,258.219 1991.31,258.217 1992.32,258.215 1993.33,258.212 1994.34,258.208 1995.35,258.205 1996.36,258.2 1997.37,258.196 1998.37,258.19 1999.38,258.185 2000.39,258.179 2001.4,258.173 2002.41,258.166 2003.42,258.159 2004.42,258.153 2005.43,258.145 2006.44,258.138 2007.45,258.131 2008.46,258.123 2009.47,258.116 2010.48,258.108 2011.48,258.1 2012.49,258.093 2013.5,258.085 2014.51,258.078 2015.52,258.071 2016.53,258.064 2017.53,258.057 2018.54,258.051 2019.55,258.045 2020.56,258.039 2021.57,258.033 2022.58,258.028 2023.59,258.023 2024.59,258.018 2025.6,258.014 2026.61,258.01 2027.62,258.007 2028.63,258.004 2029.64,258.002 2030.64,258 2031.65,257.998 2032.66,257.997 2033.67,257.997 2034.68,257.997 2035.69,257.997 2036.7,257.998 2037.7,258 2038.71,258.002 2039.72,258.004 2040.73,258.007 2041.74,258.01 2042.75,258.014 2043.75,258.018 2044.76,258.022 2045.77,258.027 2046.78,258.032 2047.79,258.038 2048.8,258.044 2049.8,258.05 2050.81,258.057 2051.82,258.063 2052.83,258.07 2053.84,258.078 2054.85,258.085 2055.86,258.093 2056.86,258.1 2057.87,258.108 2058.88,258.116 2059.89,258.124 2060.9,258.132 2061.91,258.14 2062.91,258.148 2063.92,258.156 2064.93,258.163 2065.94,258.171 2066.95,258.179 2067.96,258.186 2068.97,258.194 2069.97,258.201 2070.98,258.208 2071.99,258.215 2073,258.221 2074.01,258.227 2075.02,258.233 2076.02,258.239 2077.03,258.245 2078.04,258.25 2079.05,258.255 2080.06,258.259 2081.07,258.263 2082.08,258.267 2083.08,258.271 2084.09,258.274 2085.1,258.277 2086.11,258.28 2087.12,258.282 2088.13,258.284 2089.13,258.286 2090.14,258.287 2091.15,258.288 2092.16,258.289 2093.17,258.29 2094.18,258.29 2095.19,258.29 2096.19,258.29 2097.2,258.289 2098.21,258.288 2099.22,258.288 2100.23,258.286 2101.24,258.285 2102.24,258.284 2103.25,258.282 2104.26,258.28 2105.27,258.279 2106.28,258.277 2107.29,258.275 2108.3,258.273 2109.3,258.27 2110.31,258.268 2111.32,258.266 2112.33,258.264 2113.34,258.262 2114.35,258.26 2115.35,258.258 2116.36,258.256 2117.37,258.254 2118.38,258.252 2119.39,258.25 2120.4,258.249 2121.4,258.247 2122.41,258.246 2123.42,258.245 2124.43,258.244 2125.44,258.243 2126.45,258.242 2127.46,258.241 2128.46,258.241 2129.47,258.24 2130.48,258.24 2131.49,258.24 2132.5,258.24 2133.51,258.241 2134.51,258.241 2135.52,258.242 2136.53,258.243 2137.54,258.243 2138.55,258.245 2139.56,258.246 2140.57,258.247 2141.57,258.248 2142.58,258.25 2143.59,258.252 2144.6,258.253 2145.61,258.255 2146.62,258.257 2147.62,258.259 2148.63,258.261 2149.64,258.263 2150.65,258.265 2151.66,258.267 2152.67,258.269 2153.68,258.271 2154.68,258.272 2155.69,258.274 2156.7,258.276 2157.71,258.278 2158.72,258.28 2159.73,258.281 2160.73,258.283 2161.74,258.284 2162.75,258.286 2163.76,258.287 2164.77,258.288 2165.78,258.289 2166.79,258.29 2167.79,258.291 2168.8,258.291 2169.81,258.292 2170.82,258.292 2171.83,258.292 2172.84,258.292 2173.84,258.292 2174.85,258.292 2175.86,258.291 2176.87,258.291 2177.88,258.29 2178.89,258.289 2179.9,258.288 2180.9,258.287 2181.91,258.286 2182.92,258.285 2183.93,258.283 2184.94,258.282 2185.95,258.28 2186.95,258.278 2187.96,258.277 2188.97,258.275 2189.98,258.273 2190.99,258.271 2192,258.269 2193.01,258.267 2194.01,258.266 2195.02,258.264 2196.03,258.262 2197.04,258.26 2198.05,258.258 2199.06,258.257 2200.06,258.255 2201.07,258.254 2202.08,258.252 2203.09,258.251 2204.1,258.25 2205.11,258.249 2206.11,258.248 2207.12,258.247 2208.13,258.247 2209.14,258.246 2210.15,258.246 2211.16,258.246 2212.17,258.246 2213.17,258.246 2214.18,258.247 2215.19,258.248 2216.2,258.249 2217.21,258.25 2218.22,258.251 2219.22,258.253 2220.23,258.254 2221.24,258.256 2222.25,258.258 2223.26,258.26 2224.27,258.263 2225.28,258.266 2226.28,258.268 2227.29,258.271 2228.3,258.275 2229.31,258.278 2230.32,258.281 2231.33,258.285 2232.33,258.288 2233.34,258.292 2234.35,258.296 2235.36,258.3 2236.37,258.304 2237.38,258.308 2238.39,258.312 2239.39,258.317 2240.4,258.321 2241.41,258.325 2242.42,258.329 2243.43,258.333 2244.44,258.337 2245.44,258.341 2246.45,258.345 2247.46,258.349 2248.47,258.353 2249.48,258.357 2250.49,258.361 2251.5,258.364 2252.5,258.367 2253.51,258.37 2254.52,258.373 2255.53,258.376 2256.54,258.379 2257.55,258.381 2258.55,258.384 2259.56,258.386 2260.57,258.387 2261.58,258.389 2262.59,258.39 2263.6,258.391 2264.61,258.392 2265.61,258.393 2266.62,258.393 2267.63,258.393 2268.64,258.393 2269.65,258.393 2270.66,258.392 2271.66,258.392 2272.67,258.39 2273.68,258.389 2274.69,258.388 2275.7,258.386 2276.71,258.384 2277.71,258.382 2278.72,258.379 2279.73,258.377 2280.74,258.374 2281.75,258.371 2282.76,258.368 2283.77,258.365 2284.77,258.361 2285.78,258.358 2286.79,258.354 2287.8,258.351 2288.81,258.347 2289.82,258.343 2290.82,258.339 2291.83,258.335 2292.25,258.333 "/>
<path clip-path="url(#clip540)" d="M1876.41 1438.47 L2281.49 1438.47 L2281.49 1282.95 L1876.41 1282.95  Z" fill="#ffffff" fill-rule="evenodd" fill-opacity="1"/>
<polyline clip-path="url(#clip540)" style="stroke:#000000; stroke-linecap:round; stroke-linejoin:round; stroke-width:4; stroke-opacity:1; fill:none" points="1876.41,1438.47 2281.49,1438.47 2281.49,1282.95 1876.41,1282.95 1876.41,1438.47 "/>
<polyline clip-path="url(#clip540)" style="stroke:#009af9; stroke-linecap:round; stroke-linejoin:round; stroke-width:4; stroke-opacity:1; fill:none" points="1900.16,1334.79 2042.69,1334.79 "/>
<path clip-path="url(#clip540)" d="M2082.83 1335.87 Q2084.34 1336.38 2085.75 1338.05 Q2087.18 1339.71 2088.62 1342.63 L2093.36 1352.07 L2088.34 1352.07 L2083.92 1343.21 Q2082.21 1339.74 2080.59 1338.6 Q2078.99 1337.47 2076.21 1337.47 L2071.12 1337.47 L2071.12 1352.07 L2066.44 1352.07 L2066.44 1317.51 L2077 1317.51 Q2082.92 1317.51 2085.84 1319.99 Q2088.76 1322.47 2088.76 1327.47 Q2088.76 1330.73 2087.23 1332.88 Q2085.72 1335.04 2082.83 1335.87 M2071.12 1321.36 L2071.12 1333.63 L2077 1333.63 Q2080.38 1333.63 2082.09 1332.07 Q2083.83 1330.5 2083.83 1327.47 Q2083.83 1324.44 2082.09 1322.91 Q2080.38 1321.36 2077 1321.36 L2071.12 1321.36 Z" fill="#000000" fill-rule="nonzero" fill-opacity="1" /><path clip-path="url(#clip540)" d="M2113.41 1320.69 Q2108.32 1320.69 2105.31 1324.48 Q2102.32 1328.28 2102.32 1334.83 Q2102.32 1341.36 2105.31 1345.15 Q2108.32 1348.95 2113.41 1348.95 Q2118.5 1348.95 2121.46 1345.15 Q2124.45 1341.36 2124.45 1334.83 Q2124.45 1328.28 2121.46 1324.48 Q2118.5 1320.69 2113.41 1320.69 M2113.41 1316.89 Q2120.68 1316.89 2125.03 1321.77 Q2129.38 1326.63 2129.38 1334.83 Q2129.38 1343 2125.03 1347.88 Q2120.68 1352.75 2113.41 1352.75 Q2106.12 1352.75 2101.74 1347.88 Q2097.39 1343.02 2097.39 1334.83 Q2097.39 1326.63 2101.74 1321.77 Q2106.12 1316.89 2113.41 1316.89 Z" fill="#000000" fill-rule="nonzero" fill-opacity="1" /><path clip-path="url(#clip540)" d="M2141.37 1321.36 L2141.37 1348.23 L2147.02 1348.23 Q2154.17 1348.23 2157.48 1344.99 Q2160.82 1341.75 2160.82 1334.76 Q2160.82 1327.82 2157.48 1324.6 Q2154.17 1321.36 2147.02 1321.36 L2141.37 1321.36 M2136.7 1317.51 L2146.3 1317.51 Q2156.35 1317.51 2161.05 1321.7 Q2165.75 1325.87 2165.75 1334.76 Q2165.75 1343.69 2161.02 1347.88 Q2156.3 1352.07 2146.3 1352.07 L2136.7 1352.07 L2136.7 1317.51 Z" fill="#000000" fill-rule="nonzero" fill-opacity="1" /><path clip-path="url(#clip540)" d="M2183.92 1322.12 L2177.58 1339.32 L2190.28 1339.32 L2183.92 1322.12 M2181.28 1317.51 L2186.58 1317.51 L2199.75 1352.07 L2194.89 1352.07 L2191.74 1343.21 L2176.16 1343.21 L2173.02 1352.07 L2168.09 1352.07 L2181.28 1317.51 Z" fill="#000000" fill-rule="nonzero" fill-opacity="1" /><path clip-path="url(#clip540)" d="M2225.52 1318.65 L2225.52 1323.21 Q2222.85 1321.94 2220.49 1321.31 Q2218.13 1320.69 2215.93 1320.69 Q2212.11 1320.69 2210.03 1322.17 Q2207.97 1323.65 2207.97 1326.38 Q2207.97 1328.67 2209.33 1329.85 Q2210.72 1331.01 2214.57 1331.73 L2217.39 1332.31 Q2222.62 1333.3 2225.1 1335.82 Q2227.6 1338.32 2227.6 1342.54 Q2227.6 1347.56 2224.22 1350.15 Q2220.86 1352.75 2214.36 1352.75 Q2211.9 1352.75 2209.13 1352.19 Q2206.37 1351.63 2203.41 1350.55 L2203.41 1345.73 Q2206.26 1347.33 2208.99 1348.14 Q2211.72 1348.95 2214.36 1348.95 Q2218.36 1348.95 2220.54 1347.38 Q2222.71 1345.8 2222.71 1342.88 Q2222.71 1340.34 2221.14 1338.9 Q2219.59 1337.47 2216.02 1336.75 L2213.18 1336.19 Q2207.95 1335.15 2205.61 1332.93 Q2203.27 1330.71 2203.27 1326.75 Q2203.27 1322.17 2206.49 1319.53 Q2209.73 1316.89 2215.4 1316.89 Q2217.83 1316.89 2220.35 1317.33 Q2222.88 1317.77 2225.52 1318.65 Z" fill="#000000" fill-rule="nonzero" fill-opacity="1" /><path clip-path="url(#clip540)" d="M2248.15 1321.59 L2236.35 1340.04 L2248.15 1340.04 L2248.15 1321.59 M2246.93 1317.51 L2252.81 1317.51 L2252.81 1340.04 L2257.74 1340.04 L2257.74 1343.93 L2252.81 1343.93 L2252.81 1352.07 L2248.15 1352.07 L2248.15 1343.93 L2232.55 1343.93 L2232.55 1339.41 L2246.93 1317.51 Z" fill="#000000" fill-rule="nonzero" fill-opacity="1" /><polyline clip-path="url(#clip540)" style="stroke:#e26f46; stroke-linecap:round; stroke-linejoin:round; stroke-width:4; stroke-opacity:1; fill:none" points="1900.16,1386.63 2042.69,1386.63 "/>
<path clip-path="url(#clip540)" d="M2066.44 1369.35 L2071.12 1369.35 L2071.12 1403.91 L2066.44 1403.91 L2066.44 1369.35 Z" fill="#000000" fill-rule="nonzero" fill-opacity="1" /><path clip-path="url(#clip540)" d="M2085.1 1373.2 L2085.1 1400.07 L2090.75 1400.07 Q2097.9 1400.07 2101.21 1396.83 Q2104.54 1393.59 2104.54 1386.6 Q2104.54 1379.66 2101.21 1376.44 Q2097.9 1373.2 2090.75 1373.2 L2085.1 1373.2 M2080.42 1369.35 L2090.03 1369.35 Q2100.08 1369.35 2104.78 1373.54 Q2109.47 1377.71 2109.47 1386.6 Q2109.47 1395.53 2104.75 1399.72 Q2100.03 1403.91 2090.03 1403.91 L2080.42 1403.91 L2080.42 1369.35 Z" fill="#000000" fill-rule="nonzero" fill-opacity="1" /><path clip-path="url(#clip540)" d="M2127.65 1373.96 L2121.3 1391.16 L2134.01 1391.16 L2127.65 1373.96 M2125.01 1369.35 L2130.31 1369.35 L2143.48 1403.91 L2138.62 1403.91 L2135.47 1395.05 L2119.89 1395.05 L2116.74 1403.91 L2111.81 1403.91 L2125.01 1369.35 Z" fill="#000000" fill-rule="nonzero" fill-opacity="1" /></svg>
