<?xml version="1.0" encoding="utf-8"?>
<svg xmlns="http://www.w3.org/2000/svg" xmlns:xlink="http://www.w3.org/1999/xlink" width="600" height="400" viewBox="0 0 2400 1600">
<defs>
  <clipPath id="clip460">
    <rect x="0" y="0" width="2400" height="1600"/>
  </clipPath>
</defs>
<path clip-path="url(#clip460)" d="M0 1600 L2400 1600 L2400 0 L0 0  Z" fill="#ffffff" fill-rule="evenodd" fill-opacity="1"/>
<defs>
  <clipPath id="clip461">
    <rect x="480" y="0" width="1681" height="1600"/>
  </clipPath>
</defs>
<path clip-path="url(#clip460)" d="M214.839 1486.45 L2352.76 1486.45 L2352.76 47.2441 L214.839 47.2441  Z" fill="#ffffff" fill-rule="evenodd" fill-opacity="1"/>
<defs>
  <clipPath id="clip462">
    <rect x="214" y="47" width="2139" height="1440"/>
  </clipPath>
</defs>
<polyline clip-path="url(#clip462)" style="stroke:#000000; stroke-linecap:round; stroke-linejoin:round; stroke-width:2; stroke-opacity:0.1; fill:none" points="275.346,1486.45 275.346,47.2441 "/>
<polyline clip-path="url(#clip462)" style="stroke:#000000; stroke-linecap:round; stroke-linejoin:round; stroke-width:2; stroke-opacity:0.1; fill:none" points="779.572,1486.45 779.572,47.2441 "/>
<polyline clip-path="url(#clip462)" style="stroke:#000000; stroke-linecap:round; stroke-linejoin:round; stroke-width:2; stroke-opacity:0.1; fill:none" points="1283.8,1486.45 1283.8,47.2441 "/>
<polyline clip-path="url(#clip462)" style="stroke:#000000; stroke-linecap:round; stroke-linejoin:round; stroke-width:2; stroke-opacity:0.1; fill:none" points="1788.02,1486.45 1788.02,47.2441 "/>
<polyline clip-path="url(#clip462)" style="stroke:#000000; stroke-linecap:round; stroke-linejoin:round; stroke-width:2; stroke-opacity:0.1; fill:none" points="2292.25,1486.45 2292.25,47.2441 "/>
<polyline clip-path="url(#clip460)" style="stroke:#000000; stroke-linecap:round; stroke-linejoin:round; stroke-width:4; stroke-opacity:1; fill:none" points="214.839,1486.45 2352.76,1486.45 "/>
<polyline clip-path="url(#clip460)" style="stroke:#000000; stroke-linecap:round; stroke-linejoin:round; stroke-width:4; stroke-opacity:1; fill:none" points="275.346,1486.45 275.346,1467.55 "/>
<polyline clip-path="url(#clip460)" style="stroke:#000000; stroke-linecap:round; stroke-linejoin:round; stroke-width:4; stroke-opacity:1; fill:none" points="779.572,1486.45 779.572,1467.55 "/>
<polyline clip-path="url(#clip460)" style="stroke:#000000; stroke-linecap:round; stroke-linejoin:round; stroke-width:4; stroke-opacity:1; fill:none" points="1283.8,1486.45 1283.8,1467.55 "/>
<polyline clip-path="url(#clip460)" style="stroke:#000000; stroke-linecap:round; stroke-linejoin:round; stroke-width:4; stroke-opacity:1; fill:none" points="1788.02,1486.45 1788.02,1467.55 "/>
<polyline clip-path="url(#clip460)" style="stroke:#000000; stroke-linecap:round; stroke-linejoin:round; stroke-width:4; stroke-opacity:1; fill:none" points="2292.25,1486.45 2292.25,1467.55 "/>
<path clip-path="url(#clip460)" d="M275.346 1517.37 Q271.735 1517.37 269.906 1520.93 Q268.1 1524.47 268.1 1531.6 Q268.1 1538.71 269.906 1542.27 Q271.735 1545.82 275.346 1545.82 Q278.98 1545.82 280.786 1542.27 Q282.614 1538.71 282.614 1531.6 Q282.614 1524.47 280.786 1520.93 Q278.98 1517.37 275.346 1517.37 M275.346 1513.66 Q281.156 1513.66 284.211 1518.27 Q287.29 1522.85 287.29 1531.6 Q287.29 1540.33 284.211 1544.94 Q281.156 1549.52 275.346 1549.52 Q269.536 1549.52 266.457 1544.94 Q263.401 1540.33 263.401 1531.6 Q263.401 1522.85 266.457 1518.27 Q269.536 1513.66 275.346 1513.66 Z" fill="#000000" fill-rule="nonzero" fill-opacity="1" /><path clip-path="url(#clip460)" d="M769.849 1514.29 L788.206 1514.29 L788.206 1518.22 L774.132 1518.22 L774.132 1526.7 Q775.15 1526.35 776.169 1526.19 Q777.187 1526 778.206 1526 Q783.993 1526 787.372 1529.17 Q790.752 1532.34 790.752 1537.76 Q790.752 1543.34 787.28 1546.44 Q783.808 1549.52 777.488 1549.52 Q775.312 1549.52 773.044 1549.15 Q770.798 1548.78 768.391 1548.04 L768.391 1543.34 Q770.474 1544.47 772.697 1545.03 Q774.919 1545.58 777.396 1545.58 Q781.4 1545.58 783.738 1543.48 Q786.076 1541.37 786.076 1537.76 Q786.076 1534.15 783.738 1532.04 Q781.4 1529.94 777.396 1529.94 Q775.521 1529.94 773.646 1530.35 Q771.794 1530.77 769.849 1531.65 L769.849 1514.29 Z" fill="#000000" fill-rule="nonzero" fill-opacity="1" /><path clip-path="url(#clip460)" d="M1258.48 1544.91 L1266.12 1544.91 L1266.12 1518.55 L1257.81 1520.21 L1257.81 1515.95 L1266.08 1514.29 L1270.75 1514.29 L1270.75 1544.91 L1278.39 1544.91 L1278.39 1548.85 L1258.48 1548.85 L1258.48 1544.91 Z" fill="#000000" fill-rule="nonzero" fill-opacity="1" /><path clip-path="url(#clip460)" d="M1297.84 1517.37 Q1294.23 1517.37 1292.4 1520.93 Q1290.59 1524.47 1290.59 1531.6 Q1290.59 1538.71 1292.4 1542.27 Q1294.23 1545.82 1297.84 1545.82 Q1301.47 1545.82 1303.28 1542.27 Q1305.11 1538.71 1305.11 1531.6 Q1305.11 1524.47 1303.28 1520.93 Q1301.47 1517.37 1297.84 1517.37 M1297.84 1513.66 Q1303.65 1513.66 1306.7 1518.27 Q1309.78 1522.85 1309.78 1531.6 Q1309.78 1540.33 1306.7 1544.94 Q1303.65 1549.52 1297.84 1549.52 Q1292.03 1549.52 1288.95 1544.94 Q1285.89 1540.33 1285.89 1531.6 Q1285.89 1522.85 1288.95 1518.27 Q1292.03 1513.66 1297.84 1513.66 Z" fill="#000000" fill-rule="nonzero" fill-opacity="1" /><path clip-path="url(#clip460)" d="M1763.21 1544.91 L1770.85 1544.91 L1770.85 1518.55 L1762.54 1520.21 L1762.54 1515.95 L1770.8 1514.29 L1775.48 1514.29 L1775.48 1544.91 L1783.12 1544.91 L1783.12 1548.85 L1763.21 1548.85 L1763.21 1544.91 Z" fill="#000000" fill-rule="nonzero" fill-opacity="1" /><path clip-path="url(#clip460)" d="M1792.61 1514.29 L1810.96 1514.29 L1810.96 1518.22 L1796.89 1518.22 L1796.89 1526.7 Q1797.91 1526.35 1798.93 1526.19 Q1799.94 1526 1800.96 1526 Q1806.75 1526 1810.13 1529.17 Q1813.51 1532.34 1813.51 1537.76 Q1813.51 1543.34 1810.04 1546.44 Q1806.56 1549.52 1800.25 1549.52 Q1798.07 1549.52 1795.8 1549.15 Q1793.56 1548.78 1791.15 1548.04 L1791.15 1543.34 Q1793.23 1544.47 1795.45 1545.03 Q1797.68 1545.58 1800.15 1545.58 Q1804.16 1545.58 1806.5 1543.48 Q1808.83 1541.37 1808.83 1537.76 Q1808.83 1534.15 1806.5 1532.04 Q1804.16 1529.94 1800.15 1529.94 Q1798.28 1529.94 1796.4 1530.35 Q1794.55 1530.77 1792.61 1531.65 L1792.61 1514.29 Z" fill="#000000" fill-rule="nonzero" fill-opacity="1" /><path clip-path="url(#clip460)" d="M2271.02 1544.91 L2287.34 1544.91 L2287.34 1548.85 L2265.4 1548.85 L2265.4 1544.91 Q2268.06 1542.16 2272.64 1537.53 Q2277.25 1532.88 2278.43 1531.53 Q2280.67 1529.01 2281.55 1527.27 Q2282.46 1525.51 2282.46 1523.82 Q2282.46 1521.07 2280.51 1519.33 Q2278.59 1517.6 2275.49 1517.6 Q2273.29 1517.6 2270.84 1518.36 Q2268.41 1519.13 2265.63 1520.68 L2265.63 1515.95 Q2268.45 1514.82 2270.91 1514.24 Q2273.36 1513.66 2275.4 1513.66 Q2280.77 1513.66 2283.96 1516.35 Q2287.16 1519.03 2287.16 1523.52 Q2287.16 1525.65 2286.35 1527.57 Q2285.56 1529.47 2283.45 1532.07 Q2282.87 1532.74 2279.77 1535.95 Q2276.67 1539.15 2271.02 1544.91 Z" fill="#000000" fill-rule="nonzero" fill-opacity="1" /><path clip-path="url(#clip460)" d="M2307.16 1517.37 Q2303.55 1517.37 2301.72 1520.93 Q2299.91 1524.47 2299.91 1531.6 Q2299.91 1538.71 2301.72 1542.27 Q2303.55 1545.82 2307.16 1545.82 Q2310.79 1545.82 2312.6 1542.27 Q2314.42 1538.71 2314.42 1531.6 Q2314.42 1524.47 2312.6 1520.93 Q2310.79 1517.37 2307.16 1517.37 M2307.16 1513.66 Q2312.97 1513.66 2316.02 1518.27 Q2319.1 1522.85 2319.1 1531.6 Q2319.1 1540.33 2316.02 1544.94 Q2312.97 1549.52 2307.16 1549.52 Q2301.35 1549.52 2298.27 1544.94 Q2295.21 1540.33 2295.21 1531.6 Q2295.21 1522.85 2298.27 1518.27 Q2301.35 1513.66 2307.16 1513.66 Z" fill="#000000" fill-rule="nonzero" fill-opacity="1" /><polyline clip-path="url(#clip462)" style="stroke:#000000; stroke-linecap:round; stroke-linejoin:round; stroke-width:2; stroke-opacity:0.1; fill:none" points="214.839,1453.3 2352.76,1453.3 "/>
<polyline clip-path="url(#clip462)" style="stroke:#000000; stroke-linecap:round; stroke-linejoin:round; stroke-width:2; stroke-opacity:0.1; fill:none" points="214.839,1225.7 2352.76,1225.7 "/>
<polyline clip-path="url(#clip462)" style="stroke:#000000; stroke-linecap:round; stroke-linejoin:round; stroke-width:2; stroke-opacity:0.1; fill:none" points="214.839,998.099 2352.76,998.099 "/>
<polyline clip-path="url(#clip462)" style="stroke:#000000; stroke-linecap:round; stroke-linejoin:round; stroke-width:2; stroke-opacity:0.1; fill:none" points="214.839,770.498 2352.76,770.498 "/>
<polyline clip-path="url(#clip462)" style="stroke:#000000; stroke-linecap:round; stroke-linejoin:round; stroke-width:2; stroke-opacity:0.1; fill:none" points="214.839,542.897 2352.76,542.897 "/>
<polyline clip-path="url(#clip462)" style="stroke:#000000; stroke-linecap:round; stroke-linejoin:round; stroke-width:2; stroke-opacity:0.1; fill:none" points="214.839,315.297 2352.76,315.297 "/>
<polyline clip-path="url(#clip462)" style="stroke:#000000; stroke-linecap:round; stroke-linejoin:round; stroke-width:2; stroke-opacity:0.1; fill:none" points="214.839,87.6963 2352.76,87.6963 "/>
<polyline clip-path="url(#clip460)" style="stroke:#000000; stroke-linecap:round; stroke-linejoin:round; stroke-width:4; stroke-opacity:1; fill:none" points="214.839,1486.45 214.839,47.2441 "/>
<polyline clip-path="url(#clip460)" style="stroke:#000000; stroke-linecap:round; stroke-linejoin:round; stroke-width:4; stroke-opacity:1; fill:none" points="214.839,1453.3 233.736,1453.3 "/>
<polyline clip-path="url(#clip460)" style="stroke:#000000; stroke-linecap:round; stroke-linejoin:round; stroke-width:4; stroke-opacity:1; fill:none" points="214.839,1225.7 233.736,1225.7 "/>
<polyline clip-path="url(#clip460)" style="stroke:#000000; stroke-linecap:round; stroke-linejoin:round; stroke-width:4; stroke-opacity:1; fill:none" points="214.839,998.099 233.736,998.099 "/>
<polyline clip-path="url(#clip460)" style="stroke:#000000; stroke-linecap:round; stroke-linejoin:round; stroke-width:4; stroke-opacity:1; fill:none" points="214.839,770.498 233.736,770.498 "/>
<polyline clip-path="url(#clip460)" style="stroke:#000000; stroke-linecap:round; stroke-linejoin:round; stroke-width:4; stroke-opacity:1; fill:none" points="214.839,542.897 233.736,542.897 "/>
<polyline clip-path="url(#clip460)" style="stroke:#000000; stroke-linecap:round; stroke-linejoin:round; stroke-width:4; stroke-opacity:1; fill:none" points="214.839,315.297 233.736,315.297 "/>
<polyline clip-path="url(#clip460)" style="stroke:#000000; stroke-linecap:round; stroke-linejoin:round; stroke-width:4; stroke-opacity:1; fill:none" points="214.839,87.6963 233.736,87.6963 "/>
<path clip-path="url(#clip460)" d="M51.6634 1466.64 L59.3023 1466.64 L59.3023 1440.28 L50.9921 1441.95 L50.9921 1437.69 L59.256 1436.02 L63.9319 1436.02 L63.9319 1466.64 L71.5707 1466.64 L71.5707 1470.58 L51.6634 1470.58 L51.6634 1466.64 Z" fill="#000000" fill-rule="nonzero" fill-opacity="1" /><path clip-path="url(#clip460)" d="M81.0151 1464.7 L85.8993 1464.7 L85.8993 1470.58 L81.0151 1470.58 L81.0151 1464.7 Z" fill="#000000" fill-rule="nonzero" fill-opacity="1" /><path clip-path="url(#clip460)" d="M106.084 1439.1 Q102.473 1439.1 100.645 1442.66 Q98.8391 1446.2 98.8391 1453.33 Q98.8391 1460.44 100.645 1464.01 Q102.473 1467.55 106.084 1467.55 Q109.719 1467.55 111.524 1464.01 Q113.353 1460.44 113.353 1453.33 Q113.353 1446.2 111.524 1442.66 Q109.719 1439.1 106.084 1439.1 M106.084 1435.39 Q111.895 1435.39 114.95 1440 Q118.029 1444.58 118.029 1453.33 Q118.029 1462.06 114.95 1466.67 Q111.895 1471.25 106.084 1471.25 Q100.274 1471.25 97.1956 1466.67 Q94.14 1462.06 94.14 1453.33 Q94.14 1444.58 97.1956 1440 Q100.274 1435.39 106.084 1435.39 Z" fill="#000000" fill-rule="nonzero" fill-opacity="1" /><path clip-path="url(#clip460)" d="M136.246 1439.1 Q132.635 1439.1 130.807 1442.66 Q129.001 1446.2 129.001 1453.33 Q129.001 1460.44 130.807 1464.01 Q132.635 1467.55 136.246 1467.55 Q139.881 1467.55 141.686 1464.01 Q143.515 1460.44 143.515 1453.33 Q143.515 1446.2 141.686 1442.66 Q139.881 1439.1 136.246 1439.1 M136.246 1435.39 Q142.056 1435.39 145.112 1440 Q148.191 1444.58 148.191 1453.33 Q148.191 1462.06 145.112 1466.67 Q142.056 1471.25 136.246 1471.25 Q130.436 1471.25 127.357 1466.67 Q124.302 1462.06 124.302 1453.33 Q124.302 1444.58 127.357 1440 Q130.436 1435.39 136.246 1435.39 Z" fill="#000000" fill-rule="nonzero" fill-opacity="1" /><path clip-path="url(#clip460)" d="M169.255 1440.09 L157.45 1458.54 L169.255 1458.54 L169.255 1440.09 M168.029 1436.02 L173.908 1436.02 L173.908 1458.54 L178.839 1458.54 L178.839 1462.43 L173.908 1462.43 L173.908 1470.58 L169.255 1470.58 L169.255 1462.43 L153.654 1462.43 L153.654 1457.92 L168.029 1436.02 Z" fill="#000000" fill-rule="nonzero" fill-opacity="1" /><path clip-path="url(#clip460)" d="M53.1449 1239.04 L60.7837 1239.04 L60.7837 1212.68 L52.4736 1214.35 L52.4736 1210.09 L60.7374 1208.42 L65.4133 1208.42 L65.4133 1239.04 L73.0522 1239.04 L73.0522 1242.98 L53.1449 1242.98 L53.1449 1239.04 Z" fill="#000000" fill-rule="nonzero" fill-opacity="1" /><path clip-path="url(#clip460)" d="M82.4966 1237.1 L87.3808 1237.1 L87.3808 1242.98 L82.4966 1242.98 L82.4966 1237.1 Z" fill="#000000" fill-rule="nonzero" fill-opacity="1" /><path clip-path="url(#clip460)" d="M107.566 1211.5 Q103.955 1211.5 102.126 1215.06 Q100.321 1218.6 100.321 1225.73 Q100.321 1232.84 102.126 1236.41 Q103.955 1239.95 107.566 1239.95 Q111.2 1239.95 113.006 1236.41 Q114.834 1232.84 114.834 1225.73 Q114.834 1218.6 113.006 1215.06 Q111.2 1211.5 107.566 1211.5 M107.566 1207.79 Q113.376 1207.79 116.432 1212.4 Q119.51 1216.98 119.51 1225.73 Q119.51 1234.46 116.432 1239.07 Q113.376 1243.65 107.566 1243.65 Q101.756 1243.65 98.6771 1239.07 Q95.6215 1234.46 95.6215 1225.73 Q95.6215 1216.98 98.6771 1212.4 Q101.756 1207.79 107.566 1207.79 Z" fill="#000000" fill-rule="nonzero" fill-opacity="1" /><path clip-path="url(#clip460)" d="M137.728 1211.5 Q134.117 1211.5 132.288 1215.06 Q130.482 1218.6 130.482 1225.73 Q130.482 1232.84 132.288 1236.41 Q134.117 1239.95 137.728 1239.95 Q141.362 1239.95 143.168 1236.41 Q144.996 1232.84 144.996 1225.73 Q144.996 1218.6 143.168 1215.06 Q141.362 1211.5 137.728 1211.5 M137.728 1207.79 Q143.538 1207.79 146.593 1212.4 Q149.672 1216.98 149.672 1225.73 Q149.672 1234.46 146.593 1239.07 Q143.538 1243.65 137.728 1243.65 Q131.918 1243.65 128.839 1239.07 Q125.783 1234.46 125.783 1225.73 Q125.783 1216.98 128.839 1212.4 Q131.918 1207.79 137.728 1207.79 Z" fill="#000000" fill-rule="nonzero" fill-opacity="1" /><path clip-path="url(#clip460)" d="M157.936 1208.42 L176.292 1208.42 L176.292 1212.35 L162.218 1212.35 L162.218 1220.83 Q163.237 1220.48 164.255 1220.32 Q165.274 1220.13 166.292 1220.13 Q172.079 1220.13 175.459 1223.3 Q178.839 1226.47 178.839 1231.89 Q178.839 1237.47 175.366 1240.57 Q171.894 1243.65 165.575 1243.65 Q163.399 1243.65 161.13 1243.28 Q158.885 1242.91 156.478 1242.17 L156.478 1237.47 Q158.561 1238.6 160.783 1239.16 Q163.005 1239.72 165.482 1239.72 Q169.487 1239.72 171.825 1237.61 Q174.163 1235.5 174.163 1231.89 Q174.163 1228.28 171.825 1226.17 Q169.487 1224.07 165.482 1224.07 Q163.607 1224.07 161.732 1224.48 Q159.88 1224.9 157.936 1225.78 L157.936 1208.42 Z" fill="#000000" fill-rule="nonzero" fill-opacity="1" /><path clip-path="url(#clip460)" d="M51.9875 1011.44 L59.6263 1011.44 L59.6263 985.078 L51.3162 986.744 L51.3162 982.485 L59.58 980.819 L64.2559 980.819 L64.2559 1011.44 L71.8948 1011.44 L71.8948 1015.38 L51.9875 1015.38 L51.9875 1011.44 Z" fill="#000000" fill-rule="nonzero" fill-opacity="1" /><path clip-path="url(#clip460)" d="M81.3392 1009.5 L86.2234 1009.5 L86.2234 1015.38 L81.3392 1015.38 L81.3392 1009.5 Z" fill="#000000" fill-rule="nonzero" fill-opacity="1" /><path clip-path="url(#clip460)" d="M106.408 983.897 Q102.797 983.897 100.969 987.462 Q99.1632 991.004 99.1632 998.133 Q99.1632 1005.24 100.969 1008.8 Q102.797 1012.35 106.408 1012.35 Q110.043 1012.35 111.848 1008.8 Q113.677 1005.24 113.677 998.133 Q113.677 991.004 111.848 987.462 Q110.043 983.897 106.408 983.897 M106.408 980.194 Q112.219 980.194 115.274 984.8 Q118.353 989.383 118.353 998.133 Q118.353 1006.86 115.274 1011.47 Q112.219 1016.05 106.408 1016.05 Q100.598 1016.05 97.5197 1011.47 Q94.4641 1006.86 94.4641 998.133 Q94.4641 989.383 97.5197 984.8 Q100.598 980.194 106.408 980.194 Z" fill="#000000" fill-rule="nonzero" fill-opacity="1" /><path clip-path="url(#clip460)" d="M136.57 983.897 Q132.959 983.897 131.131 987.462 Q129.325 991.004 129.325 998.133 Q129.325 1005.24 131.131 1008.8 Q132.959 1012.35 136.57 1012.35 Q140.205 1012.35 142.01 1008.8 Q143.839 1005.24 143.839 998.133 Q143.839 991.004 142.01 987.462 Q140.205 983.897 136.57 983.897 M136.57 980.194 Q142.381 980.194 145.436 984.8 Q148.515 989.383 148.515 998.133 Q148.515 1006.86 145.436 1011.47 Q142.381 1016.05 136.57 1016.05 Q130.76 1016.05 127.682 1011.47 Q124.626 1006.86 124.626 998.133 Q124.626 989.383 127.682 984.8 Q130.76 980.194 136.57 980.194 Z" fill="#000000" fill-rule="nonzero" fill-opacity="1" /><path clip-path="url(#clip460)" d="M167.311 996.235 Q164.163 996.235 162.311 998.388 Q160.482 1000.54 160.482 1004.29 Q160.482 1008.02 162.311 1010.19 Q164.163 1012.35 167.311 1012.35 Q170.459 1012.35 172.288 1010.19 Q174.14 1008.02 174.14 1004.29 Q174.14 1000.54 172.288 998.388 Q170.459 996.235 167.311 996.235 M176.593 981.582 L176.593 985.842 Q174.834 985.008 173.029 984.569 Q171.246 984.129 169.487 984.129 Q164.857 984.129 162.404 987.254 Q159.973 990.379 159.626 996.698 Q160.992 994.684 163.052 993.619 Q165.112 992.531 167.589 992.531 Q172.797 992.531 175.806 995.703 Q178.839 998.851 178.839 1004.29 Q178.839 1009.61 175.691 1012.83 Q172.542 1016.05 167.311 1016.05 Q161.316 1016.05 158.144 1011.47 Q154.973 1006.86 154.973 998.133 Q154.973 989.939 158.862 985.078 Q162.751 980.194 169.302 980.194 Q171.061 980.194 172.843 980.541 Q174.649 980.888 176.593 981.582 Z" fill="#000000" fill-rule="nonzero" fill-opacity="1" /><path clip-path="url(#clip460)" d="M53.0523 783.843 L60.6911 783.843 L60.6911 757.477 L52.381 759.144 L52.381 754.885 L60.6449 753.218 L65.3208 753.218 L65.3208 783.843 L72.9596 783.843 L72.9596 787.778 L53.0523 787.778 L53.0523 783.843 Z" fill="#000000" fill-rule="nonzero" fill-opacity="1" /><path clip-path="url(#clip460)" d="M82.404 781.898 L87.2882 781.898 L87.2882 787.778 L82.404 787.778 L82.404 781.898 Z" fill="#000000" fill-rule="nonzero" fill-opacity="1" /><path clip-path="url(#clip460)" d="M107.473 756.297 Q103.862 756.297 102.034 759.861 Q100.228 763.403 100.228 770.533 Q100.228 777.639 102.034 781.204 Q103.862 784.746 107.473 784.746 Q111.108 784.746 112.913 781.204 Q114.742 777.639 114.742 770.533 Q114.742 763.403 112.913 759.861 Q111.108 756.297 107.473 756.297 M107.473 752.593 Q113.283 752.593 116.339 757.199 Q119.418 761.783 119.418 770.533 Q119.418 779.26 116.339 783.866 Q113.283 788.449 107.473 788.449 Q101.663 788.449 98.5845 783.866 Q95.5289 779.26 95.5289 770.533 Q95.5289 761.783 98.5845 757.199 Q101.663 752.593 107.473 752.593 Z" fill="#000000" fill-rule="nonzero" fill-opacity="1" /><path clip-path="url(#clip460)" d="M137.635 756.297 Q134.024 756.297 132.195 759.861 Q130.39 763.403 130.39 770.533 Q130.39 777.639 132.195 781.204 Q134.024 784.746 137.635 784.746 Q141.269 784.746 143.075 781.204 Q144.904 777.639 144.904 770.533 Q144.904 763.403 143.075 759.861 Q141.269 756.297 137.635 756.297 M137.635 752.593 Q143.445 752.593 146.501 757.199 Q149.58 761.783 149.58 770.533 Q149.58 779.26 146.501 783.866 Q143.445 788.449 137.635 788.449 Q131.825 788.449 128.746 783.866 Q125.691 779.26 125.691 770.533 Q125.691 761.783 128.746 757.199 Q131.825 752.593 137.635 752.593 Z" fill="#000000" fill-rule="nonzero" fill-opacity="1" /><path clip-path="url(#clip460)" d="M156.617 753.218 L178.839 753.218 L178.839 755.209 L166.292 787.778 L161.408 787.778 L173.214 757.153 L156.617 757.153 L156.617 753.218 Z" fill="#000000" fill-rule="nonzero" fill-opacity="1" /><path clip-path="url(#clip460)" d="M52.2421 556.242 L59.881 556.242 L59.881 529.877 L51.5708 531.543 L51.5708 527.284 L59.8347 525.617 L64.5106 525.617 L64.5106 556.242 L72.1494 556.242 L72.1494 560.177 L52.2421 560.177 L52.2421 556.242 Z" fill="#000000" fill-rule="nonzero" fill-opacity="1" /><path clip-path="url(#clip460)" d="M81.5938 554.298 L86.478 554.298 L86.478 560.177 L81.5938 560.177 L81.5938 554.298 Z" fill="#000000" fill-rule="nonzero" fill-opacity="1" /><path clip-path="url(#clip460)" d="M106.663 528.696 Q103.052 528.696 101.223 532.261 Q99.4178 535.803 99.4178 542.932 Q99.4178 550.039 101.223 553.603 Q103.052 557.145 106.663 557.145 Q110.297 557.145 112.103 553.603 Q113.932 550.039 113.932 542.932 Q113.932 535.803 112.103 532.261 Q110.297 528.696 106.663 528.696 M106.663 524.992 Q112.473 524.992 115.529 529.599 Q118.608 534.182 118.608 542.932 Q118.608 551.659 115.529 556.265 Q112.473 560.849 106.663 560.849 Q100.853 560.849 97.7743 556.265 Q94.7187 551.659 94.7187 542.932 Q94.7187 534.182 97.7743 529.599 Q100.853 524.992 106.663 524.992 Z" fill="#000000" fill-rule="nonzero" fill-opacity="1" /><path clip-path="url(#clip460)" d="M136.825 528.696 Q133.214 528.696 131.385 532.261 Q129.58 535.803 129.58 542.932 Q129.58 550.039 131.385 553.603 Q133.214 557.145 136.825 557.145 Q140.459 557.145 142.265 553.603 Q144.093 550.039 144.093 542.932 Q144.093 535.803 142.265 532.261 Q140.459 528.696 136.825 528.696 M136.825 524.992 Q142.635 524.992 145.691 529.599 Q148.769 534.182 148.769 542.932 Q148.769 551.659 145.691 556.265 Q142.635 560.849 136.825 560.849 Q131.015 560.849 127.936 556.265 Q124.881 551.659 124.881 542.932 Q124.881 534.182 127.936 529.599 Q131.015 524.992 136.825 524.992 Z" fill="#000000" fill-rule="nonzero" fill-opacity="1" /><path clip-path="url(#clip460)" d="M166.987 543.765 Q163.654 543.765 161.732 545.548 Q159.834 547.33 159.834 550.455 Q159.834 553.58 161.732 555.363 Q163.654 557.145 166.987 557.145 Q170.32 557.145 172.241 555.363 Q174.163 553.557 174.163 550.455 Q174.163 547.33 172.241 545.548 Q170.343 543.765 166.987 543.765 M162.311 541.775 Q159.302 541.034 157.612 538.974 Q155.945 536.914 155.945 533.951 Q155.945 529.807 158.885 527.4 Q161.848 524.992 166.987 524.992 Q172.149 524.992 175.089 527.4 Q178.028 529.807 178.028 533.951 Q178.028 536.914 176.339 538.974 Q174.672 541.034 171.686 541.775 Q175.066 542.562 176.941 544.853 Q178.839 547.145 178.839 550.455 Q178.839 555.478 175.76 558.164 Q172.704 560.849 166.987 560.849 Q161.269 560.849 158.191 558.164 Q155.135 555.478 155.135 550.455 Q155.135 547.145 157.033 544.853 Q158.931 542.562 162.311 541.775 M160.598 534.391 Q160.598 537.076 162.265 538.58 Q163.954 540.085 166.987 540.085 Q169.996 540.085 171.686 538.58 Q173.399 537.076 173.399 534.391 Q173.399 531.705 171.686 530.201 Q169.996 528.696 166.987 528.696 Q163.954 528.696 162.265 530.201 Q160.598 531.705 160.598 534.391 Z" fill="#000000" fill-rule="nonzero" fill-opacity="1" /><path clip-path="url(#clip460)" d="M52.3347 328.642 L59.9736 328.642 L59.9736 302.276 L51.6634 303.943 L51.6634 299.683 L59.9273 298.017 L64.6032 298.017 L64.6032 328.642 L72.242 328.642 L72.242 332.577 L52.3347 332.577 L52.3347 328.642 Z" fill="#000000" fill-rule="nonzero" fill-opacity="1" /><path clip-path="url(#clip460)" d="M81.6864 326.697 L86.5706 326.697 L86.5706 332.577 L81.6864 332.577 L81.6864 326.697 Z" fill="#000000" fill-rule="nonzero" fill-opacity="1" /><path clip-path="url(#clip460)" d="M106.756 301.096 Q103.145 301.096 101.316 304.66 Q99.5104 308.202 99.5104 315.332 Q99.5104 322.438 101.316 326.003 Q103.145 329.544 106.756 329.544 Q110.39 329.544 112.196 326.003 Q114.024 322.438 114.024 315.332 Q114.024 308.202 112.196 304.66 Q110.39 301.096 106.756 301.096 M106.756 297.392 Q112.566 297.392 115.621 301.998 Q118.7 306.582 118.7 315.332 Q118.7 324.058 115.621 328.665 Q112.566 333.248 106.756 333.248 Q100.946 333.248 97.8669 328.665 Q94.8113 324.058 94.8113 315.332 Q94.8113 306.582 97.8669 301.998 Q100.946 297.392 106.756 297.392 Z" fill="#000000" fill-rule="nonzero" fill-opacity="1" /><path clip-path="url(#clip460)" d="M136.918 301.096 Q133.306 301.096 131.478 304.66 Q129.672 308.202 129.672 315.332 Q129.672 322.438 131.478 326.003 Q133.306 329.544 136.918 329.544 Q140.552 329.544 142.357 326.003 Q144.186 322.438 144.186 315.332 Q144.186 308.202 142.357 304.66 Q140.552 301.096 136.918 301.096 M136.918 297.392 Q142.728 297.392 145.783 301.998 Q148.862 306.582 148.862 315.332 Q148.862 324.058 145.783 328.665 Q142.728 333.248 136.918 333.248 Q131.107 333.248 128.029 328.665 Q124.973 324.058 124.973 315.332 Q124.973 306.582 128.029 301.998 Q131.107 297.392 136.918 297.392 Z" fill="#000000" fill-rule="nonzero" fill-opacity="1" /><path clip-path="url(#clip460)" d="M157.218 331.859 L157.218 327.6 Q158.978 328.433 160.783 328.873 Q162.589 329.313 164.325 329.313 Q168.954 329.313 171.385 326.211 Q173.839 323.086 174.186 316.744 Q172.843 318.734 170.783 319.799 Q168.723 320.864 166.223 320.864 Q161.038 320.864 158.005 317.739 Q154.996 314.591 154.996 309.151 Q154.996 303.827 158.144 300.609 Q161.292 297.392 166.524 297.392 Q172.519 297.392 175.667 301.998 Q178.839 306.582 178.839 315.332 Q178.839 323.503 174.95 328.387 Q171.084 333.248 164.533 333.248 Q162.774 333.248 160.968 332.901 Q159.163 332.554 157.218 331.859 M166.524 317.207 Q169.672 317.207 171.501 315.054 Q173.353 312.901 173.353 309.151 Q173.353 305.424 171.501 303.271 Q169.672 301.096 166.524 301.096 Q163.376 301.096 161.524 303.271 Q159.695 305.424 159.695 309.151 Q159.695 312.901 161.524 315.054 Q163.376 317.207 166.524 317.207 Z" fill="#000000" fill-rule="nonzero" fill-opacity="1" /><path clip-path="url(#clip460)" d="M52.1495 101.041 L59.7884 101.041 L59.7884 74.6755 L51.4782 76.3421 L51.4782 72.0829 L59.7421 70.4163 L64.418 70.4163 L64.418 101.041 L72.0568 101.041 L72.0568 104.976 L52.1495 104.976 L52.1495 101.041 Z" fill="#000000" fill-rule="nonzero" fill-opacity="1" /><path clip-path="url(#clip460)" d="M81.5012 99.0967 L86.3855 99.0967 L86.3855 104.976 L81.5012 104.976 L81.5012 99.0967 Z" fill="#000000" fill-rule="nonzero" fill-opacity="1" /><path clip-path="url(#clip460)" d="M106.571 73.4949 Q102.959 73.4949 101.131 77.0597 Q99.3252 80.6014 99.3252 87.731 Q99.3252 94.8374 101.131 98.4022 Q102.959 101.944 106.571 101.944 Q110.205 101.944 112.01 98.4022 Q113.839 94.8374 113.839 87.731 Q113.839 80.6014 112.01 77.0597 Q110.205 73.4949 106.571 73.4949 M106.571 69.7913 Q112.381 69.7913 115.436 74.3977 Q118.515 78.981 118.515 87.731 Q118.515 96.4578 115.436 101.064 Q112.381 105.648 106.571 105.648 Q100.76 105.648 97.6817 101.064 Q94.6262 96.4578 94.6262 87.731 Q94.6262 78.981 97.6817 74.3977 Q100.76 69.7913 106.571 69.7913 Z" fill="#000000" fill-rule="nonzero" fill-opacity="1" /><path clip-path="url(#clip460)" d="M127.543 101.041 L135.181 101.041 L135.181 74.6755 L126.871 76.3421 L126.871 72.0829 L135.135 70.4163 L139.811 70.4163 L139.811 101.041 L147.45 101.041 L147.45 104.976 L127.543 104.976 L127.543 101.041 Z" fill="#000000" fill-rule="nonzero" fill-opacity="1" /><path clip-path="url(#clip460)" d="M166.894 73.4949 Q163.283 73.4949 161.454 77.0597 Q159.649 80.6014 159.649 87.731 Q159.649 94.8374 161.454 98.4022 Q163.283 101.944 166.894 101.944 Q170.529 101.944 172.334 98.4022 Q174.163 94.8374 174.163 87.731 Q174.163 80.6014 172.334 77.0597 Q170.529 73.4949 166.894 73.4949 M166.894 69.7913 Q172.704 69.7913 175.76 74.3977 Q178.839 78.981 178.839 87.731 Q178.839 96.4578 175.76 101.064 Q172.704 105.648 166.894 105.648 Q161.084 105.648 158.005 101.064 Q154.95 96.4578 154.95 87.731 Q154.95 78.981 158.005 74.3977 Q161.084 69.7913 166.894 69.7913 Z" fill="#000000" fill-rule="nonzero" fill-opacity="1" /><polyline clip-path="url(#clip462)" style="stroke:#009af9; stroke-linecap:round; stroke-linejoin:round; stroke-width:4; stroke-opacity:1; fill:none" points="275.346,87.9763 275.447,87.9763 275.547,87.9763 275.749,87.9763 276.153,87.9763 276.959,87.9763 277.968,87.9763 278.976,87.9763 279.985,87.9763 280.993,87.9763 282.002,87.9763 283.01,87.9763 284.018,87.9763 285.027,87.9763 286.035,87.9763 287.044,87.9763 288.052,87.9763 289.061,87.9763 290.069,87.9763 291.078,87.9763 292.086,87.9763 293.095,87.9763 294.103,87.9763 295.111,87.9763 296.12,87.9763 297.128,87.9763 298.137,87.9763 299.145,87.9763 300.154,87.9763 301.162,87.9763 302.171,87.9763 303.179,87.9763 304.187,87.9763 305.196,87.9763 306.204,87.9763 307.213,87.9763 308.221,87.9763 309.23,87.9763 310.238,87.9763 311.247,87.9763 312.255,87.9763 313.264,87.9763 314.272,87.9763 315.28,87.9763 316.289,87.9763 317.297,87.9763 318.306,87.9763 319.314,87.9763 320.323,87.9763 321.331,87.9763 322.34,87.9763 323.348,87.9763 324.356,87.9763 325.365,87.9763 326.373,87.9763 327.382,87.9763 328.39,87.9763 329.399,87.9763 330.407,87.9763 331.416,87.9763 332.424,87.9763 333.433,87.9763 334.441,87.9763 335.449,87.9763 336.458,87.9763 337.466,87.9763 338.475,87.9763 339.483,87.9763 340.492,87.9763 341.5,87.9763 342.509,87.9763 343.517,87.9763 344.526,87.9763 345.534,87.9763 346.542,87.9763 347.551,87.9763 348.559,87.9763 349.568,87.9763 350.576,87.9763 351.585,87.9763 352.593,87.9763 353.602,87.9763 354.61,87.9763 355.618,87.9763 356.627,87.9763 357.635,87.9763 358.644,87.9763 359.652,87.9763 360.661,87.9763 361.669,87.9763 362.678,87.9763 363.686,87.9763 364.695,87.9763 365.703,87.9763 366.711,87.9763 367.72,87.9763 368.728,87.9763 369.737,87.9763 370.745,87.9763 371.754,87.9763 372.762,87.9763 373.771,87.9763 374.779,87.9763 375.788,87.9763 376.191,87.9763 376.254,1113.74 376.308,1119.26 376.417,1129.97 376.526,1140.37 376.743,1159.97 376.961,1178.44 377.178,1195.85 377.614,1228.35 378.049,1257.43 378.919,1306.28 379.702,1341.02 380.485,1368.68 381.268,1390.49 382.051,1407.49 382.835,1420.38 383.843,1432.19 384.851,1439.78 385.86,1444.07 386.868,1445.72 387.877,1445.2 388.885,1442.89 389.894,1439.09 390.902,1434.04 391.911,1427.92 392.919,1420.9 393.928,1413.11 394.936,1404.66 395.944,1395.66 396.953,1386.19 397.961,1376.33 398.97,1366.15 399.978,1355.7 400.987,1345.05 401.995,1334.24 403.004,1323.32 404.012,1312.31 405.02,1301.3 406.029,1290.29 407.037,1279.27 408.046,1268.37 409.054,1257.63 410.063,1246.87 411.071,1236.21 412.08,1226.04 413.088,1215.9 414.097,1205.43 415.105,1195.8 416.113,1186.7 417.122,1177 418.13,1167.7 419.139,1159.42 420.147,1150.77 421.156,1141.95 422.164,1134.24 423.173,1126.57 424.181,1118.98 425.19,1111.78 426.198,1104.85 427.206,1098.12 428.215,1091.73 429.223,1085.64 430.232,1079.71 431.24,1074.05 432.249,1068.76 433.257,1063.64 434.266,1058.7 435.274,1054.15 436.282,1049.82 437.291,1045.52 438.299,1041.68 439.308,1038.34 440.316,1034.69 441.325,1031.21 442.333,1028.54 443.342,1025.82 444.35,1022.86 445.359,1020.66 446.367,1018.8 447.375,1016.57 448.384,1014.73 449.392,1013.17 450.401,1011.7 451.409,1010.4 452.418,1009.3 453.426,1008.27 454.435,1007.36 455.443,1006.64 456.452,1006.01 457.46,1005.39 458.468,1004.92 459.477,1004.54 460.485,1004.11 461.494,1003.74 462.502,1003.51 463.511,1003.12 464.519,1002.52 465.528,1002.35 466.536,1002.14 467.544,1001.17 468.553,1000.41 469.561,1000.07 470.57,998.975 471.578,997.549 472.587,996.703 473.595,995.404 474.604,993.489 475.612,991.614 476.621,989.542 477.629,987.136 478.637,984.48 479.646,981.575 480.654,978.307 481.663,974.723 482.671,970.889 483.68,966.687 484.688,962.092 485.697,957.22 486.705,952.01 487.714,946.363 488.722,940.39 489.73,934.171 490.739,927.425 491.747,920.209 492.756,912.97 493.764,905.346 494.773,897.048 495.781,888.626 496.79,880.08 497.798,870.859 498.806,861.324 499.815,851.783 500.823,841.831 501.832,831.56 502.84,821.084 503.849,810.365 504.857,799.403 505.866,788.281 506.874,776.992 507.883,765.503 508.891,753.899 509.899,742.225 510.908,730.427 511.916,718.536 512.925,706.714 513.933,694.871 514.942,682.847 515.95,671.039 516.959,659.585 517.967,647.764 518.976,636.161 519.984,624.974 520.992,613.649 522.001,602.467 523.009,591.928 524.018,581.399 525.026,571.126 526.035,561.239 527.043,551.655 528.052,542.407 529.06,533.55 530.068,525.066 531.077,516.967 532.085,509.315 533.094,502.1 534.102,495.298 535.111,488.964 536.119,483.134 537.128,477.708 538.136,472.712 539.145,468.349 540.153,464.425 541.161,460.67 542.17,457.662 543.178,455.304 544.187,452.984 545.195,451.125 546.204,450.088 547.212,449.182 548.221,448.521 549.229,448.486 550.238,448.733 551.246,449.073 552.254,449.937 553.263,451.195 554.271,452.394 555.28,453.864 556.288,455.756 557.297,457.656 558.305,459.551 559.314,461.777 560.322,464.058 561.33,466.126 562.339,468.352 563.347,470.647 564.356,472.73 565.364,474.748 566.373,476.794 567.381,478.57 568.39,480.085 569.398,481.582 570.407,482.838 571.415,483.716 572.423,484.39 573.432,484.796 574.44,484.873 575.449,484.629 576.457,484.058 577.466,483.117 578.474,481.808 579.483,480.147 580.491,478.098 581.5,475.647 582.508,472.827 583.516,469.631 584.525,466.001 585.533,461.994 586.542,457.697 587.55,452.945 588.559,447.706 589.567,442.33 590.576,436.647 591.584,430.392 592.592,423.93 593.601,417.366 594.609,410.304 595.618,402.924 596.626,395.547 597.635,387.881 598.643,379.984 599.652,371.964 600.66,363.807 601.669,355.522 602.677,347.185 603.685,338.804 604.694,330.366 605.702,321.942 606.711,313.58 607.719,305.251 608.728,296.981 609.736,288.906 610.745,280.971 611.753,273.094 612.762,265.469 613.77,258.149 614.778,250.967 615.787,244.029 616.795,237.504 617.804,231.235 618.812,225.117 619.821,219.573 620.829,214.373 621.838,209.404 622.846,204.954 623.854,200.957 624.863,197.169 625.871,193.835 626.88,191.059 627.888,188.607 628.897,186.503 629.905,184.964 630.914,183.826 631.922,182.956 632.931,182.595 633.939,182.804 634.947,183.118 635.956,183.871 636.964,185.149 637.973,186.578 638.981,188.306 639.99,190.604 640.998,193.098 642.007,195.723 643.015,198.742 644.024,202.036 645.032,205.372 646.04,208.961 647.049,212.857 648.057,216.736 649.066,220.724 650.074,224.907 651.083,229.062 652.091,233.193 653.1,237.475 654.108,241.727 655.116,245.804 656.125,249.913 657.133,253.978 658.142,257.843 659.15,261.602 660.159,265.282 661.167,268.707 662.176,271.902 663.184,274.99 664.193,277.825 665.201,280.351 666.209,282.657 667.218,284.701 668.226,286.452 669.235,287.914 670.243,289.082 671.252,289.933 672.26,290.471 673.269,290.703 674.277,290.612 675.286,290.193 676.294,289.466 677.302,288.425 678.311,287.059 679.319,285.39 680.328,283.438 681.336,281.168 682.345,278.595 683.353,275.799 684.362,272.737 685.37,269.374 686.378,265.806 687.387,262.048 688.395,258.03 689.404,253.819 690.412,249.491 691.421,244.976 692.429,240.246 693.438,235.506 694.446,230.694 695.455,225.664 696.463,220.615 697.471,215.634 698.48,210.513 699.488,205.338 700.497,200.307 701.505,195.267 702.514,190.25 703.522,185.322 704.531,180.479 705.539,175.729 706.548,171.114 707.556,166.641 708.564,162.3 709.573,158.132 710.581,154.16 711.59,150.366 712.598,146.76 713.607,143.414 714.615,140.293 715.624,137.319 716.632,134.658 717.64,132.312 718.649,130.111 719.657,128.165 720.666,126.6 721.674,125.236 722.683,124.088 723.691,123.28 724.7,122.738 725.708,122.391 726.717,122.36 727.725,122.639 728.733,123.092 729.742,123.794 730.75,124.828 731.759,126.05 732.767,127.39 733.776,129.118 734.784,131.031 735.793,133.049 736.801,135.365 737.81,137.89 738.818,140.437 739.826,143.187 740.835,146.173 741.843,149.213 742.852,152.335 743.86,155.661 744.869,159.05 745.877,162.423 746.886,165.943 747.894,169.607 748.902,173.118 749.911,176.711 750.919,180.413 751.928,183.966 752.936,187.493 753.945,191.165 754.953,194.675 755.962,198.127 756.97,201.552 757.979,204.889 758.987,208.134 759.995,211.29 761.004,214.339 762.012,217.27 763.021,220.081 764.029,222.767 765.038,225.309 766.046,227.709 767.055,229.966 768.063,232.067 769.071,234.003 770.08,235.791 771.088,237.422 772.097,238.855 773.105,240.133 774.114,241.3 775.122,242.239 776.131,242.977 777.139,243.633 778.148,244.115 779.156,244.357 780.164,244.501 781.173,244.58 782.181,244.354 783.19,244.021 784.198,243.636 785.207,243.003 786.215,242.229 787.224,241.474 788.232,240.515 789.241,239.443 790.249,238.301 791.257,237.058 792.266,235.729 793.274,234.333 794.283,232.865 795.291,231.334 796.3,229.764 797.308,228.155 798.317,226.505 799.325,224.838 800.333,223.173 801.342,221.48 802.35,219.778 803.359,218.134 804.367,216.506 805.376,214.864 806.384,213.291 807.393,211.789 808.401,210.293 809.41,208.859 810.418,207.532 811.426,206.261 812.435,205.065 813.443,203.962 814.452,202.95 815.46,202.033 816.469,201.223 817.477,200.521 818.486,199.924 819.494,199.444 820.503,199.085 821.511,198.841 822.519,198.716 823.528,198.722 824.536,198.849 825.545,199.091 826.553,199.471 827.562,199.987 828.57,200.59 829.579,201.318 830.587,202.214 831.595,203.202 832.604,204.269 833.612,205.494 834.621,206.835 835.629,208.227 836.638,209.742 837.646,211.427 838.655,213.102 839.663,214.826 840.672,216.757 841.68,218.727 842.688,220.654 843.697,222.744 844.705,224.902 845.714,227.027 846.722,229.243 847.731,231.542 848.739,233.776 849.748,236.023 850.756,238.378 851.765,240.665 852.773,242.948 853.781,245.243 854.79,247.513 855.798,249.755 856.807,251.973 857.815,254.149 858.824,256.276 859.832,258.361 860.841,260.39 861.849,262.349 862.857,264.245 863.866,266.081 864.874,267.82 865.883,269.469 866.891,271.067 867.9,272.57 868.908,273.947 869.917,275.254 870.925,276.482 871.934,277.572 872.942,278.563 873.95,279.481 874.959,280.281 875.967,280.973 876.976,281.565 877.984,282.054 878.993,282.437 880.001,282.723 881.01,282.91 882.018,282.995 883.027,282.988 884.035,282.892 885.043,282.704 886.052,282.429 887.06,282.078 888.069,281.649 889.077,281.139 890.086,280.572 891.094,279.951 892.103,279.245 893.111,278.49 894.119,277.741 895.128,276.906 896.136,276 897.145,275.133 898.153,274.244 899.162,273.269 900.17,272.325 901.179,271.465 902.187,270.472 903.196,269.511 904.204,268.641 905.212,267.703 906.221,266.769 907.229,265.984 908.238,265.167 909.246,264.383 910.255,263.669 911.263,263 912.272,262.382 913.28,261.828 914.289,261.338 915.297,260.912 916.305,260.558 917.314,260.28 918.322,260.074 919.331,259.945 920.339,259.899 921.348,259.933 922.356,260.043 923.365,260.244 924.373,260.533 925.381,260.883 926.39,261.319 927.398,261.877 928.407,262.477 929.415,263.127 930.424,263.91 931.432,264.764 932.441,265.633 933.449,266.607 934.458,267.714 935.466,268.774 936.474,269.913 937.483,271.168 938.491,272.397 939.5,273.657 940.508,275.055 941.517,276.429 942.525,277.828 943.534,279.272 944.542,280.731 945.551,282.202 946.559,283.689 947.567,285.177 948.576,286.661 949.584,288.146 950.593,289.621 951.601,291.074 952.61,292.51 953.618,293.93 954.627,295.305 955.635,296.637 956.643,297.959 957.652,299.236 958.66,300.437 959.669,301.607 960.677,302.741 961.686,303.788 962.694,304.775 963.703,305.726 964.711,306.602 965.72,307.407 966.728,308.149 967.736,308.821 968.745,309.42 969.753,309.953 970.762,310.416 971.77,310.804 972.779,311.123 973.787,311.376 974.796,311.556 975.804,311.668 976.813,311.718 977.821,311.704 978.829,311.62 979.838,311.486 980.846,311.303 981.855,311.043 982.863,310.733 983.872,310.407 984.88,310.021 985.889,309.571 986.897,309.114 987.905,308.631 988.914,308.084 989.922,307.527 990.931,307.002 991.939,306.394 992.948,305.75 993.956,305.185 994.965,304.596 995.973,303.934 996.982,303.347 997.99,302.781 998.998,302.176 1000.01,301.622 1001.02,301.125 1002.02,300.594 1003.03,300.088 1004.04,299.68 1005.05,299.261 1006.06,298.881 1007.07,298.558 1008.07,298.274 1009.08,298.037 1010.09,297.853 1011.1,297.718 1012.11,297.632 1013.12,297.607 1014.13,297.638 1015.13,297.72 1016.14,297.863 1017.15,298.071 1018.16,298.323 1019.17,298.628 1020.18,299.013 1021.18,299.45 1022.19,299.92 1023.2,300.462 1024.21,301.069 1025.22,301.702 1026.23,302.386 1027.24,303.137 1028.24,303.923 1029.25,304.749 1030.26,305.617 1031.27,306.523 1032.28,307.46 1033.29,308.431 1034.29,309.43 1035.3,310.451 1036.31,311.494 1037.32,312.556 1038.33,313.63 1039.34,314.714 1040.34,315.808 1041.35,316.904 1042.36,317.995 1043.37,319.088 1044.38,320.18 1045.39,321.242 1046.4,322.292 1047.4,323.348 1048.41,324.37 1049.42,325.351 1050.43,326.327 1051.44,327.277 1052.45,328.168 1053.45,329.035 1054.46,329.902 1055.47,330.679 1056.48,331.397 1057.49,332.134 1058.5,332.81 1059.51,333.383 1060.51,333.959 1061.52,334.494 1062.53,334.938 1063.54,335.357 1064.55,335.75 1065.56,336.046 1066.56,336.288 1067.57,336.527 1068.58,336.679 1069.59,336.78 1070.6,336.842 1071.61,336.852 1072.62,336.813 1073.62,336.731 1074.63,336.602 1075.64,336.428 1076.65,336.216 1077.66,335.966 1078.67,335.674 1079.67,335.349 1080.68,334.998 1081.69,334.606 1082.7,334.182 1083.71,333.752 1084.72,333.295 1085.73,332.802 1086.73,332.305 1087.74,331.803 1088.75,331.271 1089.76,330.732 1090.77,330.202 1091.78,329.662 1092.78,329.12 1093.79,328.583 1094.8,328.051 1095.81,327.526 1096.82,327.014 1097.83,326.515 1098.84,326.03 1099.84,325.563 1100.85,325.119 1101.86,324.695 1102.87,324.295 1103.88,323.923 1104.89,323.579 1105.89,323.26 1106.9,322.978 1107.91,322.732 1108.92,322.506 1109.93,322.315 1110.94,322.179 1111.95,322.068 1112.95,321.98 1113.96,321.947 1114.97,321.954 1115.98,321.977 1116.99,322.052 1118,322.164 1119,322.308 1120.01,322.489 1121.02,322.707 1122.03,322.957 1123.04,323.243 1124.05,323.561 1125.05,323.909 1126.06,324.287 1127.07,324.696 1128.08,325.13 1129.09,325.588 1130.1,326.073 1131.11,326.582 1132.11,327.102 1133.12,327.643 1134.13,328.216 1135.14,328.788 1136.15,329.361 1137.16,329.968 1138.16,330.58 1139.17,331.177 1140.18,331.793 1141.19,332.437 1142.2,333.037 1143.21,333.628 1144.22,334.265 1145.22,334.876 1146.23,335.439 1147.24,336.038 1148.25,336.638 1149.26,337.178 1150.27,337.719 1151.27,338.252 1152.28,338.761 1153.29,339.25 1154.3,339.719 1155.31,340.166 1156.32,340.588 1157.33,340.987 1158.33,341.36 1159.34,341.706 1160.35,342.025 1161.36,342.318 1162.37,342.581 1163.38,342.816 1164.38,343.025 1165.39,343.202 1166.4,343.346 1167.41,343.469 1168.42,343.564 1169.43,343.623 1170.44,343.657 1171.44,343.671 1172.45,343.65 1173.46,343.601 1174.47,343.534 1175.48,343.44 1176.49,343.322 1177.49,343.182 1178.5,343.021 1179.51,342.838 1180.52,342.638 1181.53,342.421 1182.54,342.186 1183.55,341.937 1184.55,341.675 1185.56,341.401 1186.57,341.115 1187.58,340.822 1188.59,340.52 1189.6,340.211 1190.6,339.9 1191.61,339.588 1192.62,339.268 1193.63,338.947 1194.64,338.642 1195.65,338.329 1196.65,338 1197.66,337.707 1198.67,337.43 1199.68,337.123 1200.69,336.837 1201.7,336.592 1202.71,336.327 1203.71,336.061 1204.72,335.845 1205.73,335.63 1206.74,335.423 1207.75,335.237 1208.76,335.067 1209.76,334.91 1210.77,334.775 1211.78,334.658 1212.79,334.554 1213.8,334.47 1214.81,334.408 1215.82,334.36 1216.82,334.327 1217.83,334.32 1218.84,334.332 1219.85,334.352 1220.86,334.394 1221.87,334.461 1222.87,334.534 1223.88,334.622 1224.89,334.734 1225.9,334.857 1226.91,334.993 1227.92,335.143 1228.93,335.306 1229.93,335.48 1230.94,335.665 1231.95,335.861 1232.96,336.064 1233.97,336.275 1234.98,336.495 1235.98,336.72 1236.99,336.949 1238,337.183 1239.01,337.42 1240.02,337.657 1241.03,337.897 1242.04,338.14 1243.04,338.376 1244.05,338.609 1245.06,338.846 1246.07,339.076 1247.08,339.296 1248.09,339.518 1249.09,339.734 1250.1,339.937 1251.11,340.134 1252.12,340.324 1253.13,340.505 1254.14,340.675 1255.15,340.836 1256.15,340.986 1257.16,341.124 1258.17,341.252 1259.18,341.368 1260.19,341.471 1261.2,341.563 1262.2,341.643 1263.21,341.71 1264.22,341.765 1265.23,341.809 1266.24,341.839 1267.25,341.856 1268.26,341.866 1269.26,341.865 1270.27,341.845 1271.28,341.818 1272.29,341.787 1273.3,341.738 1274.31,341.678 1275.31,341.619 1276.32,341.547 1277.33,341.456 1278.34,341.373 1279.35,341.29 1280.36,341.18 1281.36,341.07 1282.37,340.974 1283.38,340.857 1284.39,340.718 1285.4,340.615 1286.41,340.511 1287.42,340.374 1288.42,340.25 1289.43,340.131 1290.44,340.008 1291.45,339.888 1292.46,339.773 1293.47,339.657 1294.47,339.543 1295.48,339.438 1296.49,339.336 1297.5,339.235 1298.51,339.143 1299.52,339.057 1300.53,338.976 1301.53,338.902 1302.54,338.834 1303.55,338.774 1304.56,338.721 1305.57,338.675 1306.58,338.637 1307.58,338.607 1308.59,338.585 1309.6,338.57 1310.61,338.562 1311.62,338.564 1312.63,338.573 1313.64,338.587 1314.64,338.61 1315.65,338.644 1316.66,338.68 1317.67,338.719 1318.68,338.772 1319.69,338.83 1320.69,338.885 1321.7,338.953 1322.71,339.032 1323.72,339.101 1324.73,339.173 1325.74,339.264 1326.75,339.35 1327.75,339.427 1328.76,339.521 1329.77,339.62 1330.78,339.704 1331.79,339.795 1332.8,339.888 1333.8,339.978 1334.81,340.067 1335.82,340.156 1336.83,340.241 1337.84,340.323 1338.85,340.404 1339.86,340.481 1340.86,340.552 1341.87,340.62 1342.88,340.685 1343.89,340.743 1344.9,340.795 1345.91,340.843 1346.91,340.884 1347.92,340.92 1348.93,340.949 1349.94,340.971 1350.95,340.987 1351.96,340.996 1352.96,340.998 1353.97,340.993 1354.98,340.981 1355.99,340.962 1357,340.936 1358.01,340.903 1359.02,340.865 1360.02,340.819 1361.03,340.765 1362.04,340.707 1363.05,340.644 1364.06,340.572 1365.07,340.495 1366.07,340.416 1367.08,340.329 1368.09,340.236 1369.1,340.142 1370.11,340.043 1371.12,339.94 1372.13,339.834 1373.13,339.725 1374.14,339.613 1375.15,339.5 1376.16,339.385 1377.17,339.268 1378.18,339.15 1379.18,339.033 1380.19,338.915 1381.2,338.797 1382.21,338.681 1383.22,338.566 1384.23,338.451 1385.24,338.339 1386.24,338.231 1387.25,338.122 1388.26,338.016 1389.27,337.918 1390.28,337.821 1391.29,337.725 1392.29,337.636 1393.3,337.553 1394.31,337.47 1395.32,337.394 1396.33,337.324 1397.34,337.257 1398.35,337.197 1399.35,337.141 1400.36,337.091 1401.37,337.046 1402.38,337.007 1403.39,336.973 1404.4,336.944 1405.4,336.921 1406.41,336.904 1407.42,336.891 1408.43,336.884 1409.44,336.882 1410.45,336.885 1411.46,336.892 1412.46,336.905 1413.47,336.923 1414.48,336.942 1415.49,336.967 1416.5,336.997 1417.51,337.029 1418.51,337.063 1419.52,337.103 1420.53,337.145 1421.54,337.185 1422.55,337.233 1423.56,337.283 1424.56,337.329 1425.57,337.379 1426.58,337.434 1427.59,337.485 1428.6,337.534 1429.61,337.589 1430.62,337.641 1431.62,337.692 1432.63,337.743 1433.64,337.792 1434.65,337.84 1435.66,337.887 1436.67,337.932 1437.67,337.973 1438.68,338.013 1439.69,338.051 1440.7,338.085 1441.71,338.116 1442.72,338.144 1443.73,338.169 1444.73,338.189 1445.74,338.206 1446.75,338.221 1447.76,338.23 1448.77,338.234 1449.78,338.237 1450.78,338.234 1451.79,338.224 1452.8,338.214 1453.81,338.201 1454.82,338.178 1455.83,338.153 1456.84,338.128 1457.84,338.093 1458.85,338.054 1459.86,338.015 1460.87,337.97 1461.88,337.921 1462.89,337.868 1463.89,337.811 1464.9,337.751 1465.91,337.688 1466.92,337.622 1467.93,337.551 1468.94,337.479 1469.95,337.404 1470.95,337.326 1471.96,337.245 1472.97,337.163 1473.98,337.079 1474.99,336.992 1476,336.905 1477,336.818 1478.01,336.726 1479.02,336.634 1480.03,336.545 1481.04,336.453 1482.05,336.359 1483.06,336.267 1484.06,336.177 1485.07,336.084 1486.08,335.993 1487.09,335.903 1488.1,335.814 1489.11,335.726 1490.11,335.639 1491.12,335.554 1492.13,335.47 1493.14,335.389 1494.15,335.31 1495.16,335.232 1496.17,335.158 1497.17,335.085 1498.18,335.015 1499.19,334.948 1500.2,334.884 1501.21,334.822 1502.22,334.763 1503.22,334.708 1504.23,334.656 1505.24,334.605 1506.25,334.559 1507.26,334.518 1508.27,334.477 1509.27,334.439 1510.28,334.408 1511.29,334.378 1512.3,334.349 1513.31,334.327 1514.32,334.307 1515.33,334.289 1516.33,334.275 1517.34,334.264 1518.35,334.256 1519.36,334.25 1520.37,334.248 1521.38,334.248 1522.38,334.251 1523.39,334.257 1524.4,334.264 1525.41,334.274 1526.42,334.287 1527.43,334.302 1528.44,334.318 1529.44,334.336 1530.45,334.357 1531.46,334.378 1532.47,334.4 1533.48,334.425 1534.49,334.452 1535.49,334.478 1536.5,334.505 1537.51,334.535 1538.52,334.563 1539.53,334.592 1540.54,334.623 1541.55,334.653 1542.55,334.683 1543.56,334.714 1544.57,334.744 1545.58,334.774 1546.59,334.804 1547.6,334.833 1548.6,334.862 1549.61,334.889 1550.62,334.917 1551.63,334.943 1552.64,334.968 1553.65,334.992 1554.66,335.015 1555.66,335.036 1556.67,335.057 1557.68,335.076 1558.69,335.093 1559.7,335.108 1560.71,335.123 1561.71,335.135 1562.72,335.145 1563.73,335.155 1564.74,335.162 1565.75,335.167 1566.76,335.17 1567.77,335.172 1568.77,335.172 1569.78,335.169 1570.79,335.165 1571.8,335.159 1572.81,335.151 1573.82,335.141 1574.82,335.129 1575.83,335.115 1576.84,335.1 1577.85,335.082 1578.86,335.063 1579.87,335.042 1580.87,335.019 1581.88,334.994 1582.89,334.967 1583.9,334.94 1584.91,334.911 1585.92,334.879 1586.93,334.846 1587.93,334.813 1588.94,334.777 1589.95,334.74 1590.96,334.702 1591.97,334.663 1592.98,334.623 1593.98,334.581 1594.99,334.539 1596,334.495 1597.01,334.451 1598.02,334.406 1599.03,334.36 1600.04,334.314 1601.04,334.267 1602.05,334.219 1603.06,334.171 1604.07,334.123 1605.08,334.074 1606.09,334.025 1607.09,333.976 1608.1,333.928 1609.11,333.878 1610.12,333.829 1611.13,333.781 1612.14,333.732 1613.15,333.683 1614.15,333.635 1615.16,333.588 1616.17,333.54 1617.18,333.493 1618.19,333.448 1619.2,333.402 1620.2,333.357 1621.21,333.313 1622.22,333.27 1623.23,333.228 1624.24,333.187 1625.25,333.146 1626.26,333.107 1627.26,333.069 1628.27,333.031 1629.28,332.995 1630.29,332.961 1631.3,332.927 1632.31,332.895 1633.31,332.864 1634.32,332.834 1635.33,332.806 1636.34,332.779 1637.35,332.753 1638.36,332.729 1639.37,332.706 1640.37,332.685 1641.38,332.665 1642.39,332.647 1643.4,332.63 1644.41,332.614 1645.42,332.6 1646.42,332.588 1647.43,332.576 1648.44,332.567 1649.45,332.558 1650.46,332.551 1651.47,332.546 1652.48,332.542 1653.48,332.539 1654.49,332.537 1655.5,332.537 1656.51,332.538 1657.52,332.54 1658.53,332.544 1659.53,332.548 1660.54,332.553 1661.55,332.56 1662.56,332.567 1663.57,332.575 1664.58,332.585 1665.58,332.595 1666.59,332.605 1667.6,332.617 1668.61,332.63 1669.62,332.642 1670.63,332.655 1671.64,332.669 1672.64,332.683 1673.65,332.696 1674.66,332.712 1675.67,332.727 1676.68,332.741 1677.69,332.757 1678.69,332.772 1679.7,332.787 1680.71,332.801 1681.72,332.816 1682.73,332.83 1683.74,332.845 1684.75,332.858 1685.75,332.872 1686.76,332.885 1687.77,332.897 1688.78,332.909 1689.79,332.92 1690.8,332.93 1691.8,332.94 1692.81,332.949 1693.82,332.958 1694.83,332.965 1695.84,332.972 1696.85,332.978 1697.86,332.983 1698.86,332.987 1699.87,332.99 1700.88,332.992 1701.89,332.993 1702.9,332.993 1703.91,332.993 1704.91,332.991 1705.92,332.988 1706.93,332.985 1707.94,332.98 1708.95,332.975 1709.96,332.968 1710.97,332.961 1711.97,332.953 1712.98,332.944 1713.99,332.934 1715,332.924 1716.01,332.913 1717.02,332.9 1718.02,332.888 1719.03,332.875 1720.04,332.861 1721.05,332.846 1722.06,332.832 1723.07,332.816 1724.08,332.8 1725.08,332.784 1726.09,332.768 1727.1,332.751 1728.11,332.734 1729.12,332.717 1730.13,332.7 1731.13,332.683 1732.14,332.665 1733.15,332.648 1734.16,332.631 1735.17,332.614 1736.18,332.597 1737.18,332.58 1738.19,332.564 1739.2,332.548 1740.21,332.532 1741.22,332.517 1742.23,332.502 1743.24,332.487 1744.24,332.473 1745.25,332.459 1746.26,332.446 1747.27,332.433 1748.28,332.421 1749.29,332.409 1750.29,332.398 1751.3,332.387 1752.31,332.378 1753.32,332.368 1754.33,332.358 1755.34,332.351 1756.35,332.343 1757.35,332.335 1758.36,332.329 1759.37,332.323 1760.38,332.317 1761.39,332.312 1762.4,332.307 1763.4,332.303 1764.41,332.299 1765.42,332.296 1766.43,332.293 1767.44,332.29 1768.45,332.288 1769.46,332.286 1770.46,332.284 1771.47,332.283 1772.48,332.282 1773.49,332.281 1774.5,332.28 1775.51,332.279 1776.51,332.279 1777.52,332.278 1778.53,332.278 1779.54,332.278 1780.55,332.277 1781.56,332.277 1782.57,332.277 1783.57,332.276 1784.58,332.276 1785.59,332.275 1786.6,332.275 1787.61,332.274 1788.62,332.273 1789.62,332.272 1790.63,332.271 1791.64,332.27 1792.65,332.269 1793.66,332.267 1794.67,332.265 1795.68,332.264 1796.68,332.262 1797.69,332.26 1798.7,332.257 1799.71,332.255 1800.72,332.253 1801.73,332.251 1802.73,332.248 1803.74,332.246 1804.75,332.243 1805.76,332.241 1806.77,332.239 1807.78,332.236 1808.79,332.234 1809.79,332.232 1810.8,332.23 1811.81,332.229 1812.82,332.227 1813.83,332.226 1814.84,332.225 1815.84,332.224 1816.85,332.224 1817.86,332.224 1818.87,332.224 1819.88,332.225 1820.89,332.226 1821.89,332.228 1822.9,332.23 1823.91,332.232 1824.92,332.236 1825.93,332.239 1826.94,332.243 1827.95,332.248 1828.95,332.253 1829.96,332.259 1830.97,332.265 1831.98,332.272 1832.99,332.28 1834,332.288 1835,332.296 1836.01,332.306 1837.02,332.315 1838.03,332.325 1839.04,332.336 1840.05,332.347 1841.06,332.358 1842.06,332.37 1843.07,332.383 1844.08,332.395 1845.09,332.408 1846.1,332.422 1847.11,332.435 1848.11,332.449 1849.12,332.463 1850.13,332.477 1851.14,332.492 1852.15,332.506 1853.16,332.52 1854.17,332.535 1855.17,332.549 1856.18,332.563 1857.19,332.577 1858.2,332.59 1859.21,332.604 1860.22,332.617 1861.22,332.629 1862.23,332.642 1863.24,332.653 1864.25,332.665 1865.26,332.675 1866.27,332.685 1867.28,332.695 1868.28,332.704 1869.29,332.712 1870.3,332.719 1871.31,332.726 1872.32,332.732 1873.33,332.736 1874.33,332.741 1875.34,332.744 1876.35,332.746 1877.36,332.748 1878.37,332.748 1879.38,332.748 1880.39,332.747 1881.39,332.744 1882.4,332.741 1883.41,332.737 1884.42,332.732 1885.43,332.727 1886.44,332.72 1887.44,332.713 1888.45,332.705 1889.46,332.696 1890.47,332.686 1891.48,332.676 1892.49,332.665 1893.49,332.653 1894.5,332.64 1895.51,332.628 1896.52,332.614 1897.53,332.601 1898.54,332.586 1899.55,332.572 1900.55,332.557 1901.56,332.542 1902.57,332.527 1903.58,332.512 1904.59,332.496 1905.6,332.481 1906.6,332.466 1907.61,332.451 1908.62,332.436 1909.63,332.421 1910.64,332.407 1911.65,332.393 1912.66,332.38 1913.66,332.367 1914.67,332.354 1915.68,332.342 1916.69,332.331 1917.7,332.321 1918.71,332.311 1919.71,332.302 1920.72,332.294 1921.73,332.286 1922.74,332.28 1923.75,332.274 1924.76,332.27 1925.77,332.266 1926.77,332.263 1927.78,332.262 1928.79,332.261 1929.8,332.261 1930.81,332.263 1931.82,332.265 1932.82,332.269 1933.83,332.274 1934.84,332.279 1935.85,332.286 1936.86,332.293 1937.87,332.302 1938.88,332.311 1939.88,332.322 1940.89,332.333 1941.9,332.345 1942.91,332.358 1943.92,332.372 1944.93,332.386 1945.93,332.402 1946.94,332.417 1947.95,332.434 1948.96,332.451 1949.97,332.468 1950.98,332.486 1951.99,332.504 1952.99,332.523 1954,332.542 1955.01,332.561 1956.02,332.58 1957.03,332.599 1958.04,332.619 1959.04,332.638 1960.05,332.657 1961.06,332.676 1962.07,332.695 1963.08,332.714 1964.09,332.732 1965.1,332.75 1966.1,332.767 1967.11,332.784 1968.12,332.801 1969.13,332.816 1970.14,332.832 1971.15,332.846 1972.15,332.86 1973.16,332.873 1974.17,332.886 1975.18,332.897 1976.19,332.908 1977.2,332.918 1978.2,332.927 1979.21,332.935 1980.22,332.943 1981.23,332.949 1982.24,332.954 1983.25,332.959 1984.26,332.963 1985.26,332.965 1986.27,332.967 1987.28,332.968 1988.29,332.968 1989.3,332.967 1990.31,332.965 1991.31,332.963 1992.32,332.96 1993.33,332.956 1994.34,332.951 1995.35,332.945 1996.36,332.939 1997.37,332.932 1998.37,332.925 1999.38,332.917 2000.39,332.908 2001.4,332.899 2002.41,332.89 2003.42,332.88 2004.42,332.87 2005.43,332.86 2006.44,332.85 2007.45,332.839 2008.46,332.828 2009.47,332.817 2010.48,332.806 2011.48,332.795 2012.49,332.785 2013.5,332.774 2014.51,332.763 2015.52,332.753 2016.53,332.743 2017.53,332.733 2018.54,332.724 2019.55,332.715 2020.56,332.706 2021.57,332.698 2022.58,332.691 2023.59,332.684 2024.59,332.677 2025.6,332.671 2026.61,332.666 2027.62,332.661 2028.63,332.657 2029.64,332.653 2030.64,332.651 2031.65,332.648 2032.66,332.647 2033.67,332.646 2034.68,332.646 2035.69,332.647 2036.7,332.648 2037.7,332.65 2038.71,332.653 2039.72,332.657 2040.73,332.661 2041.74,332.665 2042.75,332.671 2043.75,332.677 2044.76,332.683 2045.77,332.69 2046.78,332.698 2047.79,332.706 2048.8,332.714 2049.8,332.723 2050.81,332.732 2051.82,332.742 2052.83,332.752 2053.84,332.763 2054.85,332.773 2055.86,332.784 2056.86,332.795 2057.87,332.806 2058.88,332.818 2059.89,332.829 2060.9,332.841 2061.91,332.852 2062.91,332.863 2063.92,332.875 2064.93,332.886 2065.94,332.897 2066.95,332.908 2067.96,332.919 2068.97,332.93 2069.97,332.94 2070.98,332.95 2071.99,332.96 2073,332.969 2074.01,332.978 2075.02,332.987 2076.02,332.995 2077.03,333.003 2078.04,333.01 2079.05,333.017 2080.06,333.024 2081.07,333.03 2082.08,333.036 2083.08,333.041 2084.09,333.046 2085.1,333.05 2086.11,333.054 2087.12,333.057 2088.13,333.06 2089.13,333.062 2090.14,333.064 2091.15,333.066 2092.16,333.067 2093.17,333.068 2094.18,333.068 2095.19,333.068 2096.19,333.068 2097.2,333.067 2098.21,333.066 2099.22,333.065 2100.23,333.063 2101.24,333.061 2102.24,333.059 2103.25,333.057 2104.26,333.054 2105.27,333.052 2106.28,333.049 2107.29,333.046 2108.3,333.043 2109.3,333.04 2110.31,333.037 2111.32,333.034 2112.33,333.031 2113.34,333.028 2114.35,333.025 2115.35,333.022 2116.36,333.019 2117.37,333.016 2118.38,333.014 2119.39,333.011 2120.4,333.009 2121.4,333.007 2122.41,333.005 2123.42,333.003 2124.43,333.001 2125.44,333 2126.45,332.999 2127.46,332.998 2128.46,332.997 2129.47,332.997 2130.48,332.997 2131.49,332.997 2132.5,332.997 2133.51,332.997 2134.51,332.998 2135.52,332.999 2136.53,333 2137.54,333.001 2138.55,333.003 2139.56,333.004 2140.57,333.006 2141.57,333.008 2142.58,333.011 2143.59,333.013 2144.6,333.015 2145.61,333.018 2146.62,333.02 2147.62,333.023 2148.63,333.026 2149.64,333.029 2150.65,333.032 2151.66,333.034 2152.67,333.037 2153.68,333.04 2154.68,333.043 2155.69,333.046 2156.7,333.048 2157.71,333.051 2158.72,333.053 2159.73,333.056 2160.73,333.058 2161.74,333.06 2162.75,333.062 2163.76,333.064 2164.77,333.065 2165.78,333.067 2166.79,333.068 2167.79,333.069 2168.8,333.07 2169.81,333.071 2170.82,333.071 2171.83,333.071 2172.84,333.071 2173.84,333.071 2174.85,333.071 2175.86,333.07 2176.87,333.069 2177.88,333.068 2178.89,333.067 2179.9,333.065 2180.9,333.064 2181.91,333.062 2182.92,333.06 2183.93,333.058 2184.94,333.056 2185.95,333.054 2186.95,333.051 2187.96,333.049 2188.97,333.046 2189.98,333.044 2190.99,333.041 2192,333.038 2193.01,333.036 2194.01,333.033 2195.02,333.03 2196.03,333.028 2197.04,333.025 2198.05,333.023 2199.06,333.02 2200.06,333.018 2201.07,333.016 2202.08,333.014 2203.09,333.012 2204.1,333.011 2205.11,333.009 2206.11,333.008 2207.12,333.007 2208.13,333.006 2209.14,333.005 2210.15,333.005 2211.16,333.005 2212.17,333.005 2213.17,333.006 2214.18,333.006 2215.19,333.007 2216.2,333.009 2217.21,333.01 2218.22,333.012 2219.22,333.014 2220.23,333.017 2221.24,333.019 2222.25,333.022 2223.26,333.026 2224.27,333.029 2225.28,333.033 2226.28,333.037 2227.29,333.041 2228.3,333.046 2229.31,333.051 2230.32,333.056 2231.33,333.061 2232.33,333.066 2233.34,333.071 2234.35,333.077 2235.36,333.083 2236.37,333.089 2237.38,333.094 2238.39,333.1 2239.39,333.106 2240.4,333.112 2241.41,333.118 2242.42,333.124 2243.43,333.13 2244.44,333.136 2245.44,333.142 2246.45,333.148 2247.46,333.154 2248.47,333.159 2249.48,333.165 2250.49,333.17 2251.5,333.175 2252.5,333.179 2253.51,333.184 2254.52,333.188 2255.53,333.192 2256.54,333.196 2257.55,333.2 2258.55,333.203 2259.56,333.206 2260.57,333.208 2261.58,333.211 2262.59,333.213 2263.6,333.214 2264.61,333.215 2265.61,333.216 2266.62,333.217 2267.63,333.217 2268.64,333.217 2269.65,333.216 2270.66,333.216 2271.66,333.214 2272.67,333.213 2273.68,333.211 2274.69,333.209 2275.7,333.206 2276.71,333.203 2277.71,333.2 2278.72,333.197 2279.73,333.193 2280.74,333.189 2281.75,333.185 2282.76,333.18 2283.77,333.176 2284.77,333.171 2285.78,333.166 2286.79,333.161 2287.8,333.155 2288.81,333.15 2289.82,333.144 2290.82,333.139 2291.83,333.133 2292.25,333.131 "/>
<path clip-path="url(#clip460)" d="M2015.27 1438.47 L2281.49 1438.47 L2281.49 1334.79 L2015.27 1334.79  Z" fill="#ffffff" fill-rule="evenodd" fill-opacity="1"/>
<polyline clip-path="url(#clip460)" style="stroke:#000000; stroke-linecap:round; stroke-linejoin:round; stroke-width:4; stroke-opacity:1; fill:none" points="2015.27,1438.47 2281.49,1438.47 2281.49,1334.79 2015.27,1334.79 2015.27,1438.47 "/>
<polyline clip-path="url(#clip460)" style="stroke:#009af9; stroke-linecap:round; stroke-linejoin:round; stroke-width:4; stroke-opacity:1; fill:none" points="2039.02,1386.63 2181.55,1386.63 "/>
<path clip-path="url(#clip460)" d="M2219.15 1406.32 Q2217.34 1410.95 2215.63 1412.36 Q2213.92 1413.78 2211.05 1413.78 L2207.65 1413.78 L2207.65 1410.21 L2210.15 1410.21 Q2211.9 1410.21 2212.88 1409.38 Q2213.85 1408.54 2215.03 1405.44 L2215.79 1403.5 L2205.31 1377.99 L2209.82 1377.99 L2217.92 1398.27 L2226.02 1377.99 L2230.54 1377.99 L2219.15 1406.32 Z" fill="#000000" fill-rule="nonzero" fill-opacity="1" /><path clip-path="url(#clip460)" d="M2237.83 1399.98 L2245.47 1399.98 L2245.47 1373.61 L2237.16 1375.28 L2237.16 1371.02 L2245.42 1369.35 L2250.1 1369.35 L2250.1 1399.98 L2257.74 1399.98 L2257.74 1403.91 L2237.83 1403.91 L2237.83 1399.98 Z" fill="#000000" fill-rule="nonzero" fill-opacity="1" /></svg>
