<?xml version="1.0" encoding="utf-8"?>
<svg xmlns="http://www.w3.org/2000/svg" xmlns:xlink="http://www.w3.org/1999/xlink" width="600" height="400" viewBox="0 0 2400 1600">
<defs>
  <clipPath id="clip080">
    <rect x="0" y="0" width="2400" height="1600"/>
  </clipPath>
</defs>
<path clip-path="url(#clip080)" d="
M0 1600 L2400 1600 L2400 0 L0 0  Z
  " fill="#ffffff" fill-rule="evenodd" fill-opacity="1"/>
<defs>
  <clipPath id="clip081">
    <rect x="480" y="0" width="1681" height="1600"/>
  </clipPath>
</defs>
<path clip-path="url(#clip080)" d="
M102.74 1505.26 L2352.76 1505.26 L2352.76 47.2441 L102.74 47.2441  Z
  " fill="#ffffff" fill-rule="evenodd" fill-opacity="1"/>
<defs>
  <clipPath id="clip082">
    <rect x="102" y="47" width="2251" height="1459"/>
  </clipPath>
</defs>
<polyline clip-path="url(#clip082)" style="stroke:#000000; stroke-width:2; stroke-opacity:0.1; fill:none" points="
  378.685,1505.26 378.685,47.2441 
  "/>
<polyline clip-path="url(#clip082)" style="stroke:#000000; stroke-width:2; stroke-opacity:0.1; fill:none" points="
  803.217,1505.26 803.217,47.2441 
  "/>
<polyline clip-path="url(#clip082)" style="stroke:#000000; stroke-width:2; stroke-opacity:0.1; fill:none" points="
  1227.75,1505.26 1227.75,47.2441 
  "/>
<polyline clip-path="url(#clip082)" style="stroke:#000000; stroke-width:2; stroke-opacity:0.1; fill:none" points="
  1652.28,1505.26 1652.28,47.2441 
  "/>
<polyline clip-path="url(#clip082)" style="stroke:#000000; stroke-width:2; stroke-opacity:0.1; fill:none" points="
  2076.81,1505.26 2076.81,47.2441 
  "/>
<polyline clip-path="url(#clip080)" style="stroke:#000000; stroke-width:4; stroke-opacity:1; fill:none" points="
  102.74,1505.26 2352.76,1505.26 
  "/>
<polyline clip-path="url(#clip080)" style="stroke:#000000; stroke-width:4; stroke-opacity:1; fill:none" points="
  378.685,1505.26 378.685,1487.76 
  "/>
<polyline clip-path="url(#clip080)" style="stroke:#000000; stroke-width:4; stroke-opacity:1; fill:none" points="
  803.217,1505.26 803.217,1487.76 
  "/>
<polyline clip-path="url(#clip080)" style="stroke:#000000; stroke-width:4; stroke-opacity:1; fill:none" points="
  1227.75,1505.26 1227.75,1487.76 
  "/>
<polyline clip-path="url(#clip080)" style="stroke:#000000; stroke-width:4; stroke-opacity:1; fill:none" points="
  1652.28,1505.26 1652.28,1487.76 
  "/>
<polyline clip-path="url(#clip080)" style="stroke:#000000; stroke-width:4; stroke-opacity:1; fill:none" points="
  2076.81,1505.26 2076.81,1487.76 
  "/>
<path clip-path="url(#clip080)" d="M 0 0 M350.098 1549.1 L379.773 1549.1 L379.773 1553.04 L350.098 1553.04 L350.098 1549.1 Z" fill="#000000" fill-rule="evenodd" fill-opacity="1" /><path clip-path="url(#clip080)" d="M 0 0 M397.69 1535.45 L385.885 1553.89 L397.69 1553.89 L397.69 1535.45 M396.463 1531.37 L402.343 1531.37 L402.343 1553.89 L407.273 1553.89 L407.273 1557.78 L402.343 1557.78 L402.343 1565.93 L397.69 1565.93 L397.69 1557.78 L382.088 1557.78 L382.088 1553.27 L396.463 1531.37 Z" fill="#000000" fill-rule="evenodd" fill-opacity="1" /><path clip-path="url(#clip080)" d="M 0 0 M775.671 1549.1 L805.346 1549.1 L805.346 1553.04 L775.671 1553.04 L775.671 1549.1 Z" fill="#000000" fill-rule="evenodd" fill-opacity="1" /><path clip-path="url(#clip080)" d="M 0 0 M814.444 1562 L830.763 1562 L830.763 1565.93 L808.819 1565.93 L808.819 1562 Q811.481 1559.24 816.064 1554.61 Q820.67 1549.96 821.851 1548.62 Q824.096 1546.09 824.976 1544.36 Q825.879 1542.6 825.879 1540.91 Q825.879 1538.15 823.934 1536.42 Q822.013 1534.68 818.911 1534.68 Q816.712 1534.68 814.258 1535.45 Q811.828 1536.21 809.05 1537.76 L809.05 1533.04 Q811.874 1531.9 814.328 1531.33 Q816.782 1530.75 818.819 1530.75 Q824.189 1530.75 827.383 1533.43 Q830.578 1536.12 830.578 1540.61 Q830.578 1542.74 829.768 1544.66 Q828.981 1546.56 826.874 1549.15 Q826.295 1549.82 823.194 1553.04 Q820.092 1556.23 814.444 1562 Z" fill="#000000" fill-rule="evenodd" fill-opacity="1" /><path clip-path="url(#clip080)" d="M 0 0 M1227.75 1534.45 Q1224.14 1534.45 1222.31 1538.02 Q1220.5 1541.56 1220.5 1548.69 Q1220.5 1555.79 1222.31 1559.36 Q1224.14 1562.9 1227.75 1562.9 Q1231.38 1562.9 1233.19 1559.36 Q1235.02 1555.79 1235.02 1548.69 Q1235.02 1541.56 1233.19 1538.02 Q1231.38 1534.45 1227.75 1534.45 M1227.75 1530.75 Q1233.56 1530.75 1236.61 1535.35 Q1239.69 1539.94 1239.69 1548.69 Q1239.69 1557.41 1236.61 1562.02 Q1233.56 1566.6 1227.75 1566.6 Q1221.94 1566.6 1218.86 1562.02 Q1215.8 1557.41 1215.8 1548.69 Q1215.8 1539.94 1218.86 1535.35 Q1221.94 1530.75 1227.75 1530.75 Z" fill="#000000" fill-rule="evenodd" fill-opacity="1" /><path clip-path="url(#clip080)" d="M 0 0 M1646.93 1562 L1663.25 1562 L1663.25 1565.93 L1641.31 1565.93 L1641.31 1562 Q1643.97 1559.24 1648.55 1554.61 Q1653.16 1549.96 1654.34 1548.62 Q1656.58 1546.09 1657.46 1544.36 Q1658.37 1542.6 1658.37 1540.91 Q1658.37 1538.15 1656.42 1536.42 Q1654.5 1534.68 1651.4 1534.68 Q1649.2 1534.68 1646.75 1535.45 Q1644.32 1536.21 1641.54 1537.76 L1641.54 1533.04 Q1644.36 1531.9 1646.82 1531.33 Q1649.27 1530.75 1651.31 1530.75 Q1656.68 1530.75 1659.87 1533.43 Q1663.07 1536.12 1663.07 1540.61 Q1663.07 1542.74 1662.26 1544.66 Q1661.47 1546.56 1659.36 1549.15 Q1658.78 1549.82 1655.68 1553.04 Q1652.58 1556.23 1646.93 1562 Z" fill="#000000" fill-rule="evenodd" fill-opacity="1" /><path clip-path="url(#clip080)" d="M 0 0 M2079.82 1535.45 L2068.01 1553.89 L2079.82 1553.89 L2079.82 1535.45 M2078.59 1531.37 L2084.47 1531.37 L2084.47 1553.89 L2089.4 1553.89 L2089.4 1557.78 L2084.47 1557.78 L2084.47 1565.93 L2079.82 1565.93 L2079.82 1557.78 L2064.22 1557.78 L2064.22 1553.27 L2078.59 1531.37 Z" fill="#000000" fill-rule="evenodd" fill-opacity="1" /><path clip-path="url(#clip080)" d="M 0 0 M1173.51 1592.35 L1173.51 1602.48 L1185.58 1602.48 L1185.58 1607.03 L1173.51 1607.03 L1173.51 1626.38 Q1173.51 1630.74 1174.69 1631.98 Q1175.9 1633.22 1179.56 1633.22 L1185.58 1633.22 L1185.58 1638.12 L1179.56 1638.12 Q1172.78 1638.12 1170.2 1635.61 Q1167.62 1633.06 1167.62 1626.38 L1167.62 1607.03 L1163.33 1607.03 L1163.33 1602.48 L1167.62 1602.48 L1167.62 1592.35 L1173.51 1592.35 Z" fill="#000000" fill-rule="evenodd" fill-opacity="1" /><path clip-path="url(#clip080)" d="M 0 0 M1191.72 1602.48 L1197.57 1602.48 L1197.57 1638.12 L1191.72 1638.12 L1191.72 1602.48 M1191.72 1588.6 L1197.57 1588.6 L1197.57 1596.01 L1191.72 1596.01 L1191.72 1588.6 Z" fill="#000000" fill-rule="evenodd" fill-opacity="1" /><path clip-path="url(#clip080)" d="M 0 0 M1231.47 1609.32 Q1233.67 1605.37 1236.72 1603.49 Q1239.78 1601.62 1243.92 1601.62 Q1249.49 1601.62 1252.51 1605.53 Q1255.53 1609.41 1255.53 1616.61 L1255.53 1638.12 L1249.65 1638.12 L1249.65 1616.8 Q1249.65 1611.67 1247.83 1609.19 Q1246.02 1606.71 1242.29 1606.71 Q1237.74 1606.71 1235.1 1609.73 Q1232.46 1612.76 1232.46 1617.98 L1232.46 1638.12 L1226.57 1638.12 L1226.57 1616.8 Q1226.57 1611.64 1224.76 1609.19 Q1222.94 1606.71 1219.15 1606.71 Q1214.67 1606.71 1212.02 1609.76 Q1209.38 1612.79 1209.38 1617.98 L1209.38 1638.12 L1203.49 1638.12 L1203.49 1602.48 L1209.38 1602.48 L1209.38 1608.01 Q1211.39 1604.74 1214.19 1603.18 Q1216.99 1601.62 1220.84 1601.62 Q1224.72 1601.62 1227.43 1603.59 Q1230.17 1605.56 1231.47 1609.32 Z" fill="#000000" fill-rule="evenodd" fill-opacity="1" /><path clip-path="url(#clip080)" d="M 0 0 M1292.17 1618.84 L1292.17 1621.7 L1265.24 1621.7 Q1265.62 1627.75 1268.87 1630.93 Q1272.15 1634.08 1277.97 1634.08 Q1281.35 1634.08 1284.5 1633.25 Q1287.68 1632.43 1290.8 1630.77 L1290.8 1636.31 Q1287.65 1637.65 1284.34 1638.35 Q1281.03 1639.05 1277.62 1639.05 Q1269.09 1639.05 1264.1 1634.08 Q1259.13 1629.12 1259.13 1620.65 Q1259.13 1611.9 1263.84 1606.77 Q1268.58 1601.62 1276.6 1601.62 Q1283.8 1601.62 1287.97 1606.26 Q1292.17 1610.88 1292.17 1618.84 M1286.31 1617.12 Q1286.25 1612.31 1283.61 1609.45 Q1281 1606.58 1276.67 1606.58 Q1271.77 1606.58 1268.81 1609.35 Q1265.88 1612.12 1265.43 1617.15 L1286.31 1617.12 Z" fill="#000000" fill-rule="evenodd" fill-opacity="1" /><polyline clip-path="url(#clip082)" style="stroke:#000000; stroke-width:2; stroke-opacity:0.1; fill:none" points="
  102.74,1464 2352.76,1464 
  "/>
<polyline clip-path="url(#clip082)" style="stroke:#000000; stroke-width:2; stroke-opacity:0.1; fill:none" points="
  102.74,1026.16 2352.76,1026.16 
  "/>
<polyline clip-path="url(#clip082)" style="stroke:#000000; stroke-width:2; stroke-opacity:0.1; fill:none" points="
  102.74,588.333 2352.76,588.333 
  "/>
<polyline clip-path="url(#clip082)" style="stroke:#000000; stroke-width:2; stroke-opacity:0.1; fill:none" points="
  102.74,150.502 2352.76,150.502 
  "/>
<polyline clip-path="url(#clip080)" style="stroke:#000000; stroke-width:4; stroke-opacity:1; fill:none" points="
  102.74,1505.26 102.74,47.2441 
  "/>
<polyline clip-path="url(#clip080)" style="stroke:#000000; stroke-width:4; stroke-opacity:1; fill:none" points="
  102.74,1464 129.74,1464 
  "/>
<polyline clip-path="url(#clip080)" style="stroke:#000000; stroke-width:4; stroke-opacity:1; fill:none" points="
  102.74,1026.16 129.74,1026.16 
  "/>
<polyline clip-path="url(#clip080)" style="stroke:#000000; stroke-width:4; stroke-opacity:1; fill:none" points="
  102.74,588.333 129.74,588.333 
  "/>
<polyline clip-path="url(#clip080)" style="stroke:#000000; stroke-width:4; stroke-opacity:1; fill:none" points="
  102.74,150.502 129.74,150.502 
  "/>
<path clip-path="url(#clip080)" d="M 0 0 M54.7958 1449.79 Q51.1847 1449.79 49.356 1453.36 Q47.5504 1456.9 47.5504 1464.03 Q47.5504 1471.14 49.356 1474.7 Q51.1847 1478.24 54.7958 1478.24 Q58.43 1478.24 60.2356 1474.7 Q62.0643 1471.14 62.0643 1464.03 Q62.0643 1456.9 60.2356 1453.36 Q58.43 1449.79 54.7958 1449.79 M54.7958 1446.09 Q60.6059 1446.09 63.6615 1450.7 Q66.7402 1455.28 66.7402 1464.03 Q66.7402 1472.76 63.6615 1477.36 Q60.6059 1481.95 54.7958 1481.95 Q48.9856 1481.95 45.9069 1477.36 Q42.8514 1472.76 42.8514 1464.03 Q42.8514 1455.28 45.9069 1450.7 Q48.9856 1446.09 54.7958 1446.09 Z" fill="#000000" fill-rule="evenodd" fill-opacity="1" /><path clip-path="url(#clip080)" d="M 0 0 M46.8329 1039.51 L54.4717 1039.51 L54.4717 1013.14 L46.1616 1014.81 L46.1616 1010.55 L54.4254 1008.88 L59.1013 1008.88 L59.1013 1039.51 L66.7402 1039.51 L66.7402 1043.44 L46.8329 1043.44 L46.8329 1039.51 Z" fill="#000000" fill-rule="evenodd" fill-opacity="1" /><path clip-path="url(#clip080)" d="M 0 0 M50.4208 601.678 L66.7402 601.678 L66.7402 605.613 L44.7958 605.613 L44.7958 601.678 Q47.4579 598.924 52.0412 594.294 Q56.6476 589.641 57.8282 588.299 Q60.0735 585.775 60.9532 584.039 Q61.8559 582.28 61.8559 580.59 Q61.8559 577.836 59.9115 576.1 Q57.9902 574.363 54.8884 574.363 Q52.6893 574.363 50.2356 575.127 Q47.8051 575.891 45.0273 577.442 L45.0273 572.72 Q47.8514 571.586 50.3051 571.007 Q52.7588 570.428 54.7958 570.428 Q60.1661 570.428 63.3605 573.113 Q66.555 575.799 66.555 580.289 Q66.555 582.419 65.7448 584.34 Q64.9578 586.238 62.8513 588.831 Q62.2726 589.502 59.1708 592.72 Q56.0689 595.914 50.4208 601.678 Z" fill="#000000" fill-rule="evenodd" fill-opacity="1" /><path clip-path="url(#clip080)" d="M 0 0 M59.6106 149.148 Q62.967 149.866 64.842 152.134 Q66.7402 154.403 66.7402 157.736 Q66.7402 162.852 63.2217 165.653 Q59.7032 168.454 53.2217 168.454 Q51.0458 168.454 48.731 168.014 Q46.4393 167.597 43.9856 166.741 L43.9856 162.227 Q45.9301 163.361 48.2449 163.94 Q50.5597 164.518 53.0828 164.518 Q57.4809 164.518 59.7726 162.782 Q62.0874 161.046 62.0874 157.736 Q62.0874 154.681 59.9346 152.968 Q57.805 151.232 53.9856 151.232 L49.9578 151.232 L49.9578 147.389 L54.1708 147.389 Q57.6198 147.389 59.4485 146.023 Q61.2772 144.634 61.2772 142.042 Q61.2772 139.38 59.3791 137.968 Q57.5041 136.533 53.9856 136.533 Q52.0643 136.533 49.8652 136.949 Q47.6662 137.366 45.0273 138.245 L45.0273 134.079 Q47.6893 133.338 50.0041 132.968 Q52.3421 132.597 54.4023 132.597 Q59.7263 132.597 62.8281 135.028 Q65.93 137.435 65.93 141.556 Q65.93 144.426 64.2865 146.417 Q62.643 148.384 59.6106 149.148 Z" fill="#000000" fill-rule="evenodd" fill-opacity="1" /><path clip-path="url(#clip080)" d="M 0 0 M-13.5781 992.081 Q-14.151 993.068 -14.4056 994.246 Q-14.6921 995.391 -14.6921 996.792 Q-14.6921 1001.76 -11.4455 1004.43 Q-8.23086 1007.07 -2.18344 1007.07 L16.5954 1007.07 L16.5954 1012.96 L-19.0526 1012.96 L-19.0526 1007.07 L-13.5144 1007.07 Q-16.7609 1005.23 -18.3205 1002.27 Q-19.9119 999.306 -19.9119 995.073 Q-19.9119 994.468 -19.8164 993.736 Q-19.7528 993.004 -19.5936 992.113 L-13.5781 992.081 Z" fill="#000000" fill-rule="evenodd" fill-opacity="1" /><path clip-path="url(#clip080)" d="M 0 0 M-14.9467 973.557 Q-14.9467 978.268 -11.2546 981.005 Q-7.59429 983.742 -1.19675 983.742 Q5.20078 983.742 8.89289 981.037 Q12.5532 978.299 12.5532 973.557 Q12.5532 968.878 8.86106 966.141 Q5.16895 963.404 -1.19675 963.404 Q-7.53063 963.404 -11.2227 966.141 Q-14.9467 968.878 -14.9467 973.557 M-19.9119 973.557 Q-19.9119 965.918 -14.9467 961.558 Q-9.98143 957.197 -1.19675 957.197 Q7.55609 957.197 12.5532 961.558 Q17.5184 965.918 17.5184 973.557 Q17.5184 981.228 12.5532 985.588 Q7.55609 989.917 -1.19675 989.917 Q-9.98143 989.917 -14.9467 985.588 Q-19.9119 981.228 -19.9119 973.557 Z" fill="#000000" fill-rule="evenodd" fill-opacity="1" /><path clip-path="url(#clip080)" d="M 0 0 M-29.174 945.261 L-19.0526 945.261 L-19.0526 933.198 L-14.5011 933.198 L-14.5011 945.261 L4.85067 945.261 Q9.21118 945.261 10.4525 944.084 Q11.6938 942.874 11.6938 939.214 L11.6938 933.198 L16.5954 933.198 L16.5954 939.214 Q16.5954 945.994 14.0809 948.572 Q11.5347 951.15 4.85067 951.15 L-14.5011 951.15 L-14.5011 955.447 L-19.0526 955.447 L-19.0526 951.15 L-29.174 951.15 L-29.174 945.261 Z" fill="#000000" fill-rule="evenodd" fill-opacity="1" /><path clip-path="url(#clip080)" d="M 0 0 M-14.9467 913.242 Q-14.9467 917.953 -11.2546 920.69 Q-7.59429 923.427 -1.19675 923.427 Q5.20078 923.427 8.89289 920.722 Q12.5532 917.984 12.5532 913.242 Q12.5532 908.563 8.86106 905.826 Q5.16895 903.089 -1.19675 903.089 Q-7.53063 903.089 -11.2227 905.826 Q-14.9467 908.563 -14.9467 913.242 M-19.9119 913.242 Q-19.9119 905.603 -14.9467 901.243 Q-9.98143 896.882 -1.19675 896.882 Q7.55609 896.882 12.5532 901.243 Q17.5184 905.603 17.5184 913.242 Q17.5184 920.913 12.5532 925.273 Q7.55609 929.602 -1.19675 929.602 Q-9.98143 929.602 -14.9467 925.273 Q-19.9119 920.913 -19.9119 913.242 Z" fill="#000000" fill-rule="evenodd" fill-opacity="1" /><path clip-path="url(#clip080)" d="M 0 0 M-13.5781 870.082 Q-14.151 871.069 -14.4056 872.247 Q-14.6921 873.393 -14.6921 874.793 Q-14.6921 879.758 -11.4455 882.432 Q-8.23086 885.074 -2.18344 885.074 L16.5954 885.074 L16.5954 890.962 L-19.0526 890.962 L-19.0526 885.074 L-13.5144 885.074 Q-16.7609 883.228 -18.3205 880.268 Q-19.9119 877.308 -19.9119 873.074 Q-19.9119 872.47 -19.8164 871.738 Q-19.7528 871.006 -19.5936 870.114 L-13.5781 870.082 Z" fill="#000000" fill-rule="evenodd" fill-opacity="1" /><path clip-path="url(#clip080)" d="M 0 0 M-1.32407 827.018 Q-1.32407 834.116 0.299188 836.853 Q1.92244 839.591 5.83735 839.591 Q8.95655 839.591 10.8026 837.554 Q12.6168 835.485 12.6168 831.952 Q12.6168 827.082 9.17935 824.154 Q5.71004 821.194 -0.0190977 821.194 L-1.32407 821.194 L-1.32407 827.018 M-3.74304 815.337 L16.5954 815.337 L16.5954 821.194 L11.1845 821.194 Q14.4311 823.199 15.9907 826.191 Q17.5184 829.183 17.5184 833.511 Q17.5184 838.986 14.4629 842.233 Q11.3755 845.447 6.21929 845.447 Q0.203702 845.447 -2.85184 841.437 Q-5.90738 837.395 -5.90738 829.406 L-5.90738 821.194 L-6.48029 821.194 Q-10.5225 821.194 -12.7187 823.867 Q-14.9467 826.509 -14.9467 831.315 Q-14.9467 834.371 -14.2146 837.267 Q-13.4826 840.164 -12.0185 842.837 L-17.4293 842.837 Q-18.6706 839.623 -19.2754 836.599 Q-19.9119 833.575 -19.9119 830.711 Q-19.9119 822.976 -15.9015 819.157 Q-11.8911 815.337 -3.74304 815.337 Z" fill="#000000" fill-rule="evenodd" fill-opacity="1" /><path clip-path="url(#clip080)" d="M 0 0 M-4.92069 779.562 L16.5954 779.562 L16.5954 785.419 L-4.72972 785.419 Q-9.79046 785.419 -12.3049 787.392 Q-14.8194 789.365 -14.8194 793.312 Q-14.8194 798.055 -11.7957 800.792 Q-8.77194 803.529 -3.55206 803.529 L16.5954 803.529 L16.5954 809.417 L-19.0526 809.417 L-19.0526 803.529 L-13.5144 803.529 Q-16.7291 801.428 -18.3205 798.596 Q-19.9119 795.731 -19.9119 792.007 Q-19.9119 785.864 -16.0925 782.713 Q-12.3049 779.562 -4.92069 779.562 Z" fill="#000000" fill-rule="evenodd" fill-opacity="1" /><path clip-path="url(#clip080)" d="M 0 0 M-1.64235 749.962 Q-8.00806 749.962 -11.5092 752.603 Q-15.0103 755.213 -15.0103 759.956 Q-15.0103 764.666 -11.5092 767.308 Q-8.00806 769.918 -1.64235 769.918 Q4.69153 769.918 8.19266 767.308 Q11.6938 764.666 11.6938 759.956 Q11.6938 755.213 8.19266 752.603 Q4.69153 749.962 -1.64235 749.962 M12.1712 744.105 Q21.2742 744.105 25.6984 748.147 Q30.1544 752.19 30.1544 760.529 Q30.1544 763.616 29.6769 766.353 Q29.2313 769.091 28.2765 771.669 L22.5792 771.669 Q23.9796 769.091 24.648 766.576 Q25.3164 764.062 25.3164 761.452 Q25.3164 755.691 22.2927 752.826 Q19.3008 749.962 13.2216 749.962 L10.3252 749.962 Q13.4762 751.776 15.0358 754.609 Q16.5954 757.441 16.5954 761.388 Q16.5954 767.945 11.5983 771.955 Q6.60124 775.966 -1.64235 775.966 Q-9.91777 775.966 -14.9149 771.955 Q-19.9119 767.945 -19.9119 761.388 Q-19.9119 757.441 -18.3523 754.609 Q-16.7927 751.776 -13.6417 749.962 L-19.0526 749.962 L-19.0526 744.105 L12.1712 744.105 Z" fill="#000000" fill-rule="evenodd" fill-opacity="1" /><path clip-path="url(#clip080)" d="M 0 0 M-32.9298 737.962 L-32.9298 732.106 L16.5954 732.106 L16.5954 737.962 L-32.9298 737.962 Z" fill="#000000" fill-rule="evenodd" fill-opacity="1" /><path clip-path="url(#clip080)" d="M 0 0 M-2.69269 695.471 L0.171873 695.471 L0.171873 722.398 Q6.21929 722.016 9.40215 718.77 Q12.5532 715.491 12.5532 709.667 Q12.5532 706.293 11.7256 703.142 Q10.8981 699.959 9.24301 696.84 L14.7812 696.84 Q16.118 699.991 16.8182 703.301 Q17.5184 706.611 17.5184 710.017 Q17.5184 718.547 12.5532 723.544 Q7.58792 728.509 -0.878468 728.509 Q-9.63131 728.509 -14.7557 723.799 Q-19.9119 719.056 -19.9119 711.035 Q-19.9119 703.842 -15.265 699.673 Q-10.6498 695.471 -2.69269 695.471 M-4.41144 701.328 Q-9.21754 701.391 -12.0821 704.033 Q-14.9467 706.643 -14.9467 710.972 Q-14.9467 715.873 -12.1776 718.833 Q-9.40851 721.762 -4.37961 722.207 L-4.41144 701.328 Z" fill="#000000" fill-rule="evenodd" fill-opacity="1" /><path clip-path="url(#clip080)" d="M 0 0 M-32.9298 669.149 L-32.9298 655.654 L-28.3783 655.654 L-28.3783 663.293 L20.6376 663.293 L20.6376 655.654 L25.1891 655.654 L25.1891 669.149 L-32.9298 669.149 Z" fill="#000000" fill-rule="evenodd" fill-opacity="1" /><path clip-path="url(#clip080)" d="M 0 0 M-13.5781 628.854 Q-14.151 629.841 -14.4056 631.018 Q-14.6921 632.164 -14.6921 633.565 Q-14.6921 638.53 -11.4455 641.204 Q-8.23086 643.845 -2.18344 643.845 L16.5954 643.845 L16.5954 649.734 L-19.0526 649.734 L-19.0526 643.845 L-13.5144 643.845 Q-16.7609 641.999 -18.3205 639.039 Q-19.9119 636.079 -19.9119 631.846 Q-19.9119 631.241 -19.8164 630.509 Q-19.7528 629.777 -19.5936 628.886 L-13.5781 628.854 Z" fill="#000000" fill-rule="evenodd" fill-opacity="1" /><path clip-path="url(#clip080)" d="M 0 0 M-1.32407 606.51 Q-1.32407 613.608 0.299188 616.345 Q1.92244 619.083 5.83735 619.083 Q8.95655 619.083 10.8026 617.046 Q12.6168 614.977 12.6168 611.444 Q12.6168 606.574 9.17935 603.646 Q5.71004 600.686 -0.0190977 600.686 L-1.32407 600.686 L-1.32407 606.51 M-3.74304 594.829 L16.5954 594.829 L16.5954 600.686 L11.1845 600.686 Q14.4311 602.691 15.9907 605.683 Q17.5184 608.675 17.5184 613.003 Q17.5184 618.478 14.4629 621.724 Q11.3755 624.939 6.21929 624.939 Q0.203702 624.939 -2.85184 620.929 Q-5.90738 616.887 -5.90738 608.898 L-5.90738 600.686 L-6.48029 600.686 Q-10.5225 600.686 -12.7187 603.359 Q-14.9467 606.001 -14.9467 610.807 Q-14.9467 613.863 -14.2146 616.759 Q-13.4826 619.656 -12.0185 622.329 L-17.4293 622.329 Q-18.6706 619.115 -19.2754 616.091 Q-19.9119 613.067 -19.9119 610.203 Q-19.9119 602.468 -15.9015 598.649 Q-11.8911 594.829 -3.74304 594.829 Z" fill="#000000" fill-rule="evenodd" fill-opacity="1" /><path clip-path="url(#clip080)" d="M 0 0 M-13.6417 565.229 L-32.9298 565.229 L-32.9298 559.372 L16.5954 559.372 L16.5954 565.229 L11.2482 565.229 Q14.4311 567.075 15.9907 569.908 Q17.5184 572.708 17.5184 576.655 Q17.5184 583.116 12.3622 587.19 Q7.20598 591.233 -1.19675 591.233 Q-9.59949 591.233 -14.7557 587.19 Q-19.9119 583.116 -19.9119 576.655 Q-19.9119 572.708 -18.3523 569.908 Q-16.8246 567.075 -13.6417 565.229 M-1.19675 585.185 Q5.26444 585.185 8.95655 582.544 Q12.6168 579.87 12.6168 575.223 Q12.6168 570.576 8.95655 567.902 Q5.26444 565.229 -1.19675 565.229 Q-7.65795 565.229 -11.3182 567.902 Q-15.0103 570.576 -15.0103 575.223 Q-15.0103 579.87 -11.3182 582.544 Q-7.65795 585.185 -1.19675 585.185 Z" fill="#000000" fill-rule="evenodd" fill-opacity="1" /><path clip-path="url(#clip080)" d="M 0 0 M-32.9298 539.543 L25.1891 539.543 L25.1891 553.038 L20.6376 553.038 L20.6376 545.431 L-28.3783 545.431 L-28.3783 553.038 L-32.9298 553.038 L-32.9298 539.543 Z" fill="#000000" fill-rule="evenodd" fill-opacity="1" /><polyline clip-path="url(#clip082)" style="stroke:#009af9; stroke-width:4; stroke-opacity:1; fill:none" points="
  166.42,88.5087 187.149,88.5087 378.823,88.5087 494.011,88.5087 591.401,88.5087 697.194,88.5087 794.726,88.5087 899.29,88.5087 1020.44,88.5087 1074.27,88.5087 
  1128.1,88.5087 1151.7,88.5087 1175.31,88.5087 1187.11,88.5087 1198.91,88.5087 1204.81,88.5087 1210.71,88.5087 1213.66,88.5087 1216.61,88.5087 1219.56,88.5087 
  1222.51,88.5087 1224.12,88.5087 1225.73,88.5087 1226.53,88.5087 1227.33,88.5087 1228.14,1464 1228.94,1464 1229.75,1464 1230.55,1464 1231.36,1464 
  1232.16,1464 1233.77,1464 1235.38,1464 1241.81,1464 1248.24,1464 1261.11,1464 1273.98,1464 1299.71,1464 1325.44,1464 1377.21,1464 
  1428.99,1464 1543.47,1464 1652.39,1464 1765.65,1464 1860.99,1464 1977.39,1464 2086.8,1464 2262.1,1464 2289.08,1464 
  "/>
<path clip-path="url(#clip080)" d="
M1796.85 216.805 L2277.76 216.805 L2277.76 95.8446 L1796.85 95.8446  Z
  " fill="#ffffff" fill-rule="evenodd" fill-opacity="1"/>
<polyline clip-path="url(#clip080)" style="stroke:#000000; stroke-width:4; stroke-opacity:1; fill:none" points="
  1796.85,216.805 2277.76,216.805 2277.76,95.8446 1796.85,95.8446 1796.85,216.805 
  "/>
<polyline clip-path="url(#clip080)" style="stroke:#009af9; stroke-width:4; stroke-opacity:1; fill:none" points="
  1821.85,156.325 1971.85,156.325 
  "/>
<path clip-path="url(#clip080)" d="M 0 0 M2012.04 151.66 Q2011.32 151.244 2010.46 151.058 Q2009.63 150.85 2008.61 150.85 Q2005 150.85 2003.06 153.211 Q2001.14 155.549 2001.14 159.947 L2001.14 173.605 L1996.85 173.605 L1996.85 147.679 L2001.14 147.679 L2001.14 151.707 Q2002.48 149.345 2004.63 148.211 Q2006.78 147.054 2009.86 147.054 Q2010.3 147.054 2010.83 147.123 Q2011.37 147.17 2012.02 147.285 L2012.04 151.66 Z" fill="#000000" fill-rule="evenodd" fill-opacity="1" /><path clip-path="url(#clip080)" d="M 0 0 M2025.51 150.665 Q2022.08 150.665 2020.09 153.35 Q2018.1 156.012 2018.1 160.665 Q2018.1 165.318 2020.07 168.003 Q2022.06 170.665 2025.51 170.665 Q2028.91 170.665 2030.9 167.98 Q2032.89 165.294 2032.89 160.665 Q2032.89 156.058 2030.9 153.373 Q2028.91 150.665 2025.51 150.665 M2025.51 147.054 Q2031.07 147.054 2034.24 150.665 Q2037.41 154.276 2037.41 160.665 Q2037.41 167.031 2034.24 170.665 Q2031.07 174.276 2025.51 174.276 Q2019.93 174.276 2016.76 170.665 Q2013.61 167.031 2013.61 160.665 Q2013.61 154.276 2016.76 150.665 Q2019.93 147.054 2025.51 147.054 Z" fill="#000000" fill-rule="evenodd" fill-opacity="1" /><path clip-path="url(#clip080)" d="M 0 0 M2046.09 140.318 L2046.09 147.679 L2054.86 147.679 L2054.86 150.989 L2046.09 150.989 L2046.09 165.063 Q2046.09 168.234 2046.95 169.137 Q2047.83 170.04 2050.49 170.04 L2054.86 170.04 L2054.86 173.605 L2050.49 173.605 Q2045.56 173.605 2043.68 171.776 Q2041.81 169.924 2041.81 165.063 L2041.81 150.989 L2038.68 150.989 L2038.68 147.679 L2041.81 147.679 L2041.81 140.318 L2046.09 140.318 Z" fill="#000000" fill-rule="evenodd" fill-opacity="1" /><path clip-path="url(#clip080)" d="M 0 0 M2069.38 150.665 Q2065.95 150.665 2063.96 153.35 Q2061.97 156.012 2061.97 160.665 Q2061.97 165.318 2063.94 168.003 Q2065.93 170.665 2069.38 170.665 Q2072.78 170.665 2074.77 167.98 Q2076.76 165.294 2076.76 160.665 Q2076.76 156.058 2074.77 153.373 Q2072.78 150.665 2069.38 150.665 M2069.38 147.054 Q2074.93 147.054 2078.1 150.665 Q2081.27 154.276 2081.27 160.665 Q2081.27 167.031 2078.1 170.665 Q2074.93 174.276 2069.38 174.276 Q2063.8 174.276 2060.63 170.665 Q2057.48 167.031 2057.48 160.665 Q2057.48 154.276 2060.63 150.665 Q2063.8 147.054 2069.38 147.054 Z" fill="#000000" fill-rule="evenodd" fill-opacity="1" /><path clip-path="url(#clip080)" d="M 0 0 M2100.76 151.66 Q2100.05 151.244 2099.19 151.058 Q2098.36 150.85 2097.34 150.85 Q2093.73 150.85 2091.78 153.211 Q2089.86 155.549 2089.86 159.947 L2089.86 173.605 L2085.58 173.605 L2085.58 147.679 L2089.86 147.679 L2089.86 151.707 Q2091.2 149.345 2093.36 148.211 Q2095.51 147.054 2098.59 147.054 Q2099.03 147.054 2099.56 147.123 Q2100.09 147.17 2100.74 147.285 L2100.76 151.66 Z" fill="#000000" fill-rule="evenodd" fill-opacity="1" /><path clip-path="url(#clip080)" d="M 0 0 M2132.08 160.572 Q2126.92 160.572 2124.93 161.753 Q2122.94 162.933 2122.94 165.781 Q2122.94 168.049 2124.42 169.392 Q2125.93 170.711 2128.5 170.711 Q2132.04 170.711 2134.17 168.211 Q2136.32 165.688 2136.32 161.521 L2136.32 160.572 L2132.08 160.572 M2140.58 158.813 L2140.58 173.605 L2136.32 173.605 L2136.32 169.669 Q2134.86 172.031 2132.69 173.165 Q2130.51 174.276 2127.36 174.276 Q2123.38 174.276 2121.02 172.054 Q2118.68 169.808 2118.68 166.058 Q2118.68 161.683 2121.6 159.461 Q2124.54 157.239 2130.35 157.239 L2136.32 157.239 L2136.32 156.822 Q2136.32 153.883 2134.38 152.285 Q2132.45 150.665 2128.96 150.665 Q2126.74 150.665 2124.63 151.197 Q2122.52 151.73 2120.58 152.795 L2120.58 148.859 Q2122.92 147.957 2125.12 147.517 Q2127.32 147.054 2129.4 147.054 Q2135.02 147.054 2137.8 149.97 Q2140.58 152.887 2140.58 158.813 Z" fill="#000000" fill-rule="evenodd" fill-opacity="1" /><path clip-path="url(#clip080)" d="M 0 0 M2166.6 157.957 L2166.6 173.605 L2162.34 173.605 L2162.34 158.095 Q2162.34 154.415 2160.9 152.586 Q2159.47 150.758 2156.6 150.758 Q2153.15 150.758 2151.16 152.957 Q2149.17 155.156 2149.17 158.952 L2149.17 173.605 L2144.89 173.605 L2144.89 147.679 L2149.17 147.679 L2149.17 151.707 Q2150.7 149.369 2152.76 148.211 Q2154.84 147.054 2157.55 147.054 Q2162.01 147.054 2164.31 149.832 Q2166.6 152.586 2166.6 157.957 Z" fill="#000000" fill-rule="evenodd" fill-opacity="1" /><path clip-path="url(#clip080)" d="M 0 0 M2188.13 160.341 Q2188.13 155.711 2186.2 153.165 Q2184.31 150.619 2180.86 150.619 Q2177.43 150.619 2175.51 153.165 Q2173.61 155.711 2173.61 160.341 Q2173.61 164.947 2175.51 167.494 Q2177.43 170.04 2180.86 170.04 Q2184.31 170.04 2186.2 167.494 Q2188.13 164.947 2188.13 160.341 M2192.38 170.387 Q2192.38 177.007 2189.45 180.225 Q2186.51 183.466 2180.44 183.466 Q2178.2 183.466 2176.2 183.118 Q2174.21 182.794 2172.34 182.1 L2172.34 177.956 Q2174.21 178.975 2176.04 179.461 Q2177.87 179.947 2179.77 179.947 Q2183.96 179.947 2186.04 177.748 Q2188.13 175.572 2188.13 171.151 L2188.13 169.044 Q2186.81 171.336 2184.75 172.47 Q2182.69 173.605 2179.82 173.605 Q2175.05 173.605 2172.13 169.97 Q2169.21 166.336 2169.21 160.341 Q2169.21 154.322 2172.13 150.688 Q2175.05 147.054 2179.82 147.054 Q2182.69 147.054 2184.75 148.188 Q2186.81 149.322 2188.13 151.614 L2188.13 147.679 L2192.38 147.679 L2192.38 170.387 Z" fill="#000000" fill-rule="evenodd" fill-opacity="1" /><path clip-path="url(#clip080)" d="M 0 0 M2196.85 137.586 L2201.11 137.586 L2201.11 173.605 L2196.85 173.605 L2196.85 137.586 Z" fill="#000000" fill-rule="evenodd" fill-opacity="1" /><path clip-path="url(#clip080)" d="M 0 0 M2227.76 159.577 L2227.76 161.66 L2208.17 161.66 Q2208.45 166.058 2210.81 168.373 Q2213.19 170.665 2217.43 170.665 Q2219.88 170.665 2222.18 170.063 Q2224.49 169.461 2226.76 168.257 L2226.76 172.285 Q2224.47 173.257 2222.06 173.767 Q2219.65 174.276 2217.18 174.276 Q2210.97 174.276 2207.34 170.665 Q2203.73 167.054 2203.73 160.896 Q2203.73 154.531 2207.15 150.804 Q2210.6 147.054 2216.44 147.054 Q2221.67 147.054 2224.7 150.433 Q2227.76 153.79 2227.76 159.577 M2223.5 158.327 Q2223.45 154.832 2221.53 152.748 Q2219.63 150.665 2216.48 150.665 Q2212.92 150.665 2210.76 152.679 Q2208.63 154.693 2208.31 158.35 L2223.5 158.327 Z" fill="#000000" fill-rule="evenodd" fill-opacity="1" /></svg>
