<?xml version="1.0" encoding="utf-8"?>
<svg xmlns="http://www.w3.org/2000/svg" xmlns:xlink="http://www.w3.org/1999/xlink" width="600" height="400" viewBox="0 0 2400 1600">
<defs>
  <clipPath id="clip120">
    <rect x="0" y="0" width="2400" height="1600"/>
  </clipPath>
</defs>
<path clip-path="url(#clip120)" d="
M0 1600 L2400 1600 L2400 0 L0 0  Z
  " fill="#ffffff" fill-rule="evenodd" fill-opacity="1"/>
<defs>
  <clipPath id="clip121">
    <rect x="480" y="0" width="1681" height="1600"/>
  </clipPath>
</defs>
<path clip-path="url(#clip120)" d="
M102.74 1505.26 L2352.76 1505.26 L2352.76 47.2441 L102.74 47.2441  Z
  " fill="#ffffff" fill-rule="evenodd" fill-opacity="1"/>
<defs>
  <clipPath id="clip122">
    <rect x="102" y="47" width="2251" height="1459"/>
  </clipPath>
</defs>
<polyline clip-path="url(#clip122)" style="stroke:#000000; stroke-width:2; stroke-opacity:0.1; fill:none" points="
  166.42,1505.26 166.42,47.2441 
  "/>
<polyline clip-path="url(#clip122)" style="stroke:#000000; stroke-width:2; stroke-opacity:0.1; fill:none" points="
  873.972,1505.26 873.972,47.2441 
  "/>
<polyline clip-path="url(#clip122)" style="stroke:#000000; stroke-width:2; stroke-opacity:0.1; fill:none" points="
  1581.52,1505.26 1581.52,47.2441 
  "/>
<polyline clip-path="url(#clip122)" style="stroke:#000000; stroke-width:2; stroke-opacity:0.1; fill:none" points="
  2289.08,1505.26 2289.08,47.2441 
  "/>
<polyline clip-path="url(#clip120)" style="stroke:#000000; stroke-width:4; stroke-opacity:1; fill:none" points="
  102.74,1505.26 2352.76,1505.26 
  "/>
<polyline clip-path="url(#clip120)" style="stroke:#000000; stroke-width:4; stroke-opacity:1; fill:none" points="
  166.42,1505.26 166.42,1487.76 
  "/>
<polyline clip-path="url(#clip120)" style="stroke:#000000; stroke-width:4; stroke-opacity:1; fill:none" points="
  873.972,1505.26 873.972,1487.76 
  "/>
<polyline clip-path="url(#clip120)" style="stroke:#000000; stroke-width:4; stroke-opacity:1; fill:none" points="
  1581.52,1505.26 1581.52,1487.76 
  "/>
<polyline clip-path="url(#clip120)" style="stroke:#000000; stroke-width:4; stroke-opacity:1; fill:none" points="
  2289.08,1505.26 2289.08,1487.76 
  "/>
<path clip-path="url(#clip120)" d="M 0 0 M166.42 1534.45 Q162.809 1534.45 160.98 1538.02 Q159.175 1541.56 159.175 1548.69 Q159.175 1555.79 160.98 1559.36 Q162.809 1562.9 166.42 1562.9 Q170.054 1562.9 171.86 1559.36 Q173.688 1555.79 173.688 1548.69 Q173.688 1541.56 171.86 1538.02 Q170.054 1534.45 166.42 1534.45 M166.42 1530.75 Q172.23 1530.75 175.286 1535.35 Q178.364 1539.94 178.364 1548.69 Q178.364 1557.41 175.286 1562.02 Q172.23 1566.6 166.42 1566.6 Q160.61 1566.6 157.531 1562.02 Q154.475 1557.41 154.475 1548.69 Q154.475 1539.94 157.531 1535.35 Q160.61 1530.75 166.42 1530.75 Z" fill="#000000" fill-rule="evenodd" fill-opacity="1" /><path clip-path="url(#clip120)" d="M 0 0 M850.847 1562 L858.486 1562 L858.486 1535.63 L850.176 1537.3 L850.176 1533.04 L858.44 1531.37 L863.116 1531.37 L863.116 1562 L870.754 1562 L870.754 1565.93 L850.847 1565.93 L850.847 1562 Z" fill="#000000" fill-rule="evenodd" fill-opacity="1" /><path clip-path="url(#clip120)" d="M 0 0 M885.824 1534.45 Q882.213 1534.45 880.384 1538.02 Q878.578 1541.56 878.578 1548.69 Q878.578 1555.79 880.384 1559.36 Q882.213 1562.9 885.824 1562.9 Q889.458 1562.9 891.264 1559.36 Q893.092 1555.79 893.092 1548.69 Q893.092 1541.56 891.264 1538.02 Q889.458 1534.45 885.824 1534.45 M885.824 1530.75 Q891.634 1530.75 894.689 1535.35 Q897.768 1539.94 897.768 1548.69 Q897.768 1557.41 894.689 1562.02 Q891.634 1566.6 885.824 1566.6 Q880.014 1566.6 876.935 1562.02 Q873.879 1557.41 873.879 1548.69 Q873.879 1539.94 876.935 1535.35 Q880.014 1530.75 885.824 1530.75 Z" fill="#000000" fill-rule="evenodd" fill-opacity="1" /><path clip-path="url(#clip120)" d="M 0 0 M1562.67 1562 L1578.99 1562 L1578.99 1565.93 L1557.05 1565.93 L1557.05 1562 Q1559.71 1559.24 1564.29 1554.61 Q1568.9 1549.96 1570.08 1548.62 Q1572.32 1546.09 1573.2 1544.36 Q1574.11 1542.6 1574.11 1540.91 Q1574.11 1538.15 1572.16 1536.42 Q1570.24 1534.68 1567.14 1534.68 Q1564.94 1534.68 1562.48 1535.45 Q1560.05 1536.21 1557.28 1537.76 L1557.28 1533.04 Q1560.1 1531.9 1562.55 1531.33 Q1565.01 1530.75 1567.05 1530.75 Q1572.42 1530.75 1575.61 1533.43 Q1578.8 1536.12 1578.8 1540.61 Q1578.8 1542.74 1577.99 1544.66 Q1577.21 1546.56 1575.1 1549.15 Q1574.52 1549.82 1571.42 1553.04 Q1568.32 1556.23 1562.67 1562 Z" fill="#000000" fill-rule="evenodd" fill-opacity="1" /><path clip-path="url(#clip120)" d="M 0 0 M1594.06 1534.45 Q1590.45 1534.45 1588.62 1538.02 Q1586.81 1541.56 1586.81 1548.69 Q1586.81 1555.79 1588.62 1559.36 Q1590.45 1562.9 1594.06 1562.9 Q1597.69 1562.9 1599.5 1559.36 Q1601.33 1555.79 1601.33 1548.69 Q1601.33 1541.56 1599.5 1538.02 Q1597.69 1534.45 1594.06 1534.45 M1594.06 1530.75 Q1599.87 1530.75 1602.92 1535.35 Q1606 1539.94 1606 1548.69 Q1606 1557.41 1602.92 1562.02 Q1599.87 1566.6 1594.06 1566.6 Q1588.25 1566.6 1585.17 1562.02 Q1582.11 1557.41 1582.11 1548.69 Q1582.11 1539.94 1585.17 1535.35 Q1588.25 1530.75 1594.06 1530.75 Z" fill="#000000" fill-rule="evenodd" fill-opacity="1" /><path clip-path="url(#clip120)" d="M 0 0 M2279.82 1547.3 Q2283.17 1548.02 2285.05 1550.28 Q2286.95 1552.55 2286.95 1555.89 Q2286.95 1561 2283.43 1563.8 Q2279.91 1566.6 2273.43 1566.6 Q2271.25 1566.6 2268.94 1566.16 Q2266.65 1565.75 2264.19 1564.89 L2264.19 1560.38 Q2266.14 1561.51 2268.45 1562.09 Q2270.77 1562.67 2273.29 1562.67 Q2277.69 1562.67 2279.98 1560.93 Q2282.29 1559.2 2282.29 1555.89 Q2282.29 1552.83 2280.14 1551.12 Q2278.01 1549.38 2274.19 1549.38 L2270.16 1549.38 L2270.16 1545.54 L2274.38 1545.54 Q2277.83 1545.54 2279.65 1544.17 Q2281.48 1542.78 2281.48 1540.19 Q2281.48 1537.53 2279.59 1536.12 Q2277.71 1534.68 2274.19 1534.68 Q2272.27 1534.68 2270.07 1535.1 Q2267.87 1535.52 2265.23 1536.39 L2265.23 1532.23 Q2267.9 1531.49 2270.21 1531.12 Q2272.55 1530.75 2274.61 1530.75 Q2279.93 1530.75 2283.03 1533.18 Q2286.14 1535.58 2286.14 1539.71 Q2286.14 1542.58 2284.49 1544.57 Q2282.85 1546.53 2279.82 1547.3 Z" fill="#000000" fill-rule="evenodd" fill-opacity="1" /><path clip-path="url(#clip120)" d="M 0 0 M2302.02 1534.45 Q2298.4 1534.45 2296.58 1538.02 Q2294.77 1541.56 2294.77 1548.69 Q2294.77 1555.79 2296.58 1559.36 Q2298.4 1562.9 2302.02 1562.9 Q2305.65 1562.9 2307.46 1559.36 Q2309.28 1555.79 2309.28 1548.69 Q2309.28 1541.56 2307.46 1538.02 Q2305.65 1534.45 2302.02 1534.45 M2302.02 1530.75 Q2307.83 1530.75 2310.88 1535.35 Q2313.96 1539.94 2313.96 1548.69 Q2313.96 1557.41 2310.88 1562.02 Q2307.83 1566.6 2302.02 1566.6 Q2296.21 1566.6 2293.13 1562.02 Q2290.07 1557.41 2290.07 1548.69 Q2290.07 1539.94 2293.13 1535.35 Q2296.21 1530.75 2302.02 1530.75 Z" fill="#000000" fill-rule="evenodd" fill-opacity="1" /><path clip-path="url(#clip120)" d="M 0 0 M1173.51 1592.35 L1173.51 1602.48 L1185.58 1602.48 L1185.58 1607.03 L1173.51 1607.03 L1173.51 1626.38 Q1173.51 1630.74 1174.69 1631.98 Q1175.9 1633.22 1179.56 1633.22 L1185.58 1633.22 L1185.58 1638.12 L1179.56 1638.12 Q1172.78 1638.12 1170.2 1635.61 Q1167.62 1633.06 1167.62 1626.38 L1167.62 1607.03 L1163.33 1607.03 L1163.33 1602.48 L1167.62 1602.48 L1167.62 1592.35 L1173.51 1592.35 Z" fill="#000000" fill-rule="evenodd" fill-opacity="1" /><path clip-path="url(#clip120)" d="M 0 0 M1191.72 1602.48 L1197.57 1602.48 L1197.57 1638.12 L1191.72 1638.12 L1191.72 1602.48 M1191.72 1588.6 L1197.57 1588.6 L1197.57 1596.01 L1191.72 1596.01 L1191.72 1588.6 Z" fill="#000000" fill-rule="evenodd" fill-opacity="1" /><path clip-path="url(#clip120)" d="M 0 0 M1231.47 1609.32 Q1233.67 1605.37 1236.72 1603.49 Q1239.78 1601.62 1243.92 1601.62 Q1249.49 1601.62 1252.51 1605.53 Q1255.53 1609.41 1255.53 1616.61 L1255.53 1638.12 L1249.65 1638.12 L1249.65 1616.8 Q1249.65 1611.67 1247.83 1609.19 Q1246.02 1606.71 1242.29 1606.71 Q1237.74 1606.71 1235.1 1609.73 Q1232.46 1612.76 1232.46 1617.98 L1232.46 1638.12 L1226.57 1638.12 L1226.57 1616.8 Q1226.57 1611.64 1224.76 1609.19 Q1222.94 1606.71 1219.15 1606.71 Q1214.67 1606.71 1212.02 1609.76 Q1209.38 1612.79 1209.38 1617.98 L1209.38 1638.12 L1203.49 1638.12 L1203.49 1602.48 L1209.38 1602.48 L1209.38 1608.01 Q1211.39 1604.74 1214.19 1603.18 Q1216.99 1601.62 1220.84 1601.62 Q1224.72 1601.62 1227.43 1603.59 Q1230.17 1605.56 1231.47 1609.32 Z" fill="#000000" fill-rule="evenodd" fill-opacity="1" /><path clip-path="url(#clip120)" d="M 0 0 M1292.17 1618.84 L1292.17 1621.7 L1265.24 1621.7 Q1265.62 1627.75 1268.87 1630.93 Q1272.15 1634.08 1277.97 1634.08 Q1281.35 1634.08 1284.5 1633.25 Q1287.68 1632.43 1290.8 1630.77 L1290.8 1636.31 Q1287.65 1637.65 1284.34 1638.35 Q1281.03 1639.05 1277.62 1639.05 Q1269.09 1639.05 1264.1 1634.08 Q1259.13 1629.12 1259.13 1620.65 Q1259.13 1611.9 1263.84 1606.77 Q1268.58 1601.62 1276.6 1601.62 Q1283.8 1601.62 1287.97 1606.26 Q1292.17 1610.88 1292.17 1618.84 M1286.31 1617.12 Q1286.25 1612.31 1283.61 1609.45 Q1281 1606.58 1276.67 1606.58 Q1271.77 1606.58 1268.81 1609.35 Q1265.88 1612.12 1265.43 1617.15 L1286.31 1617.12 Z" fill="#000000" fill-rule="evenodd" fill-opacity="1" /><polyline clip-path="url(#clip122)" style="stroke:#000000; stroke-width:2; stroke-opacity:0.1; fill:none" points="
  102.74,1462.15 2352.76,1462.15 
  "/>
<polyline clip-path="url(#clip122)" style="stroke:#000000; stroke-width:2; stroke-opacity:0.1; fill:none" points="
  102.74,1228.57 2352.76,1228.57 
  "/>
<polyline clip-path="url(#clip122)" style="stroke:#000000; stroke-width:2; stroke-opacity:0.1; fill:none" points="
  102.74,994.985 2352.76,994.985 
  "/>
<polyline clip-path="url(#clip122)" style="stroke:#000000; stroke-width:2; stroke-opacity:0.1; fill:none" points="
  102.74,761.404 2352.76,761.404 
  "/>
<polyline clip-path="url(#clip122)" style="stroke:#000000; stroke-width:2; stroke-opacity:0.1; fill:none" points="
  102.74,527.822 2352.76,527.822 
  "/>
<polyline clip-path="url(#clip122)" style="stroke:#000000; stroke-width:2; stroke-opacity:0.1; fill:none" points="
  102.74,294.24 2352.76,294.24 
  "/>
<polyline clip-path="url(#clip122)" style="stroke:#000000; stroke-width:2; stroke-opacity:0.1; fill:none" points="
  102.74,60.6584 2352.76,60.6584 
  "/>
<polyline clip-path="url(#clip120)" style="stroke:#000000; stroke-width:4; stroke-opacity:1; fill:none" points="
  102.74,1505.26 102.74,47.2441 
  "/>
<polyline clip-path="url(#clip120)" style="stroke:#000000; stroke-width:4; stroke-opacity:1; fill:none" points="
  102.74,1462.15 129.74,1462.15 
  "/>
<polyline clip-path="url(#clip120)" style="stroke:#000000; stroke-width:4; stroke-opacity:1; fill:none" points="
  102.74,1228.57 129.74,1228.57 
  "/>
<polyline clip-path="url(#clip120)" style="stroke:#000000; stroke-width:4; stroke-opacity:1; fill:none" points="
  102.74,994.985 129.74,994.985 
  "/>
<polyline clip-path="url(#clip120)" style="stroke:#000000; stroke-width:4; stroke-opacity:1; fill:none" points="
  102.74,761.404 129.74,761.404 
  "/>
<polyline clip-path="url(#clip120)" style="stroke:#000000; stroke-width:4; stroke-opacity:1; fill:none" points="
  102.74,527.822 129.74,527.822 
  "/>
<polyline clip-path="url(#clip120)" style="stroke:#000000; stroke-width:4; stroke-opacity:1; fill:none" points="
  102.74,294.24 129.74,294.24 
  "/>
<polyline clip-path="url(#clip120)" style="stroke:#000000; stroke-width:4; stroke-opacity:1; fill:none" points="
  102.74,60.6584 129.74,60.6584 
  "/>
<path clip-path="url(#clip120)" d="M 0 0 M-8.67611 1447.95 Q-12.2872 1447.95 -14.1159 1451.51 Q-15.9214 1455.05 -15.9214 1462.18 Q-15.9214 1469.29 -14.1159 1472.85 Q-12.2872 1476.4 -8.67611 1476.4 Q-5.04187 1476.4 -3.23632 1472.85 Q-1.40763 1469.29 -1.40763 1462.18 Q-1.40763 1455.05 -3.23632 1451.51 Q-5.04187 1447.95 -8.67611 1447.95 M-8.67611 1444.24 Q-2.86595 1444.24 0.189588 1448.85 Q3.26828 1453.43 3.26828 1462.18 Q3.26828 1470.91 0.189588 1475.52 Q-2.86595 1480.1 -8.67611 1480.1 Q-14.4863 1480.1 -17.5649 1475.52 Q-20.6205 1470.91 -20.6205 1462.18 Q-20.6205 1453.43 -17.5649 1448.85 Q-14.4863 1444.24 -8.67611 1444.24 Z" fill="#000000" fill-rule="evenodd" fill-opacity="1" /><path clip-path="url(#clip120)" d="M 0 0 M8.33769 1473.55 L13.2219 1473.55 L13.2219 1479.43 L8.33769 1479.43 L8.33769 1473.55 Z" fill="#000000" fill-rule="evenodd" fill-opacity="1" /><path clip-path="url(#clip120)" d="M 0 0 M18.3376 1444.87 L36.694 1444.87 L36.694 1448.8 L22.62 1448.8 L22.62 1457.28 Q23.6385 1456.93 24.657 1456.77 Q25.6756 1456.58 26.6941 1456.58 Q32.4811 1456.58 35.8607 1459.75 Q39.2403 1462.92 39.2403 1468.34 Q39.2403 1473.92 35.7681 1477.02 Q32.2959 1480.1 25.9765 1480.1 Q23.8006 1480.1 21.5321 1479.73 Q19.2867 1479.36 16.8793 1478.62 L16.8793 1473.92 Q18.9626 1475.05 21.1848 1475.61 Q23.4071 1476.16 25.8839 1476.16 Q29.8885 1476.16 32.2265 1474.06 Q34.5644 1471.95 34.5644 1468.34 Q34.5644 1464.73 32.2265 1462.62 Q29.8885 1460.52 25.8839 1460.52 Q24.0089 1460.52 22.1339 1460.93 Q20.2821 1461.35 18.3376 1462.23 L18.3376 1444.87 Z" fill="#000000" fill-rule="evenodd" fill-opacity="1" /><path clip-path="url(#clip120)" d="M 0 0 M57.1569 1448.94 L45.3514 1467.39 L57.1569 1467.39 L57.1569 1448.94 M55.93 1444.87 L61.8096 1444.87 L61.8096 1467.39 L66.7402 1467.39 L66.7402 1471.28 L61.8096 1471.28 L61.8096 1479.43 L57.1569 1479.43 L57.1569 1471.28 L41.5551 1471.28 L41.5551 1466.77 L55.93 1444.87 Z" fill="#000000" fill-rule="evenodd" fill-opacity="1" /><path clip-path="url(#clip120)" d="M 0 0 M-7.19463 1214.37 Q-10.8057 1214.37 -12.6344 1217.93 Q-14.44 1221.47 -14.44 1228.6 Q-14.44 1235.71 -12.6344 1239.27 Q-10.8057 1242.81 -7.19463 1242.81 Q-3.56039 1242.81 -1.75485 1239.27 Q0.073848 1235.71 0.073848 1228.6 Q0.073848 1221.47 -1.75485 1217.93 Q-3.56039 1214.37 -7.19463 1214.37 M-7.19463 1210.66 Q-1.38448 1210.66 1.67106 1215.27 Q4.74975 1219.85 4.74975 1228.6 Q4.74975 1237.33 1.67106 1241.94 Q-1.38448 1246.52 -7.19463 1246.52 Q-13.0048 1246.52 -16.0835 1241.94 Q-19.139 1237.33 -19.139 1228.6 Q-19.139 1219.85 -16.0835 1215.27 Q-13.0048 1210.66 -7.19463 1210.66 Z" fill="#000000" fill-rule="evenodd" fill-opacity="1" /><path clip-path="url(#clip120)" d="M 0 0 M9.81917 1239.97 L14.7034 1239.97 L14.7034 1245.85 L9.81917 1245.85 L9.81917 1239.97 Z" fill="#000000" fill-rule="evenodd" fill-opacity="1" /><path clip-path="url(#clip120)" d="M 0 0 M19.8191 1211.29 L38.1755 1211.29 L38.1755 1215.22 L24.1015 1215.22 L24.1015 1223.69 Q25.12 1223.35 26.1385 1223.19 Q27.157 1223 28.1755 1223 Q33.9626 1223 37.3422 1226.17 Q40.7218 1229.34 40.7218 1234.76 Q40.7218 1240.34 37.2496 1243.44 Q33.7774 1246.52 27.458 1246.52 Q25.282 1246.52 23.0135 1246.15 Q20.7682 1245.78 18.3608 1245.04 L18.3608 1240.34 Q20.4441 1241.47 22.6663 1242.03 Q24.8885 1242.58 27.3654 1242.58 Q31.37 1242.58 33.7079 1240.48 Q36.0459 1238.37 36.0459 1234.76 Q36.0459 1231.15 33.7079 1229.04 Q31.37 1226.94 27.3654 1226.94 Q25.4904 1226.94 23.6154 1227.35 Q21.7635 1227.77 19.8191 1228.65 L19.8191 1211.29 Z" fill="#000000" fill-rule="evenodd" fill-opacity="1" /><path clip-path="url(#clip120)" d="M 0 0 M45.8375 1211.29 L64.1939 1211.29 L64.1939 1215.22 L50.1199 1215.22 L50.1199 1223.69 Q51.1384 1223.35 52.1569 1223.19 Q53.1754 1223 54.1939 1223 Q59.9809 1223 63.3605 1226.17 Q66.7402 1229.34 66.7402 1234.76 Q66.7402 1240.34 63.268 1243.44 Q59.7958 1246.52 53.4763 1246.52 Q51.3004 1246.52 49.0319 1246.15 Q46.7866 1245.78 44.3792 1245.04 L44.3792 1240.34 Q46.4625 1241.47 48.6847 1242.03 Q50.9069 1242.58 53.3837 1242.58 Q57.3884 1242.58 59.7263 1240.48 Q62.0643 1238.37 62.0643 1234.76 Q62.0643 1231.15 59.7263 1229.04 Q57.3884 1226.94 53.3837 1226.94 Q51.5088 1226.94 49.6338 1227.35 Q47.7819 1227.77 45.8375 1228.65 L45.8375 1211.29 Z" fill="#000000" fill-rule="evenodd" fill-opacity="1" /><path clip-path="url(#clip120)" d="M 0 0 M-8.35203 980.784 Q-11.9631 980.784 -13.7918 984.349 Q-15.5974 987.89 -15.5974 995.02 Q-15.5974 1002.13 -13.7918 1005.69 Q-11.9631 1009.23 -8.35203 1009.23 Q-4.71779 1009.23 -2.91225 1005.69 Q-1.08355 1002.13 -1.08355 995.02 Q-1.08355 987.89 -2.91225 984.349 Q-4.71779 980.784 -8.35203 980.784 M-8.35203 977.08 Q-2.54188 977.08 0.51366 981.687 Q3.59235 986.27 3.59235 995.02 Q3.59235 1003.75 0.51366 1008.35 Q-2.54188 1012.94 -8.35203 1012.94 Q-14.1622 1012.94 -17.2409 1008.35 Q-20.2964 1003.75 -20.2964 995.02 Q-20.2964 986.27 -17.2409 981.687 Q-14.1622 977.08 -8.35203 977.08 Z" fill="#000000" fill-rule="evenodd" fill-opacity="1" /><path clip-path="url(#clip120)" d="M 0 0 M8.66176 1006.39 L13.546 1006.39 L13.546 1012.27 L8.66176 1012.27 L8.66176 1006.39 Z" fill="#000000" fill-rule="evenodd" fill-opacity="1" /><path clip-path="url(#clip120)" d="M 0 0 M18.6617 977.705 L37.0181 977.705 L37.0181 981.64 L22.9441 981.64 L22.9441 990.113 Q23.9626 989.765 24.9811 989.603 Q25.9996 989.418 27.0181 989.418 Q32.8052 989.418 36.1848 992.589 Q39.5644 995.761 39.5644 1001.18 Q39.5644 1006.76 36.0922 1009.86 Q32.62 1012.94 26.3006 1012.94 Q24.1246 1012.94 21.8561 1012.57 Q19.6108 1012.2 17.2034 1011.46 L17.2034 1006.76 Q19.2867 1007.89 21.5089 1008.45 Q23.7311 1009 26.208 1009 Q30.2126 1009 32.5505 1006.89 Q34.8885 1004.79 34.8885 1001.18 Q34.8885 997.566 32.5505 995.46 Q30.2126 993.353 26.208 993.353 Q24.333 993.353 22.458 993.77 Q20.6061 994.187 18.6617 995.066 L18.6617 977.705 Z" fill="#000000" fill-rule="evenodd" fill-opacity="1" /><path clip-path="url(#clip120)" d="M 0 0 M55.2124 993.122 Q52.0643 993.122 50.2125 995.275 Q48.3838 997.427 48.3838 1001.18 Q48.3838 1004.9 50.2125 1007.08 Q52.0643 1009.23 55.2124 1009.23 Q58.3606 1009.23 60.1893 1007.08 Q62.0411 1004.9 62.0411 1001.18 Q62.0411 997.427 60.1893 995.275 Q58.3606 993.122 55.2124 993.122 M64.4948 978.469 L64.4948 982.728 Q62.7355 981.895 60.93 981.455 Q59.1476 981.015 57.3884 981.015 Q52.7588 981.015 50.3051 984.14 Q47.8745 987.265 47.5273 993.585 Q48.893 991.571 50.9532 990.506 Q53.0134 989.418 55.4902 989.418 Q60.6985 989.418 63.7078 992.589 Q66.7402 995.738 66.7402 1001.18 Q66.7402 1006.5 63.592 1009.72 Q60.4439 1012.94 55.2124 1012.94 Q49.2171 1012.94 46.0458 1008.35 Q42.8745 1003.75 42.8745 995.02 Q42.8745 986.826 46.7634 981.965 Q50.6523 977.08 57.2032 977.08 Q58.9624 977.08 60.7448 977.428 Q62.5504 977.775 64.4948 978.469 Z" fill="#000000" fill-rule="evenodd" fill-opacity="1" /><path clip-path="url(#clip120)" d="M 0 0 M-7.28722 747.202 Q-10.8983 747.202 -12.727 750.767 Q-14.5326 754.309 -14.5326 761.438 Q-14.5326 768.545 -12.727 772.11 Q-10.8983 775.651 -7.28722 775.651 Q-3.65298 775.651 -1.84744 772.11 Q-0.0187441 768.545 -0.0187441 761.438 Q-0.0187441 754.309 -1.84744 750.767 Q-3.65298 747.202 -7.28722 747.202 M-7.28722 743.499 Q-1.47707 743.499 1.57847 748.105 Q4.65716 752.688 4.65716 761.438 Q4.65716 770.165 1.57847 774.772 Q-1.47707 779.355 -7.28722 779.355 Q-13.0974 779.355 -16.1761 774.772 Q-19.2316 770.165 -19.2316 761.438 Q-19.2316 752.688 -16.1761 748.105 Q-13.0974 743.499 -7.28722 743.499 Z" fill="#000000" fill-rule="evenodd" fill-opacity="1" /><path clip-path="url(#clip120)" d="M 0 0 M9.72657 772.804 L14.6108 772.804 L14.6108 778.684 L9.72657 778.684 L9.72657 772.804 Z" fill="#000000" fill-rule="evenodd" fill-opacity="1" /><path clip-path="url(#clip120)" d="M 0 0 M19.7265 744.124 L38.0829 744.124 L38.0829 748.059 L24.0089 748.059 L24.0089 756.531 Q25.0274 756.184 26.0459 756.022 Q27.0644 755.836 28.083 755.836 Q33.87 755.836 37.2496 759.008 Q40.6292 762.179 40.6292 767.596 Q40.6292 773.174 37.157 776.276 Q33.6848 779.355 27.3654 779.355 Q25.1895 779.355 22.9209 778.984 Q20.6756 778.614 18.2682 777.873 L18.2682 773.174 Q20.3515 774.309 22.5737 774.864 Q24.7959 775.42 27.2728 775.42 Q31.2774 775.42 33.6153 773.313 Q35.9533 771.207 35.9533 767.596 Q35.9533 763.985 33.6153 761.878 Q31.2774 759.772 27.2728 759.772 Q25.3978 759.772 23.5228 760.188 Q21.671 760.605 19.7265 761.485 L19.7265 744.124 Z" fill="#000000" fill-rule="evenodd" fill-opacity="1" /><path clip-path="url(#clip120)" d="M 0 0 M44.5181 744.124 L66.7402 744.124 L66.7402 746.114 L54.1939 778.684 L49.3097 778.684 L61.1152 748.059 L44.5181 748.059 L44.5181 744.124 Z" fill="#000000" fill-rule="evenodd" fill-opacity="1" /><path clip-path="url(#clip120)" d="M 0 0 M-8.0974 513.621 Q-11.7085 513.621 -13.5372 517.185 Q-15.3427 520.727 -15.3427 527.857 Q-15.3427 534.963 -13.5372 538.528 Q-11.7085 542.069 -8.0974 542.069 Q-4.46316 542.069 -2.65762 538.528 Q-0.828925 534.963 -0.828925 527.857 Q-0.828925 520.727 -2.65762 517.185 Q-4.46316 513.621 -8.0974 513.621 M-8.0974 509.917 Q-2.28725 509.917 0.768289 514.523 Q3.84698 519.107 3.84698 527.857 Q3.84698 536.583 0.768289 541.19 Q-2.28725 545.773 -8.0974 545.773 Q-13.9076 545.773 -16.9862 541.19 Q-20.0418 536.583 -20.0418 527.857 Q-20.0418 519.107 -16.9862 514.523 Q-13.9076 509.917 -8.0974 509.917 Z" fill="#000000" fill-rule="evenodd" fill-opacity="1" /><path clip-path="url(#clip120)" d="M 0 0 M8.91639 539.222 L13.8006 539.222 L13.8006 545.102 L8.91639 545.102 L8.91639 539.222 Z" fill="#000000" fill-rule="evenodd" fill-opacity="1" /><path clip-path="url(#clip120)" d="M 0 0 M18.9163 510.542 L37.2727 510.542 L37.2727 514.477 L23.1987 514.477 L23.1987 522.949 Q24.2172 522.602 25.2358 522.44 Q26.2543 522.255 27.2728 522.255 Q33.0598 522.255 36.4394 525.426 Q39.819 528.597 39.819 534.014 Q39.819 539.593 36.3468 542.694 Q32.8746 545.773 26.5552 545.773 Q24.3793 545.773 22.1108 545.403 Q19.8654 545.032 17.458 544.292 L17.458 539.593 Q19.5413 540.727 21.7635 541.282 Q23.9858 541.838 26.4626 541.838 Q30.4672 541.838 32.8052 539.731 Q35.1431 537.625 35.1431 534.014 Q35.1431 530.403 32.8052 528.296 Q30.4672 526.19 26.4626 526.19 Q24.5876 526.19 22.7126 526.607 Q20.8608 527.023 18.9163 527.903 L18.9163 510.542 Z" fill="#000000" fill-rule="evenodd" fill-opacity="1" /><path clip-path="url(#clip120)" d="M 0 0 M54.8884 528.69 Q51.5551 528.69 49.6338 530.472 Q47.7356 532.255 47.7356 535.38 Q47.7356 538.505 49.6338 540.287 Q51.5551 542.069 54.8884 542.069 Q58.2217 542.069 60.143 540.287 Q62.0643 538.482 62.0643 535.38 Q62.0643 532.255 60.143 530.472 Q58.2448 528.69 54.8884 528.69 M50.2125 526.699 Q47.2032 525.958 45.5134 523.898 Q43.8468 521.838 43.8468 518.875 Q43.8468 514.732 46.7866 512.324 Q49.7495 509.917 54.8884 509.917 Q60.0504 509.917 62.9902 512.324 Q65.93 514.732 65.93 518.875 Q65.93 521.838 64.2402 523.898 Q62.5735 525.958 59.5874 526.699 Q62.967 527.486 64.842 529.778 Q66.7402 532.069 66.7402 535.38 Q66.7402 540.403 63.6615 543.088 Q60.6059 545.773 54.8884 545.773 Q49.1708 545.773 46.0921 543.088 Q43.0366 540.403 43.0366 535.38 Q43.0366 532.069 44.9347 529.778 Q46.8329 527.486 50.2125 526.699 M48.4995 519.315 Q48.4995 522 50.1662 523.505 Q51.856 525.009 54.8884 525.009 Q57.8976 525.009 59.5874 523.505 Q61.3004 522 61.3004 519.315 Q61.3004 516.63 59.5874 515.125 Q57.8976 513.621 54.8884 513.621 Q51.856 513.621 50.1662 515.125 Q48.4995 516.63 48.4995 519.315 Z" fill="#000000" fill-rule="evenodd" fill-opacity="1" /><path clip-path="url(#clip120)" d="M 0 0 M-8.00481 280.039 Q-11.6159 280.039 -13.4446 283.604 Q-15.2501 287.145 -15.2501 294.275 Q-15.2501 301.381 -13.4446 304.946 Q-11.6159 308.488 -8.00481 308.488 Q-4.37057 308.488 -2.56503 304.946 Q-0.736333 301.381 -0.736333 294.275 Q-0.736333 287.145 -2.56503 283.604 Q-4.37057 280.039 -8.00481 280.039 M-8.00481 276.335 Q-2.19466 276.335 0.860881 280.942 Q3.93957 285.525 3.93957 294.275 Q3.93957 303.002 0.860881 307.608 Q-2.19466 312.191 -8.00481 312.191 Q-13.815 312.191 -16.8937 307.608 Q-19.9492 303.002 -19.9492 294.275 Q-19.9492 285.525 -16.8937 280.942 Q-13.815 276.335 -8.00481 276.335 Z" fill="#000000" fill-rule="evenodd" fill-opacity="1" /><path clip-path="url(#clip120)" d="M 0 0 M9.00899 305.641 L13.8932 305.641 L13.8932 311.52 L9.00899 311.52 L9.00899 305.641 Z" fill="#000000" fill-rule="evenodd" fill-opacity="1" /><path clip-path="url(#clip120)" d="M 0 0 M19.0089 276.96 L37.3653 276.96 L37.3653 280.895 L23.2913 280.895 L23.2913 289.367 Q24.3098 289.02 25.3283 288.858 Q26.3469 288.673 27.3654 288.673 Q33.1524 288.673 36.532 291.844 Q39.9116 295.016 39.9116 300.432 Q39.9116 306.011 36.4394 309.113 Q32.9672 312.191 26.6478 312.191 Q24.4719 312.191 22.2034 311.821 Q19.958 311.451 17.5506 310.71 L17.5506 306.011 Q19.6339 307.145 21.8561 307.701 Q24.0783 308.256 26.5552 308.256 Q30.5598 308.256 32.8977 306.15 Q35.2357 304.043 35.2357 300.432 Q35.2357 296.821 32.8977 294.715 Q30.5598 292.608 26.5552 292.608 Q24.6802 292.608 22.8052 293.025 Q20.9534 293.441 19.0089 294.321 L19.0089 276.96 Z" fill="#000000" fill-rule="evenodd" fill-opacity="1" /><path clip-path="url(#clip120)" d="M 0 0 M45.1199 310.803 L45.1199 306.543 Q46.8792 307.377 48.6847 307.816 Q50.4902 308.256 52.2263 308.256 Q56.856 308.256 59.2865 305.154 Q61.7402 302.029 62.0874 295.687 Q60.7448 297.678 58.6846 298.742 Q56.6245 299.807 54.1245 299.807 Q48.9393 299.807 45.9069 296.682 Q42.8977 293.534 42.8977 288.094 Q42.8977 282.77 46.0458 279.553 Q49.194 276.335 54.4254 276.335 Q60.4207 276.335 63.5689 280.942 Q66.7402 285.525 66.7402 294.275 Q66.7402 302.446 62.8513 307.33 Q58.9856 312.191 52.4347 312.191 Q50.6754 312.191 48.8699 311.844 Q47.0643 311.497 45.1199 310.803 M54.4254 296.15 Q57.5735 296.15 59.4022 293.997 Q61.2541 291.844 61.2541 288.094 Q61.2541 284.367 59.4022 282.215 Q57.5735 280.039 54.4254 280.039 Q51.2773 280.039 49.4254 282.215 Q47.5967 284.367 47.5967 288.094 Q47.5967 291.844 49.4254 293.997 Q51.2773 296.15 54.4254 296.15 Z" fill="#000000" fill-rule="evenodd" fill-opacity="1" /><path clip-path="url(#clip120)" d="M 0 0 M-9.3474 46.4571 Q-12.9585 46.4571 -14.7872 50.0219 Q-16.5927 53.5635 -16.5927 60.6931 Q-16.5927 67.7995 -14.7872 71.3643 Q-12.9585 74.906 -9.3474 74.906 Q-5.71316 74.906 -3.90761 71.3643 Q-2.07892 67.7995 -2.07892 60.6931 Q-2.07892 53.5635 -3.90761 50.0219 Q-5.71316 46.4571 -9.3474 46.4571 M-9.3474 42.7534 Q-3.53724 42.7534 -0.481705 47.3598 Q2.59698 51.9431 2.59698 60.6931 Q2.59698 69.4199 -0.481705 74.0264 Q-3.53724 78.6097 -9.3474 78.6097 Q-15.1576 78.6097 -18.2362 74.0264 Q-21.2918 69.4199 -21.2918 60.6931 Q-21.2918 51.9431 -18.2362 47.3598 Q-15.1576 42.7534 -9.3474 42.7534 Z" fill="#000000" fill-rule="evenodd" fill-opacity="1" /><path clip-path="url(#clip120)" d="M 0 0 M7.6664 72.0588 L12.5506 72.0588 L12.5506 77.9384 L7.6664 77.9384 L7.6664 72.0588 Z" fill="#000000" fill-rule="evenodd" fill-opacity="1" /><path clip-path="url(#clip120)" d="M 0 0 M28.1987 58.795 Q25.0506 58.795 23.1987 60.9477 Q21.37 63.1005 21.37 66.8505 Q21.37 70.5773 23.1987 72.7532 Q25.0506 74.906 28.1987 74.906 Q31.3468 74.906 33.1755 72.7532 Q35.0274 70.5773 35.0274 66.8505 Q35.0274 63.1005 33.1755 60.9477 Q31.3468 58.795 28.1987 58.795 M37.4811 44.1423 L37.4811 48.4015 Q35.7218 47.5682 33.9163 47.1284 Q32.1339 46.6885 30.3746 46.6885 Q25.745 46.6885 23.2913 49.8135 Q20.8608 52.9385 20.5136 59.2579 Q21.8793 57.244 23.9395 56.1792 Q25.9996 55.0913 28.4765 55.0913 Q33.6848 55.0913 36.694 58.2626 Q39.7264 61.4107 39.7264 66.8505 Q39.7264 72.1745 36.5783 75.3921 Q33.4302 78.6097 28.1987 78.6097 Q22.2034 78.6097 19.0321 74.0264 Q15.8608 69.4199 15.8608 60.6931 Q15.8608 52.4987 19.7497 47.6376 Q23.6385 42.7534 30.1894 42.7534 Q31.9487 42.7534 33.7311 43.1006 Q35.5366 43.4478 37.4811 44.1423 Z" fill="#000000" fill-rule="evenodd" fill-opacity="1" /><path clip-path="url(#clip120)" d="M 0 0 M54.7958 46.4571 Q51.1847 46.4571 49.356 50.0219 Q47.5504 53.5635 47.5504 60.6931 Q47.5504 67.7995 49.356 71.3643 Q51.1847 74.906 54.7958 74.906 Q58.43 74.906 60.2356 71.3643 Q62.0643 67.7995 62.0643 60.6931 Q62.0643 53.5635 60.2356 50.0219 Q58.43 46.4571 54.7958 46.4571 M54.7958 42.7534 Q60.6059 42.7534 63.6615 47.3598 Q66.7402 51.9431 66.7402 60.6931 Q66.7402 69.4199 63.6615 74.0264 Q60.6059 78.6097 54.7958 78.6097 Q48.9856 78.6097 45.9069 74.0264 Q42.8514 69.4199 42.8514 60.6931 Q42.8514 51.9431 45.9069 47.3598 Q48.9856 42.7534 54.7958 42.7534 Z" fill="#000000" fill-rule="evenodd" fill-opacity="1" /><path clip-path="url(#clip120)" d="M 0 0 M-77.7212 992.081 Q-78.2941 993.068 -78.5488 994.246 Q-78.8352 995.391 -78.8352 996.792 Q-78.8352 1001.76 -75.5887 1004.43 Q-72.374 1007.07 -66.3266 1007.07 L-47.5478 1007.07 L-47.5478 1012.96 L-83.1957 1012.96 L-83.1957 1007.07 L-77.6576 1007.07 Q-80.9041 1005.23 -82.4637 1002.27 Q-84.0551 999.306 -84.0551 995.073 Q-84.0551 994.468 -83.9596 993.736 Q-83.896 993.004 -83.7368 992.113 L-77.7212 992.081 Z" fill="#000000" fill-rule="evenodd" fill-opacity="1" /><path clip-path="url(#clip120)" d="M 0 0 M-79.0899 973.557 Q-79.0899 978.268 -75.3977 981.005 Q-71.7375 983.742 -65.3399 983.742 Q-58.9424 983.742 -55.2503 981.037 Q-51.59 978.299 -51.59 973.557 Q-51.59 968.878 -55.2821 966.141 Q-58.9742 963.404 -65.3399 963.404 Q-71.6738 963.404 -75.3659 966.141 Q-79.0899 968.878 -79.0899 973.557 M-84.0551 973.557 Q-84.0551 965.918 -79.0899 961.558 Q-74.1246 957.197 -65.3399 957.197 Q-56.5871 957.197 -51.59 961.558 Q-46.6248 965.918 -46.6248 973.557 Q-46.6248 981.228 -51.59 985.588 Q-56.5871 989.917 -65.3399 989.917 Q-74.1246 989.917 -79.0899 985.588 Q-84.0551 981.228 -84.0551 973.557 Z" fill="#000000" fill-rule="evenodd" fill-opacity="1" /><path clip-path="url(#clip120)" d="M 0 0 M-93.3172 945.261 L-83.1957 945.261 L-83.1957 933.198 L-78.6443 933.198 L-78.6443 945.261 L-59.2925 945.261 Q-54.932 945.261 -53.6907 944.084 Q-52.4494 942.874 -52.4494 939.214 L-52.4494 933.198 L-47.5478 933.198 L-47.5478 939.214 Q-47.5478 945.994 -50.0622 948.572 Q-52.6085 951.15 -59.2925 951.15 L-78.6443 951.15 L-78.6443 955.447 L-83.1957 955.447 L-83.1957 951.15 L-93.3172 951.15 L-93.3172 945.261 Z" fill="#000000" fill-rule="evenodd" fill-opacity="1" /><path clip-path="url(#clip120)" d="M 0 0 M-79.0899 913.242 Q-79.0899 917.953 -75.3977 920.69 Q-71.7375 923.427 -65.3399 923.427 Q-58.9424 923.427 -55.2503 920.722 Q-51.59 917.984 -51.59 913.242 Q-51.59 908.563 -55.2821 905.826 Q-58.9742 903.089 -65.3399 903.089 Q-71.6738 903.089 -75.3659 905.826 Q-79.0899 908.563 -79.0899 913.242 M-84.0551 913.242 Q-84.0551 905.603 -79.0899 901.243 Q-74.1246 896.882 -65.3399 896.882 Q-56.5871 896.882 -51.59 901.243 Q-46.6248 905.603 -46.6248 913.242 Q-46.6248 920.913 -51.59 925.273 Q-56.5871 929.602 -65.3399 929.602 Q-74.1246 929.602 -79.0899 925.273 Q-84.0551 920.913 -84.0551 913.242 Z" fill="#000000" fill-rule="evenodd" fill-opacity="1" /><path clip-path="url(#clip120)" d="M 0 0 M-77.7212 870.082 Q-78.2941 871.069 -78.5488 872.247 Q-78.8352 873.393 -78.8352 874.793 Q-78.8352 879.758 -75.5887 882.432 Q-72.374 885.074 -66.3266 885.074 L-47.5478 885.074 L-47.5478 890.962 L-83.1957 890.962 L-83.1957 885.074 L-77.6576 885.074 Q-80.9041 883.228 -82.4637 880.268 Q-84.0551 877.308 -84.0551 873.074 Q-84.0551 872.47 -83.9596 871.738 Q-83.896 871.006 -83.7368 870.114 L-77.7212 870.082 Z" fill="#000000" fill-rule="evenodd" fill-opacity="1" /><path clip-path="url(#clip120)" d="M 0 0 M-65.4672 827.018 Q-65.4672 834.116 -63.844 836.853 Q-62.2207 839.591 -58.3058 839.591 Q-55.1866 839.591 -53.3406 837.554 Q-51.5263 835.485 -51.5263 831.952 Q-51.5263 827.082 -54.9638 824.154 Q-58.4331 821.194 -64.1623 821.194 L-65.4672 821.194 L-65.4672 827.018 M-67.8862 815.337 L-47.5478 815.337 L-47.5478 821.194 L-52.9586 821.194 Q-49.7121 823.199 -48.1525 826.191 Q-46.6248 829.183 -46.6248 833.511 Q-46.6248 838.986 -49.6803 842.233 Q-52.7677 845.447 -57.9239 845.447 Q-63.9395 845.447 -66.995 841.437 Q-70.0506 837.395 -70.0506 829.406 L-70.0506 821.194 L-70.6235 821.194 Q-74.6657 821.194 -76.8619 823.867 Q-79.0899 826.509 -79.0899 831.315 Q-79.0899 834.371 -78.3578 837.267 Q-77.6257 840.164 -76.1616 842.837 L-81.5725 842.837 Q-82.8138 839.623 -83.4185 836.599 Q-84.0551 833.575 -84.0551 830.711 Q-84.0551 822.976 -80.0447 819.157 Q-76.0343 815.337 -67.8862 815.337 Z" fill="#000000" fill-rule="evenodd" fill-opacity="1" /><path clip-path="url(#clip120)" d="M 0 0 M-69.0639 779.562 L-47.5478 779.562 L-47.5478 785.419 L-68.8729 785.419 Q-73.9336 785.419 -76.4481 787.392 Q-78.9625 789.365 -78.9625 793.312 Q-78.9625 798.055 -75.9388 800.792 Q-72.9151 803.529 -67.6952 803.529 L-47.5478 803.529 L-47.5478 809.417 L-83.1957 809.417 L-83.1957 803.529 L-77.6576 803.529 Q-80.8723 801.428 -82.4637 798.596 Q-84.0551 795.731 -84.0551 792.007 Q-84.0551 785.864 -80.2357 782.713 Q-76.4481 779.562 -69.0639 779.562 Z" fill="#000000" fill-rule="evenodd" fill-opacity="1" /><path clip-path="url(#clip120)" d="M 0 0 M-65.7855 749.962 Q-72.1512 749.962 -75.6524 752.603 Q-79.1535 755.213 -79.1535 759.956 Q-79.1535 764.666 -75.6524 767.308 Q-72.1512 769.918 -65.7855 769.918 Q-59.4516 769.918 -55.9505 767.308 Q-52.4494 764.666 -52.4494 759.956 Q-52.4494 755.213 -55.9505 752.603 Q-59.4516 749.962 -65.7855 749.962 M-51.9719 744.105 Q-42.869 744.105 -38.4448 748.147 Q-33.9888 752.19 -33.9888 760.529 Q-33.9888 763.616 -34.4663 766.353 Q-34.9119 769.091 -35.8667 771.669 L-41.564 771.669 Q-40.1636 769.091 -39.4952 766.576 Q-38.8268 764.062 -38.8268 761.452 Q-38.8268 755.691 -41.8505 752.826 Q-44.8424 749.962 -50.9216 749.962 L-53.818 749.962 Q-50.667 751.776 -49.1074 754.609 Q-47.5478 757.441 -47.5478 761.388 Q-47.5478 767.945 -52.5449 771.955 Q-57.5419 775.966 -65.7855 775.966 Q-74.0609 775.966 -79.058 771.955 Q-84.0551 767.945 -84.0551 761.388 Q-84.0551 757.441 -82.4955 754.609 Q-80.9359 751.776 -77.7849 749.962 L-83.1957 749.962 L-83.1957 744.105 L-51.9719 744.105 Z" fill="#000000" fill-rule="evenodd" fill-opacity="1" /><path clip-path="url(#clip120)" d="M 0 0 M-97.073 737.962 L-97.073 732.106 L-47.5478 732.106 L-47.5478 737.962 L-97.073 737.962 Z" fill="#000000" fill-rule="evenodd" fill-opacity="1" /><path clip-path="url(#clip120)" d="M 0 0 M-66.8359 695.471 L-63.9713 695.471 L-63.9713 722.398 Q-57.9239 722.016 -54.741 718.77 Q-51.59 715.491 -51.59 709.667 Q-51.59 706.293 -52.4175 703.142 Q-53.2451 699.959 -54.9002 696.84 L-49.362 696.84 Q-48.0252 699.991 -47.325 703.301 Q-46.6248 706.611 -46.6248 710.017 Q-46.6248 718.547 -51.59 723.544 Q-56.5553 728.509 -65.0216 728.509 Q-73.7745 728.509 -78.8989 723.799 Q-84.0551 719.056 -84.0551 711.035 Q-84.0551 703.842 -79.4081 699.673 Q-74.793 695.471 -66.8359 695.471 M-68.5546 701.328 Q-73.3607 701.391 -76.2253 704.033 Q-79.0899 706.643 -79.0899 710.972 Q-79.0899 715.873 -76.3208 718.833 Q-73.5517 721.762 -68.5228 722.207 L-68.5546 701.328 Z" fill="#000000" fill-rule="evenodd" fill-opacity="1" /><path clip-path="url(#clip120)" d="M 0 0 M-97.073 669.149 L-97.073 655.654 L-92.5215 655.654 L-92.5215 663.293 L-43.5056 663.293 L-43.5056 655.654 L-38.9541 655.654 L-38.9541 669.149 L-97.073 669.149 Z" fill="#000000" fill-rule="evenodd" fill-opacity="1" /><path clip-path="url(#clip120)" d="M 0 0 M-77.7212 628.854 Q-78.2941 629.841 -78.5488 631.018 Q-78.8352 632.164 -78.8352 633.565 Q-78.8352 638.53 -75.5887 641.204 Q-72.374 643.845 -66.3266 643.845 L-47.5478 643.845 L-47.5478 649.734 L-83.1957 649.734 L-83.1957 643.845 L-77.6576 643.845 Q-80.9041 641.999 -82.4637 639.039 Q-84.0551 636.079 -84.0551 631.846 Q-84.0551 631.241 -83.9596 630.509 Q-83.896 629.777 -83.7368 628.886 L-77.7212 628.854 Z" fill="#000000" fill-rule="evenodd" fill-opacity="1" /><path clip-path="url(#clip120)" d="M 0 0 M-65.4672 606.51 Q-65.4672 613.608 -63.844 616.345 Q-62.2207 619.083 -58.3058 619.083 Q-55.1866 619.083 -53.3406 617.046 Q-51.5263 614.977 -51.5263 611.444 Q-51.5263 606.574 -54.9638 603.646 Q-58.4331 600.686 -64.1623 600.686 L-65.4672 600.686 L-65.4672 606.51 M-67.8862 594.829 L-47.5478 594.829 L-47.5478 600.686 L-52.9586 600.686 Q-49.7121 602.691 -48.1525 605.683 Q-46.6248 608.675 -46.6248 613.003 Q-46.6248 618.478 -49.6803 621.724 Q-52.7677 624.939 -57.9239 624.939 Q-63.9395 624.939 -66.995 620.929 Q-70.0506 616.887 -70.0506 608.898 L-70.0506 600.686 L-70.6235 600.686 Q-74.6657 600.686 -76.8619 603.359 Q-79.0899 606.001 -79.0899 610.807 Q-79.0899 613.863 -78.3578 616.759 Q-77.6257 619.656 -76.1616 622.329 L-81.5725 622.329 Q-82.8138 619.115 -83.4185 616.091 Q-84.0551 613.067 -84.0551 610.203 Q-84.0551 602.468 -80.0447 598.649 Q-76.0343 594.829 -67.8862 594.829 Z" fill="#000000" fill-rule="evenodd" fill-opacity="1" /><path clip-path="url(#clip120)" d="M 0 0 M-77.7849 565.229 L-97.073 565.229 L-97.073 559.372 L-47.5478 559.372 L-47.5478 565.229 L-52.895 565.229 Q-49.7121 567.075 -48.1525 569.908 Q-46.6248 572.708 -46.6248 576.655 Q-46.6248 583.116 -51.781 587.19 Q-56.9372 591.233 -65.3399 591.233 Q-73.7427 591.233 -78.8989 587.19 Q-84.0551 583.116 -84.0551 576.655 Q-84.0551 572.708 -82.4955 569.908 Q-80.9677 567.075 -77.7849 565.229 M-65.3399 585.185 Q-58.8787 585.185 -55.1866 582.544 Q-51.5263 579.87 -51.5263 575.223 Q-51.5263 570.576 -55.1866 567.902 Q-58.8787 565.229 -65.3399 565.229 Q-71.8011 565.229 -75.4614 567.902 Q-79.1535 570.576 -79.1535 575.223 Q-79.1535 579.87 -75.4614 582.544 Q-71.8011 585.185 -65.3399 585.185 Z" fill="#000000" fill-rule="evenodd" fill-opacity="1" /><path clip-path="url(#clip120)" d="M 0 0 M-97.073 539.543 L-38.9541 539.543 L-38.9541 553.038 L-43.5056 553.038 L-43.5056 545.431 L-92.5215 545.431 L-92.5215 553.038 L-97.073 553.038 L-97.073 539.543 Z" fill="#000000" fill-rule="evenodd" fill-opacity="1" /><polyline clip-path="url(#clip122)" style="stroke:#009af9; stroke-width:4; stroke-opacity:1; fill:none" points="
  166.42,1464 166.491,1464 166.561,1464 166.703,1464 166.986,1464 167.552,1464 168.684,1464 170.948,1464 175.477,1464 184.533,1464 
  202.647,1464 237.175,1464 237.688,1462.61 238.201,1459.85 238.714,1455.73 239.74,1444.33 240.766,1428.04 241.792,1406.64 243.844,1349.46 
  245.896,1274.65 247.948,1184.62 249.794,1092.8 251.456,1003.35 252.917,920.856 254.179,847.677 255.226,786.312 256.168,731.015 256.724,698.566 257.336,663.164 
  257.948,628.177 258.56,593.699 259.785,526.215 261.013,461.22 262.242,399.673 263.471,342.219 264.7,289.455 267.158,199.885 269.615,134.711 272.342,94.0664 
  275.069,88.5087 277.795,117.992 280.522,180.584 283.249,272.607 285.975,389.023 288.702,523.309 291.429,667.978 294.155,815.069 296.882,956.616 299.609,1085.06 
  302.335,1193.57 305.062,1276.53 307.789,1329.77 310.515,1350.8 315.969,1294.84 320.62,1154.79 325.272,954.638 328.679,788.433 332.086,621.08 335.493,466.398 
  338.9,337.178 343.759,216.937 348.618,188.276 353.477,253.773 358.336,400.535 362.709,579.865 367.082,777.431 371.455,966.219 375.828,1121.04 379.764,1214.27 
  383.7,1253.52 387.636,1235.24 391.571,1162.56 395.507,1044.62 399.443,895.493 403.379,732.379 407.314,573.671 411.25,436.873 415.186,336.701 419.122,283.533 
  423.734,287.468 428.346,360.518 432.959,490.202 437.571,655.736 442.184,831.309 446.796,990.053 451.409,1108.14 456.111,1168.91 460.813,1161.23 465.514,1087.81 
  470.216,961.774 474.918,804.295 479.15,656.854 483.382,523.656 487.614,421.405 491.845,362.531 496.077,353.692 500.309,395.033 504.541,480.299 508.772,597.753 
  513.004,731.768 517.236,864.871 521.468,979.999 525.699,1062.69 529.931,1102.91 534.163,1096.31 538.395,1044.65 542.626,955.52 546.858,841.14 551.09,716.73 
  554.898,609.571 558.707,518.431 562.516,452.454 566.324,418.028 570.133,418.157 573.941,452.233 577.75,516.123 581.558,602.69 585.367,702.548 589.176,805.09 
  592.984,899.702 593.122,902.831 593.398,908.992 593.674,915.051 593.949,921.005 594.501,932.656 595.052,943.896 595.604,954.674 596.707,974.696 597.81,992.582 
  598.913,1008.19 600.016,1021.41 602.222,1040.3 604.429,1048.64 606.635,1046.11 608.841,1032.87 611.047,1009.54 614.153,961.605 617.26,899.295 620.366,827.165 
  623.473,750.347 626.579,674.146 629.685,603.899 632.792,544.393 635.898,499.613 639.005,472.267 642.111,464.076 645.218,475.383 648.324,505.231 651.43,551.61 
  654.537,611.048 657.643,679.223 660.75,751.135 663.856,821.674 666.962,885.907 670.069,939.462 672.865,975.551 675.66,998.208 678.456,1006.33 681.252,999.618 
  684.048,978.623 689.639,899.56 694.273,808.1 697.819,731.994 701.365,658.347 704.911,593.654 708.457,543.668 712.003,512.68 715.55,503.247 719.096,515.9 
  723.679,562.38 728.263,635.409 732.846,723.367 737.43,812.683 742.013,889.926 746.597,943.777 751.18,966.641 755.764,955.722 760.347,913.378 764.931,846.664 
  769.514,766.158 774.098,684.266 778.681,613.303 783.265,563.655 788.682,541.76 794.1,562.802 799.518,621.318 804.936,704.149 810.353,793.389 815.771,870.245 
  821.189,918.986 826.607,930.15 832.024,902.377 836.9,849.663 841.289,787.891 845.677,721.516 850.066,659.762 854.454,611.038 858.842,581.827 863.231,575.757 
  867.619,593.169 872.007,631.16 876.396,684.055 880.784,744.268 886.83,823.696 890.97,866.112 895.11,892.823 899.25,900.803 903.391,889.526 907.531,860.657 
  910.841,827.524 914.151,788.481 917.461,746.682 920.771,705.383 924.081,667.807 927.391,636.883 930.701,614.966 934.012,603.648 937.322,603.657 940.632,614.823 
  945.486,649.032 950.34,698.691 955.194,755.113 960.048,808.581 964.902,850.071 969.756,872.814 974.125,874.468 978.493,858.477 981.961,834.853 985.429,803.839 
  988.897,768.208 992.365,731.107 995.832,695.778 999.3,665.268 1004.11,635.69 1008.92,624.905 1013.73,634.189 1018.54,661.499 1023.35,701.969 1028.16,748.702 
  1032.49,789.704 1036.81,824.02 1040.66,845.173 1044.5,855.329 1048.34,853.603 1052.19,840.378 1056.03,817.246 1059.87,786.83 1063.71,752.522 1067.56,718.052 
  1071.4,687.09 1079.09,647.916 1086.77,650.47 1093.69,686.788 1099.91,735.698 1105.52,780.802 1111.12,816.603 1116.72,835.396 1122.33,833.329 1127.93,811.553 
  1133.53,775.674 1138.57,738.303 1143.62,703.239 1148.66,676.585 1153.7,663.254 1158.75,664.9 1163.79,681.637 1168.83,709.634 1173.37,739.672 1177.91,769.746 
  1182.45,795.725 1186.98,813.868 1191.52,821.529 1195.61,818.592 1199.69,806.868 1203.78,787.951 1207.86,764.248 1211.95,738.683 1216.03,714.354 1220.11,694.188 
  1228.28,674.988 1234.11,681.835 1239.94,704.135 1245.76,735.894 1251.59,768.851 1256.84,792.904 1262.08,806.815 1267.33,808.421 1272.57,797.799 1277.29,779.616 
  1282.01,756.35 1286.73,731.814 1291.45,709.964 1296.17,694.22 1302.24,686.612 1308.31,694.539 1314.39,715.712 1320.46,744.113 1326.53,771.851 1332,790.182 
  1337.46,798.459 1342.93,795.303 1348.39,781.669 1353.86,760.663 1359.32,736.915 1364.79,715.562 1370.25,701.098 1375.72,696.408 1381.18,702.214 1386.65,716.999 
  1392.11,737.392 1397.58,758.923 1403.04,776.995 1408.51,787.858 1414.57,788.954 1420.62,778.647 1426.68,759.953 1432.74,738.005 1438.79,718.631 1444.85,706.797 
  1450.91,705.344 1456.97,714.325 1463.02,731.086 1469.08,751.032 1475.14,768.879 1481.19,780.043 1487.25,781.818 1493.31,774.027 1499.37,758.992 1505.42,740.85 
  1511.48,724.421 1517.54,713.926 1523.59,711.914 1529.65,718.649 1535.71,732.111 1541.77,748.593 1547.82,763.713 1553.88,773.578 1559.94,775.778 1565.99,769.973 
  1572.05,757.92 1578.11,742.948 1584.17,729.045 1590.22,719.796 1596.28,717.465 1602.34,722.447 1608.39,733.222 1614.45,746.809 1620.51,759.588 1626.57,768.257 
  1632.62,770.682 1638.68,766.424 1644.74,756.794 1650.79,744.465 1656.85,732.728 1662.91,724.621 1668.97,722.142 1675.02,725.763 1681.08,734.356 1687.14,745.534 
  1693.19,756.308 1699.25,763.886 1705.31,766.394 1711.37,763.331 1717.42,755.666 1723.48,745.536 1729.54,735.652 1735.6,728.58 1741.65,726.074 1747.71,728.647 
  1753.77,735.473 1759.82,744.647 1765.88,753.71 1771.94,760.305 1778,762.792 1784.05,760.648 1790.11,754.572 1796.17,746.266 1802.22,737.962 1808.28,731.82 
  1814.34,729.373 1820.4,731.144 1826.45,736.543 1832.51,744.056 1838.57,751.662 1844.62,757.378 1850.68,759.774 1856.74,758.328 1862.8,753.533 1868.85,746.74 
  1874.91,739.778 1880.97,734.465 1887.02,732.133 1895,734.282 1902.19,740.465 1909.37,748.431 1916.55,755.211 1923.73,758.306 1930.92,756.599 1938.1,750.604 
  1945.28,742.242 1952.46,734.751 1959.65,731.168 1966.83,732.646 1973.12,737.705 1979.42,744.769 1985.71,752.084 1992,757.851 1998.64,760.386 2005.27,758.443 
  2011.24,753.276 2017.21,746.236 2023.18,738.892 2029.15,732.861 2036.25,729.56 2043.35,731.522 2049.74,737.356 2055.49,744.582 2061.24,751.948 2067,757.762 
  2072.72,760.689 2078.45,760.108 2084.17,756.162 2089.9,749.759 2095.62,742.364 2101.35,735.658 2107.07,731.219 2112.8,730.134 2118.52,732.668 2124.25,738.198 
  2129.97,745.371 2135.7,752.447 2141.42,757.675 2149.54,759.668 2157.66,754.858 2164.96,746.734 2172.27,738.365 2179.57,732.975 2186.88,732.483 2194.18,736.849 
  2201.49,744.214 2208.79,751.685 2216.1,756.452 2223.41,756.821 2230.71,752.816 2238.02,746.119 2245.32,739.372 2252.63,735.134 2259.93,734.91 2267.24,738.623 
  2274.54,744.711 2281.85,750.777 2289.08,754.507 
  "/>
<path clip-path="url(#clip120)" d="
M1818.33 216.805 L2277.76 216.805 L2277.76 95.8446 L1818.33 95.8446  Z
  " fill="#ffffff" fill-rule="evenodd" fill-opacity="1"/>
<polyline clip-path="url(#clip120)" style="stroke:#000000; stroke-width:4; stroke-opacity:1; fill:none" points="
  1818.33,216.805 2277.76,216.805 2277.76,95.8446 1818.33,95.8446 1818.33,216.805 
  "/>
<polyline clip-path="url(#clip120)" style="stroke:#009af9; stroke-width:4; stroke-opacity:1; fill:none" points="
  1843.33,156.325 1993.33,156.325 
  "/>
<path clip-path="url(#clip120)" d="M 0 0 M2037.25 160.341 Q2037.25 155.711 2035.33 153.165 Q2033.43 150.619 2029.98 150.619 Q2026.55 150.619 2024.63 153.165 Q2022.73 155.711 2022.73 160.341 Q2022.73 164.947 2024.63 167.494 Q2026.55 170.04 2029.98 170.04 Q2033.43 170.04 2035.33 167.494 Q2037.25 164.947 2037.25 160.341 M2041.51 170.387 Q2041.51 177.007 2038.57 180.225 Q2035.63 183.466 2029.56 183.466 Q2027.32 183.466 2025.33 183.118 Q2023.33 182.794 2021.46 182.1 L2021.46 177.956 Q2023.33 178.975 2025.16 179.461 Q2026.99 179.947 2028.89 179.947 Q2033.08 179.947 2035.16 177.748 Q2037.25 175.572 2037.25 171.151 L2037.25 169.044 Q2035.93 171.336 2033.87 172.47 Q2031.81 173.605 2028.94 173.605 Q2024.17 173.605 2021.25 169.97 Q2018.33 166.336 2018.33 160.341 Q2018.33 154.322 2021.25 150.688 Q2024.17 147.054 2028.94 147.054 Q2031.81 147.054 2033.87 148.188 Q2035.93 149.322 2037.25 151.614 L2037.25 147.679 L2041.51 147.679 L2041.51 170.387 Z" fill="#000000" fill-rule="evenodd" fill-opacity="1" /><path clip-path="url(#clip120)" d="M 0 0 M2068.15 159.577 L2068.15 161.66 L2048.57 161.66 Q2048.84 166.058 2051.21 168.373 Q2053.59 170.665 2057.83 170.665 Q2060.28 170.665 2062.57 170.063 Q2064.89 169.461 2067.15 168.257 L2067.15 172.285 Q2064.86 173.257 2062.45 173.767 Q2060.05 174.276 2057.57 174.276 Q2051.37 174.276 2047.73 170.665 Q2044.12 167.054 2044.12 160.896 Q2044.12 154.531 2047.55 150.804 Q2051 147.054 2056.83 147.054 Q2062.06 147.054 2065.09 150.433 Q2068.15 153.79 2068.15 159.577 M2063.89 158.327 Q2063.84 154.832 2061.92 152.748 Q2060.02 150.665 2056.88 150.665 Q2053.31 150.665 2051.16 152.679 Q2049.03 154.693 2048.71 158.35 L2063.89 158.327 Z" fill="#000000" fill-rule="evenodd" fill-opacity="1" /><path clip-path="url(#clip120)" d="M 0 0 M2094.17 157.957 L2094.17 173.605 L2089.91 173.605 L2089.91 158.095 Q2089.91 154.415 2088.47 152.586 Q2087.04 150.758 2084.17 150.758 Q2080.72 150.758 2078.73 152.957 Q2076.74 155.156 2076.74 158.952 L2076.74 173.605 L2072.45 173.605 L2072.45 147.679 L2076.74 147.679 L2076.74 151.707 Q2078.27 149.369 2080.33 148.211 Q2082.41 147.054 2085.12 147.054 Q2089.58 147.054 2091.88 149.832 Q2094.17 152.586 2094.17 157.957 Z" fill="#000000" fill-rule="evenodd" fill-opacity="1" /><path clip-path="url(#clip120)" d="M 0 0 M2096.48 158.72 L2108.96 158.72 L2108.96 162.517 L2096.48 162.517 L2096.48 158.72 Z" fill="#000000" fill-rule="evenodd" fill-opacity="1" /><path clip-path="url(#clip120)" d="M 0 0 M2114.84 169.669 L2122.48 169.669 L2122.48 143.304 L2114.17 144.971 L2114.17 140.711 L2122.43 139.045 L2127.11 139.045 L2127.11 169.669 L2134.75 169.669 L2134.75 173.605 L2114.84 173.605 L2114.84 169.669 Z" fill="#000000" fill-rule="evenodd" fill-opacity="1" /><path clip-path="url(#clip120)" d="M 0 0 M2149.82 142.123 Q2146.2 142.123 2144.38 145.688 Q2142.57 149.23 2142.57 156.359 Q2142.57 163.466 2144.38 167.031 Q2146.2 170.572 2149.82 170.572 Q2153.45 170.572 2155.26 167.031 Q2157.08 163.466 2157.08 156.359 Q2157.08 149.23 2155.26 145.688 Q2153.45 142.123 2149.82 142.123 M2149.82 138.42 Q2155.63 138.42 2158.68 143.026 Q2161.76 147.609 2161.76 156.359 Q2161.76 165.086 2158.68 169.693 Q2155.63 174.276 2149.82 174.276 Q2144.01 174.276 2140.93 169.693 Q2137.87 165.086 2137.87 156.359 Q2137.87 147.609 2140.93 143.026 Q2144.01 138.42 2149.82 138.42 Z" fill="#000000" fill-rule="evenodd" fill-opacity="1" /><path clip-path="url(#clip120)" d="M 0 0 M2170.86 169.669 L2187.18 169.669 L2187.18 173.605 L2165.23 173.605 L2165.23 169.669 Q2167.89 166.915 2172.48 162.285 Q2177.08 157.632 2178.26 156.29 Q2180.51 153.767 2181.39 152.031 Q2182.29 150.271 2182.29 148.582 Q2182.29 145.827 2180.35 144.091 Q2178.43 142.355 2175.32 142.355 Q2173.13 142.355 2170.67 143.119 Q2168.24 143.883 2165.46 145.433 L2165.46 140.711 Q2168.29 139.577 2170.74 138.998 Q2173.2 138.42 2175.23 138.42 Q2180.6 138.42 2183.8 141.105 Q2186.99 143.79 2186.99 148.281 Q2186.99 150.41 2186.18 152.332 Q2185.39 154.23 2183.29 156.822 Q2182.71 157.494 2179.61 160.711 Q2176.51 163.906 2170.86 169.669 Z" fill="#000000" fill-rule="evenodd" fill-opacity="1" /><path clip-path="url(#clip120)" d="M 0 0 M2189.49 158.72 L2201.97 158.72 L2201.97 162.517 L2189.49 162.517 L2189.49 158.72 Z" fill="#000000" fill-rule="evenodd" fill-opacity="1" /><path clip-path="url(#clip120)" d="M 0 0 M2207.85 169.669 L2215.49 169.669 L2215.49 143.304 L2207.18 144.971 L2207.18 140.711 L2215.44 139.045 L2220.12 139.045 L2220.12 169.669 L2227.76 169.669 L2227.76 173.605 L2207.85 173.605 L2207.85 169.669 Z" fill="#000000" fill-rule="evenodd" fill-opacity="1" /></svg>
