<?xml version="1.0" encoding="utf-8"?>
<svg xmlns="http://www.w3.org/2000/svg" xmlns:xlink="http://www.w3.org/1999/xlink" width="600" height="400" viewBox="0 0 2400 1600">
<defs>
  <clipPath id="clip190">
    <rect x="0" y="0" width="2400" height="1600"/>
  </clipPath>
</defs>
<path clip-path="url(#clip190)" d="
M0 1600 L2400 1600 L2400 0 L0 0  Z
  " fill="#ffffff" fill-rule="evenodd" fill-opacity="1"/>
<defs>
  <clipPath id="clip191">
    <rect x="480" y="0" width="1681" height="1600"/>
  </clipPath>
</defs>
<path clip-path="url(#clip190)" d="
M102.74 1505.26 L2352.76 1505.26 L2352.76 47.2441 L102.74 47.2441  Z
  " fill="#ffffff" fill-rule="evenodd" fill-opacity="1"/>
<defs>
  <clipPath id="clip192">
    <rect x="102" y="47" width="2251" height="1459"/>
  </clipPath>
</defs>
<polyline clip-path="url(#clip192)" style="stroke:#000000; stroke-width:2; stroke-opacity:0.1; fill:none" points="
  166.42,1505.26 166.42,47.2441 
  "/>
<polyline clip-path="url(#clip192)" style="stroke:#000000; stroke-width:2; stroke-opacity:0.1; fill:none" points="
  873.972,1505.26 873.972,47.2441 
  "/>
<polyline clip-path="url(#clip192)" style="stroke:#000000; stroke-width:2; stroke-opacity:0.1; fill:none" points="
  1581.52,1505.26 1581.52,47.2441 
  "/>
<polyline clip-path="url(#clip192)" style="stroke:#000000; stroke-width:2; stroke-opacity:0.1; fill:none" points="
  2289.08,1505.26 2289.08,47.2441 
  "/>
<polyline clip-path="url(#clip190)" style="stroke:#000000; stroke-width:4; stroke-opacity:1; fill:none" points="
  102.74,1505.26 2352.76,1505.26 
  "/>
<polyline clip-path="url(#clip190)" style="stroke:#000000; stroke-width:4; stroke-opacity:1; fill:none" points="
  166.42,1505.26 166.42,1487.76 
  "/>
<polyline clip-path="url(#clip190)" style="stroke:#000000; stroke-width:4; stroke-opacity:1; fill:none" points="
  873.972,1505.26 873.972,1487.76 
  "/>
<polyline clip-path="url(#clip190)" style="stroke:#000000; stroke-width:4; stroke-opacity:1; fill:none" points="
  1581.52,1505.26 1581.52,1487.76 
  "/>
<polyline clip-path="url(#clip190)" style="stroke:#000000; stroke-width:4; stroke-opacity:1; fill:none" points="
  2289.08,1505.26 2289.08,1487.76 
  "/>
<path clip-path="url(#clip190)" d="M 0 0 M166.42 1534.45 Q162.809 1534.45 160.98 1538.02 Q159.175 1541.56 159.175 1548.69 Q159.175 1555.79 160.98 1559.36 Q162.809 1562.9 166.42 1562.9 Q170.054 1562.9 171.86 1559.36 Q173.688 1555.79 173.688 1548.69 Q173.688 1541.56 171.86 1538.02 Q170.054 1534.45 166.42 1534.45 M166.42 1530.75 Q172.23 1530.75 175.286 1535.35 Q178.364 1539.94 178.364 1548.69 Q178.364 1557.41 175.286 1562.02 Q172.23 1566.6 166.42 1566.6 Q160.61 1566.6 157.531 1562.02 Q154.475 1557.41 154.475 1548.69 Q154.475 1539.94 157.531 1535.35 Q160.61 1530.75 166.42 1530.75 Z" fill="#000000" fill-rule="evenodd" fill-opacity="1" /><path clip-path="url(#clip190)" d="M 0 0 M848.66 1562 L856.298 1562 L856.298 1535.63 L847.988 1537.3 L847.988 1533.04 L856.252 1531.37 L860.928 1531.37 L860.928 1562 L868.567 1562 L868.567 1565.93 L848.66 1565.93 L848.66 1562 Z" fill="#000000" fill-rule="evenodd" fill-opacity="1" /><path clip-path="url(#clip190)" d="M 0 0 M888.011 1534.45 Q884.4 1534.45 882.571 1538.02 Q880.766 1541.56 880.766 1548.69 Q880.766 1555.79 882.571 1559.36 Q884.4 1562.9 888.011 1562.9 Q891.645 1562.9 893.451 1559.36 Q895.28 1555.79 895.28 1548.69 Q895.28 1541.56 893.451 1538.02 Q891.645 1534.45 888.011 1534.45 M888.011 1530.75 Q893.821 1530.75 896.877 1535.35 Q899.956 1539.94 899.956 1548.69 Q899.956 1557.41 896.877 1562.02 Q893.821 1566.6 888.011 1566.6 Q882.201 1566.6 879.122 1562.02 Q876.067 1557.41 876.067 1548.69 Q876.067 1539.94 879.122 1535.35 Q882.201 1530.75 888.011 1530.75 Z" fill="#000000" fill-rule="evenodd" fill-opacity="1" /><path clip-path="url(#clip190)" d="M 0 0 M1560.3 1562 L1576.62 1562 L1576.62 1565.93 L1554.67 1565.93 L1554.67 1562 Q1557.33 1559.24 1561.92 1554.61 Q1566.52 1549.96 1567.7 1548.62 Q1569.95 1546.09 1570.83 1544.36 Q1571.73 1542.6 1571.73 1540.91 Q1571.73 1538.15 1569.79 1536.42 Q1567.87 1534.68 1564.76 1534.68 Q1562.57 1534.68 1560.11 1535.45 Q1557.68 1536.21 1554.9 1537.76 L1554.9 1533.04 Q1557.73 1531.9 1560.18 1531.33 Q1562.64 1530.75 1564.67 1530.75 Q1570.04 1530.75 1573.24 1533.43 Q1576.43 1536.12 1576.43 1540.61 Q1576.43 1542.74 1575.62 1544.66 Q1574.83 1546.56 1572.73 1549.15 Q1572.15 1549.82 1569.05 1553.04 Q1565.95 1556.23 1560.3 1562 Z" fill="#000000" fill-rule="evenodd" fill-opacity="1" /><path clip-path="url(#clip190)" d="M 0 0 M1596.43 1534.45 Q1592.82 1534.45 1590.99 1538.02 Q1589.19 1541.56 1589.19 1548.69 Q1589.19 1555.79 1590.99 1559.36 Q1592.82 1562.9 1596.43 1562.9 Q1600.07 1562.9 1601.87 1559.36 Q1603.7 1555.79 1603.7 1548.69 Q1603.7 1541.56 1601.87 1538.02 Q1600.07 1534.45 1596.43 1534.45 M1596.43 1530.75 Q1602.24 1530.75 1605.3 1535.35 Q1608.38 1539.94 1608.38 1548.69 Q1608.38 1557.41 1605.3 1562.02 Q1602.24 1566.6 1596.43 1566.6 Q1590.62 1566.6 1587.54 1562.02 Q1584.49 1557.41 1584.49 1548.69 Q1584.49 1539.94 1587.54 1535.35 Q1590.62 1530.75 1596.43 1530.75 Z" fill="#000000" fill-rule="evenodd" fill-opacity="1" /><path clip-path="url(#clip190)" d="M 0 0 M2277.92 1547.3 Q2281.28 1548.02 2283.15 1550.28 Q2285.05 1552.55 2285.05 1555.89 Q2285.05 1561 2281.53 1563.8 Q2278.01 1566.6 2271.53 1566.6 Q2269.35 1566.6 2267.04 1566.16 Q2264.75 1565.75 2262.29 1564.89 L2262.29 1560.38 Q2264.24 1561.51 2266.55 1562.09 Q2268.87 1562.67 2271.39 1562.67 Q2275.79 1562.67 2278.08 1560.93 Q2280.4 1559.2 2280.4 1555.89 Q2280.4 1552.83 2278.24 1551.12 Q2276.11 1549.38 2272.29 1549.38 L2268.27 1549.38 L2268.27 1545.54 L2272.48 1545.54 Q2275.93 1545.54 2277.76 1544.17 Q2279.59 1542.78 2279.59 1540.19 Q2279.59 1537.53 2277.69 1536.12 Q2275.81 1534.68 2272.29 1534.68 Q2270.37 1534.68 2268.17 1535.1 Q2265.97 1535.52 2263.34 1536.39 L2263.34 1532.23 Q2266 1531.49 2268.31 1531.12 Q2270.65 1530.75 2272.71 1530.75 Q2278.03 1530.75 2281.14 1533.18 Q2284.24 1535.58 2284.24 1539.71 Q2284.24 1542.58 2282.59 1544.57 Q2280.95 1546.53 2277.92 1547.3 Z" fill="#000000" fill-rule="evenodd" fill-opacity="1" /><path clip-path="url(#clip190)" d="M 0 0 M2303.91 1534.45 Q2300.3 1534.45 2298.47 1538.02 Q2296.67 1541.56 2296.67 1548.69 Q2296.67 1555.79 2298.47 1559.36 Q2300.3 1562.9 2303.91 1562.9 Q2307.55 1562.9 2309.35 1559.36 Q2311.18 1555.79 2311.18 1548.69 Q2311.18 1541.56 2309.35 1538.02 Q2307.55 1534.45 2303.91 1534.45 M2303.91 1530.75 Q2309.72 1530.75 2312.78 1535.35 Q2315.86 1539.94 2315.86 1548.69 Q2315.86 1557.41 2312.78 1562.02 Q2309.72 1566.6 2303.91 1566.6 Q2298.1 1566.6 2295.03 1562.02 Q2291.97 1557.41 2291.97 1548.69 Q2291.97 1539.94 2295.03 1535.35 Q2298.1 1530.75 2303.91 1530.75 Z" fill="#000000" fill-rule="evenodd" fill-opacity="1" /><path clip-path="url(#clip190)" d="M 0 0 M1166.91 1604.35 L1166.91 1614.48 L1178.97 1614.48 L1178.97 1619.03 L1166.91 1619.03 L1166.91 1638.38 Q1166.91 1642.74 1168.09 1643.98 Q1169.29 1645.22 1172.96 1645.22 L1178.97 1645.22 L1178.97 1650.12 L1172.96 1650.12 Q1166.18 1650.12 1163.6 1647.61 Q1161.02 1645.06 1161.02 1638.38 L1161.02 1619.03 L1156.72 1619.03 L1156.72 1614.48 L1161.02 1614.48 L1161.02 1604.35 L1166.91 1604.35 Z" fill="#000000" fill-rule="evenodd" fill-opacity="1" /><path clip-path="url(#clip190)" d="M 0 0 M1186.67 1614.48 L1192.53 1614.48 L1192.53 1650.12 L1186.67 1650.12 L1186.67 1614.48 M1186.67 1600.6 L1192.53 1600.6 L1192.53 1608.01 L1186.67 1608.01 L1186.67 1600.6 Z" fill="#000000" fill-rule="evenodd" fill-opacity="1" /><path clip-path="url(#clip190)" d="M 0 0 M1232.54 1621.32 Q1234.73 1617.37 1237.79 1615.49 Q1240.85 1613.62 1244.98 1613.62 Q1250.55 1613.62 1253.58 1617.53 Q1256.6 1621.41 1256.6 1628.61 L1256.6 1650.12 L1250.71 1650.12 L1250.71 1628.8 Q1250.71 1623.67 1248.9 1621.19 Q1247.08 1618.71 1243.36 1618.71 Q1238.81 1618.71 1236.17 1621.73 Q1233.52 1624.76 1233.52 1629.98 L1233.52 1650.12 L1227.64 1650.12 L1227.64 1628.8 Q1227.64 1623.64 1225.82 1621.19 Q1224.01 1618.71 1220.22 1618.71 Q1215.73 1618.71 1213.09 1621.76 Q1210.45 1624.79 1210.45 1629.98 L1210.45 1650.12 L1204.56 1650.12 L1204.56 1614.48 L1210.45 1614.48 L1210.45 1620.01 Q1212.45 1616.74 1215.26 1615.18 Q1218.06 1613.62 1221.91 1613.62 Q1225.79 1613.62 1228.5 1615.59 Q1231.23 1617.56 1232.54 1621.32 Z" fill="#000000" fill-rule="evenodd" fill-opacity="1" /><path clip-path="url(#clip190)" d="M 0 0 M1298.77 1630.84 L1298.77 1633.7 L1271.85 1633.7 Q1272.23 1639.75 1275.47 1642.93 Q1278.75 1646.08 1284.58 1646.08 Q1287.95 1646.08 1291.1 1645.25 Q1294.29 1644.43 1297.4 1642.77 L1297.4 1648.31 Q1294.25 1649.65 1290.94 1650.35 Q1287.63 1651.05 1284.23 1651.05 Q1275.7 1651.05 1270.7 1646.08 Q1265.74 1641.12 1265.74 1632.65 Q1265.74 1623.9 1270.45 1618.77 Q1275.19 1613.62 1283.21 1613.62 Q1290.4 1613.62 1294.57 1618.26 Q1298.77 1622.88 1298.77 1630.84 M1292.92 1629.12 Q1292.85 1624.31 1290.21 1621.45 Q1287.6 1618.58 1283.27 1618.58 Q1278.37 1618.58 1275.41 1621.35 Q1272.48 1624.12 1272.04 1629.15 L1292.92 1629.12 Z" fill="#000000" fill-rule="evenodd" fill-opacity="1" /><polyline clip-path="url(#clip192)" style="stroke:#000000; stroke-width:2; stroke-opacity:0.1; fill:none" points="
  102.74,1462.15 2352.76,1462.15 
  "/>
<polyline clip-path="url(#clip192)" style="stroke:#000000; stroke-width:2; stroke-opacity:0.1; fill:none" points="
  102.74,1228.57 2352.76,1228.57 
  "/>
<polyline clip-path="url(#clip192)" style="stroke:#000000; stroke-width:2; stroke-opacity:0.1; fill:none" points="
  102.74,994.985 2352.76,994.985 
  "/>
<polyline clip-path="url(#clip192)" style="stroke:#000000; stroke-width:2; stroke-opacity:0.1; fill:none" points="
  102.74,761.404 2352.76,761.404 
  "/>
<polyline clip-path="url(#clip192)" style="stroke:#000000; stroke-width:2; stroke-opacity:0.1; fill:none" points="
  102.74,527.822 2352.76,527.822 
  "/>
<polyline clip-path="url(#clip192)" style="stroke:#000000; stroke-width:2; stroke-opacity:0.1; fill:none" points="
  102.74,294.24 2352.76,294.24 
  "/>
<polyline clip-path="url(#clip192)" style="stroke:#000000; stroke-width:2; stroke-opacity:0.1; fill:none" points="
  102.74,60.6584 2352.76,60.6584 
  "/>
<polyline clip-path="url(#clip190)" style="stroke:#000000; stroke-width:4; stroke-opacity:1; fill:none" points="
  102.74,1505.26 102.74,47.2441 
  "/>
<polyline clip-path="url(#clip190)" style="stroke:#000000; stroke-width:4; stroke-opacity:1; fill:none" points="
  102.74,1462.15 129.74,1462.15 
  "/>
<polyline clip-path="url(#clip190)" style="stroke:#000000; stroke-width:4; stroke-opacity:1; fill:none" points="
  102.74,1228.57 129.74,1228.57 
  "/>
<polyline clip-path="url(#clip190)" style="stroke:#000000; stroke-width:4; stroke-opacity:1; fill:none" points="
  102.74,994.985 129.74,994.985 
  "/>
<polyline clip-path="url(#clip190)" style="stroke:#000000; stroke-width:4; stroke-opacity:1; fill:none" points="
  102.74,761.404 129.74,761.404 
  "/>
<polyline clip-path="url(#clip190)" style="stroke:#000000; stroke-width:4; stroke-opacity:1; fill:none" points="
  102.74,527.822 129.74,527.822 
  "/>
<polyline clip-path="url(#clip190)" style="stroke:#000000; stroke-width:4; stroke-opacity:1; fill:none" points="
  102.74,294.24 129.74,294.24 
  "/>
<polyline clip-path="url(#clip190)" style="stroke:#000000; stroke-width:4; stroke-opacity:1; fill:none" points="
  102.74,60.6584 129.74,60.6584 
  "/>
<path clip-path="url(#clip190)" d="M 0 0 M-21.0834 1447.95 Q-24.6945 1447.95 -26.5232 1451.51 Q-28.3288 1455.05 -28.3288 1462.18 Q-28.3288 1469.29 -26.5232 1472.85 Q-24.6945 1476.4 -21.0834 1476.4 Q-17.4492 1476.4 -15.6437 1472.85 Q-13.815 1469.29 -13.815 1462.18 Q-13.815 1455.05 -15.6437 1451.51 Q-17.4492 1447.95 -21.0834 1447.95 M-21.0834 1444.24 Q-15.2733 1444.24 -12.2178 1448.85 Q-9.13907 1453.43 -9.13907 1462.18 Q-9.13907 1470.91 -12.2178 1475.52 Q-15.2733 1480.1 -21.0834 1480.1 Q-26.8936 1480.1 -29.9723 1475.52 Q-33.0278 1470.91 -33.0278 1462.18 Q-33.0278 1453.43 -29.9723 1448.85 Q-26.8936 1444.24 -21.0834 1444.24 Z" fill="#000000" fill-rule="evenodd" fill-opacity="1" /><path clip-path="url(#clip190)" d="M 0 0 M-0.921517 1473.55 L3.96272 1473.55 L3.96272 1479.43 L-0.921517 1479.43 L-0.921517 1473.55 Z" fill="#000000" fill-rule="evenodd" fill-opacity="1" /><path clip-path="url(#clip190)" d="M 0 0 M14.1941 1444.87 L32.5505 1444.87 L32.5505 1448.8 L18.4765 1448.8 L18.4765 1457.28 Q19.495 1456.93 20.5136 1456.77 Q21.5321 1456.58 22.5506 1456.58 Q28.3376 1456.58 31.7172 1459.75 Q35.0968 1462.92 35.0968 1468.34 Q35.0968 1473.92 31.6246 1477.02 Q28.1524 1480.1 21.833 1480.1 Q19.6571 1480.1 17.3886 1479.73 Q15.1432 1479.36 12.7358 1478.62 L12.7358 1473.92 Q14.8191 1475.05 17.0413 1475.61 Q19.2636 1476.16 21.7404 1476.16 Q25.745 1476.16 28.083 1474.06 Q30.4209 1471.95 30.4209 1468.34 Q30.4209 1464.73 28.083 1462.62 Q25.745 1460.52 21.7404 1460.52 Q19.8654 1460.52 17.9904 1460.93 Q16.1386 1461.35 14.1941 1462.23 L14.1941 1444.87 Z" fill="#000000" fill-rule="evenodd" fill-opacity="1" /><path clip-path="url(#clip190)" d="M 0 0 M57.1569 1448.94 L45.3514 1467.39 L57.1569 1467.39 L57.1569 1448.94 M55.93 1444.87 L61.8096 1444.87 L61.8096 1467.39 L66.7402 1467.39 L66.7402 1471.28 L61.8096 1471.28 L61.8096 1479.43 L57.1569 1479.43 L57.1569 1471.28 L41.5551 1471.28 L41.5551 1466.77 L55.93 1444.87 Z" fill="#000000" fill-rule="evenodd" fill-opacity="1" /><path clip-path="url(#clip190)" d="M 0 0 M-19.602 1214.37 Q-23.2131 1214.37 -25.0418 1217.93 Q-26.8473 1221.47 -26.8473 1228.6 Q-26.8473 1235.71 -25.0418 1239.27 Q-23.2131 1242.81 -19.602 1242.81 Q-15.9677 1242.81 -14.1622 1239.27 Q-12.3335 1235.71 -12.3335 1228.6 Q-12.3335 1221.47 -14.1622 1217.93 Q-15.9677 1214.37 -19.602 1214.37 M-19.602 1210.66 Q-13.7918 1210.66 -10.7363 1215.27 Q-7.65759 1219.85 -7.65759 1228.6 Q-7.65759 1237.33 -10.7363 1241.94 Q-13.7918 1246.52 -19.602 1246.52 Q-25.4121 1246.52 -28.4908 1241.94 Q-31.5464 1237.33 -31.5464 1228.6 Q-31.5464 1219.85 -28.4908 1215.27 Q-25.4121 1210.66 -19.602 1210.66 Z" fill="#000000" fill-rule="evenodd" fill-opacity="1" /><path clip-path="url(#clip190)" d="M 0 0 M0.559957 1239.97 L5.44419 1239.97 L5.44419 1245.85 L0.559957 1245.85 L0.559957 1239.97 Z" fill="#000000" fill-rule="evenodd" fill-opacity="1" /><path clip-path="url(#clip190)" d="M 0 0 M15.6756 1211.29 L34.032 1211.29 L34.032 1215.22 L19.958 1215.22 L19.958 1223.69 Q20.9765 1223.35 21.995 1223.19 Q23.0135 1223 24.0321 1223 Q29.8191 1223 33.1987 1226.17 Q36.5783 1229.34 36.5783 1234.76 Q36.5783 1240.34 33.1061 1243.44 Q29.6339 1246.52 23.3145 1246.52 Q21.1385 1246.52 18.87 1246.15 Q16.6247 1245.78 14.2173 1245.04 L14.2173 1240.34 Q16.3006 1241.47 18.5228 1242.03 Q20.745 1242.58 23.2219 1242.58 Q27.2265 1242.58 29.5644 1240.48 Q31.9024 1238.37 31.9024 1234.76 Q31.9024 1231.15 29.5644 1229.04 Q27.2265 1226.94 23.2219 1226.94 Q21.3469 1226.94 19.4719 1227.35 Q17.6201 1227.77 15.6756 1228.65 L15.6756 1211.29 Z" fill="#000000" fill-rule="evenodd" fill-opacity="1" /><path clip-path="url(#clip190)" d="M 0 0 M45.8375 1211.29 L64.1939 1211.29 L64.1939 1215.22 L50.1199 1215.22 L50.1199 1223.69 Q51.1384 1223.35 52.1569 1223.19 Q53.1754 1223 54.1939 1223 Q59.9809 1223 63.3605 1226.17 Q66.7402 1229.34 66.7402 1234.76 Q66.7402 1240.34 63.268 1243.44 Q59.7958 1246.52 53.4763 1246.52 Q51.3004 1246.52 49.0319 1246.15 Q46.7866 1245.78 44.3792 1245.04 L44.3792 1240.34 Q46.4625 1241.47 48.6847 1242.03 Q50.9069 1242.58 53.3837 1242.58 Q57.3884 1242.58 59.7263 1240.48 Q62.0643 1238.37 62.0643 1234.76 Q62.0643 1231.15 59.7263 1229.04 Q57.3884 1226.94 53.3837 1226.94 Q51.5088 1226.94 49.6338 1227.35 Q47.7819 1227.77 45.8375 1228.65 L45.8375 1211.29 Z" fill="#000000" fill-rule="evenodd" fill-opacity="1" /><path clip-path="url(#clip190)" d="M 0 0 M-20.7594 980.784 Q-24.3705 980.784 -26.1992 984.349 Q-28.0047 987.89 -28.0047 995.02 Q-28.0047 1002.13 -26.1992 1005.69 Q-24.3705 1009.23 -20.7594 1009.23 Q-17.1251 1009.23 -15.3196 1005.69 Q-13.4909 1002.13 -13.4909 995.02 Q-13.4909 987.89 -15.3196 984.349 Q-17.1251 980.784 -20.7594 980.784 M-20.7594 977.08 Q-14.9492 977.08 -11.8937 981.687 Q-8.81499 986.27 -8.81499 995.02 Q-8.81499 1003.75 -11.8937 1008.35 Q-14.9492 1012.94 -20.7594 1012.94 Q-26.5695 1012.94 -29.6482 1008.35 Q-32.7038 1003.75 -32.7038 995.02 Q-32.7038 986.27 -29.6482 981.687 Q-26.5695 977.08 -20.7594 977.08 Z" fill="#000000" fill-rule="evenodd" fill-opacity="1" /><path clip-path="url(#clip190)" d="M 0 0 M-0.597445 1006.39 L4.28679 1006.39 L4.28679 1012.27 L-0.597445 1012.27 L-0.597445 1006.39 Z" fill="#000000" fill-rule="evenodd" fill-opacity="1" /><path clip-path="url(#clip190)" d="M 0 0 M14.5182 977.705 L32.8746 977.705 L32.8746 981.64 L18.8006 981.64 L18.8006 990.113 Q19.8191 989.765 20.8376 989.603 Q21.8561 989.418 22.8747 989.418 Q28.6617 989.418 32.0413 992.589 Q35.4209 995.761 35.4209 1001.18 Q35.4209 1006.76 31.9487 1009.86 Q28.4765 1012.94 22.1571 1012.94 Q19.9811 1012.94 17.7126 1012.57 Q15.4673 1012.2 13.0599 1011.46 L13.0599 1006.76 Q15.1432 1007.89 17.3654 1008.45 Q19.5876 1009 22.0645 1009 Q26.0691 1009 28.407 1006.89 Q30.745 1004.79 30.745 1001.18 Q30.745 997.566 28.407 995.46 Q26.0691 993.353 22.0645 993.353 Q20.1895 993.353 18.3145 993.77 Q16.4626 994.187 14.5182 995.066 L14.5182 977.705 Z" fill="#000000" fill-rule="evenodd" fill-opacity="1" /><path clip-path="url(#clip190)" d="M 0 0 M55.2124 993.122 Q52.0643 993.122 50.2125 995.275 Q48.3838 997.427 48.3838 1001.18 Q48.3838 1004.9 50.2125 1007.08 Q52.0643 1009.23 55.2124 1009.23 Q58.3606 1009.23 60.1893 1007.08 Q62.0411 1004.9 62.0411 1001.18 Q62.0411 997.427 60.1893 995.275 Q58.3606 993.122 55.2124 993.122 M64.4948 978.469 L64.4948 982.728 Q62.7355 981.895 60.93 981.455 Q59.1476 981.015 57.3884 981.015 Q52.7588 981.015 50.3051 984.14 Q47.8745 987.265 47.5273 993.585 Q48.893 991.571 50.9532 990.506 Q53.0134 989.418 55.4902 989.418 Q60.6985 989.418 63.7078 992.589 Q66.7402 995.738 66.7402 1001.18 Q66.7402 1006.5 63.592 1009.72 Q60.4439 1012.94 55.2124 1012.94 Q49.2171 1012.94 46.0458 1008.35 Q42.8745 1003.75 42.8745 995.02 Q42.8745 986.826 46.7634 981.965 Q50.6523 977.08 57.2032 977.08 Q58.9624 977.08 60.7448 977.428 Q62.5504 977.775 64.4948 978.469 Z" fill="#000000" fill-rule="evenodd" fill-opacity="1" /><path clip-path="url(#clip190)" d="M 0 0 M-19.6946 747.202 Q-23.3057 747.202 -25.1344 750.767 Q-26.9399 754.309 -26.9399 761.438 Q-26.9399 768.545 -25.1344 772.11 Q-23.3057 775.651 -19.6946 775.651 Q-16.0603 775.651 -14.2548 772.11 Q-12.4261 768.545 -12.4261 761.438 Q-12.4261 754.309 -14.2548 750.767 Q-16.0603 747.202 -19.6946 747.202 M-19.6946 743.499 Q-13.8844 743.499 -10.8289 748.105 Q-7.75018 752.688 -7.75018 761.438 Q-7.75018 770.165 -10.8289 774.772 Q-13.8844 779.355 -19.6946 779.355 Q-25.5047 779.355 -28.5834 774.772 Q-31.6389 770.165 -31.6389 761.438 Q-31.6389 752.688 -28.5834 748.105 Q-25.5047 743.499 -19.6946 743.499 Z" fill="#000000" fill-rule="evenodd" fill-opacity="1" /><path clip-path="url(#clip190)" d="M 0 0 M0.467364 772.804 L5.3516 772.804 L5.3516 778.684 L0.467364 778.684 L0.467364 772.804 Z" fill="#000000" fill-rule="evenodd" fill-opacity="1" /><path clip-path="url(#clip190)" d="M 0 0 M15.583 744.124 L33.9394 744.124 L33.9394 748.059 L19.8654 748.059 L19.8654 756.531 Q20.8839 756.184 21.9024 756.022 Q22.9209 755.836 23.9395 755.836 Q29.7265 755.836 33.1061 759.008 Q36.4857 762.179 36.4857 767.596 Q36.4857 773.174 33.0135 776.276 Q29.5413 779.355 23.2219 779.355 Q21.046 779.355 18.7775 778.984 Q16.5321 778.614 14.1247 777.873 L14.1247 773.174 Q16.208 774.309 18.4302 774.864 Q20.6524 775.42 23.1293 775.42 Q27.1339 775.42 29.4718 773.313 Q31.8098 771.207 31.8098 767.596 Q31.8098 763.985 29.4718 761.878 Q27.1339 759.772 23.1293 759.772 Q21.2543 759.772 19.3793 760.188 Q17.5275 760.605 15.583 761.485 L15.583 744.124 Z" fill="#000000" fill-rule="evenodd" fill-opacity="1" /><path clip-path="url(#clip190)" d="M 0 0 M44.5181 744.124 L66.7402 744.124 L66.7402 746.114 L54.1939 778.684 L49.3097 778.684 L61.1152 748.059 L44.5181 748.059 L44.5181 744.124 Z" fill="#000000" fill-rule="evenodd" fill-opacity="1" /><path clip-path="url(#clip190)" d="M 0 0 M-20.5047 513.621 Q-24.1158 513.621 -25.9445 517.185 Q-27.7501 520.727 -27.7501 527.857 Q-27.7501 534.963 -25.9445 538.528 Q-24.1158 542.069 -20.5047 542.069 Q-16.8705 542.069 -15.065 538.528 Q-13.2363 534.963 -13.2363 527.857 Q-13.2363 520.727 -15.065 517.185 Q-16.8705 513.621 -20.5047 513.621 M-20.5047 509.917 Q-14.6946 509.917 -11.6391 514.523 Q-8.56036 519.107 -8.56036 527.857 Q-8.56036 536.583 -11.6391 541.19 Q-14.6946 545.773 -20.5047 545.773 Q-26.3149 545.773 -29.3936 541.19 Q-32.4491 536.583 -32.4491 527.857 Q-32.4491 519.107 -29.3936 514.523 Q-26.3149 509.917 -20.5047 509.917 Z" fill="#000000" fill-rule="evenodd" fill-opacity="1" /><path clip-path="url(#clip190)" d="M 0 0 M-0.342816 539.222 L4.54142 539.222 L4.54142 545.102 L-0.342816 545.102 L-0.342816 539.222 Z" fill="#000000" fill-rule="evenodd" fill-opacity="1" /><path clip-path="url(#clip190)" d="M 0 0 M14.7728 510.542 L33.1292 510.542 L33.1292 514.477 L19.0552 514.477 L19.0552 522.949 Q20.0737 522.602 21.0923 522.44 Q22.1108 522.255 23.1293 522.255 Q28.9163 522.255 32.2959 525.426 Q35.6755 528.597 35.6755 534.014 Q35.6755 539.593 32.2033 542.694 Q28.7311 545.773 22.4117 545.773 Q20.2358 545.773 17.9673 545.403 Q15.7219 545.032 13.3145 544.292 L13.3145 539.593 Q15.3978 540.727 17.6201 541.282 Q19.8423 541.838 22.3191 541.838 Q26.3237 541.838 28.6617 539.731 Q30.9996 537.625 30.9996 534.014 Q30.9996 530.403 28.6617 528.296 Q26.3237 526.19 22.3191 526.19 Q20.4441 526.19 18.5691 526.607 Q16.7173 527.023 14.7728 527.903 L14.7728 510.542 Z" fill="#000000" fill-rule="evenodd" fill-opacity="1" /><path clip-path="url(#clip190)" d="M 0 0 M54.8884 528.69 Q51.5551 528.69 49.6338 530.472 Q47.7356 532.255 47.7356 535.38 Q47.7356 538.505 49.6338 540.287 Q51.5551 542.069 54.8884 542.069 Q58.2217 542.069 60.143 540.287 Q62.0643 538.482 62.0643 535.38 Q62.0643 532.255 60.143 530.472 Q58.2448 528.69 54.8884 528.69 M50.2125 526.699 Q47.2032 525.958 45.5134 523.898 Q43.8468 521.838 43.8468 518.875 Q43.8468 514.732 46.7866 512.324 Q49.7495 509.917 54.8884 509.917 Q60.0504 509.917 62.9902 512.324 Q65.93 514.732 65.93 518.875 Q65.93 521.838 64.2402 523.898 Q62.5735 525.958 59.5874 526.699 Q62.967 527.486 64.842 529.778 Q66.7402 532.069 66.7402 535.38 Q66.7402 540.403 63.6615 543.088 Q60.6059 545.773 54.8884 545.773 Q49.1708 545.773 46.0921 543.088 Q43.0366 540.403 43.0366 535.38 Q43.0366 532.069 44.9347 529.778 Q46.8329 527.486 50.2125 526.699 M48.4995 519.315 Q48.4995 522 50.1662 523.505 Q51.856 525.009 54.8884 525.009 Q57.8976 525.009 59.5874 523.505 Q61.3004 522 61.3004 519.315 Q61.3004 516.63 59.5874 515.125 Q57.8976 513.621 54.8884 513.621 Q51.856 513.621 50.1662 515.125 Q48.4995 516.63 48.4995 519.315 Z" fill="#000000" fill-rule="evenodd" fill-opacity="1" /><path clip-path="url(#clip190)" d="M 0 0 M-20.4122 280.039 Q-24.0232 280.039 -25.8519 283.604 Q-27.6575 287.145 -27.6575 294.275 Q-27.6575 301.381 -25.8519 304.946 Q-24.0232 308.488 -20.4122 308.488 Q-16.7779 308.488 -14.9724 304.946 Q-13.1437 301.381 -13.1437 294.275 Q-13.1437 287.145 -14.9724 283.604 Q-16.7779 280.039 -20.4122 280.039 M-20.4122 276.335 Q-14.602 276.335 -11.5465 280.942 Q-8.46777 285.525 -8.46777 294.275 Q-8.46777 303.002 -11.5465 307.608 Q-14.602 312.191 -20.4122 312.191 Q-26.2223 312.191 -29.301 307.608 Q-32.3565 303.002 -32.3565 294.275 Q-32.3565 285.525 -29.301 280.942 Q-26.2223 276.335 -20.4122 276.335 Z" fill="#000000" fill-rule="evenodd" fill-opacity="1" /><path clip-path="url(#clip190)" d="M 0 0 M-0.250224 305.641 L4.63401 305.641 L4.63401 311.52 L-0.250224 311.52 L-0.250224 305.641 Z" fill="#000000" fill-rule="evenodd" fill-opacity="1" /><path clip-path="url(#clip190)" d="M 0 0 M14.8654 276.96 L33.2218 276.96 L33.2218 280.895 L19.1478 280.895 L19.1478 289.367 Q20.1663 289.02 21.1848 288.858 Q22.2034 288.673 23.2219 288.673 Q29.0089 288.673 32.3885 291.844 Q35.7681 295.016 35.7681 300.432 Q35.7681 306.011 32.2959 309.113 Q28.8237 312.191 22.5043 312.191 Q20.3284 312.191 18.0599 311.821 Q15.8145 311.451 13.4071 310.71 L13.4071 306.011 Q15.4904 307.145 17.7126 307.701 Q19.9349 308.256 22.4117 308.256 Q26.4163 308.256 28.7542 306.15 Q31.0922 304.043 31.0922 300.432 Q31.0922 296.821 28.7542 294.715 Q26.4163 292.608 22.4117 292.608 Q20.5367 292.608 18.6617 293.025 Q16.8099 293.441 14.8654 294.321 L14.8654 276.96 Z" fill="#000000" fill-rule="evenodd" fill-opacity="1" /><path clip-path="url(#clip190)" d="M 0 0 M45.1199 310.803 L45.1199 306.543 Q46.8792 307.377 48.6847 307.816 Q50.4902 308.256 52.2263 308.256 Q56.856 308.256 59.2865 305.154 Q61.7402 302.029 62.0874 295.687 Q60.7448 297.678 58.6846 298.742 Q56.6245 299.807 54.1245 299.807 Q48.9393 299.807 45.9069 296.682 Q42.8977 293.534 42.8977 288.094 Q42.8977 282.77 46.0458 279.553 Q49.194 276.335 54.4254 276.335 Q60.4207 276.335 63.5689 280.942 Q66.7402 285.525 66.7402 294.275 Q66.7402 302.446 62.8513 307.33 Q58.9856 312.191 52.4347 312.191 Q50.6754 312.191 48.8699 311.844 Q47.0643 311.497 45.1199 310.803 M54.4254 296.15 Q57.5735 296.15 59.4022 293.997 Q61.2541 291.844 61.2541 288.094 Q61.2541 284.367 59.4022 282.215 Q57.5735 280.039 54.4254 280.039 Q51.2773 280.039 49.4254 282.215 Q47.5967 284.367 47.5967 288.094 Q47.5967 291.844 49.4254 293.997 Q51.2773 296.15 54.4254 296.15 Z" fill="#000000" fill-rule="evenodd" fill-opacity="1" /><path clip-path="url(#clip190)" d="M 0 0 M-20.5973 46.4571 Q-24.2084 46.4571 -26.0371 50.0219 Q-27.8427 53.5635 -27.8427 60.6931 Q-27.8427 67.7995 -26.0371 71.3643 Q-24.2084 74.906 -20.5973 74.906 Q-16.9631 74.906 -15.1576 71.3643 Q-13.3289 67.7995 -13.3289 60.6931 Q-13.3289 53.5635 -15.1576 50.0219 Q-16.9631 46.4571 -20.5973 46.4571 M-20.5973 42.7534 Q-14.7872 42.7534 -11.7316 47.3598 Q-8.65296 51.9431 -8.65296 60.6931 Q-8.65296 69.4199 -11.7316 74.0264 Q-14.7872 78.6097 -20.5973 78.6097 Q-26.4075 78.6097 -29.4862 74.0264 Q-32.5417 69.4199 -32.5417 60.6931 Q-32.5417 51.9431 -29.4862 47.3598 Q-26.4075 42.7534 -20.5973 42.7534 Z" fill="#000000" fill-rule="evenodd" fill-opacity="1" /><path clip-path="url(#clip190)" d="M 0 0 M-0.435408 72.0588 L4.44882 72.0588 L4.44882 77.9384 L-0.435408 77.9384 L-0.435408 72.0588 Z" fill="#000000" fill-rule="evenodd" fill-opacity="1" /><path clip-path="url(#clip190)" d="M 0 0 M25.2126 58.795 Q22.0645 58.795 20.2126 60.9477 Q18.3839 63.1005 18.3839 66.8505 Q18.3839 70.5773 20.2126 72.7532 Q22.0645 74.906 25.2126 74.906 Q28.3607 74.906 30.1894 72.7532 Q32.0413 70.5773 32.0413 66.8505 Q32.0413 63.1005 30.1894 60.9477 Q28.3607 58.795 25.2126 58.795 M34.495 44.1423 L34.495 48.4015 Q32.7357 47.5682 30.9302 47.1284 Q29.1478 46.6885 27.3885 46.6885 Q22.7589 46.6885 20.3052 49.8135 Q17.8747 52.9385 17.5275 59.2579 Q18.8932 57.244 20.9534 56.1792 Q23.0135 55.0913 25.4904 55.0913 Q30.6987 55.0913 33.7079 58.2626 Q36.7403 61.4107 36.7403 66.8505 Q36.7403 72.1745 33.5922 75.3921 Q30.4441 78.6097 25.2126 78.6097 Q19.2173 78.6097 16.046 74.0264 Q12.8747 69.4199 12.8747 60.6931 Q12.8747 52.4987 16.7636 47.6376 Q20.6524 42.7534 27.2033 42.7534 Q28.9626 42.7534 30.745 43.1006 Q32.5505 43.4478 34.495 44.1423 Z" fill="#000000" fill-rule="evenodd" fill-opacity="1" /><path clip-path="url(#clip190)" d="M 0 0 M54.7958 46.4571 Q51.1847 46.4571 49.356 50.0219 Q47.5504 53.5635 47.5504 60.6931 Q47.5504 67.7995 49.356 71.3643 Q51.1847 74.906 54.7958 74.906 Q58.43 74.906 60.2356 71.3643 Q62.0643 67.7995 62.0643 60.6931 Q62.0643 53.5635 60.2356 50.0219 Q58.43 46.4571 54.7958 46.4571 M54.7958 42.7534 Q60.6059 42.7534 63.6615 47.3598 Q66.7402 51.9431 66.7402 60.6931 Q66.7402 69.4199 63.6615 74.0264 Q60.6059 78.6097 54.7958 78.6097 Q48.9856 78.6097 45.9069 74.0264 Q42.8514 69.4199 42.8514 60.6931 Q42.8514 51.9431 45.9069 47.3598 Q48.9856 42.7534 54.7958 42.7534 Z" fill="#000000" fill-rule="evenodd" fill-opacity="1" /><path clip-path="url(#clip190)" d="M 0 0 M-113.457 1018.99 Q-114.03 1019.98 -114.285 1021.16 Q-114.571 1022.3 -114.571 1023.7 Q-114.571 1028.67 -111.325 1031.34 Q-108.11 1033.98 -102.063 1033.98 L-83.2838 1033.98 L-83.2838 1039.87 L-118.932 1039.87 L-118.932 1033.98 L-113.394 1033.98 Q-116.64 1032.14 -118.2 1029.18 Q-119.791 1026.22 -119.791 1021.98 Q-119.791 1021.38 -119.696 1020.65 Q-119.632 1019.92 -119.473 1019.02 L-113.457 1018.99 Z" fill="#000000" fill-rule="evenodd" fill-opacity="1" /><path clip-path="url(#clip190)" d="M 0 0 M-114.826 1000.47 Q-114.826 1005.18 -111.134 1007.92 Q-107.474 1010.65 -101.076 1010.65 Q-94.6784 1010.65 -90.9863 1007.95 Q-87.3261 1005.21 -87.3261 1000.47 Q-87.3261 995.789 -91.0182 993.052 Q-94.7103 990.315 -101.076 990.315 Q-107.41 990.315 -111.102 993.052 Q-114.826 995.789 -114.826 1000.47 M-119.791 1000.47 Q-119.791 992.829 -114.826 988.469 Q-109.861 984.108 -101.076 984.108 Q-92.3231 984.108 -87.3261 988.469 Q-82.3608 992.829 -82.3608 1000.47 Q-82.3608 1008.14 -87.3261 1012.5 Q-92.3231 1016.83 -101.076 1016.83 Q-109.861 1016.83 -114.826 1012.5 Q-119.791 1008.14 -119.791 1000.47 Z" fill="#000000" fill-rule="evenodd" fill-opacity="1" /><path clip-path="url(#clip190)" d="M 0 0 M-129.053 968.608 L-118.932 968.608 L-118.932 956.545 L-114.38 956.545 L-114.38 968.608 L-95.0286 968.608 Q-90.668 968.608 -89.4267 967.43 Q-88.1854 966.221 -88.1854 962.56 L-88.1854 956.545 L-83.2838 956.545 L-83.2838 962.56 Q-83.2838 969.34 -85.7983 971.918 Q-88.3446 974.496 -95.0286 974.496 L-114.38 974.496 L-114.38 978.793 L-118.932 978.793 L-118.932 974.496 L-129.053 974.496 L-129.053 968.608 Z" fill="#000000" fill-rule="evenodd" fill-opacity="1" /><path clip-path="url(#clip190)" d="M 0 0 M-114.826 935.029 Q-114.826 939.739 -111.134 942.476 Q-107.474 945.214 -101.076 945.214 Q-94.6784 945.214 -90.9863 942.508 Q-87.3261 939.771 -87.3261 935.029 Q-87.3261 930.35 -91.0182 927.613 Q-94.7103 924.875 -101.076 924.875 Q-107.41 924.875 -111.102 927.613 Q-114.826 930.35 -114.826 935.029 M-119.791 935.029 Q-119.791 927.39 -114.826 923.029 Q-109.861 918.669 -101.076 918.669 Q-92.3231 918.669 -87.3261 923.029 Q-82.3608 927.39 -82.3608 935.029 Q-82.3608 942.699 -87.3261 947.06 Q-92.3231 951.388 -101.076 951.388 Q-109.861 951.388 -114.826 947.06 Q-119.791 942.699 -119.791 935.029 Z" fill="#000000" fill-rule="evenodd" fill-opacity="1" /><path clip-path="url(#clip190)" d="M 0 0 M-113.457 888.304 Q-114.03 889.291 -114.285 890.469 Q-114.571 891.614 -114.571 893.015 Q-114.571 897.98 -111.325 900.654 Q-108.11 903.296 -102.063 903.296 L-83.2838 903.296 L-83.2838 909.184 L-118.932 909.184 L-118.932 903.296 L-113.394 903.296 Q-116.64 901.45 -118.2 898.489 Q-119.791 895.529 -119.791 891.296 Q-119.791 890.691 -119.696 889.959 Q-119.632 889.227 -119.473 888.336 L-113.457 888.304 Z" fill="#000000" fill-rule="evenodd" fill-opacity="1" /><path clip-path="url(#clip190)" d="M 0 0 M-101.203 845.24 Q-101.203 852.338 -99.58 855.075 Q-97.9568 857.813 -94.0419 857.813 Q-90.9227 857.813 -89.0766 855.776 Q-87.2624 853.707 -87.2624 850.174 Q-87.2624 845.304 -90.6999 842.376 Q-94.1692 839.416 -99.8983 839.416 L-101.203 839.416 L-101.203 845.24 M-103.622 833.559 L-83.2838 833.559 L-83.2838 839.416 L-88.6947 839.416 Q-85.4482 841.421 -83.8886 844.413 Q-82.3608 847.405 -82.3608 851.733 Q-82.3608 857.208 -85.4163 860.454 Q-88.5037 863.669 -93.6599 863.669 Q-99.6755 863.669 -102.731 859.659 Q-105.787 855.616 -105.787 847.627 L-105.787 839.416 L-106.36 839.416 Q-110.402 839.416 -112.598 842.089 Q-114.826 844.731 -114.826 849.537 Q-114.826 852.593 -114.094 855.489 Q-113.362 858.385 -111.898 861.059 L-117.309 861.059 Q-118.55 857.844 -119.155 854.821 Q-119.791 851.797 -119.791 848.932 Q-119.791 841.198 -115.781 837.379 Q-111.77 833.559 -103.622 833.559 Z" fill="#000000" fill-rule="evenodd" fill-opacity="1" /><path clip-path="url(#clip190)" d="M 0 0 M-104.8 791.864 L-83.2838 791.864 L-83.2838 797.72 L-104.609 797.72 Q-109.67 797.72 -112.184 799.694 Q-114.699 801.667 -114.699 805.614 Q-114.699 810.356 -111.675 813.093 Q-108.651 815.831 -103.431 815.831 L-83.2838 815.831 L-83.2838 821.719 L-118.932 821.719 L-118.932 815.831 L-113.394 815.831 Q-116.608 813.73 -118.2 810.897 Q-119.791 808.033 -119.791 804.309 Q-119.791 798.166 -115.972 795.015 Q-112.184 791.864 -104.8 791.864 Z" fill="#000000" fill-rule="evenodd" fill-opacity="1" /><path clip-path="url(#clip190)" d="M 0 0 M-101.522 756.725 Q-107.887 756.725 -111.388 759.367 Q-114.89 761.977 -114.89 766.719 Q-114.89 771.43 -111.388 774.072 Q-107.887 776.682 -101.522 776.682 Q-95.1877 776.682 -91.6866 774.072 Q-88.1854 771.43 -88.1854 766.719 Q-88.1854 761.977 -91.6866 759.367 Q-95.1877 756.725 -101.522 756.725 M-87.708 750.869 Q-78.605 750.869 -74.1809 754.911 Q-69.7249 758.953 -69.7249 767.292 Q-69.7249 770.38 -70.2023 773.117 Q-70.6479 775.854 -71.6028 778.432 L-77.3001 778.432 Q-75.8996 775.854 -75.2312 773.34 Q-74.5628 770.825 -74.5628 768.215 Q-74.5628 762.454 -77.5865 759.59 Q-80.5784 756.725 -86.6577 756.725 L-89.554 756.725 Q-86.403 758.539 -84.8434 761.372 Q-83.2838 764.205 -83.2838 768.152 Q-83.2838 774.708 -88.2809 778.719 Q-93.278 782.729 -101.522 782.729 Q-109.797 782.729 -114.794 778.719 Q-119.791 774.708 -119.791 768.152 Q-119.791 764.205 -118.232 761.372 Q-116.672 758.539 -113.521 756.725 L-118.932 756.725 L-118.932 750.869 L-87.708 750.869 Z" fill="#000000" fill-rule="evenodd" fill-opacity="1" /><path clip-path="url(#clip190)" d="M 0 0 M-132.809 738.806 L-132.809 732.949 L-83.2838 732.949 L-83.2838 738.806 L-132.809 738.806 Z" fill="#000000" fill-rule="evenodd" fill-opacity="1" /><path clip-path="url(#clip190)" d="M 0 0 M-102.572 690.204 L-99.7073 690.204 L-99.7073 717.13 Q-93.6599 716.749 -90.4771 713.502 Q-87.3261 710.224 -87.3261 704.399 Q-87.3261 701.025 -88.1536 697.874 Q-88.9811 694.691 -90.6362 691.572 L-85.0981 691.572 Q-83.7613 694.723 -83.061 698.033 Q-82.3608 701.344 -82.3608 704.749 Q-82.3608 713.279 -87.3261 718.276 Q-92.2913 723.242 -100.758 723.242 Q-109.511 723.242 -114.635 718.531 Q-119.791 713.788 -119.791 705.768 Q-119.791 698.574 -115.144 694.405 Q-110.529 690.204 -102.572 690.204 M-104.291 696.06 Q-109.097 696.124 -111.961 698.765 Q-114.826 701.375 -114.826 705.704 Q-114.826 710.606 -112.057 713.566 Q-109.288 716.494 -104.259 716.939 L-104.291 696.06 Z" fill="#000000" fill-rule="evenodd" fill-opacity="1" /><path clip-path="url(#clip190)" d="M 0 0 M-132.809 660.412 L-132.809 646.917 L-128.258 646.917 L-128.258 654.556 L-79.2416 654.556 L-79.2416 646.917 L-74.6901 646.917 L-74.6901 660.412 L-132.809 660.412 Z" fill="#000000" fill-rule="evenodd" fill-opacity="1" /><path clip-path="url(#clip190)" d="M 0 0 M-113.457 613.783 Q-114.03 614.77 -114.285 615.948 Q-114.571 617.093 -114.571 618.494 Q-114.571 623.459 -111.325 626.133 Q-108.11 628.774 -102.063 628.774 L-83.2838 628.774 L-83.2838 634.663 L-118.932 634.663 L-118.932 628.774 L-113.394 628.774 Q-116.64 626.928 -118.2 623.968 Q-119.791 621.008 -119.791 616.775 Q-119.791 616.17 -119.696 615.438 Q-119.632 614.706 -119.473 613.815 L-113.457 613.783 Z" fill="#000000" fill-rule="evenodd" fill-opacity="1" /><path clip-path="url(#clip190)" d="M 0 0 M-101.203 591.44 Q-101.203 598.537 -99.58 601.275 Q-97.9568 604.012 -94.0419 604.012 Q-90.9227 604.012 -89.0766 601.975 Q-87.2624 599.906 -87.2624 596.373 Q-87.2624 591.503 -90.6999 588.575 Q-94.1692 585.615 -99.8983 585.615 L-101.203 585.615 L-101.203 591.44 M-103.622 579.759 L-83.2838 579.759 L-83.2838 585.615 L-88.6947 585.615 Q-85.4482 587.62 -83.8886 590.612 Q-82.3608 593.604 -82.3608 597.933 Q-82.3608 603.407 -85.4163 606.654 Q-88.5037 609.868 -93.6599 609.868 Q-99.6755 609.868 -102.731 605.858 Q-105.787 601.816 -105.787 593.827 L-105.787 585.615 L-106.36 585.615 Q-110.402 585.615 -112.598 588.289 Q-114.826 590.93 -114.826 595.736 Q-114.826 598.792 -114.094 601.688 Q-113.362 604.585 -111.898 607.258 L-117.309 607.258 Q-118.55 604.044 -119.155 601.02 Q-119.791 597.996 -119.791 595.132 Q-119.791 587.397 -115.781 583.578 Q-111.77 579.759 -103.622 579.759 Z" fill="#000000" fill-rule="evenodd" fill-opacity="1" /><path clip-path="url(#clip190)" d="M 0 0 M-113.521 544.238 L-132.809 544.238 L-132.809 538.381 L-83.2838 538.381 L-83.2838 544.238 L-88.631 544.238 Q-85.4482 546.084 -83.8886 548.917 Q-82.3608 551.718 -82.3608 555.664 Q-82.3608 562.126 -87.517 566.2 Q-92.6732 570.242 -101.076 570.242 Q-109.479 570.242 -114.635 566.2 Q-119.791 562.126 -119.791 555.664 Q-119.791 551.718 -118.232 548.917 Q-116.704 546.084 -113.521 544.238 M-101.076 564.194 Q-94.6148 564.194 -90.9227 561.553 Q-87.2624 558.879 -87.2624 554.232 Q-87.2624 549.585 -90.9227 546.911 Q-94.6148 544.238 -101.076 544.238 Q-107.537 544.238 -111.197 546.911 Q-114.89 549.585 -114.89 554.232 Q-114.89 558.879 -111.197 561.553 Q-107.537 564.194 -101.076 564.194 Z" fill="#000000" fill-rule="evenodd" fill-opacity="1" /><path clip-path="url(#clip190)" d="M 0 0 M-132.809 512.632 L-74.6901 512.632 L-74.6901 526.127 L-79.2416 526.127 L-79.2416 518.52 L-128.258 518.52 L-128.258 526.127 L-132.809 526.127 L-132.809 512.632 Z" fill="#000000" fill-rule="evenodd" fill-opacity="1" /><polyline clip-path="url(#clip192)" style="stroke:#009af9; stroke-width:4; stroke-opacity:1; fill:none" points="
  166.42,1464 166.491,1464 166.561,1464 166.703,1464 166.986,1464 167.552,1464 168.684,1464 170.948,1464 175.477,1464 184.533,1464 
  202.647,1464 237.175,1464 237.688,1462.61 238.201,1459.85 238.714,1455.73 239.74,1444.33 240.766,1428.04 241.792,1406.64 243.844,1349.46 
  245.896,1274.65 247.948,1184.62 249.794,1092.8 251.456,1003.35 252.917,920.856 254.179,847.677 255.226,786.312 256.168,731.015 256.724,698.566 257.336,663.164 
  257.948,628.177 258.56,593.699 259.785,526.215 261.013,461.22 262.242,399.673 263.471,342.219 264.7,289.455 267.158,199.885 269.615,134.711 272.342,94.0664 
  275.069,88.5087 277.795,117.992 280.522,180.584 283.249,272.607 285.975,389.023 288.702,523.309 291.429,667.978 294.155,815.069 296.882,956.616 299.609,1085.06 
  302.335,1193.57 305.062,1276.53 307.789,1329.77 310.515,1350.8 315.969,1294.84 320.62,1154.79 325.272,954.638 328.679,788.433 332.086,621.08 335.493,466.398 
  338.9,337.178 343.759,216.937 348.618,188.276 353.477,253.773 358.336,400.535 362.709,579.865 367.082,777.431 371.455,966.219 375.828,1121.04 379.764,1214.27 
  383.7,1253.52 387.636,1235.24 391.571,1162.56 395.507,1044.62 399.443,895.493 403.379,732.379 407.314,573.671 411.25,436.873 415.186,336.701 419.122,283.533 
  423.734,287.468 428.346,360.518 432.959,490.202 437.571,655.736 442.184,831.308 446.796,990.053 451.409,1108.14 456.111,1168.91 460.813,1161.23 465.514,1087.81 
  470.216,961.774 474.918,804.295 479.15,656.854 483.382,523.656 487.614,421.405 491.845,362.531 496.077,353.692 500.309,395.033 504.541,480.299 508.772,597.753 
  513.004,731.768 517.236,864.871 521.468,979.999 525.699,1062.69 529.931,1102.91 534.163,1096.31 538.395,1044.65 542.626,955.52 546.858,841.14 551.09,716.73 
  554.898,609.571 558.707,518.431 562.516,452.454 566.324,418.028 570.133,418.157 573.941,452.233 577.75,516.123 581.558,602.69 585.367,702.548 589.176,805.09 
  592.984,899.702 593.122,902.831 593.398,908.992 593.674,915.051 593.949,921.005 594.501,932.656 595.052,943.896 595.604,954.674 596.707,974.696 597.81,992.582 
  598.913,1008.19 600.016,1021.41 602.222,1040.3 604.429,1048.64 606.635,1046.11 608.841,1032.87 611.047,1009.54 614.153,961.605 617.26,899.295 620.366,827.165 
  623.473,750.347 626.579,674.146 629.685,603.899 632.792,544.393 635.898,499.613 639.005,472.267 642.111,464.076 645.218,475.383 648.324,505.231 651.43,551.61 
  654.537,611.048 657.643,679.223 660.75,751.135 663.856,821.674 666.962,885.907 670.069,939.462 672.865,975.551 675.66,998.208 678.456,1006.33 681.252,999.618 
  684.048,978.623 689.639,899.56 694.273,808.1 697.819,731.994 701.365,658.347 704.911,593.654 708.457,543.668 712.003,512.68 715.55,503.247 719.096,515.9 
  723.679,562.38 728.263,635.409 732.846,723.367 737.43,812.683 742.013,889.926 746.597,943.777 751.18,966.641 755.764,955.722 760.347,913.378 764.931,846.664 
  769.514,766.158 774.098,684.266 778.681,613.303 783.265,563.655 788.682,541.76 794.1,562.802 799.518,621.318 804.936,704.149 810.353,793.389 815.771,870.245 
  821.189,918.986 826.607,930.15 832.024,902.377 836.9,849.663 841.289,787.891 845.677,721.516 850.066,659.762 854.454,611.038 858.842,581.827 863.231,575.757 
  867.619,593.169 872.007,631.16 876.396,684.055 880.784,744.268 886.83,823.696 890.97,866.112 895.11,892.823 899.25,900.803 903.391,889.526 907.531,860.657 
  910.841,827.524 914.151,788.481 917.461,746.682 920.771,705.383 924.081,667.807 927.391,636.883 930.701,614.966 934.012,603.648 937.322,603.657 940.632,614.823 
  945.486,649.032 950.34,698.691 955.194,755.113 960.048,808.581 964.902,850.071 969.756,872.814 974.125,874.468 978.493,858.477 981.961,834.853 985.429,803.839 
  988.897,768.208 992.365,731.107 995.832,695.778 999.3,665.268 1004.11,635.69 1008.92,624.905 1013.73,634.189 1018.54,661.499 1023.35,701.969 1028.16,748.702 
  1032.49,789.704 1036.81,824.02 1040.66,845.173 1044.5,855.329 1048.34,853.603 1052.19,840.378 1056.03,817.246 1059.87,786.83 1063.71,752.522 1067.56,718.052 
  1071.4,687.089 1079.09,647.916 1086.77,650.47 1093.69,686.788 1099.91,735.698 1105.52,780.803 1111.12,816.603 1116.72,835.396 1122.33,833.329 1127.93,811.553 
  1133.53,775.674 1138.57,738.302 1143.62,703.239 1148.66,676.585 1153.7,663.254 1158.75,664.901 1163.79,681.638 1168.83,709.635 1173.37,739.673 1177.91,769.747 
  1182.45,795.725 1186.98,813.869 1191.52,821.529 1195.61,818.592 1199.69,806.867 1203.78,787.95 1207.86,764.247 1211.95,738.683 1216.03,714.353 1220.11,694.187 
  1228.28,674.988 1234.11,681.835 1239.94,704.136 1245.76,735.895 1251.59,768.851 1256.84,792.904 1262.08,806.815 1267.33,808.421 1272.57,797.799 1277.29,779.616 
  1282.01,756.349 1286.73,731.814 1291.45,709.963 1296.17,694.22 1302.24,686.612 1308.31,694.539 1314.39,715.712 1320.46,744.114 1326.53,771.851 1332,790.182 
  1337.46,798.459 1342.93,795.303 1348.39,781.669 1353.86,760.663 1359.32,736.915 1364.79,715.563 1370.25,701.098 1375.72,696.408 1381.18,702.214 1386.65,716.998 
  1392.11,737.391 1397.58,758.923 1403.04,776.994 1408.51,787.857 1414.57,788.954 1420.62,778.648 1426.68,759.954 1432.74,738.006 1438.79,718.632 1444.85,706.797 
  1450.91,705.344 1456.97,714.325 1463.02,731.086 1469.08,751.032 1475.14,768.879 1481.19,780.043 1487.25,781.818 1493.31,774.027 1499.37,758.991 1505.42,740.85 
  1511.48,724.42 1517.54,713.926 1523.59,711.915 1529.65,718.649 1535.71,732.112 1541.77,748.594 1547.82,763.714 1553.88,773.578 1559.94,775.778 1566,769.972 
  1572.05,757.919 1578.11,742.947 1584.17,729.044 1590.22,719.795 1596.28,717.465 1602.34,722.448 1608.4,733.223 1614.45,746.811 1620.51,759.59 1626.57,768.257 
  1632.62,770.682 1638.68,766.423 1644.74,756.793 1650.8,744.463 1656.85,732.727 1662.91,724.621 1668.97,722.142 1675.02,725.764 1681.08,734.358 1687.14,745.536 
  1693.2,756.309 1699.25,763.887 1705.31,766.394 1711.37,763.33 1717.42,755.665 1723.48,745.534 1729.54,735.65 1735.6,728.579 1741.65,726.074 1747.71,728.648 
  1753.77,735.475 1759.82,744.649 1765.88,753.712 1771.94,760.306 1778,762.792 1784.05,760.647 1790.11,754.57 1796.17,746.264 1802.23,737.96 1808.28,731.819 
  1814.34,729.373 1820.4,731.145 1826.45,736.545 1832.51,744.058 1838.57,751.663 1844.63,757.379 1850.68,759.774 1856.74,758.327 1862.8,753.531 1868.85,746.738 
  1874.91,739.776 1880.97,734.464 1887.03,732.133 1895.01,734.283 1902.19,740.468 1909.37,748.435 1916.56,755.213 1923.74,758.307 1930.92,756.597 1938.1,750.599 
  1945.29,742.235 1952.47,734.746 1959.65,731.166 1966.84,732.65 1973.13,737.712 1979.42,744.776 1985.71,752.09 1992.01,757.855 1998.64,760.387 2005.27,758.442 
  2011.24,753.274 2017.21,746.233 2023.18,738.89 2029.15,732.86 2036.25,729.56 2043.35,731.522 2049.74,737.358 2055.49,744.585 2061.25,751.951 2067,757.765 
  2072.72,760.69 2078.45,760.107 2084.17,756.161 2089.9,749.758 2095.62,742.363 2101.35,735.657 2107.07,731.218 2112.8,730.133 2118.52,732.667 2124.25,738.197 
  2129.97,745.369 2135.69,752.445 2141.42,757.673 2149.54,759.668 2157.65,754.862 2164.96,746.739 2172.26,738.369 2179.57,732.977 2186.87,732.481 2194.18,736.844 
  2201.48,744.206 2208.79,751.679 2216.09,756.449 2223.4,756.823 2230.7,752.823 2238.01,746.128 2245.31,739.379 2252.62,735.137 2259.92,734.907 2267.23,738.615 
  2274.53,744.701 2281.84,750.769 2289.08,754.507 
  "/>
<path clip-path="url(#clip190)" d="
M1790.58 216.805 L2277.76 216.805 L2277.76 95.8446 L1790.58 95.8446  Z
  " fill="#ffffff" fill-rule="evenodd" fill-opacity="1"/>
<polyline clip-path="url(#clip190)" style="stroke:#000000; stroke-width:4; stroke-opacity:1; fill:none" points="
  1790.58,216.805 2277.76,216.805 2277.76,95.8446 1790.58,95.8446 1790.58,216.805 
  "/>
<polyline clip-path="url(#clip190)" style="stroke:#009af9; stroke-width:4; stroke-opacity:1; fill:none" points="
  1815.58,156.325 1965.58,156.325 
  "/>
<path clip-path="url(#clip190)" d="M 0 0 M2009.49 160.341 Q2009.49 155.711 2007.57 153.165 Q2005.67 150.619 2002.22 150.619 Q1998.8 150.619 1996.88 153.165 Q1994.98 155.711 1994.98 160.341 Q1994.98 164.947 1996.88 167.494 Q1998.8 170.04 2002.22 170.04 Q2005.67 170.04 2007.57 167.494 Q2009.49 164.947 2009.49 160.341 M2013.75 170.387 Q2013.75 177.007 2010.81 180.225 Q2007.87 183.466 2001.81 183.466 Q1999.56 183.466 1997.57 183.118 Q1995.58 182.794 1993.71 182.1 L1993.71 177.956 Q1995.58 178.975 1997.41 179.461 Q1999.24 179.947 2001.14 179.947 Q2005.33 179.947 2007.41 177.748 Q2009.49 175.572 2009.49 171.151 L2009.49 169.044 Q2008.17 171.336 2006.11 172.47 Q2004.05 173.605 2001.18 173.605 Q1996.41 173.605 1993.5 169.97 Q1990.58 166.336 1990.58 160.341 Q1990.58 154.322 1993.5 150.688 Q1996.41 147.054 2001.18 147.054 Q2004.05 147.054 2006.11 148.188 Q2008.17 149.322 2009.49 151.614 L2009.49 147.679 L2013.75 147.679 L2013.75 170.387 Z" fill="#000000" fill-rule="evenodd" fill-opacity="1" /><path clip-path="url(#clip190)" d="M 0 0 M2044.7 159.577 L2044.7 161.66 L2025.12 161.66 Q2025.4 166.058 2027.76 168.373 Q2030.14 170.665 2034.38 170.665 Q2036.83 170.665 2039.12 170.063 Q2041.44 169.461 2043.71 168.257 L2043.71 172.285 Q2041.41 173.257 2039.01 173.767 Q2036.6 174.276 2034.12 174.276 Q2027.92 174.276 2024.28 170.665 Q2020.67 167.054 2020.67 160.896 Q2020.67 154.531 2024.1 150.804 Q2027.55 147.054 2033.38 147.054 Q2038.61 147.054 2041.64 150.433 Q2044.7 153.79 2044.7 159.577 M2040.44 158.327 Q2040.39 154.832 2038.47 152.748 Q2036.58 150.665 2033.43 150.665 Q2029.86 150.665 2027.71 152.679 Q2025.58 154.693 2025.26 158.35 L2040.44 158.327 Z" fill="#000000" fill-rule="evenodd" fill-opacity="1" /><path clip-path="url(#clip190)" d="M 0 0 M2073.24 157.957 L2073.24 173.605 L2068.98 173.605 L2068.98 158.095 Q2068.98 154.415 2067.55 152.586 Q2066.11 150.758 2063.24 150.758 Q2059.79 150.758 2057.8 152.957 Q2055.81 155.156 2055.81 158.952 L2055.81 173.605 L2051.53 173.605 L2051.53 147.679 L2055.81 147.679 L2055.81 151.707 Q2057.34 149.369 2059.4 148.211 Q2061.48 147.054 2064.19 147.054 Q2068.66 147.054 2070.95 149.832 Q2073.24 152.586 2073.24 157.957 Z" fill="#000000" fill-rule="evenodd" fill-opacity="1" /><path clip-path="url(#clip190)" d="M 0 0 M2079.58 158.72 L2092.06 158.72 L2092.06 162.517 L2079.58 162.517 L2079.58 158.72 Z" fill="#000000" fill-rule="evenodd" fill-opacity="1" /><path clip-path="url(#clip190)" d="M 0 0 M2100.26 169.669 L2107.89 169.669 L2107.89 143.304 L2099.58 144.971 L2099.58 140.711 L2107.85 139.045 L2112.52 139.045 L2112.52 169.669 L2120.16 169.669 L2120.16 173.605 L2100.26 173.605 L2100.26 169.669 Z" fill="#000000" fill-rule="evenodd" fill-opacity="1" /><path clip-path="url(#clip190)" d="M 0 0 M2139.61 142.123 Q2136 142.123 2134.17 145.688 Q2132.36 149.23 2132.36 156.359 Q2132.36 163.466 2134.17 167.031 Q2136 170.572 2139.61 170.572 Q2143.24 170.572 2145.05 167.031 Q2146.88 163.466 2146.88 156.359 Q2146.88 149.23 2145.05 145.688 Q2143.24 142.123 2139.61 142.123 M2139.61 138.42 Q2145.42 138.42 2148.47 143.026 Q2151.55 147.609 2151.55 156.359 Q2151.55 165.086 2148.47 169.693 Q2145.42 174.276 2139.61 174.276 Q2133.8 174.276 2130.72 169.693 Q2127.66 165.086 2127.66 156.359 Q2127.66 147.609 2130.72 143.026 Q2133.8 138.42 2139.61 138.42 Z" fill="#000000" fill-rule="evenodd" fill-opacity="1" /><path clip-path="url(#clip190)" d="M 0 0 M2163.8 169.669 L2180.12 169.669 L2180.12 173.605 L2158.17 173.605 L2158.17 169.669 Q2160.83 166.915 2165.42 162.285 Q2170.02 157.632 2171.2 156.29 Q2173.45 153.767 2174.33 152.031 Q2175.23 150.271 2175.23 148.582 Q2175.23 145.827 2173.29 144.091 Q2171.37 142.355 2168.26 142.355 Q2166.07 142.355 2163.61 143.119 Q2161.18 143.883 2158.4 145.433 L2158.4 140.711 Q2161.23 139.577 2163.68 138.998 Q2166.13 138.42 2168.17 138.42 Q2173.54 138.42 2176.74 141.105 Q2179.93 143.79 2179.93 148.281 Q2179.93 150.41 2179.12 152.332 Q2178.33 154.23 2176.23 156.822 Q2175.65 157.494 2172.55 160.711 Q2169.45 163.906 2163.8 169.669 Z" fill="#000000" fill-rule="evenodd" fill-opacity="1" /><path clip-path="url(#clip190)" d="M 0 0 M2187.18 158.72 L2199.65 158.72 L2199.65 162.517 L2187.18 162.517 L2187.18 158.72 Z" fill="#000000" fill-rule="evenodd" fill-opacity="1" /><path clip-path="url(#clip190)" d="M 0 0 M2207.85 169.669 L2215.49 169.669 L2215.49 143.304 L2207.18 144.971 L2207.18 140.711 L2215.44 139.045 L2220.12 139.045 L2220.12 169.669 L2227.76 169.669 L2227.76 173.605 L2207.85 173.605 L2207.85 169.669 Z" fill="#000000" fill-rule="evenodd" fill-opacity="1" /></svg>
